<svg width="208" height="208" viewBox="0 0 208 208" fill="none" xmlns="http://www.w3.org/2000/svg">
<g clip-path="url(#clip0_85_2109)">
<rect width="208" height="208" fill="#D4D4D4"/>
<g clip-path="url(#clip1_85_2109)">
<g clip-path="url(#clip2_85_2109)">
<path d="M149.449 96.4334H84.5665V45.0248L121.32 42.1785C136.492 41.004 149.449 52.9973 149.449 68.2134V96.4334Z" fill="#555A5E"/>
<path d="M84.5666 45.0247H79.3792C67.9764 45.0247 58.7344 54.2684 58.7344 65.6696V96.4317L76.763 83.9991L84.5666 45.0247Z" fill="#555A5E"/>
<path d="M149.449 91.6966C149.449 120.256 129.143 143.409 104.092 143.409C83.03 143.409 65.3312 127.046 60.2307 104.874C59.2492 100.675 58.7344 96.25 58.7344 91.6966C58.7344 63.1532 79.0397 40 104.092 40C129.143 40 149.449 63.1532 149.449 91.6966Z" fill="#555A5E"/>
<path d="M196.229 212.237C188.2 220.555 179.045 227.796 169.037 233.684C168.763 233.845 168.474 234.022 168.184 234.183C149.343 245.108 127.461 251.367 104.114 251.367C81.476 251.367 60.2053 245.494 41.7664 235.181C40.9136 234.698 40.077 234.215 39.2403 233.733C29.2003 227.796 20.013 220.555 12.0002 212.221L14.2045 203.548C17.519 190.483 27.8165 180.347 40.9136 177.209L44.9522 176.244L47.6713 175.6L60.6558 172.495L62.4257 172.076L62.8279 171.98C64.6944 171.546 66.4803 170.902 68.1698 170.081C71.082 168.698 73.6886 166.783 75.8768 164.466C78.966 161.248 81.2347 157.242 82.3771 152.769L84.0826 146.124L84.5492 144.338L84.5814 144.209L86.7535 135.762L87.4132 133.236H120.8L123.277 142.89L123.503 143.742L123.631 144.241L123.664 144.354L124.13 146.156L125.82 152.769C127.815 160.508 133.156 166.831 140.22 170.178H140.236C141.877 170.95 143.599 171.546 145.385 171.98L147.541 172.495L147.653 172.527L162.424 176.051L163.357 176.276L167.299 177.209C180.396 180.347 190.694 190.483 194.008 203.548L196.229 212.237Z" fill="#F4F4F4"/>
<path d="M123.619 144.23C120.787 156.667 113.12 165.587 104.1 165.587C95.0737 165.587 87.3924 156.648 84.567 144.196L86.7456 135.749L87.3988 133.224H120.782L123.266 142.878L123.493 143.744L123.619 144.23Z" fill="#D2D4DA"/>
<path d="M66.7554 96.9016C50.133 78.2503 61.2237 123.846 70.4191 118.517C86.5829 109.149 66.7554 96.9016 66.7554 96.9016Z" fill="#F4F4F4"/>
<path d="M141.425 96.9016C158.047 78.2503 146.957 123.846 137.761 118.517C121.597 109.149 141.425 96.9016 141.425 96.9016Z" fill="#F4F4F4"/>
<path d="M142.762 83.4537C142.762 84.8696 142.682 86.2695 142.537 87.6371C142.44 88.6347 142.07 92.1101 141.443 96.8405L141.427 96.9048C139.689 109.825 135.94 131.997 130.019 137.902C125.771 142.165 122.344 146.011 118.466 148.811C114.573 151.61 110.212 153.332 104.098 153.332H104.082C91.87 153.332 86.673 146.397 78.1776 137.902C73.9299 133.654 70.7924 121.023 68.7007 109.455C68.6041 108.908 68.5076 108.345 68.4272 107.814C68.1375 106.092 67.864 104.387 67.6066 102.762C66.2711 94.1213 65.6275 87.3636 65.6275 87.3636C65.4988 86.0764 65.4344 84.7731 65.4344 83.4537C65.4344 83.1158 65.4344 82.778 65.4505 82.4401C65.531 79.3991 65.9493 76.4386 66.6895 73.6068C66.7216 73.4781 66.7699 73.3494 66.8021 73.2206C71.0981 57.517 85.0479 45.8036 101.878 44.8543C102.618 44.806 103.342 44.7899 104.082 44.7899H104.098C125.449 44.7899 142.762 62.1026 142.762 83.4537Z" fill="#F4F4F4"/>
<path d="M143.776 83.7064C143.776 85.1593 143.694 86.5961 143.544 87.9991C143.446 89.0224 141.425 96.9 141.425 96.9C102.061 95.1655 85.3568 76.4418 85.3568 76.4418C78.4221 96.8002 67.6066 102.762 67.6066 102.762C66.2357 93.8944 64.6187 87.7191 64.6187 87.7191C64.4867 86.3982 64.4208 85.0611 64.4208 83.7064C64.4208 83.3588 64.4208 83.0129 64.4369 82.667C64.5189 79.5455 64.9485 76.5078 65.708 73.602C65.7418 73.47 65.79 73.3381 65.8238 73.2062C70.2324 57.0906 84.5475 45.0699 101.818 44.0965C102.578 44.0466 103.321 44.0305 104.081 44.0305H104.097C126.008 44.0305 143.776 61.7969 143.776 83.7064Z" fill="#555A5E"/>
<path d="M196.228 212.237C188.2 220.555 179.045 227.796 169.037 233.684C168.763 233.845 168.474 234.022 168.184 234.183C158.369 239.879 147.718 244.304 136.471 247.232C126.141 249.935 115.297 251.367 104.114 251.367C93.0284 251.367 82.2804 249.967 72.0312 247.296C61.3315 244.561 51.1788 240.442 41.7663 235.181C40.9135 234.698 40.0768 234.215 39.2402 233.733C29.2001 227.796 20.0128 220.555 12.0001 212.221L14.2044 203.548C17.5189 190.483 27.8164 180.347 40.9135 177.209L44.952 176.244L47.6712 175.6L60.6557 172.495L62.4256 172.076L62.8278 171.98C64.6942 171.546 66.4802 170.902 68.1696 170.081L68.2179 170.097L81.9747 183.854C84.9352 186.799 88.4106 189.116 92.1917 190.692C95.9728 192.253 100.076 193.09 104.259 193.09C112.61 193.09 120.622 189.759 126.543 183.854L140.22 170.178H140.236C141.877 170.95 143.599 171.546 145.385 171.98L147.541 172.495L147.653 172.527L162.424 176.051L163.357 176.276L167.299 177.209C180.396 180.347 190.694 190.483 194.008 203.548L196.228 212.237Z" fill="#555A5E"/>
</g>
</g>
</g>
<defs>
<clipPath id="clip0_85_2109">
<rect width="208" height="208" fill="white"/>
</clipPath>
<clipPath id="clip1_85_2109">
<rect width="208" height="208" fill="white"/>
</clipPath>
<clipPath id="clip2_85_2109">
<rect width="208" height="208" rx="8" fill="white"/>
</clipPath>
</defs>
</svg>
