<svg width="20" height="21" viewBox="0 0 20 21" fill="none" xmlns="http://www.w3.org/2000/svg">
<g filter="url(#filter0_n_289_5870)">
<path d="M10.0002 0C13.246 0.000131395 15.7185 2.70545 16.0582 5.94644C16.0764 6.12011 16.0855 6.20695 16.1199 6.26474C16.152 6.31843 16.1919 6.35524 16.2481 6.38273C16.3085 6.41233 16.3916 6.41416 16.5577 6.41781C17.6022 6.44081 18.2402 6.52194 18.716 6.81348C19.2974 7.16976 19.7264 7.729 19.9201 8.38281C20.1411 9.12898 19.8876 10.0743 19.381 11.9648L18.3595 15.7773C17.8887 17.5344 17.6536 18.4133 17.1525 19.0664C16.7103 19.6428 16.1235 20.0921 15.4523 20.3701C14.6917 20.6852 13.7821 20.6855 11.9631 20.6855H8.03728C6.21825 20.6855 5.30861 20.6852 4.54802 20.3701C3.87686 20.0921 3.29007 19.6428 2.84782 19.0664C2.34672 18.4133 2.11159 17.5344 1.64079 15.7773L0.619308 11.9648C0.112747 10.0743 -0.140752 9.12898 0.080246 8.38281C0.273914 7.729 0.702938 7.16976 1.28435 6.81348C1.76016 6.52193 2.39811 6.44081 3.44262 6.41781C3.60875 6.41416 3.69182 6.41233 3.75226 6.38273C3.8084 6.35524 3.84838 6.31843 3.8804 6.26474C3.91487 6.20694 3.92397 6.1201 3.94217 5.94643C4.28183 2.70541 6.75431 8.90221e-05 10.0002 0ZM10.0002 2.41406C8.30957 2.41415 6.71878 3.82082 6.38191 5.89171C6.35578 6.05231 6.34272 6.13262 6.37122 6.20872C6.39472 6.27146 6.44757 6.33361 6.50572 6.36687C6.57626 6.40723 6.66544 6.40723 6.84379 6.40723H13.1556C13.3339 6.40723 13.4231 6.40723 13.4936 6.36687C13.5518 6.33361 13.6046 6.27147 13.6281 6.20873C13.6566 6.13263 13.6436 6.05232 13.6175 5.8917C13.2807 3.82086 11.6907 2.41419 10.0002 2.41406Z" fill="#0DC267"/>
</g>
<path d="M6.54949 16.4048L7.35459 11.5742H8.65886L7.85375 16.4048H6.54949ZM8.14359 11.0186C7.93963 11.0186 7.78129 10.9677 7.66858 10.8657C7.56123 10.7583 7.50756 10.6161 7.50756 10.439C7.50756 10.2189 7.57733 10.0445 7.71689 9.91566C7.85644 9.78148 8.04161 9.71438 8.27241 9.71438C8.47637 9.71438 8.63202 9.76806 8.73937 9.8754C8.85208 9.97738 8.90844 10.1143 8.90844 10.286C8.90844 10.5007 8.83866 10.6778 8.69911 10.8174C8.56493 10.9516 8.37975 11.0186 8.14359 11.0186ZM8.66326 16.4048L9.27514 12.7335C9.31807 12.492 9.35296 12.2639 9.3798 12.0492C9.40664 11.8291 9.42005 11.6708 9.42005 11.5742H10.5794C10.5794 11.6869 10.5714 11.805 10.5552 11.9284C10.5445 12.0465 10.5284 12.1699 10.5069 12.2988H10.7002C10.8236 12.0572 10.9846 11.856 11.1832 11.6949C11.3818 11.5339 11.6582 11.4534 12.0125 11.4534C12.356 11.4534 12.6378 11.5312 12.8578 11.6869C13.0833 11.8425 13.2389 12.0572 13.3248 12.331C13.416 12.5993 13.4321 12.9133 13.3731 13.2729L12.8498 16.4048H11.5455L12.0366 13.4581C12.0957 13.1253 12.0823 12.8704 11.9964 12.6933C11.9105 12.5161 11.7575 12.4276 11.5375 12.4276C11.3335 12.4276 11.151 12.5027 10.99 12.653C10.829 12.8033 10.6948 13.0046 10.5875 13.2568C10.4855 13.5091 10.4076 13.7855 10.354 14.0861L9.96752 16.4048H8.66326Z" fill="#111111"/>
<defs>
<filter id="filter0_n_289_5870" x="0" y="0" width="20.0003" height="20.6855" filterUnits="userSpaceOnUse" color-interpolation-filters="sRGB">
<feFlood flood-opacity="0" result="BackgroundImageFix"/>
<feBlend mode="normal" in="SourceGraphic" in2="BackgroundImageFix" result="shape"/>
<feTurbulence type="fractalNoise" baseFrequency="19.240030288696289 19.240030288696289" stitchTiles="stitch" numOctaves="3" result="noise" seed="3341" />
<feComponentTransfer in="noise" result="coloredNoise1">
<feFuncR type="linear" slope="2" intercept="-0.5" />
<feFuncG type="linear" slope="2" intercept="-0.5" />
<feFuncB type="linear" slope="2" intercept="-0.5" />
<feFuncA type="discrete" tableValues="1 1 1 1 1 1 1 1 1 1 1 1 1 1 1 1 1 1 1 1 1 1 1 1 1 1 1 1 1 1 1 1 1 1 1 1 1 1 1 1 1 1 1 1 1 1 1 1 1 1 1 0 0 0 0 0 0 0 0 0 0 0 0 0 0 0 0 0 0 0 0 0 0 0 0 0 0 0 0 0 0 0 0 0 0 0 0 0 0 0 0 0 0 0 0 0 0 0 0 0 "/>
</feComponentTransfer>
<feComposite operator="in" in2="shape" in="coloredNoise1" result="noise1Clipped" />
<feComponentTransfer in="noise1Clipped" result="color1">
<feFuncA type="table" tableValues="0 0.14" />
</feComponentTransfer>
<feMerge result="effect1_noise_289_5870">
<feMergeNode in="shape" />
<feMergeNode in="color1" />
</feMerge>
</filter>
</defs>
</svg>
