<svg width="79" height="82" viewBox="0 0 79 82" fill="none" xmlns="http://www.w3.org/2000/svg">
<g filter="url(#filter0_n_4220_513)">
<path d="M39.2498 0C51.9878 0.000350734 61.6933 10.6153 63.0289 23.3337C63.1005 24.0152 63.1363 24.356 63.2715 24.5828C63.3972 24.7935 63.5539 24.9378 63.7742 25.0457C64.0113 25.1619 64.3374 25.1692 64.9896 25.1838C69.0883 25.2756 71.5915 25.5999 73.4588 26.7441C75.7407 28.1426 77.4243 30.3363 78.1844 32.9023C79.0518 35.831 78.0574 39.5417 76.0692 46.9619L72.0594 61.9248C70.2113 68.8221 69.2873 72.2713 67.3201 74.835C65.5842 77.0971 63.2836 78.8629 60.6492 79.9541C57.6638 81.1907 54.0926 81.1904 46.952 81.1904H31.5467C24.4063 81.1904 20.8359 81.1906 17.8504 79.9541C15.2159 78.8628 12.9145 77.0973 11.1785 74.835C9.21135 72.2713 8.28741 68.8221 6.43928 61.9248L2.42952 46.9619C0.441244 39.5416 -0.552239 35.8311 0.31526 32.9023C1.0754 30.3362 2.75883 28.1426 5.04085 26.7441C6.90793 25.6 9.41039 25.2756 13.5081 25.1838C14.1603 25.1692 14.4864 25.1619 14.7235 25.0457C14.9438 24.9378 15.1005 24.7935 15.2262 24.5828C15.3614 24.356 15.3972 24.0153 15.4688 23.3337C16.8046 10.6151 26.5115 0 39.2498 0ZM39.2498 9.47656C32.6142 9.47656 26.3678 14.9961 25.0451 23.124C24.9425 23.7544 24.8912 24.0696 25.0031 24.3683C25.0953 24.6145 25.3028 24.8585 25.531 24.9891C25.8079 25.1475 26.1579 25.1475 26.8579 25.1475H51.6407C52.3408 25.1475 52.6908 25.1475 52.9677 24.9891C53.1959 24.8585 53.4034 24.6145 53.4956 24.3683C53.6075 24.0696 53.5562 23.7544 53.4536 23.124C52.1309 14.9964 45.8852 9.47691 39.2498 9.47656Z" fill="#0DC267"/>
</g>
<path d="M25.7058 64.1386L28.8658 45.1786H33.985L30.825 64.1386H25.7058ZM31.9626 42.9982C31.1621 42.9982 30.5406 42.7981 30.0982 42.3978C29.6769 41.9765 29.4662 41.4182 29.4662 40.723C29.4662 39.8593 29.7401 39.1746 30.2878 38.669C30.8356 38.1423 31.5624 37.879 32.4682 37.879C33.2688 37.879 33.8797 38.0897 34.301 38.511C34.7434 38.9113 34.9646 39.4485 34.9646 40.1226C34.9646 40.9653 34.6908 41.6605 34.143 42.2082C33.6164 42.7349 32.8896 42.9982 31.9626 42.9982ZM34.0023 64.1386L36.4039 49.729C36.5725 48.781 36.7094 47.8857 36.8147 47.043C36.9201 46.1793 36.9727 45.5578 36.9727 45.1786H41.5231C41.5231 45.621 41.4915 46.0845 41.4283 46.569C41.3862 47.0325 41.323 47.517 41.2387 48.0226H41.9971C42.4817 47.0746 43.1137 46.2846 43.8931 45.6526C44.6726 45.0206 45.7575 44.7046 47.1479 44.7046C48.4962 44.7046 49.6022 45.0101 50.4659 45.621C51.3507 46.2319 51.9617 47.0746 52.2987 48.149C52.6569 49.2023 52.7201 50.4347 52.4883 51.8462L50.4343 64.1386H45.3151L47.2427 52.573C47.4745 51.2669 47.4218 50.2662 47.0847 49.571C46.7477 48.8758 46.1473 48.5282 45.2835 48.5282C44.483 48.5282 43.7667 48.8231 43.1347 49.413C42.5027 50.0029 41.9761 50.7929 41.5547 51.783C41.1545 52.7731 40.849 53.8581 40.6383 55.0378L39.1215 64.1386H34.0023Z" fill="#F8F8F8"/>
<defs>
<filter id="filter0_n_4220_513" x="0" y="0" width="78.4995" height="81.1904" filterUnits="userSpaceOnUse" color-interpolation-filters="sRGB">
<feFlood flood-opacity="0" result="BackgroundImageFix"/>
<feBlend mode="normal" in="SourceGraphic" in2="BackgroundImageFix" result="shape"/>
<feTurbulence type="fractalNoise" baseFrequency="4.9019608497619629 4.9019608497619629" stitchTiles="stitch" numOctaves="3" result="noise" seed="3341" />
<feComponentTransfer in="noise" result="coloredNoise1">
<feFuncR type="linear" slope="2" intercept="-0.5" />
<feFuncG type="linear" slope="2" intercept="-0.5" />
<feFuncB type="linear" slope="2" intercept="-0.5" />
<feFuncA type="discrete" tableValues="1 1 1 1 1 1 1 1 1 1 1 1 1 1 1 1 1 1 1 1 1 1 1 1 1 1 1 1 1 1 1 1 1 1 1 1 1 1 1 1 1 1 1 1 1 1 1 1 1 1 1 0 0 0 0 0 0 0 0 0 0 0 0 0 0 0 0 0 0 0 0 0 0 0 0 0 0 0 0 0 0 0 0 0 0 0 0 0 0 0 0 0 0 0 0 0 0 0 0 0 "/>
</feComponentTransfer>
<feComposite operator="in" in2="shape" in="coloredNoise1" result="noise1Clipped" />
<feComponentTransfer in="noise1Clipped" result="color1">
<feFuncA type="table" tableValues="0 0.14" />
</feComponentTransfer>
<feMerge result="effect1_noise_4220_513">
<feMergeNode in="shape" />
<feMergeNode in="color1" />
</feMerge>
</filter>
</defs>
</svg>
