<svg width="189" height="189" viewBox="0 0 189 189" fill="none" xmlns="http://www.w3.org/2000/svg">
<rect width="189" height="189" rx="48" fill="#0DC267"/>
<path d="M95.1461 39C112.719 39.0012 126.104 53.6469 127.944 71.1935C128.042 72.1337 128.092 72.6039 128.278 72.9167C128.452 73.2074 128.668 73.4067 128.972 73.5556C129.299 73.7157 129.749 73.7258 130.649 73.7458C136.306 73.8713 139.761 74.315 142.337 75.8936C145.484 77.8229 147.806 80.8478 148.854 84.3869C149.902 87.9221 148.982 92.2835 146.898 100.177L145.936 103.782L140.407 124.424C137.858 133.938 136.581 138.696 133.867 142.233C131.473 145.353 128.298 147.789 124.664 149.295C120.546 151 115.62 151 105.771 151H84.5182C74.6685 151 69.7435 151.001 65.6252 149.295C61.9908 147.789 58.8163 145.353 56.4215 142.233C53.708 138.696 52.4342 133.938 49.8848 124.424L44.3527 103.782C41.61 93.5461 40.2379 88.427 41.4347 84.3869C42.4833 80.8472 44.8072 77.8229 47.9549 75.8936C50.5303 74.3157 53.9819 73.8717 59.6337 73.7458C60.5333 73.7258 60.9832 73.7157 61.3103 73.5556C61.6143 73.4067 61.8305 73.2074 62.0039 72.9167C62.1905 72.604 62.2398 72.1338 62.3384 71.1936C64.1793 53.6462 77.5722 39 95.1461 39ZM95.1461 52.0734C85.9926 52.0734 77.3796 59.6867 75.5549 70.8981C75.4135 71.7678 75.3424 72.2026 75.4967 72.6147C75.624 72.9543 75.9103 73.291 76.225 73.471C76.607 73.6896 77.0899 73.6896 78.0557 73.6896H112.23C113.196 73.6896 113.679 73.6896 114.061 73.471C114.375 73.291 114.662 72.9543 114.789 72.6147C114.943 72.2026 114.873 71.7678 114.731 70.8981C112.907 59.6876 104.299 52.0746 95.1461 52.0734Z" fill="white"/>
<path d="M76.4612 127.823L80.8201 101.667H87.8823L83.523 127.823H76.4612ZM85.0921 98.6598C83.9879 98.6598 83.1308 98.3836 82.5203 97.8314C81.9392 97.25 81.6486 96.4801 81.6486 95.5211C81.6486 94.3296 82.0262 93.3851 82.7819 92.6876C83.5375 91.9611 84.5402 91.5977 85.7899 91.5977C86.8941 91.5977 87.7367 91.8883 88.3181 92.4697C88.9283 93.0217 89.2335 93.7628 89.2335 94.6927C89.2335 95.8551 88.8558 96.8141 88.1002 97.5698C87.3736 98.2963 86.371 98.6598 85.0921 98.6598ZM87.9059 127.823L91.2189 107.945C91.4514 106.637 91.6402 105.402 91.7857 104.239C91.9309 103.048 92.0037 102.191 92.0037 101.667H98.2807C98.2807 102.278 98.2374 102.917 98.1501 103.586C98.0919 104.225 98.0049 104.893 97.8885 105.591H98.9348C99.6032 104.283 100.475 103.193 101.55 102.321C102.625 101.45 104.122 101.014 106.04 101.014C107.9 101.014 109.426 101.435 110.617 102.278C111.838 103.121 112.681 104.283 113.146 105.765C113.64 107.218 113.727 108.918 113.407 110.865L110.574 127.823H103.512L106.171 111.868C106.491 110.066 106.418 108.686 105.953 107.727C105.488 106.768 104.66 106.288 103.468 106.288C102.364 106.288 101.376 106.695 100.504 107.509C99.6323 108.323 98.9057 109.412 98.3243 110.778C97.7724 112.144 97.3508 113.641 97.0604 115.268L94.9677 127.823H87.9059Z" fill="#111111"/>
</svg>
