<svg width="16" height="16" viewBox="0 0 16 16" fill="none" xmlns="http://www.w3.org/2000/svg">
<path d="M6.75 9.25L10 6" stroke="white" stroke-linecap="round" stroke-linejoin="round"/>
<path d="M13.9806 2.63624C14.0047 2.55072 14.0056 2.46031 13.9832 2.37433C13.9607 2.28835 13.9158 2.20991 13.8529 2.14707C13.7901 2.08424 13.7116 2.03928 13.6257 2.01684C13.5397 1.99439 13.4493 1.99527 13.3638 2.01937L1.36375 5.65812C1.26578 5.68577 1.17858 5.74266 1.11382 5.8212C1.04905 5.89973 1.00979 5.99616 1.0013 6.09761C0.992808 6.19905 1.01548 6.30067 1.06629 6.38888C1.1171 6.47709 1.19362 6.54769 1.28563 6.59124L6.75 9.24999L9.40875 14.7137C9.45231 14.8058 9.52291 14.8823 9.61112 14.9331C9.69933 14.9839 9.80095 15.0066 9.90239 14.9981C10.0038 14.9896 10.1003 14.9503 10.1788 14.8856C10.2573 14.8208 10.3142 14.7336 10.3419 14.6356L13.9806 2.63624Z" stroke="white" stroke-linecap="round" stroke-linejoin="round"/>
</svg>
