<svg width="32" height="32" viewBox="0 0 32 32" fill="none" xmlns="http://www.w3.org/2000/svg">
<path d="M28.75 13C28.748 11.2104 28.0362 9.49466 26.7708 8.22922C25.5053 6.96378 23.7896 6.25199 22 6.25H16.75V6C16.75 5.13805 17.0924 4.3114 17.7019 3.7019C18.3114 3.09241 19.138 2.75 20 2.75C20.1989 2.75 20.3897 2.67098 20.5303 2.53033C20.671 2.38968 20.75 2.19891 20.75 2C20.75 1.80109 20.671 1.61032 20.5303 1.46967C20.3897 1.32902 20.1989 1.25 20 1.25C18.7402 1.25 17.532 1.75044 16.6412 2.64124C15.7504 3.53204 15.25 4.74022 15.25 6V6.25H10C8.2104 6.25199 6.49466 6.96378 5.22922 8.22922C3.96378 9.49466 3.25199 11.2104 3.25 13C3.25045 13.3308 3.34463 13.6546 3.52162 13.934C3.69861 14.2135 3.95116 14.437 4.25 14.5787V16C4.25 20.3213 8.33875 23.6037 11.625 26.2412C13.4075 27.6725 15.25 29.1525 15.25 30C15.25 30.1989 15.329 30.3897 15.4697 30.5303C15.6103 30.671 15.8011 30.75 16 30.75C16.1989 30.75 16.3897 30.671 16.5303 30.5303C16.671 30.3897 16.75 30.1989 16.75 30C16.75 29.1525 18.5938 27.6725 20.375 26.2412C23.66 23.6037 27.75 20.3213 27.75 16V14.5787C28.0488 14.437 28.3014 14.2135 28.4784 13.934C28.6554 13.6546 28.7495 13.3308 28.75 13ZM10 7.75H22C23.3924 7.75 24.7277 8.30312 25.7123 9.28769C26.6969 10.2723 27.25 11.6076 27.25 13C27.25 13.0663 27.2237 13.1299 27.1768 13.1768C27.1299 13.2237 27.0663 13.25 27 13.25H5C4.9337 13.25 4.87011 13.2237 4.82322 13.1768C4.77634 13.1299 4.75 13.0663 4.75 13C4.75 11.6076 5.30312 10.2723 6.28769 9.28769C7.27225 8.30312 8.60761 7.75 10 7.75ZM19.4375 25.0725C18.0025 26.2238 16.7525 27.2275 16 28.1975C15.25 27.2325 14 26.2288 12.5625 25.0725C9.5275 22.635 5.75 19.6025 5.75 16V14.75H26.25V16C26.25 19.6025 22.4725 22.635 19.4375 25.0725Z" fill="white"/>
</svg>
