<svg width="32" height="32" viewBox="0 0 32 32" fill="none" xmlns="http://www.w3.org/2000/svg">
<path d="M26 4.25H6C5.53587 4.25 5.09075 4.43437 4.76256 4.76256C4.43437 5.09075 4.25 5.53587 4.25 6V26C4.25 26.4641 4.43437 26.9092 4.76256 27.2374C5.09075 27.5656 5.53587 27.75 6 27.75H26C26.4641 27.75 26.9092 27.5656 27.2374 27.2374C27.5656 26.9092 27.75 26.4641 27.75 26V6C27.75 5.53587 27.5656 5.09075 27.2374 4.76256C26.9092 4.43437 26.4641 4.25 26 4.25ZM23.75 12.75H26.25V19.25H23.75V12.75ZM26.25 6V11.25H23.75V5.75H26C26.0663 5.75 26.1299 5.77634 26.1768 5.82322C26.2237 5.87011 26.25 5.9337 26.25 6ZM5.75 26V6C5.75 5.9337 5.77634 5.87011 5.82322 5.82322C5.87011 5.77634 5.9337 5.75 6 5.75H22.25V26.25H6C5.9337 26.25 5.87011 26.2237 5.82322 26.1768C5.77634 26.1299 5.75 26.0663 5.75 26ZM26 26.25H23.75V20.75H26.25V26C26.25 26.0663 26.2237 26.1299 26.1768 26.1768C26.1299 26.2237 26.0663 26.25 26 26.25ZM18.7262 20.8137C18.5585 20.1921 18.2662 19.611 17.8669 19.1058C17.4677 18.6006 16.9698 18.1818 16.4037 17.875C16.9952 17.3813 17.4202 16.7174 17.621 15.9737C17.8218 15.2299 17.7887 14.4424 17.5261 13.7181C17.2635 12.9939 16.7843 12.368 16.1535 11.9258C15.5227 11.4835 14.771 11.2462 14.0006 11.2462C13.2302 11.2462 12.4785 11.4835 11.8478 11.9258C11.217 12.368 10.7377 12.9939 10.4751 13.7181C10.2126 14.4424 10.1795 15.2299 10.3803 15.9737C10.5811 16.7174 11.0061 17.3813 11.5975 17.875C11.0313 18.1816 10.5333 18.6001 10.1339 19.105C9.7344 19.61 9.44177 20.1909 9.27375 20.8125C9.22402 21.0051 9.25285 21.2096 9.35388 21.381C9.45492 21.5523 9.61989 21.6765 9.8125 21.7262C10.0051 21.776 10.2096 21.7472 10.381 21.6461C10.5523 21.5451 10.6765 21.3801 10.7262 21.1875C11.0837 19.7975 12.4913 18.75 14 18.75C15.5087 18.75 16.9175 19.7975 17.2738 21.1863C17.3235 21.3789 17.4477 21.5438 17.619 21.6449C17.7904 21.7459 17.9949 21.7747 18.1875 21.725C18.3801 21.6753 18.5451 21.5511 18.6461 21.3797C18.7472 21.2083 18.776 21.0039 18.7262 20.8113V20.8137ZM11.75 15C11.75 14.555 11.882 14.12 12.1292 13.75C12.3764 13.38 12.7278 13.0916 13.139 12.9213C13.5501 12.751 14.0025 12.7064 14.439 12.7932C14.8754 12.88 15.2763 13.0943 15.591 13.409C15.9057 13.7237 16.1199 14.1246 16.2068 14.561C16.2936 14.9975 16.249 15.4499 16.0787 15.861C15.9084 16.2722 15.62 16.6236 15.25 16.8708C14.88 17.118 14.445 17.25 14 17.25C13.4033 17.25 12.831 17.0129 12.409 16.591C11.9871 16.169 11.75 15.5967 11.75 15Z" fill="white"/>
</svg>
