<svg width="32" height="32" viewBox="0 0 32 32" fill="none" xmlns="http://www.w3.org/2000/svg">
<path d="M21.7501 27C21.7501 27.199 21.6711 27.3897 21.5304 27.5304C21.3898 27.671 21.199 27.75 21.0001 27.75H3.0001C2.80119 27.75 2.61043 27.671 2.46977 27.5304C2.32912 27.3897 2.2501 27.199 2.2501 27C2.2501 26.8011 2.32912 26.6104 2.46977 26.4697C2.61043 26.3291 2.80119 26.25 3.0001 26.25H21.0001C21.199 26.25 21.3898 26.3291 21.5304 26.4697C21.6711 26.6104 21.7501 26.8011 21.7501 27ZM30.7376 11.5975C30.7173 11.701 30.6754 11.799 30.6147 11.8851C30.5539 11.9713 30.4757 12.0437 30.3851 12.0975L11.9589 23.0975C11.2295 23.5242 10.4001 23.7498 9.5551 23.7513C8.34995 23.7498 7.19091 23.2879 6.3151 22.46L6.3026 22.4488L1.79635 18.045C1.58629 17.8465 1.42866 17.5991 1.33754 17.3248C1.24642 17.0506 1.22465 16.758 1.27417 16.4733C1.32369 16.1885 1.44296 15.9205 1.62133 15.6931C1.7997 15.4657 2.03161 15.286 2.29635 15.17L2.67135 14.9838C2.84914 14.897 3.05401 14.884 3.24135 14.9475L6.8851 16.1763L9.78135 14.4263L6.81885 11.5513C6.60373 11.3532 6.44168 11.1043 6.34751 10.8275C6.25334 10.5506 6.23006 10.2546 6.27979 9.96638C6.32952 9.6782 6.45068 9.40708 6.63219 9.17778C6.8137 8.94849 7.04978 8.76834 7.31885 8.6538L7.34885 8.6413L8.2426 8.30255C8.41151 8.23961 8.59744 8.23961 8.76635 8.30255L15.6214 10.825L22.1689 6.9163C23.1439 6.33735 24.2946 6.12827 25.411 6.32723C26.5274 6.52618 27.5351 7.1199 28.2501 8.00005L28.2614 8.0138L30.5914 11C30.6566 11.0836 30.7033 11.1801 30.7286 11.2831C30.7538 11.3861 30.7568 11.4933 30.7376 11.5975ZM28.8864 11.25L27.0839 8.9413C26.5942 8.34057 25.905 7.93576 25.1419 7.80062C24.3788 7.66548 23.5925 7.809 22.9264 8.20505L16.0751 12.295C15.9791 12.3524 15.8714 12.3876 15.76 12.398C15.6486 12.4084 15.5363 12.3937 15.4314 12.355L8.5001 9.8063L7.8876 10.0375C7.85109 10.0542 7.81936 10.0797 7.79533 10.1118C7.7713 10.1439 7.75574 10.1816 7.7501 10.2213C7.74302 10.2628 7.74652 10.3054 7.76029 10.3451C7.77406 10.3849 7.79764 10.4206 7.82885 10.4488L7.8501 10.4675L11.5189 14.0288C11.6012 14.1086 11.6641 14.2063 11.7028 14.3143C11.7415 14.4223 11.7549 14.5377 11.7419 14.6517C11.729 14.7656 11.6901 14.8751 11.6283 14.9717C11.5664 15.0683 11.4832 15.1494 11.3851 15.2088L7.36135 17.645C7.26836 17.7011 7.16431 17.7362 7.05641 17.7481C6.9485 17.7599 6.8393 17.7483 6.73635 17.7138L3.0551 16.4713L2.93885 16.5288L2.90385 16.545C2.86585 16.5615 2.83252 16.5871 2.80686 16.6195C2.78119 16.652 2.76399 16.6904 2.7568 16.7311C2.74962 16.7719 2.75267 16.8138 2.76568 16.8531C2.77869 16.8924 2.80126 16.9279 2.83135 16.9563L2.84385 16.9675L7.34385 21.3775C7.85249 21.8567 8.5028 22.158 9.1972 22.2362C9.8916 22.3144 10.5926 22.1653 11.1951 21.8113L28.8864 11.25Z" fill="white"/>
</svg>
