<svg width="32" height="32" viewBox="0 0 32 32" fill="none" xmlns="http://www.w3.org/2000/svg">
<path d="M25.9999 12.25H18.3112L12.5312 6.47C12.4614 6.40019 12.3786 6.34482 12.2874 6.30707C12.1963 6.26932 12.0986 6.24992 11.9999 6.25H10.9999C10.7227 6.25021 10.4495 6.31627 10.2028 6.44275C9.95614 6.56922 9.74304 6.75248 9.58106 6.97745C9.41908 7.20241 9.31286 7.46263 9.27115 7.73669C9.22944 8.01074 9.25344 8.29078 9.34115 8.55375L10.5737 12.25H7.31115L4.53115 9.47C4.46143 9.40019 4.37861 9.34482 4.28745 9.30707C4.19629 9.26932 4.09857 9.24992 3.9999 9.25H2.9999C2.72752 9.25032 2.45897 9.31422 2.21562 9.43661C1.97228 9.559 1.76087 9.73651 1.59822 9.955C1.43556 10.1735 1.32616 10.4269 1.27871 10.6952C1.23126 10.9634 1.24708 11.239 1.3249 11.5L3.08365 17.3625C3.37265 18.3439 3.9726 19.2048 4.79319 19.8158C5.61379 20.4267 6.61062 20.7546 7.63365 20.75H29.9999C30.1988 20.75 30.3896 20.671 30.5302 20.5303C30.6709 20.3897 30.7499 20.1989 30.7499 20V17C30.7499 15.7402 30.2495 14.532 29.3587 13.6412C28.4679 12.7504 27.2597 12.25 25.9999 12.25ZM29.2499 19.25H7.63365C6.93386 19.253 6.252 19.0288 5.69051 18.6111C5.12903 18.1935 4.71825 17.6048 4.5199 16.9338L2.7624 11.0712C2.75043 11.0342 2.74771 10.9948 2.75446 10.9564C2.76121 10.9181 2.77724 10.882 2.80115 10.8512C2.82369 10.8196 2.85352 10.7939 2.88812 10.7763C2.92273 10.7586 2.96107 10.7496 2.9999 10.75H3.68865L6.46865 13.53C6.53838 13.5998 6.6212 13.6552 6.71236 13.6929C6.80352 13.7307 6.90123 13.7501 6.9999 13.75H11.6137C11.7325 13.75 11.8497 13.7217 11.9554 13.6675C12.0612 13.6133 12.1526 13.5348 12.2221 13.4383C12.2915 13.3419 12.3371 13.2303 12.355 13.1128C12.3728 12.9953 12.3625 12.8752 12.3249 12.7625L10.7637 8.07875C10.7512 8.04126 10.7478 8.00136 10.7538 7.96231C10.7597 7.92326 10.7749 7.88618 10.7979 7.85411C10.821 7.82203 10.8513 7.79587 10.8864 7.77778C10.9215 7.75968 10.9604 7.75016 10.9999 7.75H11.6887L17.4687 13.53C17.5384 13.5998 17.6212 13.6552 17.7124 13.6929C17.8035 13.7307 17.9012 13.7501 17.9999 13.75H25.9999C26.8619 13.75 27.6885 14.0924 28.298 14.7019C28.9075 15.3114 29.2499 16.138 29.2499 17V19.25ZM27.7499 25C27.7499 25.3461 27.6473 25.6845 27.455 25.9722C27.2627 26.26 26.9894 26.4843 26.6696 26.6168C26.3498 26.7492 25.998 26.7839 25.6585 26.7164C25.319 26.6488 25.0072 26.4822 24.7625 26.2374C24.5177 25.9927 24.3511 25.6809 24.2835 25.3414C24.216 25.0019 24.2507 24.6501 24.3831 24.3303C24.5156 24.0105 24.7399 23.7372 25.0277 23.5449C25.3154 23.3526 25.6538 23.25 25.9999 23.25C26.464 23.25 26.9092 23.4344 27.2373 23.7626C27.5655 24.0908 27.7499 24.5359 27.7499 25ZM15.7499 25C15.7499 25.3461 15.6473 25.6845 15.455 25.9722C15.2627 26.26 14.9894 26.4843 14.6696 26.6168C14.3498 26.7492 13.998 26.7839 13.6585 26.7164C13.319 26.6488 13.0072 26.4822 12.7625 26.2374C12.5177 25.9927 12.3511 25.6809 12.2835 25.3414C12.216 25.0019 12.2507 24.6501 12.3831 24.3303C12.5156 24.0105 12.7399 23.7372 13.0277 23.5449C13.3154 23.3526 13.6538 23.25 13.9999 23.25C14.464 23.25 14.9092 23.4344 15.2373 23.7626C15.5655 24.0908 15.7499 24.5359 15.7499 25Z" fill="white"/>
</svg>
