<svg width="32" height="32" viewBox="0 0 32 32" fill="none" xmlns="http://www.w3.org/2000/svg">
<path d="M27.7499 27C27.7499 27.1989 27.6709 27.3897 27.5302 27.5303C27.3896 27.671 27.1988 27.75 26.9999 27.75H8.9999C8.80099 27.75 8.61023 27.671 8.46957 27.5303C8.32892 27.3897 8.2499 27.1989 8.2499 27C8.2499 26.8011 8.32892 26.6103 8.46957 26.4697C8.61023 26.329 8.80099 26.25 8.9999 26.25H26.9999C27.1988 26.25 27.3896 26.329 27.5302 26.4697C27.6709 26.6103 27.7499 26.8011 27.7499 27ZM30.7499 17V20C30.7499 20.1989 30.6709 20.3897 30.5302 20.5303C30.3896 20.671 30.1988 20.75 29.9999 20.75H7.63365C6.61094 20.7547 5.61435 20.4272 4.7938 19.8168C3.97324 19.2063 3.3731 18.3459 3.08365 17.365L1.3249 11.5C1.24708 11.239 1.23126 10.9634 1.27871 10.6952C1.32616 10.4269 1.43556 10.1735 1.59822 9.955C1.76087 9.73651 1.97228 9.559 2.21562 9.43661C2.45897 9.31422 2.72752 9.25032 2.9999 9.25H3.9999C4.19875 9.25018 4.38939 9.32931 4.5299 9.47L7.31115 12.25H10.5737L9.34115 8.55375C9.25344 8.29078 9.22944 8.01074 9.27115 7.73669C9.31286 7.46263 9.41908 7.20241 9.58106 6.97745C9.74304 6.75248 9.95614 6.56922 10.2028 6.44275C10.4495 6.31627 10.7227 6.25021 10.9999 6.25H11.9999C12.0986 6.24992 12.1963 6.26932 12.2874 6.30707C12.3786 6.34482 12.4614 6.40019 12.5312 6.47L18.3112 12.25H25.9999C27.2597 12.25 28.4679 12.7504 29.3587 13.6412C30.2495 14.532 30.7499 15.7402 30.7499 17ZM29.2499 17C29.2499 16.138 28.9075 15.3114 28.298 14.7019C27.6885 14.0924 26.8619 13.75 25.9999 13.75H17.9999C17.8011 13.7498 17.6104 13.6707 17.4699 13.53L11.6899 7.75H10.9999C10.9603 7.74996 10.9213 7.75934 10.886 7.77735C10.8507 7.79536 10.8202 7.8215 10.797 7.8536C10.7738 7.8857 10.7586 7.92286 10.7526 7.962C10.7466 8.00115 10.7499 8.04116 10.7624 8.07875L12.3249 12.7625C12.3625 12.8752 12.3728 12.9953 12.355 13.1128C12.3371 13.2303 12.2915 13.3419 12.2221 13.4383C12.1526 13.5348 12.0612 13.6133 11.9554 13.6675C11.8497 13.7217 11.7325 13.75 11.6137 13.75H6.9999C6.80106 13.7498 6.61042 13.6707 6.4699 13.53L3.6899 10.75H2.9999C2.96086 10.7494 2.92226 10.7583 2.88743 10.776C2.85259 10.7936 2.82256 10.8194 2.7999 10.8512C2.77599 10.882 2.75996 10.9181 2.75321 10.9564C2.74646 10.9948 2.74918 11.0342 2.76115 11.0712L4.51865 16.9338C4.71706 17.6051 5.12803 18.1938 5.68976 18.6115C6.2515 19.0292 6.93365 19.2533 7.63365 19.25H29.2499V17Z" fill="white"/>
</svg>
