<svg width="32" height="32" viewBox="0 0 32 32" fill="none" xmlns="http://www.w3.org/2000/svg">
<path d="M31.75 27C31.75 27.1989 31.671 27.3896 31.5303 27.5303C31.3897 27.6709 31.1989 27.75 31 27.75H13C12.8011 27.75 12.6103 27.6709 12.4697 27.5303C12.329 27.3896 12.25 27.1989 12.25 27C12.25 26.801 12.329 26.6103 12.4697 26.4696C12.6103 26.329 12.8011 26.25 13 26.25H31C31.1989 26.25 31.3897 26.329 31.5303 26.4696C31.671 26.6103 31.75 26.801 31.75 27ZM28.7975 23.7225L6.71875 17.54C5.72203 17.2578 4.84434 16.6586 4.21848 15.8331C3.59262 15.0077 3.25265 14.0008 3.25 12.965V5.99995C3.24981 5.72253 3.31559 5.44904 3.44189 5.20204C3.5682 4.95504 3.75141 4.7416 3.97643 4.57934C4.20145 4.41708 4.46182 4.31064 4.73607 4.2688C5.01032 4.22696 5.29058 4.25092 5.55375 4.3387L6.2375 4.56745C6.34479 4.60332 6.44257 4.66299 6.52353 4.742C6.60449 4.82102 6.66653 4.91732 6.705 5.0237L8.08 8.81495L12.25 9.99995V5.99995C12.2498 5.72253 12.3156 5.44904 12.4419 5.20204C12.5682 4.95504 12.7514 4.7416 12.9764 4.57934C13.2015 4.41708 13.4618 4.31064 13.7361 4.2688C14.0103 4.22696 14.2906 4.25092 14.5538 4.3387L15.2375 4.56745C15.3388 4.60132 15.4316 4.65642 15.5099 4.72907C15.5881 4.80171 15.65 4.89023 15.6912 4.9887L18.5513 11.805L26.2725 13.9637C27.2716 14.2434 28.1519 14.8418 28.7797 15.6679C29.4074 16.494 29.7481 17.5025 29.75 18.54V23C29.7501 23.1158 29.7233 23.23 29.6718 23.3337C29.6203 23.4375 29.5455 23.5279 29.4533 23.5978C29.361 23.6678 29.2538 23.7155 29.14 23.7371C29.0262 23.7587 28.909 23.7537 28.7975 23.7225ZM28.25 18.54C28.2475 17.8317 28.0143 17.1436 27.5858 16.5798C27.1572 16.0159 26.5567 15.607 25.875 15.415L17.8025 13.165C17.6937 13.1343 17.5932 13.0795 17.5086 13.0047C17.424 12.9298 17.3574 12.8367 17.3137 12.7325L14.4388 5.89495L14.0775 5.76995C14.0406 5.75789 14.0014 5.7546 13.9629 5.76034C13.9245 5.76608 13.888 5.78069 13.8562 5.80301C13.8244 5.82533 13.7983 5.85475 13.7798 5.88894C13.7614 5.92312 13.7512 5.96113 13.75 5.99995V11C13.75 11.1159 13.723 11.2303 13.6713 11.3341C13.6196 11.4379 13.5446 11.5284 13.452 11.5983C13.3595 11.6682 13.252 11.7156 13.138 11.737C13.024 11.7583 12.9066 11.7529 12.795 11.7212L7.295 10.1537C7.18067 10.1212 7.07572 10.0619 6.98879 9.98086C6.90185 9.8998 6.83543 9.79923 6.795 9.68745L5.4175 5.87495L5.07875 5.76245C5.05339 5.7539 5.02677 5.74967 5 5.74995C4.9479 5.75029 4.8972 5.76689 4.855 5.79745C4.82269 5.82046 4.79632 5.85082 4.77806 5.88603C4.7598 5.92124 4.75018 5.96029 4.75 5.99995V12.965C4.75294 13.6731 4.98627 14.361 5.41474 14.9248C5.84321 15.4885 6.44353 15.8975 7.125 16.09L28.25 22.0062V18.54Z" fill="white"/>
</svg>
