<svg width="32" height="32" viewBox="0 0 32 32" fill="none" xmlns="http://www.w3.org/2000/svg">
<path d="M22.8751 14.2062L26.6376 10.6662L26.6538 10.65C27.3571 9.94667 27.7523 8.99277 27.7523 7.99812C27.7523 7.00347 27.3571 6.04957 26.6538 5.34625C25.9505 4.64292 24.9966 4.2478 24.0019 4.2478C23.0073 4.2478 22.0534 4.64292 21.3501 5.34625L21.3338 5.3625L17.7938 9.125L7.25632 5.29375C7.12231 5.24495 6.97716 5.23538 6.8379 5.26616C6.69864 5.29693 6.57104 5.36677 6.47007 5.4675L3.47007 8.46749C3.391 8.54593 3.3304 8.641 3.29266 8.74578C3.25492 8.85056 3.24099 8.96244 3.25189 9.07328C3.26278 9.18411 3.29822 9.29114 3.35563 9.38657C3.41305 9.482 3.491 9.56345 3.58382 9.625L11.8238 15.1175L9.69007 17.25H7.00007C6.80122 17.2502 6.61059 17.3293 6.47007 17.47L3.47007 20.47C3.38208 20.5576 3.31723 20.6657 3.28133 20.7846C3.24543 20.9035 3.23961 21.0294 3.26439 21.1511C3.28918 21.2728 3.34378 21.3864 3.42332 21.4818C3.50285 21.5771 3.60482 21.6513 3.72007 21.6975L8.42257 23.5725L10.2976 28.2675V28.2825C10.3732 28.4659 10.5183 28.6118 10.7013 28.6884C10.8843 28.765 11.0901 28.7661 11.2738 28.6912C11.3716 28.6516 11.4598 28.5915 11.5326 28.515L14.5213 25.5262C14.6643 25.3881 14.7466 25.1988 14.7501 25V22.31L16.8838 20.1762L22.3751 28.4162C22.4367 28.5084 22.518 28.5858 22.6131 28.6428C22.7082 28.6998 22.8147 28.735 22.9251 28.7459C23.0354 28.7568 23.1468 28.7431 23.2512 28.7057C23.3556 28.6684 23.4504 28.6084 23.5288 28.53L26.5288 25.53C26.6295 25.429 26.6994 25.3014 26.7302 25.1622C26.7609 25.0229 26.7514 24.8778 26.7026 24.7437L22.8751 14.2062ZM23.1176 26.8225L17.6251 18.5825C17.5635 18.4902 17.4822 18.4128 17.3871 18.3557C17.292 18.2987 17.1854 18.2634 17.0751 18.2525H17.0013C16.8025 18.2527 16.6118 18.3318 16.4713 18.4725L13.4713 21.4725C13.3308 21.6122 13.2512 21.8018 13.2501 22V24.69L11.2751 26.665L9.69632 22.7212C9.65874 22.6268 9.60235 22.541 9.53058 22.469C9.45881 22.397 9.37316 22.3404 9.27882 22.3025L5.33507 20.725L7.31132 18.75H10.0001C10.0987 18.7501 10.1965 18.7307 10.2876 18.6929C10.3788 18.6552 10.4616 18.5998 10.5313 18.53L13.5313 15.53C13.6096 15.4515 13.6696 15.3566 13.7068 15.2521C13.744 15.1477 13.7576 15.0363 13.7466 14.9259C13.7356 14.8156 13.7003 14.709 13.6432 14.614C13.5861 14.519 13.5086 14.4377 13.4163 14.3762L5.17757 8.88249L7.19257 6.86625L17.7501 10.7037C17.8879 10.7538 18.0373 10.7624 18.18 10.7284C18.3226 10.6944 18.4521 10.6193 18.5526 10.5125L22.4276 6.4C22.8566 6.01549 23.4167 5.81018 23.9925 5.82636C24.5684 5.84255 25.1161 6.079 25.5228 6.48699C25.9295 6.89498 26.1642 7.44344 26.1786 8.01934C26.193 8.59524 25.9859 9.15472 25.6001 9.5825L21.4876 13.4575C21.3807 13.5579 21.3057 13.6875 21.2717 13.8301C21.2377 13.9727 21.2463 14.1222 21.2963 14.26L25.1338 24.8112L23.1176 26.8225Z" fill="white"/>
</svg>
