<svg width="32" height="32" viewBox="0 0 32 32" fill="none" xmlns="http://www.w3.org/2000/svg">
<path d="M28.4337 9C28.2727 8.76882 28.0583 8.57992 27.8087 8.44934C27.5591 8.31877 27.2816 8.25038 26.9999 8.25H16.7499V3.75H18.9999C19.1988 3.75 19.3896 3.67098 19.5302 3.53033C19.6709 3.38968 19.7499 3.19891 19.7499 3C19.7499 2.80109 19.6709 2.61032 19.5302 2.46967C19.3896 2.32902 19.1988 2.25 18.9999 2.25H12.9999C12.801 2.25 12.6102 2.32902 12.4696 2.46967C12.3289 2.61032 12.2499 2.80109 12.2499 3C12.2499 3.19891 12.3289 3.38968 12.4696 3.53033C12.6102 3.67098 12.801 3.75 12.9999 3.75H15.2499V8.25H4.99992C4.71867 8.24997 4.44155 8.31774 4.19205 8.44755C3.94254 8.57736 3.728 8.76539 3.5666 8.99572C3.4052 9.22605 3.30169 9.49189 3.26484 9.77072C3.22799 10.0495 3.25889 10.3331 3.35492 10.5975L6.62867 19.5975C6.75129 19.9351 6.97479 20.2267 7.26885 20.4329C7.56291 20.6391 7.91328 20.7498 8.27242 20.75H12.2499V29C12.2499 29.1989 12.3289 29.3897 12.4696 29.5303C12.6102 29.671 12.801 29.75 12.9999 29.75C13.1988 29.75 13.3896 29.671 13.5302 29.5303C13.6709 29.3897 13.7499 29.1989 13.7499 29V20.75H18.2499V29C18.2499 29.1989 18.3289 29.3897 18.4696 29.5303C18.6102 29.671 18.801 29.75 18.9999 29.75C19.1988 29.75 19.3896 29.671 19.5302 29.5303C19.6709 29.3897 19.7499 29.1989 19.7499 29V20.75H23.7274C24.0872 20.7505 24.4384 20.6402 24.7332 20.434C25.028 20.2277 25.2521 19.9357 25.3749 19.5975L28.6487 10.5975C28.7435 10.3335 28.7735 10.0505 28.736 9.77252C28.6986 9.4945 28.5949 9.22955 28.4337 9ZM13.6249 19.25L11.8987 9.75H20.1012L18.3749 19.25H13.6249ZM8.03742 19.085L4.76492 10.085C4.75118 10.0473 4.74673 10.0068 4.75195 9.96696C4.75717 9.92714 4.77191 9.88917 4.79492 9.85625C4.81756 9.82289 4.84817 9.79571 4.88396 9.77716C4.91975 9.75861 4.95961 9.74927 4.99992 9.75H10.3749L12.1024 19.25H8.27242C8.22104 19.25 8.17092 19.2341 8.12887 19.2046C8.08682 19.1751 8.05489 19.1333 8.03742 19.085ZM27.2349 10.085L23.9624 19.085C23.9449 19.1333 23.913 19.1751 23.871 19.2046C23.8289 19.2341 23.7788 19.25 23.7274 19.25H19.8987L21.6249 9.75H26.9999C27.0402 9.74927 27.0801 9.75861 27.1159 9.77716C27.1517 9.79571 27.1823 9.82289 27.2049 9.85625C27.2279 9.88917 27.2427 9.92714 27.2479 9.96696C27.2531 10.0068 27.2487 10.0473 27.2349 10.085Z" fill="white"/>
</svg>
