<svg width="32" height="32" viewBox="0 0 32 32" fill="none" xmlns="http://www.w3.org/2000/svg">
<path d="M16.0002 5.25003C13.6762 5.25003 11.4045 5.93916 9.4722 7.23026C7.53993 8.52137 6.0339 10.3565 5.14457 12.5035C4.25524 14.6505 4.02255 17.0131 4.47593 19.2923C4.9293 21.5716 6.04838 23.6653 7.69165 25.3085C9.33492 26.9518 11.4286 28.0709 13.7078 28.5243C15.9871 28.9776 18.3497 28.7449 20.4967 27.8556C22.6437 26.9663 24.4788 25.4603 25.7699 23.528C27.061 21.5957 27.7502 19.324 27.7502 17C27.7465 13.8849 26.5074 10.8983 24.3046 8.69555C22.1019 6.49278 19.1153 5.25367 16.0002 5.25003ZM16.0002 27.25C13.9729 27.25 11.9912 26.6489 10.3056 25.5226C8.61995 24.3963 7.30619 22.7955 6.53039 20.9225C5.75459 19.0496 5.55161 16.9887 5.9471 15.0004C6.3426 13.0121 7.31882 11.1857 8.75231 9.75219C10.1858 8.3187 12.0122 7.34248 14.0005 6.94698C15.9888 6.55148 18.0497 6.75447 19.9227 7.53027C21.7956 8.30606 23.3964 9.61983 24.5227 11.3054C25.649 12.991 26.2502 14.9728 26.2502 17C26.2468 19.7175 25.1659 22.3227 23.2443 24.2442C21.3228 26.1658 18.7176 27.2467 16.0002 27.25ZM7.53015 4.53003L3.53015 8.53003C3.46149 8.60372 3.37869 8.66282 3.28669 8.70381C3.19469 8.7448 3.09538 8.76685 2.99468 8.76862C2.89397 8.7704 2.79394 8.75188 2.70056 8.71415C2.60717 8.67643 2.52233 8.62029 2.45112 8.54907C2.3799 8.47785 2.32375 8.39302 2.28603 8.29963C2.24831 8.20624 2.22979 8.10621 2.23156 8.00551C2.23334 7.90481 2.25538 7.80549 2.29637 7.71349C2.33736 7.62149 2.39647 7.53869 2.47015 7.47003L6.47015 3.47003C6.53882 3.39634 6.62162 3.33724 6.71362 3.29625C6.80561 3.25526 6.90493 3.23322 7.00563 3.23144C7.10633 3.22966 7.20636 3.24819 7.29975 3.28591C7.39314 3.32363 7.47797 3.37977 7.54919 3.45099C7.62041 3.52221 7.67656 3.60705 7.71428 3.70043C7.752 3.79382 7.77052 3.89385 7.76874 3.99455C7.76697 4.09526 7.74493 4.19457 7.70393 4.28657C7.66294 4.37857 7.60384 4.46137 7.53015 4.53003ZM29.5302 8.53003C29.3895 8.67048 29.1989 8.74937 29.0002 8.74937C28.8014 8.74937 28.6108 8.67048 28.4702 8.53003L24.4702 4.53003C24.3377 4.38786 24.2656 4.19981 24.269 4.00551C24.2724 3.81121 24.3511 3.62582 24.4885 3.48841C24.6259 3.351 24.8113 3.27228 25.0056 3.26886C25.1999 3.26543 25.388 3.33755 25.5302 3.47003L29.5302 7.47003C29.6706 7.61066 29.7495 7.80128 29.7495 8.00003C29.7495 8.19878 29.6706 8.38941 29.5302 8.53003ZM23.0002 16.25C23.1991 16.25 23.3898 16.329 23.5305 16.4697C23.6711 16.6104 23.7502 16.8011 23.7502 17C23.7502 17.1989 23.6711 17.3897 23.5305 17.5304C23.3898 17.671 23.1991 17.75 23.0002 17.75H16.0002C15.8012 17.75 15.6105 17.671 15.4698 17.5304C15.3292 17.3897 15.2502 17.1989 15.2502 17V10C15.2502 9.80112 15.3292 9.61035 15.4698 9.4697C15.6105 9.32905 15.8012 9.25003 16.0002 9.25003C16.1991 9.25003 16.3898 9.32905 16.5305 9.4697C16.6711 9.61035 16.7502 9.80112 16.7502 10V16.25H23.0002Z" fill="white"/>
</svg>
