<svg width="32" height="32" viewBox="0 0 32 32" fill="none" xmlns="http://www.w3.org/2000/svg">
<path d="M30.75 20.9999V24.9999C30.75 25.1989 30.671 25.3896 30.5303 25.5303C30.3897 25.6709 30.1989 25.7499 30 25.7499C29.8011 25.7499 29.6103 25.6709 29.4697 25.5303C29.329 25.3896 29.25 25.1989 29.25 24.9999V22.8099L28.5425 23.5174C28.2 23.8937 23.6075 28.7499 16 28.7499C8.25 28.7499 3.635 23.7162 3.4425 23.4999C3.37036 23.4279 3.31367 23.3419 3.2759 23.2472C3.23812 23.1525 3.22005 23.0511 3.22279 22.9492C3.22553 22.8472 3.24902 22.7469 3.29183 22.6544C3.33464 22.5619 3.39586 22.479 3.47176 22.411C3.54767 22.3429 3.63665 22.291 3.73328 22.2585C3.82991 22.226 3.93216 22.2135 4.03378 22.2218C4.1354 22.2301 4.23425 22.2591 4.32429 22.3069C4.41434 22.3547 4.49369 22.4204 4.5575 22.4999C4.6 22.5462 8.94375 27.2499 16 27.2499C23.0562 27.2499 27.4 22.5449 27.4437 22.4999L27.47 22.4724L28.19 21.7524H26C25.8011 21.7524 25.6103 21.6734 25.4697 21.5328C25.329 21.3921 25.25 21.2014 25.25 21.0024C25.25 20.8035 25.329 20.6128 25.4697 20.4721C25.6103 20.3315 25.8011 20.2524 26 20.2524H30C30.1985 20.2524 30.3889 20.3311 30.5294 20.4712C30.67 20.6113 30.7493 20.8015 30.75 20.9999ZM20.25 12.4449V10.4999C20.2506 9.43272 19.8918 8.3964 19.2314 7.55803C18.5711 6.71966 17.6476 6.1281 16.61 5.87872C15.5723 5.62934 14.4809 5.73667 13.5117 6.1834C12.5424 6.63014 11.7519 7.39025 11.2675 8.34119C11.2245 8.43186 11.1637 8.51297 11.0888 8.57973C11.0138 8.64648 10.9262 8.69752 10.8312 8.72981C10.7362 8.7621 10.6357 8.77499 10.5356 8.76772C10.4355 8.76045 10.3379 8.73317 10.2485 8.68749C10.1591 8.6418 10.0799 8.57865 10.0154 8.50177C9.95084 8.42489 9.90242 8.33584 9.87296 8.23991C9.84349 8.14397 9.83358 8.0431 9.8438 7.94326C9.85403 7.84343 9.88419 7.74666 9.9325 7.65869C10.5703 6.40824 11.6106 5.40893 12.8856 4.82174C14.1606 4.23455 15.5962 4.09369 16.961 4.42183C18.3259 4.74998 19.5405 5.52803 20.4093 6.63064C21.278 7.73324 21.7503 9.09621 21.75 10.4999V21.9999C21.75 22.1989 21.671 22.3896 21.5303 22.5303C21.3897 22.6709 21.1989 22.7499 21 22.7499C20.8011 22.7499 20.6103 22.6709 20.4697 22.5303C20.329 22.3896 20.25 22.1989 20.25 21.9999V20.5549C19.4206 21.5278 18.3127 22.2228 17.0759 22.5464C15.8391 22.87 14.5329 22.8065 13.3333 22.3646C12.1337 21.9226 11.0985 21.1234 10.3673 20.0747C9.63604 19.026 9.244 17.7784 9.244 16.4999C9.244 15.2215 9.63604 13.9738 10.3673 12.9252C11.0985 11.8765 12.1337 11.0773 13.3333 10.6353C14.5329 10.1933 15.8391 10.1299 17.0759 10.4535C18.3127 10.777 19.4206 11.4721 20.25 12.4449ZM20.25 16.4999C20.25 15.5605 19.9714 14.6421 19.4495 13.861C18.9275 13.0798 18.1857 12.471 17.3177 12.1115C16.4498 11.752 15.4947 11.6579 14.5733 11.8412C13.6519 12.0245 12.8055 12.4769 12.1412 13.1412C11.4769 13.8055 11.0245 14.6519 10.8413 15.5733C10.658 16.4947 10.7521 17.4497 11.1116 18.3177C11.4711 19.1856 12.0799 19.9275 12.861 20.4494C13.6422 20.9714 14.5605 21.2499 15.5 21.2499C16.7598 21.2499 17.968 20.7495 18.8588 19.8587C19.7496 18.9679 20.25 17.7597 20.25 16.4999Z" fill="white"/>
</svg>
