<svg width="32" height="32" viewBox="0 0 32 32" fill="none" xmlns="http://www.w3.org/2000/svg">
<path d="M10.25 15C10.25 14.8011 10.329 14.6103 10.4697 14.4697C10.6103 14.329 10.8011 14.25 11 14.25H13.25V12C13.25 11.8011 13.329 11.6103 13.4697 11.4697C13.6103 11.329 13.8011 11.25 14 11.25C14.1989 11.25 14.3897 11.329 14.5303 11.4697C14.671 11.6103 14.75 11.8011 14.75 12V14.25H17C17.1989 14.25 17.3897 14.329 17.5303 14.4697C17.671 14.6103 17.75 14.8011 17.75 15C17.75 15.1989 17.671 15.3897 17.5303 15.5303C17.3897 15.671 17.1989 15.75 17 15.75H14.75V18C14.75 18.1989 14.671 18.3897 14.5303 18.5303C14.3897 18.671 14.1989 18.75 14 18.75C13.8011 18.75 13.6103 18.671 13.4697 18.5303C13.329 18.3897 13.25 18.1989 13.25 18V15.75H11C10.8011 15.75 10.6103 15.671 10.4697 15.5303C10.329 15.3897 10.25 15.1989 10.25 15ZM31.75 15V23C31.75 23.4641 31.5656 23.9092 31.2374 24.2374C30.9092 24.5656 30.4641 24.75 30 24.75H27.675C27.5029 25.5977 27.043 26.3599 26.3732 26.9073C25.7034 27.4547 24.865 27.7538 24 27.7538C23.135 27.7538 22.2966 27.4547 21.6268 26.9073C20.957 26.3599 20.4971 25.5977 20.325 24.75H13.675C13.5029 25.5977 13.043 26.3599 12.3732 26.9073C11.7034 27.4547 10.865 27.7538 10 27.7538C9.13498 27.7538 8.29657 27.4547 7.62681 26.9073C6.95705 26.3599 6.49714 25.5977 6.325 24.75H4C3.53587 24.75 3.09075 24.5656 2.76256 24.2374C2.43437 23.9092 2.25 23.4641 2.25 23V9C2.25 8.53587 2.43437 8.09075 2.76256 7.76256C3.09075 7.43437 3.53587 7.25 4 7.25H23C23.1989 7.25 23.3897 7.32902 23.5303 7.46967C23.671 7.61032 23.75 7.80109 23.75 8V9.25H28.3225C28.6725 9.24877 29.0148 9.35307 29.3047 9.54929C29.5946 9.74552 29.8186 10.0246 29.9475 10.35L31.6975 14.725C31.7318 14.8126 31.7496 14.9059 31.75 15ZM23.75 10.75V14.25H29.8925L28.555 10.9075C28.5365 10.861 28.5044 10.8211 28.463 10.793C28.4215 10.7649 28.3726 10.75 28.3225 10.75H23.75ZM4 23.25H6.325C6.49714 22.4023 6.95705 21.6401 7.62681 21.0927C8.29657 20.5453 9.13498 20.2462 10 20.2462C10.865 20.2462 11.7034 20.5453 12.3732 21.0927C13.043 21.6401 13.5029 22.4023 13.675 23.25H20.325C20.4371 22.707 20.6677 22.1956 21.0005 21.7521C21.3333 21.3087 21.76 20.9443 22.25 20.685V8.75H4C3.9337 8.75 3.87011 8.77634 3.82322 8.82322C3.77634 8.87011 3.75 8.9337 3.75 9V23C3.75 23.0663 3.77634 23.1299 3.82322 23.1768C3.87011 23.2237 3.9337 23.25 4 23.25ZM12.25 24C12.25 23.555 12.118 23.12 11.8708 22.75C11.6236 22.38 11.2722 22.0916 10.861 21.9213C10.4499 21.751 9.9975 21.7064 9.56105 21.7932C9.12459 21.8801 8.72368 22.0943 8.40901 22.409C8.09434 22.7237 7.88005 23.1246 7.79323 23.561C7.70642 23.9975 7.75097 24.4499 7.92127 24.861C8.09157 25.2722 8.37996 25.6236 8.74997 25.8708C9.11998 26.118 9.55499 26.25 10 26.25C10.5967 26.25 11.169 26.0129 11.591 25.591C12.0129 25.169 12.25 24.5967 12.25 24ZM26.25 24C26.25 23.555 26.118 23.12 25.8708 22.75C25.6236 22.38 25.2722 22.0916 24.861 21.9213C24.4499 21.751 23.9975 21.7064 23.561 21.7932C23.1246 21.8801 22.7237 22.0943 22.409 22.409C22.0943 22.7237 21.8801 23.1246 21.7932 23.561C21.7064 23.9975 21.751 24.4499 21.9213 24.861C22.0916 25.2722 22.38 25.6236 22.75 25.8708C23.12 26.118 23.555 26.25 24 26.25C24.5967 26.25 25.169 26.0129 25.591 25.591C26.0129 25.169 26.25 24.5967 26.25 24ZM30.25 23V15.75H23.75V20.2588C23.8325 20.2588 23.9163 20.25 24 20.25C24.8642 20.251 25.7016 20.5499 26.371 21.0964C27.0405 21.6429 27.501 22.4035 27.675 23.25H30C30.0663 23.25 30.1299 23.2237 30.1768 23.1768C30.2237 23.1299 30.25 23.0663 30.25 23Z" fill="white"/>
</svg>
