<svg width="32" height="32" viewBox="0 0 32 32" fill="none" xmlns="http://www.w3.org/2000/svg">
<path d="M27 17.25C26.8011 17.25 26.6103 17.329 26.4697 17.4696C26.329 17.6103 26.25 17.8011 26.25 18C26.25 21.2612 24.375 21.94 21.3025 22.7762C19.75 23.2 17.9738 23.6837 16.75 24.895V15.75H21C21.1989 15.75 21.3897 15.6709 21.5303 15.5303C21.671 15.3896 21.75 15.1989 21.75 15C21.75 14.8011 21.671 14.6103 21.5303 14.4696C21.3897 14.329 21.1989 14.25 21 14.25H16.75V10.675C17.6605 10.4891 18.4696 9.97178 19.0204 9.22327C19.5712 8.47477 19.8244 7.54843 19.731 6.62382C19.6376 5.69922 19.2042 4.84224 18.5149 4.21901C17.8255 3.59579 16.9293 3.25073 16 3.25073C15.0707 3.25073 14.1745 3.59579 13.4851 4.21901C12.7958 4.84224 12.3624 5.69922 12.269 6.62382C12.1756 7.54843 12.4288 8.47477 12.9796 9.22327C13.5304 9.97178 14.3395 10.4891 15.25 10.675V14.25H11C10.8011 14.25 10.6103 14.329 10.4697 14.4696C10.329 14.6103 10.25 14.8011 10.25 15C10.25 15.1989 10.329 15.3896 10.4697 15.5303C10.6103 15.6709 10.8011 15.75 11 15.75H15.25V24.895C14.0262 23.6837 12.25 23.2 10.6975 22.7762C7.625 21.94 5.75 21.2612 5.75 18C5.75 17.8011 5.67098 17.6103 5.53033 17.4696C5.38968 17.329 5.19891 17.25 5 17.25C4.80109 17.25 4.61032 17.329 4.46967 17.4696C4.32902 17.6103 4.25 17.8011 4.25 18C4.25 22.5725 7.60625 23.4887 10.3025 24.2237C13.375 25.06 15.25 25.7387 15.25 29C15.25 29.1989 15.329 29.3896 15.4697 29.5303C15.6103 29.6709 15.8011 29.75 16 29.75C16.1989 29.75 16.3897 29.6709 16.5303 29.5303C16.671 29.3896 16.75 29.1989 16.75 29C16.75 25.7387 18.625 25.06 21.6975 24.2237C24.3937 23.4887 27.75 22.5725 27.75 18C27.75 17.8011 27.671 17.6103 27.5303 17.4696C27.3897 17.329 27.1989 17.25 27 17.25ZM13.75 6.99997C13.75 6.55496 13.882 6.11994 14.1292 5.74993C14.3764 5.37992 14.7278 5.09154 15.139 4.92124C15.5501 4.75094 16.0025 4.70638 16.439 4.7932C16.8754 4.88002 17.2763 5.09431 17.591 5.40898C17.9057 5.72365 18.1199 6.12456 18.2068 6.56101C18.2936 6.99747 18.249 7.44987 18.0787 7.861C17.9084 8.27214 17.62 8.62354 17.25 8.87077C16.88 9.11801 16.445 9.24997 16 9.24997C15.4033 9.24997 14.831 9.01291 14.409 8.59096C13.9871 8.169 13.75 7.5967 13.75 6.99997Z" fill="white"/>
</svg>
