<svg width="32" height="32" viewBox="0 0 32 32" fill="none" xmlns="http://www.w3.org/2000/svg">
<path d="M21.75 18.5C21.75 18.7473 21.6767 18.9889 21.5393 19.1945C21.402 19.4001 21.2068 19.5603 20.9784 19.6549C20.75 19.7495 20.4986 19.7742 20.2561 19.726C20.0137 19.6778 19.7909 19.5587 19.6161 19.3839C19.4413 19.2091 19.3223 18.9864 19.274 18.7439C19.2258 18.5014 19.2505 18.2501 19.3452 18.0217C19.4398 17.7933 19.6 17.598 19.8055 17.4607C20.0111 17.3233 20.2528 17.25 20.5 17.25C20.8315 17.25 21.1495 17.3817 21.3839 17.6161C21.6183 17.8506 21.75 18.1685 21.75 18.5ZM11.5 17.25C11.2528 17.25 11.0111 17.3233 10.8055 17.4607C10.6 17.598 10.4398 17.7933 10.3452 18.0217C10.2505 18.2501 10.2258 18.5014 10.274 18.7439C10.3223 18.9864 10.4413 19.2091 10.6161 19.3839C10.7909 19.5587 11.0137 19.6778 11.2561 19.726C11.4986 19.7742 11.75 19.7495 11.9784 19.6549C12.2068 19.5603 12.402 19.4001 12.5393 19.1945C12.6767 18.9889 12.75 18.7473 12.75 18.5C12.75 18.1685 12.6183 17.8506 12.3839 17.6161C12.1495 17.3817 11.8315 17.25 11.5 17.25ZM29.75 20V23C29.75 23.4642 29.5656 23.9093 29.2374 24.2375C28.9093 24.5657 28.4641 24.75 28 24.75H4C3.53588 24.75 3.09076 24.5657 2.76257 24.2375C2.43438 23.9093 2.25 23.4642 2.25 23V20.1413C2.24842 18.2041 2.65092 16.2878 3.43178 14.5149C4.21265 12.7421 5.35471 11.1516 6.785 9.84503L3.47 6.53003C3.39632 6.46137 3.33722 6.37857 3.29622 6.28657C3.25523 6.19457 3.23319 6.09526 3.23141 5.99455C3.22964 5.89385 3.24816 5.79382 3.28588 5.70043C3.3236 5.60705 3.37975 5.52221 3.45097 5.45099C3.52218 5.37977 3.60702 5.32363 3.70041 5.28591C3.7938 5.24819 3.89382 5.22966 3.99453 5.23144C4.09523 5.23322 4.19454 5.25526 4.28654 5.29625C4.37854 5.33724 4.46134 5.39634 4.53 5.47003L7.95125 8.89003C10.2704 7.18385 13.0721 6.2593 15.9513 6.25003H16C18.9005 6.24205 21.7281 7.15846 24.0725 8.86628L27.47 5.47003C27.6122 5.33755 27.8002 5.26543 27.9945 5.26886C28.1888 5.27228 28.3742 5.351 28.5116 5.48841C28.649 5.62582 28.7278 5.81121 28.7312 6.00551C28.7346 6.19981 28.6625 6.38786 28.53 6.53003L25.2413 9.81878C25.3988 9.96253 25.5538 10.1088 25.7063 10.26C26.9921 11.5346 28.0117 13.052 28.7059 14.7241C29.4001 16.3962 29.755 18.1896 29.75 20ZM28.25 20C28.25 16.7511 26.9594 13.6353 24.6621 11.338C22.3647 9.04065 19.2489 7.75003 16 7.75003H15.9563C9.22625 7.77378 3.75 13.3325 3.75 20.1413V23C3.75 23.0663 3.77634 23.1299 3.82323 23.1768C3.87011 23.2237 3.9337 23.25 4 23.25H28C28.0663 23.25 28.1299 23.2237 28.1768 23.1768C28.2237 23.1299 28.25 23.0663 28.25 23V20Z" fill="white"/>
</svg>
