<svg width="32" height="32" viewBox="0 0 32 32" fill="none" xmlns="http://www.w3.org/2000/svg">
<path d="M12.25 9C12.25 8.80109 12.329 8.61032 12.4697 8.46967C12.6103 8.32902 12.8011 8.25 13 8.25C16.3803 8.25397 19.621 9.59854 22.0112 11.9888C24.4015 14.379 25.746 17.6197 25.75 21C25.75 21.1989 25.671 21.3897 25.5303 21.5303C25.3897 21.671 25.1989 21.75 25 21.75C24.8011 21.75 24.6103 21.671 24.4697 21.5303C24.329 21.3897 24.25 21.1989 24.25 21C24.2467 18.0173 23.0604 15.1578 20.9513 13.0487C18.8422 10.9396 15.9827 9.75331 13 9.75C12.8011 9.75 12.6103 9.67098 12.4697 9.53033C12.329 9.38968 12.25 9.19891 12.25 9ZM30 24.25H9.75V4C9.75 3.80109 9.67098 3.61032 9.53033 3.46967C9.38968 3.32902 9.19891 3.25 9 3.25C8.80109 3.25 8.61032 3.32902 8.46967 3.46967C8.32902 3.61032 8.25 3.80109 8.25 4V8.25H4C3.80109 8.25 3.61032 8.32902 3.46967 8.46967C3.32902 8.61032 3.25 8.80109 3.25 9C3.25 9.19891 3.32902 9.38968 3.46967 9.53033C3.61032 9.67098 3.80109 9.75 4 9.75H8.25V25C8.25 25.1989 8.32902 25.3897 8.46967 25.5303C8.61032 25.671 8.80109 25.75 9 25.75H30C30.1989 25.75 30.3897 25.671 30.5303 25.5303C30.671 25.3897 30.75 25.1989 30.75 25C30.75 24.8011 30.671 24.6103 30.5303 24.4697C30.3897 24.329 30.1989 24.25 30 24.25Z" fill="white"/>
</svg>
