<svg width="32" height="32" viewBox="0 0 32 32" fill="none" xmlns="http://www.w3.org/2000/svg">
<path d="M28.2887 8.30756L16.2887 3.30756C16.1038 3.2313 15.8962 3.2313 15.7113 3.30756L3.71125 8.30756C3.55893 8.37102 3.43179 8.48295 3.34953 8.626C3.26727 8.76905 3.23448 8.93524 3.25625 9.09881L5.25625 24.0988C5.27238 24.2204 5.31808 24.3361 5.38934 24.436C5.4606 24.5358 5.55525 24.6166 5.665 24.6713L15.665 29.6713C15.769 29.7232 15.8837 29.7503 16 29.7503C16.1163 29.7503 16.231 29.7232 16.335 29.6713L26.335 24.6713C26.4447 24.6166 26.5394 24.5358 26.6107 24.436C26.6819 24.3361 26.7276 24.2204 26.7437 24.0988L28.7437 9.09881C28.7655 8.93524 28.7327 8.76905 28.6505 8.626C28.5682 8.48295 28.4411 8.37102 28.2887 8.30756ZM25.3088 23.5076L16 28.1613L6.69125 23.5076L4.81625 9.47131L16 4.81256L27.18 9.47131L25.3088 23.5076ZM15.3438 10.6326L10.3438 19.6326C10.2473 19.8066 10.2239 20.0119 10.2788 20.2031C10.3336 20.3944 10.4622 20.5561 10.6362 20.6526C10.8103 20.749 11.0155 20.7724 11.2068 20.7176C11.3981 20.6627 11.5598 20.5341 11.6562 20.3601L13.1075 17.7501H18.8925L20.3438 20.3638C20.4087 20.4809 20.5038 20.5785 20.6192 20.6464C20.7346 20.7143 20.8661 20.7501 21 20.7501C21.127 20.7502 21.2519 20.7175 21.3625 20.6551C21.5363 20.5587 21.6647 20.3972 21.7195 20.2062C21.7744 20.0152 21.7512 19.8102 21.655 19.6363L16.655 10.6363C16.5901 10.5191 16.4951 10.4214 16.3797 10.3533C16.2642 10.2853 16.1327 10.2494 15.9987 10.2494C15.8648 10.2494 15.7333 10.2853 15.6178 10.3533C15.5024 10.4214 15.4074 10.5191 15.3425 10.6363L15.3438 10.6326ZM18.0588 16.2501H13.9412L16 12.5438L18.0588 16.2501Z" fill="white"/>
</svg>
