<svg width="32" height="32" viewBox="0 0 32 32" fill="none" xmlns="http://www.w3.org/2000/svg">
<path d="M25.015 6.98494C22.6174 4.62594 19.3848 3.30989 16.0213 3.32347C12.6578 3.33705 9.43591 4.67915 7.05746 7.05744C4.679 9.43573 3.33667 12.6575 3.32286 16.021C3.30905 19.3845 4.62487 22.6172 6.98371 25.0149C8.16406 26.2148 9.57029 27.169 11.1213 27.8226C12.6723 28.4763 14.3373 28.8163 16.0204 28.8233C17.7035 28.8302 19.3713 28.5038 20.9276 27.8629C22.4839 27.222 23.8979 26.2794 25.0881 25.0893C26.2782 23.8992 27.221 22.4853 27.862 20.929C28.5029 19.3727 28.8294 17.705 28.8226 16.0219C28.8159 14.3388 28.4759 12.6737 27.8224 11.1227C27.1688 9.57167 26.2147 8.16538 25.015 6.98494ZM12.265 15.3187L14.7212 12.4262L18.4537 13.1087L19.73 16.6812L17.2737 19.5737L13.5412 18.8912L12.265 15.3187ZM26.2412 11.3362C26.9441 12.8871 27.2867 14.577 27.2434 16.2792C27.2001 17.9814 26.772 19.6518 25.9912 21.1649L18.9737 19.8849L26.2412 11.3362ZM25.4712 9.92619L20.8537 15.3612L17.0825 4.80244C19.6829 5.04579 22.1156 6.19318 23.9575 8.04494C24.5271 8.61675 25.0346 9.24736 25.4712 9.92619ZM8.04496 8.05119C10.0213 6.0609 12.6741 4.8869 15.4762 4.76244L17.875 11.4774L6.84371 9.46369C7.20484 8.95886 7.60659 8.48437 8.04496 8.04494V8.05119ZM5.99996 10.8349L13.0175 12.1149L5.75871 20.6637C5.05584 19.1128 4.7132 17.4229 4.7565 15.7206C4.7998 14.0184 5.2279 12.3481 6.00871 10.8349H5.99996ZM6.52621 22.0737L11.1437 16.6387L14.915 27.1974C12.3146 26.9541 9.88178 25.8067 8.03996 23.9549C7.47117 23.383 6.96459 22.7524 6.52871 22.0737H6.52621ZM23.9525 23.9487C21.9755 25.9372 19.3226 27.109 16.5212 27.2312L14.125 20.5224L25.155 22.5362C24.7942 23.041 24.3929 23.5155 23.955 23.9549L23.9525 23.9487Z" fill="white"/>
</svg>
