<svg width="32" height="32" viewBox="0 0 32 32" fill="none" xmlns="http://www.w3.org/2000/svg">
<path d="M27.425 20.98C25.2137 19.4613 24.75 16.89 24.75 15C24.75 12.6975 26.4825 10.7138 27.515 9.735C27.5889 9.66492 27.6478 9.58051 27.6881 9.48692C27.7283 9.39332 27.7491 9.29251 27.7491 9.19063C27.7491 9.08875 27.7283 8.98794 27.6881 8.89434C27.6478 8.80075 27.5889 8.71633 27.515 8.64625C26 7.2125 23.3837 6.25 21 6.25C19.2125 6.25168 17.4681 6.79899 16 7.81875C14.3186 6.6442 12.2764 6.10142 10.2338 6.28622C8.19115 6.47102 6.27948 7.37152 4.83624 8.82875C3.98576 9.698 3.31859 10.7292 2.87432 11.8613C2.43005 12.9933 2.21774 14.2031 2.24999 15.4188C2.29919 17.4951 2.76147 19.5408 3.60985 21.4365C4.45823 23.3322 5.67572 25.0399 7.19124 26.46C8.0723 27.2913 9.23865 27.753 10.45 27.75H21.4125C22.061 27.7522 22.7031 27.6209 23.2988 27.3644C23.8944 27.1078 24.431 26.7315 24.875 26.2588C25.7265 25.3436 26.4628 24.3277 27.0675 23.2338C27.8862 21.7338 27.7887 21.515 27.6925 21.2988C27.6348 21.1697 27.5421 21.0592 27.425 20.98ZM23.7712 25.23C23.4689 25.5525 23.1035 25.8094 22.6978 25.9849C22.292 26.1603 21.8545 26.2506 21.4125 26.25H10.45C9.62287 26.2542 8.82563 25.941 8.22249 25.375C6.84983 24.089 5.7473 22.5423 4.97936 20.8253C4.21143 19.1083 3.79349 17.2554 3.74999 15.375C3.72164 14.3609 3.89748 13.3514 4.26704 12.4065C4.6366 11.4617 5.19234 10.6008 5.90124 9.875C6.56611 9.19821 7.35984 8.66149 8.23557 8.29652C9.11129 7.93154 10.0513 7.74571 11 7.75H11.1012C12.7146 7.76597 14.2754 8.32573 15.5312 9.33875C15.6643 9.44526 15.8296 9.50329 16 9.50329C16.1704 9.50329 16.3357 9.44526 16.4687 9.33875C17.7518 8.30439 19.3519 7.74336 21 7.75C22.7362 7.75 24.6012 8.335 25.8887 9.25C24.7087 10.5175 23.2512 12.5738 23.2512 15C23.2512 17.9725 24.2275 20.325 26.0837 21.8463C25.4913 23.0882 24.7113 24.2315 23.7712 25.2363V25.23ZM16.2712 3.80625C16.5359 2.78704 17.1317 1.88465 17.965 1.24092C18.7984 0.597199 19.822 0.24863 20.875 0.250004H21C21.1989 0.250004 21.3897 0.329022 21.5303 0.469674C21.671 0.610326 21.75 0.801092 21.75 1C21.75 1.19892 21.671 1.38968 21.5303 1.53033C21.3897 1.67099 21.1989 1.75 21 1.75H20.875C20.1544 1.74985 19.4541 1.98921 18.8844 2.43044C18.3146 2.87167 17.9076 3.48976 17.7275 4.1875C17.6778 4.38012 17.5536 4.54509 17.3822 4.64612C17.2973 4.69615 17.2035 4.72898 17.1059 4.74272C17.0084 4.75647 16.9091 4.75088 16.8137 4.72625C16.6211 4.67653 16.4562 4.55232 16.3551 4.38096C16.3051 4.29611 16.2723 4.20224 16.2585 4.1047C16.2448 4.00716 16.2504 3.90788 16.275 3.8125L16.2712 3.80625Z" fill="white"/>
</svg>
