<svg width="32" height="32" viewBox="0 0 32 32" fill="none" xmlns="http://www.w3.org/2000/svg">
<path d="M27.5776 19.3212C27.6405 19.3971 27.6878 19.4846 27.7169 19.5787C27.746 19.6728 27.7562 19.7717 27.747 19.8698C27.7379 19.9679 27.7095 20.0632 27.6634 20.1503C27.6174 20.2374 27.5547 20.3146 27.4788 20.3775C25.3701 22.1275 23.4788 22.7525 21.7601 22.7525C19.4863 22.7525 17.4938 21.67 15.6426 20.6637C12.3926 18.8987 9.58759 17.375 5.47884 20.7887C5.40243 20.8516 5.31438 20.8988 5.21973 20.9277C5.12507 20.9565 5.02566 20.9664 4.92717 20.9568C4.82869 20.9473 4.73305 20.9184 4.64572 20.8719C4.55839 20.8253 4.48109 20.762 4.41822 20.6856C4.35535 20.6092 4.30814 20.5212 4.2793 20.4265C4.25046 20.3319 4.24054 20.2324 4.25012 20.134C4.25969 20.0355 4.28858 19.9398 4.33511 19.8525C4.38165 19.7652 4.44493 19.6879 4.52134 19.625C9.41259 15.5675 13.1026 17.5725 16.3576 19.3412C19.6126 21.11 22.4126 22.63 26.5213 19.2162C26.5976 19.1537 26.6854 19.1068 26.7797 19.0783C26.8741 19.0497 26.9731 19.04 27.0712 19.0498C27.1693 19.0595 27.2646 19.0885 27.3514 19.1351C27.4383 19.1817 27.5152 19.2449 27.5776 19.3212ZM5.47884 12.7775C9.58759 9.36875 12.3938 10.8925 15.6426 12.6525C17.4938 13.6525 19.4863 14.7412 21.7601 14.7412C23.4838 14.7412 25.3701 14.1162 27.4788 12.3662C27.632 12.2393 27.7285 12.0567 27.747 11.8586C27.7655 11.6605 27.7046 11.4632 27.5776 11.31C27.4506 11.1568 27.268 11.0604 27.0699 11.0419C26.8718 11.0233 26.6745 11.0843 26.5213 11.2112C22.4126 14.62 19.6063 13.0962 16.3576 11.3362C13.1088 9.57625 9.41259 7.565 4.52134 11.625C4.36818 11.752 4.27173 11.9346 4.25321 12.1327C4.23469 12.3308 4.29562 12.5281 4.42259 12.6812C4.54957 12.8344 4.73218 12.9309 4.93027 12.9494C5.12835 12.9679 5.32568 12.907 5.47884 12.78V12.7775Z" fill="white"/>
</svg>
