<svg width="32" height="32" viewBox="0 0 32 32" fill="none" xmlns="http://www.w3.org/2000/svg">
<path d="M7.8275 24.3813L6.64625 26.3813C6.54019 26.5406 6.37724 26.6534 6.19075 26.6965C6.00426 26.7396 5.80835 26.7097 5.64315 26.6131C5.47795 26.5164 5.35596 26.3602 5.30215 26.1766C5.24835 25.9929 5.26681 25.7956 5.35375 25.6251L6.53625 23.6251C6.58503 23.5378 6.65078 23.4611 6.72962 23.3996C6.80846 23.3381 6.8988 23.293 6.99533 23.2669C7.09185 23.2409 7.19262 23.2344 7.29171 23.2478C7.39079 23.2612 7.48618 23.2943 7.57228 23.3452C7.65838 23.396 7.73344 23.4636 7.79306 23.5438C7.85267 23.6241 7.89563 23.7155 7.91941 23.8126C7.94319 23.9097 7.94731 24.0106 7.93152 24.1094C7.91574 24.2081 7.88037 24.3027 7.8275 24.3876V24.3813ZM29 19.2501H22.8825L18.9688 12.6251C18.9186 12.5403 18.8522 12.4662 18.7735 12.4071C18.6947 12.3479 18.605 12.3049 18.5096 12.2804C18.4142 12.2559 18.3149 12.2504 18.2174 12.2643C18.1199 12.2782 18.026 12.3112 17.9412 12.3613C17.8565 12.4115 17.7824 12.4778 17.7232 12.5566C17.6641 12.6354 17.6211 12.725 17.5966 12.8204C17.5721 12.9158 17.5666 13.0152 17.5805 13.1127C17.5944 13.2102 17.6274 13.304 17.6775 13.3888L25.3538 26.3801C25.4549 26.5515 25.6199 26.6757 25.8126 26.7254C26.0053 26.7751 26.2099 26.7462 26.3813 26.6451C26.5526 26.5439 26.6769 26.3789 26.7266 26.1862C26.7763 25.9935 26.7474 25.789 26.6462 25.6176L23.7712 20.7488H29C29.1989 20.7488 29.3897 20.6698 29.5303 20.5291C29.671 20.3885 29.75 20.1977 29.75 19.9988C29.75 19.7999 29.671 19.6091 29.5303 19.4685C29.3897 19.3278 29.1989 19.2488 29 19.2488V19.2501ZM17.8088 19.2501H10.86L19.6462 4.38131C19.7332 4.21079 19.7516 4.01349 19.6978 3.82981C19.644 3.64612 19.522 3.48996 19.3568 3.3933C19.1916 3.29664 18.9957 3.2668 18.8093 3.30988C18.6228 3.35297 18.4598 3.46573 18.3538 3.62506L16 7.60256L13.6462 3.62506C13.5451 3.45366 13.3801 3.32946 13.1874 3.27976C12.9947 3.23006 12.7901 3.25895 12.6187 3.36006C12.4474 3.46117 12.3231 3.62623 12.2734 3.81893C12.2238 4.01162 12.2526 4.21616 12.3538 4.38756L15.125 9.07756L9.1175 19.2501H3C2.80109 19.2501 2.61032 19.3291 2.46967 19.4697C2.32902 19.6104 2.25 19.8011 2.25 20.0001C2.25 20.199 2.32902 20.3897 2.46967 20.5304C2.61032 20.671 2.80109 20.7501 3 20.7501H17.8088C18.0077 20.7501 18.1984 20.671 18.3391 20.5304C18.4797 20.3897 18.5588 20.199 18.5588 20.0001C18.5588 19.8011 18.4797 19.6104 18.3391 19.4697C18.1984 19.3291 18.0077 19.2501 17.8088 19.2501Z" fill="white"/>
</svg>
