<svg width="32" height="32" viewBox="0 0 32 32" fill="none" xmlns="http://www.w3.org/2000/svg">
<path d="M26.75 11.31V9C26.75 7.74022 26.2496 6.53204 25.3588 5.64124C24.468 4.75045 23.2598 4.25 22 4.25H10C8.74025 4.25 7.53207 4.75045 6.64127 5.64124C5.75047 6.53204 5.25003 7.74022 5.25003 9V11.31C4.13414 11.4881 3.11831 12.0582 2.38494 12.9179C1.65157 13.7776 1.24872 14.8706 1.24872 16.0006C1.24872 17.1306 1.65157 18.2236 2.38494 19.0833C3.11831 19.943 4.13414 20.5131 5.25003 20.6912V25C5.25003 25.4641 5.4344 25.9092 5.76259 26.2374C6.09078 26.5656 6.5359 26.75 7.00003 26.75H25C25.4642 26.75 25.9093 26.5656 26.2375 26.2374C26.5657 25.9092 26.75 25.4641 26.75 25V20.6912C27.8618 20.5091 28.8727 19.9377 29.6021 19.079C30.3316 18.2204 30.732 17.1304 30.732 16.0037C30.732 14.8771 30.3316 13.7871 29.6021 12.9285C28.8727 12.0698 27.8618 11.4984 26.75 11.3162V11.31ZM10 5.75H22C22.862 5.75 23.6886 6.09241 24.2981 6.7019C24.9076 7.3114 25.25 8.13805 25.25 9V11.31C24.135 11.4896 23.1203 12.06 22.3874 12.9193C21.6546 13.7786 21.2514 14.8706 21.25 16V16.25H10.75V16C10.7487 14.8706 10.3455 13.7786 9.61261 12.9193C8.87974 12.06 7.86503 11.4896 6.75003 11.31V9C6.75003 8.13805 7.09244 7.3114 7.70193 6.7019C8.31142 6.09241 9.13807 5.75 10 5.75ZM26.0438 19.25H26C25.8011 19.25 25.6103 19.329 25.4697 19.4697C25.329 19.6103 25.25 19.8011 25.25 20V25C25.25 25.0663 25.2237 25.1299 25.1768 25.1768C25.1299 25.2237 25.0663 25.25 25 25.25H7.00003C6.93372 25.25 6.87014 25.2237 6.82325 25.1768C6.77637 25.1299 6.75003 25.0663 6.75003 25V20C6.75003 19.8011 6.67101 19.6103 6.53036 19.4697C6.38971 19.329 6.19894 19.25 6.00003 19.25H5.95628C5.31542 19.2414 4.69142 19.0435 4.16275 18.6811C3.63408 18.3188 3.22433 17.8083 2.98504 17.2137C2.74575 16.6191 2.6876 15.9671 2.8179 15.3396C2.9482 14.712 3.26113 14.137 3.71735 13.6869C4.17356 13.2367 4.75269 12.9315 5.3819 12.8096C6.01112 12.6877 6.66233 12.7546 7.25364 13.0018C7.84496 13.249 8.34998 13.6656 8.7052 14.199C9.06041 14.7325 9.24997 15.3591 9.25003 16V21C9.25003 21.1989 9.32905 21.3897 9.4697 21.5303C9.61035 21.671 9.80112 21.75 10 21.75C10.1989 21.75 10.3897 21.671 10.5304 21.5303C10.671 21.3897 10.75 21.1989 10.75 21V17.75H21.25V21C21.25 21.1989 21.329 21.3897 21.4697 21.5303C21.6103 21.671 21.8011 21.75 22 21.75C22.1989 21.75 22.3897 21.671 22.5304 21.5303C22.671 21.3897 22.75 21.1989 22.75 21V16C22.7501 15.3591 22.9396 14.7325 23.2949 14.199C23.6501 13.6656 24.1551 13.249 24.7464 13.0018C25.3377 12.7546 25.9889 12.6877 26.6182 12.8096C27.2474 12.9315 27.8265 13.2367 28.2827 13.6869C28.7389 14.137 29.0519 14.712 29.1822 15.3396C29.3125 15.9671 29.2543 16.6191 29.015 17.2137C28.7757 17.8083 28.366 18.3188 27.8373 18.6811C27.3086 19.0435 26.6846 19.2414 26.0438 19.25Z" fill="white"/>
</svg>
