<svg width="32" height="32" viewBox="0 0 32 32" fill="none" xmlns="http://www.w3.org/2000/svg">
<path d="M27.53 22.53L21.53 28.53C21.3878 28.6625 21.1998 28.7346 21.0055 28.7312C20.8112 28.7277 20.6258 28.649 20.4884 28.5116C20.351 28.3742 20.2723 28.1888 20.2688 27.9945C20.2654 27.8002 20.3375 27.6122 20.47 27.47L25.1887 22.75H9C8.80109 22.75 8.61032 22.671 8.46967 22.5303C8.32902 22.3897 8.25 22.1989 8.25 22V4C8.25 3.80109 8.32902 3.61032 8.46967 3.46967C8.61032 3.32902 8.80109 3.25 9 3.25C9.19891 3.25 9.38968 3.32902 9.53033 3.46967C9.67098 3.61032 9.75 3.80109 9.75 4V21.25H25.1887L20.47 16.53C20.3963 16.4613 20.3372 16.3785 20.2962 16.2865C20.2552 16.1945 20.2332 16.0952 20.2314 15.9945C20.2296 15.8938 20.2482 15.7938 20.2859 15.7004C20.3236 15.607 20.3797 15.5222 20.451 15.451C20.5222 15.3797 20.607 15.3236 20.7004 15.2859C20.7938 15.2482 20.8938 15.2296 20.9945 15.2314C21.0952 15.2332 21.1945 15.2552 21.2865 15.2962C21.3785 15.3372 21.4613 15.3963 21.53 15.47L27.53 21.47C27.6705 21.6106 27.7493 21.8012 27.7493 22C27.7493 22.1988 27.6705 22.3894 27.53 22.53Z" fill="white"/>
</svg>
