<svg width="32" height="32" viewBox="0 0 32 32" fill="none" xmlns="http://www.w3.org/2000/svg">
<path d="M28.53 14.47L16.53 2.47001C16.3894 2.32956 16.1988 2.25067 16 2.25067C15.8013 2.25067 15.6106 2.32956 15.47 2.47001L3.47001 14.47C3.36526 14.5749 3.29393 14.7085 3.26505 14.8539C3.23616 14.9993 3.25101 15.15 3.30773 15.2869C3.36444 15.4239 3.46046 15.541 3.58368 15.6234C3.7069 15.7058 3.85177 15.7499 4.00001 15.75H9.25001V19C9.25001 19.1989 9.32903 19.3897 9.46968 19.5303C9.61033 19.671 9.8011 19.75 10 19.75H22C22.1989 19.75 22.3897 19.671 22.5303 19.5303C22.671 19.3897 22.75 19.1989 22.75 19V15.75H28C28.1483 15.7499 28.2931 15.7058 28.4163 15.6234C28.5396 15.541 28.6356 15.4239 28.6923 15.2869C28.749 15.15 28.7639 14.9993 28.735 14.8539C28.7061 14.7085 28.6348 14.5749 28.53 14.47ZM22 14.25C21.8011 14.25 21.6103 14.329 21.4697 14.4697C21.329 14.6103 21.25 14.8011 21.25 15V18.25H10.75V15C10.75 14.8011 10.671 14.6103 10.5303 14.4697C10.3897 14.329 10.1989 14.25 10 14.25H5.81126L16 4.06126L26.1888 14.25H22ZM22.75 27C22.75 27.1989 22.671 27.3897 22.5303 27.5303C22.3897 27.671 22.1989 27.75 22 27.75H10C9.8011 27.75 9.61033 27.671 9.46968 27.5303C9.32903 27.3897 9.25001 27.1989 9.25001 27C9.25001 26.8011 9.32903 26.6103 9.46968 26.4697C9.61033 26.329 9.8011 26.25 10 26.25H22C22.1989 26.25 22.3897 26.329 22.5303 26.4697C22.671 26.6103 22.75 26.8011 22.75 27ZM22.75 23C22.75 23.1989 22.671 23.3897 22.5303 23.5303C22.3897 23.671 22.1989 23.75 22 23.75H10C9.8011 23.75 9.61033 23.671 9.46968 23.5303C9.32903 23.3897 9.25001 23.1989 9.25001 23C9.25001 22.8011 9.32903 22.6103 9.46968 22.4697C9.61033 22.329 9.8011 22.25 10 22.25H22C22.1989 22.25 22.3897 22.329 22.5303 22.4697C22.671 22.6103 22.75 22.8011 22.75 23Z" fill="white"/>
</svg>
