<svg width="32" height="32" viewBox="0 0 32 32" fill="none" xmlns="http://www.w3.org/2000/svg">
<path d="M24.75 9.99997V28C24.75 28.1989 24.671 28.3897 24.5303 28.5303C24.3897 28.671 24.1989 28.75 24 28.75C23.8011 28.75 23.6103 28.671 23.4697 28.5303C23.329 28.3897 23.25 28.1989 23.25 28V10.75H7.81125L12.53 15.47C12.6037 15.5386 12.6628 15.6214 12.7038 15.7134C12.7448 15.8054 12.7668 15.9047 12.7686 16.0054C12.7704 16.1062 12.7518 16.2062 12.7141 16.2996C12.6764 16.393 12.6203 16.4778 12.549 16.549C12.4778 16.6202 12.393 16.6764 12.2996 16.7141C12.2062 16.7518 12.1062 16.7703 12.0055 16.7686C11.9048 16.7668 11.8055 16.7447 11.7135 16.7038C11.6215 16.6628 11.5387 16.6037 11.47 16.53L5.47 10.53C5.32955 10.3893 5.25066 10.1987 5.25066 9.99997C5.25066 9.80122 5.32955 9.6106 5.47 9.46997L11.47 3.46997C11.5387 3.39628 11.6215 3.33718 11.7135 3.29619C11.8055 3.2552 11.9048 3.23316 12.0055 3.23138C12.1062 3.2296 12.2062 3.24813 12.2996 3.28585C12.393 3.32357 12.4778 3.37971 12.549 3.45093C12.6203 3.52215 12.6764 3.60698 12.7141 3.70037C12.7518 3.79376 12.7704 3.89379 12.7686 3.99449C12.7668 4.0952 12.7448 4.19451 12.7038 4.28651C12.6628 4.37851 12.6037 4.46131 12.53 4.52997L7.81125 9.24997H24C24.1989 9.24997 24.3897 9.32899 24.5303 9.46964C24.671 9.61029 24.75 9.80106 24.75 9.99997Z" fill="white"/>
</svg>
