<svg width="32" height="32" viewBox="0 0 32 32" fill="none" xmlns="http://www.w3.org/2000/svg">
<path d="M24.75 8V21C24.75 21.1989 24.671 21.3897 24.5303 21.5303C24.3897 21.671 24.1989 21.75 24 21.75C23.8011 21.75 23.6103 21.671 23.4697 21.5303C23.329 21.3897 23.25 21.1989 23.25 21V9.81L8.53 24.53C8.38782 24.6625 8.19978 24.7346 8.00548 24.7312C7.81118 24.7277 7.62579 24.649 7.48838 24.5116C7.35096 24.3742 7.27225 24.1888 7.26882 23.9945C7.2654 23.8002 7.33752 23.6122 7.47 23.47L22.19 8.75H11C10.8011 8.75 10.6103 8.67098 10.4697 8.53033C10.329 8.38968 10.25 8.19891 10.25 8C10.25 7.80109 10.329 7.61032 10.4697 7.46967C10.6103 7.32902 10.8011 7.25 11 7.25H24C24.1989 7.25 24.3897 7.32902 24.5303 7.46967C24.671 7.61032 24.75 7.80109 24.75 8Z" fill="white"/>
</svg>
