<svg width="32" height="32" viewBox="0 0 32 32" fill="none" xmlns="http://www.w3.org/2000/svg">
<path d="M18.25 13V8.00003C18.25 7.80112 18.329 7.61035 18.4697 7.4697C18.6103 7.32905 18.8011 7.25003 19 7.25003C19.1989 7.25003 19.3897 7.32905 19.5303 7.4697C19.671 7.61035 19.75 7.80112 19.75 8.00003V11.1888L25.47 5.47003C25.6122 5.33755 25.8002 5.26543 25.9945 5.26885C26.1888 5.27228 26.3742 5.35099 26.5116 5.48841C26.649 5.62582 26.7277 5.81121 26.7312 6.00551C26.7346 6.19981 26.6625 6.38785 26.53 6.53003L20.81 12.25H24C24.1989 12.25 24.3897 12.329 24.5303 12.4697C24.671 12.6104 24.75 12.8011 24.75 13C24.75 13.1989 24.671 13.3897 24.5303 13.5304C24.3897 13.671 24.1989 13.75 24 13.75H19C18.8011 13.75 18.6103 13.671 18.4697 13.5304C18.329 13.3897 18.25 13.1989 18.25 13ZM13 18.25H8C7.80109 18.25 7.61032 18.329 7.46967 18.4697C7.32902 18.6104 7.25 18.8011 7.25 19C7.25 19.1989 7.32902 19.3897 7.46967 19.5304C7.61032 19.671 7.80109 19.75 8 19.75H11.19L5.47 25.47C5.39631 25.5387 5.33721 25.6215 5.29622 25.7135C5.25523 25.8055 5.23319 25.9048 5.23141 26.0055C5.22963 26.1062 5.24816 26.2062 5.28588 26.2996C5.3236 26.393 5.37974 26.4778 5.45096 26.5491C5.52218 26.6203 5.60701 26.6764 5.7004 26.7142C5.79379 26.7519 5.89382 26.7704 5.99452 26.7686C6.09523 26.7668 6.19454 26.7448 6.28654 26.7038C6.37854 26.6628 6.46134 26.6037 6.53 26.53L12.25 20.81V24C12.25 24.1989 12.329 24.3897 12.4697 24.5304C12.6103 24.671 12.8011 24.75 13 24.75C13.1989 24.75 13.3897 24.671 13.5303 24.5304C13.671 24.3897 13.75 24.1989 13.75 24V19C13.75 18.8011 13.671 18.6104 13.5303 18.4697C13.3897 18.329 13.1989 18.25 13 18.25ZM20.81 19.75H24C24.1989 19.75 24.3897 19.671 24.5303 19.5304C24.671 19.3897 24.75 19.1989 24.75 19C24.75 18.8011 24.671 18.6104 24.5303 18.4697C24.3897 18.329 24.1989 18.25 24 18.25H19C18.8011 18.25 18.6103 18.329 18.4697 18.4697C18.329 18.6104 18.25 18.8011 18.25 19V24C18.25 24.1989 18.329 24.3897 18.4697 24.5304C18.6103 24.671 18.8011 24.75 19 24.75C19.1989 24.75 19.3897 24.671 19.5303 24.5304C19.671 24.3897 19.75 24.1989 19.75 24V20.81L25.47 26.53C25.6122 26.6625 25.8002 26.7346 25.9945 26.7312C26.1888 26.7278 26.3742 26.6491 26.5116 26.5117C26.649 26.3742 26.7277 26.1889 26.7312 25.9946C26.7346 25.8003 26.6625 25.6122 26.53 25.47L20.81 19.75ZM13 7.25003C12.8011 7.25003 12.6103 7.32905 12.4697 7.4697C12.329 7.61035 12.25 7.80112 12.25 8.00003V11.1888L6.53 5.47003C6.38783 5.33755 6.19978 5.26543 6.00548 5.26885C5.81118 5.27228 5.62579 5.35099 5.48838 5.48841C5.35097 5.62582 5.27225 5.81121 5.26883 6.00551C5.2654 6.19981 5.33752 6.38785 5.47 6.53003L11.19 12.25H8C7.80109 12.25 7.61032 12.329 7.46967 12.4697C7.32902 12.6104 7.25 12.8011 7.25 13C7.25 13.1989 7.32902 13.3897 7.46967 13.5304C7.61032 13.671 7.80109 13.75 8 13.75H13C13.1989 13.75 13.3897 13.671 13.5303 13.5304C13.671 13.3897 13.75 13.1989 13.75 13V8.00003C13.75 7.80112 13.671 7.61035 13.5303 7.4697C13.3897 7.32905 13.1989 7.25003 13 7.25003Z" fill="white"/>
</svg>
