<svg width="32" height="32" viewBox="0 0 32 32" fill="none" xmlns="http://www.w3.org/2000/svg">
<path d="M26 9.25001H15.75V4.00001C15.7499 3.85177 15.7058 3.7069 15.6234 3.58368C15.541 3.46046 15.4239 3.36444 15.2869 3.30773C15.15 3.25101 14.9993 3.23616 14.8539 3.26505C14.7085 3.29393 14.5749 3.36526 14.47 3.47001L2.47001 15.47C2.32956 15.6106 2.25067 15.8013 2.25067 16C2.25067 16.1988 2.32956 16.3894 2.47001 16.53L14.47 28.53C14.5749 28.6348 14.7085 28.7061 14.8539 28.735C14.9993 28.7639 15.15 28.749 15.2869 28.6923C15.4239 28.6356 15.541 28.5396 15.6234 28.4163C15.7058 28.2931 15.7499 28.1483 15.75 28V22.75H26C26.4641 22.75 26.9093 22.5656 27.2374 22.2374C27.5656 21.9093 27.75 21.4641 27.75 21V11C27.75 10.5359 27.5656 10.0908 27.2374 9.76257C26.9093 9.43439 26.4641 9.25001 26 9.25001ZM26.25 21C26.25 21.0663 26.2237 21.1299 26.1768 21.1768C26.1299 21.2237 26.0663 21.25 26 21.25H15C14.8011 21.25 14.6103 21.329 14.4697 21.4697C14.329 21.6103 14.25 21.8011 14.25 22V26.1888L4.06126 16L14.25 5.81126V10C14.25 10.1989 14.329 10.3897 14.4697 10.5303C14.6103 10.671 14.8011 10.75 15 10.75H26C26.0663 10.75 26.1299 10.7764 26.1768 10.8232C26.2237 10.8701 26.25 10.9337 26.25 11V21Z" fill="white"/>
</svg>
