<svg width="32" height="32" viewBox="0 0 32 32" fill="none" xmlns="http://www.w3.org/2000/svg">
<path d="M29.75 9C29.75 9.19891 29.671 9.38968 29.5303 9.53033C29.3897 9.67098 29.1989 9.75 29 9.75H11.75V25.1887L16.47 20.47C16.6122 20.3375 16.8002 20.2654 16.9945 20.2688C17.1888 20.2723 17.3742 20.351 17.5116 20.4884C17.649 20.6258 17.7277 20.8112 17.7312 21.0055C17.7346 21.1998 17.6625 21.3878 17.53 21.53L11.53 27.53C11.3894 27.6705 11.1987 27.7493 11 27.7493C10.8012 27.7493 10.6106 27.6705 10.47 27.53L4.47 21.53C4.33752 21.3878 4.2654 21.1998 4.26882 21.0055C4.27225 20.8112 4.35096 20.6258 4.48838 20.4884C4.62579 20.351 4.81118 20.2723 5.00548 20.2688C5.19978 20.2654 5.38782 20.3375 5.53 20.47L10.25 25.1887V9C10.25 8.80109 10.329 8.61032 10.4697 8.46967C10.6103 8.32902 10.8011 8.25 11 8.25H29C29.1989 8.25 29.3897 8.32902 29.5303 8.46967C29.671 8.61032 29.75 8.80109 29.75 9Z" fill="white"/>
</svg>
