<svg width="32" height="32" viewBox="0 0 32 32" fill="none" xmlns="http://www.w3.org/2000/svg">
<path d="M27.53 12.53C27.3894 12.6705 27.1988 12.7494 27 12.7494C26.8012 12.7494 26.6106 12.6705 26.47 12.53L21.75 7.81126V24C21.75 24.1989 21.671 24.3897 21.5303 24.5303C21.3897 24.671 21.1989 24.75 21 24.75H3C2.80109 24.75 2.61032 24.671 2.46967 24.5303C2.32902 24.3897 2.25 24.1989 2.25 24C2.25 23.8011 2.32902 23.6103 2.46967 23.4697C2.61032 23.329 2.80109 23.25 3 23.25H20.25V7.81126L15.53 12.53C15.3878 12.6625 15.1998 12.7346 15.0055 12.7312C14.8112 12.7278 14.6258 12.649 14.4884 12.5116C14.351 12.3742 14.2723 12.1888 14.2688 11.9945C14.2654 11.8002 14.3375 11.6122 14.47 11.47L20.47 5.47001C20.6106 5.32956 20.8012 5.25067 21 5.25067C21.1988 5.25067 21.3894 5.32956 21.53 5.47001L27.53 11.47C27.6705 11.6106 27.7493 11.8013 27.7493 12C27.7493 12.1988 27.6705 12.3894 27.53 12.53Z" fill="white"/>
</svg>
