<svg width="32" height="32" viewBox="0 0 32 32" fill="none" xmlns="http://www.w3.org/2000/svg">
<path d="M27.75 6.00003V12C27.75 12.1989 27.671 12.3897 27.5303 12.5304C27.3897 12.671 27.1989 12.75 27 12.75H21C20.8011 12.75 20.6103 12.671 20.4697 12.5304C20.329 12.3897 20.25 12.1989 20.25 12C20.25 11.8011 20.329 11.6104 20.4697 11.4697C20.6103 11.329 20.8011 11.25 21 11.25H25.19L22.9338 9.00003C21.0288 7.08673 18.4424 6.00773 15.7425 6.00003H15.685C13.0083 5.99158 10.4358 7.03691 8.52375 8.91003C8.45416 8.98267 8.37068 9.04057 8.27826 9.08028C8.18584 9.11999 8.08638 9.14071 7.98579 9.1412C7.8852 9.14168 7.78554 9.12193 7.69274 9.08311C7.59994 9.04429 7.5159 8.98721 7.44561 8.91524C7.37533 8.84328 7.32024 8.75792 7.28362 8.66423C7.247 8.57054 7.2296 8.47044 7.23246 8.36989C7.23532 8.26934 7.25838 8.1704 7.30026 8.07894C7.34214 7.98748 7.40199 7.90538 7.47625 7.83753C9.66622 5.68653 12.6154 4.48478 15.685 4.49253H15.75C18.8475 4.50042 21.815 5.73825 24 7.93378L26.25 10.1838V6.00003C26.25 5.80112 26.329 5.61035 26.4697 5.4697C26.6103 5.32905 26.8011 5.25003 27 5.25003C27.1989 5.25003 27.3897 5.32905 27.5303 5.4697C27.671 5.61035 27.75 5.80112 27.75 6.00003ZM23.4762 23.09C21.5654 24.9659 18.9927 26.014 16.315 26.0075H16.2575C13.5576 25.9998 10.9712 24.9208 9.06625 23.0075L6.81 20.75H11C11.1989 20.75 11.3897 20.671 11.5303 20.5304C11.671 20.3897 11.75 20.1989 11.75 20C11.75 19.8011 11.671 19.6104 11.5303 19.4697C11.3897 19.329 11.1989 19.25 11 19.25H5C4.80109 19.25 4.61032 19.329 4.46967 19.4697C4.32902 19.6104 4.25 19.8011 4.25 20V26C4.25 26.1989 4.32902 26.3897 4.46967 26.5304C4.61032 26.671 4.80109 26.75 5 26.75C5.19891 26.75 5.38968 26.671 5.53033 26.5304C5.67098 26.3897 5.75 26.1989 5.75 26V21.81L8 24.0663C10.185 26.2618 13.1525 27.4996 16.25 27.5075H16.315C19.3846 27.5153 22.3338 26.3135 24.5238 24.1625C24.598 24.0947 24.6579 24.0126 24.6997 23.9211C24.7416 23.8297 24.7647 23.7307 24.7675 23.6302C24.7704 23.5296 24.753 23.4295 24.7164 23.3358C24.6798 23.2421 24.6247 23.1568 24.5544 23.0848C24.4841 23.0129 24.4001 22.9558 24.3073 22.9169C24.2145 22.8781 24.1148 22.8584 24.0142 22.8589C23.9136 22.8594 23.8142 22.8801 23.7217 22.9198C23.6293 22.9595 23.5458 23.0174 23.4762 23.09Z" fill="white"/>
</svg>
