<svg width="32" height="32" viewBox="0 0 32 32" fill="none" xmlns="http://www.w3.org/2000/svg">
<path d="M28.53 14.47L16.53 2.47001C16.3894 2.32956 16.1987 2.25067 16 2.25067C15.8012 2.25067 15.6106 2.32956 15.47 2.47001L3.47 14.47C3.36524 14.5749 3.29392 14.7085 3.26503 14.8539C3.23615 14.9993 3.251 15.15 3.30771 15.2869C3.36442 15.4239 3.46045 15.541 3.58366 15.6234C3.70688 15.7058 3.85176 15.7499 4 15.75H9.25V23C9.25 23.1989 9.32901 23.3897 9.46967 23.5303C9.61032 23.671 9.80108 23.75 10 23.75H22C22.1989 23.75 22.3897 23.671 22.5303 23.5303C22.671 23.3897 22.75 23.1989 22.75 23V15.75H28C28.1482 15.7499 28.2931 15.7058 28.4163 15.6234C28.5395 15.541 28.6356 15.4239 28.6923 15.2869C28.749 15.15 28.7638 14.9993 28.735 14.8539C28.7061 14.7085 28.6348 14.5749 28.53 14.47ZM22 14.25C21.8011 14.25 21.6103 14.329 21.4697 14.4697C21.329 14.6103 21.25 14.8011 21.25 15V22.25H10.75V15C10.75 14.8011 10.671 14.6103 10.5303 14.4697C10.3897 14.329 10.1989 14.25 10 14.25H5.81125L16 4.06126L26.1887 14.25H22ZM22.75 27C22.75 27.1989 22.671 27.3897 22.5303 27.5303C22.3897 27.671 22.1989 27.75 22 27.75H10C9.80108 27.75 9.61032 27.671 9.46967 27.5303C9.32901 27.3897 9.25 27.1989 9.25 27C9.25 26.8011 9.32901 26.6103 9.46967 26.4697C9.61032 26.329 9.80108 26.25 10 26.25H22C22.1989 26.25 22.3897 26.329 22.5303 26.4697C22.671 26.6103 22.75 26.8011 22.75 27Z" fill="white"/>
</svg>
