<svg width="32" height="32" viewBox="0 0 32 32" fill="none" xmlns="http://www.w3.org/2000/svg">
<path d="M11 12.75H5C4.80109 12.75 4.61032 12.671 4.46967 12.5304C4.32902 12.3897 4.25 12.1989 4.25 12V6.00002C4.25 5.80111 4.32902 5.61034 4.46967 5.46969C4.61032 5.32904 4.80109 5.25002 5 5.25002C5.19891 5.25002 5.38968 5.32904 5.53033 5.46969C5.67098 5.61034 5.75 5.80111 5.75 6.00002V10.19L8 7.94002C10.185 5.74449 13.1525 4.50667 16.25 4.49877H16.315C19.3837 4.48949 22.3327 5.68893 24.5238 7.83752C24.6584 7.97804 24.7331 8.16538 24.7322 8.35997C24.7312 8.55457 24.6547 8.74117 24.5187 8.88039C24.3827 9.0196 24.198 9.10051 24.0035 9.10604C23.809 9.11157 23.6199 9.04128 23.4762 8.91002C21.5458 7.02578 18.9503 5.97853 16.2528 5.99538C13.5552 6.01223 10.973 7.09182 9.06625 9.00002L6.81 11.25H11C11.1989 11.25 11.3897 11.329 11.5303 11.4697C11.671 11.6103 11.75 11.8011 11.75 12C11.75 12.1989 11.671 12.3897 11.5303 12.5304C11.3897 12.671 11.1989 12.75 11 12.75ZM27 19.25H21C20.8011 19.25 20.6103 19.329 20.4697 19.4697C20.329 19.6103 20.25 19.8011 20.25 20C20.25 20.1989 20.329 20.3897 20.4697 20.5304C20.6103 20.671 20.8011 20.75 21 20.75H25.19L22.9338 23C21.0288 24.9133 18.4424 25.9923 15.7425 26H15.685C13.0073 26.0065 10.4346 24.9584 8.52375 23.0825C8.38009 22.9513 8.19104 22.881 7.99653 22.8865C7.80201 22.892 7.61726 22.9729 7.48129 23.1122C7.34533 23.2514 7.26879 23.438 7.26785 23.6326C7.26691 23.8272 7.34164 24.0145 7.47625 24.155C9.66629 26.3059 12.6154 27.5076 15.685 27.5H15.75C18.8475 27.4921 21.815 26.2543 24 24.0588L26.25 21.8025V26C26.25 26.1989 26.329 26.3897 26.4697 26.5304C26.6103 26.671 26.8011 26.75 27 26.75C27.1989 26.75 27.3897 26.671 27.5303 26.5304C27.671 26.3897 27.75 26.1989 27.75 26V20C27.75 19.8011 27.671 19.6103 27.5303 19.4697C27.3897 19.329 27.1989 19.25 27 19.25Z" fill="white"/>
</svg>
