<svg width="32" height="32" viewBox="0 0 32 32" fill="none" xmlns="http://www.w3.org/2000/svg">
<path d="M29.75 7V13C29.75 13.1989 29.671 13.3897 29.5303 13.5303C29.3897 13.671 29.1989 13.75 29 13.75H23C22.8011 13.75 22.6103 13.671 22.4697 13.5303C22.329 13.3897 22.25 13.1989 22.25 13C22.25 12.8011 22.329 12.6103 22.4697 12.4697C22.6103 12.329 22.8011 12.25 23 12.25H27.0687L23.2712 8.775C23.2637 8.7675 23.2562 8.75875 23.2475 8.75125C21.8227 7.32727 20.0099 6.35469 18.0355 5.955C16.0612 5.55531 14.0129 5.74623 12.1464 6.50392C10.2799 7.2616 8.67809 8.55245 7.54099 10.2152C6.40389 11.878 5.78194 13.8389 5.75284 15.8531C5.72373 17.8673 6.28876 19.8454 7.37734 21.5403C8.46593 23.2353 10.0298 24.5718 11.8736 25.3831C13.7174 26.1944 15.7594 26.4445 17.7444 26.102C19.7295 25.7595 21.5696 24.8397 23.035 23.4575C23.1797 23.3209 23.3727 23.2474 23.5716 23.2531C23.7706 23.2589 23.959 23.3434 24.0956 23.4881C24.2322 23.6328 24.3057 23.8259 24.3 24.0248C24.2942 24.2237 24.2097 24.4122 24.065 24.5487C21.8873 26.6117 18.9996 27.7579 16 27.75H15.84C13.9159 27.7229 12.028 27.2237 10.342 26.2962C8.65604 25.3687 7.22365 24.0414 6.17069 22.4308C5.11774 20.8202 4.47645 18.9757 4.30317 17.0592C4.12989 15.1428 4.42993 13.2132 5.17692 11.4398C5.9239 9.6665 7.09498 8.10375 8.58725 6.88891C10.0795 5.67407 11.8473 4.84431 13.7353 4.47254C15.6233 4.10077 17.5737 4.19837 19.4151 4.75676C21.2566 5.31516 22.9327 6.31725 24.2962 7.675L28.25 11.2937V7C28.25 6.80108 28.329 6.61032 28.4697 6.46967C28.6103 6.32901 28.8011 6.25 29 6.25C29.1989 6.25 29.3897 6.32901 29.5303 6.46967C29.671 6.61032 29.75 6.80108 29.75 7Z" fill="white"/>
</svg>
