<svg width="32" height="32" viewBox="0 0 32 32" fill="none" xmlns="http://www.w3.org/2000/svg">
<path d="M28.75 7C28.746 10.3803 27.4015 13.621 25.0112 16.0112C22.621 18.4015 19.3803 19.746 16 19.75H5.81126L10.53 24.47C10.6037 24.5387 10.6628 24.6215 10.7038 24.7135C10.7448 24.8055 10.7668 24.9048 10.7686 25.0055C10.7704 25.1062 10.7519 25.2062 10.7141 25.2996C10.6764 25.393 10.6203 25.4778 10.549 25.549C10.4778 25.6203 10.393 25.6764 10.2996 25.7141C10.2062 25.7518 10.1062 25.7704 10.0055 25.7686C9.90479 25.7668 9.80547 25.7448 9.71347 25.7038C9.62147 25.6628 9.53867 25.6037 9.47001 25.53L3.47001 19.53C3.32956 19.3894 3.25067 19.1988 3.25067 19C3.25067 18.8012 3.32956 18.6106 3.47001 18.47L9.47001 12.47C9.61219 12.3375 9.80023 12.2654 9.99453 12.2688C10.1888 12.2723 10.3742 12.351 10.5116 12.4884C10.649 12.6258 10.7278 12.8112 10.7312 13.0055C10.7346 13.1998 10.6625 13.3878 10.53 13.53L5.81126 18.25H16C18.9827 18.2467 21.8422 17.0604 23.9513 14.9513C26.0604 12.8422 27.2467 9.98267 27.25 7C27.25 6.80109 27.329 6.61032 27.4697 6.46967C27.6103 6.32902 27.8011 6.25 28 6.25C28.1989 6.25 28.3897 6.32902 28.5303 6.46967C28.671 6.61032 28.75 6.80109 28.75 7Z" fill="white"/>
</svg>
