<svg width="32" height="32" viewBox="0 0 32 32" fill="none" xmlns="http://www.w3.org/2000/svg">
<path d="M15.75 17V25C15.75 25.1989 15.671 25.3897 15.5303 25.5303C15.3897 25.671 15.1989 25.75 15 25.75C14.8011 25.75 14.6103 25.671 14.4697 25.5303C14.329 25.3897 14.25 25.1989 14.25 25V18.8113L5.53 27.53C5.38782 27.6625 5.19978 27.7346 5.00548 27.7312C4.81118 27.7277 4.62579 27.649 4.48838 27.5116C4.35096 27.3742 4.27225 27.1888 4.26882 26.9945C4.2654 26.8002 4.33752 26.6122 4.47 26.47L13.1887 17.75H7C6.80109 17.75 6.61032 17.671 6.46967 17.5303C6.32902 17.3897 6.25 17.1989 6.25 17C6.25 16.8011 6.32902 16.6103 6.46967 16.4697C6.61032 16.329 6.80109 16.25 7 16.25H15C15.1989 16.25 15.3897 16.329 15.5303 16.4697C15.671 16.6103 15.75 16.8011 15.75 17ZM26 4.25H10C9.53587 4.25 9.09075 4.43437 8.76256 4.76256C8.43437 5.09075 8.25 5.53587 8.25 6V12C8.25 12.1989 8.32902 12.3897 8.46967 12.5303C8.61032 12.671 8.80109 12.75 9 12.75C9.19891 12.75 9.38968 12.671 9.53033 12.5303C9.67098 12.3897 9.75 12.1989 9.75 12V6C9.75 5.9337 9.77634 5.87011 9.82322 5.82322C9.87011 5.77634 9.93369 5.75 10 5.75H26C26.0663 5.75 26.1299 5.77634 26.1768 5.82322C26.2237 5.87011 26.25 5.9337 26.25 6V22C26.25 22.0663 26.2237 22.1299 26.1768 22.1768C26.1299 22.2237 26.0663 22.25 26 22.25H20C19.8011 22.25 19.6103 22.329 19.4697 22.4697C19.329 22.6103 19.25 22.8011 19.25 23C19.25 23.1989 19.329 23.3897 19.4697 23.5303C19.6103 23.671 19.8011 23.75 20 23.75H26C26.4641 23.75 26.9092 23.5656 27.2374 23.2374C27.5656 22.9092 27.75 22.4641 27.75 22V6C27.75 5.53587 27.5656 5.09075 27.2374 4.76256C26.9092 4.43437 26.4641 4.25 26 4.25Z" fill="white"/>
</svg>
