<svg width="32" height="32" viewBox="0 0 32 32" fill="none" xmlns="http://www.w3.org/2000/svg">
<path d="M28.53 13.53L22.53 19.53C22.3878 19.6625 22.1998 19.7346 22.0055 19.7312C21.8112 19.7277 21.6258 19.649 21.4884 19.5116C21.351 19.3742 21.2723 19.1888 21.2688 18.9945C21.2654 18.8002 21.3375 18.6122 21.47 18.47L26.1887 13.75H16C13.0173 13.7533 10.1578 14.9396 8.0487 17.0487C5.93964 19.1578 4.75331 22.0173 4.75 25C4.75 25.1989 4.67098 25.3897 4.53033 25.5303C4.38968 25.671 4.19891 25.75 4 25.75C3.80109 25.75 3.61032 25.671 3.46967 25.5303C3.32902 25.3897 3.25 25.1989 3.25 25C3.25397 21.6197 4.59854 18.379 6.98877 15.9888C9.379 13.5985 12.6197 12.254 16 12.25H26.1887L21.47 7.53C21.3375 7.38782 21.2654 7.19978 21.2688 7.00548C21.2723 6.81118 21.351 6.62579 21.4884 6.48838C21.6258 6.35096 21.8112 6.27225 22.0055 6.26882C22.1998 6.2654 22.3878 6.33752 22.53 6.47L28.53 12.47C28.6705 12.6106 28.7493 12.8012 28.7493 13C28.7493 13.1987 28.6705 13.3894 28.53 13.53Z" fill="white"/>
</svg>
