<svg width="32" height="32" viewBox="0 0 32 32" fill="none" xmlns="http://www.w3.org/2000/svg">
<path d="M25.75 11V22C25.75 22.1989 25.671 22.3897 25.5303 22.5303C25.3897 22.671 25.1989 22.75 25 22.75C24.8011 22.75 24.6103 22.671 24.4697 22.5303C24.329 22.3897 24.25 22.1989 24.25 22V11C24.25 9.3424 23.5915 7.75269 22.4194 6.58058C21.2473 5.40848 19.6576 4.75 18 4.75C16.3424 4.75 14.7527 5.40848 13.5806 6.58058C12.4085 7.75269 11.75 9.3424 11.75 11V26.1887L16.47 21.47C16.6122 21.3375 16.8002 21.2654 16.9945 21.2688C17.1888 21.2723 17.3742 21.351 17.5116 21.4884C17.649 21.6258 17.7277 21.8112 17.7312 22.0055C17.7346 22.1998 17.6625 22.3878 17.53 22.53L11.53 28.53C11.3894 28.6705 11.1987 28.7493 11 28.7493C10.8012 28.7493 10.6106 28.6705 10.47 28.53L4.47 22.53C4.33752 22.3878 4.2654 22.1998 4.26882 22.0055C4.27225 21.8112 4.35096 21.6258 4.48838 21.4884C4.62579 21.351 4.81118 21.2723 5.00548 21.2688C5.19978 21.2654 5.38782 21.3375 5.53 21.47L10.25 26.1887V11C10.25 8.94457 11.0665 6.97333 12.5199 5.51992C13.9733 4.06652 15.9446 3.25 18 3.25C20.0554 3.25 22.0267 4.06652 23.4801 5.51992C24.9335 6.97333 25.75 8.94457 25.75 11Z" fill="white"/>
</svg>
