<svg width="32" height="32" viewBox="0 0 32 32" fill="none" xmlns="http://www.w3.org/2000/svg">
<path d="M28.75 18C28.7477 20.0547 27.9304 22.0246 26.4775 23.4776C25.0246 24.9305 23.0547 25.7477 21 25.75H10C9.80108 25.75 9.61032 25.671 9.46967 25.5304C9.32901 25.3897 9.25 25.1989 9.25 25C9.25 24.8011 9.32901 24.6104 9.46967 24.4697C9.61032 24.329 9.80108 24.25 10 24.25H21C22.6576 24.25 24.2473 23.5915 25.4194 22.4194C26.5915 21.2473 27.25 19.6576 27.25 18C27.25 16.3424 26.5915 14.7527 25.4194 13.5806C24.2473 12.4085 22.6576 11.75 21 11.75H5.81125L10.53 16.47C10.6037 16.5387 10.6628 16.6215 10.7038 16.7135C10.7448 16.8055 10.7668 16.9048 10.7686 17.0055C10.7704 17.1062 10.7518 17.2062 10.7141 17.2996C10.6764 17.393 10.6203 17.4778 10.549 17.5491C10.4778 17.6203 10.393 17.6764 10.2996 17.7142C10.2062 17.7519 10.1062 17.7704 10.0055 17.7686C9.90477 17.7668 9.80546 17.7448 9.71346 17.7038C9.62146 17.6628 9.53866 17.6037 9.47 17.53L3.47 11.53C3.32955 11.3894 3.25066 11.1988 3.25066 11C3.25066 10.8013 3.32955 10.6107 3.47 10.47L9.47 4.47003C9.61217 4.33755 9.80022 4.26543 9.99452 4.26885C10.1888 4.27228 10.3742 4.35099 10.5116 4.48841C10.649 4.62582 10.7277 4.81121 10.7312 5.00551C10.7346 5.19981 10.6625 5.38785 10.53 5.53003L5.81125 10.25H21C23.0547 10.2523 25.0246 11.0696 26.4775 12.5225C27.9304 13.9754 28.7477 15.9453 28.75 18Z" fill="white"/>
</svg>
