<svg width="32" height="32" viewBox="0 0 32 32" fill="none" xmlns="http://www.w3.org/2000/svg">
<path d="M28.75 6C28.75 6.19891 28.671 6.38968 28.5303 6.53033C28.3897 6.67098 28.1989 6.75 28 6.75H6C5.80109 6.75 5.61032 6.67098 5.46967 6.53033C5.32902 6.38968 5.25 6.19891 5.25 6C5.25 5.80109 5.32902 5.61032 5.46967 5.46967C5.61032 5.32902 5.80109 5.25 6 5.25H28C28.1989 5.25 28.3897 5.32902 28.5303 5.46967C28.671 5.61032 28.75 5.80109 28.75 6ZM22.47 11.47L9.75 24.19V14C9.75 13.8011 9.67098 13.6103 9.53033 13.4697C9.38968 13.329 9.19891 13.25 9 13.25C8.80109 13.25 8.61032 13.329 8.46967 13.4697C8.32902 13.6103 8.25 13.8011 8.25 14V26C8.25 26.1989 8.32902 26.3897 8.46967 26.5303C8.61032 26.671 8.80109 26.75 9 26.75H21C21.1989 26.75 21.3897 26.671 21.5303 26.5303C21.671 26.3897 21.75 26.1989 21.75 26C21.75 25.8011 21.671 25.6103 21.5303 25.4697C21.3897 25.329 21.1989 25.25 21 25.25H10.81L23.53 12.53C23.6625 12.3878 23.7346 12.1998 23.7312 12.0055C23.7277 11.8112 23.649 11.6258 23.5116 11.4884C23.3742 11.351 23.1888 11.2723 22.9945 11.2688C22.8002 11.2654 22.6122 11.3375 22.47 11.47Z" fill="white"/>
</svg>
