<svg width="32" height="32" viewBox="0 0 32 32" fill="none" xmlns="http://www.w3.org/2000/svg">
<path d="M27.53 10.53L21.53 16.53C21.3878 16.6625 21.1998 16.7346 21.0055 16.7312C20.8112 16.7278 20.6258 16.6491 20.4884 16.5117C20.351 16.3742 20.2723 16.1889 20.2688 15.9946C20.2654 15.8003 20.3375 15.6122 20.47 15.47L25.1887 10.75H9.75V28C9.75 28.1989 9.67098 28.3897 9.53033 28.5304C9.38968 28.671 9.19891 28.75 9 28.75C8.80109 28.75 8.61032 28.671 8.46967 28.5304C8.32902 28.3897 8.25 28.1989 8.25 28V10C8.25 9.80112 8.32902 9.61035 8.46967 9.4697C8.61032 9.32905 8.80109 9.25003 9 9.25003H25.1887L20.47 4.53003C20.3375 4.38785 20.2654 4.19981 20.2688 4.00551C20.2723 3.81121 20.351 3.62582 20.4884 3.48841C20.6258 3.35099 20.8112 3.27228 21.0055 3.26885C21.1998 3.26543 21.3878 3.33755 21.53 3.47003L27.53 9.47003C27.6705 9.61066 27.7493 9.80128 27.7493 10C27.7493 10.1988 27.6705 10.3894 27.53 10.53Z" fill="white"/>
</svg>
