<svg width="32" height="32" viewBox="0 0 32 32" fill="none" xmlns="http://www.w3.org/2000/svg">
<path d="M24.75 4V22C24.75 22.1989 24.671 22.3897 24.5303 22.5303C24.3897 22.671 24.1989 22.75 24 22.75H7.81125L12.53 27.47C12.6037 27.5387 12.6628 27.6215 12.7038 27.7135C12.7448 27.8055 12.7668 27.9048 12.7686 28.0055C12.7704 28.1062 12.7518 28.2062 12.7141 28.2996C12.6764 28.393 12.6203 28.4778 12.549 28.549C12.4778 28.6203 12.393 28.6764 12.2996 28.7141C12.2062 28.7518 12.1062 28.7704 12.0055 28.7686C11.9048 28.7668 11.8055 28.7448 11.7135 28.7038C11.6215 28.6628 11.5387 28.6037 11.47 28.53L5.47 22.53C5.32955 22.3894 5.25066 22.1988 5.25066 22C5.25066 21.8012 5.32955 21.6106 5.47 21.47L11.47 15.47C11.5387 15.3963 11.6215 15.3372 11.7135 15.2962C11.8055 15.2552 11.9048 15.2332 12.0055 15.2314C12.1062 15.2296 12.2062 15.2482 12.2996 15.2859C12.393 15.3236 12.4778 15.3797 12.549 15.451C12.6203 15.5222 12.6764 15.607 12.7141 15.7004C12.7518 15.7938 12.7704 15.8938 12.7686 15.9945C12.7668 16.0952 12.7448 16.1945 12.7038 16.2865C12.6628 16.3785 12.6037 16.4613 12.53 16.53L7.81125 21.25H23.25V4C23.25 3.80109 23.329 3.61032 23.4697 3.46967C23.6103 3.32902 23.8011 3.25 24 3.25C24.1989 3.25 24.3897 3.32902 24.5303 3.46967C24.671 3.61032 24.75 3.80109 24.75 4Z" fill="white"/>
</svg>
