<svg width="32" height="32" viewBox="0 0 32 32" fill="none" xmlns="http://www.w3.org/2000/svg">
<path d="M25.53 18.53L16.53 27.53C16.3894 27.6705 16.1987 27.7493 16 27.7493C15.8012 27.7493 15.6106 27.6705 15.47 27.53L6.47 18.53C6.33752 18.3878 6.2654 18.1998 6.26882 18.0055C6.27225 17.8112 6.35096 17.6258 6.48838 17.4884C6.62579 17.351 6.81118 17.2723 7.00548 17.2688C7.19978 17.2654 7.38782 17.3375 7.53 17.47L15.25 25.1887V5C15.25 4.80109 15.329 4.61032 15.4697 4.46967C15.6103 4.32902 15.8011 4.25 16 4.25C16.1989 4.25 16.3897 4.32902 16.5303 4.46967C16.671 4.61032 16.75 4.80109 16.75 5V25.1887L24.47 17.47C24.6122 17.3375 24.8002 17.2654 24.9945 17.2688C25.1888 17.2723 25.3742 17.351 25.5116 17.4884C25.649 17.6258 25.7277 17.8112 25.7312 18.0055C25.7346 18.1998 25.6625 18.3878 25.53 18.53Z" fill="white"/>
</svg>
