<svg width="32" height="32" viewBox="0 0 32 32" fill="none" xmlns="http://www.w3.org/2000/svg">
<path d="M25.75 4C25.75 4.19891 25.671 4.38968 25.5303 4.53033C25.3897 4.67098 25.1989 4.75 25 4.75C22.0173 4.75331 19.1578 5.93964 17.0487 8.0487C14.9396 10.1578 13.7533 13.0173 13.75 16V26.1887L18.47 21.47C18.6122 21.3375 18.8002 21.2654 18.9945 21.2688C19.1888 21.2723 19.3742 21.351 19.5116 21.4884C19.649 21.6258 19.7277 21.8112 19.7312 22.0055C19.7346 22.1998 19.6625 22.3878 19.53 22.53L13.53 28.53C13.3894 28.6705 13.1987 28.7493 13 28.7493C12.8012 28.7493 12.6106 28.6705 12.47 28.53L6.47 22.53C6.33752 22.3878 6.2654 22.1998 6.26882 22.0055C6.27225 21.8112 6.35096 21.6258 6.48838 21.4884C6.62579 21.351 6.81118 21.2723 7.00548 21.2688C7.19978 21.2654 7.38782 21.3375 7.53 21.47L12.25 26.1887V16C12.254 12.6197 13.5985 9.379 15.9888 6.98877C18.379 4.59854 21.6197 3.25397 25 3.25C25.1989 3.25 25.3897 3.32902 25.5303 3.46967C25.671 3.61032 25.75 3.80109 25.75 4Z" fill="white"/>
</svg>
