<svg width="32" height="32" viewBox="0 0 32 32" fill="none" xmlns="http://www.w3.org/2000/svg">
<path d="M29.75 10V19C29.75 19.1989 29.671 19.3897 29.5303 19.5303C29.3897 19.671 29.1989 19.75 29 19.75C28.8011 19.75 28.6103 19.671 28.4697 19.5303C28.329 19.3897 28.25 19.1989 28.25 19V11.81L15.53 24.53C15.3894 24.6705 15.1987 24.7493 15 24.7493C14.8012 24.7493 14.6106 24.6705 14.47 24.53L2.47 12.53C2.33752 12.3878 2.2654 12.1998 2.26882 12.0055C2.27225 11.8112 2.35096 11.6258 2.48838 11.4884C2.62579 11.351 2.81118 11.2723 3.00548 11.2688C3.19978 11.2654 3.38782 11.3375 3.53 11.47L15 22.9387L27.19 10.75H20C19.8011 10.75 19.6103 10.671 19.4697 10.5303C19.329 10.3897 19.25 10.1989 19.25 10C19.25 9.80109 19.329 9.61032 19.4697 9.46967C19.6103 9.32902 19.8011 9.25 20 9.25H29C29.1989 9.25 29.3897 9.32902 29.5303 9.46967C29.671 9.61032 29.75 9.80109 29.75 10Z" fill="white"/>
</svg>
