<svg width="32" height="32" viewBox="0 0 32 32" fill="none" xmlns="http://www.w3.org/2000/svg">
<path d="M28.53 14.47L16.53 2.47001C16.3894 2.32956 16.1988 2.25067 16 2.25067C15.8013 2.25067 15.6106 2.32956 15.47 2.47001L3.47001 14.47C3.36526 14.5749 3.29393 14.7085 3.26505 14.8539C3.23616 14.9993 3.25101 15.15 3.30773 15.2869C3.36444 15.4239 3.46046 15.541 3.58368 15.6234C3.7069 15.7058 3.85177 15.7499 4.00001 15.75H9.25001V26C9.25001 26.4641 9.43439 26.9093 9.76257 27.2374C10.0908 27.5656 10.5359 27.75 11 27.75H21C21.4641 27.75 21.9093 27.5656 22.2374 27.2374C22.5656 26.9093 22.75 26.4641 22.75 26V15.75H28C28.1483 15.7499 28.2931 15.7058 28.4163 15.6234C28.5396 15.541 28.6356 15.4239 28.6923 15.2869C28.749 15.15 28.7639 14.9993 28.735 14.8539C28.7061 14.7085 28.6348 14.5749 28.53 14.47ZM22 14.25C21.8011 14.25 21.6103 14.329 21.4697 14.4697C21.329 14.6103 21.25 14.8011 21.25 15V26C21.25 26.0663 21.2237 26.1299 21.1768 26.1768C21.1299 26.2237 21.0663 26.25 21 26.25H11C10.9337 26.25 10.8701 26.2237 10.8232 26.1768C10.7764 26.1299 10.75 26.0663 10.75 26V15C10.75 14.8011 10.671 14.6103 10.5303 14.4697C10.3897 14.329 10.1989 14.25 10 14.25H5.81126L16 4.06126L26.1888 14.25H22Z" fill="white"/>
</svg>
