<svg width="32" height="32" viewBox="0 0 32 32" fill="none" xmlns="http://www.w3.org/2000/svg">
<path d="M29.75 24C29.75 24.1989 29.671 24.3897 29.5303 24.5303C29.3897 24.671 29.1989 24.75 29 24.75H11C10.8011 24.75 10.6103 24.671 10.4697 24.5303C10.329 24.3897 10.25 24.1989 10.25 24V7.81126L5.53 12.53C5.38782 12.6625 5.19978 12.7346 5.00548 12.7312C4.81118 12.7278 4.62579 12.649 4.48838 12.5116C4.35096 12.3742 4.27225 12.1888 4.26882 11.9945C4.2654 11.8002 4.33752 11.6122 4.47 11.47L10.47 5.47001C10.6106 5.32956 10.8012 5.25067 11 5.25067C11.1987 5.25067 11.3894 5.32956 11.53 5.47001L17.53 11.47C17.6037 11.5387 17.6628 11.6215 17.7038 11.7135C17.7448 11.8055 17.7668 11.9048 17.7686 12.0055C17.7704 12.1062 17.7518 12.2062 17.7141 12.2996C17.6764 12.393 17.6203 12.4778 17.549 12.549C17.4778 12.6203 17.393 12.6764 17.2996 12.7141C17.2062 12.7519 17.1062 12.7704 17.0055 12.7686C16.9048 12.7668 16.8055 12.7448 16.7135 12.7038C16.6215 12.6628 16.5387 12.6037 16.47 12.53L11.75 7.81126V23.25H29C29.1989 23.25 29.3897 23.329 29.5303 23.4697C29.671 23.6103 29.75 23.8011 29.75 24Z" fill="white"/>
</svg>
