<svg width="32" height="32" viewBox="0 0 32 32" fill="none" xmlns="http://www.w3.org/2000/svg">
<path d="M24.75 11V24C24.75 24.1989 24.671 24.3897 24.5303 24.5304C24.3897 24.671 24.1989 24.75 24 24.75H11C10.8011 24.75 10.6103 24.671 10.4697 24.5304C10.329 24.3897 10.25 24.1989 10.25 24C10.25 23.8011 10.329 23.6104 10.4697 23.4697C10.6103 23.329 10.8011 23.25 11 23.25H22.19L7.47 8.53003C7.33752 8.38785 7.2654 8.19981 7.26882 8.00551C7.27225 7.81121 7.35096 7.62582 7.48838 7.48841C7.62579 7.35099 7.81118 7.27228 8.00548 7.26885C8.19978 7.26543 8.38782 7.33755 8.53 7.47003L23.25 22.19V11C23.25 10.8011 23.329 10.6104 23.4697 10.4697C23.6103 10.329 23.8011 10.25 24 10.25C24.1989 10.25 24.3897 10.329 24.5303 10.4697C24.671 10.6104 24.75 10.8011 24.75 11Z" fill="white"/>
</svg>
