<svg width="32" height="32" viewBox="0 0 32 32" fill="none" xmlns="http://www.w3.org/2000/svg">
<path d="M25.53 14.53C25.3894 14.6705 25.1988 14.7494 25 14.7494C24.8012 14.7494 24.6106 14.6705 24.47 14.53L16.75 6.81126V27C16.75 27.1989 16.671 27.3897 16.5303 27.5303C16.3897 27.671 16.1989 27.75 16 27.75C15.8011 27.75 15.6103 27.671 15.4697 27.5303C15.329 27.3897 15.25 27.1989 15.25 27V6.81126L7.53 14.53C7.38782 14.6625 7.19978 14.7346 7.00548 14.7312C6.81118 14.7278 6.62579 14.649 6.48838 14.5116C6.35096 14.3742 6.27225 14.1888 6.26882 13.9945C6.2654 13.8002 6.33752 13.6122 6.47 13.47L15.47 4.47001C15.6106 4.32956 15.8012 4.25067 16 4.25067C16.1987 4.25067 16.3894 4.32956 16.53 4.47001L25.53 13.47C25.6705 13.6106 25.7493 13.8013 25.7493 14C25.7493 14.1988 25.6705 14.3894 25.53 14.53Z" fill="white"/>
</svg>
