<svg width="32" height="32" viewBox="0 0 32 32" fill="none" xmlns="http://www.w3.org/2000/svg">
<path d="M20.53 24.4699C20.6704 24.6106 20.7493 24.8012 20.7493 25C20.7493 25.1987 20.6704 25.3893 20.53 25.53L16.53 29.53C16.3893 29.6704 16.1987 29.7493 16 29.7493C15.8012 29.7493 15.6106 29.6704 15.47 29.53L11.47 25.53C11.3375 25.3878 11.2654 25.1997 11.2688 25.0054C11.2722 24.8111 11.3509 24.6257 11.4883 24.4883C11.6258 24.3509 11.8111 24.2722 12.0054 24.2688C12.1997 24.2653 12.3878 24.3375 12.53 24.4699L15.25 27.1887V4.8137L12.53 7.52995C12.3878 7.66243 12.1997 7.73455 12.0054 7.73113C11.8111 7.7277 11.6258 7.64899 11.4883 7.51157C11.3509 7.37416 11.2722 7.18877 11.2688 6.99447C11.2654 6.80017 11.3375 6.61213 11.47 6.46995L15.47 2.46995C15.6106 2.3295 15.8012 2.25061 16 2.25061C16.1987 2.25061 16.3893 2.3295 16.53 2.46995L20.53 6.46995C20.6037 6.53861 20.6628 6.62141 20.7038 6.71341C20.7447 6.80541 20.7668 6.90473 20.7686 7.00543C20.7703 7.10613 20.7518 7.20616 20.7141 7.29955C20.6764 7.39294 20.6202 7.47777 20.549 7.54899C20.4778 7.62021 20.393 7.67635 20.2996 7.71407C20.2062 7.75179 20.1062 7.77032 20.0054 7.76854C19.9047 7.76677 19.8054 7.74472 19.7134 7.70373C19.6214 7.66274 19.5386 7.60364 19.47 7.52995L16.75 4.8112V27.1862L19.47 24.4675C19.6109 24.3273 19.8017 24.2489 20.0005 24.2494C20.1992 24.2498 20.3897 24.3292 20.53 24.4699Z" fill="white"/>
</svg>
