<svg width="32" height="32" viewBox="0 0 32 32" fill="none" xmlns="http://www.w3.org/2000/svg">
<path d="M11.47 7.52995C11.3295 7.38933 11.2507 7.1987 11.2507 6.99995C11.2507 6.8012 11.3295 6.61058 11.47 6.46995L15.47 2.46995C15.6106 2.3295 15.8012 2.25061 16 2.25061C16.1987 2.25061 16.3894 2.3295 16.53 2.46995L20.53 6.46995C20.6037 6.53861 20.6628 6.62141 20.7038 6.71341C20.7448 6.80541 20.7668 6.90473 20.7686 7.00543C20.7704 7.10613 20.7518 7.20616 20.7141 7.29955C20.6764 7.39294 20.6203 7.47777 20.549 7.54899C20.4778 7.62021 20.393 7.67635 20.2996 7.71407C20.2062 7.75179 20.1062 7.77032 20.0055 7.76854C19.9048 7.76677 19.8055 7.74472 19.7135 7.70373C19.6215 7.66274 19.5387 7.60364 19.47 7.52995L16.75 4.8112V12C16.75 12.1989 16.671 12.3896 16.5303 12.5303C16.3897 12.6709 16.1989 12.75 16 12.75C15.8011 12.75 15.6103 12.6709 15.4697 12.5303C15.329 12.3896 15.25 12.1989 15.25 12V4.8112L12.53 7.52995C12.3894 7.6704 12.1987 7.74929 12 7.74929C11.8012 7.74929 11.6106 7.6704 11.47 7.52995ZM19.47 24.4699L16.75 27.1887V20C16.75 19.801 16.671 19.6103 16.5303 19.4696C16.3897 19.329 16.1989 19.25 16 19.25C15.8011 19.25 15.6103 19.329 15.4697 19.4696C15.329 19.6103 15.25 19.801 15.25 20V27.1887L12.53 24.4699C12.3878 24.3375 12.1998 24.2653 12.0055 24.2688C11.8112 24.2722 11.6258 24.3509 11.4884 24.4883C11.351 24.6257 11.2722 24.8111 11.2688 25.0054C11.2654 25.1997 11.3375 25.3878 11.47 25.53L15.47 29.53C15.6106 29.6704 15.8012 29.7493 16 29.7493C16.1987 29.7493 16.3894 29.6704 16.53 29.53L20.53 25.53C20.6625 25.3878 20.7346 25.1997 20.7312 25.0054C20.7277 24.8111 20.649 24.6257 20.5116 24.4883C20.3742 24.3509 20.1888 24.2722 19.9945 24.2688C19.8002 24.2653 19.6122 24.3375 19.47 24.4699ZM29.53 15.47L25.53 11.47C25.3878 11.3375 25.1998 11.2653 25.0055 11.2688C24.8112 11.2722 24.6258 11.3509 24.4884 11.4883C24.351 11.6257 24.2722 11.8111 24.2688 12.0054C24.2654 12.1997 24.3375 12.3878 24.47 12.53L27.1887 15.25H20C19.8011 15.25 19.6103 15.329 19.4697 15.4696C19.329 15.6103 19.25 15.801 19.25 16C19.25 16.1989 19.329 16.3896 19.4697 16.5303C19.6103 16.6709 19.8011 16.75 20 16.75H27.1887L24.47 19.4699C24.3963 19.5386 24.3372 19.6214 24.2962 19.7134C24.2552 19.8054 24.2332 19.9047 24.2314 20.0054C24.2296 20.1061 24.2482 20.2062 24.2859 20.2995C24.3236 20.3929 24.3797 20.4778 24.451 20.549C24.5222 20.6202 24.607 20.6764 24.7004 20.7141C24.7938 20.7518 24.8938 20.7703 24.9945 20.7685C25.0952 20.7668 25.1945 20.7447 25.2865 20.7037C25.3785 20.6627 25.4613 20.6036 25.53 20.53L29.53 16.53C29.6704 16.3893 29.7493 16.1987 29.7493 16C29.7493 15.8012 29.6704 15.6106 29.53 15.47ZM4.81125 16.75H12C12.1989 16.75 12.3897 16.6709 12.5303 16.5303C12.671 16.3896 12.75 16.1989 12.75 16C12.75 15.801 12.671 15.6103 12.5303 15.4696C12.3897 15.329 12.1989 15.25 12 15.25H4.81125L7.53 12.53C7.66248 12.3878 7.7346 12.1997 7.73117 12.0054C7.72774 11.8111 7.64903 11.6257 7.51162 11.4883C7.37421 11.3509 7.18882 11.2722 6.99452 11.2688C6.80022 11.2653 6.61217 11.3375 6.47 11.47L2.47 15.47C2.32955 15.6106 2.25066 15.8012 2.25066 16C2.25066 16.1987 2.32955 16.3893 2.47 16.53L6.47 20.53C6.61217 20.6624 6.80022 20.7346 6.99452 20.7311C7.18882 20.7277 7.37421 20.649 7.51162 20.5116C7.64903 20.3742 7.72774 20.1888 7.73117 19.9945C7.7346 19.8002 7.66248 19.6121 7.53 19.4699L4.81125 16.75Z" fill="white"/>
</svg>
