<svg width="32" height="32" viewBox="0 0 32 32" fill="none" xmlns="http://www.w3.org/2000/svg">
<path d="M14.53 21.47C14.6704 21.6106 14.7493 21.8012 14.7493 22C14.7493 22.1988 14.6704 22.3894 14.53 22.53L10.53 26.53C10.3894 26.6705 10.1987 26.7493 10 26.7493C9.80125 26.7493 9.61062 26.6705 9.47 26.53L5.47 22.53C5.33752 22.3878 5.2654 22.1998 5.26882 22.0055C5.27225 21.8112 5.35096 21.6258 5.48838 21.4884C5.62579 21.351 5.81118 21.2723 6.00548 21.2688C6.19978 21.2654 6.38782 21.3375 6.53 21.47L9.25 24.1887V6C9.25 5.80109 9.32902 5.61032 9.46967 5.46967C9.61032 5.32902 9.80109 5.25 10 5.25C10.1989 5.25 10.3897 5.32902 10.5303 5.46967C10.671 5.61032 10.75 5.80109 10.75 6V24.1887L13.47 21.47C13.6106 21.3295 13.8012 21.2507 14 21.2507C14.1987 21.2507 14.3894 21.3295 14.53 21.47ZM26.53 9.47L22.53 5.47C22.3894 5.32955 22.1988 5.25066 22 5.25066C21.8012 5.25066 21.6106 5.32955 21.47 5.47L17.47 9.47C17.3375 9.61217 17.2654 9.80022 17.2688 9.99452C17.2723 10.1888 17.351 10.3742 17.4884 10.5116C17.6258 10.649 17.8112 10.7277 18.0055 10.7312C18.1998 10.7346 18.3878 10.6625 18.53 10.53L21.25 7.81125V26C21.25 26.1989 21.329 26.3897 21.4697 26.5303C21.6103 26.671 21.8011 26.75 22 26.75C22.1989 26.75 22.3897 26.671 22.5303 26.5303C22.671 26.3897 22.75 26.1989 22.75 26V7.81125L25.47 10.53C25.6122 10.6625 25.8002 10.7346 25.9945 10.7312C26.1888 10.7277 26.3742 10.649 26.5116 10.5116C26.649 10.3742 26.7277 10.1888 26.7312 9.99452C26.7346 9.80022 26.6625 9.61217 26.53 9.47Z" fill="white"/>
</svg>
