<svg width="32" height="32" viewBox="0 0 32 32" fill="none" xmlns="http://www.w3.org/2000/svg">
<path d="M25.75 10V21C25.75 23.0554 24.9335 25.0267 23.4801 26.4801C22.0267 27.9335 20.0554 28.75 18 28.75C15.9446 28.75 13.9733 27.9335 12.5199 26.4801C11.0665 25.0267 10.25 23.0554 10.25 21V5.81126L5.53 10.53C5.38782 10.6625 5.19978 10.7346 5.00548 10.7312C4.81118 10.7278 4.62579 10.649 4.48838 10.5116C4.35096 10.3742 4.27225 10.1888 4.26882 9.99453C4.2654 9.80023 4.33752 9.61219 4.47 9.47001L10.47 3.47001C10.6106 3.32956 10.8012 3.25067 11 3.25067C11.1987 3.25067 11.3894 3.32956 11.53 3.47001L17.53 9.47001C17.6037 9.53867 17.6628 9.62147 17.7038 9.71347C17.7448 9.80547 17.7668 9.90479 17.7686 10.0055C17.7704 10.1062 17.7518 10.2062 17.7141 10.2996C17.6764 10.393 17.6203 10.4778 17.549 10.549C17.4778 10.6203 17.393 10.6764 17.2996 10.7141C17.2062 10.7519 17.1062 10.7704 17.0055 10.7686C16.9048 10.7668 16.8055 10.7448 16.7135 10.7038C16.6215 10.6628 16.5387 10.6037 16.47 10.53L11.75 5.81126V21C11.75 22.6576 12.4085 24.2473 13.5806 25.4194C14.7527 26.5915 16.3424 27.25 18 27.25C19.6576 27.25 21.2473 26.5915 22.4194 25.4194C23.5915 24.2473 24.25 22.6576 24.25 21V10C24.25 9.8011 24.329 9.61033 24.4697 9.46968C24.6103 9.32903 24.8011 9.25001 25 9.25001C25.1989 9.25001 25.3897 9.32903 25.5303 9.46968C25.671 9.61033 25.75 9.8011 25.75 10Z" fill="white"/>
</svg>
