<svg width="32" height="32" viewBox="0 0 32 32" fill="none" xmlns="http://www.w3.org/2000/svg">
<path d="M25.75 28C25.75 28.1989 25.671 28.3897 25.5304 28.5303C25.3897 28.671 25.1989 28.75 25 28.75C21.6197 28.746 18.379 27.4015 15.9888 25.0112C13.5986 22.621 12.254 19.3803 12.25 16V5.81126L7.53003 10.53C7.38785 10.6625 7.19981 10.7346 7.00551 10.7312C6.81121 10.7278 6.62582 10.649 6.48841 10.5116C6.35099 10.3742 6.27228 10.1888 6.26885 9.99453C6.26543 9.80023 6.33755 9.61219 6.47003 9.47001L12.47 3.47001C12.6107 3.32956 12.8013 3.25067 13 3.25067C13.1988 3.25067 13.3894 3.32956 13.53 3.47001L19.53 9.47001C19.6037 9.53867 19.6628 9.62147 19.7038 9.71347C19.7448 9.80547 19.7668 9.90479 19.7686 10.0055C19.7704 10.1062 19.7519 10.2062 19.7142 10.2996C19.6764 10.393 19.6203 10.4778 19.5491 10.549C19.4778 10.6203 19.393 10.6764 19.2996 10.7141C19.2062 10.7519 19.1062 10.7704 19.0055 10.7686C18.9048 10.7668 18.8055 10.7448 18.7135 10.7038C18.6215 10.6628 18.5387 10.6037 18.47 10.53L13.75 5.81126V16C13.7533 18.9827 14.9397 21.8422 17.0487 23.9513C19.1578 26.0604 22.0174 27.2467 25 27.25C25.1989 27.25 25.3897 27.329 25.5304 27.4697C25.671 27.6103 25.75 27.8011 25.75 28Z" fill="white"/>
</svg>
