<svg width="32" height="32" viewBox="0 0 32 32" fill="none" xmlns="http://www.w3.org/2000/svg">
<path d="M28.6925 16.7125C28.6357 16.5756 28.5396 16.4586 28.4163 16.3763C28.2931 16.294 28.1482 16.25 28 16.25H22.75V13C22.75 12.8011 22.671 12.6103 22.5303 12.4697C22.3897 12.329 22.1989 12.25 22 12.25H10C9.80108 12.25 9.61032 12.329 9.46967 12.4697C9.32901 12.6103 9.25 12.8011 9.25 13V16.25H4C3.85176 16.2501 3.70688 16.2942 3.58366 16.3766C3.46045 16.459 3.36442 16.5761 3.30771 16.7131C3.251 16.85 3.23615 17.0007 3.26503 17.1461C3.29392 17.2915 3.36524 17.4251 3.47 17.53L15.47 29.53C15.6106 29.6705 15.8012 29.7493 16 29.7493C16.1987 29.7493 16.3894 29.6705 16.53 29.53L28.53 17.53C28.6349 17.4251 28.7063 17.2914 28.7353 17.1459C28.7642 17.0004 28.7493 16.8496 28.6925 16.7125ZM16 27.9387L5.81125 17.75H10C10.1989 17.75 10.3897 17.671 10.5303 17.5303C10.671 17.3897 10.75 17.1989 10.75 17V13.75H21.25V17C21.25 17.1989 21.329 17.3897 21.4697 17.5303C21.6103 17.671 21.8011 17.75 22 17.75H26.1887L16 27.9387ZM9.25 5C9.25 4.80109 9.32901 4.61032 9.46967 4.46967C9.61032 4.32902 9.80108 4.25 10 4.25H22C22.1989 4.25 22.3897 4.32902 22.5303 4.46967C22.671 4.61032 22.75 4.80109 22.75 5C22.75 5.19891 22.671 5.38968 22.5303 5.53033C22.3897 5.67098 22.1989 5.75 22 5.75H10C9.80108 5.75 9.61032 5.67098 9.46967 5.53033C9.32901 5.38968 9.25 5.19891 9.25 5ZM9.25 9C9.25 8.80109 9.32901 8.61032 9.46967 8.46967C9.61032 8.32902 9.80108 8.25 10 8.25H22C22.1989 8.25 22.3897 8.32902 22.5303 8.46967C22.671 8.61032 22.75 8.80109 22.75 9C22.75 9.19891 22.671 9.38968 22.5303 9.53033C22.3897 9.67098 22.1989 9.75 22 9.75H10C9.80108 9.75 9.61032 9.67098 9.46967 9.53033C9.32901 9.38968 9.25 9.19891 9.25 9Z" fill="white"/>
</svg>
