<svg width="32" height="32" viewBox="0 0 32 32" fill="none" xmlns="http://www.w3.org/2000/svg">
<path d="M28.75 26C28.75 26.1989 28.671 26.3897 28.5303 26.5303C28.3897 26.671 28.1989 26.75 28 26.75H6C5.80109 26.75 5.61032 26.671 5.46967 26.5303C5.32902 26.3897 5.25 26.1989 5.25 26C5.25 25.8011 5.32902 25.6103 5.46967 25.4697C5.61032 25.329 5.80109 25.25 6 25.25H28C28.1989 25.25 28.3897 25.329 28.5303 25.4697C28.671 25.6103 28.75 25.8011 28.75 26ZM9 18.75C9.19891 18.75 9.38968 18.671 9.53033 18.5303C9.67098 18.3897 9.75 18.1989 9.75 18V7.81125L22.47 20.53C22.6122 20.6625 22.8002 20.7346 22.9945 20.7312C23.1888 20.7277 23.3742 20.649 23.5116 20.5116C23.649 20.3742 23.7277 20.1888 23.7312 19.9945C23.7346 19.8002 23.6625 19.6122 23.53 19.47L10.8112 6.75H21C21.1989 6.75 21.3897 6.67098 21.5303 6.53033C21.671 6.38968 21.75 6.19891 21.75 6C21.75 5.80109 21.671 5.61032 21.5303 5.46967C21.3897 5.32902 21.1989 5.25 21 5.25H9C8.80109 5.25 8.61032 5.32902 8.46967 5.46967C8.32902 5.61032 8.25 5.80109 8.25 6V18C8.25 18.1989 8.32902 18.3897 8.46967 18.5303C8.61032 18.671 8.80109 18.75 9 18.75Z" fill="white"/>
</svg>
