<svg width="32" height="32" viewBox="0 0 32 32" fill="none" xmlns="http://www.w3.org/2000/svg">
<path d="M28.75 14C28.7477 16.0547 27.9304 18.0246 26.4775 19.4775C25.0246 20.9304 23.0547 21.7477 21 21.75H5.81126L10.53 26.47C10.6037 26.5387 10.6628 26.6215 10.7038 26.7135C10.7448 26.8055 10.7668 26.9048 10.7686 27.0055C10.7704 27.1062 10.7519 27.2062 10.7141 27.2996C10.6764 27.393 10.6203 27.4778 10.549 27.549C10.4778 27.6203 10.393 27.6764 10.2996 27.7141C10.2062 27.7518 10.1062 27.7704 10.0055 27.7686C9.90479 27.7668 9.80547 27.7448 9.71347 27.7038C9.62147 27.6628 9.53867 27.6037 9.47001 27.53L3.47001 21.53C3.32956 21.3894 3.25067 21.1988 3.25067 21C3.25067 20.8012 3.32956 20.6106 3.47001 20.47L9.47001 14.47C9.61219 14.3375 9.80023 14.2654 9.99453 14.2688C10.1888 14.2723 10.3742 14.351 10.5116 14.4884C10.649 14.6258 10.7278 14.8112 10.7312 15.0055C10.7346 15.1998 10.6625 15.3878 10.53 15.53L5.81126 20.25H21C22.6576 20.25 24.2473 19.5915 25.4194 18.4194C26.5915 17.2473 27.25 15.6576 27.25 14C27.25 12.3424 26.5915 10.7527 25.4194 9.58058C24.2473 8.40848 22.6576 7.75 21 7.75H10C9.8011 7.75 9.61033 7.67098 9.46968 7.53033C9.32903 7.38968 9.25001 7.19891 9.25001 7C9.25001 6.80109 9.32903 6.61032 9.46968 6.46967C9.61033 6.32902 9.8011 6.25 10 6.25H21C23.0547 6.25232 25.0246 7.06957 26.4775 8.52248C27.9304 9.97539 28.7477 11.9453 28.75 14Z" fill="white"/>
</svg>
