<svg width="32" height="32" viewBox="0 0 32 32" fill="none" xmlns="http://www.w3.org/2000/svg">
<path d="M28.53 23.53L24.53 27.53C24.3894 27.6705 24.1988 27.7493 24 27.7493C23.8012 27.7493 23.6106 27.6705 23.47 27.53L19.47 23.53C19.3375 23.3878 19.2654 23.1998 19.2688 23.0055C19.2723 22.8112 19.351 22.6258 19.4884 22.4884C19.6258 22.351 19.8112 22.2723 20.0055 22.2688C20.1998 22.2654 20.3878 22.3375 20.53 22.47L23.25 25.1887V17.3137L16 10.0638L8.75 17.3137V25.1887L11.47 22.47C11.6122 22.3375 11.8002 22.2654 11.9945 22.2688C12.1888 22.2723 12.3742 22.351 12.5116 22.4884C12.649 22.6258 12.7277 22.8112 12.7312 23.0055C12.7346 23.1998 12.6625 23.3878 12.53 23.53L8.53 27.53C8.38937 27.6705 8.19875 27.7493 8 27.7493C7.80125 27.7493 7.61062 27.6705 7.47 27.53L3.47 23.53C3.33752 23.3878 3.2654 23.1998 3.26882 23.0055C3.27225 22.8112 3.35096 22.6258 3.48838 22.4884C3.62579 22.351 3.81118 22.2723 4.00548 22.2688C4.19978 22.2654 4.38782 22.3375 4.53 22.47L7.25 25.1887V17C7.25017 16.8012 7.32931 16.6105 7.47 16.47L15.25 8.68875V3C15.25 2.80109 15.329 2.61032 15.4697 2.46967C15.6103 2.32902 15.8011 2.25 16 2.25C16.1989 2.25 16.3897 2.32902 16.5303 2.46967C16.671 2.61032 16.75 2.80109 16.75 3V8.68875L24.53 16.47C24.6707 16.6105 24.7498 16.8012 24.75 17V25.1887L27.47 22.47C27.6122 22.3375 27.8002 22.2654 27.9945 22.2688C28.1888 22.2723 28.3742 22.351 28.5116 22.4884C28.649 22.6258 28.7277 22.8112 28.7312 23.0055C28.7346 23.1998 28.6625 23.3878 28.53 23.53Z" fill="white"/>
</svg>
