<svg width="32" height="32" viewBox="0 0 32 32" fill="none" xmlns="http://www.w3.org/2000/svg">
<path d="M29.53 15.47L17.53 3.47001C17.4251 3.36526 17.2915 3.29393 17.1461 3.26505C17.0007 3.23616 16.85 3.25101 16.7131 3.30773C16.5761 3.36444 16.459 3.46046 16.3766 3.58368C16.2942 3.7069 16.2501 3.85177 16.25 4.00001V9.25001H13C12.8011 9.25001 12.6103 9.32903 12.4697 9.46968C12.329 9.61033 12.25 9.8011 12.25 10V22C12.25 22.1989 12.329 22.3897 12.4697 22.5303C12.6103 22.671 12.8011 22.75 13 22.75H16.25V28C16.2501 28.1483 16.2942 28.2931 16.3766 28.4163C16.459 28.5396 16.5761 28.6356 16.7131 28.6923C16.85 28.749 17.0007 28.7639 17.1461 28.735C17.2915 28.7061 17.4251 28.6348 17.53 28.53L29.53 16.53C29.6705 16.3894 29.7493 16.1988 29.7493 16C29.7493 15.8013 29.6705 15.6106 29.53 15.47ZM17.75 26.1888V22C17.75 21.8011 17.671 21.6103 17.5303 21.4697C17.3897 21.329 17.1989 21.25 17 21.25H13.75V10.75H17C17.1989 10.75 17.3897 10.671 17.5303 10.5303C17.671 10.3897 17.75 10.1989 17.75 10V5.81126L27.9387 16L17.75 26.1888ZM5.75 10V22C5.75 22.1989 5.67098 22.3897 5.53033 22.5303C5.38968 22.671 5.19891 22.75 5 22.75C4.80109 22.75 4.61032 22.671 4.46967 22.5303C4.32902 22.3897 4.25 22.1989 4.25 22V10C4.25 9.8011 4.32902 9.61033 4.46967 9.46968C4.61032 9.32903 4.80109 9.25001 5 9.25001C5.19891 9.25001 5.38968 9.32903 5.53033 9.46968C5.67098 9.61033 5.75 9.8011 5.75 10ZM9.75 10V22C9.75 22.1989 9.67098 22.3897 9.53033 22.5303C9.38968 22.671 9.19891 22.75 9 22.75C8.80109 22.75 8.61032 22.671 8.46967 22.5303C8.32902 22.3897 8.25 22.1989 8.25 22V10C8.25 9.8011 8.32902 9.61033 8.46967 9.46968C8.61032 9.32903 8.80109 9.25001 9 9.25001C9.19891 9.25001 9.38968 9.32903 9.53033 9.46968C9.67098 9.61033 9.75 9.8011 9.75 10Z" fill="white"/>
</svg>
