<svg width="32" height="32" viewBox="0 0 32 32" fill="none" xmlns="http://www.w3.org/2000/svg">
<path d="M16.75 5V27C16.75 27.1989 16.671 27.3897 16.5303 27.5303C16.3897 27.671 16.1989 27.75 16 27.75C15.8011 27.75 15.6103 27.671 15.4697 27.5303C15.329 27.3897 15.25 27.1989 15.25 27V5C15.25 4.80109 15.329 4.61032 15.4697 4.46967C15.6103 4.32902 15.8011 4.25 16 4.25C16.1989 4.25 16.3897 4.32902 16.5303 4.46967C16.671 4.61032 16.75 4.80109 16.75 5ZM12 15.25H3.81126L6.53001 12.53C6.66249 12.3878 6.73461 12.1998 6.73119 12.0055C6.72776 11.8112 6.64905 11.6258 6.51163 11.4884C6.37422 11.351 6.18884 11.2723 5.99453 11.2688C5.80023 11.2654 5.61219 11.3375 5.47001 11.47L1.47001 15.47C1.32956 15.6106 1.25067 15.8012 1.25067 16C1.25067 16.1988 1.32956 16.3894 1.47001 16.53L5.47001 20.53C5.61219 20.6625 5.80023 20.7346 5.99453 20.7312C6.18884 20.7277 6.37422 20.649 6.51163 20.5116C6.64905 20.3742 6.72776 20.1888 6.73119 19.9945C6.73461 19.8002 6.66249 19.6122 6.53001 19.47L3.81126 16.75H12C12.1989 16.75 12.3897 16.671 12.5303 16.5303C12.671 16.3897 12.75 16.1989 12.75 16C12.75 15.8011 12.671 15.6103 12.5303 15.4697C12.3897 15.329 12.1989 15.25 12 15.25ZM30.53 15.47L26.53 11.47C26.3878 11.3375 26.1998 11.2654 26.0055 11.2688C25.8112 11.2723 25.6258 11.351 25.4884 11.4884C25.351 11.6258 25.2723 11.8112 25.2688 12.0055C25.2654 12.1998 25.3375 12.3878 25.47 12.53L28.1888 15.25H20C19.8011 15.25 19.6103 15.329 19.4697 15.4697C19.329 15.6103 19.25 15.8011 19.25 16C19.25 16.1989 19.329 16.3897 19.4697 16.5303C19.6103 16.671 19.8011 16.75 20 16.75H28.1888L25.47 19.47C25.3963 19.5387 25.3372 19.6215 25.2962 19.7135C25.2552 19.8055 25.2332 19.9048 25.2314 20.0055C25.2296 20.1062 25.2482 20.2062 25.2859 20.2996C25.3236 20.393 25.3798 20.4778 25.451 20.549C25.5222 20.6203 25.607 20.6764 25.7004 20.7141C25.7938 20.7518 25.8938 20.7704 25.9945 20.7686C26.0952 20.7668 26.1946 20.7448 26.2866 20.7038C26.3785 20.6628 26.4613 20.6037 26.53 20.53L30.53 16.53C30.6705 16.3894 30.7494 16.1988 30.7494 16C30.7494 15.8012 30.6705 15.6106 30.53 15.47Z" fill="white"/>
</svg>
