<svg width="32" height="32" viewBox="0 0 32 32" fill="none" xmlns="http://www.w3.org/2000/svg">
<path d="M19 9.25001H15.75V4.00001C15.7499 3.85177 15.7058 3.7069 15.6234 3.58368C15.541 3.46046 15.4239 3.36444 15.2869 3.30773C15.15 3.25101 14.9993 3.23616 14.8539 3.26505C14.7085 3.29393 14.5749 3.36526 14.47 3.47001L2.47 15.47C2.32955 15.6106 2.25066 15.8013 2.25066 16C2.25066 16.1988 2.32955 16.3894 2.47 16.53L14.47 28.53C14.5749 28.6348 14.7085 28.7061 14.8539 28.735C14.9993 28.7639 15.15 28.749 15.2869 28.6923C15.4239 28.6356 15.541 28.5396 15.6234 28.4163C15.7058 28.2931 15.7499 28.1483 15.75 28V22.75H19C19.1989 22.75 19.3897 22.671 19.5303 22.5303C19.671 22.3897 19.75 22.1989 19.75 22V10C19.75 9.8011 19.671 9.61033 19.5303 9.46968C19.3897 9.32903 19.1989 9.25001 19 9.25001ZM18.25 21.25H15C14.8011 21.25 14.6103 21.329 14.4697 21.4697C14.329 21.6103 14.25 21.8011 14.25 22V26.1888L4.06125 16L14.25 5.81126V10C14.25 10.1989 14.329 10.3897 14.4697 10.5303C14.6103 10.671 14.8011 10.75 15 10.75H18.25V21.25ZM27.75 10V22C27.75 22.1989 27.671 22.3897 27.5303 22.5303C27.3897 22.671 27.1989 22.75 27 22.75C26.8011 22.75 26.6103 22.671 26.4697 22.5303C26.329 22.3897 26.25 22.1989 26.25 22V10C26.25 9.8011 26.329 9.61033 26.4697 9.46968C26.6103 9.32903 26.8011 9.25001 27 9.25001C27.1989 9.25001 27.3897 9.32903 27.5303 9.46968C27.671 9.61033 27.75 9.8011 27.75 10ZM23.75 10V22C23.75 22.1989 23.671 22.3897 23.5303 22.5303C23.3897 22.671 23.1989 22.75 23 22.75C22.8011 22.75 22.6103 22.671 22.4697 22.5303C22.329 22.3897 22.25 22.1989 22.25 22V10C22.25 9.8011 22.329 9.61033 22.4697 9.46968C22.6103 9.32903 22.8011 9.25001 23 9.25001C23.1989 9.25001 23.3897 9.32903 23.5303 9.46968C23.671 9.61033 23.75 9.8011 23.75 10Z" fill="white"/>
</svg>
