<svg width="32" height="32" viewBox="0 0 32 32" fill="none" xmlns="http://www.w3.org/2000/svg">
<path d="M29.53 16.53L25.53 20.53C25.3878 20.6624 25.1998 20.7346 25.0055 20.7311C24.8112 20.7277 24.6258 20.649 24.4884 20.5116C24.351 20.3742 24.2723 20.1888 24.2688 19.9945C24.2654 19.8002 24.3375 19.6121 24.47 19.47L27.1887 16.75H4.81375L7.5325 19.47C7.60618 19.5386 7.66529 19.6214 7.70628 19.7134C7.74727 19.8054 7.76931 19.9047 7.77109 20.0054C7.77287 20.1062 7.75434 20.2062 7.71662 20.2996C7.6789 20.393 7.62276 20.4778 7.55154 20.549C7.48032 20.6202 7.39548 20.6764 7.3021 20.7141C7.20871 20.7518 7.10868 20.7703 7.00798 20.7686C6.90727 20.7668 6.80796 20.7447 6.71596 20.7038C6.62396 20.6628 6.54116 20.6037 6.4725 20.53L2.4725 16.53C2.33205 16.3893 2.25316 16.1987 2.25316 16C2.25316 15.8012 2.33205 15.6106 2.4725 15.47L6.4725 11.47C6.61467 11.3375 6.80272 11.2654 6.99702 11.2688C7.19132 11.2722 7.37671 11.3509 7.51412 11.4883C7.65153 11.6258 7.73025 11.8111 7.73367 12.0054C7.7371 12.1997 7.66498 12.3878 7.5325 12.53L4.81125 15.25H27.1862L24.4675 12.53C24.335 12.3878 24.2629 12.1997 24.2663 12.0054C24.2698 11.8111 24.3485 11.6258 24.4859 11.4883C24.6233 11.3509 24.8087 11.2722 25.003 11.2688C25.1973 11.2654 25.3853 11.3375 25.5275 11.47L29.5275 15.47C29.6683 15.6103 29.7476 15.8007 29.7481 15.9995C29.7486 16.1982 29.6701 16.389 29.53 16.53Z" fill="white"/>
</svg>
