<svg width="32" height="32" viewBox="0 0 32 32" fill="none" xmlns="http://www.w3.org/2000/svg">
<path d="M26.53 6.53003L19.81 13.25H24C24.1989 13.25 24.3897 13.329 24.5303 13.4697C24.671 13.6104 24.75 13.8011 24.75 14C24.75 14.1989 24.671 14.3897 24.5303 14.5304C24.3897 14.671 24.1989 14.75 24 14.75H18C17.8011 14.75 17.6103 14.671 17.4697 14.5304C17.329 14.3897 17.25 14.1989 17.25 14V8.00003C17.25 7.80112 17.329 7.61035 17.4697 7.4697C17.6103 7.32905 17.8011 7.25003 18 7.25003C18.1989 7.25003 18.3897 7.32905 18.5303 7.4697C18.671 7.61035 18.75 7.80112 18.75 8.00003V12.19L25.47 5.47003C25.6122 5.33755 25.8002 5.26543 25.9945 5.26885C26.1888 5.27228 26.3742 5.35099 26.5116 5.48841C26.649 5.62582 26.7277 5.81121 26.7312 6.00551C26.7346 6.19981 26.6625 6.38785 26.53 6.53003ZM14 17.25H8C7.80109 17.25 7.61032 17.329 7.46967 17.4697C7.32902 17.6104 7.25 17.8011 7.25 18C7.25 18.1989 7.32902 18.3897 7.46967 18.5304C7.61032 18.671 7.80109 18.75 8 18.75H12.19L5.47 25.47C5.39631 25.5387 5.33721 25.6215 5.29622 25.7135C5.25523 25.8055 5.23319 25.9048 5.23141 26.0055C5.22963 26.1062 5.24816 26.2062 5.28588 26.2996C5.3236 26.393 5.37974 26.4778 5.45096 26.5491C5.52218 26.6203 5.60701 26.6764 5.7004 26.7142C5.79379 26.7519 5.89382 26.7704 5.99452 26.7686C6.09523 26.7668 6.19454 26.7448 6.28654 26.7038C6.37854 26.6628 6.46134 26.6037 6.53 26.53L13.25 19.81V24C13.25 24.1989 13.329 24.3897 13.4697 24.5304C13.6103 24.671 13.8011 24.75 14 24.75C14.1989 24.75 14.3897 24.671 14.5303 24.5304C14.671 24.3897 14.75 24.1989 14.75 24V18C14.75 17.8011 14.671 17.6104 14.5303 17.4697C14.3897 17.329 14.1989 17.25 14 17.25Z" fill="white"/>
</svg>
