<svg width="32" height="32" viewBox="0 0 32 32" fill="none" xmlns="http://www.w3.org/2000/svg">
<path d="M21.47 16.47L26.1887 11.75H11C9.3424 11.75 7.75269 12.4085 6.58058 13.5806C5.40848 14.7527 4.75 16.3424 4.75 18C4.75 19.6576 5.40848 21.2473 6.58058 22.4194C7.75269 23.5915 9.3424 24.25 11 24.25H22C22.1989 24.25 22.3897 24.329 22.5303 24.4697C22.671 24.6104 22.75 24.8011 22.75 25C22.75 25.1989 22.671 25.3897 22.5303 25.5304C22.3897 25.671 22.1989 25.75 22 25.75H11C8.94457 25.75 6.97333 24.9335 5.51992 23.4801C4.06652 22.0267 3.25 20.0555 3.25 18C3.25 15.9446 4.06652 13.9734 5.51992 12.52C6.97333 11.0665 8.94457 10.25 11 10.25H26.1887L21.47 5.53003C21.3375 5.38785 21.2654 5.19981 21.2688 5.00551C21.2723 4.81121 21.351 4.62582 21.4884 4.48841C21.6258 4.35099 21.8112 4.27228 22.0055 4.26885C22.1998 4.26543 22.3878 4.33755 22.53 4.47003L28.53 10.47C28.6705 10.6107 28.7493 10.8013 28.7493 11C28.7493 11.1988 28.6705 11.3894 28.53 11.53L22.53 17.53C22.3878 17.6625 22.1998 17.7346 22.0055 17.7312C21.8112 17.7278 21.6258 17.6491 21.4884 17.5117C21.351 17.3742 21.2723 17.1889 21.2688 16.9946C21.2654 16.8003 21.3375 16.6122 21.47 16.47Z" fill="white"/>
</svg>
