<svg width="32" height="32" viewBox="0 0 32 32" fill="none" xmlns="http://www.w3.org/2000/svg">
<path d="M16 12.25H29C29.1989 12.25 29.3897 12.329 29.5303 12.4697C29.671 12.6103 29.75 12.8011 29.75 13C29.75 13.1989 29.671 13.3897 29.5303 13.5303C29.3897 13.671 29.1989 13.75 29 13.75H16C15.8011 13.75 15.6103 13.671 15.4697 13.5303C15.329 13.3897 15.25 13.1989 15.25 13C15.25 12.8011 15.329 12.6103 15.4697 12.4697C15.6103 12.329 15.8011 12.25 16 12.25ZM29 16.25H16C15.8011 16.25 15.6103 16.329 15.4697 16.4697C15.329 16.6103 15.25 16.8011 15.25 17C15.25 17.1989 15.329 17.3897 15.4697 17.5303C15.6103 17.671 15.8011 17.75 16 17.75H29C29.1989 17.75 29.3897 17.671 29.5303 17.5303C29.671 17.3897 29.75 17.1989 29.75 17C29.75 16.8011 29.671 16.6103 29.5303 16.4697C29.3897 16.329 29.1989 16.25 29 16.25ZM29 20.25H10C9.80109 20.25 9.61032 20.329 9.46967 20.4697C9.32902 20.6103 9.25 20.8011 9.25 21C9.25 21.1989 9.32902 21.3897 9.46967 21.5303C9.61032 21.671 9.80109 21.75 10 21.75H29C29.1989 21.75 29.3897 21.671 29.5303 21.5303C29.671 21.3897 29.75 21.1989 29.75 21C29.75 20.8011 29.671 20.6103 29.5303 20.4697C29.3897 20.329 29.1989 20.25 29 20.25ZM29 24.25H10C9.80109 24.25 9.61032 24.329 9.46967 24.4697C9.32902 24.6103 9.25 24.8011 9.25 25C9.25 25.1989 9.32902 25.3897 9.46967 25.5303C9.61032 25.671 9.80109 25.75 10 25.75H29C29.1989 25.75 29.3897 25.671 29.5303 25.5303C29.671 25.3897 29.75 25.1989 29.75 25C29.75 24.8011 29.671 24.6103 29.5303 24.4697C29.3897 24.329 29.1989 24.25 29 24.25ZM12 17.75C12.1989 17.75 12.3897 17.671 12.5303 17.5303C12.671 17.3897 12.75 17.1989 12.75 17C12.75 16.8011 12.671 16.6103 12.5303 16.4697C12.3897 16.329 12.1989 16.25 12 16.25H10.75V7.75H15.25V9C15.25 9.19891 15.329 9.38968 15.4697 9.53033C15.6103 9.67098 15.8011 9.75 16 9.75C16.1989 9.75 16.3897 9.67098 16.5303 9.53033C16.671 9.38968 16.75 9.19891 16.75 9V7C16.75 6.80109 16.671 6.61032 16.5303 6.46967C16.3897 6.32902 16.1989 6.25 16 6.25H4C3.80109 6.25 3.61032 6.32902 3.46967 6.46967C3.32902 6.61032 3.25 6.80109 3.25 7V9C3.25 9.19891 3.32902 9.38968 3.46967 9.53033C3.61032 9.67098 3.80109 9.75 4 9.75C4.19891 9.75 4.38968 9.67098 4.53033 9.53033C4.67098 9.38968 4.75 9.19891 4.75 9V7.75H9.25V16.25H8C7.80109 16.25 7.61032 16.329 7.46967 16.4697C7.32902 16.6103 7.25 16.8011 7.25 17C7.25 17.1989 7.32902 17.3897 7.46967 17.5303C7.61032 17.671 7.80109 17.75 8 17.75H12Z" fill="white"/>
</svg>
