<svg width="32" height="32" viewBox="0 0 32 32" fill="none" xmlns="http://www.w3.org/2000/svg">
<path d="M26.75 9.875V10C26.75 11.2598 26.2496 12.468 25.3588 13.3588C24.468 14.2496 23.2598 14.75 22 14.75H16.75V25.25H18C18.4558 25.2501 18.9008 25.1118 19.2763 24.8533C19.6517 24.5949 19.9398 24.2286 20.1024 23.8028C20.265 23.377 20.2945 22.9119 20.1869 22.4689C20.0794 22.026 19.8398 21.6263 19.5 21.3225C19.424 21.2576 19.3618 21.1781 19.3169 21.0888C19.272 20.9995 19.2455 20.9021 19.2388 20.8024C19.2321 20.7027 19.2454 20.6026 19.278 20.5081C19.3105 20.4136 19.3616 20.3266 19.4282 20.2521C19.4949 20.1776 19.5757 20.1172 19.6661 20.0744C19.7564 20.0316 19.8544 20.0073 19.9542 20.003C20.0541 19.9986 20.1538 20.0142 20.2475 20.0489C20.3412 20.0836 20.4271 20.1367 20.5 20.205C21.066 20.7113 21.465 21.3776 21.6441 22.1156C21.8232 22.8536 21.774 23.6286 21.503 24.3381C21.2321 25.0476 20.752 25.658 20.1265 26.0887C19.501 26.5194 18.7594 26.75 18 26.75H16.75V29C16.75 29.1989 16.671 29.3897 16.5303 29.5303C16.3897 29.671 16.1989 29.75 16 29.75C15.8011 29.75 15.6103 29.671 15.4697 29.5303C15.329 29.3897 15.25 29.1989 15.25 29V26.75H12C11.8011 26.75 11.6103 26.671 11.4697 26.5303C11.329 26.3897 11.25 26.1989 11.25 26C11.25 25.8011 11.329 25.6103 11.4697 25.4697C11.6103 25.329 11.8011 25.25 12 25.25H15.25V14.75H12C11.4033 14.75 10.831 14.9871 10.409 15.409C9.98705 15.831 9.75 16.4033 9.75 17C9.75 17.5967 9.98705 18.169 10.409 18.591C10.831 19.0129 11.4033 19.25 12 19.25C12.1989 19.25 12.3897 19.329 12.5303 19.4697C12.671 19.6103 12.75 19.8011 12.75 20C12.75 20.1989 12.671 20.3897 12.5303 20.5303C12.3897 20.671 12.1989 20.75 12 20.75C11.0054 20.75 10.0516 20.3549 9.34835 19.6517C8.64509 18.9484 8.25 17.9946 8.25 17C8.25 16.0054 8.64509 15.0516 9.34835 14.3483C10.0516 13.6451 11.0054 13.25 12 13.25H15.25V3C15.25 2.80109 15.329 2.61032 15.4697 2.46967C15.6103 2.32902 15.8011 2.25 16 2.25C16.1989 2.25 16.3897 2.32902 16.5303 2.46967C16.671 2.61032 16.75 2.80109 16.75 3V13.25H22C22.4268 13.25 22.8494 13.1659 23.2437 13.0026C23.638 12.8393 23.9963 12.5999 24.2981 12.2981C24.5999 11.9963 24.8393 11.638 25.0026 11.2437C25.1659 10.8494 25.25 10.4268 25.25 10V9.875C25.25 9.0462 24.9208 8.25134 24.3347 7.66529C23.7487 7.07924 22.9538 6.75 22.125 6.75H20C19.8011 6.75 19.6103 6.67098 19.4697 6.53033C19.329 6.38968 19.25 6.19891 19.25 6C19.25 5.80109 19.329 5.61032 19.4697 5.46967C19.6103 5.32902 19.8011 5.25 20 5.25H22.125C23.3516 5.25 24.528 5.73728 25.3954 6.60463C26.2627 7.47199 26.75 8.64837 26.75 9.875ZM7 11.75H4C3.80109 11.75 3.61032 11.671 3.46967 11.5303C3.32902 11.3897 3.25 11.1989 3.25 11V10C3.25 8.74022 3.75045 7.53204 4.64124 6.64124C5.53204 5.75045 6.74022 5.25 8 5.25H12C12.1989 5.25 12.3897 5.32902 12.5303 5.46967C12.671 5.61032 12.75 5.80109 12.75 6C12.75 6.19891 12.671 6.38968 12.5303 6.53033C12.3897 6.67098 12.1989 6.75 12 6.75H11.75V7C11.75 8.25978 11.2496 9.46796 10.3588 10.3588C9.46796 11.2496 8.25978 11.75 7 11.75ZM10.25 6.75H8C7.13805 6.75 6.3114 7.09241 5.7019 7.7019C5.09241 8.3114 4.75 9.13805 4.75 10V10.25H7C7.86195 10.25 8.6886 9.90759 9.2981 9.2981C9.90759 8.6886 10.25 7.86195 10.25 7V6.75Z" fill="white"/>
</svg>
