<svg width="32" height="32" viewBox="0 0 32 32" fill="none" xmlns="http://www.w3.org/2000/svg">
<path d="M24.2286 15.9999C25.1961 14.6843 26.0294 13.2752 26.7161 11.7936C28.0586 8.80864 28.0911 6.46114 26.8161 5.18364C25.5411 3.90614 23.1911 3.94114 20.2061 5.28364C18.7246 5.97036 17.3154 6.80368 15.9999 7.77114C14.6843 6.80368 13.2752 5.97036 11.7936 5.28364C8.80864 3.94114 6.46114 3.90864 5.18364 5.18364C3.90614 6.45864 3.94114 8.80864 5.28364 11.7936C5.97036 13.2752 6.80368 14.6843 7.77114 15.9999C6.80368 17.3154 5.97036 18.7246 5.28364 20.2061C3.94114 23.1911 3.90864 25.5386 5.18364 26.8161C5.80864 27.4411 6.68364 27.7499 7.76239 27.7499C8.89989 27.7499 10.2624 27.4049 11.7936 26.7161C13.2752 26.0294 14.6843 25.1961 15.9999 24.2286C17.3154 25.1961 18.7246 26.0294 20.2061 26.7161C21.7374 27.4049 23.0999 27.7499 24.2374 27.7499C25.3174 27.7499 26.1936 27.4386 26.8161 26.8161C28.0949 25.5386 28.0586 23.1911 26.7161 20.2061C26.0294 18.7246 25.1961 17.3154 24.2286 15.9999ZM25.7499 6.24989C26.9099 7.40989 26.0449 10.7861 23.2749 14.7499C22.3857 13.6373 21.435 12.5753 20.4274 11.5686C19.422 10.5607 18.3612 9.60964 17.2499 8.71989C21.2186 5.95114 24.5961 5.08489 25.7499 6.24989ZM22.3511 15.9999C21.4301 17.1856 20.4361 18.3128 19.3749 19.3749C18.3131 20.4391 17.1859 21.436 15.9999 22.3599C14.8139 21.436 13.6867 20.4391 12.6249 19.3749C11.561 18.3127 10.5641 17.1856 9.63989 15.9999C11.4945 13.6309 13.6302 11.4961 15.9999 9.64239C17.1855 10.5658 18.3126 11.5619 19.3749 12.6249C20.4378 13.6868 21.4335 14.814 22.3561 15.9999H22.3511ZM6.24989 6.24989C6.58489 5.91364 7.10489 5.74989 7.77114 5.74989C9.40989 5.74989 11.9336 6.74989 14.7549 8.72614C13.6398 9.61252 12.5756 10.5611 11.5674 11.5674C10.5597 12.5744 9.60909 13.6369 8.71989 14.7499C5.94989 10.7811 5.08489 7.40489 6.24989 6.24989ZM6.24989 25.7499C5.08989 24.5899 5.95614 21.2136 8.72489 17.2499C9.61413 18.3625 10.5648 19.4245 11.5724 20.4311C12.5778 21.4391 13.6386 22.3901 14.7499 23.2799C10.7811 26.0499 7.40489 26.9149 6.24989 25.7499ZM25.7499 25.7499C24.5899 26.9099 21.2136 26.0436 17.2499 23.2736C18.3628 22.3852 19.4248 21.4349 20.4311 20.4274C21.4391 19.422 22.3901 18.3612 23.2799 17.2499C26.0499 21.2186 26.9149 24.5949 25.7499 25.7499ZM17.2499 15.9999C17.2499 16.2471 17.1766 16.4888 17.0392 16.6944C16.9019 16.8999 16.7067 17.0601 16.4782 17.1547C16.2498 17.2493 15.9985 17.2741 15.756 17.2259C15.5136 17.1776 15.2908 17.0586 15.116 16.8838C14.9412 16.709 14.8221 16.4862 14.7739 16.2438C14.7257 16.0013 14.7504 15.7499 14.845 15.5215C14.9397 15.2931 15.0999 15.0979 15.3054 14.9606C15.511 14.8232 15.7527 14.7499 15.9999 14.7499C16.3314 14.7499 16.6494 14.8816 16.8838 15.116C17.1182 15.3504 17.2499 15.6684 17.2499 15.9999Z" fill="white"/>
</svg>
