<svg width="32" height="32" viewBox="0 0 32 32" fill="none" xmlns="http://www.w3.org/2000/svg">
<path d="M16 14.25C14.8627 14.25 13.751 14.5872 12.8055 15.2191C11.8599 15.8509 11.1229 16.7489 10.6877 17.7996C10.2525 18.8503 10.1386 20.0064 10.3605 21.1218C10.5823 22.2372 11.13 23.2617 11.9341 24.0659C12.7383 24.87 13.7628 25.4177 14.8782 25.6395C15.9936 25.8614 17.1497 25.7475 18.2004 25.3123C19.2511 24.8771 20.1491 24.1401 20.7809 23.1945C21.4128 22.249 21.75 21.1372 21.75 20C21.748 18.4756 21.1416 17.0142 20.0637 15.9363C18.9858 14.8584 17.5244 14.252 16 14.25ZM16 24.25C15.1594 24.25 14.3377 24.0007 13.6388 23.5338C12.9399 23.0668 12.3952 22.403 12.0735 21.6264C11.7518 20.8498 11.6677 19.9953 11.8316 19.1709C11.9956 18.3465 12.4004 17.5892 12.9948 16.9948C13.5892 16.4004 14.3464 15.9957 15.1709 15.8317C15.9953 15.6677 16.8498 15.7518 17.6264 16.0735C18.403 16.3952 19.0667 16.9399 19.5337 17.6388C20.0007 18.3377 20.25 19.1594 20.25 20C20.25 21.1272 19.8022 22.2082 19.0052 23.0052C18.2082 23.8022 17.1272 24.25 16 24.25ZM26.1375 16.415L22.4125 5.88876C21.9725 4.55026 21.1246 3.38302 19.9878 2.55063C18.851 1.71825 17.4823 1.26246 16.0734 1.24716C14.6645 1.23186 13.2862 1.65782 12.1316 2.46532C10.9769 3.27282 10.104 4.42139 9.63499 5.75001L5.94499 16.19C5.33332 17.8076 5.12094 19.5489 5.32586 21.2661C5.53079 22.9832 6.14697 24.6256 7.12212 26.0538C8.09726 27.4821 9.40258 28.6539 10.9273 29.47C12.452 30.2861 14.1511 30.7223 15.8803 30.7415C17.6096 30.7608 19.318 30.3626 20.8605 29.5807C22.403 28.7988 23.7341 27.6563 24.7409 26.2502C25.7476 24.844 26.4002 23.2158 26.6434 21.5036C26.8865 19.7914 26.713 18.0458 26.1375 16.415ZM16 29.25C14.5023 29.249 13.0272 28.8846 11.7013 28.1881C10.3754 27.4915 9.23833 26.4837 8.38769 25.251C7.53704 24.0183 6.99822 22.5976 6.81748 21.1108C6.63674 19.624 6.81947 18.1156 7.34999 16.715C7.34999 16.7088 7.34999 16.7038 7.35624 16.6988L11.0487 6.25001C11.4135 5.21572 12.093 4.32164 12.9919 3.69329C13.8908 3.06494 14.9639 2.73387 16.0606 2.74655C17.1572 2.75924 18.2224 3.11505 19.1065 3.76402C19.9906 4.413 20.6492 5.32256 20.99 6.36501C20.99 6.36501 20.99 6.37501 20.9962 6.38126L24.7237 16.9163C25.2154 18.3117 25.3654 19.8046 25.1612 21.27C24.9571 22.7354 24.4047 24.1304 23.5503 25.3383C22.6959 26.5462 21.5645 27.5318 20.2508 28.2124C18.9372 28.893 17.4795 29.2488 16 29.25Z" fill="white"/>
</svg>
