<svg width="32" height="32" viewBox="0 0 32 32" fill="none" xmlns="http://www.w3.org/2000/svg">
<path d="M31.6563 12.295C31.552 11.9834 31.3621 11.7075 31.1083 11.4989C30.8545 11.2902 30.5471 11.1572 30.2213 11.115C27.799 10.7887 25.4731 9.9538 23.3963 8.66501L24.9088 7.15126C25.1994 6.89033 25.4337 6.57292 25.5976 6.21841C25.7615 5.86391 25.8514 5.47973 25.8619 5.08932C25.8724 4.69891 25.8032 4.31046 25.6586 3.94767C25.514 3.58487 25.297 3.25534 25.0209 2.97918C24.7447 2.70302 24.4152 2.48603 24.0524 2.34143C23.6896 2.19683 23.3011 2.12766 22.9107 2.13815C22.5203 2.14864 22.1361 2.23856 21.7816 2.40243C21.4271 2.56629 21.1097 2.80067 20.8488 3.09126L19 4.93376C18.5988 4.46751 18.3513 4.12626 18.26 3.99626C18.1135 3.78721 17.9231 3.61274 17.702 3.48508C17.481 3.35742 17.2347 3.27967 16.9804 3.25728C16.7261 3.23489 16.47 3.2684 16.23 3.35546C15.9901 3.44252 15.772 3.58103 15.5913 3.76126L10.7613 8.59626C10.5812 8.77729 10.443 8.99551 10.3562 9.23563C10.2695 9.47575 10.2363 9.73195 10.2591 9.98624C10.2818 10.2405 10.3599 10.4868 10.4879 10.7077C10.6159 10.9286 10.7907 11.1188 11 11.265C11.125 11.3563 11.4713 11.6038 11.9375 12.005L1.09127 22.8488C0.691435 23.2512 0.419607 23.763 0.310014 24.3196C0.200421 24.8763 0.257963 25.4529 0.475394 25.9769C0.692826 26.5009 1.06043 26.9488 1.53192 27.2644C2.00341 27.5799 2.5577 27.7489 3.12502 27.75C3.50224 27.7512 3.87592 27.6774 4.2244 27.533C4.57288 27.3886 4.8892 27.1764 5.15502 26.9088L15.6688 16.3963C16.9576 18.473 17.7925 20.799 18.1188 23.2213C18.1609 23.5471 18.2939 23.8545 18.5026 24.1083C18.7113 24.3621 18.9872 24.552 19.2988 24.6563C19.607 24.762 19.9388 24.7787 20.2561 24.7044C20.5734 24.6301 20.8633 24.4679 21.0925 24.2363L31.24 14.0888C31.4709 13.859 31.6324 13.569 31.706 13.2517C31.7796 12.9345 31.7624 12.6029 31.6563 12.295ZM21.9063 4.15126C22.1689 3.9223 22.5086 3.80158 22.8568 3.81349C23.2051 3.8254 23.5358 3.96905 23.7821 4.21542C24.0285 4.46178 24.1721 4.79248 24.184 5.14069C24.196 5.4889 24.0752 5.82864 23.8463 6.09126L22.125 7.81126C21.385 7.26792 20.6849 6.67223 20.03 6.02876L21.9063 4.15126ZM4.09127 25.8488C3.82865 26.0777 3.48891 26.1984 3.1407 26.1865C2.7925 26.1746 2.46179 26.031 2.21543 25.7846C1.96907 25.5382 1.82541 25.2075 1.8135 24.8593C1.8016 24.5111 1.92232 24.1714 2.15127 23.9088L13.0263 13.0338C13.6705 13.6873 14.267 14.3862 14.8113 15.125L4.09127 25.8488ZM30.1763 13.0275L20.0275 23.1763C19.9963 23.2096 19.9559 23.2331 19.9115 23.2437C19.8671 23.2544 19.8205 23.2518 19.7775 23.2363C19.731 23.2214 19.6899 23.1932 19.6593 23.1552C19.6286 23.1172 19.6098 23.0711 19.605 23.0225C18.5213 14.925 12.5375 10.5138 11.8588 10.0375C11.8281 10.0167 11.8024 9.98927 11.7835 9.95727C11.7647 9.92527 11.7533 9.88949 11.75 9.85251C11.7465 9.81656 11.7511 9.78028 11.7634 9.74632C11.7758 9.71237 11.7955 9.6816 11.8213 9.65626L16.655 4.82251C16.7013 4.77663 16.7636 4.75061 16.8288 4.75001H16.8513C16.8881 4.75312 16.9239 4.76438 16.9559 4.78297C16.9878 4.80156 17.0153 4.82702 17.0363 4.85751C17.5125 5.53626 21.9238 11.52 30.0213 12.6075C30.0699 12.6123 30.116 12.6311 30.154 12.6618C30.1919 12.6924 30.2201 12.7335 30.235 12.78C30.2505 12.8225 30.2532 12.8686 30.2427 12.9126C30.2323 12.9566 30.2092 12.9965 30.1763 13.0275Z" fill="white"/>
</svg>
