<svg width="32" height="32" viewBox="0 0 32 32" fill="none" xmlns="http://www.w3.org/2000/svg">
<path d="M20 4.25H19C18.5359 4.25 18.0908 4.43437 17.7626 4.76256C17.4344 5.09075 17.25 5.53587 17.25 6V13.25H6.69C6.51043 12.135 5.93996 11.1203 5.08068 10.3874C4.22139 9.65455 3.12936 9.25136 2 9.25C1.80109 9.25 1.61032 9.32902 1.46967 9.46967C1.32902 9.61032 1.25 9.80109 1.25 10C1.25 10.1989 1.32902 10.3897 1.46967 10.5303C1.61032 10.671 1.80109 10.75 2 10.75C2.86195 10.75 3.6886 11.0924 4.2981 11.7019C4.90759 12.3114 5.25 13.138 5.25 14C5.25298 16.5849 6.28116 19.0632 8.109 20.891C9.93683 22.7188 12.4151 23.747 15 23.75H20C22.5859 23.75 25.0658 22.7228 26.8943 20.8943C28.7228 19.0658 29.75 16.5859 29.75 14C29.75 11.4141 28.7228 8.93419 26.8943 7.10571C25.0658 5.27723 22.5859 4.25 20 4.25ZM28.2138 13.25H20.1375L26.115 8.46875C27.3164 9.79153 28.0533 11.4703 28.2138 13.25ZM19 5.75H20C21.8074 5.74792 23.565 6.34242 25 7.44125L18.75 12.4412V6C18.75 5.9337 18.7763 5.87011 18.8232 5.82322C18.8701 5.77634 18.9337 5.75 19 5.75ZM20 22.25H15C12.9425 22.2475 10.9599 21.4774 9.44027 20.0902C7.92065 18.7031 6.97334 16.7988 6.78375 14.75H28.2162C28.0267 16.7988 27.0794 18.7031 25.5597 20.0902C24.0401 21.4774 22.0575 22.2475 20 22.25ZM12.75 28C12.75 28.3461 12.6474 28.6845 12.4551 28.9722C12.2628 29.26 11.9895 29.4843 11.6697 29.6168C11.3499 29.7492 10.9981 29.7839 10.6586 29.7164C10.3191 29.6488 10.0073 29.4822 9.76256 29.2374C9.51782 28.9927 9.35115 28.6809 9.28363 28.3414C9.2161 28.0019 9.25076 27.6501 9.38321 27.3303C9.51566 27.0105 9.73997 26.7372 10.0278 26.5449C10.3155 26.3526 10.6539 26.25 11 26.25C11.4641 26.25 11.9092 26.4344 12.2374 26.7626C12.5656 27.0908 12.75 27.5359 12.75 28ZM25.75 28C25.75 28.3461 25.6474 28.6845 25.4551 28.9722C25.2628 29.26 24.9895 29.4843 24.6697 29.6168C24.3499 29.7492 23.9981 29.7839 23.6586 29.7164C23.3191 29.6488 23.0073 29.4822 22.7626 29.2374C22.5178 28.9927 22.3512 28.6809 22.2836 28.3414C22.2161 28.0019 22.2508 27.6501 22.3832 27.3303C22.5157 27.0105 22.74 26.7372 23.0278 26.5449C23.3155 26.3526 23.6539 26.25 24 26.25C24.4641 26.25 24.9092 26.4344 25.2374 26.7626C25.5656 27.0908 25.75 27.5359 25.75 28Z" fill="white"/>
</svg>
