<svg width="32" height="32" viewBox="0 0 32 32" fill="none" xmlns="http://www.w3.org/2000/svg">
<path d="M22.7174 16L26.3586 12.3588C26.8012 11.918 27.1525 11.3943 27.3924 10.8176C27.6324 10.2409 27.7562 9.62257 27.7568 8.99796C27.7575 8.37336 27.6349 7.75475 27.3962 7.17757C27.1575 6.60038 26.8073 6.07595 26.3656 5.63428C25.9239 5.19262 25.3995 4.8424 24.8223 4.60367C24.2451 4.36495 23.6265 4.2424 23.0019 4.24304C22.3773 4.24369 21.759 4.36752 21.1823 4.60744C20.6056 4.84737 20.0819 5.19867 19.6411 5.64125L15.9999 9.2825L12.3586 5.64125C11.9179 5.19867 11.3942 4.84737 10.8175 4.60744C10.2408 4.36752 9.62245 4.24369 8.99784 4.24304C8.37323 4.2424 7.75463 4.36495 7.17745 4.60367C6.60026 4.8424 6.07583 5.19262 5.63416 5.63428C5.1925 6.07595 4.84228 6.60038 4.60355 7.17757C4.36482 7.75475 4.24228 8.37336 4.24292 8.99796C4.24357 9.62257 4.3674 10.2409 4.60732 10.8176C4.84725 11.3943 5.19855 11.918 5.64113 12.3588L9.28238 16L5.64113 19.6413C5.19855 20.082 4.84725 20.6057 4.60732 21.1824C4.3674 21.7591 4.24357 22.3774 4.24292 23.002C4.24228 23.6266 4.36482 24.2452 4.60355 24.8224C4.84228 25.3996 5.1925 25.9241 5.63416 26.3657C6.07583 26.8074 6.60026 27.1576 7.17745 27.3963C7.75463 27.6351 8.37323 27.7576 8.99784 27.757C9.62245 27.7563 10.2408 27.6325 10.8175 27.3926C11.3942 27.1526 11.9179 26.8013 12.3586 26.3588L15.9999 22.7175L19.6411 26.3588C20.0819 26.8013 20.6056 27.1526 21.1823 27.3926C21.759 27.6325 22.3773 27.7563 23.0019 27.757C23.6265 27.7576 24.2451 27.6351 24.8223 27.3963C25.3995 27.1576 25.9239 26.8074 26.3656 26.3657C26.8073 25.9241 27.1575 25.3996 27.3962 24.8224C27.6349 24.2452 27.7575 23.6266 27.7568 23.002C27.7562 22.3774 27.6324 21.7591 27.3924 21.1824C27.1525 20.6057 26.8012 20.082 26.3586 19.6413L22.7174 16ZM20.7024 6.7025C21.0024 6.39295 21.361 6.14618 21.7574 5.97658C22.1537 5.80697 22.5798 5.7179 23.0109 5.71457C23.442 5.71123 23.8694 5.7937 24.2684 5.95716C24.6673 6.12062 25.0297 6.36181 25.3345 6.66669C25.6392 6.97156 25.8803 7.33403 26.0437 7.73298C26.207 8.13193 26.2894 8.5594 26.2859 8.99048C26.2825 9.42157 26.1933 9.84766 26.0236 10.2439C25.8539 10.6402 25.607 10.9988 25.2974 11.2988L21.6561 14.94L17.0611 10.3438L20.7024 6.7025ZM20.5961 16L15.9999 20.5963L11.4036 16L15.9999 11.4038L20.5961 16ZM6.70238 11.2975C6.38928 10.9984 6.13912 10.6397 5.96659 10.2425C5.79406 9.84531 5.70265 9.41766 5.69771 8.98466C5.69277 8.55166 5.77442 8.12204 5.93785 7.72103C6.10128 7.32002 6.3432 6.95572 6.6494 6.64952C6.9556 6.34333 7.3199 6.1014 7.72091 5.93797C8.12191 5.77454 8.55154 5.6929 8.98454 5.69783C9.41754 5.70277 9.84519 5.79418 10.2424 5.96671C10.6395 6.13924 10.9982 6.3894 11.2974 6.7025L14.9386 10.3438L10.3436 14.94L6.70238 11.2975ZM11.2974 25.2975C10.9982 25.6106 10.6395 25.8608 10.2424 26.0333C9.84519 26.2058 9.41754 26.2972 8.98454 26.3022C8.55154 26.3071 8.12191 26.2255 7.72091 26.062C7.3199 25.8986 6.9556 25.6567 6.6494 25.3505C6.3432 25.0443 6.10128 24.68 5.93785 24.279C5.77442 23.878 5.69277 23.4483 5.69771 23.0153C5.70265 22.5823 5.79406 22.1547 5.96659 21.7575C6.13912 21.3603 6.38928 21.0016 6.70238 20.7025L10.3436 17.0613L14.9386 21.6563L11.2974 25.2975ZM25.2974 25.2975C24.6879 25.9066 23.8615 26.2488 22.9999 26.2488C22.1382 26.2488 21.3118 25.9066 20.7024 25.2975L17.0599 21.6563L21.6561 17.06L25.2974 20.7025C25.9065 21.3119 26.2487 22.1383 26.2487 23C26.2487 23.8617 25.9065 24.6881 25.2974 25.2975ZM14.7499 16C14.7499 15.7528 14.8232 15.5111 14.9605 15.3055C15.0979 15.1 15.2931 14.9398 15.5215 14.8452C15.7499 14.7505 16.0013 14.7258 16.2437 14.774C16.4862 14.8223 16.7089 14.9413 16.8838 15.1161C17.0586 15.2909 17.1776 15.5137 17.2259 15.7561C17.2741 15.9986 17.2493 16.2499 17.1547 16.4784C17.0601 16.7068 16.8999 16.902 16.6943 17.0393C16.4888 17.1767 16.2471 17.25 15.9999 17.25C15.6684 17.25 15.3504 17.1183 15.116 16.8839C14.8816 16.6495 14.7499 16.3315 14.7499 16Z" fill="white"/>
</svg>
