<svg width="32" height="32" viewBox="0 0 32 32" fill="none" xmlns="http://www.w3.org/2000/svg">
<path d="M30 24.25H28.75V15.54L29.39 16.4363C29.4475 16.5164 29.5201 16.5844 29.6039 16.6364C29.6876 16.6884 29.7808 16.7234 29.878 16.7394C29.9753 16.7555 30.0748 16.7522 30.1708 16.7297C30.2668 16.7073 30.3574 16.6662 30.4375 16.6088C30.5176 16.5513 30.5856 16.4786 30.6376 16.3949C30.6897 16.3112 30.7247 16.218 30.7407 16.1207C30.7567 16.0235 30.7534 15.924 30.731 15.828C30.7086 15.732 30.6675 15.6414 30.61 15.5613L25.61 8.56125C25.5594 8.4909 25.4973 8.42962 25.4263 8.38L16.9712 2.54375C16.6819 2.35086 16.3416 2.24856 15.9939 2.24989C15.6461 2.25123 15.3066 2.35614 15.0187 2.55125L6.57375 8.3825C6.50271 8.43211 6.44058 8.4934 6.39 8.56375L1.39 15.5638C1.33255 15.6439 1.29143 15.7345 1.26901 15.8305C1.24658 15.9265 1.24329 16.026 1.2593 16.1232C1.27532 16.2205 1.31034 16.3137 1.36237 16.3974C1.41439 16.4811 1.48239 16.5538 1.5625 16.6113C1.64261 16.6687 1.73324 16.7098 1.82924 16.7322C1.92523 16.7547 2.02471 16.758 2.12198 16.7419C2.21924 16.7259 2.31241 16.6909 2.39614 16.6389C2.47988 16.5869 2.55255 16.5189 2.61 16.4388L3.25 15.54V24.25H2C1.80109 24.25 1.61032 24.329 1.46967 24.4697C1.32902 24.6103 1.25 24.8011 1.25 25C1.25 25.1989 1.32902 25.3897 1.46967 25.5303C1.61032 25.671 1.80109 25.75 2 25.75H30C30.1989 25.75 30.3897 25.671 30.5303 25.5303C30.671 25.3897 30.75 25.1989 30.75 25C30.75 24.8011 30.671 24.6103 30.5303 24.4697C30.3897 24.329 30.1989 24.25 30 24.25ZM4.75 13.44L7.53375 9.5425L15.8612 3.7925C15.9005 3.76603 15.9466 3.75128 15.9939 3.74995C16.0413 3.74862 16.088 3.76078 16.1287 3.785L24.4662 9.5425L27.25 13.44V24.25H23.75V15C23.75 14.8011 23.671 14.6103 23.5303 14.4697C23.3897 14.329 23.1989 14.25 23 14.25H9C8.80109 14.25 8.61032 14.329 8.46967 14.4697C8.32902 14.6103 8.25 14.8011 8.25 15V24.25H4.75V13.44ZM16 19.0788L11.34 15.75H20.66L16 19.0788ZM22.25 16.4538V23.5388L17.29 20L22.25 16.4538ZM14.71 20L9.75 23.5425V16.4575L14.71 20ZM16 20.9213L20.66 24.25H11.34L16 20.9213ZM13.25 11C13.25 10.8011 13.329 10.6103 13.4697 10.4697C13.6103 10.329 13.8011 10.25 14 10.25H18C18.1989 10.25 18.3897 10.329 18.5303 10.4697C18.671 10.6103 18.75 10.8011 18.75 11C18.75 11.1989 18.671 11.3897 18.5303 11.5303C18.3897 11.671 18.1989 11.75 18 11.75H14C13.8011 11.75 13.6103 11.671 13.4697 11.5303C13.329 11.3897 13.25 11.1989 13.25 11Z" fill="white"/>
</svg>
