<svg width="32" height="32" viewBox="0 0 32 32" fill="none" xmlns="http://www.w3.org/2000/svg">
<path d="M11 16.25C10.3572 16.25 9.72886 16.4406 9.19441 16.7977C8.65995 17.1548 8.24338 17.6624 7.9974 18.2563C7.75141 18.8501 7.68705 19.5036 7.81246 20.134C7.93786 20.7645 8.24739 21.3436 8.70191 21.7981C9.15643 22.2526 9.73553 22.5621 10.366 22.6875C10.9964 22.8129 11.6499 22.7486 12.2437 22.5026C12.8376 22.2566 13.3452 21.84 13.7023 21.3056C14.0594 20.7711 14.25 20.1428 14.25 19.5C14.25 18.638 13.9076 17.8114 13.2981 17.2019C12.6886 16.5924 11.862 16.25 11 16.25ZM11 21.25C10.6539 21.25 10.3155 21.1474 10.0278 20.9551C9.73997 20.7628 9.51567 20.4895 9.38322 20.1697C9.25077 19.8499 9.21611 19.498 9.28363 19.1586C9.35116 18.8191 9.51783 18.5073 9.76257 18.2626C10.0073 18.0178 10.3191 17.8511 10.6586 17.7836C10.9981 17.7161 11.3499 17.7507 11.6697 17.8832C11.9895 18.0157 12.2628 18.24 12.4551 18.5277C12.6474 18.8155 12.75 19.1539 12.75 19.5C12.75 19.9641 12.5656 20.4092 12.2374 20.7374C11.9093 21.0656 11.4641 21.25 11 21.25ZM31 15.25H27.7288C27.5373 11.9365 26.0612 8.82827 23.6143 6.58584C21.1674 4.3434 17.9424 3.14353 14.6248 3.24118C11.3073 3.33884 8.15851 4.72634 5.84773 7.10882C3.53694 9.4913 2.24628 12.681 2.25001 16V19C2.25265 21.3198 3.17538 23.5439 4.81575 25.1842C6.45612 26.8246 8.68018 27.7473 11 27.75H16C18.3198 27.7473 20.5439 26.8246 22.1843 25.1842C23.8246 23.5439 24.7474 21.3198 24.75 19V16.75H31C31.1989 16.75 31.3897 16.671 31.5303 16.5303C31.671 16.3897 31.75 16.1989 31.75 16C31.75 15.8011 31.671 15.6103 31.5303 15.4697C31.3897 15.329 31.1989 15.25 31 15.25ZM23.25 19C23.2477 20.9221 22.4831 22.7648 21.124 24.124C19.7648 25.4831 17.9221 26.2477 16 26.25H15.8938C17.0806 25.4492 18.0529 24.3695 18.7252 23.1055C19.3975 21.8414 19.7494 20.4317 19.75 19V16.75H23.25V19ZM19 15.25C18.8011 15.25 18.6103 15.329 18.4697 15.4697C18.329 15.6103 18.25 15.8011 18.25 16V19C18.25 20.9228 17.4862 22.7669 16.1265 24.1265C14.7669 25.4861 12.9228 26.25 11 26.25C9.07719 26.25 7.23312 25.4861 5.87348 24.1265C4.51385 22.7669 3.75001 20.9228 3.75001 19V16C3.7499 13.0812 4.8842 10.2766 6.91334 8.17855C8.94249 6.08048 11.7076 4.85318 14.6248 4.75583C17.542 4.65848 20.3828 5.69871 22.5473 7.65684C24.7118 9.61496 26.0305 12.3377 26.225 15.25H19Z" fill="white"/>
</svg>
