<svg width="32" height="32" viewBox="0 0 32 32" fill="none" xmlns="http://www.w3.org/2000/svg">
<path d="M16.75 15V22C16.75 22.1989 16.671 22.3897 16.5303 22.5303C16.3897 22.671 16.1989 22.75 16 22.75C15.8011 22.75 15.6103 22.671 15.4696 22.5303C15.329 22.3897 15.25 22.1989 15.25 22V15C15.25 14.8011 15.329 14.6103 15.4696 14.4697C15.6103 14.329 15.8011 14.25 16 14.25C16.1989 14.25 16.3897 14.329 16.5303 14.4697C16.671 14.6103 16.75 14.8011 16.75 15ZM21.8537 14.925L21.1537 21.925C21.1434 22.0233 21.1525 22.1227 21.1807 22.2174C21.2088 22.3121 21.2554 22.4004 21.3178 22.4771C21.3802 22.5537 21.4571 22.6173 21.5442 22.6641C21.6312 22.711 21.7266 22.7402 21.825 22.75H21.9012C22.0878 22.7509 22.268 22.6823 22.4067 22.5575C22.5454 22.4327 22.6326 22.2606 22.6512 22.075L23.3512 15.075C23.3711 14.8771 23.3116 14.6794 23.1857 14.5253C23.0598 14.3713 22.8779 14.2736 22.68 14.2537C22.4821 14.2338 22.2843 14.2934 22.1303 14.4193C21.9763 14.5452 21.8786 14.7271 21.8587 14.925H21.8537ZM10.1462 14.925C10.1263 14.7271 10.0286 14.5452 9.87462 14.4193C9.72061 14.2934 9.52289 14.2338 9.32497 14.2537C9.12706 14.2736 8.94515 14.3713 8.81926 14.5253C8.69338 14.6794 8.63383 14.8771 8.65372 15.075L9.35372 22.075C9.37238 22.2606 9.45956 22.4327 9.59824 22.5575C9.73692 22.6823 9.91715 22.7509 10.1037 22.75H10.18C10.278 22.7401 10.3731 22.7111 10.4598 22.6645C10.5466 22.6179 10.6234 22.5546 10.6857 22.4784C10.748 22.4021 10.7947 22.3143 10.8231 22.22C10.8515 22.1257 10.8611 22.0267 10.8512 21.9287L10.1462 14.925ZM29.75 11.0987L27.8587 25.2312C27.8027 25.6514 27.5961 26.037 27.2772 26.3164C26.9583 26.5957 26.5489 26.7498 26.125 26.75H5.87497C5.45106 26.7498 5.04163 26.5957 4.72276 26.3164C4.40388 26.037 4.19724 25.6514 4.14122 25.2312L2.25622 11.0987C2.24216 10.9928 2.25088 10.8851 2.28182 10.7828C2.31276 10.6806 2.3652 10.5861 2.43562 10.5057C2.50605 10.4253 2.59283 10.3609 2.69016 10.3168C2.78749 10.2727 2.89312 10.25 2.99997 10.25H8.65997L15.435 2.50624C15.5054 2.42644 15.5919 2.36252 15.6889 2.31874C15.7859 2.27496 15.8911 2.25232 15.9975 2.25232C16.1039 2.25232 16.2091 2.27496 16.3061 2.31874C16.403 2.36252 16.4896 2.42644 16.56 2.50624L23.335 10.2562H29C29.1068 10.2554 29.2125 10.2774 29.3101 10.3208C29.4077 10.3641 29.4949 10.4278 29.5659 10.5075C29.6369 10.5873 29.69 10.6813 29.7218 10.7833C29.7535 10.8852 29.7631 10.9928 29.75 11.0987ZM10.6525 10.25H21.3475L16 4.13874L10.6525 10.25ZM28.1437 11.75H3.85622L5.62497 25.0325C5.63291 25.093 5.66271 25.1485 5.70876 25.1886C5.75482 25.2287 5.81394 25.2505 5.87497 25.25H26.125C26.186 25.2505 26.2451 25.2287 26.2912 25.1886C26.3372 25.1485 26.367 25.093 26.375 25.0325L28.1437 11.75Z" fill="white"/>
</svg>
