<svg width="32" height="32" viewBox="0 0 32 32" fill="none" xmlns="http://www.w3.org/2000/svg">
<path d="M16 3.25C13.4783 3.25 11.0132 3.99777 8.91648 5.39876C6.81976 6.79975 5.18556 8.79103 4.22054 11.1208C3.25552 13.4505 3.00303 16.0141 3.49499 18.4874C3.98696 20.9607 5.20127 23.2325 6.98439 25.0156C8.76751 26.7987 11.0393 28.0131 13.5126 28.505C15.9859 28.997 18.5495 28.7445 20.8792 27.7795C23.209 26.8144 25.2003 25.1802 26.6012 23.0835C28.0022 20.9868 28.75 18.5217 28.75 16C28.746 12.6197 27.4015 9.379 25.0112 6.98877C22.621 4.59854 19.3803 3.25397 16 3.25ZM26.625 12.3062C24.758 11.6882 22.8239 11.295 20.8638 11.135C20.704 9.17533 20.3113 7.24168 19.6938 5.375C21.2951 5.9363 22.7495 6.85076 23.9494 8.05061C25.1492 9.25046 26.0637 10.7049 26.625 12.3062ZM17.94 4.9175C18.536 6.49212 18.9597 8.12665 19.2038 9.7925C17.0295 7.96215 14.5568 6.51907 11.8938 5.52625C13.8154 4.77361 15.9069 4.56304 17.94 4.9175ZM10.0188 6.47625C13.0906 7.41066 15.9357 8.9709 18.375 11.0588C13.5054 11.148 8.77004 12.6696 4.76001 15.4338C4.85272 13.6281 5.37903 11.8713 6.29439 10.3122C7.20976 8.75297 8.48725 7.43722 10.0188 6.47625ZM4.81876 17.25C9.02346 14.0792 14.1794 12.4285 19.4438 12.5675C19.5828 17.8319 17.932 22.9878 14.7613 27.1925C12.2226 26.9071 9.85622 25.7678 8.04982 23.9614C6.24342 22.155 5.10417 19.7886 4.81876 17.25ZM16.5688 27.2425C19.333 23.2321 20.8547 18.4962 20.9438 13.6263C23.0318 16.0673 24.5921 18.9141 25.5263 21.9875C24.5641 23.5171 23.2479 24.7927 21.6888 25.7063C20.1297 26.6198 18.3735 27.1446 16.5688 27.2362V27.2425ZM26.4738 20.1175C25.4817 17.4546 24.0395 14.982 22.21 12.8075C23.8759 13.0515 25.5104 13.4753 27.085 14.0712C27.4395 16.1044 27.2289 18.1958 26.4763 20.1175H26.4738Z" fill="white"/>
</svg>
