<svg width="32" height="32" viewBox="0 0 32 32" fill="none" xmlns="http://www.w3.org/2000/svg">
<path d="M27.75 20.4212V18C27.7464 15.3254 26.832 12.7318 25.1575 10.6463C23.483 8.56072 21.1481 7.10762 18.5375 6.52624C18.92 6.04822 19.1598 5.47188 19.2291 4.86358C19.2984 4.25528 19.1945 3.63978 18.9293 3.08794C18.6642 2.53611 18.2485 2.07041 17.7303 1.74446C17.212 1.41851 16.6122 1.24557 16 1.24557C15.3878 1.24557 14.788 1.41851 14.2697 1.74446C13.7515 2.07041 13.3358 2.53611 13.0707 3.08794C12.8055 3.63978 12.7016 4.25528 12.7709 4.86358C12.8402 5.47188 13.08 6.04822 13.4625 6.52624C10.8519 7.10762 8.51704 8.56072 6.84252 10.6463C5.16801 12.7318 4.25364 15.3254 4.25 18V20.4212C3.95116 20.563 3.69861 20.7865 3.52162 21.066C3.34463 21.3454 3.25045 21.6692 3.25 22V26C3.25 26.4641 3.43437 26.9092 3.76256 27.2374C4.09075 27.5656 4.53587 27.75 5 27.75H27C27.4641 27.75 27.9092 27.5656 28.2374 27.2374C28.5656 26.9092 28.75 26.4641 28.75 26V22C28.7495 21.6692 28.6554 21.3454 28.4784 21.066C28.3014 20.7865 28.0488 20.563 27.75 20.4212ZM14.25 4.49999C14.25 4.15387 14.3526 3.81553 14.5449 3.52774C14.7372 3.23995 15.0105 3.01565 15.3303 2.8832C15.6501 2.75075 16.0019 2.71609 16.3414 2.78361C16.6809 2.85114 16.9927 3.01781 17.2374 3.26255C17.4822 3.50729 17.6488 3.81911 17.7164 4.15858C17.7839 4.49805 17.7492 4.84991 17.6168 5.16968C17.4843 5.48945 17.26 5.76277 16.9722 5.95506C16.6845 6.14735 16.3461 6.24999 16 6.24999C15.5359 6.24999 15.0908 6.06561 14.7626 5.73742C14.4344 5.40924 14.25 4.96412 14.25 4.49999ZM16 7.74999C18.7175 7.7533 21.3227 8.83427 23.2442 10.7558C25.1657 12.6773 26.2467 15.2825 26.25 18V20.25H5.75V18C5.75331 15.2825 6.83428 12.6773 8.75581 10.7558C10.6773 8.83427 13.2825 7.7533 16 7.74999ZM15.25 21.75V26.25H9.75V21.75H15.25ZM16.75 21.75H22.25V26.25H16.75V21.75ZM4.75 26V22C4.75 21.9337 4.77634 21.8701 4.82322 21.8232C4.87011 21.7763 4.9337 21.75 5 21.75H8.25V26.25H5C4.9337 26.25 4.87011 26.2236 4.82322 26.1768C4.77634 26.1299 4.75 26.0663 4.75 26ZM27.25 26C27.25 26.0663 27.2237 26.1299 27.1768 26.1768C27.1299 26.2236 27.0663 26.25 27 26.25H23.75V21.75H27C27.0663 21.75 27.1299 21.7763 27.1768 21.8232C27.2237 21.8701 27.25 21.9337 27.25 22V26Z" fill="white"/>
</svg>
