<svg width="32" height="32" viewBox="0 0 32 32" fill="none" xmlns="http://www.w3.org/2000/svg">
<path d="M27 9.25H3.75V6C3.75 5.80109 3.67098 5.61032 3.53033 5.46967C3.38968 5.32902 3.19891 5.25 3 5.25C2.80109 5.25 2.61032 5.32902 2.46967 5.46967C2.32902 5.61032 2.25 5.80109 2.25 6V26C2.25 26.1989 2.32902 26.3897 2.46967 26.5303C2.61032 26.671 2.80109 26.75 3 26.75C3.19891 26.75 3.38968 26.671 3.53033 26.5303C3.67098 26.3897 3.75 26.1989 3.75 26V21.75H30.25V26C30.25 26.1989 30.329 26.3897 30.4697 26.5303C30.6103 26.671 30.8011 26.75 31 26.75C31.1989 26.75 31.3897 26.671 31.5303 26.5303C31.671 26.3897 31.75 26.1989 31.75 26V14C31.75 12.7402 31.2496 11.532 30.3588 10.6412C29.468 9.75045 28.2598 9.25 27 9.25ZM3.75 10.75H13.25V20.25H3.75V10.75ZM14.75 20.25V10.75H27C27.862 10.75 28.6886 11.0924 29.2981 11.7019C29.9076 12.3114 30.25 13.138 30.25 14V20.25H14.75Z" fill="white"/>
</svg>
