<svg width="32" height="32" viewBox="0 0 32 32" fill="none" xmlns="http://www.w3.org/2000/svg">
<path d="M30.53 5.47L26.53 1.47C26.3879 1.33752 26.1998 1.2654 26.0055 1.26882C25.8112 1.27225 25.6258 1.35096 25.4884 1.48838C25.351 1.62579 25.2723 1.81118 25.2689 2.00548C25.2654 2.19978 25.3376 2.38782 25.47 2.53L25.8588 2.91875L18.6863 8.29375L13.8525 9.26125C13.7074 9.28982 13.5742 9.36123 13.47 9.46625L3.05504 19.8838C2.53942 20.3995 2.24976 21.0989 2.24976 21.8281C2.24976 22.5574 2.53942 23.2568 3.05504 23.7725L8.22754 28.945C8.74326 29.4606 9.44266 29.7503 10.1719 29.7503C10.9012 29.7503 11.6006 29.4606 12.1163 28.945L22.53 18.53C22.6351 18.4259 22.7065 18.2926 22.735 18.1475L23.7025 13.3137L29.0775 6.14125L29.4663 6.53C29.6085 6.66248 29.7965 6.7346 29.9908 6.73117C30.1851 6.72775 30.3705 6.64903 30.5079 6.51162C30.6453 6.37421 30.724 6.18882 30.7275 5.99452C30.7309 5.80022 30.6588 5.61217 30.5263 5.47H30.53ZM11.055 27.8838C10.8206 28.1181 10.5027 28.2497 10.1713 28.2497C9.83984 28.2497 9.52195 28.1181 9.28754 27.8838L4.11629 22.7125C3.88195 22.4781 3.75031 22.1602 3.75031 21.8288C3.75031 21.4973 3.88195 21.1794 4.11629 20.945L5.00004 20.0613L11.9388 27L11.055 27.8838ZM13 25.9387L6.06129 19L12 13.0612L18.9388 20L13 25.9387ZM22.4 12.55C22.3326 12.6392 22.2864 12.7427 22.265 12.8525L21.3088 17.625L20 18.9387L13.0613 12L14.375 10.6912L19.1525 9.735C19.2623 9.7136 19.3658 9.66743 19.455 9.6L26.935 3.99L28.015 5.07L22.4 12.55Z" fill="white"/>
</svg>
