<svg width="32" height="32" viewBox="0 0 32 32" fill="none" xmlns="http://www.w3.org/2000/svg">
<path d="M6.55479 4.5C6.41748 4.37256 6.23746 4.30111 6.05013 4.29972C5.86281 4.29833 5.68174 4.36709 5.54256 4.49248C5.40338 4.61787 5.31616 4.7908 5.29807 4.97726C5.27997 5.16371 5.33231 5.35019 5.44479 5.5L7.66354 7.945C6.73578 9.46766 6.24654 11.217 6.24979 13C6.24979 17.4675 5.19729 20.9 4.48979 22.1175C4.33456 22.3833 4.25219 22.6854 4.25099 22.9932C4.24979 23.301 4.32981 23.6037 4.48297 23.8707C4.63613 24.1377 4.85701 24.3596 5.12333 24.514C5.38964 24.6684 5.69196 24.7498 5.99979 24.75H22.941L25.441 27.5C25.575 27.6472 25.7619 27.7352 25.9607 27.7445C26.1595 27.7539 26.3538 27.6839 26.501 27.55C26.6482 27.4161 26.7362 27.2291 26.7456 27.0304C26.7549 26.8316 26.685 26.6372 26.551 26.49L6.55479 4.5ZM5.99979 23.25C5.95632 23.2506 5.91352 23.2393 5.87605 23.2172C5.83858 23.1952 5.80788 23.1633 5.78729 23.125C5.76534 23.087 5.75379 23.0439 5.75379 23C5.75379 22.9561 5.76534 22.913 5.78729 22.875C6.73229 21.25 7.74979 17.4613 7.74979 13C7.7472 11.6429 8.08135 10.3063 8.72229 9.11L21.5773 23.25H5.99979ZM20.7498 28C20.7498 28.1989 20.6708 28.3897 20.5301 28.5303C20.3895 28.671 20.1987 28.75 19.9998 28.75H11.9998C11.8009 28.75 11.6101 28.671 11.4695 28.5303C11.3288 28.3897 11.2498 28.1989 11.2498 28C11.2498 27.8011 11.3288 27.6103 11.4695 27.4697C11.6101 27.329 11.8009 27.25 11.9998 27.25H19.9998C20.1987 27.25 20.3895 27.329 20.5301 27.4697C20.6708 27.6103 20.7498 27.8011 20.7498 28ZM26.6585 22.1725C26.5711 22.2075 26.4777 22.2253 26.3835 22.225C26.2329 22.2248 26.0858 22.1793 25.9614 22.0944C25.837 22.0094 25.741 21.889 25.686 21.7488C24.786 19.46 24.2498 16.1887 24.2498 12.9987C24.2499 11.556 23.8717 10.1385 23.1528 8.88758C22.434 7.63668 21.3997 6.59616 20.1531 5.86984C18.9065 5.14353 17.4913 4.75681 16.0485 4.74829C14.6058 4.73976 13.1861 5.10972 11.931 5.82125C11.8453 5.87212 11.7503 5.9054 11.6516 5.91914C11.5529 5.93288 11.4524 5.9268 11.3561 5.90126C11.2597 5.87573 11.1695 5.83125 11.0905 5.77042C11.0116 5.70959 10.9455 5.63363 10.8963 5.54699C10.847 5.46034 10.8155 5.36475 10.8036 5.26579C10.7917 5.16683 10.7997 5.06649 10.827 4.97065C10.8543 4.8748 10.9005 4.78535 10.9628 4.70755C11.0251 4.62974 11.1022 4.56514 11.1898 4.5175C12.6731 3.67624 14.3511 3.23872 16.0563 3.24861C17.7616 3.2585 19.4344 3.71546 20.9079 4.57387C22.3813 5.43229 23.6038 6.66214 24.4535 8.14068C25.3031 9.61922 25.7501 11.2947 25.7498 13C25.7498 17.4625 26.7698 20.405 27.0823 21.2013C27.1547 21.3863 27.1507 21.5924 27.0713 21.7745C26.9919 21.9566 26.8434 22.0997 26.6585 22.1725Z" fill="white"/>
</svg>
