<svg width="32" height="32" viewBox="0 0 32 32" fill="none" xmlns="http://www.w3.org/2000/svg">
<path d="M20.7398 28C20.7398 28.1989 20.6608 28.3897 20.5201 28.5303C20.3794 28.671 20.1887 28.75 19.9898 28.75H11.9898C11.7909 28.75 11.6001 28.671 11.4594 28.5303C11.3188 28.3897 11.2398 28.1989 11.2398 28C11.2398 27.8011 11.3188 27.6103 11.4594 27.4697C11.6001 27.329 11.7909 27.25 11.9898 27.25H19.9898C20.1887 27.25 20.3794 27.329 20.5201 27.4697C20.6608 27.6103 20.7398 27.8011 20.7398 28ZM28.201 7.65375C27.0981 5.49647 25.441 3.67154 23.3998 2.36625C23.2319 2.26928 23.0331 2.24106 22.8449 2.2875C22.6567 2.33394 22.4938 2.45144 22.3903 2.61535C22.2869 2.77926 22.2509 2.97687 22.29 3.16673C22.329 3.35659 22.44 3.52396 22.5998 3.63375C24.4227 4.79096 25.8996 6.41857 26.8748 8.345C26.9202 8.43241 26.9823 8.51002 27.0577 8.57341C27.1331 8.6368 27.2202 8.68472 27.3141 8.71443C27.408 8.74415 27.5069 8.75508 27.605 8.74659C27.7031 8.73811 27.7986 8.71038 27.886 8.665C27.9734 8.61961 28.051 8.55745 28.1144 8.48206C28.1778 8.40668 28.2257 8.31955 28.2555 8.22565C28.2852 8.13174 28.2961 8.03291 28.2876 7.93478C28.2791 7.83665 28.2514 7.74116 28.206 7.65375H28.201ZM5.12477 8.345C6.09996 6.41857 7.57687 4.79096 9.39977 3.63375C9.55951 3.52396 9.67054 3.35659 9.70958 3.16673C9.74863 2.97687 9.71265 2.77926 9.60919 2.61535C9.50574 2.45144 9.34284 2.33394 9.15465 2.2875C8.96646 2.24106 8.76761 2.26928 8.59977 2.36625C6.55856 3.67154 4.90145 5.49647 3.79852 7.65375C3.74387 7.74145 3.70793 7.8395 3.69297 7.94175C3.678 8.044 3.68432 8.14824 3.71154 8.24793C3.73876 8.34762 3.78629 8.44061 3.85114 8.52106C3.916 8.60152 3.99677 8.6677 4.08841 8.71546C4.18005 8.76323 4.28057 8.79154 4.38367 8.79862C4.48676 8.8057 4.59021 8.7914 4.68752 8.75661C4.78482 8.72183 4.87389 8.66731 4.94914 8.59648C5.02438 8.52564 5.08418 8.44003 5.12477 8.345ZM27.4998 22.1162C27.6549 22.3814 27.7375 22.6826 27.7393 22.9898C27.7411 23.297 27.662 23.5992 27.51 23.8661C27.358 24.133 27.1384 24.3552 26.8733 24.5104C26.6082 24.6655 26.3069 24.7482 25.9998 24.75H5.99977C5.69326 24.7486 5.3925 24.6667 5.12759 24.5125C4.86267 24.3584 4.64289 24.1373 4.49025 23.8715C4.33761 23.6057 4.25745 23.3045 4.2578 22.998C4.25816 22.6915 4.33901 22.3904 4.49227 22.125C5.64102 20.135 6.24977 17.3275 6.24977 14C6.24977 11.4141 7.277 8.93419 9.10548 7.10571C10.934 5.27723 13.4139 4.25 15.9998 4.25C18.5856 4.25 21.0656 5.27723 22.8941 7.10571C24.7225 8.93419 25.7498 11.4141 25.7498 14C25.7498 17.375 26.3423 20.105 27.5098 22.1162H27.4998ZM26.2035 22.8662C24.911 20.625 24.2498 17.6425 24.2498 14C24.2498 11.812 23.3806 9.71354 21.8334 8.16637C20.2862 6.61919 18.1878 5.75 15.9998 5.75C13.8117 5.75 11.7133 6.61919 10.1661 8.16637C8.61896 9.71354 7.74977 11.812 7.74977 14C7.74977 17.645 7.08852 20.625 5.78602 22.875C5.76408 22.913 5.75253 22.9561 5.75253 23C5.75253 23.0439 5.76408 23.087 5.78602 23.125C5.80661 23.1633 5.83731 23.1952 5.87478 23.2172C5.91225 23.2393 5.95505 23.2506 5.99852 23.25H25.9998C26.0432 23.2506 26.086 23.2393 26.1235 23.2172C26.161 23.1952 26.1917 23.1633 26.2123 23.125C26.2344 23.0871 26.2462 23.044 26.2464 23.0002C26.2466 22.9563 26.2353 22.9131 26.2135 22.875L26.2035 22.8662Z" fill="white"/>
</svg>
