<svg width="32" height="32" viewBox="0 0 32 32" fill="none" xmlns="http://www.w3.org/2000/svg">
<path d="M18.7502 18C18.7502 18.1989 18.6712 18.3897 18.5306 18.5303C18.3899 18.671 18.1991 18.75 18.0002 18.75H14.0002C13.8644 18.7502 13.731 18.7135 13.6144 18.6438C13.4977 18.5741 13.4022 18.474 13.338 18.3543C13.2739 18.2345 13.2434 18.0996 13.25 17.9639C13.2565 17.8282 13.2998 17.6968 13.3752 17.5837L16.599 12.75H14.0002C13.8013 12.75 13.6105 12.671 13.4699 12.5303C13.3292 12.3897 13.2502 12.1989 13.2502 12C13.2502 11.8011 13.3292 11.6103 13.4699 11.4697C13.6105 11.329 13.8013 11.25 14.0002 11.25H18.0002C18.1361 11.2498 18.2695 11.2865 18.3861 11.3562C18.5027 11.4259 18.5982 11.526 18.6624 11.6457C18.7266 11.7655 18.757 11.9004 18.7505 12.0361C18.7439 12.1718 18.7006 12.3032 18.6252 12.4163L15.4015 17.25H18.0002C18.1991 17.25 18.3899 17.329 18.5306 17.4697C18.6712 17.6103 18.7502 17.8011 18.7502 18ZM27.514 23.875C27.3623 24.142 27.1422 24.3639 26.8764 24.5177C26.6106 24.6714 26.3086 24.7516 26.0015 24.75H20.6902C20.5081 25.8618 19.9366 26.8727 19.078 27.6021C18.2193 28.3315 17.1294 28.732 16.0027 28.732C14.8761 28.732 13.7861 28.3315 12.9275 27.6021C12.0688 26.8727 11.4974 25.8618 11.3152 24.75H6.00022C5.69261 24.7494 5.3906 24.6676 5.12464 24.5131C4.85867 24.3585 4.63814 24.1366 4.48528 23.8696C4.33242 23.6027 4.25262 23.3002 4.25392 22.9926C4.25523 22.685 4.33759 22.3831 4.49272 22.1175C5.19897 20.9 6.25022 17.4675 6.25022 13C6.25022 10.4141 7.27745 7.93419 9.10593 6.10571C10.9344 4.27723 13.4144 3.25 16.0002 3.25C18.5861 3.25 21.066 4.27723 22.8945 6.10571C24.723 7.93419 25.7502 10.4141 25.7502 13C25.7502 17.4662 26.8027 20.9 27.5102 22.1175C27.667 22.3837 27.75 22.6868 27.7507 22.9957C27.7514 23.3047 27.6696 23.6082 27.514 23.875ZM19.1615 24.75H12.839C13.0086 25.4608 13.4128 26.0937 13.9864 26.5466C14.56 26.9994 15.2694 27.2457 16.0002 27.2457C16.731 27.2457 17.4405 26.9994 18.014 26.5466C18.5876 26.0937 18.9919 25.4608 19.1615 24.75ZM26.2127 22.875C25.2665 21.25 24.2502 17.46 24.2502 13C24.2502 10.812 23.381 8.71354 21.8339 7.16637C20.2867 5.61919 18.1883 4.75 16.0002 4.75C13.8122 4.75 11.7138 5.61919 10.1666 7.16637C8.61941 8.71354 7.75022 10.812 7.75022 13C7.75022 17.4613 6.73272 21.25 5.78647 22.875C5.76453 22.913 5.75297 22.9561 5.75297 23C5.75297 23.0439 5.76453 23.087 5.78647 23.125C5.80706 23.1633 5.83776 23.1952 5.87523 23.2172C5.9127 23.2393 5.9555 23.2506 5.99897 23.25H26.0002C26.0437 23.2506 26.0865 23.2393 26.124 23.2172C26.1614 23.1952 26.1921 23.1633 26.2127 23.125C26.2347 23.087 26.2462 23.0439 26.2462 23C26.2462 22.9561 26.2347 22.913 26.2127 22.875Z" fill="white"/>
</svg>
