<svg width="32" height="32" viewBox="0 0 32 32" fill="none" xmlns="http://www.w3.org/2000/svg">
<path d="M20.7502 28C20.7502 28.1989 20.6712 28.3897 20.5306 28.5303C20.3899 28.671 20.1991 28.75 20.0002 28.75H12.0002C11.8013 28.75 11.6105 28.671 11.4699 28.5303C11.3292 28.3897 11.2502 28.1989 11.2502 28C11.2502 27.8011 11.3292 27.6103 11.4699 27.4697C11.6105 27.329 11.8013 27.25 12.0002 27.25H20.0002C20.1991 27.25 20.3899 27.329 20.5306 27.4697C20.6712 27.6103 20.7502 27.8011 20.7502 28ZM27.514 23.875C27.3623 24.142 27.1422 24.3639 26.8764 24.5177C26.6106 24.6714 26.3086 24.7516 26.0015 24.75H6.00022C5.69261 24.7494 5.3906 24.6676 5.12464 24.5131C4.85867 24.3585 4.63814 24.1366 4.48528 23.8696C4.33242 23.6027 4.25262 23.3002 4.25392 22.9926C4.25523 22.685 4.33759 22.3831 4.49272 22.1175C5.19897 20.9 6.25022 17.4675 6.25022 13C6.25022 10.4141 7.27745 7.93419 9.10593 6.10571C10.9344 4.27723 13.4144 3.25 16.0002 3.25C18.5861 3.25 21.066 4.27723 22.8945 6.10571C24.723 7.93419 25.7502 10.4141 25.7502 13C25.7502 17.4662 26.8027 20.9 27.5102 22.1175C27.667 22.3837 27.75 22.6868 27.7507 22.9957C27.7514 23.3047 27.6696 23.6082 27.514 23.875ZM26.2127 22.875C25.2665 21.25 24.2502 17.46 24.2502 13C24.2502 10.812 23.381 8.71354 21.8339 7.16637C20.2867 5.61919 18.1883 4.75 16.0002 4.75C13.8122 4.75 11.7138 5.61919 10.1666 7.16637C8.61941 8.71354 7.75022 10.812 7.75022 13C7.75022 17.4613 6.73272 21.25 5.78647 22.875C5.76453 22.913 5.75297 22.9561 5.75297 23C5.75297 23.0439 5.76453 23.087 5.78647 23.125C5.80706 23.1633 5.83776 23.1952 5.87523 23.2172C5.9127 23.2393 5.9555 23.2506 5.99897 23.25H26.0002C26.0437 23.2506 26.0865 23.2393 26.124 23.2172C26.1614 23.1952 26.1921 23.1633 26.2127 23.125C26.2347 23.087 26.2462 23.0439 26.2462 23C26.2462 22.9561 26.2347 22.913 26.2127 22.875Z" fill="white"/>
</svg>
