<svg width="32" height="32" viewBox="0 0 32 32" fill="none" xmlns="http://www.w3.org/2000/svg">
<path d="M6.55479 4.49997C6.41748 4.37253 6.23746 4.30108 6.05013 4.29969C5.86281 4.2983 5.68174 4.36706 5.54256 4.49245C5.40338 4.61784 5.31616 4.79077 5.29807 4.97723C5.27997 5.16368 5.33231 5.35016 5.44479 5.49997L7.66354 7.94497C6.73578 9.46763 6.24654 11.2169 6.24979 13C6.24979 17.4675 5.19729 20.9 4.48979 22.1175C4.33456 22.3833 4.25219 22.6853 4.25099 22.9932C4.24979 23.301 4.32981 23.6037 4.48297 23.8707C4.63613 24.1377 4.85701 24.3596 5.12333 24.514C5.38964 24.6684 5.69196 24.7498 5.99979 24.75H11.3123C11.4945 25.8618 12.0659 26.8727 12.9245 27.6021C13.7832 28.3315 14.8731 28.732 15.9998 28.732C17.1264 28.732 18.2164 28.3315 19.075 27.6021C19.9337 26.8727 20.5051 25.8618 20.6873 24.75H22.9373L25.4373 27.5C25.5712 27.6472 25.7581 27.7351 25.9569 27.7445C26.1557 27.7539 26.3501 27.6839 26.4973 27.55C26.6445 27.416 26.7324 27.2291 26.7418 27.0303C26.7512 26.8315 26.6812 26.6372 26.5473 26.49L6.55479 4.49997ZM15.9998 27.25C15.2684 27.2497 14.5585 27.0028 13.9848 26.5492C13.4112 26.0955 13.0073 25.4616 12.8385 24.75H19.161C18.9923 25.4616 18.5884 26.0955 18.0147 26.5492C17.4411 27.0028 16.7312 27.2497 15.9998 27.25ZM5.99979 23.25C5.95632 23.2506 5.91352 23.2392 5.87605 23.2172C5.83858 23.1952 5.80788 23.1633 5.78729 23.125C5.76534 23.087 5.75379 23.0439 5.75379 23C5.75379 22.9561 5.76534 22.913 5.78729 22.875C6.73229 21.25 7.74979 17.4612 7.74979 13C7.7472 11.6428 8.08135 10.3062 8.72229 9.10997L21.5773 23.25H5.99979ZM26.661 22.1725C26.5736 22.2074 26.4802 22.2253 26.386 22.225C26.2354 22.2248 26.0883 22.1793 25.9639 22.0944C25.8395 22.0094 25.7435 21.889 25.6885 21.7487C24.7885 19.46 24.2523 16.1887 24.2523 12.9987C24.2526 11.5556 23.8745 10.1377 23.1555 8.88643C22.4365 7.63518 21.4019 6.59442 20.155 5.86803C18.908 5.14164 17.4923 4.75504 16.0492 4.74683C14.6062 4.73861 13.1862 5.10907 11.931 5.82122C11.8453 5.87209 11.7503 5.90537 11.6516 5.91911C11.5529 5.93285 11.4524 5.92677 11.3561 5.90123C11.2597 5.8757 11.1695 5.83122 11.0905 5.77039C11.0116 5.70956 10.9455 5.6336 10.8963 5.54696C10.847 5.46031 10.8155 5.36472 10.8036 5.26576C10.7917 5.1668 10.7997 5.06646 10.827 4.97061C10.8543 4.87476 10.9005 4.78532 10.9628 4.70752C11.0251 4.62971 11.1022 4.56511 11.1898 4.51747C12.6731 3.67621 14.3511 3.23869 16.0563 3.24858C17.7616 3.25847 19.4344 3.71543 20.9079 4.57384C22.3813 5.43226 23.6038 6.66211 24.4535 8.14065C25.3031 9.61919 25.7501 11.2947 25.7498 13C25.7498 17.4625 26.7698 20.405 27.0823 21.2012C27.1547 21.3862 27.1507 21.5924 27.0713 21.7745C26.9919 21.9566 26.8434 22.0997 26.6585 22.1725H26.661Z" fill="white"/>
</svg>
