<svg width="32" height="32" viewBox="0 0 32 32" fill="none" xmlns="http://www.w3.org/2000/svg">
<path d="M27.8812 8.66625C27.705 8.75625 27.5004 8.77299 27.3119 8.71282C27.1235 8.65265 26.9664 8.52044 26.8749 8.345C25.8996 6.41904 24.4227 4.79187 22.5999 3.635C22.4341 3.52784 22.3172 3.35958 22.2746 3.16674C22.232 2.97391 22.2672 2.77206 22.3725 2.60501C22.4779 2.43797 22.6448 2.31921 22.8372 2.2745C23.0295 2.2298 23.2317 2.26277 23.3999 2.36625C25.4412 3.67202 27.0983 5.49737 28.2012 7.655C28.2466 7.74241 28.2743 7.83791 28.2828 7.93604C28.2913 8.03416 28.2803 8.133 28.2506 8.2269C28.2209 8.32081 28.173 8.40794 28.1096 8.48332C28.0462 8.55871 27.9686 8.62087 27.8812 8.66625ZM5.12495 8.345C6.10032 6.41904 7.57721 4.79187 9.39994 3.635C9.56582 3.52784 9.68273 3.35958 9.72531 3.16674C9.76789 2.97391 9.73269 2.77206 9.62736 2.60501C9.52204 2.43797 9.35507 2.31921 9.16272 2.2745C8.97036 2.2298 8.76814 2.26277 8.59995 2.36625C6.55869 3.67202 4.9016 5.49737 3.7987 7.655C3.74352 7.74274 3.70713 7.84097 3.69182 7.94347C3.67651 8.04598 3.68261 8.15055 3.70975 8.25058C3.73688 8.35062 3.78445 8.44394 3.84945 8.52466C3.91446 8.60539 3.99549 8.67176 4.08744 8.7196C4.17939 8.76743 4.28025 8.79569 4.38367 8.80259C4.48708 8.80949 4.5908 8.79488 4.68829 8.75969C4.78578 8.72449 4.87491 8.66947 4.95007 8.59809C5.02522 8.52672 5.08477 8.44054 5.12495 8.345ZM27.4999 22.1175C27.6548 22.3826 27.7371 22.6837 27.7388 22.9907C27.7404 23.2977 27.6612 23.5997 27.5093 23.8664C27.3573 24.1331 27.1378 24.3552 26.8729 24.5103C26.608 24.6654 26.3069 24.748 25.9999 24.75H20.6874C20.5053 25.8618 19.9339 26.8727 19.0752 27.6021C18.2166 28.3315 17.1266 28.732 15.9999 28.732C14.8733 28.732 13.7833 28.3315 12.9247 27.6021C12.066 26.8727 11.4946 25.8618 11.3124 24.75H5.99995C5.69233 24.7494 5.39033 24.6676 5.12436 24.5131C4.8584 24.3585 4.63787 24.1366 4.48501 23.8696C4.33214 23.6027 4.25234 23.3002 4.25365 22.9926C4.25495 22.685 4.33732 22.3831 4.49244 22.1175C5.64119 20.1363 6.24995 17.3288 6.24995 14C6.24995 11.4141 7.27717 8.93419 9.10565 7.10571C10.9341 5.27723 13.4141 4.25 15.9999 4.25C18.5858 4.25 21.0658 5.27723 22.8942 7.10571C24.7227 8.93419 25.7499 11.4141 25.7499 14C25.7499 17.375 26.3424 20.1075 27.5099 22.1175H27.4999ZM19.1612 24.75H12.8387C13.0083 25.4608 13.4125 26.0938 13.9861 26.5466C14.5597 26.9994 15.2692 27.2457 15.9999 27.2457C16.7307 27.2457 17.4402 26.9994 18.0138 26.5466C18.5874 26.0938 18.9916 25.4608 19.1612 24.75ZM26.2137 22.875C24.9112 20.625 24.2499 17.6438 24.2499 14C24.2499 11.812 23.3808 9.71355 21.8336 8.16637C20.2864 6.6192 18.188 5.75 15.9999 5.75C13.8119 5.75 11.7135 6.6192 10.1663 8.16637C8.61914 9.71355 7.74995 11.812 7.74995 14C7.74995 17.645 7.0887 20.625 5.7862 22.875C5.76425 22.913 5.7527 22.9561 5.7527 23C5.7527 23.0439 5.76425 23.087 5.7862 23.125C5.80678 23.1633 5.83748 23.1952 5.87496 23.2172C5.91243 23.2393 5.95523 23.2506 5.9987 23.25H25.9999C26.0434 23.2506 26.0862 23.2393 26.1237 23.2172C26.1612 23.1952 26.1919 23.1633 26.2124 23.125C26.2346 23.0871 26.2463 23.0441 26.2466 23.0002C26.2468 22.9563 26.2354 22.9131 26.2137 22.875Z" fill="white"/>
</svg>
