<svg width="32" height="32" viewBox="0 0 32 32" fill="none" xmlns="http://www.w3.org/2000/svg">
<path d="M31 20.25H23.75V11.75H31C31.1989 11.75 31.3897 11.671 31.5303 11.5303C31.671 11.3897 31.75 11.1989 31.75 11C31.75 10.8011 31.671 10.6103 31.5303 10.4697C31.3897 10.329 31.1989 10.25 31 10.25H23.5788C23.437 9.95116 23.2135 9.69861 22.934 9.52162C22.6546 9.34463 22.3308 9.25045 22 9.25H14C13.6692 9.25045 13.3454 9.34463 13.066 9.52162C12.7865 9.69861 12.563 9.95116 12.4213 10.25H7.75V10C7.75 9.80109 7.67098 9.61032 7.53033 9.46967C7.38968 9.32902 7.19891 9.25 7 9.25C6.80109 9.25 6.61032 9.32902 6.46967 9.46967C6.32902 9.61032 6.25 9.80109 6.25 10V10.25H1C0.801088 10.25 0.610322 10.329 0.46967 10.4697C0.329018 10.6103 0.25 10.8011 0.25 11C0.25 11.1989 0.329018 11.3897 0.46967 11.5303C0.610322 11.671 0.801088 11.75 1 11.75H6.25V20.25H1C0.801088 20.25 0.610322 20.329 0.46967 20.4697C0.329018 20.6103 0.25 20.8011 0.25 21C0.25 21.1989 0.329018 21.3897 0.46967 21.5303C0.610322 21.671 0.801088 21.75 1 21.75H6.25V22C6.25 22.1989 6.32902 22.3897 6.46967 22.5303C6.61032 22.671 6.80109 22.75 7 22.75C7.19891 22.75 7.38968 22.671 7.53033 22.5303C7.67098 22.3897 7.75 22.1989 7.75 22V21.75H12.4213C12.563 22.0488 12.7865 22.3014 13.066 22.4784C13.3454 22.6554 13.6692 22.7495 14 22.75H22C22.3308 22.7495 22.6546 22.6554 22.934 22.4784C23.2135 22.3014 23.437 22.0488 23.5788 21.75H31C31.1989 21.75 31.3897 21.671 31.5303 21.5303C31.671 21.3897 31.75 21.1989 31.75 21C31.75 20.8011 31.671 20.6103 31.5303 20.4697C31.3897 20.329 31.1989 20.25 31 20.25ZM7.75 11.75H12.25V20.25H7.75V11.75ZM22 21.25H14C13.9337 21.25 13.8701 21.2237 13.8232 21.1768C13.7763 21.1299 13.75 21.0663 13.75 21V11C13.75 10.9337 13.7763 10.8701 13.8232 10.8232C13.8701 10.7763 13.9337 10.75 14 10.75H22C22.0663 10.75 22.1299 10.7763 22.1768 10.8232C22.2237 10.8701 22.25 10.9337 22.25 11V15.25H18C17.8011 15.25 17.6103 15.329 17.4697 15.4697C17.329 15.6103 17.25 15.8011 17.25 16C17.25 16.1989 17.329 16.3897 17.4697 16.5303C17.6103 16.671 17.8011 16.75 18 16.75H22.25V21C22.25 21.0663 22.2237 21.1299 22.1768 21.1768C22.1299 21.2237 22.0663 21.25 22 21.25Z" fill="white"/>
</svg>
