<svg width="32" height="32" viewBox="0 0 32 32" fill="none" xmlns="http://www.w3.org/2000/svg">
<path d="M25.9999 14.25C25.2358 14.2495 24.4794 14.4016 23.7749 14.6975L20.3062 8.75H23.9999C24.3314 8.75 24.6494 8.8817 24.8838 9.11612C25.1182 9.35054 25.2499 9.66848 25.2499 10C25.2499 10.1989 25.3289 10.3897 25.4696 10.5303C25.6102 10.671 25.801 10.75 25.9999 10.75C26.1988 10.75 26.3896 10.671 26.5302 10.5303C26.6709 10.3897 26.7499 10.1989 26.7499 10C26.7499 9.27065 26.4602 8.57118 25.9445 8.05546C25.4287 7.53973 24.7293 7.25 23.9999 7.25H18.9999C18.8684 7.25035 18.7393 7.28527 18.6256 7.35124C18.5119 7.41721 18.4175 7.51192 18.3519 7.62587C18.2863 7.73983 18.2518 7.86902 18.2519 8.0005C18.252 8.13199 18.2867 8.26113 18.3524 8.375L20.0274 11.25H12.2637L10.1474 7.625C10.0818 7.51128 9.98739 7.41679 9.87376 7.35098C9.76014 7.28518 9.63122 7.25035 9.49991 7.25H5.99991C5.801 7.25 5.61023 7.32902 5.46958 7.46967C5.32893 7.61032 5.24991 7.80109 5.24991 8C5.24991 8.19891 5.32893 8.38968 5.46958 8.53033C5.61023 8.67098 5.801 8.75 5.99991 8.75H9.06866L10.9437 11.955L8.74991 14.9525C7.46369 14.2465 5.95704 14.0563 4.53572 14.4205C3.11441 14.7847 1.88491 15.6761 1.09674 16.9137C0.308579 18.1512 0.020801 19.6423 0.291811 21.0843C0.562821 22.5263 1.37232 23.8112 2.55601 24.6782C3.73971 25.5452 5.20893 25.9293 6.66549 25.7527C8.12206 25.576 9.45686 24.8518 10.399 23.727C11.3411 22.6022 11.82 21.1611 11.7385 19.6961C11.6569 18.2311 11.0211 16.852 9.95991 15.8387L11.7637 13.375L15.8524 20.375C15.9182 20.4889 16.0127 20.5835 16.1266 20.6493C16.2405 20.7151 16.3696 20.7499 16.5012 20.75C16.6331 20.7499 16.7626 20.7145 16.8762 20.6475C17.0478 20.5473 17.1726 20.3831 17.2232 20.1909C17.2739 19.9987 17.2461 19.7943 17.1462 19.6225L13.1374 12.7475H20.9012L22.4799 15.455C21.4037 16.289 20.6584 17.4778 20.3766 18.8099C20.0948 20.1419 20.2948 21.5308 20.941 22.7292C21.5872 23.9276 22.6378 24.8578 23.9056 25.3542C25.1734 25.8506 26.5762 25.881 27.8643 25.4401C29.1525 24.9991 30.2424 24.1153 30.94 22.9461C31.6376 21.7769 31.8976 20.398 31.6739 19.055C31.4501 17.712 30.757 16.4919 29.718 15.612C28.679 14.7321 27.3614 14.2495 25.9999 14.25ZM10.2499 20C10.2501 20.9227 9.94994 21.8204 9.39486 22.5575C8.83978 23.2945 8.0599 23.8309 7.17305 24.0856C6.2862 24.3403 5.34055 24.2995 4.47896 23.9693C3.61737 23.6391 2.88664 23.0374 2.39718 22.2552C1.90771 21.4731 1.68609 20.5528 1.7658 19.6336C1.84551 18.7143 2.22221 17.846 2.83901 17.1597C3.4558 16.4735 4.27918 16.0066 5.18475 15.8296C6.09032 15.6527 7.02888 15.7752 7.85866 16.1787L5.39366 19.5537C5.2763 19.7145 5.22762 19.9154 5.25833 20.112C5.28904 20.3087 5.39662 20.4851 5.55741 20.6025C5.7182 20.7199 5.91902 20.7685 6.1157 20.7378C6.31238 20.7071 6.4888 20.5995 6.60616 20.4387L9.06866 17.0637C9.82708 17.8531 10.2504 18.9054 10.2499 20ZM25.9999 24.25C25.1316 24.2481 24.2847 23.9803 23.5731 23.4826C22.8616 22.9849 22.3196 22.2811 22.02 21.4661C21.7205 20.6511 21.6778 19.7638 21.8977 18.9238C22.1175 18.0838 22.5895 17.3313 23.2499 16.7675L25.3524 20.375C25.4182 20.4889 25.5127 20.5835 25.6266 20.6493C25.7405 20.7151 25.8696 20.7499 26.0012 20.75C26.1331 20.7499 26.2626 20.7145 26.3762 20.6475C26.5478 20.5473 26.6726 20.3831 26.7232 20.1909C26.7739 19.9987 26.7461 19.7943 26.6462 19.6225L24.5387 16.0088C25.1217 15.7954 25.7444 15.7124 26.363 15.7656C26.9816 15.8188 27.581 16.0069 28.1191 16.3166C28.6572 16.6263 29.1209 17.0502 29.4776 17.5584C29.8343 18.0665 30.0753 18.6467 30.1837 19.258C30.2921 19.8693 30.2652 20.497 30.105 21.0968C29.9447 21.6966 29.655 22.2541 29.2562 22.7299C28.8574 23.2058 28.3592 23.5885 27.7966 23.8511C27.2341 24.1137 26.6208 24.2499 25.9999 24.25Z" fill="white"/>
</svg>
