<svg width="32" height="32" viewBox="0 0 32 32" fill="none" xmlns="http://www.w3.org/2000/svg">
<path d="M15.2188 5.15125C14.4025 3.9075 13.2025 3.25 11.75 3.25C10.2975 3.25 9.0975 3.9075 8.28125 5.15125C7.61625 6.16375 7.25 7.53125 7.25 9C7.25 10.4687 7.61625 11.8362 8.28125 12.8487C9.0975 14.0925 10.2975 14.75 11.75 14.75C13.2025 14.75 14.4025 14.0925 15.2188 12.8487C15.8837 11.8362 16.25 10.4737 16.25 9C16.25 7.52625 15.8837 6.16375 15.2188 5.15125ZM11.75 13.25C9.375 13.25 8.75 10.5787 8.75 9C8.75 7.42125 9.375 4.75 11.75 4.75C14.125 4.75 14.75 7.42125 14.75 9C14.75 10.5787 14.125 13.25 11.75 13.25ZM24.2188 19.1512C23.4025 17.9075 22.2025 17.25 20.75 17.25C19.2975 17.25 18.0975 17.9075 17.2812 19.1512C16.6163 20.1637 16.25 21.5262 16.25 23C16.25 24.4737 16.6163 25.8362 17.2812 26.8487C18.0975 28.0987 19.2975 28.75 20.75 28.75C22.2025 28.75 23.4025 28.0925 24.2188 26.8487C24.8838 25.8362 25.25 24.4737 25.25 23C25.25 21.5262 24.8838 20.1637 24.2188 19.1512ZM20.75 27.25C18.3813 27.25 17.75 24.5787 17.75 23C17.75 21.4212 18.3813 18.75 20.75 18.75C23.1187 18.75 23.75 21.4212 23.75 23C23.75 24.5787 23.125 27.25 20.75 27.25ZM18.3438 6.03125C18.2959 5.94508 18.2656 5.85033 18.2544 5.75242C18.2432 5.65451 18.2515 5.55536 18.2786 5.46063C18.3058 5.36591 18.3514 5.27746 18.4127 5.20035C18.4741 5.12324 18.55 5.05899 18.6362 5.01125L21.6362 3.34375C21.7505 3.28041 21.8792 3.24799 22.0098 3.2497C22.1404 3.2514 22.2682 3.28717 22.3807 3.35346C22.4932 3.41976 22.5865 3.51428 22.6513 3.62767C22.716 3.74107 22.7501 3.86941 22.75 4V14C22.75 14.1989 22.671 14.3897 22.5303 14.5303C22.3897 14.671 22.1989 14.75 22 14.75C21.8011 14.75 21.6103 14.671 21.4697 14.5303C21.329 14.3897 21.25 14.1989 21.25 14V5.275L19.3638 6.3225C19.2777 6.37036 19.183 6.40079 19.0851 6.41206C18.9873 6.42332 18.8881 6.4152 18.7934 6.38815C18.6987 6.36111 18.6102 6.31567 18.5331 6.25443C18.4559 6.19319 18.3916 6.11735 18.3438 6.03125ZM12.75 18V28C12.75 28.1989 12.671 28.3897 12.5303 28.5303C12.3897 28.671 12.1989 28.75 12 28.75C11.8011 28.75 11.6103 28.671 11.4697 28.5303C11.329 28.3897 11.25 28.1989 11.25 28V19.275L9.36375 20.3225C9.27749 20.3732 9.18196 20.4061 9.08279 20.4193C8.98361 20.4325 8.8828 20.4257 8.78629 20.3994C8.68977 20.373 8.59951 20.3276 8.5208 20.2658C8.4421 20.2041 8.37655 20.1272 8.32801 20.0397C8.27947 19.9522 8.24893 19.8559 8.23818 19.7564C8.22743 19.657 8.23668 19.5564 8.26541 19.4605C8.29413 19.3647 8.34174 19.2756 8.40543 19.1984C8.46911 19.1213 8.5476 19.0576 8.63625 19.0112L11.6362 17.3437C11.7505 17.2804 11.8792 17.248 12.0098 17.2497C12.1404 17.2514 12.2682 17.2872 12.3807 17.3535C12.4932 17.4198 12.5865 17.5143 12.6513 17.6277C12.716 17.7411 12.7501 17.8694 12.75 18Z" fill="white"/>
</svg>
