<svg width="32" height="32" viewBox="0 0 32 32" fill="none" xmlns="http://www.w3.org/2000/svg">
<path d="M23.0438 13.2724C22.8979 12.9561 22.7309 12.65 22.5438 12.3562C23.3512 10.6605 23.4691 8.7177 22.8727 6.93683C22.2763 5.15596 21.0121 3.67603 19.3463 2.80867C19.2587 2.76011 19.1622 2.72958 19.0627 2.71889C18.9631 2.70819 18.8624 2.71755 18.7665 2.7464C18.6706 2.77525 18.5814 2.82302 18.5043 2.88688C18.4272 2.95074 18.3636 3.02941 18.3173 3.11823C18.2711 3.20706 18.2431 3.30424 18.235 3.40406C18.2269 3.50388 18.2389 3.60431 18.2703 3.69942C18.3016 3.79453 18.3517 3.88239 18.4176 3.95784C18.4834 4.03328 18.5637 4.09477 18.6537 4.13867C19.8601 4.76676 20.8047 5.80211 21.3198 7.06081C21.835 8.3195 21.8873 9.72005 21.4675 11.0137C20.0168 9.56383 18.0497 8.74938 15.9987 8.74938C13.9478 8.74938 11.9807 9.56383 10.53 11.0137C10.1104 9.71976 10.1631 8.31899 10.6787 7.06026C11.1943 5.80153 12.1395 4.76635 13.3462 4.13867C13.5172 4.04387 13.6444 3.88604 13.7008 3.69882C13.7571 3.5116 13.7381 3.30979 13.6478 3.13638C13.5575 2.96296 13.4031 2.83166 13.2174 2.77045C13.0317 2.70924 12.8295 2.72295 12.6538 2.80867C10.9871 3.67583 9.72214 5.1561 9.12544 6.93758C8.52874 8.71905 8.64689 10.6626 9.455 12.3587C9.26759 12.6514 9.10053 12.9567 8.955 13.2724C7.13268 13.4116 5.42994 14.2331 4.18695 15.573C2.94396 16.9128 2.25225 18.6723 2.25 20.4999C2.25 20.6988 2.32902 20.8896 2.46967 21.0303C2.61032 21.1709 2.80109 21.2499 3 21.2499C3.19891 21.2499 3.38968 21.1709 3.53033 21.0303C3.67098 20.8896 3.75 20.6988 3.75 20.4999C3.75206 19.1614 4.22022 17.8654 5.07404 16.8346C5.92786 15.8037 7.11403 15.1024 8.42875 14.8512C8.00082 16.8079 8.34771 18.8543 9.39657 20.5607C10.4454 22.267 12.1147 23.5006 14.0538 24.0024C13.1775 25.1423 11.906 25.9125 10.4899 26.1612C9.07388 26.4099 7.61601 26.1191 6.40375 25.3462C6.23617 25.2388 6.03278 25.2023 5.83833 25.2449C5.64387 25.2874 5.47429 25.4055 5.36688 25.573C5.25946 25.7406 5.22302 25.944 5.26557 26.1385C5.30812 26.3329 5.42617 26.5025 5.59375 26.6099C6.40951 27.131 7.32137 27.4835 8.27554 27.6466C9.22971 27.8096 10.2069 27.7799 11.1494 27.5593C12.0919 27.3386 12.9807 26.9315 13.7633 26.3618C14.546 25.7921 15.2066 25.0715 15.7063 24.2424C15.8025 24.2424 15.9 24.2499 15.9987 24.2499C16.0975 24.2499 16.195 24.2499 16.2913 24.2424C16.7909 25.0715 17.4515 25.7921 18.2342 26.3618C19.0168 26.9315 19.9056 27.3386 20.8481 27.5593C21.7906 27.7799 22.7678 27.8096 23.722 27.6466C24.6761 27.4835 25.588 27.131 26.4037 26.6099C26.5713 26.5025 26.6894 26.3329 26.7319 26.1385C26.7745 25.944 26.738 25.7406 26.6306 25.573C26.5232 25.4055 26.3536 25.2874 26.1592 25.2449C25.9647 25.2023 25.7613 25.2388 25.5938 25.3462C24.3813 26.1185 22.9235 26.4087 21.5077 26.1595C20.092 25.9103 18.8209 25.1398 17.945 23.9999C19.8841 23.4981 21.5533 22.2645 22.6022 20.5582C23.651 18.8518 23.9979 16.8054 23.57 14.8487C24.8854 15.0998 26.0722 15.8013 26.9263 16.8327C27.7804 17.8641 28.2485 19.1608 28.25 20.4999C28.25 20.6988 28.329 20.8896 28.4697 21.0303C28.6103 21.1709 28.8011 21.2499 29 21.2499C29.1989 21.2499 29.3897 21.1709 29.5303 21.0303C29.671 20.8896 29.75 20.6988 29.75 20.4999C29.7477 18.6721 29.0558 16.9124 27.8126 15.5726C26.5693 14.2327 24.8663 13.4113 23.0438 13.2724ZM16 10.2499C16.9065 10.2498 17.8021 10.4473 18.6244 10.8288C19.4467 11.2102 20.176 11.7665 20.7612 12.4587C20.2345 13.237 19.525 13.8743 18.6948 14.3149C17.8647 14.7554 16.9392 14.9858 15.9994 14.9858C15.0596 14.9858 14.1341 14.7554 13.3039 14.3149C12.4738 13.8743 11.7643 13.237 11.2375 12.4587C11.8229 11.7662 12.5523 11.2099 13.3748 10.8284C14.1974 10.4469 15.0933 10.2495 16 10.2499ZM16.475 16.4737C16.2986 16.7361 16.1399 17.0101 16 17.2937C15.86 17.0103 15.7018 16.7364 15.5262 16.4737C15.6825 16.4837 15.84 16.4899 15.9987 16.4899C16.1575 16.4899 16.3175 16.4837 16.475 16.4737ZM9.75 16.4999C9.75159 15.9152 9.83575 15.3336 10 14.7724C11.4322 14.8992 12.7652 15.5572 13.7367 16.6171C14.7083 17.677 15.2481 19.0621 15.25 20.4999C15.2507 21.2333 15.1097 21.9599 14.835 22.6399C13.4059 22.3671 12.1165 21.6048 11.1884 20.4843C10.2604 19.3637 9.75179 17.9549 9.75 16.4999ZM17.165 22.6399C16.8903 21.9599 16.7493 21.2333 16.75 20.4999C16.7519 19.0621 17.2917 17.677 18.2633 16.6171C19.2348 15.5572 20.5678 14.8992 22 14.7724C22.2403 15.6079 22.3036 16.4843 22.1859 17.3456C22.0683 18.2069 21.7723 19.0342 21.3168 19.7746C20.8613 20.515 20.2563 21.1523 19.5406 21.6457C18.8248 22.139 18.014 22.4777 17.16 22.6399H17.165Z" fill="white"/>
</svg>
