<svg width="32" height="32" viewBox="0 0 32 32" fill="none" xmlns="http://www.w3.org/2000/svg">
<path d="M21.7502 8.5C21.7502 8.74723 21.6768 8.9889 21.5395 9.19446C21.4021 9.40002 21.2069 9.56024 20.9785 9.65485C20.7501 9.74946 20.4988 9.77421 20.2563 9.72598C20.0138 9.67775 19.7911 9.5587 19.6163 9.38388C19.4415 9.20907 19.3224 8.98634 19.2742 8.74386C19.2259 8.50139 19.2507 8.25005 19.3453 8.02165C19.4399 7.79324 19.6001 7.59802 19.8057 7.46066C20.0113 7.32331 20.2529 7.25 20.5002 7.25C20.8317 7.25 21.1496 7.3817 21.384 7.61612C21.6185 7.85054 21.7502 8.16848 21.7502 8.5ZM29.7502 10C29.7503 10.1236 29.72 10.2454 29.6617 10.3544C29.6035 10.4634 29.5192 10.5564 29.4164 10.625L26.7502 12.4012V15C26.7462 18.3803 25.4016 21.621 23.0114 24.0112C20.6212 26.4015 17.3804 27.746 14.0002 27.75H3.00016C2.67044 27.75 2.34743 27.6569 2.06833 27.4814C1.78923 27.3058 1.56539 27.055 1.42261 26.7578C1.27982 26.4606 1.2239 26.1292 1.26129 25.8016C1.29867 25.474 1.42784 25.1636 1.63391 24.9062L1.64266 24.895L12.2502 12.1687V9.61125C12.2502 5.57125 15.4864 2.26875 19.4652 2.25H19.5002C21.0552 2.24953 22.5691 2.74904 23.8185 3.67479C25.068 4.60054 25.9866 5.90347 26.4389 7.39125L29.4164 9.375C29.5192 9.44361 29.6035 9.53656 29.6617 9.6456C29.72 9.75465 29.7503 9.87639 29.7502 10ZM27.6477 10L25.3752 8.485C25.2219 8.38296 25.1116 8.22813 25.0652 8.05C24.7442 6.81845 24.0238 5.72817 23.0167 4.95002C22.0096 4.17187 20.7728 3.74982 19.5002 3.75H19.4714C16.3164 3.765 13.7502 6.395 13.7502 9.61125V12.44C13.7504 12.6158 13.6889 12.7862 13.5764 12.9213L2.80391 25.8475C2.77552 25.8844 2.75798 25.9284 2.75328 25.9747C2.74858 26.021 2.75689 26.0677 2.77729 26.1096C2.79769 26.1514 2.82935 26.1867 2.86873 26.2115C2.9081 26.2363 2.95362 26.2497 3.00016 26.25H6.48266L15.4239 15.52C15.5518 15.369 15.7341 15.2746 15.9312 15.2574C16.1284 15.2403 16.3243 15.3017 16.4763 15.4283C16.6284 15.555 16.7242 15.7366 16.7429 15.9336C16.7617 16.1305 16.7018 16.327 16.5764 16.48L8.43516 26.25H14.0002C16.9828 26.2467 19.8424 25.0604 21.9515 22.9513C24.0605 20.8422 25.2468 17.9827 25.2502 15V12C25.25 11.8764 25.2803 11.7546 25.3386 11.6456C25.3968 11.5366 25.4811 11.4436 25.5839 11.375L27.6477 10Z" fill="white"/>
</svg>
