<svg width="32" height="32" viewBox="0 0 32 32" fill="none" xmlns="http://www.w3.org/2000/svg">
<path d="M27.5551 26.5L7.55515 4.5C7.41785 4.37256 7.23782 4.30111 7.0505 4.29972C6.86317 4.29833 6.6821 4.36709 6.54292 4.49248C6.40374 4.61787 6.31653 4.7908 6.29843 4.97726C6.28034 5.16371 6.33267 5.35019 6.44515 5.5L15.4851 15.4438L7.55015 21.4C7.39102 21.5193 7.28582 21.697 7.25769 21.8939C7.22956 22.0908 7.2808 22.2909 7.40015 22.45C7.5195 22.6091 7.69717 22.7143 7.89408 22.7425C8.091 22.7706 8.29102 22.7193 8.45015 22.6L15.2501 17.5V28C15.2501 28.1393 15.2889 28.2758 15.3622 28.3943C15.4354 28.5128 15.5402 28.6085 15.6647 28.6708C15.7893 28.7331 15.9288 28.7595 16.0675 28.747C16.2062 28.7345 16.3387 28.6836 16.4501 28.6L22.9851 23.6987L26.4451 27.5C26.5791 27.6472 26.766 27.7352 26.9648 27.7445C27.1636 27.7539 27.358 27.6839 27.5051 27.55C27.6523 27.4161 27.7403 27.2291 27.7497 27.0304C27.7591 26.8316 27.6891 26.6372 27.5551 26.49V26.5ZM16.7501 26.5V17.5L18.6364 18.9137L21.9714 22.5837L16.7501 26.5ZM15.2501 8.95375V4C15.2501 3.86072 15.2889 3.72418 15.3622 3.6057C15.4354 3.48722 15.5402 3.39147 15.6647 3.32918C15.7893 3.26689 15.9288 3.24052 16.0675 3.25303C16.2062 3.26554 16.3387 3.31643 16.4501 3.4L24.4501 9.4C24.5433 9.46986 24.6189 9.56045 24.671 9.66459C24.723 9.76873 24.7501 9.88357 24.7501 10C24.7501 10.1164 24.723 10.2313 24.671 10.3354C24.6189 10.4396 24.5433 10.5301 24.4501 10.6L20.2589 13.75C20.0998 13.8693 19.8997 13.9206 19.7028 13.8925C19.5059 13.8643 19.3282 13.7591 19.2089 13.6C19.0896 13.4409 19.0383 13.2408 19.0664 13.0439C19.0946 12.847 19.1998 12.6693 19.3589 12.55L22.7501 10L16.7501 5.5V8.95375C16.7501 9.15266 16.6711 9.34343 16.5305 9.48408C16.3898 9.62473 16.1991 9.70375 16.0001 9.70375C15.8012 9.70375 15.6105 9.62473 15.4698 9.48408C15.3292 9.34343 15.2501 9.15266 15.2501 8.95375Z" fill="white"/>
</svg>
