<svg width="32" height="32" viewBox="0 0 32 32" fill="none" xmlns="http://www.w3.org/2000/svg">
<path d="M29 7.25H8.75V5C8.75 4.80109 8.67098 4.61032 8.53033 4.46967C8.38968 4.32902 8.19891 4.25 8 4.25H6C5.00544 4.25 4.05161 4.64509 3.34835 5.34835C2.64509 6.05161 2.25 7.00544 2.25 8V22C2.25 22.9946 2.64509 23.9484 3.34835 24.6517C4.05161 25.3549 5.00544 25.75 6 25.75H29C29.1989 25.75 29.3897 25.671 29.5303 25.5303C29.671 25.3897 29.75 25.1989 29.75 25V8C29.75 7.80109 29.671 7.61032 29.5303 7.46967C29.3897 7.32902 29.1989 7.25 29 7.25ZM3.75 8C3.75 7.40326 3.98705 6.83097 4.40901 6.40901C4.83097 5.98705 5.40326 5.75 6 5.75H7.25V18.25H6C5.18842 18.2488 4.39856 18.5121 3.75 19V8ZM28.25 24.25H6C5.40326 24.25 4.83097 24.0129 4.40901 23.591C3.98705 23.169 3.75 22.5967 3.75 22C3.75 21.4033 3.98705 20.831 4.40901 20.409C4.83097 19.9871 5.40326 19.75 6 19.75H8C8.19891 19.75 8.38968 19.671 8.53033 19.5303C8.67098 19.3897 8.75 19.1989 8.75 19V8.75H28.25V24.25ZM13 17.25C12.8011 17.25 12.6103 17.329 12.4697 17.4697C12.329 17.6103 12.25 17.8011 12.25 18C12.25 18.1989 12.329 18.3897 12.4697 18.5303C12.6103 18.671 12.8011 18.75 13 18.75H15.25V20C15.25 20.1989 15.329 20.3897 15.4697 20.5303C15.6103 20.671 15.8011 20.75 16 20.75C16.1989 20.75 16.3897 20.671 16.5303 20.5303C16.671 20.3897 16.75 20.1989 16.75 20V18.75H20.25V20C20.25 20.1989 20.329 20.3897 20.4697 20.5303C20.6103 20.671 20.8011 20.75 21 20.75C21.1989 20.75 21.3897 20.671 21.5303 20.5303C21.671 20.3897 21.75 20.1989 21.75 20V18.75H24C24.1989 18.75 24.3897 18.671 24.5303 18.5303C24.671 18.3897 24.75 18.1989 24.75 18C24.75 17.8011 24.671 17.6103 24.5303 17.4697C24.3897 17.329 24.1989 17.25 24 17.25H21.75V14.75H24C24.1989 14.75 24.3897 14.671 24.5303 14.5303C24.671 14.3897 24.75 14.1989 24.75 14C24.75 13.8011 24.671 13.6103 24.5303 13.4697C24.3897 13.329 24.1989 13.25 24 13.25H21.75V12C21.75 11.8011 21.671 11.6103 21.5303 11.4697C21.3897 11.329 21.1989 11.25 21 11.25C20.8011 11.25 20.6103 11.329 20.4697 11.4697C20.329 11.6103 20.25 11.8011 20.25 12V13.25H16.75V12C16.75 11.8011 16.671 11.6103 16.5303 11.4697C16.3897 11.329 16.1989 11.25 16 11.25C15.8011 11.25 15.6103 11.329 15.4697 11.4697C15.329 11.6103 15.25 11.8011 15.25 12V13.25H13C12.8011 13.25 12.6103 13.329 12.4697 13.4697C12.329 13.6103 12.25 13.8011 12.25 14C12.25 14.1989 12.329 14.3897 12.4697 14.5303C12.6103 14.671 12.8011 14.75 13 14.75H15.25V17.25H13ZM16.75 14.75H20.25V17.25H16.75V14.75Z" fill="white"/>
</svg>
