<svg width="32" height="32" viewBox="0 0 32 32" fill="none" xmlns="http://www.w3.org/2000/svg">
<path d="M24.45 21.4L17.25 16L24.45 10.6C24.5431 10.5301 24.6187 10.4396 24.6708 10.3354C24.7229 10.2313 24.75 10.1164 24.75 10C24.75 9.88357 24.7229 9.76873 24.6708 9.66459C24.6187 9.56045 24.5431 9.46986 24.45 9.4L16.45 3.4C16.3386 3.31643 16.2061 3.26554 16.0674 3.25303C15.9286 3.24052 15.7892 3.26689 15.6646 3.32918C15.54 3.39147 15.4352 3.48722 15.362 3.6057C15.2888 3.72418 15.25 3.86072 15.25 4V14.5L8.45 9.4C8.37121 9.34091 8.28155 9.29791 8.18614 9.27347C8.09073 9.24902 7.99144 9.24361 7.89393 9.25754C7.79643 9.27147 7.70263 9.30446 7.61788 9.35464C7.53313 9.40483 7.4591 9.47121 7.4 9.55C7.34091 9.62879 7.29791 9.71846 7.27346 9.81387C7.24902 9.90928 7.24361 10.0086 7.25754 10.1061C7.27147 10.2036 7.30446 10.2974 7.35464 10.3821C7.40483 10.4669 7.47121 10.5409 7.55 10.6L14.75 16L7.55 21.4C7.47121 21.4591 7.40483 21.5331 7.35464 21.6179C7.30446 21.7026 7.27147 21.7964 7.25754 21.8939C7.24361 21.9914 7.24902 22.0907 7.27346 22.1861C7.29791 22.2815 7.34091 22.3712 7.4 22.45C7.4591 22.5288 7.53313 22.5952 7.61788 22.6454C7.70263 22.6955 7.79643 22.7285 7.89393 22.7425C7.99144 22.7564 8.09073 22.751 8.18614 22.7265C8.28155 22.7021 8.37121 22.6591 8.45 22.6L15.25 17.5V28C15.25 28.1393 15.2888 28.2758 15.362 28.3943C15.4352 28.5128 15.54 28.6085 15.6646 28.6708C15.7892 28.7331 15.9286 28.7595 16.0674 28.747C16.2061 28.7345 16.3386 28.6836 16.45 28.6L24.45 22.6C24.5431 22.5301 24.6187 22.4396 24.6708 22.3354C24.7229 22.2313 24.75 22.1164 24.75 22C24.75 21.8836 24.7229 21.7687 24.6708 21.6646C24.6187 21.5604 24.5431 21.4699 24.45 21.4ZM16.75 5.5L22.75 10L16.75 14.5V5.5ZM16.75 26.5V17.5L22.75 22L16.75 26.5Z" fill="white"/>
</svg>
