<svg width="32" height="32" viewBox="0 0 32 32" fill="none" xmlns="http://www.w3.org/2000/svg">
<path d="M24.45 21.4L17.25 16L24.45 10.6C24.5431 10.5301 24.6187 10.4396 24.6708 10.3354C24.7229 10.2313 24.75 10.1164 24.75 10C24.75 9.88357 24.7229 9.76873 24.6708 9.66459C24.6187 9.56045 24.5431 9.46986 24.45 9.4L16.45 3.4C16.3386 3.31643 16.2061 3.26554 16.0674 3.25303C15.9286 3.24052 15.7892 3.26689 15.6646 3.32918C15.54 3.39147 15.4352 3.48722 15.362 3.6057C15.2888 3.72418 15.25 3.86072 15.25 4V14.5L8.45 9.4C8.37121 9.34091 8.28155 9.29791 8.18614 9.27347C8.09073 9.24902 7.99144 9.24361 7.89393 9.25754C7.79643 9.27147 7.70263 9.30446 7.61788 9.35464C7.53313 9.40483 7.4591 9.47121 7.4 9.55C7.34091 9.62879 7.29791 9.71846 7.27347 9.81387C7.24902 9.90928 7.24361 10.0086 7.25754 10.1061C7.27147 10.2036 7.30446 10.2974 7.35465 10.3821C7.40483 10.4669 7.47121 10.5409 7.55 10.6L14.75 16L7.55 21.4C7.39087 21.5193 7.28567 21.697 7.25754 21.8939C7.22941 22.0908 7.28065 22.2909 7.4 22.45C7.51935 22.6091 7.69702 22.7143 7.89393 22.7425C8.09085 22.7706 8.29087 22.7193 8.45 22.6L15.25 17.5V28C15.25 28.1393 15.2888 28.2758 15.362 28.3943C15.4352 28.5128 15.54 28.6085 15.6646 28.6708C15.7892 28.7331 15.9286 28.7595 16.0674 28.747C16.2061 28.7345 16.3386 28.6836 16.45 28.6L24.45 22.6C24.5431 22.5301 24.6187 22.4396 24.6708 22.3354C24.7229 22.2313 24.75 22.1164 24.75 22C24.75 21.8836 24.7229 21.7687 24.6708 21.6646C24.6187 21.5604 24.5431 21.4699 24.45 21.4ZM16.75 5.5L22.75 10L16.75 14.5V5.5ZM16.75 26.5V17.5L22.75 22L16.75 26.5ZM7.5 17.25C7.25277 17.25 7.0111 17.1767 6.80554 17.0393C6.59998 16.902 6.43976 16.7068 6.34515 16.4784C6.25054 16.2499 6.22579 15.9986 6.27402 15.7561C6.32225 15.5137 6.4413 15.2909 6.61612 15.1161C6.79093 14.9413 7.01366 14.8222 7.25614 14.774C7.49861 14.7258 7.74995 14.7505 7.97836 14.8452C8.20676 14.9398 8.40199 15.1 8.53934 15.3055C8.67669 15.5111 8.75 15.7528 8.75 16C8.75 16.3315 8.6183 16.6495 8.38388 16.8839C8.14946 17.1183 7.83152 17.25 7.5 17.25ZM26.75 16C26.75 16.2472 26.6767 16.4889 26.5393 16.6945C26.402 16.9 26.2068 17.0602 25.9784 17.1549C25.7499 17.2495 25.4986 17.2742 25.2561 17.226C25.0137 17.1777 24.7909 17.0587 24.6161 16.8839C24.4413 16.7091 24.3223 16.4863 24.274 16.2439C24.2258 16.0014 24.2505 15.7501 24.3451 15.5216C24.4398 15.2932 24.6 15.098 24.8055 14.9607C25.0111 14.8233 25.2528 14.75 25.5 14.75C25.8315 14.75 26.1495 14.8817 26.3839 15.1161C26.6183 15.3505 26.75 15.6685 26.75 16Z" fill="white"/>
</svg>
