<svg width="32" height="32" viewBox="0 0 32 32" fill="none" xmlns="http://www.w3.org/2000/svg">
<path d="M22.45 21.4L15.25 16L18.45 13.6C18.5288 13.5409 18.5952 13.4669 18.6454 13.3821C18.6955 13.2974 18.7285 13.2036 18.7425 13.1061C18.7564 13.0086 18.751 12.9093 18.7265 12.8139C18.7021 12.7185 18.6591 12.6288 18.6 12.55C18.5409 12.4712 18.4669 12.4048 18.3821 12.3546C18.2974 12.3045 18.2036 12.2715 18.1061 12.2575C18.0086 12.2436 17.9093 12.249 17.8139 12.2735C17.7185 12.2979 17.6288 12.3409 17.55 12.4L14.75 14.5V5.5L17.55 7.6C17.6288 7.6591 17.7185 7.70209 17.8139 7.72654C17.9093 7.75098 18.0086 7.75639 18.1061 7.74246C18.2036 7.72853 18.2974 7.69554 18.3821 7.64536C18.4669 7.59518 18.5409 7.52879 18.6 7.45C18.6591 7.37121 18.7021 7.28155 18.7265 7.18614C18.751 7.09073 18.7564 6.99144 18.7425 6.89393C18.7285 6.79643 18.6955 6.70263 18.6454 6.61788C18.5952 6.53313 18.5288 6.4591 18.45 6.4L14.45 3.4C14.3386 3.31643 14.2061 3.26554 14.0674 3.25303C13.9286 3.24052 13.7892 3.26689 13.6646 3.32918C13.54 3.39147 13.4352 3.48722 13.362 3.6057C13.2888 3.72418 13.25 3.86072 13.25 4V14.5L6.45 9.4C6.29087 9.28065 6.09085 9.22941 5.89394 9.25754C5.69702 9.28567 5.51935 9.39087 5.4 9.55C5.28066 9.70913 5.22941 9.90915 5.25754 10.1061C5.28567 10.303 5.39087 10.4807 5.55 10.6L12.75 16L5.55 21.4C5.39087 21.5193 5.28567 21.697 5.25754 21.8939C5.22941 22.0908 5.28066 22.2909 5.4 22.45C5.51935 22.6091 5.69702 22.7143 5.89394 22.7425C6.09085 22.7706 6.29087 22.7193 6.45 22.6L13.25 17.5V28C13.25 28.1393 13.2888 28.2758 13.362 28.3943C13.4352 28.5128 13.54 28.6085 13.6646 28.6708C13.7892 28.7331 13.9286 28.7595 14.0674 28.747C14.2061 28.7345 14.3386 28.6836 14.45 28.6L22.45 22.6C22.5432 22.5301 22.6188 22.4396 22.6708 22.3354C22.7229 22.2313 22.75 22.1164 22.75 22C22.75 21.8836 22.7229 21.7687 22.6708 21.6646C22.6188 21.5604 22.5432 21.4699 22.45 21.4ZM14.75 26.5V17.5L20.75 22L14.75 26.5ZM29.53 12.47C29.6037 12.5387 29.6628 12.6215 29.7038 12.7135C29.7448 12.8055 29.7668 12.9048 29.7686 13.0055C29.7704 13.1062 29.7518 13.2062 29.7141 13.2996C29.6764 13.393 29.6203 13.4778 29.549 13.549C29.4778 13.6203 29.393 13.6764 29.2996 13.7141C29.2062 13.7518 29.1062 13.7704 29.0055 13.7686C28.9048 13.7668 28.8055 13.7448 28.7135 13.7038C28.6215 13.6628 28.5387 13.6037 28.47 13.53L26 11.0613L23.53 13.53C23.3878 13.6625 23.1998 13.7346 23.0055 13.7312C22.8112 13.7277 22.6258 13.649 22.4884 13.5116C22.351 13.3742 22.2723 13.1888 22.2688 12.9945C22.2654 12.8002 22.3375 12.6122 22.47 12.47L24.9388 10L22.47 7.53C22.3375 7.38783 22.2654 7.19978 22.2688 7.00548C22.2723 6.81118 22.351 6.62579 22.4884 6.48838C22.6258 6.35097 22.8112 6.27225 23.0055 6.26883C23.1998 6.2654 23.3878 6.33752 23.53 6.47L26 8.93875L28.47 6.47C28.6122 6.33752 28.8002 6.2654 28.9945 6.26883C29.1888 6.27225 29.3742 6.35097 29.5116 6.48838C29.649 6.62579 29.7278 6.81118 29.7312 7.00548C29.7346 7.19978 29.6625 7.38783 29.53 7.53L27.0613 10L29.53 12.47Z" fill="white"/>
</svg>
