<svg width="32" height="32" viewBox="0 0 32 32" fill="none" xmlns="http://www.w3.org/2000/svg">
<path d="M27.5537 14.06L25.75 13.46V7C25.75 6.53587 25.5656 6.09075 25.2374 5.76256C24.9092 5.43437 24.4641 5.25 24 5.25H16.75V3C16.75 2.80109 16.671 2.61032 16.5303 2.46967C16.3897 2.32902 16.1989 2.25 16 2.25C15.8011 2.25 15.6103 2.32902 15.4697 2.46967C15.329 2.61032 15.25 2.80109 15.25 3V5.25H8C7.53587 5.25 7.09075 5.43437 6.76256 5.76256C6.43438 6.09075 6.25 6.53587 6.25 7V13.46L4.44625 14.06C4.0977 14.1763 3.79459 14.3993 3.57988 14.6975C3.36517 14.9956 3.24975 15.3538 3.25 15.7212V19C3.25 26.5 15.305 29.5988 15.8175 29.7275C15.9373 29.7576 16.0627 29.7576 16.1825 29.7275C18.3264 29.1489 20.3979 28.3295 22.3575 27.285C26.54 25.0187 28.75 22.155 28.75 19V15.7212C28.7502 15.3538 28.6348 14.9956 28.4201 14.6975C28.2054 14.3993 27.9023 14.1763 27.5537 14.06ZM7.75 7C7.75 6.9337 7.77634 6.87011 7.82322 6.82322C7.87011 6.77634 7.9337 6.75 8 6.75H24C24.0663 6.75 24.1299 6.77634 24.1768 6.82322C24.2237 6.87011 24.25 6.9337 24.25 7V12.96L16.2375 10.2887C16.0833 10.2373 15.9167 10.2373 15.7625 10.2887L7.75 12.96V7ZM27.25 19C27.25 24.8875 17.465 27.8175 16 28.2237C14.5338 27.8175 4.75 24.8875 4.75 19V15.7212C4.74995 15.6687 4.76647 15.6174 4.79722 15.5748C4.82796 15.5322 4.87136 15.5003 4.92125 15.4838L15.25 12.04V21C15.25 21.1989 15.329 21.3897 15.4697 21.5303C15.6103 21.671 15.8011 21.75 16 21.75C16.1989 21.75 16.3897 21.671 16.5303 21.5303C16.671 21.3897 16.75 21.1989 16.75 21V12.04L27.0788 15.4838C27.1286 15.5003 27.172 15.5322 27.2028 15.5748C27.2335 15.6174 27.25 15.6687 27.25 15.7212V19Z" fill="white"/>
</svg>
