<svg width="32" height="32" viewBox="0 0 32 32" fill="none" xmlns="http://www.w3.org/2000/svg">
<path d="M30.9999 4.25C30.801 4.25 30.6102 4.32902 30.4696 4.46967C30.3289 4.61032 30.2499 4.80109 30.2499 5C30.2271 5.76024 30.0763 6.5112 29.8037 7.22125C29.2574 8.58625 28.3399 9.25 26.9999 9.25C25.3862 9.25 24.2799 7.7025 23.1099 6.06375C21.8337 4.27625 20.3862 2.25 17.9999 2.25C16.0324 2.25 14.5812 3.2775 13.8037 5.22125C13.5509 5.87331 13.3828 6.55514 13.3037 7.25H10.9999C10.5358 7.25 10.0907 7.43437 9.76249 7.76256C9.4343 8.09075 9.24992 8.53587 9.24992 9V10.3538C7.07112 11.4254 5.31929 13.2032 4.27973 15.3975C3.24016 17.5918 2.97407 20.0734 3.52481 22.4383C4.07555 24.8031 5.41066 26.9118 7.31273 28.4211C9.21481 29.9303 11.5718 30.7512 13.9999 30.75H14.1937C16.6054 30.7084 18.9331 29.857 20.8024 28.3326C22.6717 26.8081 23.974 24.6993 24.4999 22.3452C25.0257 19.9912 24.7446 17.5286 23.7017 15.3537C22.6588 13.1787 20.9147 11.4176 18.7499 10.3538V9C18.7499 8.53587 18.5655 8.09075 18.2374 7.76256C17.9092 7.43437 17.4641 7.25 16.9999 7.25H14.8162C14.8864 6.73593 15.0186 6.23226 15.2099 5.75C15.7574 4.4075 16.6712 3.75 17.9999 3.75C19.6137 3.75 20.7187 5.2975 21.8899 6.93625C23.1662 8.72375 24.6137 10.75 26.9999 10.75C28.9674 10.75 30.4187 9.7225 31.1962 7.77875C31.5385 6.89104 31.7258 5.95113 31.7499 5C31.7499 4.80109 31.6709 4.61032 31.5303 4.46967C31.3896 4.32902 31.1988 4.25 30.9999 4.25ZM17.2499 9V10.8325C17.2501 10.9782 17.2928 11.1208 17.3727 11.2426C17.4527 11.3645 17.5663 11.4605 17.6999 11.5188C19.6476 12.3688 21.2432 13.8635 22.2184 15.7517C23.1936 17.6398 23.489 19.8061 23.0548 21.8864C22.6206 23.9667 21.4834 25.834 19.8344 27.1744C18.1853 28.5148 16.125 29.2465 13.9999 29.2465C11.8748 29.2465 9.81453 28.5148 8.16549 27.1744C6.51644 25.834 5.37922 23.9667 4.94504 21.8864C4.51086 19.8061 4.80621 17.6398 5.78142 15.7517C6.75664 13.8635 8.35224 12.3688 10.2999 11.5188C10.4335 11.4605 10.5472 11.3645 10.6271 11.2426C10.707 11.1208 10.7497 10.9782 10.7499 10.8325V9C10.7499 8.9337 10.7763 8.87011 10.8231 8.82322C10.87 8.77634 10.9336 8.75 10.9999 8.75H16.9999C17.0662 8.75 17.1298 8.77634 17.1767 8.82322C17.2236 8.87011 17.2499 8.9337 17.2499 9ZM13.1249 25.26C13.311 25.2907 13.4787 25.3903 13.5945 25.5391C13.7104 25.6878 13.766 25.8748 13.7503 26.0627C13.7345 26.2506 13.6485 26.4257 13.5095 26.5531C13.3704 26.6804 13.1885 26.7507 12.9999 26.75C12.9581 26.7498 12.9163 26.7464 12.8749 26.74C11.4767 26.4916 10.1884 25.8199 9.18422 24.8157C8.18003 23.8115 7.50834 22.5232 7.25992 21.125C7.22677 20.9287 7.27294 20.7273 7.38828 20.5651C7.50361 20.4029 7.67866 20.2932 7.87492 20.26C8.07118 20.2268 8.27257 20.273 8.43479 20.3884C8.59701 20.5037 8.70677 20.6787 8.73992 20.875C8.9333 21.9672 9.45765 22.9736 10.242 23.7579C11.0263 24.5423 12.0327 25.0666 13.1249 25.26Z" fill="white"/>
</svg>
