<svg width="32" height="32" viewBox="0 0 32 32" fill="none" xmlns="http://www.w3.org/2000/svg">
<path d="M28.7676 7.77119C28.396 7.32408 27.9363 6.95828 27.4172 6.69656C26.898 6.43484 26.3305 6.28281 25.7501 6.24994C25.7112 5.60412 25.5254 4.9757 25.2068 4.41258C24.8882 3.84947 24.4453 3.36652 23.9117 3.00057C23.3782 2.63461 22.7681 2.3953 22.128 2.30087C21.488 2.20645 20.8348 2.25941 20.2183 2.45572C19.6018 2.65202 19.0383 2.98649 18.5706 3.43362C18.103 3.88076 17.7436 4.42875 17.5199 5.03584C17.2962 5.64292 17.2141 6.29307 17.2797 6.93673C17.3454 7.58038 17.5571 8.20054 17.8988 8.74994C17.9318 8.79794 17.9469 8.85591 17.9416 8.91387C17.9364 8.97183 17.9111 9.02614 17.8701 9.06744L9.0701 17.8749C9.028 17.915 8.9736 17.9396 8.91573 17.9449C8.85786 17.9501 8.79993 17.9356 8.75135 17.9037C8.20214 17.5603 7.5817 17.3469 6.93742 17.28C6.29315 17.213 5.64209 17.2942 5.034 17.5173C4.4259 17.7405 3.87685 18.0996 3.4288 18.5674C2.98075 19.0352 2.64555 19.5992 2.44882 20.2164C2.25208 20.8335 2.19901 21.4875 2.29367 22.1282C2.38833 22.769 2.6282 23.3797 2.99497 23.9136C3.36173 24.4475 3.84568 24.8905 4.40985 25.2088C4.97401 25.5271 5.60346 25.7122 6.2501 25.7499C6.28898 26.3958 6.4748 27.0242 6.7934 27.5873C7.11199 28.1504 7.55495 28.6334 8.0885 28.9993C8.62205 29.3653 9.23211 29.6046 9.87217 29.699C10.5122 29.7934 11.1654 29.7405 11.7819 29.5442C12.3984 29.3479 12.9619 29.0134 13.4296 28.5663C13.8972 28.1191 14.2566 27.5711 14.4803 26.9641C14.704 26.357 14.7861 25.7068 14.7205 25.0632C14.6548 24.4195 14.443 23.7993 14.1013 23.2499C14.0684 23.202 14.0533 23.144 14.0586 23.086C14.0638 23.0281 14.0891 22.9737 14.1301 22.9324L22.9301 14.1324C22.9714 14.0914 23.0257 14.0661 23.0837 14.0609C23.1416 14.0556 23.1996 14.0708 23.2476 14.1037C24.1053 14.6444 25.128 14.8608 26.1311 14.7136C27.1343 14.5664 28.0518 14.0655 28.718 13.3012C29.3842 12.5369 29.7553 11.5596 29.7641 10.5458C29.773 9.5319 29.4191 8.54827 28.7663 7.77244L28.7676 7.77119ZM27.5751 12.3099C27.1448 12.8024 26.5531 13.1253 25.9061 13.2208C25.2592 13.3164 24.5994 13.1782 24.0451 12.8312C23.7093 12.6181 23.3108 12.5257 22.9155 12.5693C22.5201 12.613 22.1514 12.79 21.8701 13.0712L13.0713 21.8749C12.7901 22.1562 12.6131 22.5249 12.5695 22.9203C12.5259 23.3157 12.6182 23.7141 12.8313 24.0499C13.066 24.4264 13.2061 24.8541 13.2396 25.2965C13.2732 25.7389 13.1992 26.1828 13.0241 26.5904C12.8489 26.998 12.5777 27.3571 12.2336 27.6372C11.8896 27.9173 11.4829 28.1099 11.0482 28.1988C10.6136 28.2876 10.1639 28.27 9.73754 28.1474C9.31118 28.0248 8.92081 27.8009 8.59974 27.4947C8.27868 27.1886 8.03645 26.8093 7.89372 26.3892C7.75099 25.9692 7.71201 25.5208 7.7801 25.0824C7.79689 24.9754 7.7903 24.866 7.76076 24.7618C7.73123 24.6575 7.67946 24.5609 7.60901 24.4786C7.53857 24.3963 7.45112 24.3302 7.3527 24.2849C7.25427 24.2396 7.1472 24.2161 7.03885 24.2162C6.99995 24.2166 6.96112 24.2195 6.9226 24.2249C6.48422 24.293 6.03587 24.254 5.61582 24.1113C5.19577 23.9686 4.81648 23.7264 4.51033 23.4053C4.20417 23.0842 3.98024 22.6939 3.85764 22.2675C3.73504 21.8411 3.71741 21.3914 3.80625 20.9568C3.8951 20.5221 4.08778 20.1154 4.36786 19.7714C4.64793 19.4273 5.00709 19.1562 5.41468 18.981C5.82227 18.8058 6.26618 18.7318 6.70855 18.7654C7.15092 18.799 7.5786 18.939 7.9551 19.1737C8.291 19.3849 8.68871 19.4757 9.083 19.4312C9.47729 19.3867 9.84475 19.2095 10.1251 18.9287L18.9288 10.1249C19.2101 9.84365 19.3871 9.47495 19.4307 9.07958C19.4743 8.68422 19.382 8.28579 19.1688 7.94994C18.9342 7.57344 18.7941 7.14576 18.7606 6.7034C18.727 6.26103 18.801 5.81711 18.9761 5.40952C19.1513 5.00194 19.4225 4.64278 19.7666 4.3627C20.1106 4.08262 20.5173 3.88994 20.952 3.8011C21.3866 3.71225 21.8363 3.72988 22.2627 3.85248C22.689 3.97509 23.0794 4.19902 23.4005 4.50517C23.7215 4.81133 23.9638 5.19061 24.1065 5.61066C24.2492 6.03072 24.2882 6.47906 24.2201 6.91744C24.2017 7.03424 24.2112 7.15373 24.2478 7.26617C24.2844 7.3786 24.347 7.48079 24.4306 7.5644C24.5143 7.648 24.6164 7.71066 24.7289 7.74725C24.8413 7.78384 24.9608 7.79333 25.0776 7.77494C25.6363 7.68576 26.209 7.77108 26.7174 8.01928C27.2259 8.26747 27.6454 8.66646 27.9188 9.16182C28.1921 9.65719 28.3061 10.2248 28.245 10.7873C28.184 11.3498 27.9509 11.8798 27.5776 12.3049L27.5751 12.3099Z" fill="white"/>
</svg>
