<svg width="32" height="32" viewBox="0 0 32 32" fill="none" xmlns="http://www.w3.org/2000/svg">
<path d="M29 9.25H20C19.2027 9.25059 18.4184 9.45185 17.7194 9.83523C17.0204 10.2186 16.4291 10.7718 16 11.4438C15.5709 10.7718 14.9796 10.2186 14.2806 9.83523C13.5816 9.45185 12.7973 9.25059 12 9.25H3C2.80109 9.25 2.61032 9.32902 2.46967 9.46967C2.32902 9.61032 2.25 9.80109 2.25 10V25C2.25 25.1989 2.32902 25.3897 2.46967 25.5303C2.61032 25.671 2.80109 25.75 3 25.75H12C12.862 25.75 13.6886 26.0924 14.2981 26.7019C14.9076 27.3114 15.25 28.138 15.25 29C15.25 29.1989 15.329 29.3897 15.4697 29.5303C15.6103 29.671 15.8011 29.75 16 29.75C16.1989 29.75 16.3897 29.671 16.5303 29.5303C16.671 29.3897 16.75 29.1989 16.75 29C16.75 28.138 17.0924 27.3114 17.7019 26.7019C18.3114 26.0924 19.138 25.75 20 25.75H29C29.1989 25.75 29.3897 25.671 29.5303 25.5303C29.671 25.3897 29.75 25.1989 29.75 25V10C29.75 9.80109 29.671 9.61032 29.5303 9.46967C29.3897 9.32902 29.1989 9.25 29 9.25ZM12 24.25H3.75V10.75H12C12.862 10.75 13.6886 11.0924 14.2981 11.7019C14.9076 12.3114 15.25 13.138 15.25 14V25.5387C14.3709 24.7101 13.2081 24.249 12 24.25ZM28.25 24.25H20C18.7915 24.2493 17.6285 24.7113 16.75 25.5413V14C16.75 13.138 17.0924 12.3114 17.7019 11.7019C18.3114 11.0924 19.138 10.75 20 10.75H28.25V24.25ZM11.4 5.55C11.9356 4.83587 12.6301 4.25625 13.4285 3.85704C14.2269 3.45783 15.1073 3.25 16 3.25C16.8927 3.25 17.7731 3.45783 18.5715 3.85704C19.3699 4.25625 20.0644 4.83587 20.6 5.55C20.6591 5.62879 20.7021 5.71845 20.7265 5.81386C20.751 5.90927 20.7564 6.00856 20.7425 6.10607C20.7285 6.20357 20.6955 6.29737 20.6454 6.38212C20.5952 6.46687 20.5288 6.5409 20.45 6.6C20.3712 6.65909 20.2815 6.70209 20.1861 6.72654C20.0907 6.75098 19.9914 6.75639 19.8939 6.74246C19.7964 6.72853 19.7026 6.69554 19.6179 6.64536C19.5331 6.59518 19.4591 6.52879 19.4 6.45C19.0041 5.92217 18.4908 5.49375 17.9007 5.19868C17.3105 4.90362 16.6598 4.75 16 4.75C15.3402 4.75 14.6895 4.90362 14.0993 5.19868C13.5092 5.49375 12.9959 5.92217 12.6 6.45C12.5409 6.52879 12.4669 6.59518 12.3821 6.64536C12.2974 6.69554 12.2036 6.72853 12.1061 6.74246C12.0086 6.75639 11.9093 6.75098 11.8139 6.72654C11.7185 6.70209 11.6288 6.65909 11.55 6.6C11.4712 6.5409 11.4048 6.46687 11.3546 6.38212C11.3045 6.29737 11.2715 6.20357 11.2575 6.10607C11.2436 6.00856 11.249 5.90927 11.2735 5.81386C11.2979 5.71845 11.3409 5.62879 11.4 5.55Z" fill="white"/>
</svg>
