<svg width="32" height="32" viewBox="0 0 32 32" fill="none" xmlns="http://www.w3.org/2000/svg">
<path d="M16 3.25C13.4783 3.25 11.0132 3.99777 8.91648 5.39876C6.81976 6.79975 5.18556 8.79103 4.22054 11.1208C3.25552 13.4505 3.00303 16.0141 3.49499 18.4874C3.98696 20.9607 5.20127 23.2325 6.98439 25.0156C8.76751 26.7987 11.0393 28.0131 13.5126 28.505C15.9859 28.997 18.5495 28.7445 20.8792 27.7795C23.209 26.8144 25.2003 25.1802 26.6012 23.0835C28.0022 20.9868 28.75 18.5217 28.75 16C28.746 12.6197 27.4015 9.379 25.0112 6.98877C22.621 4.59854 19.3803 3.25397 16 3.25ZM23.4025 7.53625L7.53626 23.4025C6.92044 22.6999 6.39433 21.9236 5.97001 21.0912L21.095 5.96625C21.9262 6.39201 22.7013 6.91938 23.4025 7.53625ZM24.4638 8.5975C25.0796 9.30006 25.6057 10.0764 26.03 10.9087L10.905 26.0338C10.0727 25.6094 9.29632 25.0833 8.59376 24.4675L24.4638 8.5975ZM16 4.75C17.2238 4.7489 18.4394 4.9482 19.5988 5.34L5.34001 19.5987C4.76857 17.9063 4.60839 16.102 4.87272 14.3353C5.13704 12.5687 5.81828 10.8903 6.86005 9.43918C7.90182 7.98806 9.27417 6.80587 10.8636 5.99045C12.4529 5.17503 14.2137 4.74982 16 4.75ZM16 27.25C14.7763 27.2511 13.5606 27.0518 12.4013 26.66L26.66 12.4012C27.2314 14.0937 27.3916 15.898 27.1273 17.6647C26.863 19.4313 26.1817 21.1097 25.14 22.5608C24.0982 24.0119 22.7258 25.1941 21.1365 26.0095C19.5471 26.825 17.7864 27.2502 16 27.25Z" fill="white"/>
</svg>
