<svg width="32" height="32" viewBox="0 0 32 32" fill="none" xmlns="http://www.w3.org/2000/svg">
<path d="M16 3.25C13.4783 3.25 11.0132 3.99777 8.91648 5.39876C6.81976 6.79975 5.18556 8.79103 4.22054 11.1208C3.25552 13.4505 3.00303 16.0141 3.49499 18.4874C3.98696 20.9607 5.20127 23.2325 6.98439 25.0156C8.76751 26.7987 11.0393 28.0131 13.5126 28.505C15.9859 28.997 18.5495 28.7445 20.8792 27.7795C23.209 26.8144 25.2003 25.1802 26.6012 23.0835C28.0022 20.9868 28.75 18.5217 28.75 16C28.746 12.6197 27.4015 9.379 25.0112 6.98877C22.621 4.59854 19.3803 3.25397 16 3.25ZM16 27.25C13.775 27.25 11.5999 26.5902 9.74984 25.354C7.89979 24.1179 6.45785 22.3609 5.60636 20.3052C4.75488 18.2495 4.53209 15.9875 4.96617 13.8052C5.40025 11.6229 6.47171 9.61839 8.04505 8.04505C9.6184 6.47171 11.623 5.40025 13.8052 4.96617C15.9875 4.53208 18.2495 4.75487 20.3052 5.60636C22.3609 6.45784 24.1179 7.89978 25.354 9.74984C26.5902 11.5999 27.25 13.775 27.25 16C27.2467 18.9827 26.0604 21.8422 23.9513 23.9513C21.8422 26.0604 18.9827 27.2467 16 27.25ZM17.75 14.5C17.75 14.7472 17.6767 14.9889 17.5393 15.1945C17.402 15.4 17.2068 15.5602 16.9784 15.6548C16.75 15.7495 16.4986 15.7742 16.2561 15.726C16.0137 15.6778 15.7909 15.5587 15.6161 15.3839C15.4413 15.2091 15.3223 14.9863 15.274 14.7439C15.2258 14.5014 15.2505 14.2501 15.3452 14.0216C15.4398 13.7932 15.6 13.598 15.8055 13.4607C16.0111 13.3233 16.2528 13.25 16.5 13.25C16.8315 13.25 17.1495 13.3817 17.3839 13.6161C17.6183 13.8505 17.75 14.1685 17.75 14.5ZM20.5 12.75C20.2528 12.75 20.0111 12.6767 19.8055 12.5393C19.6 12.402 19.4398 12.2068 19.3452 11.9784C19.2505 11.7499 19.2258 11.4986 19.274 11.2561C19.3223 11.0137 19.4413 10.7909 19.6161 10.6161C19.7909 10.4413 20.0137 10.3222 20.2561 10.274C20.4986 10.2258 20.75 10.2505 20.9784 10.3452C21.2068 10.4398 21.402 10.6 21.5393 10.8055C21.6767 11.0111 21.75 11.2528 21.75 11.5C21.75 11.8315 21.6183 12.1495 21.3839 12.3839C21.1495 12.6183 20.8315 12.75 20.5 12.75ZM22.75 16.5C22.75 16.7472 22.6767 16.9889 22.5393 17.1945C22.402 17.4 22.2068 17.5602 21.9784 17.6549C21.75 17.7495 21.4986 17.7742 21.2561 17.726C21.0137 17.6777 20.7909 17.5587 20.6161 17.3839C20.4413 17.2091 20.3223 16.9863 20.274 16.7439C20.2258 16.5014 20.2505 16.2501 20.3452 16.0216C20.4398 15.7932 20.6 15.598 20.8055 15.4607C21.0111 15.3233 21.2528 15.25 21.5 15.25C21.8315 15.25 22.1495 15.3817 22.3839 15.6161C22.6183 15.8505 22.75 16.1685 22.75 16.5Z" fill="white"/>
</svg>
