<svg width="32" height="32" viewBox="0 0 32 32" fill="none" xmlns="http://www.w3.org/2000/svg">
<path d="M28 14.25H4C3.80109 14.25 3.61032 14.329 3.46967 14.4697C3.32902 14.6103 3.25 14.8011 3.25 15C3.25446 17.3581 3.91056 19.6691 5.14585 21.6778C6.38114 23.6864 8.14755 25.3146 10.25 26.3825V27C10.25 27.4641 10.4344 27.9093 10.7626 28.2374C11.0908 28.5656 11.5359 28.75 12 28.75H20C20.4641 28.75 20.9092 28.5656 21.2374 28.2374C21.5656 27.9093 21.75 27.4641 21.75 27V26.3825C23.8525 25.3146 25.6189 23.6864 26.8541 21.6778C28.0894 19.6691 28.7455 17.3581 28.75 15C28.75 14.8011 28.671 14.6103 28.5303 14.4697C28.3897 14.329 28.1989 14.25 28 14.25ZM20.6875 25.23C20.557 25.2898 20.4465 25.3858 20.3689 25.5065C20.2914 25.6273 20.2501 25.7677 20.25 25.9113V27C20.25 27.0663 20.2237 27.1299 20.1768 27.1768C20.1299 27.2237 20.0663 27.25 20 27.25H12C11.9337 27.25 11.8701 27.2237 11.8232 27.1768C11.7763 27.1299 11.75 27.0663 11.75 27V25.9113C11.7499 25.7677 11.7086 25.6273 11.6311 25.5065C11.5535 25.3858 11.443 25.2898 11.3125 25.23C9.47265 24.3815 7.89493 23.0537 6.74472 21.3858C5.59451 19.7179 4.91416 17.7713 4.775 15.75H27.225C27.0858 17.7713 26.4055 19.7179 25.2553 21.3858C24.1051 23.0537 22.5273 24.3815 20.6875 25.23ZM10.415 7.03001C11.0462 6.24501 11.3413 5.56376 11.225 5.15501C11.135 4.83876 10.77 4.70876 10.7662 4.70751C10.6004 4.64927 10.4602 4.53461 10.3703 4.38357C10.2804 4.23252 10.2463 4.05468 10.2742 3.8811C10.302 3.70752 10.39 3.54924 10.5226 3.43389C10.6553 3.31854 10.8242 3.25346 11 3.25001C11.0755 3.24963 11.1505 3.26102 11.2225 3.28376C11.3363 3.31876 12.335 3.65876 12.6575 4.71376C12.94 5.63751 12.5787 6.73251 11.585 7.97001C10.9538 8.75501 10.6587 9.43626 10.775 9.84501C10.865 10.1613 11.23 10.2913 11.2338 10.2925C11.3996 10.3507 11.5398 10.4654 11.6297 10.6165C11.7196 10.7675 11.7537 10.9453 11.7258 11.1189C11.698 11.2925 11.61 11.4508 11.4774 11.5661C11.3447 11.6815 11.1758 11.7466 11 11.75C10.9245 11.7504 10.8495 11.739 10.7775 11.7163C10.6638 11.6813 9.665 11.3413 9.3425 10.2863C9.06 9.36251 9.42125 8.26751 10.415 7.03001ZM15.415 7.03001C16.0463 6.24501 16.3413 5.56376 16.225 5.15501C16.135 4.83876 15.77 4.70876 15.7662 4.70751C15.6004 4.64927 15.4602 4.53461 15.3703 4.38357C15.2804 4.23252 15.2463 4.05468 15.2742 3.8811C15.302 3.70752 15.39 3.54924 15.5226 3.43389C15.6553 3.31854 15.8242 3.25346 16 3.25001C16.0755 3.24963 16.1505 3.26102 16.2225 3.28376C16.3363 3.31876 17.335 3.65876 17.6575 4.71376C17.94 5.63751 17.5787 6.73251 16.585 7.97001C15.9537 8.75501 15.6587 9.43626 15.775 9.84501C15.865 10.1613 16.23 10.2913 16.2337 10.2925C16.3996 10.3507 16.5398 10.4654 16.6297 10.6165C16.7196 10.7675 16.7537 10.9453 16.7258 11.1189C16.698 11.2925 16.61 11.4508 16.4774 11.5661C16.3447 11.6815 16.1758 11.7466 16 11.75C15.9245 11.7504 15.8495 11.739 15.7775 11.7163C15.6637 11.6813 14.665 11.3413 14.3425 10.2863C14.06 9.36251 14.4213 8.26751 15.415 7.03001ZM20.415 7.03001C21.0463 6.24501 21.3412 5.56376 21.225 5.15501C21.135 4.83876 20.77 4.70876 20.7663 4.70751C20.6004 4.64927 20.4602 4.53461 20.3703 4.38357C20.2804 4.23252 20.2463 4.05468 20.2742 3.8811C20.302 3.70752 20.39 3.54924 20.5226 3.43389C20.6553 3.31854 20.8242 3.25346 21 3.25001C21.0755 3.24963 21.1505 3.26102 21.2225 3.28376C21.3363 3.31876 22.335 3.65876 22.6575 4.71376C22.94 5.63751 22.5787 6.73251 21.585 7.97001C20.9537 8.75501 20.6588 9.43626 20.775 9.84501C20.865 10.1613 21.23 10.2913 21.2337 10.2925C21.3996 10.3507 21.5398 10.4654 21.6297 10.6165C21.7196 10.7675 21.7537 10.9453 21.7258 11.1189C21.698 11.2925 21.61 11.4508 21.4774 11.5661C21.3447 11.6815 21.1758 11.7466 21 11.75C20.9245 11.7504 20.8495 11.739 20.7775 11.7163C20.6637 11.6813 19.665 11.3413 19.3425 10.2863C19.06 9.36251 19.4213 8.26751 20.415 7.03001Z" fill="white"/>
</svg>
