<svg width="32" height="32" viewBox="0 0 32 32" fill="none" xmlns="http://www.w3.org/2000/svg">
<path d="M27.6712 8.665L25.6712 4.665C25.609 4.54028 25.5132 4.43538 25.3946 4.36207C25.2761 4.28877 25.1394 4.24996 25 4.25H7C6.8606 4.24996 6.72395 4.28877 6.60538 4.36207C6.48681 4.43538 6.39102 4.54028 6.32875 4.665L4.32875 8.665C4.27719 8.76916 4.25025 8.88378 4.25 9V26C4.25 26.4641 4.43437 26.9092 4.76256 27.2374C5.09075 27.5656 5.53587 27.75 6 27.75H26C26.4641 27.75 26.9092 27.5656 27.2374 27.2374C27.5656 26.9092 27.75 26.4641 27.75 26V9C27.7498 8.88378 27.7228 8.76916 27.6712 8.665ZM7.46375 5.75H24.5362L25.7862 8.25H6.21375L7.46375 5.75ZM26 26.25H6C5.9337 26.25 5.87011 26.2237 5.82322 26.1768C5.77634 26.1299 5.75 26.0663 5.75 26V9.75H26.25V26C26.25 26.0663 26.2237 26.1299 26.1768 26.1768C26.1299 26.2237 26.0663 26.25 26 26.25ZM20.53 16.47C20.6037 16.5387 20.6628 16.6215 20.7038 16.7135C20.7448 16.8055 20.7668 16.9048 20.7686 17.0055C20.7704 17.1062 20.7518 17.2062 20.7141 17.2996C20.6764 17.393 20.6203 17.4778 20.549 17.549C20.4778 17.6203 20.393 17.6764 20.2996 17.7141C20.2062 17.7518 20.1062 17.7704 20.0055 17.7686C19.9048 17.7668 19.8055 17.7448 19.7135 17.7038C19.6215 17.6628 19.5387 17.6037 19.47 17.53L16.75 14.8112V23C16.75 23.1989 16.671 23.3897 16.5303 23.5303C16.3897 23.671 16.1989 23.75 16 23.75C15.8011 23.75 15.6103 23.671 15.4697 23.5303C15.329 23.3897 15.25 23.1989 15.25 23V14.8112L12.53 17.53C12.3878 17.6625 12.1998 17.7346 12.0055 17.7312C11.8112 17.7277 11.6258 17.649 11.4884 17.5116C11.351 17.3742 11.2723 17.1888 11.2688 16.9945C11.2654 16.8002 11.3375 16.6122 11.47 16.47L15.47 12.47C15.6106 12.3295 15.8012 12.2507 16 12.2507C16.1988 12.2507 16.3894 12.3295 16.53 12.47L20.53 16.47Z" fill="white"/>
</svg>
