<svg width="32" height="32" viewBox="0 0 32 32" fill="none" xmlns="http://www.w3.org/2000/svg">
<path d="M21 2.25H15C13.2104 2.25199 11.4947 2.96378 10.2292 4.22922C8.96378 5.49466 8.25199 7.2104 8.25 9V9.25H7C6.00544 9.25 5.05161 9.64509 4.34835 10.3483C3.64509 11.0516 3.25 12.0054 3.25 13V16.6488C3.24996 17.0463 3.3853 17.4321 3.63375 17.7425C3.65197 17.7654 3.67159 17.7871 3.6925 17.8075L8.25 22.3075V27C8.25 27.4641 8.43437 27.9092 8.76256 28.2374C9.09075 28.5656 9.53587 28.75 10 28.75H24C24.4641 28.75 24.9092 28.5656 25.2374 28.2374C25.5656 27.9092 25.75 27.4641 25.75 27V22.105L27.6825 15.3413C27.7274 15.1848 27.7501 15.0228 27.75 14.86V9C27.748 7.2104 27.0362 5.49466 25.7708 4.22922C24.5053 2.96378 22.7896 2.25199 21 2.25ZM26.25 14.86C26.2499 14.8833 26.2465 14.9064 26.24 14.9288L24.2787 21.7938C24.2598 21.8609 24.2502 21.9303 24.25 22V27C24.25 27.0663 24.2237 27.1299 24.1768 27.1768C24.1299 27.2237 24.0663 27.25 24 27.25H10C9.9337 27.25 9.87011 27.2237 9.82322 27.1768C9.77634 27.1299 9.75 27.0663 9.75 27V22C9.75008 21.9007 9.73045 21.8024 9.69226 21.7108C9.65407 21.6192 9.59806 21.5361 9.5275 21.4662L4.7875 16.7812C4.76284 16.7415 4.74985 16.6956 4.75 16.6488V13C4.75 12.4033 4.98705 11.831 5.40901 11.409C5.83097 10.9871 6.40326 10.75 7 10.75H8.25V13C8.25 13.1989 8.32902 13.3897 8.46967 13.5303C8.61032 13.671 8.80109 13.75 9 13.75C9.19891 13.75 9.38968 13.671 9.53033 13.5303C9.67098 13.3897 9.75 13.1989 9.75 13V9C9.75 7.60761 10.3031 6.27225 11.2877 5.28769C12.2723 4.30312 13.6076 3.75 15 3.75H21C22.3924 3.75 23.7277 4.30312 24.7123 5.28769C25.6969 6.27225 26.25 7.60761 26.25 9V14.86ZM21.335 20.6712L18.6775 22L21.335 23.3288C21.4231 23.3727 21.5018 23.4337 21.5664 23.508C21.631 23.5824 21.6803 23.6688 21.7115 23.7622C21.7428 23.8557 21.7553 23.9543 21.7484 24.0526C21.7414 24.1509 21.7152 24.2468 21.6712 24.335C21.6273 24.4231 21.5663 24.5018 21.492 24.5664C21.4176 24.631 21.3312 24.6803 21.2378 24.7115C21.1443 24.7428 21.0457 24.7553 20.9474 24.7484C20.8491 24.7414 20.7532 24.7152 20.665 24.6712L17 22.8388L13.335 24.6712C13.157 24.7601 12.9509 24.7746 12.7622 24.7115C12.5735 24.6485 12.4176 24.513 12.3287 24.335C12.2399 24.157 12.2254 23.9509 12.2885 23.7622C12.3515 23.5735 12.487 23.4176 12.665 23.3288L15.3225 22L12.665 20.6712C12.487 20.5824 12.3515 20.4265 12.2885 20.2378C12.2254 20.0491 12.2399 19.843 12.3287 19.665C12.4176 19.487 12.5735 19.3515 12.7622 19.2885C12.9509 19.2254 13.157 19.2399 13.335 19.3288L17 21.1612L20.665 19.3288C20.7532 19.2848 20.8491 19.2586 20.9474 19.2516C21.0457 19.2447 21.1443 19.2572 21.2378 19.2885C21.3312 19.3197 21.4176 19.369 21.492 19.4336C21.5663 19.4982 21.6273 19.5769 21.6712 19.665C21.7152 19.7532 21.7414 19.8491 21.7484 19.9474C21.7553 20.0457 21.7428 20.1443 21.7115 20.2378C21.6803 20.3312 21.631 20.4176 21.5664 20.492C21.5018 20.5663 21.4231 20.6273 21.335 20.6712Z" fill="white"/>
</svg>
