<svg width="32" height="32" viewBox="0 0 32 32" fill="none" xmlns="http://www.w3.org/2000/svg">
<path d="M29.75 10C29.75 8.74022 29.2495 7.53204 28.3587 6.64124C27.4679 5.75045 26.2598 5.25 25 5.25H5.99999C4.89517 5.25052 3.82509 5.63614 2.97391 6.3405C2.12274 7.04486 1.54371 8.0239 1.3365 9.10911C1.12928 10.1943 1.30684 11.3178 1.83861 12.2863C2.37037 13.2547 3.22309 14.0074 4.24999 14.415V25C4.24999 25.4641 4.43436 25.9092 4.76255 26.2374C5.09074 26.5656 5.53586 26.75 5.99999 26.75H25C25.4641 26.75 25.9092 26.5656 26.2374 26.2374C26.5656 25.9092 26.75 25.4641 26.75 25V14.415C27.6341 14.0633 28.3925 13.4547 28.9273 12.6677C29.4621 11.8807 29.7486 10.9515 29.75 10ZM5.74999 25V14.75C5.83249 14.75 5.91624 14.75 5.99999 14.75C6.1989 14.75 6.38966 14.671 6.53032 14.5303C6.67097 14.3897 6.74999 14.1989 6.74999 14C6.74999 13.8011 6.67097 13.6103 6.53032 13.4697C6.38966 13.329 6.1989 13.25 5.99999 13.25C5.13803 13.25 4.31138 12.9076 3.70189 12.2981C3.0924 11.6886 2.74999 10.862 2.74999 10C2.74999 9.13805 3.0924 8.3114 3.70189 7.7019C4.31138 7.09241 5.13803 6.75 5.99999 6.75H18C18.8619 6.75 19.6886 7.09241 20.2981 7.7019C20.9076 8.3114 21.25 9.13805 21.25 10C21.25 10.862 20.9076 11.6886 20.2981 12.2981C19.6886 12.9076 18.8619 13.25 18 13.25C17.8011 13.25 17.6103 13.329 17.4697 13.4697C17.329 13.6103 17.25 13.8011 17.25 14C17.25 14.1989 17.329 14.3897 17.4697 14.5303C17.6103 14.671 17.8011 14.75 18 14.75C18.0837 14.75 18.1675 14.75 18.25 14.75V25C18.25 25.0663 18.2236 25.1299 18.1768 25.1768C18.1299 25.2237 18.0663 25.25 18 25.25H5.99999C5.93368 25.25 5.87009 25.2237 5.82321 25.1768C5.77633 25.1299 5.74999 25.0663 5.74999 25ZM25 13.25C24.8011 13.25 24.6103 13.329 24.4697 13.4697C24.329 13.6103 24.25 13.8011 24.25 14C24.25 14.1989 24.329 14.3897 24.4697 14.5303C24.6103 14.671 24.8011 14.75 25 14.75C25.0837 14.75 25.1675 14.75 25.25 14.75V25C25.25 25.0663 25.2236 25.1299 25.1768 25.1768C25.1299 25.2237 25.0663 25.25 25 25.25H19.73C19.7423 25.1672 19.749 25.0837 19.75 25V14.415C20.4695 14.1292 21.1083 13.6718 21.6107 13.0826C22.1131 12.4935 22.4638 11.7905 22.6324 11.0348C22.801 10.2791 22.7823 9.4937 22.578 8.7469C22.3736 8.0001 21.9898 7.31457 21.46 6.75H25C25.8619 6.75 26.6886 7.09241 27.2981 7.7019C27.9076 8.3114 28.25 9.13805 28.25 10C28.25 10.862 27.9076 11.6886 27.2981 12.2981C26.6886 12.9076 25.8619 13.25 25 13.25Z" fill="white"/>
</svg>
