<svg width="32" height="32" viewBox="0 0 32 32" fill="none" xmlns="http://www.w3.org/2000/svg">
<path d="M29 20.25H24.75V11.91C25.7243 13.3493 27.1063 14.4649 28.7187 15.1138C28.8105 15.1537 28.9094 15.1748 29.0095 15.176C29.1096 15.1771 29.2089 15.1581 29.3016 15.1203C29.3943 15.0824 29.4785 15.0263 29.5491 14.9554C29.6198 14.8845 29.6756 14.8001 29.7131 14.7073C29.7507 14.6145 29.7693 14.5151 29.7678 14.415C29.7663 14.3149 29.7449 14.2161 29.7046 14.1245C29.6643 14.0328 29.6061 13.9501 29.5334 13.8813C29.4607 13.8125 29.375 13.7589 29.2812 13.7238C27.94 13.1848 26.7913 12.2561 25.9835 11.0574C25.1757 9.85878 24.746 8.44541 24.75 7C24.75 6.80109 24.671 6.61032 24.5303 6.46967C24.3896 6.32902 24.1989 6.25 24 6.25C23.8011 6.25 23.6103 6.32902 23.4696 6.46967C23.329 6.61032 23.25 6.80109 23.25 7C23.25 8.92282 22.4861 10.7669 21.1265 12.1265C19.7669 13.4862 17.9228 14.25 16 14.25C14.0771 14.25 12.2331 13.4862 10.8734 12.1265C9.51381 10.7669 8.74997 8.92282 8.74997 7C8.74997 6.80109 8.67095 6.61032 8.5303 6.46967C8.38965 6.32902 8.19888 6.25 7.99997 6.25C7.80106 6.25 7.61029 6.32902 7.46964 6.46967C7.32899 6.61032 7.24997 6.80109 7.24997 7C7.25391 8.44541 6.82422 9.85878 6.01643 11.0574C5.20865 12.2561 4.05992 13.1848 2.71872 13.7238C2.62498 13.7589 2.53922 13.8125 2.46651 13.8813C2.39379 13.9501 2.33559 14.0328 2.29534 14.1245C2.25509 14.2161 2.2336 14.3149 2.23214 14.415C2.23067 14.5151 2.24927 14.6145 2.28682 14.7073C2.32438 14.8001 2.38014 14.8845 2.45081 14.9554C2.52148 15.0263 2.60564 15.0824 2.69831 15.1203C2.79099 15.1581 2.89031 15.1771 2.99042 15.176C3.09054 15.1748 3.18941 15.1537 3.28122 15.1138C4.89368 14.4649 6.27564 13.3493 7.24997 11.91V20.25H2.99997C2.80106 20.25 2.61029 20.329 2.46964 20.4697C2.32899 20.6103 2.24997 20.8011 2.24997 21C2.24997 21.1989 2.32899 21.3897 2.46964 21.5303C2.61029 21.671 2.80106 21.75 2.99997 21.75H7.24997V25C7.24997 25.1989 7.32899 25.3897 7.46964 25.5303C7.61029 25.671 7.80106 25.75 7.99997 25.75C8.19888 25.75 8.38965 25.671 8.5303 25.5303C8.67095 25.3897 8.74997 25.1989 8.74997 25V21.75H23.25V25C23.25 25.1989 23.329 25.3897 23.4696 25.5303C23.6103 25.671 23.8011 25.75 24 25.75C24.1989 25.75 24.3896 25.671 24.5303 25.5303C24.671 25.3897 24.75 25.1989 24.75 25V21.75H29C29.1989 21.75 29.3896 21.671 29.5303 21.5303C29.671 21.3897 29.75 21.1989 29.75 21C29.75 20.8011 29.671 20.6103 29.5303 20.4697C29.3896 20.329 29.1989 20.25 29 20.25ZM18.25 15.4563V20.25H13.75V15.4563C15.2244 15.8479 16.7755 15.8479 18.25 15.4563ZM8.74997 11.8938C9.62824 13.1908 10.8364 14.2302 12.25 14.905V20.25H8.74997V11.8938ZM19.75 20.25V14.905C21.1636 14.2302 22.3717 13.1908 23.25 11.8938V20.25H19.75Z" fill="white"/>
</svg>
