<svg width="32" height="32" viewBox="0 0 32 32" fill="none" xmlns="http://www.w3.org/2000/svg">
<path d="M16 11.25C15.0606 11.25 14.1422 11.5286 13.3611 12.0505C12.58 12.5724 11.9711 13.3143 11.6116 14.1822C11.2521 15.0502 11.158 16.0053 11.3413 16.9267C11.5246 17.8481 11.977 18.6944 12.6413 19.3587C13.3056 20.023 14.152 20.4754 15.0734 20.6587C15.9948 20.842 16.9498 20.7479 17.8178 20.3884C18.6857 20.0289 19.4276 19.4201 19.9495 18.6389C20.4715 17.8578 20.75 16.9394 20.75 16C20.75 14.7402 20.2496 13.532 19.3588 12.6412C18.468 11.7504 17.2598 11.25 16 11.25ZM16 19.25C15.3573 19.25 14.7289 19.0594 14.1944 18.7023C13.66 18.3451 13.2434 17.8376 12.9974 17.2437C12.7515 16.6498 12.6871 15.9964 12.8125 15.3659C12.9379 14.7355 13.2474 14.1564 13.702 13.7019C14.1565 13.2474 14.7356 12.9378 15.366 12.8124C15.9964 12.687 16.6499 12.7514 17.2438 12.9974C17.8376 13.2434 18.3452 13.6599 18.7023 14.1944C19.0594 14.7288 19.25 15.3572 19.25 16C19.25 16.8619 18.9076 17.6886 18.2981 18.2981C17.6887 18.9076 16.862 19.25 16 19.25ZM25.75 16C25.7532 18.3988 24.869 20.714 23.2675 22.5C23.1336 22.6429 22.949 22.7278 22.7532 22.7364C22.5575 22.745 22.3662 22.6767 22.2202 22.546C22.0742 22.4154 21.9851 22.2328 21.972 22.0373C21.9589 21.8418 22.0228 21.649 22.15 21.5C23.5047 19.9883 24.2539 18.0298 24.2539 16C24.2539 13.9701 23.5047 12.0117 22.15 10.5C22.0817 10.4271 22.0286 10.3412 21.9939 10.2475C21.9592 10.1538 21.9436 10.054 21.948 9.95419C21.9524 9.85434 21.9767 9.75637 22.0195 9.66605C22.0623 9.57572 22.1227 9.49486 22.1971 9.42821C22.2716 9.36157 22.3587 9.31048 22.4532 9.27795C22.5477 9.24542 22.6477 9.23211 22.7475 9.23879C22.8472 9.24548 22.9446 9.27203 23.0339 9.31688C23.1232 9.36174 23.2026 9.42399 23.2675 9.49999C24.869 11.286 25.7532 13.6012 25.75 16ZM8.39755 12.7887C7.78821 14.229 7.60121 15.8128 7.85841 17.3553C8.11561 18.8979 8.80638 20.3354 9.85005 21.5C9.9826 21.6482 10.0509 21.843 10.0399 22.0415C10.0288 22.2401 9.93944 22.4261 9.7913 22.5587C9.64308 22.6913 9.4483 22.7596 9.24976 22.7486C9.05122 22.7375 8.86518 22.6481 8.73255 22.5C7.13189 20.7133 6.24677 18.3988 6.24677 16C6.24677 13.6012 7.13189 11.2867 8.73255 9.49999C8.79746 9.42399 8.87691 9.36174 8.96623 9.31688C9.05554 9.27203 9.15292 9.24548 9.25264 9.23879C9.35236 9.23211 9.45241 9.24542 9.54692 9.27795C9.64142 9.31048 9.72847 9.36157 9.80295 9.42821C9.87743 9.49486 9.93784 9.57572 9.98062 9.66605C10.0234 9.75637 10.0477 9.85434 10.0521 9.95419C10.0565 10.054 10.0409 10.1538 10.0062 10.2475C9.97147 10.3412 9.91839 10.4271 9.85005 10.5C9.24338 11.1779 8.75263 11.9512 8.39755 12.7887ZM30.75 16C30.754 19.8604 29.2406 23.5677 26.5363 26.3225C26.3971 26.4647 26.207 26.5458 26.008 26.5479C25.809 26.55 25.6173 26.473 25.475 26.3337C25.3328 26.1945 25.2517 26.0045 25.2496 25.8054C25.2475 25.6064 25.3246 25.4147 25.4638 25.2725C27.8936 22.7978 29.255 19.4682 29.255 16C29.255 12.5318 27.8936 9.2022 25.4638 6.72749C25.3949 6.65706 25.3405 6.57375 25.3037 6.48231C25.267 6.39086 25.2486 6.29308 25.2496 6.19453C25.2517 5.99551 25.3328 5.80547 25.475 5.66624C25.6173 5.527 25.809 5.44996 26.008 5.45207C26.1066 5.45311 26.2039 5.47356 26.2946 5.51223C26.3852 5.55091 26.4674 5.60706 26.5363 5.67749C29.2406 8.43232 30.754 12.1396 30.75 16ZM6.5363 25.2725C6.60524 25.3429 6.65964 25.4262 6.69639 25.5177C6.73313 25.6091 6.75151 25.7069 6.75046 25.8054C6.74942 25.904 6.72897 26.0014 6.6903 26.092C6.65162 26.1827 6.59547 26.2648 6.52505 26.3337C6.45463 26.4027 6.37131 26.4571 6.27987 26.4938C6.18843 26.5306 6.09064 26.5489 5.99209 26.5479C5.89355 26.5469 5.79617 26.5264 5.70552 26.4877C5.61488 26.4491 5.53274 26.3929 5.4638 26.3225C2.76033 23.5668 1.24585 19.8604 1.24585 16C1.24585 12.1396 2.76033 8.43322 5.4638 5.67749C5.60304 5.53526 5.79307 5.45418 5.99209 5.45207C6.19111 5.44996 6.38282 5.527 6.52505 5.66624C6.66727 5.80547 6.74835 5.99551 6.75046 6.19453C6.75257 6.39355 6.67554 6.58526 6.5363 6.72749C4.10648 9.2022 2.74513 12.5318 2.74513 16C2.74513 19.4682 4.10648 22.7978 6.5363 25.2725Z" fill="white"/>
</svg>
