<svg width="32" height="32" viewBox="0 0 32 32" fill="none" xmlns="http://www.w3.org/2000/svg">
<path d="M29.3275 27.325C26.4188 25.9112 24.75 22.875 24.75 19V16.8375C24.7499 16.4874 24.6447 16.1455 24.4482 15.8558C24.2516 15.5661 23.9727 15.342 23.6475 15.2125L20.5363 13.9837C20.3836 13.923 20.2445 13.8328 20.1267 13.7182C20.009 13.6037 19.9149 13.467 19.8501 13.3161C19.7852 13.1652 19.7506 13.0029 19.7485 12.8387C19.7463 12.6744 19.7766 12.5113 19.8375 12.3587L22.5 5.73749C22.6673 5.33351 22.7513 4.89994 22.7471 4.46274C22.7428 4.02553 22.6504 3.59367 22.4753 3.19302C22.3003 2.79237 22.0462 2.43116 21.7282 2.13102C21.4103 1.83087 21.0351 1.59796 20.625 1.44624C19.0063 0.842487 17.14 1.67624 16.4613 3.32124L13.8363 9.95999C13.7758 10.1129 13.6857 10.2523 13.5713 10.3703C13.4568 10.4883 13.3202 10.5826 13.1692 10.6477C13.0183 10.7129 12.856 10.7476 12.6916 10.7499C12.5272 10.7522 12.364 10.7221 12.2113 10.6612L9.04627 9.37499C8.72585 9.2448 8.37387 9.21321 8.03539 9.28424C7.6969 9.35528 7.38732 9.52572 7.14627 9.77374C4.56127 12.4275 3.25002 15.5325 3.25002 19C3.24357 22.5495 4.61588 25.9628 7.07752 28.52C7.14832 28.5936 7.23339 28.6519 7.32754 28.6915C7.42168 28.731 7.52291 28.7509 7.62502 28.75H29C29.1698 28.7501 29.3347 28.6926 29.4676 28.5869C29.6004 28.4812 29.6935 28.3335 29.7316 28.168C29.7696 28.0025 29.7503 27.829 29.6769 27.6758C29.6035 27.5227 29.4804 27.399 29.3275 27.325ZM8.22127 10.815C8.25564 10.7816 8.29889 10.7587 8.34588 10.7492C8.39286 10.7397 8.4416 10.7438 8.48627 10.7612L11.6613 12.0475C11.9973 12.182 12.3566 12.2489 12.7185 12.2443C13.0805 12.2396 13.4379 12.1636 13.7704 12.0205C14.1029 11.8775 14.4039 11.6702 14.656 11.4105C14.9082 11.1509 15.1067 10.844 15.24 10.5075L17.865 3.88249C18.24 2.99124 19.24 2.53124 20.115 2.85624C20.3358 2.93883 20.5376 3.06517 20.7084 3.22769C20.8791 3.3902 21.0153 3.58554 21.1087 3.80198C21.2021 4.01841 21.2508 4.25149 21.2519 4.48721C21.253 4.72293 21.2064 4.95645 21.115 5.17374L18.445 11.8112C18.1796 12.488 18.1922 13.2422 18.4801 13.9096C18.7681 14.5771 19.3081 15.1038 19.9825 15.375L23.0925 16.6037C23.1392 16.6223 23.1793 16.6546 23.2074 16.6963C23.2355 16.738 23.2503 16.7872 23.25 16.8375V19C23.25 19.1675 23.25 19.3312 23.26 19.5L6.59252 12.8262C7.07104 12.1061 7.61637 11.4327 8.22127 10.815ZM14.2913 27.25C12.7302 25.78 11.6238 23.8927 11.1038 21.8125C11.0791 21.7171 11.036 21.6275 10.9767 21.5488C10.9175 21.4701 10.8433 21.4039 10.7585 21.3539C10.6736 21.3038 10.5798 21.271 10.4822 21.2573C10.3847 21.2435 10.2854 21.2491 10.19 21.2737C10.0946 21.2984 10.0051 21.3415 9.92637 21.4008C9.84768 21.46 9.78143 21.5342 9.7314 21.619C9.68138 21.7039 9.64855 21.7978 9.6348 21.8953C9.62105 21.9928 9.62665 22.0921 9.65127 22.1875C10.1215 24.0458 11.0013 25.7755 12.2263 27.25H7.94502C5.88489 24.9969 4.74479 22.053 4.75002 19C4.73439 17.3186 5.10697 15.6563 5.83877 14.1425L23.4188 21.175C23.8125 23.665 24.89 25.7575 26.5438 27.25H14.2913Z" fill="white"/>
</svg>
