<svg width="32" height="32" viewBox="0 0 32 32" fill="none" xmlns="http://www.w3.org/2000/svg">
<path d="M18.25 11.4999C18.25 11.2527 18.3233 11.011 18.4607 10.8055C18.598 10.5999 18.7932 10.4397 19.0216 10.3451C19.2501 10.2505 19.5014 10.2257 19.7439 10.274C19.9863 10.3222 20.2091 10.4413 20.3839 10.6161C20.5587 10.7909 20.6777 11.0136 20.726 11.2561C20.7742 11.4986 20.7495 11.7499 20.6549 11.9783C20.5602 12.2067 20.4 12.4019 20.1945 12.5393C19.9889 12.6766 19.7472 12.7499 19.5 12.7499C19.1685 12.7499 18.8505 12.6183 18.6161 12.3838C18.3817 12.1494 18.25 11.8315 18.25 11.4999ZM12.5 10.2499C12.2528 10.2499 12.0111 10.3233 11.8055 10.4606C11.6 10.598 11.4398 10.7932 11.3452 11.0216C11.2505 11.25 11.2258 11.5013 11.274 11.7438C11.3222 11.9863 11.4413 12.209 11.6161 12.3838C11.7909 12.5586 12.0137 12.6777 12.2561 12.7259C12.4986 12.7742 12.7499 12.7494 12.9784 12.6548C13.2068 12.5602 13.402 12.4 13.5393 12.1944C13.6767 11.9889 13.75 11.7472 13.75 11.4999C13.75 11.1684 13.6183 10.8505 13.3839 10.6161C13.1495 10.3816 12.8315 10.2499 12.5 10.2499ZM30.75 15.9999C30.75 16.1989 30.671 16.3896 30.5303 16.5303C30.3897 16.6709 30.1989 16.7499 30 16.7499H26.75V17.9999C26.7498 19.0187 26.6046 20.0322 26.3188 21.0099L29.3 22.3124C29.4823 22.392 29.6256 22.5408 29.6983 22.7259C29.7709 22.9111 29.7671 23.1176 29.6875 23.2999C29.6079 23.4823 29.4592 23.6255 29.274 23.6982C29.0888 23.7709 28.8823 23.767 28.7 23.6874L25.7962 22.4187C24.9446 24.3033 23.5675 25.9023 21.8299 27.0238C20.0923 28.1454 18.0681 28.742 16 28.742C13.9319 28.742 11.9077 28.1454 10.1701 27.0238C8.43255 25.9023 7.05537 24.3033 6.20375 22.4187L3.3 23.6874C3.20972 23.7268 3.11256 23.7481 3.01407 23.7499C2.91558 23.7518 2.81769 23.7342 2.726 23.6982C2.6343 23.6622 2.55059 23.6085 2.47964 23.5402C2.40869 23.4719 2.3519 23.3902 2.3125 23.2999C2.23294 23.1176 2.22906 22.9111 2.30173 22.7259C2.3744 22.5408 2.51766 22.392 2.7 22.3124L5.68125 21.0099C5.39541 20.0322 5.2502 19.0187 5.25 17.9999V16.7499H2C1.80109 16.7499 1.61032 16.6709 1.46967 16.5303C1.32902 16.3896 1.25 16.1989 1.25 15.9999C1.25 15.801 1.32902 15.6103 1.46967 15.4696C1.61032 15.329 1.80109 15.2499 2 15.2499H5.25V13.9999C5.2502 12.9812 5.39541 11.9677 5.68125 10.9899L2.7 9.68745C2.51766 9.60788 2.3744 9.45915 2.30173 9.27395C2.22906 9.08876 2.23294 8.88229 2.3125 8.69995C2.39206 8.51761 2.5408 8.37435 2.726 8.30168C2.91119 8.22901 3.11766 8.23288 3.3 8.31245L6.20375 9.5812C7.05537 7.69658 8.43255 6.09761 10.1701 4.97605C11.9077 3.85449 13.9319 3.25793 16 3.25793C18.0681 3.25793 20.0923 3.85449 21.8299 4.97605C23.5675 6.09761 24.9446 7.69658 25.7962 9.5812L28.7 8.31245C28.8823 8.23288 29.0888 8.22901 29.274 8.30168C29.4592 8.37435 29.6079 8.51761 29.6875 8.69995C29.7671 8.88229 29.7709 9.08876 29.6983 9.27395C29.6256 9.45915 29.4823 9.60788 29.3 9.68745L26.3188 10.9899C26.6046 11.9677 26.7498 12.9812 26.75 13.9999V15.2499H30C30.1989 15.2499 30.3897 15.329 30.5303 15.4696C30.671 15.6103 30.75 15.801 30.75 15.9999ZM6.75 15.2499H25.25V13.9999C25.25 11.5467 24.2754 9.19392 22.5407 7.45921C20.806 5.7245 18.4533 4.74995 16 4.74995C13.5467 4.74995 11.194 5.7245 9.45926 7.45921C7.72455 9.19392 6.75 11.5467 6.75 13.9999V15.2499ZM15.25 27.2174V16.7499H6.75V17.9999C6.75311 20.3223 7.62859 22.5587 9.20293 24.2659C10.7773 25.9731 12.9355 27.0266 15.25 27.2174ZM25.25 16.7499H16.75V27.2174C19.0645 27.0266 21.2227 25.9731 22.7971 24.2659C24.3714 22.5587 25.2469 20.3223 25.25 17.9999V16.7499Z" fill="white"/>
</svg>
