<svg width="32" height="32" viewBox="0 0 32 32" fill="none" xmlns="http://www.w3.org/2000/svg">
<path d="M25.75 18.75H28C28.1989 18.75 28.3897 18.671 28.5303 18.5304C28.671 18.3897 28.75 18.1989 28.75 18C28.75 17.8011 28.671 17.6104 28.5303 17.4697C28.3897 17.329 28.1989 17.25 28 17.25H25.75V14.75H28C28.1989 14.75 28.3897 14.671 28.5303 14.5304C28.671 14.3897 28.75 14.1989 28.75 14C28.75 13.8011 28.671 13.6104 28.5303 13.4697C28.3897 13.329 28.1989 13.25 28 13.25H25.7188C25.5418 10.9457 24.5501 8.77964 22.9212 7.14003L25.53 4.53003C25.6037 4.46137 25.6628 4.37857 25.7038 4.28657C25.7448 4.19457 25.7668 4.09526 25.7686 3.99455C25.7704 3.89385 25.7518 3.79382 25.7141 3.70043C25.6764 3.60705 25.6203 3.52221 25.549 3.45099C25.4778 3.37977 25.393 3.32363 25.2996 3.28591C25.2062 3.24819 25.1062 3.22966 25.0055 3.23144C24.9048 3.23322 24.8055 3.25526 24.7135 3.29625C24.6215 3.33724 24.5387 3.39634 24.47 3.47003L21.7838 6.15628C20.1098 4.91814 18.0827 4.24992 16.0006 4.24992C13.9185 4.24992 11.8914 4.91814 10.2175 6.15628L7.53 3.47003C7.38783 3.33755 7.19978 3.26543 7.00548 3.26886C6.81118 3.27228 6.62579 3.351 6.48838 3.48841C6.35097 3.62582 6.27225 3.81121 6.26883 4.00551C6.2654 4.19981 6.33752 4.38786 6.47 4.53003L9.08 7.14003C7.45028 8.77914 6.45801 10.9454 6.28125 13.25H4C3.80109 13.25 3.61032 13.329 3.46967 13.4697C3.32902 13.6104 3.25 13.8011 3.25 14C3.25 14.1989 3.32902 14.3897 3.46967 14.5304C3.61032 14.671 3.80109 14.75 4 14.75H6.25V17.25H4C3.80109 17.25 3.61032 17.329 3.46967 17.4697C3.32902 17.6104 3.25 17.8011 3.25 18C3.25 18.1989 3.32902 18.3897 3.46967 18.5304C3.61032 18.671 3.80109 18.75 4 18.75H6.25V20C6.25088 20.418 6.27844 20.8355 6.3325 21.25H4C3.80109 21.25 3.61032 21.3291 3.46967 21.4697C3.32902 21.6104 3.25 21.8011 3.25 22C3.25 22.1989 3.32902 22.3897 3.46967 22.5304C3.61032 22.671 3.80109 22.75 4 22.75H6.6475C7.24244 24.7693 8.4749 26.5417 10.1607 27.8024C11.8464 29.0632 13.895 29.7444 16 29.7444C18.105 29.7444 20.1536 29.0632 21.8393 27.8024C23.5251 26.5417 24.7576 24.7693 25.3525 22.75H28C28.1989 22.75 28.3897 22.671 28.5303 22.5304C28.671 22.3897 28.75 22.1989 28.75 22C28.75 21.8011 28.671 21.6104 28.5303 21.4697C28.3897 21.3291 28.1989 21.25 28 21.25H25.6675C25.7216 20.8355 25.7491 20.418 25.75 20V18.75ZM16 5.75003C18.0573 5.75254 20.0395 6.52279 21.5587 7.90999C23.078 9.29719 24.0247 11.2015 24.2138 13.25H7.78625C7.97525 11.2015 8.92204 9.29719 10.4413 7.90999C11.9605 6.52279 13.9427 5.75254 16 5.75003ZM16.75 28.2138V18C16.75 17.8011 16.671 17.6104 16.5303 17.4697C16.3897 17.329 16.1989 17.25 16 17.25C15.8011 17.25 15.6103 17.329 15.4697 17.4697C15.329 17.6104 15.25 17.8011 15.25 18V28.2138C13.2014 28.0248 11.2972 27.078 9.90996 25.5588C8.52276 24.0396 7.75251 22.0573 7.75 20V14.75H24.25V20C24.2475 22.0573 23.4772 24.0396 22.09 25.5588C20.7028 27.078 18.7986 28.0248 16.75 28.2138Z" fill="white"/>
</svg>
