<svg width="32" height="32" viewBox="0 0 32 32" fill="none" xmlns="http://www.w3.org/2000/svg">
<path d="M23.625 6.43378L25.5275 4.53003C25.6012 4.46137 25.6603 4.37857 25.7013 4.28657C25.7423 4.19457 25.7643 4.09526 25.7661 3.99455C25.7679 3.89385 25.7493 3.79382 25.7116 3.70043C25.6739 3.60705 25.6178 3.52221 25.5465 3.45099C25.4753 3.37977 25.3905 3.32363 25.2971 3.28591C25.2037 3.24819 25.1037 3.22966 25.003 3.23144C24.9023 3.23322 24.803 3.25526 24.711 3.29625C24.619 3.33724 24.5362 3.39634 24.4675 3.47003L22.5 5.44253C20.6323 4.01843 18.3487 3.24711 16 3.24711C13.6513 3.24711 11.3677 4.01843 9.5 5.44253L7.53 3.47003C7.38783 3.33755 7.19978 3.26543 7.00548 3.26886C6.81118 3.27228 6.62579 3.351 6.48838 3.48841C6.35097 3.62582 6.27225 3.81121 6.26883 4.00551C6.2654 4.19981 6.33752 4.38786 6.47 4.53003L8.375 6.43378C6.37276 8.44271 5.24894 11.1637 5.25 14V19C5.25 21.8511 6.38259 24.5854 8.3986 26.6014C10.4146 28.6174 13.1489 29.75 16 29.75C18.8511 29.75 21.5854 28.6174 23.6014 26.6014C25.6174 24.5854 26.75 21.8511 26.75 19V14C26.7511 11.1637 25.6272 8.44271 23.625 6.43378ZM16 4.75003C18.4523 4.75301 20.8034 5.72852 22.5374 7.46258C24.2715 9.19665 25.247 11.5477 25.25 14V15.25H6.75V14C6.75298 11.5477 7.72848 9.19665 9.46255 7.46258C11.1966 5.72852 13.5477 4.75301 16 4.75003ZM16 28.25C13.5477 28.2471 11.1966 27.2715 9.46255 25.5375C7.72848 23.8034 6.75298 21.4524 6.75 19V16.75H25.25V19C25.247 21.4524 24.2715 23.8034 22.5374 25.5375C20.8034 27.2715 18.4523 28.2471 16 28.25ZM18.25 11.5C18.25 11.2528 18.3233 11.0111 18.4607 10.8056C18.598 10.6 18.7932 10.4398 19.0216 10.3452C19.2501 10.2506 19.5014 10.2258 19.7439 10.274C19.9863 10.3223 20.2091 10.4413 20.3839 10.6161C20.5587 10.791 20.6778 11.0137 20.726 11.2562C20.7742 11.4986 20.7495 11.75 20.6549 11.9784C20.5602 12.2068 20.4 12.402 20.1945 12.5394C19.9889 12.6767 19.7472 12.75 19.5 12.75C19.1685 12.75 18.8505 12.6183 18.6161 12.3839C18.3817 12.1495 18.25 11.8316 18.25 11.5ZM11.25 11.5C11.25 11.2528 11.3233 11.0111 11.4607 10.8056C11.598 10.6 11.7932 10.4398 12.0216 10.3452C12.2501 10.2506 12.5014 10.2258 12.7439 10.274C12.9863 10.3223 13.2091 10.4413 13.3839 10.6161C13.5587 10.791 13.6778 11.0137 13.726 11.2562C13.7742 11.4986 13.7495 11.75 13.6549 11.9784C13.5602 12.2068 13.4 12.402 13.1945 12.5394C12.9889 12.6767 12.7472 12.75 12.5 12.75C12.1685 12.75 11.8505 12.6183 11.6161 12.3839C11.3817 12.1495 11.25 11.8316 11.25 11.5Z" fill="white"/>
</svg>
