<svg width="32" height="32" viewBox="0 0 32 32" fill="none" xmlns="http://www.w3.org/2000/svg">
<path d="M29 28.25H25.75V3.75H27C27.1989 3.75 27.3897 3.67098 27.5303 3.53033C27.671 3.38968 27.75 3.19891 27.75 3C27.75 2.80109 27.671 2.61032 27.5303 2.46967C27.3897 2.32902 27.1989 2.25 27 2.25H5C4.80109 2.25 4.61032 2.32902 4.46967 2.46967C4.32902 2.61032 4.25 2.80109 4.25 3C4.25 3.19891 4.32902 3.38968 4.46967 3.53033C4.61032 3.67098 4.80109 3.75 5 3.75H6.25V28.25H3C2.80109 28.25 2.61032 28.329 2.46967 28.4697C2.32902 28.6103 2.25 28.8011 2.25 29C2.25 29.1989 2.32902 29.3897 2.46967 29.5303C2.61032 29.671 2.80109 29.75 3 29.75H29C29.1989 29.75 29.3897 29.671 29.5303 29.5303C29.671 29.3897 29.75 29.1989 29.75 29C29.75 28.8011 29.671 28.6103 29.5303 28.4697C29.3897 28.329 29.1989 28.25 29 28.25ZM7.75 3.75H24.25V28.25H19.75V23C19.75 22.8011 19.671 22.6103 19.5303 22.4697C19.3897 22.329 19.1989 22.25 19 22.25H13C12.8011 22.25 12.6103 22.329 12.4697 22.4697C12.329 22.6103 12.25 22.8011 12.25 23V28.25H7.75V3.75ZM18.25 28.25H13.75V23.75H18.25V28.25ZM11.25 8C11.25 7.80109 11.329 7.61032 11.4697 7.46967C11.6103 7.32902 11.8011 7.25 12 7.25H14C14.1989 7.25 14.3897 7.32902 14.5303 7.46967C14.671 7.61032 14.75 7.80109 14.75 8C14.75 8.19891 14.671 8.38968 14.5303 8.53033C14.3897 8.67098 14.1989 8.75 14 8.75H12C11.8011 8.75 11.6103 8.67098 11.4697 8.53033C11.329 8.38968 11.25 8.19891 11.25 8ZM17.25 8C17.25 7.80109 17.329 7.61032 17.4697 7.46967C17.6103 7.32902 17.8011 7.25 18 7.25H20C20.1989 7.25 20.3897 7.32902 20.5303 7.46967C20.671 7.61032 20.75 7.80109 20.75 8C20.75 8.19891 20.671 8.38968 20.5303 8.53033C20.3897 8.67098 20.1989 8.75 20 8.75H18C17.8011 8.75 17.6103 8.67098 17.4697 8.53033C17.329 8.38968 17.25 8.19891 17.25 8ZM11.25 13C11.25 12.8011 11.329 12.6103 11.4697 12.4697C11.6103 12.329 11.8011 12.25 12 12.25H14C14.1989 12.25 14.3897 12.329 14.5303 12.4697C14.671 12.6103 14.75 12.8011 14.75 13C14.75 13.1989 14.671 13.3897 14.5303 13.5303C14.3897 13.671 14.1989 13.75 14 13.75H12C11.8011 13.75 11.6103 13.671 11.4697 13.5303C11.329 13.3897 11.25 13.1989 11.25 13ZM17.25 13C17.25 12.8011 17.329 12.6103 17.4697 12.4697C17.6103 12.329 17.8011 12.25 18 12.25H20C20.1989 12.25 20.3897 12.329 20.5303 12.4697C20.671 12.6103 20.75 12.8011 20.75 13C20.75 13.1989 20.671 13.3897 20.5303 13.5303C20.3897 13.671 20.1989 13.75 20 13.75H18C17.8011 13.75 17.6103 13.671 17.4697 13.5303C17.329 13.3897 17.25 13.1989 17.25 13ZM12 18.75C11.8011 18.75 11.6103 18.671 11.4697 18.5303C11.329 18.3897 11.25 18.1989 11.25 18C11.25 17.8011 11.329 17.6103 11.4697 17.4697C11.6103 17.329 11.8011 17.25 12 17.25H14C14.1989 17.25 14.3897 17.329 14.5303 17.4697C14.671 17.6103 14.75 17.8011 14.75 18C14.75 18.1989 14.671 18.3897 14.5303 18.5303C14.3897 18.671 14.1989 18.75 14 18.75H12ZM17.25 18C17.25 17.8011 17.329 17.6103 17.4697 17.4697C17.6103 17.329 17.8011 17.25 18 17.25H20C20.1989 17.25 20.3897 17.329 20.5303 17.4697C20.671 17.6103 20.75 17.8011 20.75 18C20.75 18.1989 20.671 18.3897 20.5303 18.5303C20.3897 18.671 20.1989 18.75 20 18.75H18C17.8011 18.75 17.6103 18.671 17.4697 18.5303C17.329 18.3897 17.25 18.1989 17.25 18Z" fill="white"/>
</svg>
