<svg width="32" height="32" viewBox="0 0 32 32" fill="none" xmlns="http://www.w3.org/2000/svg">
<path d="M30 26.25H28.75V9C28.75 8.80109 28.671 8.61032 28.5303 8.46967C28.3897 8.32902 28.1989 8.25 28 8.25H22.75V5C22.75 4.80109 22.671 4.61032 22.5303 4.46967C22.3897 4.32902 22.1989 4.25 22 4.25H10C9.80109 4.25 9.61032 4.32902 9.46967 4.46967C9.32902 4.61032 9.25 4.80109 9.25 5V12.25H4C3.80109 12.25 3.61032 12.329 3.46967 12.4697C3.32902 12.6103 3.25 12.8011 3.25 13V26.25H2C1.80109 26.25 1.61032 26.329 1.46967 26.4697C1.32902 26.6103 1.25 26.8011 1.25 27C1.25 27.1989 1.32902 27.3897 1.46967 27.5303C1.61032 27.671 1.80109 27.75 2 27.75H30C30.1989 27.75 30.3897 27.671 30.5303 27.5303C30.671 27.3897 30.75 27.1989 30.75 27C30.75 26.8011 30.671 26.6103 30.5303 26.4697C30.3897 26.329 30.1989 26.25 30 26.25ZM4.75 13.75H10C10.1989 13.75 10.3897 13.671 10.5303 13.5303C10.671 13.3897 10.75 13.1989 10.75 13V5.75H21.25V9C21.25 9.19891 21.329 9.38968 21.4697 9.53033C21.6103 9.67098 21.8011 9.75 22 9.75H27.25V26.25H18.75V21C18.75 20.8011 18.671 20.6103 18.5303 20.4697C18.3897 20.329 18.1989 20.25 18 20.25H14C13.8011 20.25 13.6103 20.329 13.4697 20.4697C13.329 20.6103 13.25 20.8011 13.25 21V26.25H4.75V13.75ZM17.25 26.25H14.75V21.75H17.25V26.25ZM14.25 9C14.25 8.80109 14.329 8.61032 14.4697 8.46967C14.6103 8.32902 14.8011 8.25 15 8.25H17C17.1989 8.25 17.3897 8.32902 17.5303 8.46967C17.671 8.61032 17.75 8.80109 17.75 9C17.75 9.19891 17.671 9.38968 17.5303 9.53033C17.3897 9.67098 17.1989 9.75 17 9.75H15C14.8011 9.75 14.6103 9.67098 14.4697 9.53033C14.329 9.38968 14.25 9.19891 14.25 9ZM14.25 13C14.25 12.8011 14.329 12.6103 14.4697 12.4697C14.6103 12.329 14.8011 12.25 15 12.25H17C17.1989 12.25 17.3897 12.329 17.5303 12.4697C17.671 12.6103 17.75 12.8011 17.75 13C17.75 13.1989 17.671 13.3897 17.5303 13.5303C17.3897 13.671 17.1989 13.75 17 13.75H15C14.8011 13.75 14.6103 13.671 14.4697 13.5303C14.329 13.3897 14.25 13.1989 14.25 13ZM21.25 13C21.25 12.8011 21.329 12.6103 21.4697 12.4697C21.6103 12.329 21.8011 12.25 22 12.25H24C24.1989 12.25 24.3897 12.329 24.5303 12.4697C24.671 12.6103 24.75 12.8011 24.75 13C24.75 13.1989 24.671 13.3897 24.5303 13.5303C24.3897 13.671 24.1989 13.75 24 13.75H22C21.8011 13.75 21.6103 13.671 21.4697 13.5303C21.329 13.3897 21.25 13.1989 21.25 13ZM10.75 17C10.75 17.1989 10.671 17.3897 10.5303 17.5303C10.3897 17.671 10.1989 17.75 10 17.75H8C7.80109 17.75 7.61032 17.671 7.46967 17.5303C7.32902 17.3897 7.25 17.1989 7.25 17C7.25 16.8011 7.32902 16.6103 7.46967 16.4697C7.61032 16.329 7.80109 16.25 8 16.25H10C10.1989 16.25 10.3897 16.329 10.5303 16.4697C10.671 16.6103 10.75 16.8011 10.75 17ZM10.75 21C10.75 21.1989 10.671 21.3897 10.5303 21.5303C10.3897 21.671 10.1989 21.75 10 21.75H8C7.80109 21.75 7.61032 21.671 7.46967 21.5303C7.32902 21.3897 7.25 21.1989 7.25 21C7.25 20.8011 7.32902 20.6103 7.46967 20.4697C7.61032 20.329 7.80109 20.25 8 20.25H10C10.1989 20.25 10.3897 20.329 10.5303 20.4697C10.671 20.6103 10.75 20.8011 10.75 21ZM14.25 17C14.25 16.8011 14.329 16.6103 14.4697 16.4697C14.6103 16.329 14.8011 16.25 15 16.25H17C17.1989 16.25 17.3897 16.329 17.5303 16.4697C17.671 16.6103 17.75 16.8011 17.75 17C17.75 17.1989 17.671 17.3897 17.5303 17.5303C17.3897 17.671 17.1989 17.75 17 17.75H15C14.8011 17.75 14.6103 17.671 14.4697 17.5303C14.329 17.3897 14.25 17.1989 14.25 17ZM21.25 17C21.25 16.8011 21.329 16.6103 21.4697 16.4697C21.6103 16.329 21.8011 16.25 22 16.25H24C24.1989 16.25 24.3897 16.329 24.5303 16.4697C24.671 16.6103 24.75 16.8011 24.75 17C24.75 17.1989 24.671 17.3897 24.5303 17.5303C24.3897 17.671 24.1989 17.75 24 17.75H22C21.8011 17.75 21.6103 17.671 21.4697 17.5303C21.329 17.3897 21.25 17.1989 21.25 17ZM21.25 21C21.25 20.8011 21.329 20.6103 21.4697 20.4697C21.6103 20.329 21.8011 20.25 22 20.25H24C24.1989 20.25 24.3897 20.329 24.5303 20.4697C24.671 20.6103 24.75 20.8011 24.75 21C24.75 21.1989 24.671 21.3897 24.5303 21.5303C24.3897 21.671 24.1989 21.75 24 21.75H22C21.8011 21.75 21.6103 21.671 21.4697 21.5303C21.329 21.3897 21.25 21.1989 21.25 21Z" fill="white"/>
</svg>
