<svg width="32" height="32" viewBox="0 0 32 32" fill="none" xmlns="http://www.w3.org/2000/svg">
<path d="M31 25.25H30C29.6685 25.25 29.3506 25.1183 29.1161 24.8839C28.8817 24.6495 28.75 24.3315 28.75 24V20C28.75 19.6685 28.8817 19.3505 29.1161 19.1161C29.3506 18.8817 29.6685 18.75 30 18.75H31C31.1989 18.75 31.3897 18.671 31.5304 18.5303C31.671 18.3897 31.75 18.1989 31.75 18C31.75 17.8011 31.671 17.6103 31.5304 17.4697C31.3897 17.329 31.1989 17.25 31 17.25H30C29.2707 17.25 28.5712 17.5397 28.0555 18.0555C27.5398 18.5712 27.25 19.2707 27.25 20V21.25H24.69C24.524 20.2219 24.0253 19.2766 23.2705 18.5591C22.5157 17.8415 21.5465 17.3913 20.5113 17.2775L15.9488 6.32625C15.8158 6.00752 15.5915 5.73525 15.3041 5.54374C15.0168 5.35222 14.6791 5.25002 14.3338 5.25H3.00003C2.5359 5.25 2.09078 5.43437 1.76259 5.76256C1.4344 6.09075 1.25003 6.53587 1.25003 7V19.09C0.705897 19.792 0.369489 20.6325 0.278994 21.516C0.1885 22.3996 0.347545 23.2908 0.738073 24.0885C1.1286 24.8863 1.73497 25.5585 2.48832 26.029C3.24168 26.4994 4.11184 26.7492 5.00003 26.75H20C21.1294 26.7486 22.2214 26.3454 23.0807 25.6126C23.94 24.8797 24.5105 23.865 24.69 22.75H27.25V24C27.25 24.7293 27.5398 25.4288 28.0555 25.9445C28.5712 26.4603 29.2707 26.75 30 26.75H31C31.1989 26.75 31.3897 26.671 31.5304 26.5303C31.671 26.3897 31.75 26.1989 31.75 26C31.75 25.8011 31.671 25.6103 31.5304 25.4697C31.3897 25.329 31.1989 25.25 31 25.25ZM14.5638 6.90375L18.875 17.25H7.75003V6.75H14.3338C14.383 6.75014 14.4311 6.76481 14.472 6.79216C14.5129 6.81951 14.5448 6.85833 14.5638 6.90375ZM3.00003 6.75H6.25003V17.25H5.00003C4.21453 17.2493 3.44123 17.4443 2.75003 17.8175V7C2.75003 6.9337 2.77636 6.87011 2.82325 6.82322C2.87013 6.77634 2.93372 6.75 3.00003 6.75ZM20 25.25H5.00003C4.13807 25.25 3.31142 24.9076 2.70193 24.2981C2.09244 23.6886 1.75003 22.862 1.75003 22C1.75003 21.138 2.09244 20.3114 2.70193 19.7019C3.31142 19.0924 4.13807 18.75 5.00003 18.75H20C20.862 18.75 21.6886 19.0924 22.2981 19.7019C22.9076 20.3114 23.25 21.138 23.25 22C23.25 22.862 22.9076 23.6886 22.2981 24.2981C21.6886 24.9076 20.862 25.25 20 25.25ZM20.75 22C20.75 22.1989 20.671 22.3897 20.5304 22.5303C20.3897 22.671 20.1989 22.75 20 22.75H5.00003C4.80111 22.75 4.61035 22.671 4.4697 22.5303C4.32904 22.3897 4.25003 22.1989 4.25003 22C4.25003 21.8011 4.32904 21.6103 4.4697 21.4697C4.61035 21.329 4.80111 21.25 5.00003 21.25H20C20.1989 21.25 20.3897 21.329 20.5304 21.4697C20.671 21.6103 20.75 21.8011 20.75 22Z" fill="white"/>
</svg>
