<svg width="32" height="32" viewBox="0 0 32 32" fill="none" xmlns="http://www.w3.org/2000/svg">
<path d="M30.7388 3.87501C30.7215 3.77759 30.6851 3.68456 30.6317 3.60127C30.5782 3.51798 30.5089 3.44609 30.4275 3.38974C30.3462 3.33339 30.2545 3.29369 30.1578 3.27292C30.061 3.25216 29.9611 3.25075 29.8638 3.26876L1.87506 8.26251C1.69199 8.29625 1.528 8.39687 1.415 8.5448C1.30199 8.69273 1.24803 8.8774 1.26362 9.0629C1.27921 9.2484 1.36323 9.42147 1.49934 9.54847C1.63545 9.67546 1.81392 9.7473 2.00006 9.75001C2.04488 9.74994 2.08961 9.74618 2.13381 9.73876L15.2501 7.39626V12.25H8.00006C7.0055 12.25 6.05167 12.6451 5.34841 13.3484C4.64515 14.0516 4.25006 15.0055 4.25006 16V24C4.25006 24.9946 4.64515 25.9484 5.34841 26.6517C6.05167 27.3549 7.0055 27.75 8.00006 27.75H24.0001C24.9946 27.75 25.9485 27.3549 26.6517 26.6517C27.355 25.9484 27.7501 24.9946 27.7501 24V16C27.7501 15.0055 27.355 14.0516 26.6517 13.3484C25.9485 12.6451 24.9946 12.25 24.0001 12.25H16.7501V7.12501L30.1313 4.73876C30.326 4.70397 30.4991 4.59369 30.6128 4.43193C30.7266 4.27016 30.7719 4.07 30.7388 3.87501ZM12.7501 20.25V13.75H19.2501V20.25H12.7501ZM8.00006 13.75H11.2501V20.25H5.75006V16C5.75006 15.4033 5.98711 14.831 6.40907 14.409C6.83103 13.9871 7.40332 13.75 8.00006 13.75ZM24.0001 26.25H8.00006C7.40332 26.25 6.83103 26.013 6.40907 25.591C5.98711 25.169 5.75006 24.5968 5.75006 24V21.75H26.2501V24C26.2501 24.5968 26.013 25.169 25.5911 25.591C25.1691 26.013 24.5968 26.25 24.0001 26.25ZM26.2501 16V20.25H20.7501V13.75H24.0001C24.5968 13.75 25.1691 13.9871 25.5911 14.409C26.013 14.831 26.2501 15.4033 26.2501 16Z" fill="white"/>
</svg>
