<svg width="32" height="32" viewBox="0 0 32 32" fill="none" xmlns="http://www.w3.org/2000/svg">
<path d="M26 4.25H22.75V3C22.75 2.80109 22.671 2.61032 22.5303 2.46967C22.3897 2.32902 22.1989 2.25 22 2.25C21.8011 2.25 21.6103 2.32902 21.4697 2.46967C21.329 2.61032 21.25 2.80109 21.25 3V4.25H10.75V3C10.75 2.80109 10.671 2.61032 10.5303 2.46967C10.3897 2.32902 10.1989 2.25 10 2.25C9.80109 2.25 9.61032 2.32902 9.46967 2.46967C9.32902 2.61032 9.25 2.80109 9.25 3V4.25H6C5.53587 4.25 5.09075 4.43437 4.76256 4.76256C4.43437 5.09075 4.25 5.53587 4.25 6V26C4.25 26.4641 4.43437 26.9092 4.76256 27.2374C5.09075 27.5656 5.53587 27.75 6 27.75H26C26.4641 27.75 26.9092 27.5656 27.2374 27.2374C27.5656 26.9092 27.75 26.4641 27.75 26V6C27.75 5.53587 27.5656 5.09075 27.2374 4.76256C26.9092 4.43437 26.4641 4.25 26 4.25ZM26.25 26C26.25 26.0663 26.2237 26.1299 26.1768 26.1768C26.1299 26.2237 26.0663 26.25 26 26.25H6C5.9337 26.25 5.87011 26.2237 5.82322 26.1768C5.77634 26.1299 5.75 26.0663 5.75 26V6C5.75 5.9337 5.77634 5.87011 5.82322 5.82322C5.87011 5.77634 5.9337 5.75 6 5.75H9.25V7C9.25 7.19891 9.32902 7.38968 9.46967 7.53033C9.61032 7.67098 9.80109 7.75 10 7.75C10.1989 7.75 10.3897 7.67098 10.5303 7.53033C10.671 7.38968 10.75 7.19891 10.75 7V5.75H21.25V7C21.25 7.19891 21.329 7.38968 21.4697 7.53033C21.6103 7.67098 21.8011 7.75 22 7.75C22.1989 7.75 22.3897 7.67098 22.5303 7.53033C22.671 7.38968 22.75 7.19891 22.75 7V5.75H26C26.0663 5.75 26.1299 5.77634 26.1768 5.82322C26.2237 5.87011 26.25 5.9337 26.25 6V26ZM22.0575 14.4537L18.1825 14.1538L16.6887 10.7025C16.6304 10.5687 16.5343 10.4548 16.4122 10.3748C16.29 10.2948 16.1472 10.2522 16.0012 10.2522C15.8553 10.2522 15.7125 10.2948 15.5903 10.3748C15.4682 10.4548 15.3721 10.5687 15.3138 10.7025L13.825 14.1538L9.95 14.4537C9.8009 14.4652 9.65862 14.5209 9.54144 14.6138C9.42426 14.7067 9.33753 14.8326 9.29238 14.9751C9.24724 15.1177 9.24574 15.2705 9.28808 15.4139C9.33042 15.5573 9.41467 15.6848 9.53 15.78L12.4663 18.2038L11.5712 21.82C11.5358 21.9633 11.5435 22.114 11.5933 22.253C11.643 22.392 11.7328 22.5132 11.8512 22.6014C11.9696 22.6897 12.1114 22.741 12.2588 22.7489C12.4063 22.7569 12.5528 22.7212 12.68 22.6462L16 20.6875L19.3275 22.6462C19.4547 22.7212 19.6012 22.7569 19.7487 22.7489C19.8961 22.741 20.0379 22.6897 20.1563 22.6014C20.2747 22.5132 20.3645 22.392 20.4142 22.253C20.464 22.114 20.4717 21.9633 20.4363 21.82L19.5413 18.2038L22.4775 15.78C22.5928 15.6848 22.6771 15.5573 22.7194 15.4139C22.7618 15.2705 22.7603 15.1177 22.7151 14.9751C22.67 14.8326 22.5832 14.7067 22.4661 14.6138C22.3489 14.5209 22.2066 14.4652 22.0575 14.4537ZM18.2225 17.3475C18.1136 17.4376 18.0323 17.5566 17.9881 17.6908C17.9438 17.8251 17.9384 17.9691 17.9725 18.1063L18.5513 20.4487L16.375 19.1712C16.2598 19.1036 16.1286 19.0679 15.995 19.0679C15.8614 19.0679 15.7302 19.1036 15.615 19.1712L13.4438 20.4487L14.0225 18.1063C14.0566 17.9691 14.0512 17.8251 14.0069 17.6908C13.9627 17.5566 13.8814 17.4376 13.7725 17.3475L11.91 15.8062L14.3888 15.615C14.524 15.6034 14.6536 15.5553 14.7637 15.4758C14.8737 15.3963 14.9602 15.2885 15.0138 15.1637L16 12.8925L16.98 15.1637C17.0336 15.2885 17.12 15.3963 17.2301 15.4758C17.3402 15.5553 17.4697 15.6034 17.605 15.615L20.0837 15.8062L18.2225 17.3475Z" fill="white"/>
</svg>
