<svg width="32" height="32" viewBox="0 0 32 32" fill="none" xmlns="http://www.w3.org/2000/svg">
<path d="M26 4.25H22.75V3C22.75 2.80109 22.671 2.61032 22.5303 2.46967C22.3897 2.32902 22.1989 2.25 22 2.25C21.8011 2.25 21.6103 2.32902 21.4697 2.46967C21.329 2.61032 21.25 2.80109 21.25 3V4.25H10.75V3C10.75 2.80109 10.671 2.61032 10.5303 2.46967C10.3897 2.32902 10.1989 2.25 10 2.25C9.80109 2.25 9.61032 2.32902 9.46967 2.46967C9.32902 2.61032 9.25 2.80109 9.25 3V4.25H6C5.53587 4.25 5.09075 4.43437 4.76256 4.76256C4.43437 5.09075 4.25 5.53587 4.25 6V26C4.25 26.4641 4.43437 26.9092 4.76256 27.2374C5.09075 27.5656 5.53587 27.75 6 27.75H26C26.4641 27.75 26.9092 27.5656 27.2374 27.2374C27.5656 26.9092 27.75 26.4641 27.75 26V6C27.75 5.53587 27.5656 5.09075 27.2374 4.76256C26.9092 4.43437 26.4641 4.25 26 4.25ZM26.25 26C26.25 26.0663 26.2237 26.1299 26.1768 26.1768C26.1299 26.2237 26.0663 26.25 26 26.25H6C5.9337 26.25 5.87011 26.2237 5.82322 26.1768C5.77634 26.1299 5.75 26.0663 5.75 26V6C5.75 5.9337 5.77634 5.87011 5.82322 5.82322C5.87011 5.77634 5.9337 5.75 6 5.75H9.25V7C9.25 7.19891 9.32902 7.38968 9.46967 7.53033C9.61032 7.67098 9.80109 7.75 10 7.75C10.1989 7.75 10.3897 7.67098 10.5303 7.53033C10.671 7.38968 10.75 7.19891 10.75 7V5.75H21.25V7C21.25 7.19891 21.329 7.38968 21.4697 7.53033C21.6103 7.67098 21.8011 7.75 22 7.75C22.1989 7.75 22.3897 7.67098 22.5303 7.53033C22.671 7.38968 22.75 7.19891 22.75 7V5.75H26C26.0663 5.75 26.1299 5.77634 26.1768 5.82322C26.2237 5.87011 26.25 5.9337 26.25 6V26ZM19 11.25C18.4178 11.25 17.8437 11.3855 17.3229 11.6459C16.8022 11.9063 16.3493 12.2843 16 12.75C15.5278 12.1204 14.8694 11.6552 14.1181 11.4206C13.3669 11.1859 12.5608 11.1935 11.8141 11.4424C11.0675 11.6913 10.418 12.1688 9.95784 12.8073C9.49764 13.4458 9.25 14.2129 9.25 15C9.25 19.4125 15.4025 22.54 15.665 22.6712C15.769 22.7232 15.8837 22.7502 16 22.7502C16.1163 22.7502 16.231 22.7232 16.335 22.6712C16.5975 22.54 22.75 19.4125 22.75 15C22.75 14.0054 22.3549 13.0516 21.6517 12.3483C20.9484 11.6451 19.9946 11.25 19 11.25ZM18.5413 19.4062C17.7478 20.0617 16.8974 20.6449 16 21.1488C15.1029 20.6444 14.2525 20.0613 13.4587 19.4062C12.2225 18.375 10.75 16.7688 10.75 15C10.75 14.4033 10.9871 13.831 11.409 13.409C11.831 12.9871 12.4033 12.75 13 12.75C13.5967 12.75 14.169 12.9871 14.591 13.409C15.0129 13.831 15.25 14.4033 15.25 15C15.25 15.1989 15.329 15.3897 15.4697 15.5303C15.6103 15.671 15.8011 15.75 16 15.75C16.1989 15.75 16.3897 15.671 16.5303 15.5303C16.671 15.3897 16.75 15.1989 16.75 15C16.75 14.4033 16.9871 13.831 17.409 13.409C17.831 12.9871 18.4033 12.75 19 12.75C19.5967 12.75 20.169 12.9871 20.591 13.409C21.0129 13.831 21.25 14.4033 21.25 15C21.25 16.7688 19.7775 18.375 18.5413 19.4062Z" fill="white"/>
</svg>
