<svg width="32" height="32" viewBox="0 0 32 32" fill="none" xmlns="http://www.w3.org/2000/svg">
<path d="M6.555 4.5C6.4851 4.42185 6.3996 4.35922 6.304 4.31616C6.20841 4.2731 6.10485 4.25056 6 4.25C5.53587 4.25 5.09075 4.43437 4.76256 4.76256C4.43437 5.09075 4.25 5.53587 4.25 6V26C4.25 26.4641 4.43437 26.9092 4.76256 27.2374C5.09075 27.5656 5.53587 27.75 6 27.75H26C26.1444 27.7492 26.2856 27.7068 26.4065 27.6277C26.5274 27.5487 26.6229 27.4364 26.6815 27.3044C26.7401 27.1723 26.7593 27.0262 26.7369 26.8835C26.7145 26.7408 26.6513 26.6077 26.555 26.5L6.555 4.5ZM5.7825 5.875L9.75875 10.25H5.75V6C5.75004 5.95625 5.76122 5.91323 5.7825 5.875ZM6 26.25C5.9337 26.25 5.87011 26.2237 5.82322 26.1768C5.77634 26.1299 5.75 26.0663 5.75 26V11.75H11.125L24.305 26.25H6ZM27.75 6V22.1537C27.75 22.3527 27.671 22.5434 27.5303 22.6841C27.3897 22.8247 27.1989 22.9037 27 22.9037C26.8011 22.9037 26.6103 22.8247 26.4697 22.6841C26.329 22.5434 26.25 22.3527 26.25 22.1537V11.75H16.86C16.6611 11.75 16.4703 11.671 16.3297 11.5303C16.189 11.3897 16.11 11.1989 16.11 11C16.11 10.8011 16.189 10.6103 16.3297 10.4697C16.4703 10.329 16.6611 10.25 16.86 10.25H26.25V6C26.25 5.9337 26.2237 5.87011 26.1768 5.82322C26.1299 5.77634 26.0663 5.75 26 5.75H22.75V7C22.75 7.19891 22.671 7.38968 22.5303 7.53033C22.3897 7.67098 22.1989 7.75 22 7.75C21.8011 7.75 21.6103 7.67098 21.4697 7.53033C21.329 7.38968 21.25 7.19891 21.25 7V5.75H11.4062C11.2073 5.75 11.0166 5.67098 10.8759 5.53033C10.7353 5.38968 10.6562 5.19891 10.6562 5C10.6562 4.80109 10.7353 4.61032 10.8759 4.46967C11.0166 4.32902 11.2073 4.25 11.4062 4.25H21.25V3C21.25 2.80109 21.329 2.61032 21.4697 2.46967C21.6103 2.32902 21.8011 2.25 22 2.25C22.1989 2.25 22.3897 2.32902 22.5303 2.46967C22.671 2.61032 22.75 2.80109 22.75 3V4.25H26C26.4641 4.25 26.9092 4.43437 27.2374 4.76256C27.5656 5.09075 27.75 5.53587 27.75 6Z" fill="white"/>
</svg>
