<svg width="32" height="32" viewBox="0 0 32 32" fill="none" xmlns="http://www.w3.org/2000/svg">
<path d="M20.75 17C20.75 17.1989 20.671 17.3897 20.5303 17.5303C20.3897 17.671 20.1989 17.75 20 17.75H16.75V21C16.75 21.1989 16.671 21.3897 16.5303 21.5303C16.3897 21.671 16.1989 21.75 16 21.75C15.8011 21.75 15.6103 21.671 15.4697 21.5303C15.329 21.3897 15.25 21.1989 15.25 21V17.75H12C11.8011 17.75 11.6103 17.671 11.4697 17.5303C11.329 17.3897 11.25 17.1989 11.25 17C11.25 16.8011 11.329 16.6103 11.4697 16.4697C11.6103 16.329 11.8011 16.25 12 16.25H15.25V13C15.25 12.8011 15.329 12.6103 15.4697 12.4697C15.6103 12.329 15.8011 12.25 16 12.25C16.1989 12.25 16.3897 12.329 16.5303 12.4697C16.671 12.6103 16.75 12.8011 16.75 13V16.25H20C20.1989 16.25 20.3897 16.329 20.5303 16.4697C20.671 16.6103 20.75 16.8011 20.75 17ZM28.75 10V24C28.75 24.7293 28.4603 25.4288 27.9445 25.9445C27.4288 26.4603 26.7293 26.75 26 26.75H6C5.27065 26.75 4.57118 26.4603 4.05546 25.9445C3.53973 25.4288 3.25 24.7293 3.25 24V10C3.25 9.27065 3.53973 8.57118 4.05546 8.05546C4.57118 7.53973 5.27065 7.25 6 7.25H9.59875L11.0787 5.02875C11.2386 4.78911 11.4552 4.59265 11.7092 4.4568C11.9633 4.32095 12.2469 4.24992 12.535 4.25H19.465C19.7531 4.24992 20.0367 4.32095 20.2908 4.4568C20.5448 4.59265 20.7614 4.78911 20.9212 5.02875L22.4013 7.25H26C26.7293 7.25 27.4288 7.53973 27.9445 8.05546C28.4603 8.57118 28.75 9.27065 28.75 10ZM27.25 10C27.25 9.66848 27.1183 9.35054 26.8839 9.11612C26.6495 8.8817 26.3315 8.75 26 8.75H22C21.8764 8.75018 21.7546 8.71981 21.6456 8.66158C21.5366 8.60335 21.4436 8.51908 21.375 8.41625L19.6725 5.86125C19.6497 5.82709 19.6189 5.79907 19.5827 5.77967C19.5465 5.76027 19.5061 5.75008 19.465 5.75H12.535C12.4939 5.75008 12.4535 5.76027 12.4173 5.77967C12.3811 5.79907 12.3503 5.82709 12.3275 5.86125L10.625 8.41625C10.5564 8.51908 10.4634 8.60335 10.3544 8.66158C10.2454 8.71981 10.1236 8.75018 10 8.75H6C5.66848 8.75 5.35054 8.8817 5.11612 9.11612C4.8817 9.35054 4.75 9.66848 4.75 10V24C4.75 24.3315 4.8817 24.6495 5.11612 24.8839C5.35054 25.1183 5.66848 25.25 6 25.25H26C26.3315 25.25 26.6495 25.1183 26.8839 24.8839C27.1183 24.6495 27.25 24.3315 27.25 24V10Z" fill="white"/>
</svg>
