<svg width="32" height="32" viewBox="0 0 32 32" fill="none" xmlns="http://www.w3.org/2000/svg">
<path d="M27.7148 28.2274C27.685 28.3213 27.6369 28.4084 27.5734 28.4838C27.5099 28.5591 27.4321 28.6212 27.3446 28.6665C27.2571 28.7117 27.1615 28.7393 27.0633 28.7476C26.9651 28.7559 26.8662 28.7448 26.7723 28.7149L15.9998 25.2874L5.22733 28.7149C5.13344 28.7448 5.03458 28.7559 4.9364 28.7475C4.83822 28.7392 4.74264 28.7116 4.65512 28.6663C4.5676 28.6211 4.48985 28.559 4.42632 28.4837C4.36279 28.4084 4.31471 28.3213 4.28483 28.2274C4.25496 28.1335 4.24387 28.0346 4.2522 27.9365C4.26053 27.8383 4.28812 27.7427 4.33338 27.6552C4.37865 27.5677 4.44072 27.4899 4.51603 27.4264C4.59135 27.3629 4.67844 27.3148 4.77233 27.2849L13.5223 24.4999L4.77233 21.7149C4.67844 21.685 4.59135 21.6369 4.51603 21.5734C4.44072 21.5099 4.37865 21.4321 4.33338 21.3446C4.28812 21.2571 4.26053 21.1615 4.2522 21.0633C4.24387 20.9652 4.25496 20.8663 4.28483 20.7724C4.31471 20.6785 4.36279 20.5914 4.42632 20.5161C4.48985 20.4408 4.5676 20.3787 4.65512 20.3335C4.74264 20.2882 4.83822 20.2606 4.9364 20.2523C5.03458 20.2439 5.13344 20.255 5.22733 20.2849L15.9998 23.7124L26.7723 20.2849C26.962 20.2246 27.1678 20.242 27.3445 20.3335C27.5213 20.4249 27.6545 20.5828 27.7148 20.7724C27.7752 20.962 27.7577 21.1679 27.6663 21.3446C27.5749 21.5214 27.417 21.6546 27.2273 21.7149L18.4773 24.4999L27.2273 27.2849C27.3213 27.3147 27.4084 27.3628 27.4837 27.4263C27.559 27.4898 27.6211 27.5676 27.6664 27.6551C27.7117 27.7427 27.7393 27.8382 27.7476 27.9364C27.7559 28.0346 27.7448 28.1335 27.7148 28.2274ZM8.74983 13.4999C8.74983 7.64865 15.3273 3.53365 15.6073 3.36115C15.7254 3.28863 15.8613 3.25024 15.9998 3.25024C16.1384 3.25024 16.2743 3.28863 16.3923 3.36115C16.6723 3.53365 23.2498 7.64865 23.2498 13.4999C23.2498 15.4227 22.486 17.2668 21.1264 18.6264C19.7667 19.9861 17.9227 20.7499 15.9998 20.7499C14.077 20.7499 12.2329 19.9861 10.8733 18.6264C9.51367 17.2668 8.74983 15.4227 8.74983 13.4999ZM15.9998 19.2499C16.5966 19.2499 17.1689 19.0128 17.5908 18.5909C18.0128 18.1689 18.2498 17.5966 18.2498 16.9999C18.2498 15.0649 16.7498 13.5711 15.9998 12.9449C15.2498 13.5699 13.7498 15.0699 13.7498 16.9999C13.7498 17.5966 13.9869 18.1689 14.4088 18.5909C14.8308 19.0128 15.4031 19.2499 15.9998 19.2499ZM10.2498 13.4999C10.2499 14.3544 10.4407 15.1981 10.8083 15.9695C11.176 16.7408 11.7111 17.4204 12.3748 17.9586C12.2918 17.6458 12.2498 17.3235 12.2498 16.9999C12.2498 13.6374 15.4473 11.4661 15.5836 11.3749C15.7068 11.2927 15.8517 11.2488 15.9998 11.2488C16.148 11.2488 16.2928 11.2927 16.4161 11.3749C16.5523 11.4649 19.7498 13.6361 19.7498 16.9999C19.7499 17.3235 19.7079 17.6458 19.6248 17.9586C20.2885 17.4204 20.8237 16.7408 21.1913 15.9695C21.559 15.1981 21.7498 14.3544 21.7498 13.4999C21.7498 9.2424 17.3561 5.8474 15.9998 4.9024C14.6436 5.8474 10.2498 9.24115 10.2498 13.4999Z" fill="white"/>
</svg>
