<svg width="32" height="32" viewBox="0 0 32 32" fill="none" xmlns="http://www.w3.org/2000/svg">
<path d="M23.75 17C23.75 17.1989 23.671 17.3897 23.5303 17.5303C23.3897 17.671 23.1989 17.75 23 17.75H21.75V19C21.75 19.1989 21.671 19.3897 21.5303 19.5303C21.3897 19.671 21.1989 19.75 21 19.75C20.8011 19.75 20.6103 19.671 20.4697 19.5303C20.329 19.3897 20.25 19.1989 20.25 19V17.75H19C18.8011 17.75 18.6103 17.671 18.4697 17.5303C18.329 17.3897 18.25 17.1989 18.25 17C18.25 16.8011 18.329 16.6103 18.4697 16.4697C18.6103 16.329 18.8011 16.25 19 16.25H20.25V15C20.25 14.8011 20.329 14.6103 20.4697 14.4697C20.6103 14.329 20.8011 14.25 21 14.25C21.1989 14.25 21.3897 14.329 21.5303 14.4697C21.671 14.6103 21.75 14.8011 21.75 15V16.25H23C23.1989 16.25 23.3897 16.329 23.5303 16.4697C23.671 16.6103 23.75 16.8011 23.75 17ZM13 16.25H9C8.80109 16.25 8.61032 16.329 8.46967 16.4697C8.32902 16.6103 8.25 16.8011 8.25 17C8.25 17.1989 8.32902 17.3897 8.46967 17.5303C8.61032 17.671 8.80109 17.75 9 17.75H13C13.1989 17.75 13.3897 17.671 13.5303 17.5303C13.671 17.3897 13.75 17.1989 13.75 17C13.75 16.8011 13.671 16.6103 13.5303 16.4697C13.3897 16.329 13.1989 16.25 13 16.25ZM29.75 11V23C29.75 23.4641 29.5656 23.9092 29.2374 24.2374C28.9092 24.5656 28.4641 24.75 28 24.75H4C3.53587 24.75 3.09075 24.5656 2.76256 24.2374C2.43437 23.9092 2.25 23.4641 2.25 23V11C2.25 10.5359 2.43437 10.0908 2.76256 9.76256C3.09075 9.43437 3.53587 9.25 4 9.25H6.25V7C6.25 6.53587 6.43437 6.09075 6.76256 5.76256C7.09075 5.43437 7.53587 5.25 8 5.25H12C12.4641 5.25 12.9092 5.43437 13.2374 5.76256C13.5656 6.09075 13.75 6.53587 13.75 7V9.25H18.25V7C18.25 6.53587 18.4344 6.09075 18.7626 5.76256C19.0908 5.43437 19.5359 5.25 20 5.25H24C24.4641 5.25 24.9092 5.43437 25.2374 5.76256C25.5656 6.09075 25.75 6.53587 25.75 7V9.25H28C28.4641 9.25 28.9092 9.43437 29.2374 9.76256C29.5656 10.0908 29.75 10.5359 29.75 11ZM19.75 9.25H24.25V7C24.25 6.9337 24.2237 6.87011 24.1768 6.82322C24.1299 6.77634 24.0663 6.75 24 6.75H20C19.9337 6.75 19.8701 6.77634 19.8232 6.82322C19.7763 6.87011 19.75 6.9337 19.75 7V9.25ZM7.75 9.25H12.25V7C12.25 6.9337 12.2237 6.87011 12.1768 6.82322C12.1299 6.77634 12.0663 6.75 12 6.75H8C7.9337 6.75 7.87011 6.77634 7.82322 6.82322C7.77634 6.87011 7.75 6.9337 7.75 7V9.25ZM28.25 11C28.25 10.9337 28.2237 10.8701 28.1768 10.8232C28.1299 10.7763 28.0663 10.75 28 10.75H4C3.9337 10.75 3.87011 10.7763 3.82322 10.8232C3.77634 10.8701 3.75 10.9337 3.75 11V23C3.75 23.0663 3.77634 23.1299 3.82322 23.1768C3.87011 23.2237 3.9337 23.25 4 23.25H28C28.0663 23.25 28.1299 23.2237 28.1768 23.1768C28.2237 23.1299 28.25 23.0663 28.25 23V11Z" fill="white"/>
</svg>
