<svg width="32" height="32" viewBox="0 0 32 32" fill="none" xmlns="http://www.w3.org/2000/svg">
<path d="M26 11.25H6C5.53587 11.25 5.09075 11.4344 4.76256 11.7626C4.43437 12.0908 4.25 12.5359 4.25 13V25C4.25 25.4641 4.43437 25.9092 4.76256 26.2374C5.09075 26.5656 5.53587 26.75 6 26.75H26C26.4641 26.75 26.9092 26.5656 27.2374 26.2374C27.5656 25.9092 27.75 25.4641 27.75 25V13C27.75 12.5359 27.5656 12.0908 27.2374 11.7626C26.9092 11.4344 26.4641 11.25 26 11.25ZM26.25 25C26.25 25.0663 26.2237 25.1299 26.1768 25.1768C26.1299 25.2237 26.0663 25.25 26 25.25H6C5.9337 25.25 5.87011 25.2237 5.82322 25.1768C5.77634 25.1299 5.75 25.0663 5.75 25V13C5.75 12.9337 5.77634 12.8701 5.82322 12.8232C5.87011 12.7763 5.9337 12.75 6 12.75H26C26.0663 12.75 26.1299 12.7763 26.1768 12.8232C26.2237 12.8701 26.25 12.9337 26.25 13V25ZM6.25 8C6.25 7.80109 6.32902 7.61032 6.46967 7.46967C6.61032 7.32902 6.80109 7.25 7 7.25H25C25.1989 7.25 25.3897 7.32902 25.5303 7.46967C25.671 7.61032 25.75 7.80109 25.75 8C25.75 8.19891 25.671 8.38968 25.5303 8.53033C25.3897 8.67098 25.1989 8.75 25 8.75H7C6.80109 8.75 6.61032 8.67098 6.46967 8.53033C6.32902 8.38968 6.25 8.19891 6.25 8ZM8.25 4C8.25 3.80109 8.32902 3.61032 8.46967 3.46967C8.61032 3.32902 8.80109 3.25 9 3.25H23C23.1989 3.25 23.3897 3.32902 23.5303 3.46967C23.671 3.61032 23.75 3.80109 23.75 4C23.75 4.19891 23.671 4.38968 23.5303 4.53033C23.3897 4.67098 23.1989 4.75 23 4.75H9C8.80109 4.75 8.61032 4.67098 8.46967 4.53033C8.32902 4.38968 8.25 4.19891 8.25 4Z" fill="white"/>
</svg>
