<svg width="32" height="32" viewBox="0 0 32 32" fill="none" xmlns="http://www.w3.org/2000/svg">
<path d="M26 6.25H6C5.27065 6.25 4.57118 6.53973 4.05546 7.05546C3.53973 7.57118 3.25 8.27065 3.25 9V23C3.25 23.7293 3.53973 24.4288 4.05546 24.9445C4.57118 25.4603 5.27065 25.75 6 25.75H26C26.7293 25.75 27.4288 25.4603 27.9445 24.9445C28.4603 24.4288 28.75 23.7293 28.75 23V9C28.75 8.27065 28.4603 7.57118 27.9445 7.05546C27.4288 6.53973 26.7293 6.25 26 6.25ZM4.75 11.75H27.25V14.25H20C19.8011 14.25 19.6103 14.329 19.4697 14.4697C19.329 14.6103 19.25 14.8011 19.25 15C19.25 15.862 18.9076 16.6886 18.2981 17.2981C17.6886 17.9076 16.862 18.25 16 18.25C15.138 18.25 14.3114 17.9076 13.7019 17.2981C13.0924 16.6886 12.75 15.862 12.75 15C12.75 14.8011 12.671 14.6103 12.5303 14.4697C12.3897 14.329 12.1989 14.25 12 14.25H4.75V11.75ZM6 7.75H26C26.3315 7.75 26.6495 7.8817 26.8839 8.11612C27.1183 8.35054 27.25 8.66848 27.25 9V10.25H4.75V9C4.75 8.66848 4.8817 8.35054 5.11612 8.11612C5.35054 7.8817 5.66848 7.75 6 7.75ZM26 24.25H6C5.66848 24.25 5.35054 24.1183 5.11612 23.8839C4.8817 23.6495 4.75 23.3315 4.75 23V15.75H11.3088C11.486 16.8667 12.0559 17.8836 12.9158 18.6177C13.7757 19.3519 14.8693 19.7552 16 19.7552C17.1307 19.7552 18.2243 19.3519 19.0842 18.6177C19.9441 17.8836 20.514 16.8667 20.6912 15.75H27.25V23C27.25 23.3315 27.1183 23.6495 26.8839 23.8839C26.6495 24.1183 26.3315 24.25 26 24.25Z" fill="white"/>
</svg>
