<svg width="32" height="32" viewBox="0 0 32 32" fill="none" xmlns="http://www.w3.org/2000/svg">
<path d="M25.53 25.47C25.6037 25.5386 25.6628 25.6214 25.7038 25.7134C25.7448 25.8054 25.7668 25.9047 25.7686 26.0054C25.7704 26.1061 25.7518 26.2062 25.7141 26.2996C25.6764 26.393 25.6203 26.4778 25.549 26.549C25.4778 26.6202 25.393 26.6764 25.2996 26.7141C25.2062 26.7518 25.1062 26.7703 25.0055 26.7686C24.9048 26.7668 24.8055 26.7447 24.7135 26.7038C24.6215 26.6628 24.5387 26.6037 24.47 26.53L14.47 16.53C14.3295 16.3893 14.2507 16.1987 14.2507 16C14.2507 15.8012 14.3295 15.6106 14.47 15.47L24.47 5.46997C24.6122 5.33749 24.8002 5.26537 24.9945 5.26879C25.1888 5.27222 25.3742 5.35093 25.5116 5.48835C25.649 5.62576 25.7277 5.81114 25.7312 6.00545C25.7346 6.19975 25.6625 6.38779 25.53 6.52997L16.0612 16L25.53 25.47ZM6.06125 16L15.53 6.52997C15.6625 6.38779 15.7346 6.19975 15.7312 6.00545C15.7277 5.81114 15.649 5.62576 15.5116 5.48835C15.3742 5.35093 15.1888 5.27222 14.9945 5.26879C14.8002 5.26537 14.6122 5.33749 14.47 5.46997L4.47 15.47C4.32955 15.6106 4.25066 15.8012 4.25066 16C4.25066 16.1987 4.32955 16.3893 4.47 16.53L14.47 26.53C14.5387 26.6037 14.6215 26.6628 14.7135 26.7038C14.8055 26.7447 14.9048 26.7668 15.0055 26.7686C15.1062 26.7703 15.2062 26.7518 15.2996 26.7141C15.393 26.6764 15.4778 26.6202 15.549 26.549C15.6203 26.4778 15.6764 26.393 15.7141 26.2996C15.7518 26.2062 15.7704 26.1061 15.7686 26.0054C15.7668 25.9047 15.7448 25.8054 15.7038 25.7134C15.6628 25.6214 15.6037 25.5386 15.53 25.47L6.06125 16Z" fill="white"/>
</svg>
