<svg width="32" height="32" viewBox="0 0 32 32" fill="none" xmlns="http://www.w3.org/2000/svg">
<path d="M5.47 9.52997C5.33752 9.38779 5.2654 9.19975 5.26883 9.00545C5.27225 8.81115 5.35097 8.62576 5.48838 8.48835C5.62579 8.35093 5.81118 8.27222 6.00548 8.26879C6.19978 8.26537 6.38783 8.33749 6.53 8.46997L16 17.9387L25.47 8.46997C25.6122 8.33749 25.8002 8.26537 25.9945 8.26879C26.1888 8.27222 26.3742 8.35093 26.5116 8.48835C26.649 8.62576 26.7277 8.81115 26.7312 9.00545C26.7346 9.19975 26.6625 9.38779 26.53 9.52997L16.53 19.53C16.3894 19.6704 16.1988 19.7493 16 19.7493C15.8012 19.7493 15.6106 19.6704 15.47 19.53L5.47 9.52997ZM26 23.25H6C5.80109 23.25 5.61032 23.329 5.46967 23.4696C5.32902 23.6103 5.25 23.8011 5.25 24C5.25 24.1989 5.32902 24.3896 5.46967 24.5303C5.61032 24.671 5.80109 24.75 6 24.75H26C26.1989 24.75 26.3897 24.671 26.5303 24.5303C26.671 24.3896 26.75 24.1989 26.75 24C26.75 23.8011 26.671 23.6103 26.5303 23.4696C26.3897 23.329 26.1989 23.25 26 23.25Z" fill="white"/>
</svg>
