<svg width="32" height="32" viewBox="0 0 32 32" fill="none" xmlns="http://www.w3.org/2000/svg">
<path d="M22.53 21.4699C22.6705 21.6106 22.7493 21.8012 22.7493 22C22.7493 22.1987 22.6705 22.3893 22.53 22.53L16.53 28.53C16.3894 28.6704 16.1988 28.7493 16 28.7493C15.8012 28.7493 15.6106 28.6704 15.47 28.53L9.47 22.53C9.33752 22.3878 9.2654 22.1997 9.26882 22.0054C9.27225 21.8111 9.35097 21.6257 9.48838 21.4883C9.62579 21.3509 9.81118 21.2722 10.0055 21.2688C10.1998 21.2653 10.3878 21.3375 10.53 21.4699L16 26.9387L21.47 21.4699C21.6106 21.3295 21.8012 21.2506 22 21.2506C22.1988 21.2506 22.3894 21.3295 22.53 21.4699ZM10.53 10.53L16 5.0612L21.47 10.53C21.6122 10.6624 21.8002 10.7346 21.9945 10.7311C22.1888 10.7277 22.3742 10.649 22.5116 10.5116C22.649 10.3742 22.7277 10.1888 22.7312 9.99447C22.7346 9.80017 22.6625 9.61213 22.53 9.46995L16.53 3.46995C16.3894 3.3295 16.1988 3.25061 16 3.25061C15.8012 3.25061 15.6106 3.3295 15.47 3.46995L9.47 9.46995C9.33752 9.61213 9.2654 9.80017 9.26882 9.99447C9.27225 10.1888 9.35097 10.3742 9.48838 10.5116C9.62579 10.649 9.81118 10.7277 10.0055 10.7311C10.1998 10.7346 10.3878 10.6624 10.53 10.53Z" fill="white"/>
</svg>
