<svg width="32" height="32" viewBox="0 0 32 32" fill="none" xmlns="http://www.w3.org/2000/svg">
<path d="M25.015 6.98378C23.8311 5.79983 22.4255 4.86068 20.8786 4.21993C19.3317 3.57918 17.6737 3.24939 15.9994 3.24939C12.6179 3.24939 9.37485 4.59269 6.98375 6.98378C4.59266 9.37488 3.24936 12.6179 3.24936 15.9994C3.24936 19.3809 4.59266 22.6239 6.98375 25.015C9.37485 27.4061 12.6179 28.7494 15.9994 28.7494C19.3809 28.7494 22.6239 27.4061 25.015 25.015C27.4061 22.6239 28.7494 19.3809 28.7494 15.9994C28.7494 12.6179 27.4061 9.37488 25.015 6.98378ZM23.955 23.955C22.3817 25.5284 20.3771 26.5998 18.1948 27.0339C16.0125 27.468 13.7505 27.2452 11.6949 26.3937C9.63922 25.5422 7.88222 24.1002 6.64606 22.2502C5.4099 20.4001 4.7501 18.2251 4.7501 16C4.7501 13.775 5.4099 11.5999 6.64606 9.74988C7.88222 7.89983 9.63922 6.45789 11.6949 5.6064C13.7505 4.75491 16.0125 4.53212 18.1948 4.96619C20.3771 5.40026 22.3817 6.47171 23.955 8.04503C26.0618 10.1564 27.2449 13.0173 27.2449 16C27.2449 18.9827 26.0618 21.8436 23.955 23.955ZM20.53 20.47C20.6037 20.5387 20.6628 20.6215 20.7038 20.7135C20.7448 20.8055 20.7668 20.9048 20.7686 21.0055C20.7704 21.1062 20.7518 21.2062 20.7141 21.2996C20.6764 21.393 20.6203 21.4779 20.549 21.5491C20.4778 21.6203 20.393 21.6764 20.2996 21.7142C20.2062 21.7519 20.1062 21.7704 20.0055 21.7686C19.9048 21.7668 19.8055 21.7448 19.7135 21.7038C19.6215 21.6628 19.5387 21.6037 19.47 21.53L16 18.0613L12.53 21.53C12.3878 21.6625 12.1998 21.7346 12.0055 21.7312C11.8112 21.7278 11.6258 21.6491 11.4884 21.5117C11.351 21.3742 11.2723 21.1889 11.2688 20.9946C11.2654 20.8003 11.3375 20.6122 11.47 20.47L15.47 16.47C15.6106 16.3296 15.8013 16.2507 16 16.2507C16.1988 16.2507 16.3894 16.3296 16.53 16.47L20.53 20.47ZM20.53 13.47C20.6037 13.5387 20.6628 13.6215 20.7038 13.7135C20.7448 13.8055 20.7668 13.9048 20.7686 14.0055C20.7704 14.1062 20.7518 14.2062 20.7141 14.2996C20.6764 14.393 20.6203 14.4779 20.549 14.5491C20.4778 14.6203 20.393 14.6764 20.2996 14.7142C20.2062 14.7519 20.1062 14.7704 20.0055 14.7686C19.9048 14.7668 19.8055 14.7448 19.7135 14.7038C19.6215 14.6628 19.5387 14.6037 19.47 14.53L16 11.0613L12.53 14.53C12.3878 14.6625 12.1998 14.7346 12.0055 14.7312C11.8112 14.7278 11.6258 14.6491 11.4884 14.5117C11.351 14.3742 11.2723 14.1889 11.2688 13.9946C11.2654 13.8003 11.3375 13.6122 11.47 13.47L15.47 9.47003C15.6106 9.32958 15.8013 9.25069 16 9.25069C16.1988 9.25069 16.3894 9.32958 16.53 9.47003L20.53 13.47Z" fill="white"/>
</svg>
