<svg width="32" height="32" viewBox="0 0 32 32" fill="none" xmlns="http://www.w3.org/2000/svg">
<path d="M25.015 6.98378C23.8311 5.79983 22.4255 4.86068 20.8786 4.21993C19.3317 3.57918 17.6737 3.24939 15.9994 3.24939C12.6179 3.24939 9.37485 4.59269 6.98375 6.98378C4.59266 9.37488 3.24936 12.6179 3.24936 15.9994C3.24936 19.3809 4.59266 22.6239 6.98375 25.015C9.37485 27.4061 12.6179 28.7494 15.9994 28.7494C19.3809 28.7494 22.6239 27.4061 25.015 25.015C27.4061 22.6239 28.7494 19.3809 28.7494 15.9994C28.7494 12.6179 27.4061 9.37488 25.015 6.98378ZM23.955 23.955C22.3817 25.5284 20.3771 26.5998 18.1948 27.0339C16.0125 27.468 13.7505 27.2452 11.6949 26.3937C9.63922 25.5422 7.88222 24.1002 6.64606 22.2502C5.4099 20.4001 4.7501 18.2251 4.7501 16C4.7501 13.775 5.4099 11.5999 6.64606 9.74988C7.88222 7.89983 9.63922 6.45789 11.6949 5.6064C13.7505 4.75491 16.0125 4.53212 18.1948 4.96619C20.3771 5.40026 22.3817 6.47171 23.955 8.04503C26.0618 10.1564 27.2449 13.0173 27.2449 16C27.2449 18.9827 26.0618 21.8436 23.955 23.955ZM20.53 10.47C20.6705 10.6107 20.7493 10.8013 20.7493 11C20.7493 11.1988 20.6705 11.3894 20.53 11.53L16.53 15.53C16.3894 15.6705 16.1988 15.7494 16 15.7494C15.8013 15.7494 15.6106 15.6705 15.47 15.53L11.47 11.53C11.3375 11.3879 11.2654 11.1998 11.2688 11.0055C11.2723 10.8112 11.351 10.6258 11.4884 10.4884C11.6258 10.351 11.8112 10.2723 12.0055 10.2689C12.1998 10.2654 12.3878 10.3376 12.53 10.47L16 13.9388L19.47 10.47C19.6106 10.3296 19.8013 10.2507 20 10.2507C20.1988 10.2507 20.3894 10.3296 20.53 10.47ZM20.53 17.47C20.6705 17.6107 20.7493 17.8013 20.7493 18C20.7493 18.1988 20.6705 18.3894 20.53 18.53L16.53 22.53C16.3894 22.6705 16.1988 22.7494 16 22.7494C15.8013 22.7494 15.6106 22.6705 15.47 22.53L11.47 18.53C11.3375 18.3879 11.2654 18.1998 11.2688 18.0055C11.2723 17.8112 11.351 17.6258 11.4884 17.4884C11.6258 17.351 11.8112 17.2723 12.0055 17.2689C12.1998 17.2654 12.3878 17.3376 12.53 17.47L16 20.9388L19.47 17.47C19.6106 17.3296 19.8013 17.2507 20 17.2507C20.1988 17.2507 20.3894 17.3296 20.53 17.47Z" fill="white"/>
</svg>
