<svg width="32" height="32" viewBox="0 0 32 32" fill="none" xmlns="http://www.w3.org/2000/svg">
<path d="M25.015 6.98378C23.8311 5.79983 22.4255 4.86068 20.8786 4.21993C19.3317 3.57918 17.6737 3.24939 15.9994 3.24939C12.6179 3.24939 9.37485 4.59269 6.98375 6.98378C4.59266 9.37488 3.24936 12.6179 3.24936 15.9994C3.24936 19.3809 4.59266 22.6239 6.98375 25.015C9.37485 27.4061 12.6179 28.7494 15.9994 28.7494C19.3809 28.7494 22.6239 27.4061 25.015 25.015C27.4061 22.6239 28.7494 19.3809 28.7494 15.9994C28.7494 12.6179 27.4061 9.37488 25.015 6.98378ZM23.955 23.955C22.3817 25.5284 20.3771 26.5998 18.1948 27.0339C16.0125 27.468 13.7505 27.2452 11.6949 26.3937C9.63922 25.5422 7.88222 24.1002 6.64606 22.2502C5.4099 20.4001 4.7501 18.2251 4.7501 16C4.7501 13.775 5.4099 11.5999 6.64606 9.74988C7.88222 7.89983 9.63922 6.45789 11.6949 5.6064C13.7505 4.75491 16.0125 4.53212 18.1948 4.96619C20.3771 5.40026 22.3817 6.47171 23.955 8.04503C26.0618 10.1564 27.2449 13.0173 27.2449 16C27.2449 18.9827 26.0618 21.8436 23.955 23.955ZM21.53 12.53L18.0613 16L21.53 19.47C21.6037 19.5387 21.6628 19.6215 21.7038 19.7135C21.7448 19.8055 21.7668 19.9048 21.7686 20.0055C21.7704 20.1062 21.7518 20.2062 21.7141 20.2996C21.6764 20.393 21.6203 20.4779 21.549 20.5491C21.4778 20.6203 21.393 20.6764 21.2996 20.7142C21.2062 20.7519 21.1062 20.7704 21.0055 20.7686C20.9048 20.7668 20.8055 20.7448 20.7135 20.7038C20.6215 20.6628 20.5387 20.6037 20.47 20.53L16.47 16.53C16.3296 16.3894 16.2507 16.1988 16.2507 16C16.2507 15.8013 16.3296 15.6107 16.47 15.47L20.47 11.47C20.6122 11.3376 20.8002 11.2654 20.9945 11.2689C21.1888 11.2723 21.3742 11.351 21.5116 11.4884C21.649 11.6258 21.7278 11.8112 21.7312 12.0055C21.7346 12.1998 21.6625 12.3879 21.53 12.53ZM14.53 12.53L11.0613 16L14.53 19.47C14.6037 19.5387 14.6628 19.6215 14.7038 19.7135C14.7448 19.8055 14.7668 19.9048 14.7686 20.0055C14.7704 20.1062 14.7518 20.2062 14.7141 20.2996C14.6764 20.393 14.6203 20.4779 14.549 20.5491C14.4778 20.6203 14.393 20.6764 14.2996 20.7142C14.2062 20.7519 14.1062 20.7704 14.0055 20.7686C13.9048 20.7668 13.8055 20.7448 13.7135 20.7038C13.6215 20.6628 13.5387 20.6037 13.47 20.53L9.47 16.53C9.32955 16.3894 9.25066 16.1988 9.25066 16C9.25066 15.8013 9.32955 15.6107 9.47 15.47L13.47 11.47C13.6122 11.3376 13.8002 11.2654 13.9945 11.2689C14.1888 11.2723 14.3742 11.351 14.5116 11.4884C14.649 11.6258 14.7277 11.8112 14.7312 12.0055C14.7346 12.1998 14.6625 12.3879 14.53 12.53Z" fill="white"/>
</svg>
