<svg width="32" height="32" viewBox="0 0 32 32" fill="none" xmlns="http://www.w3.org/2000/svg">
<path d="M24.53 25.47C24.6037 25.5387 24.6628 25.6215 24.7038 25.7135C24.7448 25.8055 24.7668 25.9048 24.7686 26.0055C24.7704 26.1062 24.7518 26.2062 24.7141 26.2996C24.6764 26.393 24.6203 26.4778 24.549 26.549C24.4778 26.6203 24.393 26.6764 24.2996 26.7141C24.2062 26.7518 24.1062 26.7704 24.0055 26.7686C23.9048 26.7668 23.8055 26.7448 23.7135 26.7038C23.6215 26.6628 23.5387 26.6037 23.47 26.53L13.47 16.53C13.3295 16.3894 13.2507 16.1988 13.2507 16C13.2507 15.8012 13.3295 15.6106 13.47 15.47L23.47 5.47C23.6122 5.33752 23.8002 5.2654 23.9945 5.26883C24.1888 5.27225 24.3742 5.35097 24.5116 5.48838C24.649 5.62579 24.7277 5.81118 24.7312 6.00548C24.7346 6.19978 24.6625 6.38783 24.53 6.53L15.0612 16L24.53 25.47ZM9 5.25C8.80109 5.25 8.61032 5.32902 8.46967 5.46967C8.32902 5.61032 8.25 5.80109 8.25 6V26C8.25 26.1989 8.32902 26.3897 8.46967 26.5303C8.61032 26.671 8.80109 26.75 9 26.75C9.19891 26.75 9.38968 26.671 9.53033 26.5303C9.67098 26.3897 9.75 26.1989 9.75 26V6C9.75 5.80109 9.67098 5.61032 9.53033 5.46967C9.38968 5.32902 9.19891 5.25 9 5.25Z" fill="white"/>
</svg>
