<svg width="32" height="32" viewBox="0 0 32 32" fill="none" xmlns="http://www.w3.org/2000/svg">
<path d="M26.53 16.47C26.6705 16.6106 26.7493 16.8012 26.7493 17C26.7493 17.1987 26.6705 17.3893 26.53 17.53L16.53 27.53C16.3894 27.6704 16.1987 27.7493 16 27.7493C15.8012 27.7493 15.6106 27.6704 15.47 27.53L5.47 17.53C5.33752 17.3878 5.2654 17.1997 5.26882 17.0054C5.27225 16.8111 5.35096 16.6258 5.48838 16.4883C5.62579 16.3509 5.81118 16.2722 6.00548 16.2688C6.19978 16.2654 6.38782 16.3375 6.53 16.47L16 25.9387L25.47 16.47C25.6106 16.3295 25.8012 16.2506 26 16.2506C26.1988 16.2506 26.3894 16.3295 26.53 16.47ZM15.47 17.53C15.6106 17.6704 15.8012 17.7493 16 17.7493C16.1987 17.7493 16.3894 17.6704 16.53 17.53L26.53 7.52997C26.6625 7.38779 26.7346 7.19975 26.7312 7.00545C26.7277 6.81114 26.649 6.62576 26.5116 6.48835C26.3742 6.35093 26.1888 6.27222 25.9945 6.26879C25.8002 6.26537 25.6122 6.33749 25.47 6.46997L16 15.9387L6.53 6.46997C6.38782 6.33749 6.19978 6.26537 6.00548 6.26879C5.81118 6.27222 5.62579 6.35093 5.48838 6.48835C5.35096 6.62576 5.27225 6.81114 5.26882 7.00545C5.2654 7.19975 5.33752 7.38779 5.47 7.52997L15.47 17.53Z" fill="white"/>
</svg>
