<svg width="32" height="32" viewBox="0 0 32 32" fill="none" xmlns="http://www.w3.org/2000/svg">
<path d="M26.53 24.53C26.3894 24.6705 26.1988 24.7493 26 24.7493C25.8012 24.7493 25.6106 24.6705 25.47 24.53L16 15.0612L6.53 24.53C6.38783 24.6625 6.19978 24.7346 6.00548 24.7312C5.81118 24.7277 5.62579 24.649 5.48838 24.5116C5.35097 24.3742 5.27225 24.1888 5.26883 23.9945C5.2654 23.8002 5.33752 23.6122 5.47 23.47L15.47 13.47C15.6106 13.3295 15.8012 13.2507 16 13.2507C16.1988 13.2507 16.3894 13.3295 16.53 13.47L26.53 23.47C26.6705 23.6106 26.7493 23.8012 26.7493 24C26.7493 24.1988 26.6705 24.3894 26.53 24.53ZM6 9.75H26C26.1989 9.75 26.3897 9.67098 26.5303 9.53033C26.671 9.38968 26.75 9.19891 26.75 9C26.75 8.80109 26.671 8.61032 26.5303 8.46967C26.3897 8.32902 26.1989 8.25 26 8.25H6C5.80109 8.25 5.61032 8.32902 5.46967 8.46967C5.32902 8.61032 5.25 8.80109 5.25 9C5.25 9.19891 5.32902 9.38968 5.46967 9.53033C5.61032 9.67098 5.80109 9.75 6 9.75Z" fill="white"/>
</svg>
