<svg width="32" height="32" viewBox="0 0 32 32" fill="none" xmlns="http://www.w3.org/2000/svg">
<path d="M17.53 16.53L7.53 26.53C7.38782 26.6625 7.19978 26.7346 7.00548 26.7311C6.81118 26.7277 6.62579 26.649 6.48838 26.5116C6.35096 26.3742 6.27225 26.1888 6.26882 25.9945C6.2654 25.8002 6.33752 25.6121 6.47 25.47L15.9387 16L6.47 6.52997C6.33752 6.38779 6.2654 6.19975 6.26882 6.00545C6.27225 5.81114 6.35096 5.62576 6.48838 5.48835C6.62579 5.35093 6.81118 5.27222 7.00548 5.26879C7.19978 5.26537 7.38782 5.33749 7.53 5.46997L17.53 15.47C17.6705 15.6106 17.7493 15.8012 17.7493 16C17.7493 16.1987 17.6705 16.3893 17.53 16.53ZM27.53 15.47L17.53 5.46997C17.3878 5.33749 17.1998 5.26537 17.0055 5.26879C16.8112 5.27222 16.6258 5.35093 16.4884 5.48835C16.351 5.62576 16.2723 5.81114 16.2688 6.00545C16.2654 6.19975 16.3375 6.38779 16.47 6.52997L25.9387 16L16.47 25.47C16.3963 25.5386 16.3372 25.6214 16.2962 25.7134C16.2552 25.8054 16.2332 25.9047 16.2314 26.0054C16.2296 26.1061 16.2482 26.2062 16.2859 26.2996C16.3236 26.393 16.3797 26.4778 16.451 26.549C16.5222 26.6202 16.607 26.6764 16.7004 26.7141C16.7938 26.7518 16.8938 26.7703 16.9945 26.7686C17.0952 26.7668 17.1945 26.7447 17.2865 26.7038C17.3785 26.6628 17.4613 26.6037 17.53 26.53L27.53 16.53C27.6705 16.3893 27.7493 16.1987 27.7493 16C27.7493 15.8012 27.6705 15.6106 27.53 15.47Z" fill="white"/>
</svg>
