<svg width="32" height="32" viewBox="0 0 32 32" fill="none" xmlns="http://www.w3.org/2000/svg">
<path d="M18.53 15.47C18.6705 15.6106 18.7493 15.8012 18.7493 16C18.7493 16.1988 18.6705 16.3894 18.53 16.53L8.53 26.53C8.38782 26.6625 8.19978 26.7346 8.00548 26.7312C7.81118 26.7277 7.62579 26.649 7.48838 26.5116C7.35096 26.3742 7.27225 26.1888 7.26882 25.9945C7.2654 25.8002 7.33752 25.6122 7.47 25.47L16.9387 16L7.47 6.53C7.33752 6.38783 7.2654 6.19978 7.26882 6.00548C7.27225 5.81118 7.35096 5.62579 7.48838 5.48838C7.62579 5.35097 7.81118 5.27225 8.00548 5.26883C8.19978 5.2654 8.38782 5.33752 8.53 5.47L18.53 15.47ZM23 5.25C22.8011 5.25 22.6103 5.32902 22.4697 5.46967C22.329 5.61032 22.25 5.80109 22.25 6V26C22.25 26.1989 22.329 26.3897 22.4697 26.5303C22.6103 26.671 22.8011 26.75 23 26.75C23.1989 26.75 23.3897 26.671 23.5303 26.5303C23.671 26.3897 23.75 26.1989 23.75 26V6C23.75 5.80109 23.671 5.61032 23.5303 5.46967C23.3897 5.32902 23.1989 5.25 23 5.25Z" fill="white"/>
</svg>
