<svg width="32" height="32" viewBox="0 0 32 32" fill="none" xmlns="http://www.w3.org/2000/svg">
<path d="M26.53 24.4699C26.6037 24.5386 26.6628 24.6214 26.7038 24.7134C26.7448 24.8054 26.7668 24.9047 26.7686 25.0054C26.7704 25.1061 26.7518 25.2062 26.7141 25.2995C26.6764 25.3929 26.6203 25.4778 26.549 25.549C26.4778 25.6202 26.393 25.6764 26.2996 25.7141C26.2062 25.7518 26.1062 25.7703 26.0055 25.7685C25.9048 25.7668 25.8055 25.7447 25.7135 25.7037C25.6215 25.6627 25.5387 25.6036 25.47 25.53L16 16.0612L6.53 25.53C6.38782 25.6624 6.19978 25.7346 6.00548 25.7311C5.81118 25.7277 5.62579 25.649 5.48838 25.5116C5.35096 25.3742 5.27225 25.1888 5.26882 24.9945C5.2654 24.8002 5.33752 24.6121 5.47 24.4699L15.47 14.47C15.6106 14.3295 15.8012 14.2506 16 14.2506C16.1987 14.2506 16.3894 14.3295 16.53 14.47L26.53 24.4699ZM6.53 15.53L16 6.0612L25.47 15.53C25.6122 15.6624 25.8002 15.7346 25.9945 15.7311C26.1888 15.7277 26.3742 15.649 26.5116 15.5116C26.649 15.3742 26.7277 15.1888 26.7312 14.9945C26.7346 14.8002 26.6625 14.6121 26.53 14.47L16.53 4.46995C16.3894 4.3295 16.1987 4.25061 16 4.25061C15.8012 4.25061 15.6106 4.3295 15.47 4.46995L5.47 14.47C5.33752 14.6121 5.2654 14.8002 5.26882 14.9945C5.27225 15.1888 5.35096 15.3742 5.48838 15.5116C5.62579 15.649 5.81118 15.7277 6.00548 15.7311C6.19978 15.7346 6.38782 15.6624 6.53 15.53Z" fill="white"/>
</svg>
