<svg width="32" height="32" viewBox="0 0 32 32" fill="none" xmlns="http://www.w3.org/2000/svg">
<path d="M25.015 6.98378C23.8311 5.79983 22.4255 4.86068 20.8786 4.21993C19.3317 3.57918 17.6737 3.24939 15.9994 3.24939C12.6179 3.24939 9.37485 4.59269 6.98375 6.98378C4.59266 9.37488 3.24936 12.6179 3.24936 15.9994C3.24936 19.3809 4.59266 22.6239 6.98375 25.015C9.37485 27.4061 12.6179 28.7494 15.9994 28.7494C19.3809 28.7494 22.6239 27.4061 25.015 25.015C27.4061 22.6239 28.7494 19.3809 28.7494 15.9994C28.7494 12.6179 27.4061 9.37488 25.015 6.98378ZM23.955 23.955C22.3817 25.5284 20.3771 26.5998 18.1948 27.0339C16.0125 27.468 13.7505 27.2452 11.6949 26.3937C9.63922 25.5422 7.88222 24.1002 6.64606 22.2502C5.4099 20.4001 4.7501 18.2251 4.7501 16C4.7501 13.775 5.4099 11.5999 6.64606 9.74988C7.88222 7.89983 9.63922 6.45789 11.6949 5.6064C13.7505 4.75491 16.0125 4.53212 18.1948 4.96619C20.3771 5.40026 22.3817 6.47171 23.955 8.04503C26.0618 10.1564 27.2449 13.0173 27.2449 16C27.2449 18.9827 26.0618 21.8436 23.955 23.955ZM15.53 15.47C15.6705 15.6107 15.7493 15.8013 15.7493 16C15.7493 16.1988 15.6705 16.3894 15.53 16.53L11.53 20.53C11.3878 20.6625 11.1998 20.7346 11.0055 20.7312C10.8112 20.7278 10.6258 20.6491 10.4884 20.5117C10.351 20.3742 10.2723 20.1889 10.2688 19.9946C10.2654 19.8003 10.3375 19.6122 10.47 19.47L13.9388 16L10.47 12.53C10.3375 12.3879 10.2654 12.1998 10.2688 12.0055C10.2723 11.8112 10.351 11.6258 10.4884 11.4884C10.6258 11.351 10.8112 11.2723 11.0055 11.2689C11.1998 11.2654 11.3878 11.3376 11.53 11.47L15.53 15.47ZM22.53 15.47C22.6705 15.6107 22.7493 15.8013 22.7493 16C22.7493 16.1988 22.6705 16.3894 22.53 16.53L18.53 20.53C18.3878 20.6625 18.1998 20.7346 18.0055 20.7312C17.8112 20.7278 17.6258 20.6491 17.4884 20.5117C17.351 20.3742 17.2723 20.1889 17.2688 19.9946C17.2654 19.8003 17.3375 19.6122 17.47 19.47L20.9388 16L17.47 12.53C17.3375 12.3879 17.2654 12.1998 17.2688 12.0055C17.2723 11.8112 17.351 11.6258 17.4884 11.4884C17.6258 11.351 17.8112 11.2723 18.0055 11.2689C18.1998 11.2654 18.3878 11.3376 18.53 11.47L22.53 15.47Z" fill="white"/>
</svg>
