<svg width="32" height="32" viewBox="0 0 32 32" fill="none" xmlns="http://www.w3.org/2000/svg">
<path d="M29 8.25H24.81L28.53 4.53C28.6037 4.46134 28.6628 4.37854 28.7038 4.28654C28.7448 4.19454 28.7668 4.09523 28.7686 3.99452C28.7704 3.89382 28.7519 3.79379 28.7141 3.7004C28.6764 3.60701 28.6203 3.52218 28.5491 3.45096C28.4778 3.37974 28.393 3.3236 28.2996 3.28588C28.2062 3.24816 28.1062 3.22963 28.0055 3.23141C27.9048 3.23319 27.8055 3.25523 27.7135 3.29622C27.6215 3.33721 27.5387 3.39631 27.47 3.47L23.75 7.19V3C23.75 2.80109 23.671 2.61032 23.5303 2.46967C23.3897 2.32902 23.1989 2.25 23 2.25C22.8011 2.25 22.6103 2.32902 22.4697 2.46967C22.329 2.61032 22.25 2.80109 22.25 3V7.51875C20.7608 6.54301 18.981 6.10977 17.2099 6.29189C15.4389 6.474 13.7845 7.26036 12.525 8.51875C7.52127 13.425 3.75627 25.1812 3.42252 26.25C3.26633 26.5766 3.21528 26.9436 3.27641 27.3005C3.33754 27.6573 3.50784 27.9864 3.76385 28.2424C4.01985 28.4984 4.34895 28.6687 4.70579 28.7299C5.06263 28.791 5.42965 28.7399 5.75627 28.5837C6.81877 28.25 18.5838 24.4825 23.48 19.4875C24.7396 18.2277 25.5268 16.5724 25.7089 14.8002C25.891 13.028 25.4571 11.2472 24.48 9.7575H29C29.1989 9.7575 29.3897 9.67848 29.5303 9.53783C29.671 9.39718 29.75 9.20641 29.75 9.0075C29.75 8.80859 29.671 8.61782 29.5303 8.47717C29.3897 8.33652 29.1989 8.2575 29 8.2575V8.25ZM22.4138 18.4263C21.25 19.625 19.625 20.75 17.8363 21.78L14.5288 18.4713C14.388 18.3305 14.1972 18.2515 13.9981 18.2515C13.7991 18.2515 13.6082 18.3305 13.4675 18.4713C13.3268 18.612 13.2477 18.8029 13.2477 19.0019C13.2477 19.2009 13.3268 19.3918 13.4675 19.5325L16.4675 22.5325C11.2563 25.2825 5.34252 27.135 5.25127 27.1575C5.20558 27.1719 5.16125 27.1903 5.11877 27.2125C5.07157 27.2372 5.0177 27.2463 4.96501 27.2382C4.91233 27.2302 4.86359 27.2055 4.82591 27.1679C4.78822 27.1302 4.76357 27.0814 4.75554 27.0288C4.74751 26.9761 4.75652 26.9222 4.78127 26.875C4.80347 26.835 4.82229 26.7932 4.83752 26.75C4.87502 26.625 8.44377 15.215 13.06 10.125L17.4688 14.5325C17.5374 14.6062 17.6202 14.6653 17.7122 14.7063C17.8042 14.7473 17.9035 14.7693 18.0042 14.7711C18.1049 14.7729 18.205 14.7543 18.2984 14.7166C18.3918 14.6789 18.4766 14.6228 18.5478 14.5515C18.619 14.4803 18.6752 14.3955 18.7129 14.3021C18.7506 14.2087 18.7691 14.1087 18.7674 14.008C18.7656 13.9073 18.7435 13.808 18.7026 13.716C18.6616 13.624 18.6025 13.5412 18.5288 13.4725L14.1413 9.085C15.3947 8.09958 16.9773 7.63044 18.5652 7.77358C20.1532 7.91673 21.6264 8.66133 22.6834 9.85501C23.7403 11.0487 24.3011 12.6012 24.251 14.1948C24.2009 15.7884 23.5437 17.3026 22.4138 18.4275V18.4263Z" fill="white"/>
</svg>
