<svg width="32" height="32" viewBox="0 0 32 32" fill="none" xmlns="http://www.w3.org/2000/svg">
<path d="M29.7275 19.8175L26.9175 8.57625C26.8229 8.19733 26.6043 7.86094 26.2965 7.6206C25.9887 7.38027 25.6093 7.24981 25.2188 7.25H16.75V5C16.75 4.53587 16.5656 4.09075 16.2374 3.76256C15.9092 3.43437 15.4641 3.25 15 3.25H10C9.53587 3.25 9.09075 3.43437 8.76256 3.76256C8.43437 4.09075 8.25 4.53587 8.25 5V7.25H6.78125C6.39088 7.24975 6.01163 7.38002 5.70382 7.62011C5.396 7.8602 5.1773 8.19631 5.0825 8.575L2.2725 19.8175C2.25754 19.8772 2.24999 19.9385 2.25 20V24C2.25 24.4641 2.43437 24.9092 2.76256 25.2374C3.09075 25.5656 3.53587 25.75 4 25.75H28C28.4641 25.75 28.9092 25.5656 29.2374 25.2374C29.5656 24.9092 29.75 24.4641 29.75 24V20C29.75 19.9385 29.7425 19.8772 29.7275 19.8175ZM9.75 5C9.75 4.9337 9.77634 4.87011 9.82322 4.82322C9.87011 4.77634 9.9337 4.75 10 4.75H15C15.0663 4.75 15.1299 4.77634 15.1768 4.82322C15.2237 4.87011 15.25 4.9337 15.25 5V7.25H9.75V5ZM6.53875 8.93875C6.55239 8.88478 6.58365 8.83691 6.62758 8.80272C6.6715 8.76853 6.72558 8.74997 6.78125 8.75H25.2188C25.2744 8.74997 25.3285 8.76853 25.3724 8.80272C25.4164 8.83691 25.4476 8.88478 25.4613 8.93875L28.04 19.25H3.96L6.53875 8.93875ZM28 24.25H4C3.9337 24.25 3.87011 24.2237 3.82322 24.1768C3.77634 24.1299 3.75 24.0663 3.75 24V20.75H28.25V24C28.25 24.0663 28.2237 24.1299 28.1768 24.1768C28.1299 24.2237 28.0663 24.25 28 24.25ZM8.25 12C8.25 11.8011 8.32902 11.6103 8.46967 11.4697C8.61032 11.329 8.80109 11.25 9 11.25H11C11.1989 11.25 11.3897 11.329 11.5303 11.4697C11.671 11.6103 11.75 11.8011 11.75 12C11.75 12.1989 11.671 12.3897 11.5303 12.5303C11.3897 12.671 11.1989 12.75 11 12.75H9C8.80109 12.75 8.61032 12.671 8.46967 12.5303C8.32902 12.3897 8.25 12.1989 8.25 12ZM14.25 12C14.25 11.8011 14.329 11.6103 14.4697 11.4697C14.6103 11.329 14.8011 11.25 15 11.25H17C17.1989 11.25 17.3897 11.329 17.5303 11.4697C17.671 11.6103 17.75 11.8011 17.75 12C17.75 12.1989 17.671 12.3897 17.5303 12.5303C17.3897 12.671 17.1989 12.75 17 12.75H15C14.8011 12.75 14.6103 12.671 14.4697 12.5303C14.329 12.3897 14.25 12.1989 14.25 12ZM20.25 12C20.25 11.8011 20.329 11.6103 20.4697 11.4697C20.6103 11.329 20.8011 11.25 21 11.25H23C23.1989 11.25 23.3897 11.329 23.5303 11.4697C23.671 11.6103 23.75 11.8011 23.75 12C23.75 12.1989 23.671 12.3897 23.5303 12.5303C23.3897 12.671 23.1989 12.75 23 12.75H21C20.8011 12.75 20.6103 12.671 20.4697 12.5303C20.329 12.3897 20.25 12.1989 20.25 12ZM8.25 16C8.25 15.8011 8.32902 15.6103 8.46967 15.4697C8.61032 15.329 8.80109 15.25 9 15.25H11C11.1989 15.25 11.3897 15.329 11.5303 15.4697C11.671 15.6103 11.75 15.8011 11.75 16C11.75 16.1989 11.671 16.3897 11.5303 16.5303C11.3897 16.671 11.1989 16.75 11 16.75H9C8.80109 16.75 8.61032 16.671 8.46967 16.5303C8.32902 16.3897 8.25 16.1989 8.25 16ZM14.25 16C14.25 15.8011 14.329 15.6103 14.4697 15.4697C14.6103 15.329 14.8011 15.25 15 15.25H17C17.1989 15.25 17.3897 15.329 17.5303 15.4697C17.671 15.6103 17.75 15.8011 17.75 16C17.75 16.1989 17.671 16.3897 17.5303 16.5303C17.3897 16.671 17.1989 16.75 17 16.75H15C14.8011 16.75 14.6103 16.671 14.4697 16.5303C14.329 16.3897 14.25 16.1989 14.25 16ZM20.25 16C20.25 15.8011 20.329 15.6103 20.4697 15.4697C20.6103 15.329 20.8011 15.25 21 15.25H23C23.1989 15.25 23.3897 15.329 23.5303 15.4697C23.671 15.6103 23.75 15.8011 23.75 16C23.75 16.1989 23.671 16.3897 23.5303 16.5303C23.3897 16.671 23.1989 16.75 23 16.75H21C20.8011 16.75 20.6103 16.671 20.4697 16.5303C20.329 16.3897 20.25 16.1989 20.25 16Z" fill="white"/>
</svg>
