<svg width="32" height="32" viewBox="0 0 32 32" fill="none" xmlns="http://www.w3.org/2000/svg">
<path d="M27 27.25H24.75V14.3112L26.2375 12.8225C26.4004 12.6605 26.5296 12.4679 26.6175 12.2557C26.7055 12.0435 26.7505 11.816 26.75 11.5863V6C26.75 5.53587 26.5656 5.09075 26.2374 4.76256C25.9092 4.43437 25.4641 4.25 25 4.25H22C21.8011 4.25 21.6103 4.32902 21.4697 4.46967C21.329 4.61032 21.25 4.80109 21.25 5V8.25H18.75V5C18.75 4.80109 18.671 4.61032 18.5303 4.46967C18.3897 4.32902 18.1989 4.25 18 4.25H14C13.8011 4.25 13.6103 4.32902 13.4697 4.46967C13.329 4.61032 13.25 4.80109 13.25 5V8.25H10.75V5C10.75 4.80109 10.671 4.61032 10.5303 4.46967C10.3897 4.32902 10.1989 4.25 10 4.25H7C6.53587 4.25 6.09075 4.43437 5.76256 4.76256C5.43437 5.09075 5.25 5.53587 5.25 6V11.5863C5.24946 11.816 5.29448 12.0435 5.38245 12.2557C5.47042 12.4679 5.59959 12.6605 5.7625 12.8225L7.25 14.3112V27.25H5C4.80109 27.25 4.61032 27.329 4.46967 27.4697C4.32902 27.6103 4.25 27.8011 4.25 28C4.25 28.1989 4.32902 28.3897 4.46967 28.5303C4.61032 28.671 4.80109 28.75 5 28.75H27C27.1989 28.75 27.3897 28.671 27.5303 28.5303C27.671 28.3897 27.75 28.1989 27.75 28C27.75 27.8011 27.671 27.6103 27.5303 27.4697C27.3897 27.329 27.1989 27.25 27 27.25ZM8.53 13.47L6.8225 11.7625C6.77601 11.7156 6.74995 11.6523 6.75 11.5863V6C6.75 5.9337 6.77634 5.87011 6.82322 5.82322C6.87011 5.77634 6.9337 5.75 7 5.75H9.25V9C9.25 9.19891 9.32902 9.38968 9.46967 9.53033C9.61032 9.67098 9.80109 9.75 10 9.75H14C14.1989 9.75 14.3897 9.67098 14.5303 9.53033C14.671 9.38968 14.75 9.19891 14.75 9V5.75H17.25V9C17.25 9.19891 17.329 9.38968 17.4697 9.53033C17.6103 9.67098 17.8011 9.75 18 9.75H22C22.1989 9.75 22.3897 9.67098 22.5303 9.53033C22.671 9.38968 22.75 9.19891 22.75 9V5.75H25C25.0663 5.75 25.1299 5.77634 25.1768 5.82322C25.2237 5.87011 25.25 5.9337 25.25 6V11.5863C25.2501 11.6523 25.224 11.7156 25.1775 11.7625L23.47 13.47C23.3293 13.6105 23.2502 13.8012 23.25 14V27.25H19.75V21C19.75 20.0054 19.3549 19.0516 18.6517 18.3483C17.9484 17.6451 16.9946 17.25 16 17.25C15.0054 17.25 14.0516 17.6451 13.3483 18.3483C12.6451 19.0516 12.25 20.0054 12.25 21V27.25H8.75V14C8.74983 13.8012 8.67069 13.6105 8.53 13.47ZM18.25 27.25H13.75V21C13.75 20.4033 13.9871 19.831 14.409 19.409C14.831 18.9871 15.4033 18.75 16 18.75C16.5967 18.75 17.169 18.9871 17.591 19.409C18.0129 19.831 18.25 20.4033 18.25 21V27.25Z" fill="white"/>
</svg>
