<svg width="32" height="32" viewBox="0 0 32 32" fill="none" xmlns="http://www.w3.org/2000/svg">
<path d="M27.67 4.38387C27.3506 4.25079 26.9989 4.21539 26.6594 4.28214C26.3199 4.34888 26.0078 4.51478 25.7625 4.75887L25.7262 4.79637L23.4275 7.44762C21.216 6.01261 18.6362 5.24894 16 5.24894C13.3638 5.24894 10.784 6.01261 8.5725 7.44762L6.27375 4.80137L6.2375 4.76387C5.99283 4.51917 5.68112 4.35251 5.34175 4.28493C5.00238 4.21736 4.6506 4.25191 4.33086 4.38422C4.01113 4.51653 3.73779 4.74066 3.54541 5.02827C3.35302 5.31589 3.25022 5.65409 3.25 6.00012V17.0001C3.25 23.4789 8.97 28.7501 16 28.7501C23.03 28.7501 28.75 23.4789 28.75 17.0001V6.00012C28.7499 5.65413 28.6473 5.31592 28.455 5.02825C28.2628 4.74057 27.9896 4.51633 27.67 4.38387ZM27.25 17.0001C27.25 22.4226 22.605 26.8751 16.75 27.2264V24.3101L18.53 22.5301C18.6688 22.3892 18.7464 22.199 18.7457 22.0012C18.745 21.8033 18.6662 21.6138 18.5263 21.4738C18.3865 21.3338 18.197 21.2547 17.9992 21.2538C17.8013 21.2529 17.6111 21.3302 17.47 21.4689L16 22.9389L14.53 21.4689C14.3889 21.3302 14.1987 21.2529 14.0008 21.2538C13.803 21.2547 13.6135 21.3338 13.4737 21.4738C13.3338 21.6138 13.255 21.8033 13.2543 22.0012C13.2536 22.199 13.3312 22.3892 13.47 22.5301L15.25 24.3101V27.2264C9.395 26.8751 4.75 22.4226 4.75 17.0001V6.00012C4.74831 5.95035 4.76223 5.9013 4.7898 5.85984C4.81736 5.81837 4.85721 5.78657 4.90375 5.76887C4.93631 5.75552 4.97106 5.74831 5.00625 5.74762C5.06472 5.74802 5.12091 5.77032 5.16375 5.81012L7.88375 8.93512C8.00774 9.07786 8.18108 9.16851 8.36905 9.1889C8.55703 9.2093 8.74577 9.15794 8.8975 9.04512C9.62611 8.50865 10.4158 8.06052 11.25 7.71012V11.0001C11.25 11.199 11.329 11.3898 11.4697 11.5304C11.6103 11.6711 11.8011 11.7501 12 11.7501C12.1989 11.7501 12.3897 11.6711 12.5303 11.5304C12.671 11.3898 12.75 11.199 12.75 11.0001V7.18887C13.5667 6.96434 14.4045 6.82526 15.25 6.77387V11.0001C15.25 11.199 15.329 11.3898 15.4697 11.5304C15.6103 11.6711 15.8011 11.7501 16 11.7501C16.1989 11.7501 16.3897 11.6711 16.5303 11.5304C16.671 11.3898 16.75 11.199 16.75 11.0001V6.77387C17.5955 6.82526 18.4333 6.96434 19.25 7.18887V11.0001C19.25 11.199 19.329 11.3898 19.4697 11.5304C19.6103 11.6711 19.8011 11.7501 20 11.7501C20.1989 11.7501 20.3897 11.6711 20.5303 11.5304C20.671 11.3898 20.75 11.199 20.75 11.0001V7.71012C21.5845 8.06248 22.3742 8.51272 23.1025 9.05137C23.2542 9.16419 23.443 9.21555 23.6309 9.19515C23.8189 9.17475 23.9923 9.08411 24.1162 8.94137L26.8363 5.81637C26.8721 5.78524 26.9161 5.76499 26.9631 5.75797C27.0101 5.75095 27.0581 5.75747 27.1015 5.77675C27.1449 5.79603 27.182 5.82728 27.2083 5.86683C27.2345 5.90639 27.249 5.95263 27.25 6.00012V17.0001ZM11.75 17.5001C11.75 17.7473 11.6767 17.989 11.5393 18.1946C11.402 18.4001 11.2068 18.5604 10.9784 18.655C10.7499 18.7496 10.4986 18.7743 10.2561 18.7261C10.0137 18.6779 9.79093 18.5588 9.61612 18.384C9.4413 18.2092 9.32225 17.9865 9.27402 17.744C9.22579 17.5015 9.25054 17.2502 9.34515 17.0218C9.43976 16.7934 9.59998 16.5981 9.80554 16.4608C10.0111 16.3234 10.2528 16.2501 10.5 16.2501C10.8315 16.2501 11.1495 16.3818 11.3839 16.6162C11.6183 16.8507 11.75 17.1686 11.75 17.5001ZM22.75 17.5001C22.75 17.7473 22.6767 17.989 22.5393 18.1946C22.402 18.4001 22.2068 18.5604 21.9784 18.655C21.7499 18.7496 21.4986 18.7743 21.2561 18.7261C21.0137 18.6779 20.7909 18.5588 20.6161 18.384C20.4413 18.2092 20.3223 17.9865 20.274 17.744C20.2258 17.5015 20.2505 17.2502 20.3451 17.0218C20.4398 16.7934 20.6 16.5981 20.8055 16.4608C21.0111 16.3234 21.2528 16.2501 21.5 16.2501C21.8315 16.2501 22.1495 16.3818 22.3839 16.6162C22.6183 16.8507 22.75 17.1686 22.75 17.5001Z" fill="white"/>
</svg>
