<svg width="32" height="32" viewBox="0 0 32 32" fill="none" xmlns="http://www.w3.org/2000/svg">
<path d="M16.6712 10.665C16.609 10.5402 16.5133 10.4352 16.3947 10.3619C16.2761 10.2885 16.1394 10.2496 16 10.2496C15.8605 10.2496 15.7239 10.2885 15.6053 10.3619C15.4867 10.4352 15.3909 10.5402 15.3287 10.665L6.32874 28.665C6.23973 28.8431 6.22508 29.0492 6.28802 29.238C6.35097 29.4268 6.48634 29.5829 6.66437 29.6719C6.84239 29.7609 7.04849 29.7756 7.23732 29.7126C7.42614 29.6497 7.58223 29.5143 7.67124 29.3363L9.46374 25.75H22.5362L24.3287 29.335C24.391 29.4598 24.4868 29.5647 24.6054 29.638C24.7239 29.7113 24.8606 29.7501 25 29.75C25.1164 29.7503 25.2313 29.7229 25.335 29.67C25.4232 29.6261 25.5018 29.5652 25.5664 29.4908C25.631 29.4164 25.6804 29.33 25.7116 29.2366C25.7428 29.1431 25.7553 29.0445 25.7484 28.9462C25.7415 28.8479 25.7153 28.7519 25.6712 28.6638L16.6712 10.665ZM16 12.6775L19.7862 20.25H12.2137L16 12.6775ZM10.2137 24.25L11.4637 21.75H20.5362L21.7862 24.25H10.2137ZM20.1812 11.7625C20.2273 11.511 20.2503 11.2558 20.25 11C20.25 9.87287 19.8022 8.79187 19.0052 7.99484C18.2082 7.19781 17.1272 6.75004 16 6.75004C14.8728 6.75004 13.7918 7.19781 12.9948 7.99484C12.1978 8.79187 11.75 9.87287 11.75 11C11.7496 11.2558 11.7727 11.511 11.8187 11.7625C11.854 11.9583 11.8101 12.1601 11.6967 12.3235C11.5832 12.4869 11.4095 12.5985 11.2137 12.6338C11.018 12.6691 10.8162 12.6252 10.6528 12.5117C10.4894 12.3983 10.3778 12.2246 10.3425 12.0288C10.1921 11.2002 10.2254 10.3488 10.4403 9.53452C10.6551 8.72029 11.0462 7.96319 11.5859 7.31673C12.1255 6.67028 12.8006 6.15024 13.5633 5.79338C14.3261 5.43653 15.1579 5.25156 16 5.25156C16.8421 5.25156 17.6739 5.43653 18.4367 5.79338C19.1994 6.15024 19.8745 6.67028 20.4141 7.31673C20.9538 7.96319 21.3448 8.72029 21.5597 9.53452C21.7745 10.3488 21.8079 11.2002 21.6575 12.0288C21.6265 12.2016 21.5358 12.3581 21.4012 12.4709C21.2667 12.5838 21.0968 12.6458 20.9212 12.6463C20.8759 12.6465 20.8307 12.6423 20.7862 12.6338C20.6893 12.6163 20.5968 12.5799 20.5139 12.5267C20.431 12.4734 20.3595 12.4044 20.3033 12.3235C20.2471 12.2426 20.2074 12.1514 20.1865 12.0551C20.1655 11.9589 20.1638 11.8595 20.1812 11.7625ZM8.21874 16.875C7.28706 15.641 6.66222 14.2031 6.39581 12.68C6.12939 11.157 6.22904 9.59233 6.68653 8.11534C7.14402 6.63835 7.94623 5.29134 9.02693 4.18551C10.1076 3.07968 11.4359 2.24673 12.9019 1.75542C14.368 1.26411 15.9299 1.12853 17.4588 1.35987C18.9876 1.59121 20.4395 2.18284 21.6945 3.08592C22.9496 3.989 23.9719 5.17763 24.6771 6.5537C25.3822 7.92977 25.75 9.45382 25.75 11C25.7562 13.1213 25.0644 15.1858 23.7812 16.875C23.7218 16.9536 23.6475 17.0197 23.5625 17.0695C23.4776 17.1193 23.3836 17.1519 23.2861 17.1654C23.1885 17.179 23.0893 17.1731 22.994 17.1483C22.8986 17.1235 22.8092 17.0801 22.7306 17.0207C22.6521 16.9612 22.586 16.8869 22.5362 16.802C22.4863 16.717 22.4537 16.6231 22.4402 16.5255C22.4267 16.428 22.4325 16.3287 22.4574 16.2334C22.4822 16.1381 22.5256 16.0486 22.585 15.97C23.6703 14.5409 24.2553 12.7945 24.25 11C24.25 8.812 23.3808 6.71358 21.8336 5.16641C20.2864 3.61923 18.188 2.75004 16 2.75004C13.812 2.75004 11.7135 3.61923 10.1664 5.16641C8.61919 6.71358 7.74999 8.812 7.74999 11C7.74465 12.7945 8.32971 14.5409 9.41499 15.97C9.47442 16.0486 9.51779 16.1381 9.54263 16.2334C9.56747 16.3287 9.57329 16.428 9.55977 16.5255C9.54625 16.6231 9.51364 16.717 9.46382 16.802C9.41399 16.8869 9.34791 16.9612 9.26937 17.0207C9.19082 17.0801 9.10134 17.1235 9.00603 17.1483C8.91072 17.1731 8.81145 17.179 8.7139 17.1654C8.61634 17.1519 8.52239 17.1193 8.43744 17.0695C8.35248 17.0197 8.27817 16.9536 8.21874 16.875Z" fill="white"/>
</svg>
