<svg width="32" height="32" viewBox="0 0 32 32" fill="none" xmlns="http://www.w3.org/2000/svg">
<path d="M30 24.25H28.75V21C28.75 20.8011 28.671 20.6103 28.5303 20.4697C28.3897 20.329 28.1989 20.25 28 20.25H20C19.8011 20.25 19.6103 20.329 19.4697 20.4697C19.329 20.6103 19.25 20.8011 19.25 21V24.25H4.75V7C4.75 6.9337 4.77634 6.87011 4.82322 6.82322C4.87011 6.77634 4.9337 6.75 5 6.75H27C27.0663 6.75 27.1299 6.77634 27.1768 6.82322C27.2237 6.87011 27.25 6.9337 27.25 7V17C27.25 17.1989 27.329 17.3897 27.4697 17.5303C27.6103 17.671 27.8011 17.75 28 17.75C28.1989 17.75 28.3897 17.671 28.5303 17.5303C28.671 17.3897 28.75 17.1989 28.75 17V7C28.75 6.53587 28.5656 6.09075 28.2374 5.76256C27.9092 5.43437 27.4641 5.25 27 5.25H5C4.53587 5.25 4.09075 5.43437 3.76256 5.76256C3.43437 6.09075 3.25 6.53587 3.25 7V24.25H2C1.80109 24.25 1.61032 24.329 1.46967 24.4697C1.32902 24.6103 1.25 24.8011 1.25 25C1.25 25.1989 1.32902 25.3897 1.46967 25.5303C1.61032 25.671 1.80109 25.75 2 25.75H30C30.1989 25.75 30.3897 25.671 30.5303 25.5303C30.671 25.3897 30.75 25.1989 30.75 25C30.75 24.8011 30.671 24.6103 30.5303 24.4697C30.3897 24.329 30.1989 24.25 30 24.25ZM20.75 21.75H27.25V24.25H20.75V21.75Z" fill="white"/>
</svg>
