<svg width="32" height="32" viewBox="0 0 32 32" fill="none" xmlns="http://www.w3.org/2000/svg">
<path d="M16 3.25C15.8011 3.25 15.6103 3.32902 15.4697 3.46967C15.329 3.61032 15.25 3.80109 15.25 4V11C15.25 11.1989 15.329 11.3897 15.4697 11.5303C15.6103 11.671 15.8011 11.75 16 11.75C16.9355 11.7501 17.8449 12.059 18.587 12.6286C19.3292 13.1982 19.8626 13.9968 20.1047 14.9005C20.3467 15.8042 20.2838 16.7625 19.9257 17.6268C19.5676 18.4911 18.9343 19.2131 18.1241 19.6808C17.3138 20.1485 16.3719 20.3358 15.4444 20.2136C14.5168 20.0914 13.6555 19.6666 12.994 19.0051C12.3325 18.3435 11.9078 17.4822 11.7857 16.5547C11.6636 15.6271 11.851 14.6852 12.3187 13.875C12.368 13.7897 12.4 13.6954 12.4129 13.5977C12.4258 13.5 12.4192 13.4007 12.3937 13.3055C12.3682 13.2103 12.3241 13.1211 12.2641 13.0429C12.204 12.9648 12.1291 12.8992 12.0437 12.85L5.98124 9.35C5.8959 9.3007 5.80167 9.2687 5.70395 9.25584C5.60623 9.24298 5.50694 9.24951 5.41174 9.27505C5.31655 9.30059 5.22732 9.34464 5.14916 9.40469C5.071 9.46474 5.00545 9.5396 4.95624 9.625C3.55293 12.0556 2.99083 14.8813 3.35711 17.664C3.7234 20.4466 4.9976 23.0306 6.98211 25.0153C8.96662 26.9999 11.5505 28.2743 14.3331 28.6408C17.1157 29.0073 19.9415 28.4454 22.3722 27.0423C24.8029 25.6392 26.7028 23.4732 27.7771 20.8803C28.8514 18.2874 29.0401 15.4125 28.314 12.7015C27.5879 9.99037 25.9875 7.59463 23.7611 5.88577C21.5347 4.17691 18.8066 3.25042 16 3.25ZM5.90124 11.0363L10.6875 13.7987C10.3985 14.4966 10.2498 15.2446 10.25 16C10.2508 16.2508 10.2675 16.5013 10.3 16.75L4.96249 18.1812C4.48602 15.761 4.81576 13.2513 5.90124 11.0363ZM5.35124 19.625L10.6887 18.195C11.0763 19.1265 11.7015 19.94 12.5019 20.5542C13.3023 21.1684 14.2499 21.5617 15.25 21.695V27.22C13.0357 27.0689 10.9152 26.2675 9.15433 24.9165C7.39345 23.5654 6.07049 21.7247 5.35124 19.625ZM16.75 27.225V21.7C18.1328 21.5176 19.4021 20.8388 20.3216 19.7901C21.2411 18.7413 21.7481 17.3941 21.7481 15.9994C21.7481 14.6046 21.2411 13.2574 20.3216 12.2087C19.4021 11.1599 18.1328 10.4811 16.75 10.2987V4.775C19.5976 4.96516 22.2665 6.23046 24.2161 8.31463C26.1657 10.3988 27.2504 13.1461 27.2504 16C27.2504 18.8539 26.1657 21.6012 24.2161 23.6854C22.2665 25.7695 19.5976 27.0348 16.75 27.225Z" fill="white"/>
</svg>
