<svg width="32" height="32" viewBox="0 0 32 32" fill="none" xmlns="http://www.w3.org/2000/svg">
<path d="M12.7499 13.6875V4.6875C12.75 4.56748 12.7212 4.4492 12.6661 4.34259C12.6109 4.23599 12.531 4.14417 12.4331 4.07485C12.3351 4.00553 12.2219 3.96074 12.103 3.94423C11.9841 3.92773 11.863 3.93999 11.7499 3.98C8.88658 4.99211 6.47857 6.99301 4.95927 9.62257C3.43997 12.2521 2.90916 15.3376 3.46239 18.3237C3.48414 18.4418 3.53392 18.553 3.60756 18.6478C3.6812 18.7427 3.77653 18.8185 3.88555 18.8688C3.99457 18.9192 4.11408 18.9426 4.23404 18.9372C4.35399 18.9317 4.47089 18.8975 4.57489 18.8375L12.3749 14.3375C12.489 14.2716 12.5837 14.1769 12.6495 14.0628C12.7154 13.9487 12.75 13.8192 12.7499 13.6875ZM11.2499 13.25L4.79239 16.975C4.76406 16.6508 4.74989 16.3258 4.74989 16C4.75151 13.8581 5.36387 11.7611 6.51516 9.95487C7.66644 8.14868 9.3089 6.70823 11.2499 5.8025V13.25ZM15.9999 3.25C15.801 3.25 15.6102 3.32902 15.4696 3.46967C15.3289 3.61032 15.2499 3.80109 15.2499 4V15.625L5.27489 21.4325C5.18968 21.4822 5.11512 21.5483 5.05547 21.6269C4.99583 21.7055 4.95228 21.795 4.92731 21.8905C4.90235 21.9859 4.89646 22.0854 4.90999 22.1831C4.92351 22.2808 4.95619 22.3749 5.00614 22.46C6.13796 24.3859 7.75592 25.9806 9.69798 27.0845C11.64 28.1884 13.838 28.7627 16.0719 28.7498C18.3057 28.7369 20.4969 28.1374 22.4262 27.0112C24.3554 25.8851 25.9549 24.2718 27.0644 22.333C28.174 20.3942 28.7547 18.1979 28.7484 15.964C28.7421 13.7302 28.149 11.5372 27.0285 9.60465C25.908 7.67213 24.2994 6.06792 22.3639 4.95266C20.4283 3.83741 18.2338 3.25025 15.9999 3.25ZM15.9999 27.25C14.1681 27.2451 12.3649 26.7954 10.7453 25.9394C9.12576 25.0835 7.73835 23.847 6.70239 22.3363L16.3749 16.7013C16.4888 16.6355 16.5834 16.5409 16.6492 16.4271C16.715 16.3132 16.7498 16.184 16.7499 16.0525V4.775C19.6622 4.96948 22.3849 6.28822 24.343 8.45273C26.3012 10.6172 27.3414 13.458 27.244 16.3752C27.1467 19.2924 25.9194 22.0575 23.8213 24.0867C21.7233 26.1158 18.9187 27.2501 15.9999 27.25Z" fill="white"/>
</svg>
