<svg width="32" height="32" viewBox="0 0 32 32" fill="none" xmlns="http://www.w3.org/2000/svg">
<path d="M28 12.25H22.75V7C22.75 6.80109 22.671 6.61032 22.5303 6.46967C22.3897 6.32902 22.1989 6.25 22 6.25H6.75V5C6.75 4.80109 6.67098 4.61032 6.53033 4.46967C6.38968 4.32902 6.19891 4.25 6 4.25C5.80109 4.25 5.61032 4.32902 5.46967 4.46967C5.32902 4.61032 5.25 4.80109 5.25 5V27C5.25 27.1989 5.32902 27.3897 5.46967 27.5303C5.61032 27.671 5.80109 27.75 6 27.75C6.19891 27.75 6.38968 27.671 6.53033 27.5303C6.67098 27.3897 6.75 27.1989 6.75 27V25.75H18C18.1989 25.75 18.3897 25.671 18.5303 25.5303C18.671 25.3897 18.75 25.1989 18.75 25V19.75H28C28.1989 19.75 28.3897 19.671 28.5303 19.5303C28.671 19.3897 28.75 19.1989 28.75 19V13C28.75 12.8011 28.671 12.6103 28.5303 12.4697C28.3897 12.329 28.1989 12.25 28 12.25ZM21.25 7.75V12.25H6.75V7.75H21.25ZM17.25 24.25H6.75V19.75H17.25V24.25ZM27.25 18.25H6.75V13.75H27.25V18.25Z" fill="white"/>
</svg>
