<svg width="32" height="32" viewBox="0 0 32 32" fill="none" xmlns="http://www.w3.org/2000/svg">
<path d="M27 5.25H5C4.53587 5.25 4.09075 5.43437 3.76256 5.76256C3.43437 6.09075 3.25 6.53587 3.25 7V23C3.25 23.4641 3.43437 23.9092 3.76256 24.2374C4.09075 24.5656 4.53587 24.75 5 24.75H12.6987L14.48 27.875C14.633 28.1431 14.8542 28.366 15.1211 28.5211C15.3881 28.6761 15.6913 28.7578 16 28.7578C16.3087 28.7578 16.6119 28.6761 16.8789 28.5211C17.1458 28.366 17.367 28.1431 17.52 27.875L19.3013 24.75H27C27.4641 24.75 27.9092 24.5656 28.2374 24.2374C28.5656 23.9092 28.75 23.4641 28.75 23V7C28.75 6.53587 28.5656 6.09075 28.2374 5.76256C27.9092 5.43437 27.4641 5.25 27 5.25ZM27.25 23C27.25 23.0663 27.2237 23.1299 27.1768 23.1768C27.1299 23.2237 27.0663 23.25 27 23.25H18.8662C18.7343 23.2497 18.6046 23.2842 18.4903 23.35C18.3759 23.4159 18.281 23.5107 18.215 23.625L16.215 27.125C16.1932 27.1635 16.1616 27.1955 16.1234 27.2177C16.0852 27.24 16.0417 27.2517 15.9975 27.2517C15.9533 27.2517 15.9098 27.24 15.8716 27.2177C15.8334 27.1955 15.8018 27.1635 15.78 27.125L13.78 23.625C13.714 23.5107 13.6191 23.4159 13.5047 23.35C13.3904 23.2842 13.2607 23.2497 13.1287 23.25H5C4.9337 23.25 4.87011 23.2237 4.82322 23.1768C4.77634 23.1299 4.75 23.0663 4.75 23V7C4.75 6.9337 4.77634 6.87011 4.82322 6.82322C4.87011 6.77634 4.9337 6.75 5 6.75H27C27.0663 6.75 27.1299 6.77634 27.1768 6.82322C27.2237 6.87011 27.25 6.9337 27.25 7V23Z" fill="white"/>
</svg>
