<svg width="32" height="32" viewBox="0 0 32 32" fill="none" xmlns="http://www.w3.org/2000/svg">
<path d="M6.55504 4.49994C6.41774 4.3725 6.23771 4.30105 6.05039 4.29966C5.86306 4.29827 5.68199 4.36703 5.54281 4.49242C5.40363 4.61781 5.31642 4.79074 5.29832 4.9772C5.28023 5.16365 5.33257 5.35013 5.44504 5.49994L7.24129 7.47494C5.30541 9.69951 4.24255 12.551 4.25004 15.4999V25.9999C4.25004 26.4641 4.43441 26.9092 4.7626 27.2374C5.09079 27.5656 5.53591 27.7499 6.00004 27.7499H16.5C19.0459 27.747 21.5278 26.9529 23.6025 25.4774L25.445 27.4999C25.579 27.6471 25.7659 27.7351 25.9647 27.7445C26.1635 27.7539 26.3578 27.6839 26.505 27.5499C26.6522 27.416 26.7402 27.2291 26.7496 27.0303C26.7589 26.8315 26.689 26.6371 26.555 26.4899L6.55504 4.49994ZM16.5 26.2499H6.00004C5.93374 26.2499 5.87015 26.2236 5.82326 26.1767C5.77638 26.1298 5.75004 26.0662 5.75004 25.9999V15.4999C5.74518 12.9756 6.6344 10.5311 8.26004 8.59994L22.5875 24.3599C20.7999 25.5988 18.6749 26.2585 16.5 26.2499ZM28.75 15.4999C28.7517 17.7295 28.1439 19.917 26.9925 21.8262C26.9256 21.937 26.8312 22.0287 26.7184 22.0922C26.6056 22.1557 26.4783 22.189 26.3488 22.1887C26.2161 22.1883 26.0859 22.1527 25.9714 22.0856C25.8569 22.0184 25.7624 21.9221 25.6973 21.8065C25.6322 21.6908 25.599 21.56 25.601 21.4273C25.603 21.2946 25.6402 21.1648 25.7088 21.0512C26.9074 19.0694 27.4339 16.7534 27.2099 14.4482C26.9859 12.143 26.0233 9.97172 24.4656 8.25775C22.9078 6.54377 20.8382 5.37873 18.5648 4.93609C16.2914 4.49345 13.9358 4.79687 11.8488 5.80119C11.7597 5.84703 11.6623 5.87456 11.5624 5.88215C11.4625 5.88973 11.3621 5.87723 11.2671 5.84537C11.1722 5.81351 11.0845 5.76295 11.0094 5.69666C10.9343 5.63037 10.8732 5.5497 10.8298 5.45942C10.7863 5.36913 10.7614 5.27106 10.7565 5.17099C10.7516 5.07093 10.7668 4.97089 10.8012 4.8768C10.8356 4.7827 10.8885 4.69645 10.9568 4.62313C11.0251 4.54982 11.1074 4.49093 11.1988 4.44994C12.8524 3.65429 14.665 3.244 16.5 3.24994C19.7478 3.25358 22.8615 4.54537 25.1581 6.8419C27.4546 9.13844 28.7464 12.2522 28.75 15.4999Z" fill="white"/>
</svg>
