<svg width="32" height="32" viewBox="0 0 32 32" fill="none" xmlns="http://www.w3.org/2000/svg">
<path d="M6.55497 4.49998C6.41767 4.37254 6.23765 4.3011 6.05032 4.2997C5.86299 4.29831 5.68193 4.36707 5.54275 4.49246C5.40357 4.61785 5.31635 4.79078 5.29826 4.97724C5.28016 5.1637 5.3325 5.35017 5.44497 5.49998L6.12497 6.24998H4.99997C4.53585 6.24998 4.09073 6.43436 3.76254 6.76255C3.43435 7.09073 3.24997 7.53585 3.24997 7.99998V28C3.24785 28.3337 3.34216 28.6609 3.52155 28.9423C3.70095 29.2237 3.9578 29.4473 4.26122 29.5862C4.56447 29.7303 4.90298 29.7834 5.23576 29.739C5.56854 29.6946 5.88132 29.5547 6.13622 29.3362L10.2787 25.75H23.85L25.445 27.5C25.5108 27.5742 25.5908 27.6347 25.6802 27.6778C25.7696 27.7209 25.8666 27.7458 25.9657 27.7512C26.0648 27.7565 26.164 27.7421 26.2575 27.7088C26.351 27.6756 26.437 27.6241 26.5104 27.5573C26.5839 27.4906 26.6434 27.4099 26.6854 27.32C26.7274 27.2301 26.7512 27.1327 26.7554 27.0336C26.7595 26.9344 26.7439 26.8354 26.7095 26.7423C26.6751 26.6492 26.6226 26.5639 26.555 26.4912L6.55497 4.49998ZM9.99997 24.25C9.82004 24.2501 9.64613 24.3148 9.50997 24.4325L5.16122 28.1825C5.12537 28.2128 5.0817 28.2324 5.03523 28.239C4.98875 28.2457 4.94134 28.2391 4.89843 28.2201C4.85551 28.201 4.81883 28.1703 4.79257 28.1314C4.76632 28.0924 4.75156 28.0469 4.74997 28V7.99998C4.74997 7.93368 4.77631 7.87009 4.8232 7.82321C4.87008 7.77632 4.93367 7.74998 4.99997 7.74998H7.48622L22.4862 24.25H9.99997ZM28.75 7.99998V23.25C28.75 23.4489 28.671 23.6397 28.5303 23.7803C28.3897 23.921 28.1989 24 28 24C27.8011 24 27.6103 23.921 27.4696 23.7803C27.329 23.6397 27.25 23.4489 27.25 23.25V7.99998C27.25 7.93368 27.2236 7.87009 27.1768 7.82321C27.1299 7.77632 27.0663 7.74998 27 7.74998H13.2237C13.0248 7.74998 12.834 7.67096 12.6934 7.53031C12.5527 7.38966 12.4737 7.19889 12.4737 6.99998C12.4737 6.80107 12.5527 6.6103 12.6934 6.46965C12.834 6.329 13.0248 6.24998 13.2237 6.24998H27C27.4641 6.24998 27.9092 6.43436 28.2374 6.76255C28.5656 7.09073 28.75 7.53585 28.75 7.99998Z" fill="white"/>
</svg>
