<svg width="32" height="32" viewBox="0 0 32 32" fill="none" xmlns="http://www.w3.org/2000/svg">
<path d="M6.555 4.49996C6.4386 4.37285 6.28198 4.28971 6.11148 4.26452C5.94097 4.23934 5.767 4.27364 5.61882 4.36167C5.47065 4.44969 5.35731 4.58607 5.29788 4.74785C5.23844 4.90963 5.23655 5.08694 5.2925 5.24996H5C4.53587 5.24996 4.09075 5.43434 3.76256 5.76252C3.43437 6.09071 3.25 6.53583 3.25 6.99996V23C3.25 23.4641 3.43437 23.9092 3.76256 24.2374C4.09075 24.5656 4.53587 24.75 5 24.75H12.6987L14.48 27.875C14.633 28.1431 14.8542 28.366 15.1211 28.521C15.3881 28.6761 15.6913 28.7577 16 28.7577C16.3087 28.7577 16.6119 28.6761 16.8789 28.521C17.1458 28.366 17.367 28.1431 17.52 27.875L19.3013 24.75H22.9412L25.4412 27.5C25.5752 27.6472 25.7621 27.7351 25.9609 27.7445C26.1597 27.7539 26.3541 27.6839 26.5012 27.55C26.6484 27.416 26.7364 27.2291 26.7458 27.0303C26.7552 26.8315 26.6852 26.6372 26.5513 26.49L6.555 4.49996ZM18.8662 23.25C18.7343 23.2497 18.6046 23.2842 18.4903 23.35C18.3759 23.4159 18.281 23.5107 18.215 23.625L16.215 27.125C16.1932 27.1634 16.1616 27.1954 16.1234 27.2177C16.0852 27.24 16.0417 27.2517 15.9975 27.2517C15.9533 27.2517 15.9098 27.24 15.8716 27.2177C15.8334 27.1954 15.8018 27.1634 15.78 27.125L13.78 23.625C13.714 23.5107 13.6191 23.4159 13.5047 23.35C13.3904 23.2842 13.2607 23.2497 13.1287 23.25H5C4.9337 23.25 4.87011 23.2236 4.82322 23.1767C4.77634 23.1299 4.75 23.0663 4.75 23V6.99996C4.75 6.93366 4.77634 6.87007 4.82322 6.82318C4.87011 6.7763 4.9337 6.74996 5 6.74996H6.5775L21.5775 23.25H18.8662ZM28.75 6.99996V23.25C28.75 23.4489 28.671 23.6396 28.5303 23.7803C28.3897 23.9209 28.1989 24 28 24C27.8011 24 27.6103 23.9209 27.4697 23.7803C27.329 23.6396 27.25 23.4489 27.25 23.25V6.99996C27.25 6.93366 27.2237 6.87007 27.1768 6.82318C27.1299 6.7763 27.0663 6.74996 27 6.74996H12.315C12.1161 6.74996 11.9253 6.67094 11.7847 6.53029C11.644 6.38964 11.565 6.19887 11.565 5.99996C11.565 5.80105 11.644 5.61028 11.7847 5.46963C11.9253 5.32898 12.1161 5.24996 12.315 5.24996H27C27.4641 5.24996 27.9092 5.43434 28.2374 5.76252C28.5656 6.09071 28.75 6.53583 28.75 6.99996Z" fill="white"/>
</svg>
