<svg width="32" height="32" viewBox="0 0 32 32" fill="none" xmlns="http://www.w3.org/2000/svg">
<path d="M17.25 16C17.25 16.2472 17.1767 16.4889 17.0394 16.6945C16.902 16.9 16.7068 17.0602 16.4784 17.1549C16.25 17.2495 15.9986 17.2742 15.7562 17.226C15.5137 17.1777 15.291 17.0587 15.1161 16.8839C14.9413 16.7091 14.8223 16.4863 14.774 16.2439C14.7258 16.0014 14.7506 15.7501 14.8452 15.5216C14.9398 15.2932 15.1 15.098 15.3056 14.9607C15.5111 14.8233 15.7528 14.75 16 14.75C16.3315 14.75 16.6495 14.8817 16.8839 15.1161C17.1183 15.3505 17.25 15.6685 17.25 16ZM10.5 14.75C10.2528 14.75 10.0111 14.8233 9.80556 14.9607C9.6 15.098 9.43979 15.2932 9.34518 15.5216C9.25057 15.7501 9.22581 16.0014 9.27404 16.2439C9.32227 16.4863 9.44133 16.7091 9.61614 16.8839C9.79096 17.0587 10.0137 17.1777 10.2562 17.226C10.4986 17.2742 10.75 17.2495 10.9784 17.1549C11.2068 17.0602 11.402 16.9 11.5394 16.6945C11.6767 16.4889 11.75 16.2472 11.75 16C11.75 15.6685 11.6183 15.3505 11.3839 15.1161C11.1495 14.8817 10.8315 14.75 10.5 14.75ZM21.5 14.75C21.2528 14.75 21.0111 14.8233 20.8056 14.9607C20.6 15.098 20.4398 15.2932 20.3452 15.5216C20.2506 15.7501 20.2258 16.0014 20.274 16.2439C20.3223 16.4863 20.4413 16.7091 20.6161 16.8839C20.791 17.0587 21.0137 17.1777 21.2562 17.226C21.4986 17.2742 21.75 17.2495 21.9784 17.1549C22.2068 17.0602 22.402 16.9 22.5394 16.6945C22.6767 16.4889 22.75 16.2472 22.75 16C22.75 15.6685 22.6183 15.3505 22.3839 15.1161C22.1495 14.8817 21.8315 14.75 21.5 14.75ZM28.75 8V24C28.75 24.4641 28.5656 24.9092 28.2375 25.2374C27.9093 25.5656 27.4642 25.75 27 25.75H10.2788L6.13377 29.33L6.12627 29.3363C5.81207 29.6038 5.41272 29.7505 5.00002 29.75C4.74295 29.7494 4.48911 29.6927 4.25627 29.5837C3.95436 29.444 3.69899 29.2204 3.52058 28.9396C3.34217 28.6588 3.24826 28.3327 3.25002 28V8C3.25002 7.53587 3.4344 7.09075 3.76259 6.76256C4.09078 6.43437 4.5359 6.25 5.00002 6.25H27C27.4642 6.25 27.9093 6.43437 28.2375 6.76256C28.5656 7.09075 28.75 7.53587 28.75 8ZM27.25 8C27.25 7.9337 27.2237 7.87011 27.1768 7.82322C27.1299 7.77634 27.0663 7.75 27 7.75H5.00002C4.93372 7.75 4.87013 7.77634 4.82325 7.82322C4.77636 7.87011 4.75002 7.9337 4.75002 8V28C4.7501 28.0472 4.76354 28.0934 4.78878 28.1333C4.81403 28.1732 4.85005 28.2051 4.89268 28.2254C4.9353 28.2456 4.9828 28.2534 5.02967 28.2478C5.07654 28.2422 5.12087 28.2235 5.15752 28.1938L9.51002 24.4338C9.646 24.3157 9.81993 24.2504 10 24.25H27C27.0663 24.25 27.1299 24.2237 27.1768 24.1768C27.2237 24.1299 27.25 24.0663 27.25 24V8Z" fill="white"/>
</svg>
