<svg width="32" height="32" viewBox="0 0 32 32" fill="none" xmlns="http://www.w3.org/2000/svg">
<path d="M17.25 15C17.25 15.2472 17.1767 15.4889 17.0393 15.6945C16.902 15.9 16.7068 16.0602 16.4784 16.1549C16.2499 16.2495 15.9986 16.2742 15.7561 16.226C15.5137 16.1777 15.2909 16.0587 15.1161 15.8839C14.9413 15.7091 14.8222 15.4863 14.774 15.2439C14.7258 15.0014 14.7505 14.7501 14.8452 14.5216C14.9398 14.2932 15.1 14.098 15.3055 13.9607C15.5111 13.8233 15.7528 13.75 16 13.75C16.3315 13.75 16.6495 13.8817 16.8839 14.1161C17.1183 14.3505 17.25 14.6685 17.25 15ZM10.5 13.75C10.2528 13.75 10.0111 13.8233 9.80554 13.9607C9.59998 14.098 9.43976 14.2932 9.34515 14.5216C9.25054 14.7501 9.22579 15.0014 9.27402 15.2439C9.32225 15.4863 9.4413 15.7091 9.61612 15.8839C9.79093 16.0587 10.0137 16.1777 10.2561 16.226C10.4986 16.2742 10.7499 16.2495 10.9784 16.1549C11.2068 16.0602 11.402 15.9 11.5393 15.6945C11.6767 15.4889 11.75 15.2472 11.75 15C11.75 14.6685 11.6183 14.3505 11.3839 14.1161C11.1495 13.8817 10.8315 13.75 10.5 13.75ZM21.5 13.75C21.2528 13.75 21.0111 13.8233 20.8055 13.9607C20.6 14.098 20.4398 14.2932 20.3451 14.5216C20.2505 14.7501 20.2258 15.0014 20.274 15.2439C20.3223 15.4863 20.4413 15.7091 20.6161 15.8839C20.7909 16.0587 21.0137 16.1777 21.2561 16.226C21.4986 16.2742 21.7499 16.2495 21.9784 16.1549C22.2068 16.0602 22.402 15.9 22.5393 15.6945C22.6767 15.4889 22.75 15.2472 22.75 15C22.75 14.6685 22.6183 14.3505 22.3839 14.1161C22.1495 13.8817 21.8315 13.75 21.5 13.75ZM28.75 7V23C28.75 23.4641 28.5656 23.9092 28.2374 24.2374C27.9092 24.5656 27.4641 24.75 27 24.75H19.3013L17.52 27.875C17.367 28.1431 17.1458 28.366 16.8789 28.5211C16.6119 28.6761 16.3087 28.7578 16 28.7578C15.6913 28.7578 15.3881 28.6761 15.1211 28.5211C14.8542 28.366 14.633 28.1431 14.48 27.875L12.6987 24.75H5C4.53587 24.75 4.09075 24.5656 3.76256 24.2374C3.43437 23.9092 3.25 23.4641 3.25 23V7C3.25 6.53587 3.43437 6.09075 3.76256 5.76256C4.09075 5.43437 4.53587 5.25 5 5.25H27C27.4641 5.25 27.9092 5.43437 28.2374 5.76256C28.5656 6.09075 28.75 6.53587 28.75 7ZM27.25 7C27.25 6.9337 27.2237 6.87011 27.1768 6.82322C27.1299 6.77634 27.0663 6.75 27 6.75H5C4.9337 6.75 4.87011 6.77634 4.82322 6.82322C4.77634 6.87011 4.75 6.9337 4.75 7V23C4.75 23.0663 4.77634 23.1299 4.82322 23.1768C4.87011 23.2237 4.9337 23.25 5 23.25H13.1337C13.2657 23.2497 13.3954 23.2842 13.5097 23.35C13.6241 23.4159 13.719 23.5107 13.785 23.625L15.785 27.125C15.8068 27.1635 15.8384 27.1955 15.8766 27.2177C15.9148 27.24 15.9583 27.2517 16.0025 27.2517C16.0467 27.2517 16.0902 27.24 16.1284 27.2177C16.1666 27.1955 16.1982 27.1635 16.22 27.125L18.22 23.625C18.286 23.5107 18.3809 23.4159 18.4953 23.35C18.6096 23.2842 18.7393 23.2497 18.8713 23.25H27C27.0663 23.25 27.1299 23.2237 27.1768 23.1768C27.2237 23.1299 27.25 23.0663 27.25 23V7Z" fill="white"/>
</svg>
