<svg width="32" height="32" viewBox="0 0 32 32" fill="none" xmlns="http://www.w3.org/2000/svg">
<path d="M20.75 13C20.75 13.1989 20.671 13.3897 20.5303 13.5303C20.3897 13.671 20.1989 13.75 20 13.75H12C11.8011 13.75 11.6103 13.671 11.4697 13.5303C11.329 13.3897 11.25 13.1989 11.25 13C11.25 12.8011 11.329 12.6103 11.4697 12.4697C11.6103 12.329 11.8011 12.25 12 12.25H20C20.1989 12.25 20.3897 12.329 20.5303 12.4697C20.671 12.6103 20.75 12.8011 20.75 13ZM20 16.25H12C11.8011 16.25 11.6103 16.329 11.4697 16.4697C11.329 16.6103 11.25 16.8011 11.25 17C11.25 17.1989 11.329 17.3897 11.4697 17.5303C11.6103 17.671 11.8011 17.75 12 17.75H20C20.1989 17.75 20.3897 17.671 20.5303 17.5303C20.671 17.3897 20.75 17.1989 20.75 17C20.75 16.8011 20.671 16.6103 20.5303 16.4697C20.3897 16.329 20.1989 16.25 20 16.25ZM28.75 7V23C28.75 23.4641 28.5656 23.9092 28.2374 24.2374C27.9092 24.5656 27.4641 24.75 27 24.75H19.3013L17.52 27.875C17.367 28.1431 17.1458 28.366 16.8789 28.5211C16.6119 28.6761 16.3087 28.7578 16 28.7578C15.6913 28.7578 15.3881 28.6761 15.1211 28.5211C14.8542 28.366 14.633 28.1431 14.48 27.875L12.6987 24.75H5C4.53587 24.75 4.09075 24.5656 3.76256 24.2374C3.43437 23.9092 3.25 23.4641 3.25 23V7C3.25 6.53587 3.43437 6.09075 3.76256 5.76256C4.09075 5.43437 4.53587 5.25 5 5.25H27C27.4641 5.25 27.9092 5.43437 28.2374 5.76256C28.5656 6.09075 28.75 6.53587 28.75 7ZM27.25 7C27.25 6.9337 27.2237 6.87011 27.1768 6.82322C27.1299 6.77634 27.0663 6.75 27 6.75H5C4.9337 6.75 4.87011 6.77634 4.82322 6.82322C4.77634 6.87011 4.75 6.9337 4.75 7V23C4.75 23.0663 4.77634 23.1299 4.82322 23.1768C4.87011 23.2237 4.9337 23.25 5 23.25H13.1337C13.2657 23.2497 13.3954 23.2842 13.5097 23.35C13.6241 23.4159 13.719 23.5107 13.785 23.625L15.785 27.125C15.8068 27.1635 15.8384 27.1955 15.8766 27.2177C15.9148 27.24 15.9583 27.2517 16.0025 27.2517C16.0467 27.2517 16.0902 27.24 16.1284 27.2177C16.1666 27.1955 16.1982 27.1635 16.22 27.125L18.22 23.625C18.286 23.5107 18.3809 23.4159 18.4953 23.35C18.6096 23.2842 18.7393 23.2497 18.8713 23.25H27C27.0663 23.25 27.1299 23.2237 27.1768 23.1768C27.2237 23.1299 27.25 23.0663 27.25 23V7Z" fill="white"/>
</svg>
