<svg width="32" height="32" viewBox="0 0 32 32" fill="none" xmlns="http://www.w3.org/2000/svg">
<path d="M17.75 16C17.75 16.2472 17.6767 16.4889 17.5393 16.6945C17.402 16.9 17.2068 17.0602 16.9784 17.1549C16.7499 17.2495 16.4986 17.2742 16.2561 17.226C16.0137 17.1777 15.7909 17.0587 15.6161 16.8839C15.4413 16.7091 15.3222 16.4863 15.274 16.2439C15.2258 16.0014 15.2505 15.7501 15.3452 15.5216C15.4398 15.2932 15.6 15.098 15.8055 14.9607C16.0111 14.8233 16.2528 14.75 16.5 14.75C16.8315 14.75 17.1495 14.8817 17.3839 15.1161C17.6183 15.3505 17.75 15.6685 17.75 16ZM11 14.75C10.7528 14.75 10.5111 14.8233 10.3055 14.9607C10.1 15.098 9.93976 15.2932 9.84515 15.5216C9.75054 15.7501 9.72579 16.0014 9.77402 16.2439C9.82225 16.4863 9.9413 16.7091 10.1161 16.8839C10.2909 17.0587 10.5137 17.1777 10.7561 17.226C10.9986 17.2742 11.2499 17.2495 11.4784 17.1549C11.7068 17.0602 11.902 16.9 12.0393 16.6945C12.1767 16.4889 12.25 16.2472 12.25 16C12.25 15.6685 12.1183 15.3505 11.8839 15.1161C11.6495 14.8817 11.3315 14.75 11 14.75ZM22 14.75C21.7528 14.75 21.5111 14.8233 21.3055 14.9607C21.1 15.098 20.9398 15.2932 20.8451 15.5216C20.7505 15.7501 20.7258 16.0014 20.774 16.2439C20.8223 16.4863 20.9413 16.7091 21.1161 16.8839C21.2909 17.0587 21.5137 17.1777 21.7561 17.226C21.9986 17.2742 22.2499 17.2495 22.4784 17.1549C22.7068 17.0602 22.902 16.9 23.0393 16.6945C23.1767 16.4889 23.25 16.2472 23.25 16C23.25 15.6685 23.1183 15.3505 22.8839 15.1161C22.6495 14.8817 22.3315 14.75 22 14.75ZM28.75 15.5C28.7464 18.7478 27.4546 21.8615 25.158 24.158C22.8615 26.4546 19.7478 27.7464 16.5 27.75H6C5.53587 27.75 5.09075 27.5656 4.76256 27.2374C4.43437 26.9092 4.25 26.4641 4.25 26V15.5C4.25 12.2511 5.54062 9.13526 7.83794 6.83794C10.1353 4.54062 13.2511 3.25 16.5 3.25C19.7489 3.25 22.8647 4.54062 25.1621 6.83794C27.4594 9.13526 28.75 12.2511 28.75 15.5ZM27.25 15.5C27.25 12.6489 26.1174 9.91462 24.1014 7.8986C22.0854 5.88259 19.3511 4.75 16.5 4.75C13.6489 4.75 10.9146 5.88259 8.8986 7.8986C6.88259 9.91462 5.75 12.6489 5.75 15.5V26C5.75 26.0663 5.77634 26.1299 5.82322 26.1768C5.87011 26.2237 5.9337 26.25 6 26.25H16.5C19.3501 26.2467 22.0824 25.113 24.0977 23.0977C26.113 21.0824 27.2467 18.3501 27.25 15.5Z" fill="white"/>
</svg>
