<svg width="32" height="32" viewBox="0 0 32 32" fill="none" xmlns="http://www.w3.org/2000/svg">
<path d="M28.7412 23.3226C29.4384 21.9134 29.7844 20.3566 29.7498 18.7848C29.7152 17.213 29.301 15.6729 28.5426 14.2958C27.7842 12.9187 26.704 11.7454 25.3941 10.8759C24.0842 10.0065 22.5836 9.46671 21.02 9.30259C20.5234 8.09126 19.7879 6.99235 18.8575 6.07139C17.927 5.15043 16.8206 4.42629 15.6042 3.94215C14.3879 3.45802 13.0865 3.22381 11.7776 3.25348C10.4688 3.28316 9.17936 3.57612 7.98619 4.11489C6.79302 4.65366 5.72058 5.4272 4.83281 6.38938C3.94505 7.35157 3.26015 8.48269 2.81897 9.71528C2.37779 10.9479 2.18935 12.2567 2.26491 13.5637C2.34046 14.8707 2.67846 16.149 3.25874 17.3226L2.32249 20.5001C2.2322 20.8025 2.22538 21.1237 2.30273 21.4297C2.38009 21.7356 2.53875 22.015 2.76191 22.2382C2.98508 22.4613 3.26443 22.62 3.57041 22.6973C3.87638 22.7747 4.19758 22.7679 4.49999 22.6776L7.68249 21.7413C8.71699 22.2519 9.83389 22.5748 10.9812 22.6951C11.4883 23.9339 12.2449 25.055 13.2041 25.9887C14.1633 26.9223 15.3044 27.6485 16.5565 28.1219C17.8085 28.5953 19.1446 28.8058 20.4816 28.7403C21.8185 28.6749 23.1277 28.3348 24.3275 27.7413L27.5 28.6776C27.8024 28.7679 28.1236 28.7747 28.4296 28.6973C28.7355 28.62 29.0149 28.4613 29.2381 28.2382C29.4612 28.015 29.6199 27.7356 29.6972 27.4297C29.7746 27.1237 29.7678 26.8025 29.6775 26.5001L28.7412 23.3226ZM7.74999 20.1876C7.67851 20.1876 7.60738 20.1977 7.53874 20.2176L4.06749 21.2388C4.02447 21.2514 3.97886 21.2521 3.93544 21.241C3.89203 21.2299 3.8524 21.2073 3.82071 21.1756C3.78902 21.1439 3.76643 21.1043 3.75531 21.0609C3.74419 21.0175 3.74494 20.9719 3.75749 20.9288L4.77874 17.4576C4.83366 17.2684 4.81258 17.0652 4.71999 16.8913C3.78709 15.1467 3.51221 13.1249 3.94544 11.1945C4.37867 9.26414 5.49117 7.55373 7.08014 6.37506C8.66911 5.1964 10.6287 4.62799 12.6018 4.77345C14.5748 4.91891 16.4299 5.76855 17.8288 7.16749C19.2278 8.56643 20.0774 10.4215 20.2229 12.3946C20.3683 14.3676 19.7999 16.3272 18.6213 17.9162C17.4426 19.5052 15.7322 20.6177 13.8018 21.0509C11.8714 21.4841 9.84963 21.2092 8.10499 20.2763C7.9958 20.2179 7.87384 20.1874 7.74999 20.1876ZM27.2137 23.4576L28.235 26.9288C28.2475 26.9719 28.2483 27.0175 28.2372 27.0609C28.226 27.1043 28.2035 27.1439 28.1718 27.1756C28.1401 27.2073 28.1004 27.2299 28.057 27.241C28.0136 27.2521 27.968 27.2514 27.925 27.2388L24.4537 26.2176C24.2645 26.1628 24.0614 26.1839 23.8875 26.2763C22.9183 26.7944 21.8555 27.1136 20.7613 27.2152C19.6671 27.3169 18.5636 27.1989 17.5156 26.8682C16.4676 26.5375 15.4963 26.0007 14.6586 25.2895C13.8209 24.5782 13.1338 23.7068 12.6375 22.7263C14.0399 22.6351 15.406 22.2414 16.6419 21.5724C17.8778 20.9033 18.9543 19.9747 19.7974 18.8504C20.6406 17.726 21.2304 16.4325 21.5265 15.0587C21.8225 13.6848 21.8177 12.2632 21.5125 10.8913C22.7868 11.1296 23.9871 11.6648 25.0159 12.4536C26.0447 13.2424 26.8732 14.2626 27.4341 15.4314C27.995 16.6002 28.2725 17.8847 28.2442 19.1808C28.2159 20.4769 27.8826 21.7481 27.2712 22.8913C27.1803 23.0659 27.161 23.269 27.2175 23.4576H27.2137Z" fill="white"/>
</svg>
