<svg width="32" height="32" viewBox="0 0 32 32" fill="none" xmlns="http://www.w3.org/2000/svg">
<path d="M16.5 3.25C13.2522 3.25364 10.1385 4.54543 7.84196 6.84196C5.54543 9.13849 4.25364 12.2522 4.25 15.5V26C4.25 26.4641 4.43437 26.9092 4.76256 27.2374C5.09075 27.5656 5.53587 27.75 6 27.75H16.5C19.7489 27.75 22.8647 26.4594 25.1621 24.1621C27.4594 21.8647 28.75 18.7489 28.75 15.5C28.75 12.2511 27.4594 9.13526 25.1621 6.83794C22.8647 4.54062 19.7489 3.25 16.5 3.25ZM16.5 26.25H6C5.9337 26.25 5.87011 26.2237 5.82322 26.1768C5.77634 26.1299 5.75 26.0663 5.75 26V15.5C5.75 13.3739 6.38048 11.2954 7.5617 9.52762C8.74293 7.75979 10.4218 6.38194 12.3862 5.5683C14.3505 4.75465 16.5119 4.54177 18.5972 4.95656C20.6825 5.37135 22.598 6.39519 24.1014 7.8986C25.6048 9.40202 26.6287 11.3175 27.0434 13.4028C27.4582 15.4881 27.2453 17.6495 26.4317 19.6138C25.6181 21.5782 24.2402 23.2571 22.4724 24.4383C20.7046 25.6195 18.6261 26.25 16.5 26.25Z" fill="white"/>
</svg>
