<svg width="32" height="32" viewBox="0 0 32 32" fill="none" xmlns="http://www.w3.org/2000/svg">
<path d="M21.25 14C21.25 14.1989 21.171 14.3897 21.0303 14.5303C20.8897 14.671 20.6989 14.75 20.5 14.75H12C11.8011 14.75 11.6103 14.671 11.4697 14.5303C11.329 14.3897 11.25 14.1989 11.25 14C11.25 13.8011 11.329 13.6103 11.4697 13.4697C11.6103 13.329 11.8011 13.25 12 13.25H20.5C20.6989 13.25 20.8897 13.329 21.0303 13.4697C21.171 13.6103 21.25 13.8011 21.25 14ZM20.5 17.25H12C11.8011 17.25 11.6103 17.329 11.4697 17.4697C11.329 17.6103 11.25 17.8011 11.25 18C11.25 18.1989 11.329 18.3897 11.4697 18.5303C11.6103 18.671 11.8011 18.75 12 18.75H20.5C20.6989 18.75 20.8897 18.671 21.0303 18.5303C21.171 18.3897 21.25 18.1989 21.25 18C21.25 17.8011 21.171 17.6103 21.0303 17.4697C20.8897 17.329 20.6989 17.25 20.5 17.25ZM28.75 15.5C28.7464 18.7478 27.4546 21.8615 25.158 24.158C22.8615 26.4546 19.7478 27.7464 16.5 27.75H6C5.53587 27.75 5.09075 27.5656 4.76256 27.2374C4.43437 26.9092 4.25 26.4641 4.25 26V15.5C4.25 12.2511 5.54062 9.13526 7.83794 6.83794C10.1353 4.54062 13.2511 3.25 16.5 3.25C19.7489 3.25 22.8647 4.54062 25.1621 6.83794C27.4594 9.13526 28.75 12.2511 28.75 15.5ZM27.25 15.5C27.25 12.6489 26.1174 9.91462 24.1014 7.8986C22.0854 5.88259 19.3511 4.75 16.5 4.75C13.6489 4.75 10.9146 5.88259 8.8986 7.8986C6.88259 9.91462 5.75 12.6489 5.75 15.5V26C5.75 26.0663 5.77634 26.1299 5.82322 26.1768C5.87011 26.2237 5.9337 26.25 6 26.25H16.5C19.3501 26.2467 22.0824 25.113 24.0977 23.0977C26.113 21.0824 27.2467 18.3501 27.25 15.5Z" fill="white"/>
</svg>
