<svg width="32" height="32" viewBox="0 0 32 32" fill="none" xmlns="http://www.w3.org/2000/svg">
<path d="M27 6.25H5.00003C4.5359 6.25 4.09078 6.43437 3.76259 6.76256C3.4344 7.09075 3.25003 7.53587 3.25003 8V28C3.24822 28.3336 3.34265 28.6607 3.52201 28.9421C3.70136 29.2234 3.95804 29.4471 4.26128 29.5863C4.49278 29.6936 4.74483 29.7495 5.00003 29.75C5.41229 29.7502 5.81115 29.6035 6.12503 29.3363L6.13253 29.33L10.2788 25.75H27C27.4642 25.75 27.9093 25.5656 28.2375 25.2374C28.5656 24.9092 28.75 24.4641 28.75 24V8C28.75 7.53587 28.5656 7.09075 28.2375 6.76256C27.9093 6.43437 27.4642 6.25 27 6.25ZM27.25 24C27.25 24.0663 27.2237 24.1299 27.1768 24.1768C27.1299 24.2237 27.0663 24.25 27 24.25H10C9.82009 24.2501 9.64618 24.3149 9.51003 24.4325L5.15753 28.1912C5.12103 28.2209 5.07693 28.2396 5.03029 28.2453C4.98364 28.251 4.93633 28.2434 4.89379 28.2234C4.85125 28.2035 4.8152 28.1719 4.78977 28.1324C4.76434 28.0929 4.75057 28.047 4.75003 28V8C4.75003 7.9337 4.77636 7.87011 4.82325 7.82322C4.87013 7.77634 4.93372 7.75 5.00003 7.75H27C27.0663 7.75 27.1299 7.77634 27.1768 7.82322C27.2237 7.87011 27.25 7.9337 27.25 8V24Z" fill="white"/>
</svg>
