<svg width="32" height="32" viewBox="0 0 32 32" fill="none" xmlns="http://www.w3.org/2000/svg">
<path d="M6.555 4.50004C6.41769 4.3726 6.23767 4.30116 6.05034 4.29976C5.86302 4.29837 5.68195 4.36714 5.54277 4.49252C5.40359 4.61791 5.31637 4.79084 5.29828 4.9773C5.28018 5.16376 5.33252 5.35023 5.445 5.50004L6.88375 7.08754C4.9778 9.03603 3.74644 11.544 3.3703 14.2436C2.99415 16.9432 3.49303 19.6923 4.79375 22.0875L3.34125 26.445C3.23842 26.7534 3.22349 27.0843 3.29815 27.4006C3.37281 27.717 3.53409 28.0063 3.76393 28.2361C3.99376 28.4659 4.28307 28.6272 4.59942 28.7019C4.91576 28.7765 5.24665 28.7616 5.555 28.6588L9.91375 27.2063C12.1263 28.4065 14.6447 28.9249 17.1514 28.6963C19.6581 28.4676 22.0411 27.502 24 25.9213L25.445 27.5C25.5789 27.6472 25.7659 27.7352 25.9646 27.7446C26.1634 27.754 26.3578 27.684 26.505 27.55C26.6522 27.4161 26.7402 27.2292 26.7495 27.0304C26.7589 26.8316 26.6889 26.6372 26.555 26.49L6.555 4.50004ZM16 27.25C14.0224 27.2505 12.0796 26.7297 10.3675 25.74C10.2755 25.6867 10.1732 25.6535 10.0673 25.6428C9.96153 25.632 9.85463 25.6438 9.75375 25.6775L5.08125 27.235C5.0372 27.2497 4.98993 27.2519 4.94474 27.2412C4.89954 27.2305 4.85821 27.2075 4.82538 27.1747C4.79255 27.1418 4.76951 27.1005 4.75884 27.0553C4.74817 27.0101 4.75031 26.9628 4.765 26.9188L6.3225 22.25C6.3562 22.1492 6.36805 22.0423 6.35727 21.9364C6.3465 21.8306 6.31334 21.7283 6.26 21.6363C5.03749 19.5226 4.53583 17.0686 4.83078 14.6448C5.12573 12.2209 6.20127 9.95883 7.895 8.20004L23 24.8088C21.0108 26.3923 18.5426 27.2531 16 27.25ZM28.75 16C28.7497 18.1073 28.2284 20.1817 27.2325 22.0388C27.1681 22.158 27.0727 22.2576 26.9562 22.327C26.8398 22.3963 26.7068 22.4328 26.5712 22.4325C26.4416 22.4324 26.3142 22.3987 26.2014 22.3347C26.0887 22.2706 25.9945 22.1784 25.928 22.0671C25.8615 21.9558 25.825 21.8292 25.8221 21.6995C25.8192 21.5699 25.8499 21.4418 25.9112 21.3275C27.0115 19.2776 27.4495 16.937 27.165 14.6279C26.8805 12.3188 25.8875 10.1546 24.3225 8.43298C22.7576 6.71138 20.6976 5.51701 18.426 5.01418C16.1544 4.51134 13.7828 4.72475 11.6375 5.62504C11.4597 5.68043 11.2677 5.66769 11.0988 5.58931C10.9298 5.51094 10.7961 5.37252 10.7236 5.20101C10.6511 5.02949 10.645 4.83713 10.7065 4.66136C10.768 4.48559 10.8926 4.33898 11.0562 4.25004C12.9943 3.4368 15.1033 3.11499 17.1957 3.31322C19.2881 3.51144 21.2991 4.22356 23.05 5.38628C24.8009 6.549 26.2374 8.12629 27.2318 9.97794C28.2262 11.8296 28.7477 13.8983 28.75 16Z" fill="white"/>
</svg>
