<svg width="32" height="32" viewBox="0 0 32 32" fill="none" xmlns="http://www.w3.org/2000/svg">
<path d="M30.2337 8.70752L27.2337 5.76252C26.9057 5.43544 26.4614 5.25177 25.9981 5.25177C25.5349 5.25177 25.0905 5.43544 24.7625 5.76252L13 17.375L8.23749 12.7625C8.07499 12.6 7.88206 12.4711 7.66973 12.3831C7.4574 12.2952 7.22982 12.2499 6.99999 12.2499C6.77016 12.2499 6.54258 12.2952 6.33025 12.3831C6.11792 12.4711 5.92499 12.6 5.76249 12.7625L2.76249 15.7625C2.43464 16.0907 2.25049 16.5355 2.25049 16.9994C2.25049 17.4633 2.43464 17.9081 2.76249 18.2363L11.715 27.2363C11.8775 27.3988 12.0704 27.5277 12.2828 27.6157C12.4951 27.7036 12.7227 27.7489 12.9525 27.7489C13.1823 27.7489 13.4099 27.7036 13.6222 27.6157C13.8346 27.5277 14.0275 27.3988 14.19 27.2363L30.2387 11.1875C30.4017 11.0246 30.5308 10.8311 30.6188 10.6181C30.7068 10.4052 30.7518 10.1769 30.7514 9.94649C30.7509 9.71606 30.7049 9.488 30.6161 9.27538C30.5273 9.06277 30.3973 8.86979 30.2337 8.70752ZM29.1775 10.125L13.125 26.1763C13.0782 26.2225 13.0151 26.2484 12.9494 26.2484C12.8836 26.2484 12.8205 26.2225 12.7737 26.1763L3.82124 17.1763C3.77468 17.1294 3.74854 17.0661 3.74854 17C3.74854 16.934 3.77468 16.8706 3.82124 16.8238L6.82124 13.8238C6.84464 13.8002 6.87251 13.7816 6.9032 13.7689C6.93389 13.7563 6.96679 13.7498 6.99999 13.75C7.03498 13.7503 7.06956 13.7575 7.10174 13.7713C7.13392 13.785 7.16306 13.805 7.18749 13.83L12.4812 18.965C12.6214 19.1021 12.8096 19.1788 13.0056 19.1788C13.2016 19.1788 13.3898 19.1021 13.53 18.965L25.8262 6.82627C25.8495 6.80227 25.8774 6.78319 25.9082 6.77016C25.939 6.75713 25.9722 6.75041 26.0056 6.75041C26.0391 6.75041 26.0722 6.75713 26.103 6.77016C26.1338 6.78319 26.1617 6.80227 26.185 6.82627L29.185 9.77127C29.2077 9.79498 29.2256 9.82294 29.2376 9.85356C29.2495 9.88418 29.2553 9.91685 29.2546 9.9497C29.2539 9.98256 29.2467 10.015 29.2335 10.045C29.2203 10.0751 29.2012 10.1023 29.1775 10.125Z" fill="white"/>
</svg>
