<svg width="32" height="32" viewBox="0 0 32 32" fill="none" xmlns="http://www.w3.org/2000/svg">
<path d="M26 4.25H6C5.53587 4.25 5.09075 4.43437 4.76256 4.76256C4.43437 5.09075 4.25 5.53587 4.25 6V26C4.25 26.4641 4.43437 26.9092 4.76256 27.2374C5.09075 27.5656 5.53587 27.75 6 27.75H26C26.4641 27.75 26.9092 27.5656 27.2374 27.2374C27.5656 26.9092 27.75 26.4641 27.75 26V6C27.75 5.53587 27.5656 5.09075 27.2374 4.76256C26.9092 4.43437 26.4641 4.25 26 4.25ZM24.31 15.25L16.75 7.69V5.75H18.69L26.25 13.31V15.25H24.31ZM16.75 9.81L22.19 15.25H16.75V9.81ZM26.25 6V11.19L20.81 5.75H26C26.0663 5.75 26.1299 5.77634 26.1768 5.82322C26.2237 5.87011 26.25 5.9337 26.25 6ZM6 5.75H15.25V15.25H5.75V6C5.75 5.9337 5.77634 5.87011 5.82322 5.82322C5.87011 5.77634 5.9337 5.75 6 5.75ZM13.31 26.25L5.75 18.69V16.75H7.69L15.25 24.31V26.25H13.31ZM15.25 22.19L9.81 16.75H15.25V22.19ZM5.75 26V20.81L11.19 26.25H6C5.9337 26.25 5.87011 26.2237 5.82322 26.1768C5.77634 26.1299 5.75 26.0663 5.75 26ZM26 26.25H16.75V24V16.75H26.25V26C26.25 26.0663 26.2237 26.1299 26.1768 26.1768C26.1299 26.2237 26.0663 26.25 26 26.25Z" fill="white"/>
</svg>
