<svg width="32" height="32" viewBox="0 0 32 32" fill="none" xmlns="http://www.w3.org/2000/svg">
<path d="M18.525 10.535L7.32501 21.535C7.18482 21.6724 6.99633 21.7494 6.80001 21.7494C6.6037 21.7494 6.41521 21.6724 6.27501 21.535L1.47501 16.8213C1.40467 16.7523 1.3486 16.6702 1.31 16.5796C1.2714 16.489 1.25102 16.3916 1.25004 16.2931C1.24905 16.1947 1.26747 16.0969 1.30425 16.0056C1.34103 15.9142 1.39544 15.831 1.46439 15.7606C1.53333 15.6903 1.61545 15.6342 1.70607 15.5956C1.79668 15.557 1.89401 15.5366 1.9925 15.5357C2.09099 15.5347 2.18871 15.5531 2.28007 15.5899C2.37144 15.6266 2.45467 15.6811 2.52501 15.75L6.80001 19.9475L17.475 9.46375C17.5444 9.39087 17.6278 9.33269 17.7201 9.29269C17.8124 9.25269 17.9119 9.23168 18.0125 9.23092C18.1132 9.23016 18.2129 9.24966 18.3059 9.28826C18.3988 9.32685 18.483 9.38376 18.5535 9.45559C18.624 9.52742 18.6793 9.6127 18.7162 9.70636C18.753 9.80001 18.7706 9.90012 18.7679 10.0007C18.7653 10.1013 18.7424 10.2004 18.7007 10.2919C18.6589 10.3835 18.5992 10.4657 18.525 10.5338V10.535ZM30.535 9.475C30.3957 9.33322 30.2058 9.25252 30.0071 9.25065C29.8083 9.24877 29.617 9.32587 29.475 9.465L18.8 19.9488L16.2713 17.465C16.201 17.396 16.1178 17.3415 16.0265 17.3046C15.9352 17.2677 15.8375 17.2492 15.739 17.25C15.6405 17.2509 15.5432 17.2712 15.4525 17.3097C15.3619 17.3481 15.2797 17.4041 15.2106 17.4744C15.1416 17.5446 15.0871 17.6278 15.0502 17.7191C15.0133 17.8104 14.9948 17.9081 14.9957 18.0066C14.9965 18.1051 15.0168 18.2025 15.0553 18.2931C15.0938 18.3838 15.1498 18.466 15.22 18.535L18.275 21.535C18.4152 21.6724 18.6037 21.7494 18.8 21.7494C18.9963 21.7494 19.1848 21.6724 19.325 21.535L30.525 10.535C30.6668 10.3957 30.7475 10.2058 30.7494 10.0071C30.7512 9.80832 30.6741 9.61695 30.535 9.475Z" fill="white"/>
</svg>
