<svg width="32" height="32" viewBox="0 0 32 32" fill="none" xmlns="http://www.w3.org/2000/svg">
<path d="M26.8062 26.9837L24.3587 27.64L22.9375 22.335C23.9678 21.8728 24.8001 21.0592 25.2856 20.0397C25.7711 19.0201 25.8781 17.8612 25.5875 16.77C24.0225 10.9287 20.7688 5.80999 20.6313 5.59499C20.5465 5.4628 20.4223 5.36057 20.2763 5.30271C20.1303 5.24485 19.9698 5.23428 19.8175 5.27249L16.7725 6.03374C16.7862 4.82499 16.7538 4.05374 16.7488 3.96499C16.7413 3.80405 16.6822 3.6498 16.5802 3.52508C16.4782 3.40035 16.3387 3.31179 16.1825 3.27249L12.1825 2.27249C12.0311 2.23569 11.872 2.24698 11.7272 2.30478C11.5825 2.36257 11.4594 2.46401 11.375 2.59499C11.2375 2.80999 7.98375 7.92874 6.41875 13.77C6.12816 14.8612 6.23518 16.0201 6.72067 17.0397C7.20616 18.0592 8.03846 18.8728 9.06875 19.335L7.64125 24.64L5.19375 23.9837C5.09789 23.956 4.99746 23.9476 4.89833 23.9591C4.79919 23.9706 4.70336 24.0018 4.61644 24.0509C4.52952 24.0999 4.45326 24.1658 4.39213 24.2447C4.331 24.3236 4.28623 24.4139 4.26045 24.5103C4.23466 24.6067 4.22837 24.7073 4.24196 24.8062C4.25554 24.905 4.28872 25.0002 4.33955 25.0861C4.39038 25.172 4.45784 25.2469 4.53798 25.3063C4.61812 25.3658 4.70933 25.4087 4.80625 25.4325L10.8062 27.0412C10.8696 27.0575 10.9346 27.0658 11 27.0662C11.1823 27.0667 11.3585 27.0007 11.4957 26.8806C11.6328 26.7606 11.7216 26.5947 11.7453 26.4139C11.7691 26.2332 11.7262 26.05 11.6247 25.8986C11.5232 25.7472 11.37 25.6379 11.1938 25.5912L9.09 25.0275L10.5125 19.7212C10.6744 19.7395 10.8371 19.7491 11 19.75C12.0454 19.7484 13.0612 19.4027 13.8906 18.7663C14.7199 18.1299 15.3167 17.2381 15.5887 16.2287V16.2125C15.6237 16.0687 15.6575 15.9262 15.69 15.7825C15.8668 16.9432 16.1059 18.0936 16.4062 19.2287C16.6782 20.2392 17.2756 21.1317 18.106 21.7683C18.9365 22.4049 19.9536 22.7499 21 22.75C21.1629 22.7491 21.3256 22.7395 21.4875 22.7212L22.91 28.0275L20.8062 28.5912C20.63 28.6379 20.4768 28.7472 20.3753 28.8986C20.2738 29.05 20.2309 29.2332 20.2547 29.4139C20.2784 29.5947 20.3672 29.7606 20.5043 29.8806C20.6415 30.0007 20.8177 30.0667 21 30.0662C21.0654 30.0658 21.1304 30.0575 21.1938 30.0412L27.1938 28.4325C27.2907 28.4087 27.3819 28.3658 27.462 28.3063C27.5422 28.2469 27.6096 28.172 27.6604 28.0861C27.7113 28.0002 27.7445 27.905 27.758 27.8062C27.7716 27.7073 27.7653 27.6067 27.7396 27.5103C27.7138 27.4139 27.669 27.3236 27.6079 27.2447C27.5467 27.1658 27.4705 27.0999 27.3836 27.0509C27.2966 27.0018 27.2008 26.9706 27.1017 26.9591C27.0025 26.9476 26.9021 26.956 26.8062 26.9837ZM19.6475 6.85874C20.0075 7.46249 20.6738 8.62499 21.415 10.125L16.7588 11.2875C16.69 9.90374 16.695 8.74874 16.7125 7.99624C16.7188 7.85874 16.725 7.72249 16.73 7.58999L19.6475 6.85874ZM12.3525 3.85874L15.2662 4.58749C15.275 5.11874 15.28 6.00249 15.2425 7.11249C15.2338 7.25999 15.2225 7.49874 15.2137 7.81499C15.2025 8.04249 15.19 8.27749 15.1763 8.51874L10.4762 7.34374C11.26 5.73624 11.975 4.49124 12.3525 3.86124V3.85874ZM14.1388 15.845C13.9146 16.6774 13.369 17.3868 12.6219 17.8169C11.8748 18.2471 10.9874 18.3628 10.155 18.1387C9.32255 17.9146 8.61322 17.369 8.18306 16.6219C7.7529 15.8748 7.63714 14.9874 7.86125 14.155C8.37498 12.2981 9.03324 10.4842 9.83 8.72999L15.0625 10.0387C14.8986 11.9952 14.5898 13.9367 14.1388 15.8475V15.845ZM17.86 18.8375C17.3508 16.8602 17.0162 14.842 16.86 12.8062L22.07 11.5037C22.9114 13.3285 23.6036 15.2185 24.14 17.155C24.3631 17.9876 24.2463 18.8747 23.8154 19.6213C23.3844 20.3678 22.6745 20.9125 21.8419 21.1356C21.0093 21.3587 20.1221 21.2419 19.3756 20.811C18.6291 20.38 18.0844 19.6701 17.8612 18.8375H17.86ZM23.3288 5.33749C23.2418 5.16011 23.2284 4.9556 23.2913 4.76837C23.3543 4.58114 23.4886 4.4263 23.665 4.33749L25.665 3.33749C25.7532 3.29349 25.8491 3.2673 25.9474 3.26038C26.0457 3.25347 26.1443 3.26599 26.2378 3.29721C26.3312 3.32843 26.4176 3.37776 26.492 3.44236C26.5663 3.50697 26.6273 3.58559 26.6712 3.67374C26.7152 3.76189 26.7414 3.85784 26.7484 3.95611C26.7553 4.05439 26.7428 4.15306 26.7115 4.2465C26.6803 4.33994 26.631 4.42632 26.5664 4.50069C26.5018 4.57507 26.4231 4.63599 26.335 4.67999L24.335 5.67999C24.2469 5.72401 24.1509 5.75023 24.0526 5.75715C23.9543 5.76408 23.8557 5.75157 23.7622 5.72034C23.6688 5.68912 23.5824 5.63978 23.508 5.57517C23.4336 5.51055 23.3727 5.43191 23.3288 5.34374V5.33749ZM28.75 8.99999C28.75 9.1989 28.671 9.38967 28.5303 9.53032C28.3897 9.67097 28.1989 9.74999 28 9.74999H26C25.8011 9.74999 25.6103 9.67097 25.4697 9.53032C25.329 9.38967 25.25 9.1989 25.25 8.99999C25.25 8.80108 25.329 8.61031 25.4697 8.46966C25.6103 8.32901 25.8011 8.24999 26 8.24999H28C28.1989 8.24999 28.3897 8.32901 28.5303 8.46966C28.671 8.61031 28.75 8.80108 28.75 8.99999ZM4.32875 2.66499C4.41756 2.48855 4.5724 2.35426 4.75963 2.29131C4.94686 2.22835 5.15138 2.2418 5.32875 2.32874L7.32875 3.32874C7.4169 3.37273 7.49552 3.43365 7.56013 3.50803C7.62473 3.58241 7.67405 3.66878 7.70528 3.76222C7.7365 3.85566 7.74901 3.95434 7.7421 4.05261C7.73519 4.15089 7.70899 4.24684 7.665 4.33499C7.62101 4.42314 7.56008 4.50176 7.48571 4.56636C7.41133 4.63097 7.32495 4.68029 7.23151 4.71151C7.13808 4.74274 7.0394 4.75525 6.94113 4.74834C6.84285 4.74143 6.7469 4.71523 6.65875 4.67124L4.65875 3.67124C4.48178 3.58132 4.34767 3.42492 4.28582 3.2363C4.22396 3.04769 4.2394 2.84224 4.32875 2.66499ZM5 8.74999H3C2.80109 8.74999 2.61032 8.67097 2.46967 8.53032C2.32902 8.38967 2.25 8.1989 2.25 7.99999C2.25 7.80108 2.32902 7.61031 2.46967 7.46966C2.61032 7.32901 2.80109 7.24999 3 7.24999H5C5.19891 7.24999 5.38968 7.32901 5.53033 7.46966C5.67098 7.61031 5.75 7.80108 5.75 7.99999C5.75 8.1989 5.67098 8.38967 5.53033 8.53032C5.38968 8.67097 5.19891 8.74999 5 8.74999Z" fill="white"/>
</svg>
