<svg width="32" height="32" viewBox="0 0 32 32" fill="none" xmlns="http://www.w3.org/2000/svg">
<path d="M23 4.25C22.9272 4.24979 22.8547 4.26032 22.785 4.28125L2.785 10.2813C2.63035 10.3275 2.49476 10.4225 2.39837 10.552C2.30199 10.6814 2.24995 10.8386 2.25 11V14C2.25 14.1989 2.32902 14.3897 2.46967 14.5303C2.61032 14.671 2.80109 14.75 3 14.75H4C4.58836 14.7528 5.15248 14.9847 5.57259 15.3967C5.99269 15.8086 6.2357 16.3681 6.25 16.9563C6.25438 17.2505 6.19966 17.5426 6.08909 17.8153C5.97851 18.088 5.81432 18.3357 5.60625 18.5438C5.38763 18.766 5.12719 18.9429 4.83993 19.0641C4.55268 19.1853 4.24428 19.2485 3.9325 19.25H3C2.80109 19.25 2.61032 19.329 2.46967 19.4697C2.32902 19.6103 2.25 19.8011 2.25 20V24C2.25 24.1989 2.32902 24.3897 2.46967 24.5303C2.61032 24.671 2.80109 24.75 3 24.75H28C28.4641 24.75 28.9092 24.5656 29.2374 24.2374C29.5656 23.9093 29.75 23.4641 29.75 23V11C29.748 9.2104 29.0362 7.49467 27.7708 6.22923C26.5053 4.96378 24.7896 4.25199 23 4.25ZM23.1063 5.75C24.3498 5.77695 25.5436 6.24382 26.4755 7.0677C27.4074 7.89158 28.0171 9.01911 28.1963 10.25H8.11L23.1063 5.75ZM24.25 13C24.25 13.4808 24.1433 13.9557 23.9376 14.3903C23.7319 14.825 23.4323 15.2085 23.0605 15.5134C22.6886 15.8182 22.2537 16.0368 21.7872 16.1532C21.3207 16.2697 20.8341 16.2812 20.3626 16.1869C19.8911 16.0926 19.4464 15.8948 19.0606 15.6079C18.6747 15.321 18.3574 14.952 18.1314 14.5275C17.9054 14.1031 17.7763 13.6338 17.7536 13.1535C17.7309 12.6732 17.8151 12.1939 18 11.75H24C24.1654 12.146 24.2504 12.5709 24.25 13ZM17.25 23.25H10.75V23C10.75 22.1381 11.0924 21.3114 11.7019 20.7019C12.3114 20.0924 13.138 19.75 14 19.75C14.862 19.75 15.6886 20.0924 16.2981 20.7019C16.9076 21.3114 17.25 22.1381 17.25 23V23.25ZM28.25 23C28.25 23.0663 28.2237 23.1299 28.1768 23.1768C28.1299 23.2237 28.0663 23.25 28 23.25H18.75V23C18.75 21.7402 18.2496 20.532 17.3588 19.6412C16.468 18.7504 15.2598 18.25 14 18.25C12.7402 18.25 11.532 18.7504 10.6412 19.6412C9.75045 20.532 9.25 21.7402 9.25 23V23.25H3.75V20.75H3.9325C4.44454 20.7485 4.95121 20.6456 5.42323 20.4471C5.89524 20.2487 6.32325 19.9586 6.6825 19.5938C7.03003 19.2435 7.30361 18.8271 7.48699 18.369C7.67037 17.911 7.75982 17.4208 7.75 16.9275C7.72658 15.947 7.32172 15.0143 6.62147 14.3276C5.92122 13.6409 4.98077 13.2543 4 13.25H3.75V11.75H16.4175C16.2252 12.4547 16.1981 13.1942 16.3381 13.911C16.4782 14.6279 16.7817 15.3028 17.225 15.8833C17.6683 16.4638 18.2396 16.9342 18.8943 17.258C19.549 17.5818 20.2696 17.7503 21 17.7503C21.7304 17.7503 22.451 17.5818 23.1057 17.258C23.7604 16.9342 24.3317 16.4638 24.775 15.8833C25.2183 15.3028 25.5218 14.6279 25.6619 13.911C25.8019 13.1942 25.7748 12.4547 25.5825 11.75H28.25V23Z" fill="white"/>
</svg>
