<svg width="32" height="32" viewBox="0 0 32 32" fill="none" xmlns="http://www.w3.org/2000/svg">
<path d="M29.75 14C29.748 12.2104 29.0362 10.4947 27.7708 9.22925C26.5053 7.96381 24.7896 7.25201 23 7.25003C22.7276 7.25041 22.4554 7.26711 22.185 7.30003C21.6599 6.09568 20.7948 5.07075 19.6957 4.35093C18.5966 3.6311 17.3113 3.24768 15.9975 3.24768C14.6837 3.24768 13.3984 3.6311 12.2993 4.35093C11.2002 5.07075 10.3351 6.09568 9.81 7.30003C9.54123 7.26731 9.27075 7.25061 9 7.25003C7.45471 7.25101 5.95655 7.78217 4.75575 8.75479C3.55495 9.72742 2.72423 11.0826 2.40234 12.594C2.08046 14.1054 2.2869 15.6815 2.98719 17.059C3.68748 18.4365 4.83921 19.532 6.25 20.1625V26C6.25 26.4642 6.43437 26.9093 6.76256 27.2375C7.09075 27.5656 7.53587 27.75 8 27.75H24C24.4641 27.75 24.9092 27.5656 25.2374 27.2375C25.5656 26.9093 25.75 26.4642 25.75 26V20.1625C26.94 19.6305 27.9507 18.7656 28.6604 17.6722C29.3702 16.5788 29.7485 15.3036 29.75 14ZM24.25 26C24.25 26.0663 24.2237 26.1299 24.1768 26.1768C24.1299 26.2237 24.0663 26.25 24 26.25H8C7.93369 26.25 7.87011 26.2237 7.82322 26.1768C7.77634 26.1299 7.75 26.0663 7.75 26V20.6325C8.16211 20.7104 8.58059 20.7498 9 20.75H23C23.4194 20.7498 23.8379 20.7104 24.25 20.6325V26ZM23 19.25H20.9612L21.7275 16.1825C21.7515 16.087 21.7564 15.9877 21.742 15.8902C21.7275 15.7928 21.6941 15.6992 21.6435 15.6147C21.5929 15.5302 21.5261 15.4564 21.447 15.3977C21.3679 15.339 21.278 15.2965 21.1825 15.2725C21.087 15.2486 20.9876 15.2436 20.8902 15.2581C20.7928 15.2725 20.6991 15.306 20.6146 15.3566C20.5301 15.4072 20.4564 15.4739 20.3977 15.553C20.339 15.6321 20.2965 15.722 20.2725 15.8175L19.4137 19.25H16.75V16C16.75 15.8011 16.671 15.6103 16.5303 15.4697C16.3897 15.329 16.1989 15.25 16 15.25C15.8011 15.25 15.6103 15.329 15.4697 15.4697C15.329 15.6103 15.25 15.8011 15.25 16V19.25H12.5862L11.7275 15.8175C11.7035 15.722 11.661 15.6321 11.6023 15.553C11.5436 15.4739 11.4699 15.4072 11.3854 15.3566C11.3009 15.306 11.2072 15.2725 11.1098 15.2581C11.0124 15.2436 10.913 15.2486 10.8175 15.2725C10.722 15.2965 10.6321 15.339 10.553 15.3977C10.4739 15.4564 10.4071 15.5302 10.3565 15.6147C10.3059 15.6992 10.2725 15.7928 10.258 15.8902C10.2436 15.9877 10.2485 16.087 10.2725 16.1825L11.0387 19.25H9C7.60761 19.25 6.27225 18.6969 5.28769 17.7123C4.30312 16.7278 3.75 15.3924 3.75 14C3.75 12.6076 4.30312 11.2723 5.28769 10.2877C6.27225 9.30315 7.60761 8.75003 9 8.75003C9.125 8.75003 9.25 8.75003 9.365 8.76378C9.2892 9.17151 9.25071 9.58531 9.25 10C9.25 10.1989 9.32902 10.3897 9.46967 10.5304C9.61032 10.671 9.80109 10.75 10 10.75C10.1989 10.75 10.3897 10.671 10.5303 10.5304C10.671 10.3897 10.75 10.1989 10.75 10C10.75 8.60764 11.3031 7.27228 12.2877 6.28771C13.2723 5.30315 14.6076 4.75003 16 4.75003C17.3924 4.75003 18.7277 5.30315 19.7123 6.28771C20.6969 7.27228 21.25 8.60764 21.25 10C21.25 10.1989 21.329 10.3897 21.4697 10.5304C21.6103 10.671 21.8011 10.75 22 10.75C22.1989 10.75 22.3897 10.671 22.5303 10.5304C22.671 10.3897 22.75 10.1989 22.75 10C22.7493 9.58531 22.7108 9.17151 22.635 8.76378C22.76 8.75628 22.8775 8.75003 23 8.75003C24.3924 8.75003 25.7277 9.30315 26.7123 10.2877C27.6969 11.2723 28.25 12.6076 28.25 14C28.25 15.3924 27.6969 16.7278 26.7123 17.7123C25.7277 18.6969 24.3924 19.25 23 19.25Z" fill="white"/>
</svg>
