<svg width="32" height="32" viewBox="0 0 32 32" fill="none" xmlns="http://www.w3.org/2000/svg">
<path d="M22 9.25C21.6309 9.24984 21.2622 9.27364 20.8963 9.32125C20.1987 8.08851 19.274 6.99892 18.1713 6.11C13.5238 2.36 7.16251 3.21875 6.89376 3.2575C6.74314 3.27876 6.60253 3.34531 6.49061 3.44834C6.37869 3.55136 6.30075 3.68598 6.26711 3.83433C6.23348 3.98269 6.24576 4.13776 6.30231 4.27898C6.35887 4.42019 6.45703 4.54087 6.58376 4.625C8.92376 6.18375 9.94251 8.78875 10.34 11.2775C8.90035 11.3854 7.50975 11.8478 6.29218 12.6235C5.07461 13.3993 4.0679 14.4643 3.3618 15.7235C2.6557 16.9827 2.27215 18.3971 2.24534 19.8406C2.21854 21.284 2.54931 22.7117 3.20817 23.9963C3.86702 25.2809 4.8335 26.3825 6.02143 27.2029C7.20936 28.0233 8.58183 28.537 10.0165 28.6983C11.4512 28.8595 12.9034 28.6633 14.2438 28.1271C15.5843 27.5908 16.7712 26.7313 17.6988 25.625C18.8645 26.2812 20.1652 26.6613 21.5008 26.7363C22.8364 26.8112 24.1714 26.5789 25.4032 26.0572C26.635 25.5355 27.7308 24.7383 28.6064 23.7269C29.4819 22.7155 30.1139 21.5168 30.4537 20.223C30.7936 18.9291 30.8323 17.5746 30.5668 16.2635C30.3013 14.9524 29.7387 13.7196 28.9223 12.6599C28.1059 11.6002 27.0574 10.7418 25.8574 10.1506C24.6573 9.55951 23.3377 9.25141 22 9.25ZM17.2375 7.28375C18.0657 7.9543 18.7777 8.75671 19.345 9.65875C17.7654 10.1638 16.3609 11.1055 15.2938 12.375C14.2396 11.7778 13.072 11.4078 11.8663 11.2888C11.4638 8.5225 10.4663 6.27125 8.93376 4.65125C11.0288 4.67875 14.5238 5.09 17.2375 7.28375ZM18.2625 15.125C17.7833 14.415 17.2035 13.7783 16.5413 13.235C17.4759 12.1674 18.7026 11.3965 20.07 11.0175C20.6455 12.3415 21.0156 13.7456 21.1675 15.1813C20.0913 14.9938 19.5525 14.4925 19.53 14.4713C19.4174 14.36 19.2726 14.2872 19.1161 14.2633C18.9597 14.2394 18.7997 14.2656 18.659 14.3381C18.5183 14.4107 18.4042 14.5259 18.333 14.6672C18.2618 14.8085 18.2371 14.9688 18.2625 15.125ZM11 27.25C9.12489 27.2422 7.32572 26.5082 5.98027 25.202C4.63483 23.8959 3.84778 22.1193 3.78436 20.2452C3.72095 18.3712 4.38612 16.5454 5.64019 15.1513C6.89427 13.7573 8.6397 12.9033 10.51 12.7688C10.611 14.2498 10.5629 15.7373 10.3663 17.2088C9.15876 17.0525 8.55376 16.4925 8.53001 16.47C8.38784 16.3375 8.19979 16.2654 8.00549 16.2688C7.81119 16.2723 7.6258 16.351 7.48839 16.4884C7.35098 16.6258 7.27227 16.8112 7.26884 17.0055C7.26541 17.1998 7.33753 17.3878 7.47001 17.53C7.52001 17.58 8.72001 18.75 11 18.75C13.28 18.75 14.48 17.58 14.53 17.53C14.604 17.4618 14.6636 17.3793 14.7051 17.2876C14.7466 17.1958 14.7691 17.0967 14.7715 16.996C14.7738 16.8953 14.7559 16.7952 14.7187 16.7017C14.6815 16.6081 14.6259 16.523 14.5551 16.4513C14.4844 16.3797 14.3999 16.3231 14.3068 16.2848C14.2136 16.2466 14.1137 16.2274 14.0131 16.2286C13.9124 16.2297 13.813 16.2512 13.7207 16.2916C13.6285 16.332 13.5454 16.3905 13.4763 16.4638C13.4488 16.4888 12.925 16.9738 11.8863 17.1688C12.0678 15.7279 12.1143 14.2732 12.025 12.8238C13.8391 13.0845 15.4872 14.0226 16.6375 15.4494C17.7879 16.8762 18.3552 18.6857 18.2253 20.5138C18.0954 22.342 17.278 24.0531 15.9374 25.3029C14.5969 26.5527 12.8328 27.2484 11 27.25ZM22 25.25C20.8015 25.2516 19.6214 24.9548 18.5663 24.3863C19.3404 23.0554 19.7481 21.5433 19.7481 20.0038C19.7481 18.4642 19.3404 16.9521 18.5663 15.6213C18.8975 15.9038 20.0513 16.7463 21.9963 16.7463C24.2813 16.7463 25.4763 15.5763 25.5263 15.5263C25.5964 15.4566 25.652 15.3737 25.69 15.2824C25.7279 15.1911 25.7475 15.0932 25.7475 14.9944C25.7475 14.8955 25.7279 14.7976 25.69 14.7064C25.652 14.6151 25.5964 14.5322 25.5263 14.4625C25.3857 14.3228 25.1957 14.2444 24.9975 14.2444C24.7994 14.2444 24.6093 14.3228 24.4688 14.4625C24.44 14.49 23.8438 15.0363 22.6738 15.2013C22.5254 13.6774 22.161 12.1824 21.5913 10.7613C21.7238 10.7538 21.8588 10.7488 21.9925 10.7488C23.9153 10.7488 25.7594 11.5126 27.119 12.8722C28.4787 14.2319 29.2425 16.0759 29.2425 17.9988C29.2425 19.9216 28.4787 21.7656 27.119 23.1253C25.7594 24.4849 23.9153 25.2488 21.9925 25.2488L22 25.25Z" fill="white"/>
</svg>
