<svg width="32" height="32" viewBox="0 0 32 32" fill="none" xmlns="http://www.w3.org/2000/svg">
<path d="M28 16.25H4C3.53587 16.25 3.09075 16.4344 2.76256 16.7626C2.43437 17.0908 2.25 17.5359 2.25 18V22C2.25 22.4641 2.43437 22.9093 2.76256 23.2374C3.09075 23.5656 3.53587 23.75 4 23.75H28C28.4641 23.75 28.9092 23.5656 29.2374 23.2374C29.5656 22.9093 29.75 22.4641 29.75 22V18C29.75 17.5359 29.5656 17.0908 29.2374 16.7626C28.9092 16.4344 28.4641 16.25 28 16.25ZM3.75 22V18C3.75 17.9337 3.77634 17.8701 3.82322 17.8232C3.87011 17.7763 3.9337 17.75 4 17.75H10.25V22.25H4C3.9337 22.25 3.87011 22.2237 3.82322 22.1768C3.77634 22.1299 3.75 22.0663 3.75 22ZM28.25 22C28.25 22.0663 28.2237 22.1299 28.1768 22.1768C28.1299 22.2237 28.0663 22.25 28 22.25H11.75V17.75H28C28.0663 17.75 28.1299 17.7763 28.1768 17.8232C28.2237 17.8701 28.25 17.9337 28.25 18V22ZM25.3463 7.63251C26.3225 5.89751 26.335 4.89376 26.1737 4.35751C26.1032 4.0769 25.9273 3.83427 25.6825 3.68001C25.5276 3.60793 25.4019 3.48512 25.3263 3.3319C25.2507 3.17868 25.2297 3.00424 25.2667 2.83744C25.3037 2.67065 25.3966 2.52149 25.53 2.41467C25.6633 2.30784 25.8291 2.24975 26 2.25001C26.1052 2.24957 26.2092 2.27174 26.305 2.31501C26.6099 2.47117 26.8803 2.68711 27.1 2.94997C27.3197 3.21283 27.4842 3.51722 27.5837 3.84501C27.9812 5.04251 27.6687 6.56376 26.6537 8.36751C25.6775 10.1025 25.665 11.1063 25.8263 11.6425C25.8951 11.9215 26.0688 12.1632 26.3113 12.3175C26.4671 12.3885 26.594 12.5108 26.6708 12.6639C26.7475 12.8171 26.7696 12.9919 26.7332 13.1592C26.6968 13.3266 26.6042 13.4765 26.4709 13.584C26.3375 13.6915 26.1713 13.7501 26 13.75C25.8948 13.7504 25.7908 13.7283 25.695 13.685C25.3901 13.5288 25.1197 13.3129 24.9 13.05C24.6803 12.7872 24.5158 12.4828 24.4163 12.155C24.0188 10.9575 24.3313 9.43626 25.3463 7.63251ZM20.3463 7.63251C21.3225 5.89751 21.335 4.89376 21.1737 4.35751C21.1032 4.0769 20.9273 3.83427 20.6825 3.68001C20.5276 3.60793 20.4019 3.48512 20.3263 3.3319C20.2507 3.17868 20.2297 3.00424 20.2667 2.83744C20.3037 2.67065 20.3966 2.52149 20.53 2.41467C20.6633 2.30784 20.8291 2.24975 21 2.25001C21.1052 2.24957 21.2092 2.27174 21.305 2.31501C21.6099 2.47117 21.8803 2.68711 22.1 2.94997C22.3197 3.21283 22.4842 3.51722 22.5837 3.84501C22.9812 5.04251 22.6687 6.56376 21.6537 8.36751C20.6775 10.1025 20.665 11.1063 20.8263 11.6425C20.8951 11.9215 21.0688 12.1632 21.3113 12.3175C21.4671 12.3885 21.594 12.5108 21.6708 12.6639C21.7475 12.8171 21.7696 12.9919 21.7332 13.1592C21.6968 13.3266 21.6042 13.4765 21.4709 13.584C21.3375 13.6915 21.1713 13.7501 21 13.75C20.8948 13.7504 20.7908 13.7283 20.695 13.685C20.3901 13.5288 20.1197 13.3129 19.9 13.05C19.6803 12.7872 19.5158 12.4828 19.4163 12.155C19.0188 10.9575 19.3313 9.43626 20.3463 7.63251Z" fill="white"/>
</svg>
