<svg width="32" height="32" viewBox="0 0 32 32" fill="none" xmlns="http://www.w3.org/2000/svg">
<path d="M30 26.25H28.75V11C28.75 10.8011 28.671 10.6103 28.5303 10.4697C28.3897 10.329 28.1989 10.25 28 10.25H20C19.8011 10.25 19.6103 10.329 19.4697 10.4697C19.329 10.6103 19.25 10.8011 19.25 11V16.25H12.75V5C12.75 4.80109 12.671 4.61032 12.5303 4.46967C12.3897 4.32902 12.1989 4.25 12 4.25H4C3.80109 4.25 3.61032 4.32902 3.46967 4.46967C3.32902 4.61032 3.25 4.80109 3.25 5V26.25H2C1.80109 26.25 1.61032 26.329 1.46967 26.4697C1.32902 26.6103 1.25 26.8011 1.25 27C1.25 27.1989 1.32902 27.3897 1.46967 27.5303C1.61032 27.671 1.80109 27.75 2 27.75H30C30.1989 27.75 30.3897 27.671 30.5303 27.5303C30.671 27.3897 30.75 27.1989 30.75 27C30.75 26.8011 30.671 26.6103 30.5303 26.4697C30.3897 26.329 30.1989 26.25 30 26.25ZM20.75 11.75H27.25V26.25H20.75V11.75ZM19.25 17.75V26.25H12.75V17.75H19.25ZM4.75 5.75H11.25V26.25H4.75V5.75ZM8.75 9V11C8.75 11.1989 8.67098 11.3897 8.53033 11.5303C8.38968 11.671 8.19891 11.75 8 11.75C7.80109 11.75 7.61032 11.671 7.46967 11.5303C7.32902 11.3897 7.25 11.1989 7.25 11V9C7.25 8.80109 7.32902 8.61032 7.46967 8.46967C7.61032 8.32902 7.80109 8.25 8 8.25C8.19891 8.25 8.38968 8.32902 8.53033 8.46967C8.67098 8.61032 8.75 8.80109 8.75 9ZM8.75 15V17C8.75 17.1989 8.67098 17.3897 8.53033 17.5303C8.38968 17.671 8.19891 17.75 8 17.75C7.80109 17.75 7.61032 17.671 7.46967 17.5303C7.32902 17.3897 7.25 17.1989 7.25 17V15C7.25 14.8011 7.32902 14.6103 7.46967 14.4697C7.61032 14.329 7.80109 14.25 8 14.25C8.19891 14.25 8.38968 14.329 8.53033 14.4697C8.67098 14.6103 8.75 14.8011 8.75 15ZM8.75 21V23C8.75 23.1989 8.67098 23.3897 8.53033 23.5303C8.38968 23.671 8.19891 23.75 8 23.75C7.80109 23.75 7.61032 23.671 7.46967 23.5303C7.32902 23.3897 7.25 23.1989 7.25 23V21C7.25 20.8011 7.32902 20.6103 7.46967 20.4697C7.61032 20.329 7.80109 20.25 8 20.25C8.19891 20.25 8.38968 20.329 8.53033 20.4697C8.67098 20.6103 8.75 20.8011 8.75 21ZM15.25 23V21C15.25 20.8011 15.329 20.6103 15.4697 20.4697C15.6103 20.329 15.8011 20.25 16 20.25C16.1989 20.25 16.3897 20.329 16.5303 20.4697C16.671 20.6103 16.75 20.8011 16.75 21V23C16.75 23.1989 16.671 23.3897 16.5303 23.5303C16.3897 23.671 16.1989 23.75 16 23.75C15.8011 23.75 15.6103 23.671 15.4697 23.5303C15.329 23.3897 15.25 23.1989 15.25 23ZM23.25 23V21C23.25 20.8011 23.329 20.6103 23.4697 20.4697C23.6103 20.329 23.8011 20.25 24 20.25C24.1989 20.25 24.3897 20.329 24.5303 20.4697C24.671 20.6103 24.75 20.8011 24.75 21V23C24.75 23.1989 24.671 23.3897 24.5303 23.5303C24.3897 23.671 24.1989 23.75 24 23.75C23.8011 23.75 23.6103 23.671 23.4697 23.5303C23.329 23.3897 23.25 23.1989 23.25 23ZM23.25 17V15C23.25 14.8011 23.329 14.6103 23.4697 14.4697C23.6103 14.329 23.8011 14.25 24 14.25C24.1989 14.25 24.3897 14.329 24.5303 14.4697C24.671 14.6103 24.75 14.8011 24.75 15V17C24.75 17.1989 24.671 17.3897 24.5303 17.5303C24.3897 17.671 24.1989 17.75 24 17.75C23.8011 17.75 23.6103 17.671 23.4697 17.5303C23.329 17.3897 23.25 17.1989 23.25 17Z" fill="white"/>
</svg>
