<svg width="32" height="32" viewBox="0 0 32 32" fill="none" xmlns="http://www.w3.org/2000/svg">
<path d="M20.75 19C20.75 19.1989 20.671 19.3897 20.5303 19.5303C20.3897 19.671 20.1989 19.75 20 19.75H12C11.8011 19.75 11.6103 19.671 11.4697 19.5303C11.329 19.3897 11.25 19.1989 11.25 19C11.25 18.8011 11.329 18.6103 11.4697 18.4697C11.6103 18.329 11.8011 18.25 12 18.25H20C20.1989 18.25 20.3897 18.329 20.5303 18.4697C20.671 18.6103 20.75 18.8011 20.75 19ZM20 14.25H12C11.8011 14.25 11.6103 14.329 11.4697 14.4697C11.329 14.6103 11.25 14.8011 11.25 15C11.25 15.1989 11.329 15.3897 11.4697 15.5303C11.6103 15.671 11.8011 15.75 12 15.75H20C20.1989 15.75 20.3897 15.671 20.5303 15.5303C20.671 15.3897 20.75 15.1989 20.75 15C20.75 14.8011 20.671 14.6103 20.5303 14.4697C20.3897 14.329 20.1989 14.25 20 14.25ZM26.75 5.99999V27C26.75 27.4641 26.5656 27.9092 26.2374 28.2374C25.9092 28.5656 25.4641 28.75 25 28.75H7C6.53587 28.75 6.09075 28.5656 5.76256 28.2374C5.43437 27.9092 5.25 27.4641 5.25 27V5.99999C5.25 5.53586 5.43437 5.09074 5.76256 4.76255C6.09075 4.43436 6.53587 4.24999 7 4.24999H11.6462C12.185 3.62262 12.853 3.11909 13.6044 2.77389C14.3559 2.42869 15.1731 2.24997 16 2.24997C16.8269 2.24997 17.6441 2.42869 18.3956 2.77389C19.147 3.11909 19.815 3.62262 20.3538 4.24999H25C25.4641 4.24999 25.9092 4.43436 26.2374 4.76255C26.5656 5.09074 26.75 5.53586 26.75 5.99999ZM11.75 7.99999V8.24999H20.25V7.99999C20.25 6.87282 19.8022 5.79181 19.0052 4.99478C18.2082 4.19775 17.1272 3.74999 16 3.74999C14.8728 3.74999 13.7918 4.19775 12.9948 4.99478C12.1978 5.79181 11.75 6.87282 11.75 7.99999ZM25.25 5.99999C25.25 5.93368 25.2237 5.8701 25.1768 5.82321C25.1299 5.77633 25.0663 5.74999 25 5.74999H21.2913C21.5947 6.46128 21.7507 7.22669 21.75 7.99999V8.99999C21.75 9.1989 21.671 9.38967 21.5303 9.53032C21.3897 9.67097 21.1989 9.74999 21 9.74999H11C10.8011 9.74999 10.6103 9.67097 10.4697 9.53032C10.329 9.38967 10.25 9.1989 10.25 8.99999V7.99999C10.2493 7.22669 10.4053 6.46128 10.7087 5.74999H7C6.9337 5.74999 6.87011 5.77633 6.82322 5.82321C6.77634 5.8701 6.75 5.93368 6.75 5.99999V27C6.75 27.0663 6.77634 27.1299 6.82322 27.1768C6.87011 27.2236 6.9337 27.25 7 27.25H25C25.0663 27.25 25.1299 27.2236 25.1768 27.1768C25.2237 27.1299 25.25 27.0663 25.25 27V5.99999Z" fill="white"/>
</svg>
