<svg width="32" height="32" viewBox="0 0 32 32" fill="none" xmlns="http://www.w3.org/2000/svg">
<path d="M25 4.24999H20.3538C19.815 3.62262 19.147 3.11909 18.3956 2.77389C17.6441 2.42869 16.8269 2.24997 16 2.24997C15.1731 2.24997 14.3559 2.42869 13.6044 2.77389C12.853 3.11909 12.185 3.62262 11.6462 4.24999H7C6.53587 4.24999 6.09075 4.43436 5.76256 4.76255C5.43437 5.09074 5.25 5.53586 5.25 5.99999V27C5.25 27.4641 5.43437 27.9092 5.76256 28.2374C6.09075 28.5656 6.53587 28.75 7 28.75H25C25.4641 28.75 25.9092 28.5656 26.2374 28.2374C26.5656 27.9092 26.75 27.4641 26.75 27V5.99999C26.75 5.53586 26.5656 5.09074 26.2374 4.76255C25.9092 4.43436 25.4641 4.24999 25 4.24999ZM16 3.74999C17.1272 3.74999 18.2082 4.19775 19.0052 4.99478C19.8022 5.79181 20.25 6.87282 20.25 7.99999V8.24999H11.75V7.99999C11.75 6.87282 12.1978 5.79181 12.9948 4.99478C13.7918 4.19775 14.8728 3.74999 16 3.74999ZM25.25 27C25.25 27.0663 25.2237 27.1299 25.1768 27.1768C25.1299 27.2236 25.0663 27.25 25 27.25H7C6.9337 27.25 6.87011 27.2236 6.82322 27.1768C6.77634 27.1299 6.75 27.0663 6.75 27V5.99999C6.75 5.93368 6.77634 5.8701 6.82322 5.82321C6.87011 5.77633 6.9337 5.74999 7 5.74999H10.7087C10.4053 6.46128 10.2493 7.22669 10.25 7.99999V8.99999C10.25 9.1989 10.329 9.38967 10.4697 9.53032C10.6103 9.67097 10.8011 9.74999 11 9.74999H21C21.1989 9.74999 21.3897 9.67097 21.5303 9.53032C21.671 9.38967 21.75 9.1989 21.75 8.99999V7.99999C21.7507 7.22669 21.5947 6.46128 21.2913 5.74999H25C25.0663 5.74999 25.1299 5.77633 25.1768 5.82321C25.2237 5.8701 25.25 5.93368 25.25 5.99999V27Z" fill="white"/>
</svg>
