<svg width="32" height="32" viewBox="0 0 32 32" fill="none" xmlns="http://www.w3.org/2000/svg">
<path d="M16.75 9.00001V14.7863L21.665 12.3288C21.843 12.2399 22.0491 12.2254 22.2378 12.2885C22.4265 12.3515 22.5824 12.487 22.6713 12.665C22.7601 12.843 22.7746 13.0491 22.7115 13.2378C22.6485 13.4265 22.513 13.5824 22.335 13.6713L16.335 16.6713C16.2206 16.7283 16.0936 16.7553 15.9659 16.7495C15.8382 16.7436 15.7141 16.7053 15.6054 16.638C15.4967 16.5708 15.407 16.4769 15.3448 16.3652C15.2826 16.2535 15.25 16.1278 15.25 16V9.00001C15.25 8.80109 15.329 8.61033 15.4697 8.46968C15.6103 8.32902 15.8011 8.25001 16 8.25001C16.1989 8.25001 16.3897 8.32902 16.5303 8.46968C16.671 8.61033 16.75 8.80109 16.75 9.00001ZM16 27.25C13.775 27.25 11.5999 26.5902 9.74984 25.354C7.89979 24.1179 6.45785 22.3609 5.60636 20.3052C4.75488 18.2495 4.53209 15.9875 4.96617 13.8052C5.40025 11.623 6.47171 9.6184 8.04505 8.04505C9.6184 6.47171 11.623 5.40025 13.8052 4.96617C15.9875 4.53209 18.2495 4.75488 20.3052 5.60636C22.3609 6.45785 24.1179 7.89979 25.354 9.74984C26.5902 11.5999 27.25 13.775 27.25 16C27.25 16.1989 27.329 16.3897 27.4697 16.5303C27.6103 16.671 27.8011 16.75 28 16.75C28.1989 16.75 28.3897 16.671 28.5303 16.5303C28.671 16.3897 28.75 16.1989 28.75 16C28.75 13.4783 28.0022 11.0132 26.6012 8.91648C25.2003 6.81976 23.209 5.18556 20.8792 4.22054C18.5495 3.25552 15.9859 3.00303 13.5126 3.49499C11.0393 3.98696 8.76751 5.20127 6.98439 6.98439C5.20127 8.76751 3.98696 11.0393 3.49499 13.5126C3.00303 15.9859 3.25552 18.5495 4.22054 20.8792C5.18556 23.209 6.81976 25.2003 8.91648 26.6012C11.0132 28.0022 13.4783 28.75 16 28.75C16.1989 28.75 16.3897 28.671 16.5303 28.5303C16.671 28.3897 16.75 28.1989 16.75 28C16.75 27.8011 16.671 27.6103 16.5303 27.4697C16.3897 27.329 16.1989 27.25 16 27.25ZM28.725 27.8075C28.7761 27.9998 28.7486 28.2045 28.6488 28.3765C28.5489 28.5486 28.3848 28.674 28.1925 28.725C28.0002 28.7761 27.7955 28.7486 27.6235 28.6488C27.4514 28.5489 27.3261 28.3848 27.275 28.1925C26.8925 26.75 25.5463 25.75 24 25.75C22.4538 25.75 21.1075 26.75 20.725 28.1925C20.6826 28.3524 20.5884 28.4937 20.4573 28.5945C20.3262 28.6954 20.1654 28.75 20 28.75C19.9351 28.7497 19.8704 28.7413 19.8075 28.725C19.7123 28.6997 19.623 28.656 19.5447 28.5962C19.4664 28.5364 19.4006 28.4618 19.3512 28.3766C19.3017 28.2914 19.2696 28.1973 19.2565 28.0996C19.2434 28.002 19.2497 27.9027 19.275 27.8075C19.4432 27.1879 19.735 26.6087 20.1329 26.1047C20.5307 25.6007 21.0263 25.1825 21.59 24.875C21.0004 24.3804 20.5772 23.7163 20.3779 22.973C20.1786 22.2296 20.2129 21.4429 20.4761 20.7197C20.7392 19.9964 21.2185 19.3717 21.849 18.9302C22.4794 18.4888 23.2304 18.252 24 18.252C24.7696 18.252 25.5206 18.4888 26.151 18.9302C26.7815 19.3717 27.2608 19.9964 27.524 20.7197C27.7871 21.4429 27.8214 22.2296 27.6221 22.973C27.4228 23.7163 26.9996 24.3804 26.41 24.875C26.9737 25.1825 27.4693 25.6007 27.8672 26.1047C28.265 26.6087 28.5568 27.1879 28.725 27.8075ZM21.75 22C21.75 22.445 21.882 22.88 22.1292 23.25C22.3764 23.62 22.7278 23.9084 23.139 24.0787C23.5501 24.249 24.0025 24.2936 24.439 24.2068C24.8754 24.12 25.2763 23.9057 25.591 23.591C25.9057 23.2763 26.12 22.8754 26.2068 22.439C26.2936 22.0025 26.249 21.5501 26.0787 21.139C25.9084 20.7278 25.62 20.3764 25.25 20.1292C24.88 19.882 24.445 19.75 24 19.75C23.4033 19.75 22.831 19.9871 22.409 20.409C21.9871 20.831 21.75 21.4033 21.75 22Z" fill="white"/>
</svg>
