<svg width="32" height="32" viewBox="0 0 32 32" fill="none" xmlns="http://www.w3.org/2000/svg">
<path d="M16.7498 10V15.575L21.386 18.3563C21.5568 18.4587 21.6798 18.6248 21.7281 18.818C21.7764 19.0111 21.746 19.2156 21.6435 19.3863C21.5411 19.557 21.375 19.6801 21.1819 19.7284C20.9887 19.7766 20.7843 19.7462 20.6135 19.6438L15.6135 16.6438C15.5025 16.577 15.4106 16.4827 15.3468 16.3699C15.2831 16.257 15.2496 16.1296 15.2498 16V10C15.2498 9.80112 15.3288 9.61036 15.4695 9.46971C15.6101 9.32905 15.8009 9.25004 15.9998 9.25004C16.1987 9.25004 16.3895 9.32905 16.5301 9.46971C16.6708 9.61036 16.7498 9.80112 16.7498 10ZM27.9998 7.25004C27.8009 7.25004 27.6101 7.32905 27.4695 7.46971C27.3288 7.61036 27.2498 7.80112 27.2498 8.00004V10.92C26.3148 9.81629 25.3823 8.77879 24.3085 7.69129C22.6755 6.05824 20.5974 4.94265 18.334 4.4839C16.0705 4.02516 13.7221 4.2436 11.5821 5.11194C9.4421 5.98028 7.60544 7.46 6.30162 9.36622C4.99779 11.2724 4.28463 13.5206 4.25123 15.8298C4.21783 18.1391 4.86568 20.4069 6.11383 22.3501C7.36199 24.2932 9.15509 25.8254 11.2691 26.7553C13.3831 27.6851 15.7242 27.9714 18 27.5783C20.2758 27.1852 22.3852 26.1302 24.0648 24.545C24.2045 24.4073 24.2847 24.2204 24.2882 24.0242C24.2917 23.8281 24.2182 23.6384 24.0834 23.4958C23.9487 23.3532 23.7634 23.2691 23.5674 23.2615C23.3714 23.2538 23.1802 23.3233 23.0348 23.455C21.5693 24.8372 19.7289 25.7568 17.7438 26.0991C15.7586 26.4414 13.7166 26.1911 11.8728 25.3795C10.0291 24.568 8.46532 23.2311 7.37695 21.536C6.28858 19.8408 5.72385 17.8625 5.7533 15.8483C5.78275 13.834 6.40508 11.8731 7.54254 10.2105C8.68 8.54791 10.2822 7.25734 12.1489 6.50003C14.0155 5.74271 16.064 5.55225 18.0383 5.95241C20.0127 6.35258 21.8253 7.32564 23.2498 8.75004C24.4048 9.92004 25.3973 11.0375 26.4135 12.25H22.9998C22.8009 12.25 22.6101 12.3291 22.4695 12.4697C22.3288 12.6104 22.2498 12.8011 22.2498 13C22.2498 13.1989 22.3288 13.3897 22.4695 13.5304C22.6101 13.671 22.8009 13.75 22.9998 13.75H27.9998C28.1987 13.75 28.3895 13.671 28.5301 13.5304C28.6708 13.3897 28.7498 13.1989 28.7498 13V8.00004C28.7498 7.80112 28.6708 7.61036 28.5301 7.46971C28.3895 7.32905 28.1987 7.25004 27.9998 7.25004Z" fill="white"/>
</svg>
