<svg width="32" height="32" viewBox="0 0 32 32" fill="none" xmlns="http://www.w3.org/2000/svg">
<path d="M28.7502 17.0613C28.542 19.4839 27.6462 21.7966 26.1681 23.7274C24.6901 25.6582 22.6914 27.1266 20.4071 27.96C18.1229 28.7934 15.6481 28.957 13.274 28.4316C10.8999 27.9062 8.72523 26.7137 7.00587 24.9944C5.28652 23.275 4.094 21.1003 3.56862 18.7262C3.04325 16.3521 3.20687 13.8774 4.04025 11.5931C4.87363 9.30885 6.34208 7.31012 8.27285 5.83211C10.2036 4.35409 12.5163 3.45827 14.939 3.25004C15.1379 3.23346 15.3352 3.29658 15.4876 3.42551C15.64 3.55445 15.7349 3.73863 15.7515 3.93754C15.768 4.13645 15.7049 4.3338 15.576 4.48617C15.447 4.63855 15.2629 4.73346 15.064 4.75004C12.9255 4.93316 10.8839 5.7233 9.17933 7.02746C7.47477 8.33162 6.17818 10.0955 5.44217 12.1116C4.70615 14.1277 4.56132 16.3121 5.02473 18.4078C5.48814 20.5034 6.5405 22.423 8.05797 23.9408C9.57545 25.4586 11.4949 26.5114 13.5904 26.9752C15.6859 27.439 17.8704 27.2947 19.8866 26.5591C21.9029 25.8235 23.6671 24.5272 24.9716 22.8229C26.2761 21.1186 27.0666 19.0772 27.2502 16.9388C27.2584 16.8403 27.2859 16.7444 27.3312 16.6565C27.3765 16.5687 27.4386 16.4906 27.5141 16.4268C27.6664 16.2978 27.8638 16.2347 28.0627 16.2513C28.1612 16.2595 28.2571 16.287 28.345 16.3323C28.4328 16.3776 28.5109 16.4397 28.5747 16.5152C28.6386 16.5906 28.6869 16.6779 28.717 16.772C28.7471 16.8662 28.7584 16.9653 28.7502 17.0638V17.0613ZM15.2502 9.00004V16C15.2502 16.199 15.3292 16.3897 15.4699 16.5304C15.6105 16.671 15.8013 16.75 16.0002 16.75H23.0002C23.1991 16.75 23.3899 16.671 23.5305 16.5304C23.6712 16.3897 23.7502 16.199 23.7502 16C23.7502 15.8011 23.6712 15.6104 23.5305 15.4697C23.3899 15.3291 23.1991 15.25 23.0002 15.25H16.7502V9.00004C16.7502 8.80113 16.6712 8.61036 16.5305 8.46971C16.3899 8.32906 16.1991 8.25004 16.0002 8.25004C15.8013 8.25004 15.6105 8.32906 15.4699 8.46971C15.3292 8.61036 15.2502 8.80113 15.2502 9.00004ZM20.0002 5.75004C20.2474 5.75004 20.4891 5.67673 20.6947 5.53938C20.9002 5.40202 21.0604 5.2068 21.1551 4.97839C21.2497 4.74998 21.2744 4.49865 21.2262 4.25617C21.1779 4.0137 21.0589 3.79097 20.8841 3.61615C20.7093 3.44134 20.4865 3.32229 20.2441 3.27406C20.0016 3.22582 19.7503 3.25058 19.5218 3.34519C19.2934 3.4398 19.0982 3.60001 18.9609 3.80558C18.8235 4.01114 18.7502 4.25281 18.7502 4.50004C18.7502 4.66419 18.7825 4.82674 18.8454 4.97839C18.9082 5.13005 19.0002 5.26785 19.1163 5.38392C19.3507 5.61834 19.6687 5.75004 20.0002 5.75004ZM24.5002 8.75004C24.7474 8.75004 24.9891 8.67673 25.1947 8.53938C25.4002 8.40202 25.5604 8.2068 25.6551 7.97839C25.7497 7.74998 25.7744 7.49865 25.7262 7.25618C25.6779 7.0137 25.5589 6.79097 25.3841 6.61615C25.2093 6.44134 24.9865 6.32229 24.7441 6.27406C24.5016 6.22582 24.2503 6.25058 24.0218 6.34519C23.7934 6.4398 23.5982 6.60001 23.4609 6.80558C23.3235 7.01114 23.2502 7.25281 23.2502 7.50004C23.2502 7.83156 23.3819 8.1495 23.6163 8.38392C23.8507 8.61834 24.1687 8.75004 24.5002 8.75004ZM27.5002 13.25C27.7474 13.25 27.9891 13.1767 28.1947 13.0394C28.4002 12.902 28.5604 12.7068 28.6551 12.4784C28.7497 12.25 28.7744 11.9987 28.7262 11.7562C28.6779 11.5137 28.5589 11.291 28.3841 11.1162C28.2093 10.9413 27.9865 10.8223 27.7441 10.7741C27.5016 10.7258 27.2503 10.7506 27.0218 10.8452C26.7934 10.9398 26.5982 11.1 26.4609 11.3056C26.3235 11.5111 26.2502 11.7528 26.2502 12C26.2502 12.3316 26.3819 12.6495 26.6163 12.8839C26.8507 13.1183 27.1687 13.25 27.5002 13.25Z" fill="white"/>
</svg>
