<svg width="32" height="32" viewBox="0 0 32 32" fill="none" xmlns="http://www.w3.org/2000/svg">
<path d="M6.55477 4.49998C6.41747 4.37254 6.23745 4.3011 6.05012 4.2997C5.86279 4.29831 5.68173 4.36707 5.54255 4.49246C5.40337 4.61785 5.31615 4.79078 5.29806 4.97724C5.27996 5.1637 5.3323 5.35017 5.44477 5.49998L10.4673 11.025C10.411 11.1337 10.3548 11.2437 10.3023 11.355C9.2466 11.1795 8.16602 11.2245 7.12861 11.4872C6.0912 11.75 5.11944 12.2247 4.27456 12.8815C3.42968 13.5383 2.72999 14.363 2.21957 15.3036C1.70915 16.2442 1.39906 17.2803 1.30884 18.3467C1.21862 19.413 1.35023 20.4865 1.69536 21.4995C2.0405 22.5125 2.59169 23.443 3.31421 24.2324C4.03673 25.0219 4.91491 25.6531 5.89344 26.0864C6.87196 26.5197 7.92962 26.7456 8.99977 26.75H19.9998C21.3861 26.7531 22.7597 26.4856 24.0435 25.9625L25.4448 27.5C25.5787 27.6472 25.7656 27.7351 25.9644 27.7445C26.1632 27.7539 26.3576 27.6839 26.5048 27.55C26.652 27.416 26.7399 27.2291 26.7493 27.0303C26.7587 26.8316 26.6887 26.6372 26.5548 26.49L6.55477 4.49998ZM19.9998 25.25H8.99977C8.14697 25.2515 7.30287 25.0785 6.51944 24.7415C5.73601 24.4046 5.02983 23.9109 4.44435 23.2908C3.85886 22.6708 3.40648 21.9374 3.11502 21.136C2.82357 20.3345 2.69922 19.4819 2.74963 18.6306C2.80004 17.7792 3.02414 16.9472 3.40814 16.1858C3.79214 15.4243 4.32791 14.7495 4.98247 14.2028C5.63704 13.6562 6.39656 13.2493 7.21427 13.0072C8.03199 12.7651 8.8906 12.6928 9.73727 12.795C9.41416 13.8326 9.2498 14.9132 9.24977 16C9.24977 16.1989 9.32879 16.3897 9.46944 16.5303C9.6101 16.671 9.80086 16.75 9.99977 16.75C10.1987 16.75 10.3895 16.671 10.5301 16.5303C10.6708 16.3897 10.7498 16.1989 10.7498 16C10.7494 14.699 11.0237 13.4126 11.5548 12.225L22.9573 24.7675C22.0044 25.0888 21.0053 25.2517 19.9998 25.25ZM30.7498 16C30.7513 18.641 29.7788 21.1899 28.0185 23.1587C27.9482 23.2374 27.8621 23.3003 27.7658 23.3433C27.6695 23.3864 27.5653 23.4087 27.4598 23.4087C27.315 23.4087 27.1734 23.3667 27.0519 23.288C26.9305 23.2092 26.8344 23.097 26.7753 22.9648C26.7163 22.8326 26.6967 22.6862 26.719 22.5432C26.7413 22.4002 26.8045 22.2666 26.901 22.1587C28.4225 20.4529 29.2585 18.244 29.2478 15.9583C29.237 13.6725 28.3803 11.4716 26.8429 9.78011C25.3054 8.08861 23.1961 7.02627 20.9217 6.79796C18.6474 6.56966 16.369 7.19156 14.526 8.54373C14.4467 8.60209 14.3566 8.64424 14.2609 8.66778C14.1653 8.69132 14.0659 8.69579 13.9685 8.68093C13.8711 8.66608 13.7776 8.63218 13.6933 8.58119C13.609 8.5302 13.5356 8.4631 13.4773 8.38373C13.4189 8.30436 13.3768 8.21428 13.3532 8.11862C13.3297 8.02296 13.3252 7.92361 13.3401 7.82622C13.3701 7.62954 13.477 7.45284 13.6373 7.33498C15.239 6.15886 17.1354 5.44973 19.1158 5.28632C21.0962 5.12292 23.0832 5.51164 24.856 6.40933C26.6289 7.30701 28.1182 8.67852 29.1586 10.3715C30.199 12.0646 30.7498 14.0128 30.7498 16Z" fill="white"/>
</svg>
