<svg width="32" height="32" viewBox="0 0 32 32" fill="none" xmlns="http://www.w3.org/2000/svg">
<path d="M30.7498 16C30.7564 18.327 30.0014 20.5923 28.5998 22.45C28.5407 22.5288 28.4667 22.5951 28.3819 22.6453C28.2972 22.6955 28.2034 22.7285 28.1059 22.7424C28.0084 22.7564 27.9091 22.751 27.8137 22.7265C27.7183 22.7021 27.6286 22.6591 27.5498 22.6C27.471 22.5409 27.4046 22.4668 27.3544 22.3821C27.3043 22.2973 27.2713 22.2035 27.2573 22.106C27.2434 22.0085 27.2488 21.9092 27.2733 21.8138C27.2977 21.7184 27.3407 21.6288 27.3998 21.55C28.2792 20.3774 28.8674 19.0127 29.1159 17.5682C29.3644 16.1238 29.2661 14.6409 28.8291 13.2419C28.392 11.8429 27.6288 10.5678 26.6023 9.5216C25.5758 8.47542 24.3154 7.68814 22.9249 7.22465C21.5344 6.76117 20.0537 6.63473 18.6048 6.85577C17.1559 7.0768 15.7803 7.63899 14.5912 8.49598C13.4022 9.35298 12.4339 10.4803 11.766 11.7849C11.0981 13.0896 10.7498 14.5343 10.7498 16C10.7498 16.1989 10.6708 16.3897 10.5301 16.5303C10.3895 16.671 10.1987 16.75 9.9998 16.75C9.80089 16.75 9.61013 16.671 9.46947 16.5303C9.32882 16.3897 9.2498 16.1989 9.2498 16C9.24887 14.913 9.41368 13.8323 9.73855 12.795C9.49339 12.7656 9.24672 12.7506 8.9998 12.75C7.3422 12.75 5.75249 13.4085 4.58039 14.5806C3.40828 15.7527 2.7498 17.3424 2.7498 19C2.7498 20.6576 3.40828 22.2473 4.58039 23.4194C5.75249 24.5915 7.3422 25.25 8.9998 25.25H11.9998C12.1987 25.25 12.3895 25.329 12.5301 25.4696C12.6708 25.6103 12.7498 25.8011 12.7498 26C12.7498 26.1989 12.6708 26.3897 12.5301 26.5303C12.3895 26.671 12.1987 26.75 11.9998 26.75H8.9998C7.92714 26.7496 6.86624 26.5266 5.88423 26.095C4.90222 25.6634 4.0205 25.0327 3.29487 24.2427C2.56923 23.4527 2.01549 22.5207 1.66868 21.5057C1.32187 20.4906 1.18956 19.4146 1.2801 18.3458C1.37065 17.277 1.68208 16.2386 2.1947 15.2963C2.70732 14.3541 3.40995 13.5285 4.25814 12.8718C5.10632 12.2152 6.08158 11.7418 7.1222 11.4815C8.16281 11.2213 9.24612 11.1799 10.3036 11.36C11.356 9.16156 13.1242 7.38603 15.3183 6.32459C17.5123 5.26315 20.002 4.97882 22.3789 5.51822C24.7558 6.05762 26.8788 7.38874 28.3998 9.29326C29.9208 11.1978 30.7494 13.5626 30.7498 16ZM22.4698 21.47L19.7498 24.1887V16C19.7498 15.8011 19.6708 15.6103 19.5301 15.4696C19.3895 15.329 19.1987 15.25 18.9998 15.25C18.8009 15.25 18.6101 15.329 18.4695 15.4696C18.3288 15.6103 18.2498 15.8011 18.2498 16V24.1887L15.5298 21.47C15.3876 21.3375 15.1996 21.2654 15.0053 21.2688C14.811 21.2722 14.6256 21.3509 14.4882 21.4884C14.3508 21.6258 14.2721 21.8112 14.2686 22.0055C14.2652 22.1998 14.3373 22.3878 14.4698 22.53L18.4698 26.53C18.6104 26.6704 18.8011 26.7493 18.9998 26.7493C19.1986 26.7493 19.3892 26.6704 19.5298 26.53L23.5298 22.53C23.6623 22.3878 23.7344 22.1998 23.731 22.0055C23.7276 21.8112 23.6488 21.6258 23.5114 21.4884C23.374 21.3509 23.1886 21.2722 22.9943 21.2688C22.8 21.2654 22.612 21.3375 22.4698 21.47Z" fill="white"/>
</svg>
