<svg width="32" height="32" viewBox="0 0 32 32" fill="none" xmlns="http://www.w3.org/2000/svg">
<path d="M23.5298 20.53C23.3892 20.6705 23.1986 20.7493 22.9998 20.7493C22.8011 20.7493 22.6104 20.6705 22.4698 20.53L19.7498 17.8113V26C19.7498 26.1989 19.6708 26.3897 19.5301 26.5303C19.3895 26.671 19.1987 26.75 18.9998 26.75C18.8009 26.75 18.6101 26.671 18.4695 26.5303C18.3288 26.3897 18.2498 26.1989 18.2498 26V17.8113L15.5298 20.53C15.3876 20.6625 15.1996 20.7346 15.0053 20.7312C14.811 20.7277 14.6256 20.649 14.4882 20.5116C14.3508 20.3742 14.2721 20.1888 14.2686 19.9945C14.2652 19.8002 14.3373 19.6122 14.4698 19.47L18.4698 15.47C18.6104 15.3296 18.8011 15.2507 18.9998 15.2507C19.1986 15.2507 19.3892 15.3296 19.5298 15.47L23.5298 19.47C23.6703 19.6106 23.7491 19.8013 23.7491 20C23.7491 20.1988 23.6703 20.3894 23.5298 20.53ZM19.9998 5.25C17.9722 5.25164 15.9862 5.82603 14.2708 6.90702C12.5553 7.988 11.1801 9.5316 10.3036 11.36C9.24612 11.1799 8.16281 11.2213 7.1222 11.4815C6.08158 11.7418 5.10632 12.2152 4.25814 12.8719C3.40995 13.5285 2.70732 14.3541 2.1947 15.2963C1.68208 16.2386 1.37065 17.277 1.2801 18.3458C1.18956 19.4146 1.32187 20.4906 1.66868 21.5057C2.01549 22.5207 2.56923 23.4527 3.29487 24.2427C4.0205 25.0327 4.90222 25.6634 5.88423 26.095C6.86624 26.5266 7.92714 26.7496 8.9998 26.75H13.9998C14.1987 26.75 14.3895 26.671 14.5301 26.5303C14.6708 26.3897 14.7498 26.1989 14.7498 26C14.7498 25.8011 14.6708 25.6103 14.5301 25.4697C14.3895 25.329 14.1987 25.25 13.9998 25.25H8.9998C7.3422 25.25 5.75249 24.5915 4.58039 23.4194C3.40828 22.2473 2.7498 20.6576 2.7498 19C2.7498 17.3424 3.40828 15.7527 4.58039 14.5806C5.75249 13.4085 7.3422 12.75 8.9998 12.75C9.24672 12.7506 9.49339 12.7656 9.73855 12.795C9.41368 13.8323 9.24887 14.913 9.2498 16C9.2498 16.1989 9.32882 16.3897 9.46947 16.5303C9.61013 16.671 9.80089 16.75 9.9998 16.75C10.1987 16.75 10.3895 16.671 10.5301 16.5303C10.6708 16.3897 10.7498 16.1989 10.7498 16C10.7504 14.3325 11.2018 12.6961 12.0562 11.2641C12.9106 9.83207 14.1362 8.65764 15.6034 7.86508C17.0705 7.07251 18.7246 6.69129 20.3906 6.76175C22.0567 6.83221 23.6727 7.35173 25.0677 8.26534C26.4627 9.17895 27.5848 10.4527 28.3152 11.9517C29.0456 13.4508 29.3572 15.1194 29.2171 16.781C29.0769 18.4426 28.4902 20.0355 27.5189 21.391C26.5477 22.7465 25.2281 23.8142 23.6998 24.4813C23.5175 24.5608 23.3742 24.7096 23.3015 24.8948C23.2289 25.0799 23.2327 25.2864 23.3123 25.4688C23.3919 25.6511 23.5406 25.7944 23.7258 25.867C23.911 25.9397 24.1175 25.9358 24.2998 25.8563C26.5656 24.8697 28.4223 23.1327 29.5573 20.9375C30.6924 18.7424 31.0365 16.2232 30.5316 13.8041C30.0268 11.3849 28.704 9.21359 26.7857 7.65558C24.8675 6.09758 22.471 5.24804 19.9998 5.25Z" fill="white"/>
</svg>
