<svg width="32" height="32" viewBox="0 0 32 32" fill="none" xmlns="http://www.w3.org/2000/svg">
<path d="M19.9998 5.25C17.9722 5.25178 15.9863 5.82624 14.2709 6.90721C12.5554 7.98817 11.1802 9.53169 10.3036 11.36C9.24612 11.1799 8.16281 11.2213 7.1222 11.4815C6.08158 11.7418 5.10632 12.2152 4.25814 12.8719C3.40995 13.5285 2.70732 14.3541 2.1947 15.2963C1.68208 16.2386 1.37065 17.277 1.2801 18.3458C1.18956 19.4146 1.32187 20.4906 1.66868 21.5057C2.01549 22.5207 2.56923 23.4527 3.29487 24.2427C4.0205 25.0327 4.90222 25.6634 5.88423 26.095C6.86624 26.5266 7.92714 26.7496 8.9998 26.75H19.9998C22.8509 26.75 25.5852 25.6174 27.6012 23.6014C29.6172 21.5854 30.7498 18.8511 30.7498 16C30.7498 13.1489 29.6172 10.4146 27.6012 8.3986C25.5852 6.38259 22.8509 5.25 19.9998 5.25ZM19.9998 25.25H8.9998C7.3422 25.25 5.75249 24.5915 4.58039 23.4194C3.40828 22.2473 2.7498 20.6576 2.7498 19C2.7498 17.3424 3.40828 15.7527 4.58039 14.5806C5.75249 13.4085 7.3422 12.75 8.9998 12.75C9.2467 12.7502 9.49337 12.7648 9.73855 12.7937C9.41369 13.8315 9.24888 14.9126 9.2498 16C9.2498 16.1989 9.32882 16.3897 9.46947 16.5303C9.61013 16.671 9.80089 16.75 9.9998 16.75C10.1987 16.75 10.3895 16.671 10.5301 16.5303C10.6708 16.3897 10.7498 16.1989 10.7498 16C10.7498 14.1705 11.2923 12.3821 12.3087 10.861C13.3251 9.33982 14.7698 8.15423 16.46 7.45411C18.1502 6.754 20.0101 6.57082 21.8044 6.92774C23.5987 7.28465 25.2469 8.16563 26.5405 9.45926C27.8342 10.7529 28.7152 12.4011 29.0721 14.1954C29.429 15.9897 29.2458 17.8496 28.5457 19.5398C27.8456 21.23 26.66 22.6747 25.1388 23.6911C23.6177 24.7075 21.8293 25.25 19.9998 25.25ZM23.5298 14.53L21.0598 17L23.5298 19.47C23.6035 19.5387 23.6626 19.6215 23.7036 19.7135C23.7446 19.8055 23.7666 19.9048 23.7684 20.0055C23.7702 20.1062 23.7516 20.2062 23.7139 20.2996C23.6762 20.393 23.6201 20.4778 23.5488 20.549C23.4776 20.6203 23.3928 20.6764 23.2994 20.7141C23.206 20.7518 23.106 20.7704 23.0053 20.7686C22.9046 20.7668 22.8053 20.7448 22.7133 20.7038C22.6213 20.6628 22.5385 20.6037 22.4698 20.53L19.9998 18.06L17.5298 20.53C17.3876 20.6625 17.1996 20.7346 17.0053 20.7312C16.811 20.7277 16.6256 20.649 16.4882 20.5116C16.3508 20.3742 16.2721 20.1888 16.2686 19.9945C16.2652 19.8002 16.3373 19.6122 16.4698 19.47L18.9398 17L16.4698 14.53C16.3373 14.3878 16.2652 14.1998 16.2686 14.0055C16.2721 13.8112 16.3508 13.6258 16.4882 13.4884C16.6256 13.351 16.811 13.2723 17.0053 13.2688C17.1996 13.2654 17.3876 13.3375 17.5298 13.47L19.9998 15.94L22.4698 13.47C22.612 13.3375 22.8 13.2654 22.9943 13.2688C23.1886 13.2723 23.374 13.351 23.5114 13.4884C23.6488 13.6258 23.7276 13.8112 23.731 14.0055C23.7344 14.1998 23.6623 14.3878 23.5298 14.53Z" fill="white"/>
</svg>
