<svg width="32" height="32" viewBox="0 0 32 32" fill="none" xmlns="http://www.w3.org/2000/svg">
<path d="M15.0001 25.75H9.00008C8.80117 25.75 8.6104 25.671 8.46975 25.5303C8.3291 25.3897 8.25008 25.1989 8.25008 25C8.25008 24.8011 8.3291 24.6103 8.46975 24.4696C8.6104 24.329 8.80117 24.25 9.00008 24.25H15.0001C15.199 24.25 15.3898 24.329 15.5304 24.4696C15.6711 24.6103 15.7501 24.8011 15.7501 25C15.7501 25.1989 15.6711 25.3897 15.5304 25.5303C15.3898 25.671 15.199 25.75 15.0001 25.75ZM23.0001 24.25H20.0001C19.8012 24.25 19.6104 24.329 19.4697 24.4696C19.3291 24.6103 19.2501 24.8011 19.2501 25C19.2501 25.1989 19.3291 25.3897 19.4697 25.5303C19.6104 25.671 19.8012 25.75 20.0001 25.75H23.0001C23.199 25.75 23.3898 25.671 23.5304 25.5303C23.6711 25.3897 23.7501 25.1989 23.7501 25C23.7501 24.8011 23.6711 24.6103 23.5304 24.4696C23.3898 24.329 23.199 24.25 23.0001 24.25ZM20.0001 28.25H13.0001C12.8012 28.25 12.6104 28.329 12.4697 28.4696C12.3291 28.6103 12.2501 28.8011 12.2501 29C12.2501 29.1989 12.3291 29.3897 12.4697 29.5303C12.6104 29.671 12.8012 29.75 13.0001 29.75H20.0001C20.199 29.75 20.3898 29.671 20.5304 29.5303C20.6711 29.3897 20.7501 29.1989 20.7501 29C20.7501 28.8011 20.6711 28.6103 20.5304 28.4696C20.3898 28.329 20.199 28.25 20.0001 28.25ZM28.7501 12.5C28.7471 14.9523 27.7716 17.3034 26.0375 19.0374C24.3035 20.7715 21.9524 21.747 19.5001 21.75H9.50008C8.62797 21.7456 7.76644 21.5587 6.97088 21.2013C6.17533 20.844 5.46337 20.3241 4.88079 19.6751C4.2982 19.0261 3.85789 18.2624 3.58816 17.433C3.31844 16.6037 3.22527 15.727 3.31465 14.8595C3.40403 13.992 3.67398 13.1528 4.10715 12.3958C4.54031 11.6389 5.1271 10.981 5.82977 10.4644C6.53244 9.94782 7.33545 9.58403 8.18715 9.39641C9.03885 9.20878 9.92039 9.20148 10.7751 9.37498C11.5119 7.32326 12.949 5.59729 14.8334 4.50099C16.7177 3.40468 18.9284 3.00834 21.0762 3.38174C23.224 3.75514 25.1712 4.87435 26.5749 6.54229C27.9787 8.21023 28.7489 10.32 28.7501 12.5ZM27.2501 12.5C27.2435 10.4865 26.4543 8.55439 25.0493 7.11211C23.6443 5.66983 21.7335 4.83035 19.7209 4.77111C17.7082 4.71187 15.7514 5.4375 14.264 6.79464C12.7765 8.15178 11.8751 10.0341 11.7501 12.0437C11.7385 12.2426 11.6483 12.4288 11.4995 12.5612C11.3506 12.6937 11.1552 12.7616 10.9563 12.75C10.7574 12.7384 10.5713 12.6482 10.4388 12.4994C10.3064 12.3505 10.2385 12.1551 10.2501 11.9562C10.2722 11.5789 10.3169 11.2032 10.3838 10.8312C9.73469 10.7096 9.06732 10.7247 8.42434 10.8755C7.78136 11.0263 7.17689 11.3096 6.64954 11.7072C6.12219 12.1047 5.68354 12.6079 5.36161 13.1846C5.03968 13.7612 4.84154 14.3987 4.77985 15.0562C4.71815 15.7138 4.79425 16.377 5.00329 17.0035C5.21233 17.6299 5.54972 18.2059 5.99391 18.6947C6.4381 19.1834 6.97932 19.5742 7.58303 19.842C8.18673 20.1098 8.83964 20.2487 9.50008 20.25H19.5001C21.5548 20.2477 23.5247 19.4304 24.9776 17.9775C26.4305 16.5246 27.2478 14.5547 27.2501 12.5Z" fill="white"/>
</svg>
