<svg width="32" height="32" viewBox="0 0 32 32" fill="none" xmlns="http://www.w3.org/2000/svg">
<path d="M20.5002 9.24997C19.6036 9.25 18.7118 9.3801 17.8527 9.63622C17.4844 8.99695 17.014 8.42227 16.4601 7.93497L17.7751 6.05997C17.8317 5.97929 17.8718 5.88826 17.8932 5.79208C17.9145 5.69589 17.9168 5.59645 17.8997 5.49941C17.8826 5.40237 17.8466 5.30965 17.7937 5.22653C17.7408 5.1434 17.6721 5.07152 17.5914 5.01497C17.5107 4.95842 17.4197 4.91831 17.3235 4.89694C17.2273 4.87557 17.1279 4.87335 17.0308 4.89041C16.9338 4.90748 16.8411 4.94349 16.758 4.99638C16.6748 5.04928 16.6029 5.11804 16.5464 5.19872L15.2314 7.07372C14.2404 6.53272 13.1292 6.24946 12.0001 6.24997C11.8564 6.24997 11.7151 6.24997 11.5739 6.26497L11.1751 4.00622C11.1609 3.90666 11.1268 3.811 11.0748 3.7249C11.0228 3.63881 10.954 3.56405 10.8726 3.50507C10.7911 3.44609 10.6986 3.40409 10.6006 3.38158C10.5026 3.35907 10.4011 3.3565 10.302 3.37402C10.203 3.39155 10.1085 3.42881 10.0242 3.48359C9.93983 3.53838 9.86738 3.60956 9.81111 3.69292C9.75484 3.77627 9.71591 3.87009 9.69663 3.96879C9.67736 4.06749 9.67813 4.16907 9.6989 4.26747L10.0964 6.52497C8.87534 6.88553 7.78114 7.58408 6.94015 8.53997L5.0589 7.22247C4.97822 7.16592 4.88719 7.12581 4.79101 7.10444C4.69483 7.08307 4.59538 7.08085 4.49834 7.09791C4.40131 7.11498 4.30858 7.15099 4.22546 7.20388C4.14234 7.25678 4.07045 7.32554 4.0139 7.40622C3.89969 7.56916 3.85489 7.7708 3.88935 7.96677C3.92381 8.16275 4.03471 8.33701 4.19765 8.45122L6.07265 9.76622C5.53067 10.7577 5.24777 11.87 5.25015 13C5.25015 13.1412 5.25015 13.2825 5.26515 13.4237L3.0064 13.8212C2.82191 13.8535 2.65618 13.9537 2.54181 14.102C2.42743 14.2503 2.3727 14.4361 2.38837 14.6227C2.40404 14.8094 2.48898 14.9834 2.62649 15.1106C2.76399 15.2378 2.9441 15.3089 3.1314 15.31C3.17539 15.3098 3.21928 15.3061 3.26265 15.2987L5.52515 14.9C5.7209 15.5672 6.01949 16.1998 6.41015 16.775C5.4468 17.6091 4.76142 18.7177 4.44587 19.9523C4.13033 21.1869 4.1997 22.4884 4.64468 23.6825C5.08966 24.8766 5.889 25.9061 6.93555 26.633C7.98211 27.36 9.22587 27.7497 10.5001 27.75H20.5002C22.9534 27.75 25.3062 26.7754 27.0409 25.0407C28.7756 23.306 29.7502 20.9532 29.7502 18.5C29.7502 16.0467 28.7756 13.6939 27.0409 11.9592C25.3062 10.2245 22.9534 9.24997 20.5002 9.24997ZM6.75015 13C6.74977 11.8626 7.11878 10.7558 7.80165 9.84621C8.48453 8.93661 9.44433 8.27339 10.5366 7.95632C11.629 7.63926 12.7947 7.6855 13.8585 8.08811C14.9222 8.49071 15.8265 9.22788 16.4351 10.1887C14.2672 11.2466 12.5959 13.1066 11.7751 15.375C11.3555 15.29 10.9283 15.2482 10.5001 15.25C9.5091 15.2492 8.53227 15.4858 7.6514 15.94C7.06428 15.0719 6.7504 14.048 6.75015 13ZM20.5002 26.25H10.5001C9.8392 26.2495 9.18563 26.111 8.58123 25.8435C7.97684 25.576 7.43492 25.1853 6.99014 24.6964C6.54536 24.2075 6.20752 23.6312 5.9982 23.0042C5.78888 22.3773 5.71271 21.7136 5.77455 21.0555C5.83639 20.3975 6.03488 19.7596 6.35733 19.1826C6.67978 18.6057 7.11909 18.1024 7.64717 17.7049C8.17524 17.3074 8.78046 17.0245 9.42411 16.8743C10.0678 16.7241 10.7357 16.7098 11.3851 16.8325C11.3182 17.2045 11.2735 17.5801 11.2514 17.9575C11.2398 18.1564 11.3077 18.3518 11.4401 18.5006C11.5726 18.6495 11.7587 18.7396 11.9577 18.7512C12.1566 18.7628 12.3519 18.6949 12.5008 18.5625C12.6497 18.43 12.7398 18.2439 12.7514 18.045C12.783 17.5278 12.8668 17.0152 13.0014 16.515C13.0014 16.4962 13.0114 16.4787 13.0152 16.4612C13.394 15.0647 14.1559 13.8021 15.2147 12.8159C16.2735 11.8297 17.5871 11.1593 19.0069 10.8804C20.4267 10.6015 21.8963 10.7253 23.2494 11.2378C24.6026 11.7502 25.7855 12.6309 26.6644 13.7804C27.5433 14.9298 28.0832 16.3021 28.2231 17.7423C28.3631 19.1825 28.0974 20.6331 27.4562 21.9302C26.815 23.2273 25.8237 24.3193 24.5945 25.0826C23.3653 25.846 21.9471 26.2503 20.5002 26.25Z" fill="white"/>
</svg>
