<svg width="32" height="32" viewBox="0 0 32 32" fill="none" xmlns="http://www.w3.org/2000/svg">
<path d="M21.4998 9.24994C20.9053 9.24987 20.3122 9.3068 19.7285 9.41994C19.6045 7.54424 18.8797 5.75835 17.6615 4.32671C16.4433 2.89507 14.7965 1.89381 12.9648 1.47119C12.8404 1.44244 12.7108 1.44588 12.5882 1.48121C12.4656 1.51653 12.354 1.58256 12.264 1.67305C12.174 1.76354 12.1086 1.87549 12.074 1.99831C12.0393 2.12113 12.0366 2.25077 12.066 2.37494C12.3395 3.57224 12.3046 4.81936 11.9647 5.99952C11.6248 7.17968 10.991 8.25428 10.1225 9.1227C9.25412 9.99113 8.17952 10.625 6.99936 10.9649C5.8192 11.3048 4.57209 11.3396 3.37478 11.0662C3.25095 11.0378 3.12193 11.0413 2.99983 11.0764C2.87772 11.1115 2.76654 11.177 2.6767 11.2669C2.58686 11.3567 2.52132 11.4679 2.48622 11.59C2.45112 11.7121 2.44762 11.8411 2.47603 11.9649C2.74782 13.1367 3.25756 14.2402 3.97361 15.2067C4.68966 16.1733 5.59673 16.9823 6.63853 17.5837C5.90054 18.5016 5.43692 19.6093 5.3011 20.7792C5.16529 21.9491 5.3628 23.1336 5.87088 24.1961C6.37896 25.2587 7.17693 26.156 8.17283 26.7848C9.16873 27.4136 10.322 27.7481 11.4998 27.7499H21.4998C23.953 27.7499 26.3058 26.7754 28.0405 25.0407C29.7752 23.306 30.7498 20.9532 30.7498 18.4999C30.7498 16.0467 29.7752 13.6939 28.0405 11.9592C26.3058 10.2245 23.953 9.24994 21.4998 9.24994ZM4.27728 12.7199C4.51728 12.7399 4.75812 12.7499 4.99978 12.7499C7.31961 12.7473 9.54367 11.8246 11.184 10.1842C12.8244 8.54383 13.7471 6.31977 13.7498 3.99994C13.7498 3.75744 13.7398 3.51494 13.7198 3.27494C15.0372 3.80146 16.1699 4.70522 16.9758 5.87289C17.7816 7.04055 18.2248 8.42015 18.2498 9.83869C16.991 10.3104 15.8495 11.0497 14.9043 12.0055C13.959 12.9614 13.2325 14.111 12.7748 15.3749C12.3551 15.29 11.9279 15.2481 11.4998 15.2499C10.1542 15.2485 8.84449 15.6836 7.76728 16.4899C6.18446 15.6991 4.94382 14.359 4.27728 12.7199ZM21.4998 26.2499H11.4998C10.8388 26.2494 10.1853 26.111 9.58087 25.8435C8.97647 25.576 8.43455 25.1853 7.98978 24.6964C7.545 24.2075 7.20715 23.6311 6.99783 23.0042C6.78852 22.3773 6.71234 21.7136 6.77418 21.0555C6.83602 20.3975 7.03451 19.7596 7.35696 19.1826C7.67941 18.6057 8.11872 18.1023 8.6468 17.7049C9.17487 17.3074 9.78009 17.0245 10.4237 16.8743C11.0674 16.724 11.7353 16.7098 12.3848 16.8324C12.3178 17.2044 12.2731 17.5801 12.251 17.9574C12.2394 18.1564 12.3073 18.3517 12.4398 18.5006C12.5722 18.6494 12.7584 18.7396 12.9573 18.7512C13.1562 18.7628 13.3516 18.6949 13.5004 18.5625C13.6493 18.43 13.7394 18.2439 13.751 18.0449C13.7826 17.5278 13.8664 17.0152 14.001 16.5149C14.001 16.4962 14.011 16.4787 14.0148 16.4612C14.3937 15.0647 15.1555 13.802 16.2144 12.8158C17.2732 11.8297 18.5867 11.1592 20.0065 10.8804C21.4264 10.6015 22.8959 10.7253 24.2491 11.2378C25.6022 11.7502 26.7851 12.6309 27.664 13.7803C28.5429 14.9298 29.0828 16.3021 29.2228 17.7423C29.3627 19.1825 29.097 20.6331 28.4558 21.9302C27.8146 23.2273 26.8234 24.3192 25.5942 25.0826C24.3649 25.8459 22.9467 26.2503 21.4998 26.2499Z" fill="white"/>
</svg>
