<svg width="32" height="32" viewBox="0 0 32 32" fill="none" xmlns="http://www.w3.org/2000/svg">
<path d="M26.3575 20.4638C27.945 19.7763 28.75 17.9375 28.75 15C28.75 12.0625 27.945 10.2238 26.3575 9.53625C24.545 8.75 22.1075 9.72375 19.9825 11.0112C21.27 8.895 22.2425 6.455 21.4575 4.6425C20.7763 3.055 18.9375 2.25 16 2.25C13.0625 2.25 11.2238 3.055 10.5363 4.6425C9.75125 6.455 10.7237 8.8925 12.0112 11.0175C9.89625 9.72375 7.455 8.75 5.6425 9.53625C4.055 10.2238 3.25 12.0625 3.25 15C3.25 17.9375 4.055 19.7763 5.6425 20.4638C6.10268 20.6581 6.59798 20.7556 7.0975 20.75C8.65 20.75 10.4225 19.9587 12.0125 18.99C10.7237 21.1063 9.75 23.5475 10.5363 25.365C11.2238 26.945 13.0625 27.75 16 27.75C18.9375 27.75 20.7763 26.945 21.4638 25.3575C21.8388 24.505 21.8125 23.5125 21.5537 22.4825C23.1312 24.7588 24.5812 27.4188 25.2725 30.1825C25.3132 30.3446 25.4069 30.4885 25.5387 30.5914C25.6705 30.6942 25.8328 30.75 26 30.75C26.0615 30.7498 26.1228 30.7423 26.1825 30.7275C26.278 30.7035 26.3679 30.661 26.447 30.6023C26.5261 30.5436 26.5929 30.4699 26.6435 30.3854C26.6941 30.3009 26.7276 30.2072 26.742 30.1098C26.7564 30.0124 26.7515 29.913 26.7275 29.8175C25.7825 26.0375 23.5775 22.5125 21.455 19.7925C22.62 20.3562 23.815 20.7463 24.9025 20.7463C25.4017 20.7529 25.897 20.6567 26.3575 20.4638ZM11.9125 5.23875C12.3413 4.25 13.7162 3.75 16 3.75C18.2838 3.75 19.6588 4.25 20.0875 5.23875C20.575 6.36375 19.9487 8.345 18.3237 10.815C17.6134 11.8822 16.8373 12.9042 16 13.875C15.1628 12.9054 14.3868 11.8847 13.6763 10.8188C12.0513 8.345 11.425 6.36375 11.9125 5.23875ZM6.23875 19.0875C5.25 18.6588 4.75 17.2838 4.75 15C4.75 12.7162 5.25 11.3413 6.23875 10.9125C6.51625 10.7992 6.81411 10.7443 7.11375 10.7513C8.27125 10.7513 9.8975 11.4113 11.82 12.6763C12.8857 13.3865 13.906 14.1626 14.875 15C13.9056 15.8375 12.8849 16.6136 11.8188 17.3237C9.345 18.9487 7.36375 19.575 6.23875 19.0875ZM20.0875 24.7612C19.6588 25.75 18.2838 26.25 16 26.25C13.7162 26.25 12.3413 25.75 11.9125 24.7612C11.425 23.6362 12.0513 21.655 13.6763 19.185C14.3863 18.1176 15.1624 17.0956 16 16.125C16.8375 17.0944 17.6136 18.1151 18.3237 19.1812C19.9487 21.655 20.575 23.635 20.0875 24.7612ZM20.185 17.3237C19.1176 16.6137 18.0956 15.8376 17.125 15C18.0944 14.1625 19.1151 13.3864 20.1812 12.6763C22.6512 11.0513 24.6325 10.4263 25.7575 10.9125C26.75 11.3413 27.25 12.7162 27.25 15C27.25 17.2838 26.75 18.6588 25.7612 19.0875C24.6362 19.575 22.655 18.9487 20.185 17.3237Z" fill="white"/>
</svg>
