<svg width="32" height="32" viewBox="0 0 32 32" fill="none" xmlns="http://www.w3.org/2000/svg">
<path d="M22.9999 11.25C22.7841 11.25 22.5691 11.26 22.3549 11.28C22.7193 10.2612 22.8335 9.16981 22.6878 8.0977C22.5421 7.02558 22.1408 6.00419 21.5178 5.11961C20.8947 4.23503 20.0682 3.51319 19.1078 3.01492C18.1474 2.51666 17.0812 2.25656 15.9993 2.25656C14.9173 2.25656 13.8512 2.51666 12.8908 3.01492C11.9304 3.51319 11.1038 4.23503 10.4807 5.11961C9.85769 6.00419 9.45642 7.02558 9.31074 8.0977C9.16505 9.16981 9.27923 10.2612 9.64364 11.28C9.43114 11.26 9.21614 11.25 8.99989 11.25C7.95962 11.2505 6.93354 11.4914 6.00176 11.954C5.06999 12.4166 4.25773 13.0882 3.62841 13.9166C2.9991 14.7449 2.56975 15.7075 2.37389 16.7291C2.17803 17.7508 2.22096 18.8039 2.49934 19.8063C2.77771 20.8086 3.28398 21.733 3.97864 22.5074C4.67329 23.2817 5.53753 23.8851 6.50386 24.2702C7.4702 24.6554 8.51249 24.812 9.54935 24.7279C10.5862 24.6437 11.5896 24.321 12.4811 23.785L11.2811 27.785C11.2476 27.897 11.2408 28.0153 11.2611 28.1304C11.2814 28.2455 11.3283 28.3543 11.3982 28.448C11.468 28.5418 11.5588 28.6179 11.6632 28.6703C11.7677 28.7227 11.883 28.75 11.9999 28.75H19.9999C20.1168 28.75 20.2321 28.7227 20.3365 28.6703C20.441 28.6179 20.5318 28.5418 20.6016 28.448C20.6714 28.3543 20.7184 28.2455 20.7387 28.1304C20.759 28.0153 20.7522 27.897 20.7186 27.785L19.5186 23.785C20.4102 24.321 21.4136 24.6437 22.4504 24.7279C23.4873 24.812 24.5296 24.6554 25.4959 24.2702C26.4623 23.8851 27.3265 23.2817 28.0211 22.5074C28.7158 21.733 29.2221 20.8086 29.5005 19.8063C29.7788 18.8039 29.8218 17.7508 29.6259 16.7291C29.43 15.7075 29.0007 14.7449 28.3714 13.9166C27.7421 13.0882 26.9298 12.4166 25.998 11.954C25.0662 11.4914 24.0402 11.2505 22.9999 11.25ZM22.9999 23.25C22.1311 23.251 21.2757 23.0359 20.5107 22.6241C19.7457 22.2124 19.0951 21.6169 18.6174 20.8913C18.5183 20.7416 18.3688 20.6325 18.1961 20.5837C18.0234 20.535 17.8389 20.5497 17.6761 20.6253C17.5134 20.701 17.3831 20.8325 17.309 20.9959C17.235 21.1594 17.222 21.344 17.2724 21.5163L18.9924 27.25H13.0074L14.7274 21.52C14.7778 21.3478 14.7648 21.1631 14.6907 20.9997C14.6167 20.8362 14.4864 20.7047 14.3237 20.6291C14.1609 20.5535 13.9764 20.5387 13.8037 20.5875C13.631 20.6363 13.4815 20.7454 13.3824 20.895C12.8398 21.7168 12.0771 22.3694 11.1813 22.7783C10.2855 23.1872 9.29274 23.3359 8.31644 23.2075C7.34014 23.079 6.41964 22.6786 5.66008 22.0519C4.90052 21.4252 4.33251 20.5976 4.02094 19.6635C3.70937 18.7293 3.66679 17.7264 3.89807 16.7692C4.12934 15.8121 4.62515 14.9392 5.32887 14.2504C6.03258 13.5616 6.91583 13.0846 7.87773 12.8739C8.83963 12.6632 9.84141 12.7272 10.7686 13.0588C10.9174 13.112 11.0792 13.117 11.2309 13.0729C11.3826 13.0288 11.5166 12.9379 11.6136 12.8131C11.7106 12.6884 11.7657 12.5362 11.7711 12.3783C11.7765 12.2204 11.7319 12.0648 11.6436 11.9338C11.1127 11.1437 10.8066 10.2241 10.758 9.27348C10.7094 8.32283 10.9202 7.37686 11.3678 6.53677C11.8154 5.69669 12.483 4.99411 13.2991 4.5042C14.1153 4.01429 15.0493 3.75549 16.0011 3.75549C16.953 3.75549 17.887 4.01429 18.7032 4.5042C19.5193 4.99411 20.1869 5.69669 20.6345 6.53677C21.0821 7.37686 21.2929 8.32283 21.2443 9.27348C21.1957 10.2241 20.8896 11.1437 20.3586 11.9338C20.2704 12.0648 20.2258 12.2204 20.2312 12.3783C20.2366 12.5362 20.2917 12.6884 20.3887 12.8131C20.4857 12.9379 20.6197 13.0288 20.7714 13.0729C20.9231 13.117 21.0849 13.112 21.2336 13.0588C21.9546 12.8 22.7234 12.702 23.4862 12.7719C24.2489 12.8417 24.9872 13.0776 25.6491 13.463C26.3111 13.8484 26.8807 14.374 27.3179 15.0029C27.7552 15.6318 28.0496 16.3488 28.1804 17.1035C28.3112 17.8582 28.2752 18.6324 28.0751 19.3718C27.875 20.1111 27.5155 20.7977 27.0218 21.3834C26.5282 21.9691 25.9124 22.4397 25.2176 22.7621C24.5228 23.0846 23.7659 23.2511 22.9999 23.25Z" fill="white"/>
</svg>
