<svg width="32" height="32" viewBox="0 0 32 32" fill="none" xmlns="http://www.w3.org/2000/svg">
<path d="M30.0463 21.6L17.25 12L20.4488 9.6C20.5422 9.53027 20.618 9.43974 20.6703 9.33559C20.7226 9.23144 20.7499 9.11654 20.75 9C20.75 7.74022 20.2496 6.53204 19.3588 5.64124C18.468 4.75045 17.2598 4.25 16 4.25C14.7403 4.25 13.5321 4.75045 12.6413 5.64124C11.7505 6.53204 11.25 7.74022 11.25 9C11.25 9.19891 11.3291 9.38968 11.4697 9.53033C11.6104 9.67098 11.8011 9.75 12 9.75C12.199 9.75 12.3897 9.67098 12.5304 9.53033C12.671 9.38968 12.75 9.19891 12.75 9C12.7554 8.17294 13.0759 7.37906 13.6463 6.78007C14.2166 6.18109 14.9938 5.82208 15.8196 5.77619C16.6454 5.73029 17.4577 6.00096 18.0908 6.53306C18.724 7.06515 19.1305 7.81863 19.2275 8.64L15.5625 11.39L15.5363 11.41L1.95379 21.6C1.66021 21.8202 1.44327 22.1271 1.33367 22.4773C1.22406 22.8275 1.22732 23.2034 1.343 23.5516C1.45867 23.8999 1.6809 24.203 1.97826 24.418C2.27562 24.6331 2.63307 24.7492 3.00004 24.75H29C29.3672 24.7497 29.725 24.634 30.0228 24.4191C30.3206 24.2043 30.5432 23.9012 30.6592 23.5528C30.7752 23.2044 30.7786 22.8284 30.6691 22.4779C30.5595 22.1274 30.3425 21.8203 30.0488 21.6H30.0463ZM29.2338 23.0788C29.2202 23.1297 29.1896 23.1744 29.1471 23.2055C29.1046 23.2367 29.0527 23.2524 29 23.25H3.00004C2.94768 23.2497 2.89672 23.233 2.85435 23.2023C2.81198 23.1715 2.78035 23.1282 2.76392 23.0785C2.74748 23.0287 2.74707 22.9751 2.76275 22.9252C2.77843 22.8752 2.8094 22.8314 2.85129 22.8L16 12.9375L29.1463 22.8C29.1907 22.8293 29.2237 22.873 29.2396 22.9238C29.2556 22.9746 29.2535 23.0293 29.2338 23.0788Z" fill="white"/>
</svg>
