<svg width="32" height="32" viewBox="0 0 32 32" fill="none" xmlns="http://www.w3.org/2000/svg">
<path d="M11.5 8.56119L3.12502 15.9999L11.5 23.4399C11.5739 23.5056 11.6341 23.5852 11.6772 23.6741C11.7203 23.763 11.7455 23.8596 11.7513 23.9583C11.7571 24.0569 11.7434 24.1558 11.711 24.2491C11.6786 24.3425 11.6282 24.4286 11.5625 24.5024C11.4969 24.5763 11.4173 24.6365 11.3284 24.6796C11.2394 24.7228 11.1429 24.7479 11.0442 24.7537C10.9455 24.7596 10.8467 24.7459 10.7533 24.7135C10.66 24.6811 10.5739 24.6306 10.5 24.5649L1.50002 16.5649C1.42021 16.4946 1.3563 16.408 1.31252 16.311C1.26874 16.214 1.24609 16.1089 1.24609 16.0024C1.24609 15.896 1.26874 15.7908 1.31252 15.6939C1.3563 15.5969 1.42021 15.5103 1.50002 15.4399L10.5 7.43994C10.6492 7.30734 10.845 7.23942 11.0442 7.25114C11.2435 7.26286 11.4299 7.35326 11.5625 7.50244C11.6951 7.65163 11.763 7.84738 11.7513 8.04664C11.7396 8.2459 11.6492 8.43234 11.5 8.56494V8.56119ZM30.5 15.4362L21.5 7.43619C21.3508 7.30359 21.1551 7.23567 20.9558 7.24739C20.7566 7.25911 20.5701 7.34951 20.4375 7.49869C20.3049 7.64788 20.237 7.84363 20.2487 8.04289C20.2604 8.24215 20.3508 8.42859 20.5 8.56119L28.875 15.9999L20.5 23.4399C20.4261 23.5056 20.3659 23.5852 20.3228 23.6741C20.2797 23.763 20.2545 23.8596 20.2487 23.9583C20.2429 24.0569 20.2566 24.1558 20.289 24.2491C20.3214 24.3425 20.3719 24.4286 20.4375 24.5024C20.5032 24.5763 20.5827 24.6365 20.6717 24.6796C20.7606 24.7228 20.8572 24.7479 20.9558 24.7537C21.1551 24.7655 21.3508 24.6976 21.5 24.5649L30.5 16.5649C30.5798 16.4946 30.6437 16.408 30.6875 16.311C30.7313 16.214 30.7539 16.1089 30.7539 16.0024C30.7539 15.896 30.7313 15.7908 30.6875 15.6939C30.6437 15.5969 30.5798 15.5103 30.5 15.4399V15.4362Z" fill="white"/>
</svg>
