<svg width="32" height="32" viewBox="0 0 32 32" fill="none" xmlns="http://www.w3.org/2000/svg">
<path d="M7.46995 12.53L3.46995 8.53003C3.3295 8.38941 3.25061 8.19878 3.25061 8.00003C3.25061 7.80128 3.3295 7.61066 3.46995 7.47003L7.46995 3.47003C7.53861 3.39634 7.62141 3.33724 7.71341 3.29625C7.80541 3.25526 7.90473 3.23322 8.00543 3.23144C8.10613 3.22966 8.20616 3.24819 8.29955 3.28591C8.39294 3.32363 8.47777 3.37977 8.54899 3.45099C8.62021 3.52221 8.67635 3.60705 8.71407 3.70043C8.75179 3.79382 8.77032 3.89385 8.76854 3.99455C8.76677 4.09526 8.74472 4.19457 8.70373 4.28657C8.66274 4.37857 8.60364 4.46137 8.52995 4.53003L5.0612 8.00003L8.52995 11.47C8.60364 11.5387 8.66274 11.6215 8.70373 11.7135C8.74472 11.8055 8.76677 11.9048 8.76854 12.0055C8.77032 12.1062 8.75179 12.2062 8.71407 12.2996C8.67635 12.393 8.62021 12.4779 8.54899 12.5491C8.47777 12.6203 8.39294 12.6764 8.29955 12.7142C8.20616 12.7519 8.10613 12.7704 8.00543 12.7686C7.90473 12.7668 7.80541 12.7448 7.71341 12.7038C7.62141 12.6628 7.53861 12.6037 7.46995 12.53ZM12.47 12.53C12.6106 12.6705 12.8012 12.7494 13 12.7494C13.1987 12.7494 13.3893 12.6705 13.53 12.53L17.53 8.53003C17.6704 8.38941 17.7493 8.19878 17.7493 8.00003C17.7493 7.80128 17.6704 7.61066 17.53 7.47003L13.53 3.47003C13.4613 3.39634 13.3785 3.33724 13.2865 3.29625C13.1945 3.25526 13.0952 3.23322 12.9945 3.23144C12.8938 3.22966 12.7937 3.24819 12.7004 3.28591C12.607 3.32363 12.5221 3.37977 12.4509 3.45099C12.3797 3.52221 12.3235 3.60705 12.2858 3.70043C12.2481 3.79382 12.2296 3.89385 12.2314 3.99455C12.2331 4.09526 12.2552 4.19457 12.2962 4.28657C12.3372 4.37857 12.3963 4.46137 12.47 4.53003L15.9387 8.00003L12.47 11.47C12.3295 11.6107 12.2506 11.8013 12.2506 12C12.2506 12.1988 12.3295 12.3894 12.47 12.53ZM25 5.25003H22C21.801 5.25003 21.6103 5.32905 21.4696 5.4697C21.329 5.61035 21.25 5.80112 21.25 6.00003C21.25 6.19894 21.329 6.38971 21.4696 6.53036C21.6103 6.67101 21.801 6.75003 22 6.75003H25C25.0663 6.75003 25.1298 6.77637 25.1767 6.82325C25.2236 6.87014 25.25 6.93373 25.25 7.00003V25C25.25 25.0663 25.2236 25.1299 25.1767 25.1768C25.1298 25.2237 25.0663 25.25 25 25.25H6.99995C6.93365 25.25 6.87006 25.2237 6.82317 25.1768C6.77629 25.1299 6.74995 25.0663 6.74995 25V17C6.74995 16.8011 6.67093 16.6104 6.53028 16.4697C6.38963 16.329 6.19886 16.25 5.99995 16.25C5.80104 16.25 5.61027 16.329 5.46962 16.4697C5.32897 16.6104 5.24995 16.8011 5.24995 17V25C5.24995 25.4642 5.43432 25.9093 5.76251 26.2375C6.0907 26.5657 6.53582 26.75 6.99995 26.75H25C25.4641 26.75 25.9092 26.5657 26.2374 26.2375C26.5656 25.9093 26.75 25.4642 26.75 25V7.00003C26.75 6.5359 26.5656 6.09078 26.2374 5.76259C25.9092 5.43441 25.4641 5.25003 25 5.25003Z" fill="white"/>
</svg>
