<svg width="32" height="32" viewBox="0 0 32 32" fill="none" xmlns="http://www.w3.org/2000/svg">
<path d="M27.84 8.4888L16.84 2.4663C16.5828 2.32426 16.2938 2.24976 16 2.24976C15.7062 2.24976 15.4172 2.32426 15.16 2.4663L4.16 8.48755C3.88457 8.63825 3.65476 8.86028 3.49465 9.13035C3.33454 9.40042 3.25004 9.70859 3.25 10.0226V21.9776C3.25004 22.2915 3.33454 22.5997 3.49465 22.8698C3.65476 23.1398 3.88457 23.3618 4.16 23.5126L15.16 29.5338C15.4173 29.6756 15.7062 29.75 16 29.75C16.2938 29.75 16.5827 29.6756 16.84 29.5338L27.84 23.5126C28.1154 23.3618 28.3452 23.1398 28.5054 22.8698C28.6655 22.5997 28.75 22.2915 28.75 21.9776V10.0226C28.7497 9.7088 28.6651 9.40089 28.505 9.13106C28.3449 8.86123 28.1152 8.6394 27.84 8.4888ZM16 15.1451L5.56125 9.43005L10.3925 6.7863L15.6425 9.6613C15.7529 9.72169 15.8767 9.75335 16.0025 9.75335C16.1283 9.75335 16.2521 9.72169 16.3625 9.6613L21.6125 6.7863L26.4438 9.43005L16 15.1451ZM15.875 3.7813C15.9118 3.76117 15.9531 3.75062 15.995 3.75062C16.0369 3.75062 16.0782 3.76117 16.115 3.7813L20.04 5.9313L16 8.14505L11.9537 5.9313L15.875 3.7813ZM4.75 21.9776V16.9776L9.25 19.4401V24.585L4.875 22.1963C4.83666 22.1742 4.80489 22.1423 4.78293 22.1038C4.76097 22.0654 4.7496 22.0218 4.75 21.9776ZM10.75 25.41V19C10.7499 18.8656 10.7137 18.7336 10.6451 18.6179C10.5764 18.5022 10.478 18.4071 10.36 18.3426L4.75 15.2713V10.6963L15.25 16.4463V27.875L10.75 25.41ZM16.75 27.875V16.445L27.25 10.695V15.2701L21.64 18.3413C21.5218 18.406 21.4232 18.5013 21.3546 18.6172C21.286 18.7331 21.2499 18.8653 21.25 19V25.41L16.75 27.875ZM27.125 22.1975L22.75 24.59V19.4438L27.25 16.9813V21.9813C27.2497 22.0249 27.2381 22.0677 27.2161 22.1054C27.1942 22.1432 27.1628 22.1745 27.125 22.1963V22.1975Z" fill="white"/>
</svg>
