<svg width="32" height="32" viewBox="0 0 32 32" fill="none" xmlns="http://www.w3.org/2000/svg">
<path d="M29.3563 11.3399L16.3563 4.33995C16.2471 4.2813 16.1251 4.25061 16.0012 4.25061C15.8774 4.25061 15.7554 4.2813 15.6462 4.33995L2.64625 11.3399C2.52672 11.4039 2.42676 11.499 2.35699 11.6152C2.28721 11.7314 2.25024 11.8644 2.25 11.9999V19.9999C2.25 20.1352 2.2866 20.268 2.35591 20.3842C2.42523 20.5004 2.52469 20.5957 2.64375 20.6599L15.6438 27.6599C15.7529 27.7186 15.8749 27.7493 15.9987 27.7493C16.1226 27.7493 16.2446 27.7186 16.3538 27.6599L29.3538 20.6599C29.4733 20.596 29.5732 20.5009 29.643 20.3847C29.7128 20.2685 29.7498 20.1355 29.75 19.9999V11.9999C29.75 11.8647 29.7134 11.7319 29.6441 11.6157C29.5748 11.4995 29.4753 11.4042 29.3563 11.3399ZM28.25 18.7499L23.1537 15.9999L28.25 13.2499V18.7499ZM21.5713 15.1537L16.75 12.5524V6.24995L27.4175 11.9999L21.5713 15.1537ZM16 18.1537L12.01 15.9999L16 13.8512L19.99 15.9999L16 18.1537ZM15.25 6.24995V12.5474L10.4288 15.1474L4.5825 11.9999L15.25 6.24995ZM3.75 13.2499L8.84625 15.9999L3.75 18.7499V13.2499ZM10.4288 16.8449L15.25 19.4474V25.7499L4.5825 19.9999L10.4288 16.8449ZM16.75 25.7499V19.4474L21.5713 16.8512L27.4175 19.9999L16.75 25.7499Z" fill="white"/>
</svg>
