<svg width="32" height="32" viewBox="0 0 32 32" fill="none" xmlns="http://www.w3.org/2000/svg">
<path d="M26.2925 5.70748C24.25 3.66873 21.25 2.85873 17.8488 3.42748C14.535 3.97873 11.2138 5.77998 8.50003 8.49998C5.78628 11.22 3.98253 14.5375 3.43003 17.8512C2.85878 21.25 3.66878 24.25 5.70753 26.2925C7.32128 27.9062 9.53628 28.75 12.08 28.75C12.7741 28.7479 13.4668 28.689 14.1513 28.5737C17.465 28.0212 20.7863 26.22 23.5038 23.5037C26.2213 20.7875 28.0213 17.465 28.5738 14.1512C29.1413 10.75 28.3313 7.74998 26.2925 5.70748ZM9.55753 9.55748C12.69 6.42498 16.5575 4.74998 19.8975 4.74998C21.47 4.74998 22.925 5.12498 24.1313 5.88998C22.5602 6.36976 21.0898 7.13225 19.7925 8.13998C17.44 9.99748 15.9175 12.5925 15.265 15.8537C14 22.1687 9.39753 24.25 6.50003 24.9375C3.28753 21.3025 4.60378 14.5112 9.55753 9.55748ZM22.4425 22.4425C17.835 27.05 11.6375 28.5125 7.87503 26.1137C9.44613 25.634 10.9165 24.8715 12.2138 23.8637C14.5663 22.0062 16.0888 19.4112 16.7413 16.15C18 9.83123 22.6025 7.74998 25.5063 7.06248C28.7125 10.6987 27.3963 17.4887 22.4425 22.4425Z" fill="white"/>
</svg>
