<svg width="32" height="32" viewBox="0 0 32 32" fill="none" xmlns="http://www.w3.org/2000/svg">
<path d="M16 4.25H13C12.5359 4.25 12.0908 4.43437 11.7626 4.76256C11.4344 5.09075 11.25 5.53587 11.25 6V26C11.25 26.4641 11.4344 26.9092 11.7626 27.2374C12.0908 27.5656 12.5359 27.75 13 27.75H16C16.4641 27.75 16.9092 27.5656 17.2374 27.2374C17.5656 26.9092 17.75 26.4641 17.75 26V6C17.75 5.53587 17.5656 5.09075 17.2374 4.76256C16.9092 4.43437 16.4641 4.25 16 4.25ZM16.25 26C16.25 26.0663 16.2237 26.1299 16.1768 26.1768C16.1299 26.2237 16.0663 26.25 16 26.25H13C12.9337 26.25 12.8701 26.2237 12.8232 26.1768C12.7763 26.1299 12.75 26.0663 12.75 26V6C12.75 5.9337 12.7763 5.87011 12.8232 5.82322C12.8701 5.77634 12.9337 5.75 13 5.75H16C16.0663 5.75 16.1299 5.77634 16.1768 5.82322C16.2237 5.87011 16.25 5.9337 16.25 6V26ZM25 4.25H22C21.5359 4.25 21.0908 4.43437 20.7626 4.76256C20.4344 5.09075 20.25 5.53587 20.25 6V26C20.25 26.4641 20.4344 26.9092 20.7626 27.2374C21.0908 27.5656 21.5359 27.75 22 27.75H25C25.4641 27.75 25.9092 27.5656 26.2374 27.2374C26.5656 26.9092 26.75 26.4641 26.75 26V6C26.75 5.53587 26.5656 5.09075 26.2374 4.76256C25.9092 4.43437 25.4641 4.25 25 4.25ZM25.25 26C25.25 26.0663 25.2237 26.1299 25.1768 26.1768C25.1299 26.2237 25.0663 26.25 25 26.25H22C21.9337 26.25 21.8701 26.2237 21.8232 26.1768C21.7763 26.1299 21.75 26.0663 21.75 26V6C21.75 5.9337 21.7763 5.87011 21.8232 5.82322C21.8701 5.77634 21.9337 5.75 22 5.75H25C25.0663 5.75 25.1299 5.77634 25.1768 5.82322C25.2237 5.87011 25.25 5.9337 25.25 6V26ZM8.75 16C8.75 16.1989 8.67098 16.3897 8.53033 16.5303C8.38968 16.671 8.19891 16.75 8 16.75H5.75V19C5.75 19.1989 5.67098 19.3897 5.53033 19.5303C5.38968 19.671 5.19891 19.75 5 19.75C4.80109 19.75 4.61032 19.671 4.46967 19.5303C4.32902 19.3897 4.25 19.1989 4.25 19V16.75H2C1.80109 16.75 1.61032 16.671 1.46967 16.5303C1.32902 16.3897 1.25 16.1989 1.25 16C1.25 15.8011 1.32902 15.6103 1.46967 15.4697C1.61032 15.329 1.80109 15.25 2 15.25H4.25V13C4.25 12.8011 4.32902 12.6103 4.46967 12.4697C4.61032 12.329 4.80109 12.25 5 12.25C5.19891 12.25 5.38968 12.329 5.53033 12.4697C5.67098 12.6103 5.75 12.8011 5.75 13V15.25H8C8.19891 15.25 8.38968 15.329 8.53033 15.4697C8.67098 15.6103 8.75 15.8011 8.75 16Z" fill="white"/>
</svg>
