<svg width="32" height="32" viewBox="0 0 32 32" fill="none" xmlns="http://www.w3.org/2000/svg">
<path d="M10 4.25H7C6.53587 4.25 6.09075 4.43437 5.76256 4.76256C5.43437 5.09075 5.25 5.53587 5.25 6V26C5.25 26.4641 5.43437 26.9092 5.76256 27.2374C6.09075 27.5656 6.53587 27.75 7 27.75H10C10.4641 27.75 10.9092 27.5656 11.2374 27.2374C11.5656 26.9092 11.75 26.4641 11.75 26V6C11.75 5.53587 11.5656 5.09075 11.2374 4.76256C10.9092 4.43437 10.4641 4.25 10 4.25ZM10.25 26C10.25 26.0663 10.2237 26.1299 10.1768 26.1768C10.1299 26.2237 10.0663 26.25 10 26.25H7C6.9337 26.25 6.87011 26.2237 6.82322 26.1768C6.77634 26.1299 6.75 26.0663 6.75 26V6C6.75 5.9337 6.77634 5.87011 6.82322 5.82322C6.87011 5.77634 6.9337 5.75 7 5.75H10C10.0663 5.75 10.1299 5.77634 10.1768 5.82322C10.2237 5.87011 10.25 5.9337 10.25 6V26ZM19 4.25H16C15.5359 4.25 15.0908 4.43437 14.7626 4.76256C14.4344 5.09075 14.25 5.53587 14.25 6V26C14.25 26.4641 14.4344 26.9092 14.7626 27.2374C15.0908 27.5656 15.5359 27.75 16 27.75H19C19.4641 27.75 19.9092 27.5656 20.2374 27.2374C20.5656 26.9092 20.75 26.4641 20.75 26V6C20.75 5.53587 20.5656 5.09075 20.2374 4.76256C19.9092 4.43437 19.4641 4.25 19 4.25ZM19.25 26C19.25 26.0663 19.2237 26.1299 19.1768 26.1768C19.1299 26.2237 19.0663 26.25 19 26.25H16C15.9337 26.25 15.8701 26.2237 15.8232 26.1768C15.7763 26.1299 15.75 26.0663 15.75 26V6C15.75 5.9337 15.7763 5.87011 15.8232 5.82322C15.8701 5.77634 15.9337 5.75 16 5.75H19C19.0663 5.75 19.1299 5.77634 19.1768 5.82322C19.2237 5.87011 19.25 5.9337 19.25 6V26ZM30.75 16C30.75 16.1989 30.671 16.3897 30.5303 16.5303C30.3897 16.671 30.1989 16.75 30 16.75H27.75V19C27.75 19.1989 27.671 19.3897 27.5303 19.5303C27.3897 19.671 27.1989 19.75 27 19.75C26.8011 19.75 26.6103 19.671 26.4697 19.5303C26.329 19.3897 26.25 19.1989 26.25 19V16.75H24C23.8011 16.75 23.6103 16.671 23.4697 16.5303C23.329 16.3897 23.25 16.1989 23.25 16C23.25 15.8011 23.329 15.6103 23.4697 15.4697C23.6103 15.329 23.8011 15.25 24 15.25H26.25V13C26.25 12.8011 26.329 12.6103 26.4697 12.4697C26.6103 12.329 26.8011 12.25 27 12.25C27.1989 12.25 27.3897 12.329 27.5303 12.4697C27.671 12.6103 27.75 12.8011 27.75 13V15.25H30C30.1989 15.25 30.3897 15.329 30.5303 15.4697C30.671 15.6103 30.75 15.8011 30.75 16Z" fill="white"/>
</svg>
