<svg width="32" height="32" viewBox="0 0 32 32" fill="none" xmlns="http://www.w3.org/2000/svg">
<path d="M31.1824 15.2725L27.6399 14.3863C27.2912 11.85 26.1225 9.49731 24.312 7.6871C22.5016 5.87688 20.1488 4.70847 17.6124 4.36005L16.7274 0.817549C16.6868 0.655379 16.5931 0.511438 16.4613 0.408588C16.3295 0.305739 16.1671 0.249878 15.9999 0.249878C15.8327 0.249878 15.6703 0.305739 15.5385 0.408588C15.4067 0.511438 15.3131 0.655379 15.2724 0.817549L14.3874 4.36005C11.8511 4.70847 9.49825 5.87688 7.68781 7.6871C5.87737 9.49731 4.70867 11.85 4.35993 14.3863L0.817427 15.2725C0.655257 15.3132 0.511316 15.4069 0.408466 15.5387C0.305617 15.6705 0.249756 15.8329 0.249756 16C0.249756 16.1672 0.305617 16.3296 0.408466 16.4614C0.511316 16.5932 0.655257 16.6869 0.817427 16.7276L4.35993 17.6138C4.70867 20.1501 5.87737 22.5028 7.68781 24.313C9.49825 26.1232 11.8511 27.2916 14.3874 27.64L15.2724 31.1826C15.3131 31.3447 15.4067 31.4887 15.5385 31.5915C15.6703 31.6944 15.8327 31.7502 15.9999 31.7502C16.1671 31.7502 16.3295 31.6944 16.4613 31.5915C16.5931 31.4887 16.6868 31.3447 16.7274 31.1826L17.6124 27.64C20.1488 27.2916 22.5016 26.1232 24.312 24.313C26.1225 22.5028 27.2912 20.1501 27.6399 17.6138L31.1824 16.7276C31.3446 16.6869 31.4885 16.5932 31.5914 16.4614C31.6942 16.3296 31.7501 16.1672 31.7501 16C31.7501 15.8329 31.6942 15.6705 31.5914 15.5387C31.4885 15.4069 31.3446 15.3132 31.1824 15.2725ZM26.0512 13.99L19.6249 12.3813L18.0099 5.9488C19.9953 6.3436 21.819 7.31832 23.2503 8.74966C24.6817 10.181 25.6564 12.0047 26.0512 13.99ZM18.1762 12.7701L15.9999 14.9388L13.8299 12.7701L15.9999 4.09255L18.1762 12.7701ZM13.9899 5.9488L12.3812 12.3813L5.94868 13.99C6.34348 12.0047 7.31819 10.181 8.74954 8.74966C10.1809 7.31832 12.0046 6.3436 13.9899 5.9488ZM12.7699 13.8313L14.9399 16L12.7699 18.1688L4.09243 16L12.7699 13.8313ZM5.94868 18.01L12.3812 19.625L13.9899 26.0576C12.0037 25.6623 10.1795 24.6867 8.74802 23.2541C7.31659 21.8216 6.34237 19.9966 5.94868 18.01ZM13.8299 19.23L15.9999 17.0613L18.1699 19.23L15.9999 27.9075L13.8299 19.23ZM18.0099 26.0513L19.6249 19.625L26.0574 18.0163C25.6611 20.0014 24.685 21.8243 23.2525 23.2545C21.82 24.6847 19.9956 25.658 18.0099 26.0513ZM19.2299 18.1688L17.0599 16L19.2299 13.8313L27.9074 16L19.2299 18.1688Z" fill="white"/>
</svg>
