<svg width="32" height="32" viewBox="0 0 32 32" fill="none" xmlns="http://www.w3.org/2000/svg">
<path d="M13.7601 6.75C13.5549 6.54481 13.3013 6.39471 13.0227 6.31357C12.7441 6.23244 12.4495 6.2229 12.1662 6.28583C11.883 6.34877 11.6202 6.48214 11.4021 6.67362C11.1841 6.8651 11.0179 7.10848 10.9189 7.38125L4.35636 25.4338C4.26207 25.6938 4.23162 25.9728 4.26759 26.2471C4.30355 26.5214 4.40487 26.7831 4.56302 27.0101C4.72117 27.2371 4.93152 27.4227 5.17639 27.5515C5.42125 27.6803 5.69346 27.7483 5.97011 27.75C6.17353 27.7495 6.3753 27.7136 6.56636 27.6437L24.6139 21.0812C24.8862 20.9816 25.1289 20.8148 25.3197 20.5965C25.5105 20.3781 25.6432 20.1152 25.7055 19.832C25.7678 19.5488 25.7577 19.2545 25.6761 18.9762C25.5946 18.698 25.4442 18.4448 25.2389 18.24L13.7601 6.75ZM6.05386 26.2337C6.01373 26.2486 5.97017 26.2516 5.92836 26.2425C5.88656 26.2333 5.84825 26.2124 5.81799 26.1821C5.78773 26.1519 5.76678 26.1136 5.75763 26.0717C5.74848 26.0299 5.75151 25.9864 5.76636 25.9463L7.66386 20.725L11.2751 24.335L6.05386 26.2337ZM12.8301 23.77L8.23011 19.1688L10.0639 14.125L17.8751 21.9363L12.8301 23.77ZM24.2501 19.5088C24.2426 19.5459 24.2255 19.5805 24.2005 19.609C24.1755 19.6375 24.1435 19.6589 24.1076 19.6712L19.4301 21.375L10.6251 12.5688L12.3289 7.89875C12.341 7.86277 12.3624 7.83063 12.3909 7.8056C12.4194 7.78057 12.4541 7.76354 12.4914 7.75625C12.5084 7.75402 12.5256 7.75402 12.5426 7.75625C12.5718 7.75611 12.6007 7.76192 12.6276 7.77331C12.6544 7.7847 12.6787 7.80143 12.6989 7.8225L24.1839 19.3075C24.2112 19.3325 24.2317 19.3642 24.2433 19.3995C24.2549 19.4347 24.2573 19.4723 24.2501 19.5088ZM20.2501 9C20.2679 8.36285 20.4227 7.73701 20.7039 7.165C21.3214 5.93 22.4914 5.25 24.0001 5.25C24.9339 5.25 25.5664 4.9075 25.9351 4.2025C26.1223 3.82782 26.2296 3.41833 26.2501 3C26.2501 2.80109 26.3291 2.61032 26.4698 2.46967C26.6104 2.32902 26.8012 2.25 27.0001 2.25C27.199 2.25 27.3898 2.32902 27.5304 2.46967C27.6711 2.61032 27.7501 2.80109 27.7501 3C27.7501 4.2975 26.9664 6.75 24.0001 6.75C23.0664 6.75 22.4339 7.0925 22.0651 7.7975C21.8773 8.17195 21.77 8.58157 21.7501 9C21.7501 9.19891 21.6711 9.38968 21.5304 9.53033C21.3898 9.67098 21.199 9.75 21.0001 9.75C20.8012 9.75 20.6104 9.67098 20.4698 9.53033C20.3291 9.38968 20.2501 9.19891 20.2501 9ZM17.2501 5V2C17.2501 1.80109 17.3291 1.61032 17.4698 1.46967C17.6104 1.32902 17.8012 1.25 18.0001 1.25C18.199 1.25 18.3898 1.32902 18.5304 1.46967C18.6711 1.61032 18.7501 1.80109 18.7501 2V5C18.7501 5.19891 18.6711 5.38968 18.5304 5.53033C18.3898 5.67098 18.199 5.75 18.0001 5.75C17.8012 5.75 17.6104 5.67098 17.4698 5.53033C17.3291 5.38968 17.2501 5.19891 17.2501 5ZM29.5301 15.47C29.6038 15.5387 29.6629 15.6215 29.7039 15.7135C29.7449 15.8055 29.7669 15.9048 29.7687 16.0055C29.7705 16.1062 29.752 16.2062 29.7142 16.2996C29.6765 16.393 29.6204 16.4778 29.5492 16.549C29.4779 16.6203 29.3931 16.6764 29.2997 16.7141C29.2063 16.7518 29.1063 16.7704 29.0056 16.7686C28.9049 16.7668 28.8056 16.7448 28.7136 16.7038C28.6216 16.6628 28.5388 16.6037 28.4701 16.53L26.4701 14.53C26.3376 14.3878 26.2655 14.1998 26.2689 14.0055C26.2724 13.8112 26.3511 13.6258 26.4885 13.4884C26.6259 13.351 26.8113 13.2723 27.0056 13.2688C27.1999 13.2654 27.3879 13.3375 27.5301 13.47L29.5301 15.47ZM30.2376 9.71125L27.2376 10.7113C27.1437 10.7447 27.044 10.7591 26.9444 10.7535C26.8448 10.748 26.7473 10.7226 26.6577 10.6789C26.568 10.6352 26.488 10.5741 26.4222 10.4991C26.3565 10.4242 26.3063 10.3368 26.2747 10.2422C26.2432 10.1476 26.2308 10.0477 26.2383 9.94822C26.2458 9.84877 26.273 9.75182 26.3185 9.66303C26.3639 9.57425 26.4266 9.49542 26.5028 9.43115C26.5791 9.36688 26.6674 9.31847 26.7626 9.28875L29.7626 8.28875C29.9501 8.23023 30.153 8.24755 30.3278 8.337C30.5026 8.42644 30.6353 8.58087 30.6975 8.76712C30.7597 8.95337 30.7464 9.15659 30.6604 9.33312C30.5744 9.50965 30.4226 9.64541 30.2376 9.71125Z" fill="white"/>
</svg>
