<svg width="32" height="32" viewBox="0 0 32 32" fill="none" xmlns="http://www.w3.org/2000/svg">
<path d="M25.5298 15.53C25.3892 15.6705 25.1986 15.7494 24.9998 15.7494C24.8011 15.7494 24.6105 15.6705 24.4698 15.53L15.9998 7.06126L7.52985 15.53C7.38767 15.6625 7.19963 15.7346 7.00532 15.7312C6.81102 15.7278 6.62564 15.649 6.48822 15.5116C6.35081 15.3742 6.2721 15.1888 6.26867 14.9945C6.26524 14.8002 6.33737 14.6122 6.46985 14.47L15.4698 5.47001C15.6105 5.32956 15.8011 5.25067 15.9998 5.25067C16.1986 5.25067 16.3892 5.32956 16.5298 5.47001L25.5298 14.47C25.6703 14.6106 25.7492 14.8013 25.7492 15C25.7492 15.1988 25.6703 15.3894 25.5298 15.53Z" fill="white"/>
</svg>
