<svg width="32" height="32" viewBox="0 0 32 32" fill="none" xmlns="http://www.w3.org/2000/svg">
<path d="M28 6.25H4C3.53587 6.25 3.09075 6.43437 2.76256 6.76256C2.43437 7.09075 2.25 7.53587 2.25 8V24C2.25 24.4641 2.43437 24.9092 2.76256 25.2374C3.09075 25.5656 3.53587 25.75 4 25.75H28C28.4641 25.75 28.9092 25.5656 29.2374 25.2374C29.5656 24.9092 29.75 24.4641 29.75 24V8C29.75 7.53587 29.5656 7.09075 29.2374 6.76256C28.9092 6.43437 28.4641 6.25 28 6.25ZM28.25 20.25H27C25.8728 20.25 24.7918 19.8022 23.9948 19.0052C23.1978 18.2082 22.75 17.1272 22.75 16C22.75 14.8728 23.1978 13.7918 23.9948 12.9948C24.7918 12.1978 25.8728 11.75 27 11.75H28.25V20.25ZM3.75 11.75H5C6.12717 11.75 7.20817 12.1978 8.0052 12.9948C8.80223 13.7918 9.25 14.8728 9.25 16C9.25 17.1272 8.80223 18.2082 8.0052 19.0052C7.20817 19.8022 6.12717 20.25 5 20.25H3.75V11.75ZM3.75 24V21.75H5C6.52499 21.75 7.98753 21.1442 9.06586 20.0659C10.1442 18.9875 10.75 17.525 10.75 16C10.75 14.475 10.1442 13.0125 9.06586 11.9341C7.98753 10.8558 6.52499 10.25 5 10.25H3.75V8C3.75 7.9337 3.77634 7.87011 3.82322 7.82322C3.87011 7.77634 3.9337 7.75 4 7.75H15.25V24.25H4C3.9337 24.25 3.87011 24.2237 3.82322 24.1768C3.77634 24.1299 3.75 24.0663 3.75 24ZM28 24.25H16.75V7.75H28C28.0663 7.75 28.1299 7.77634 28.1768 7.82322C28.2237 7.87011 28.25 7.9337 28.25 8V10.25H27C25.475 10.25 24.0125 10.8558 22.9341 11.9341C21.8558 13.0125 21.25 14.475 21.25 16C21.25 17.525 21.8558 18.9875 22.9341 20.0659C24.0125 21.1442 25.475 21.75 27 21.75H28.25V24C28.25 24.0663 28.2237 24.1299 28.1768 24.1768C28.1299 24.2237 28.0663 24.25 28 24.25Z" fill="white"/>
</svg>
