<svg width="32" height="32" viewBox="0 0 32 32" fill="none" xmlns="http://www.w3.org/2000/svg">
<path d="M12.75 24C12.75 24.1989 12.671 24.3897 12.5304 24.5303C12.3897 24.671 12.1989 24.75 12 24.75H10C9.80111 24.75 9.61035 24.671 9.4697 24.5303C9.32904 24.3897 9.25003 24.1989 9.25003 24C9.25003 23.8011 9.32904 23.6103 9.4697 23.4697C9.61035 23.329 9.80111 23.25 10 23.25H12C12.1989 23.25 12.3897 23.329 12.5304 23.4697C12.671 23.6103 12.75 23.8011 12.75 24ZM22 23.25H20C19.8011 23.25 19.6103 23.329 19.4697 23.4697C19.329 23.6103 19.25 23.8011 19.25 24C19.25 24.1989 19.329 24.3897 19.4697 24.5303C19.6103 24.671 19.8011 24.75 20 24.75H22C22.1989 24.75 22.3897 24.671 22.5304 24.5303C22.671 24.3897 22.75 24.1989 22.75 24C22.75 23.8011 22.671 23.6103 22.5304 23.4697C22.3897 23.329 22.1989 23.25 22 23.25ZM12.5 14.25C12.2528 14.25 12.0111 14.3233 11.8056 14.4607C11.6 14.598 11.4398 14.7932 11.3452 15.0216C11.2506 15.2501 11.2258 15.5014 11.274 15.7439C11.3223 15.9863 11.4413 16.2091 11.6161 16.3839C11.791 16.5587 12.0137 16.6777 12.2562 16.726C12.4986 16.7742 12.75 16.7495 12.9784 16.6549C13.2068 16.5602 13.402 16.4 13.5394 16.1945C13.6767 15.9889 13.75 15.7472 13.75 15.5C13.75 15.1685 13.6183 14.8505 13.3839 14.6161C13.1495 14.3817 12.8315 14.25 12.5 14.25ZM19.5 14.25C19.2528 14.25 19.0111 14.3233 18.8056 14.4607C18.6 14.598 18.4398 14.7932 18.3452 15.0216C18.2506 15.2501 18.2258 15.5014 18.274 15.7439C18.3223 15.9863 18.4413 16.2091 18.6161 16.3839C18.791 16.5587 19.0137 16.6777 19.2562 16.726C19.4986 16.7742 19.75 16.7495 19.9784 16.6549C20.2068 16.5602 20.402 16.4 20.5394 16.1945C20.6767 15.9889 20.75 15.7472 20.75 15.5C20.75 15.1685 20.6183 14.8505 20.3839 14.6161C20.1495 14.3817 19.8315 14.25 19.5 14.25ZM30.3563 15.1062C30.1921 15.3075 29.9853 15.4696 29.7507 15.5809C29.5161 15.6923 29.2597 15.75 29 15.75H24.75V20.1313C25.5697 20.7152 26.1827 21.5443 26.5007 22.4991C26.8187 23.454 26.8252 24.4851 26.5193 25.4439C26.2134 26.4026 25.6109 27.2395 24.7986 27.8337C23.9864 28.4279 23.0064 28.7487 22 28.75H10C8.99364 28.7487 8.01366 28.4279 7.20142 27.8337C6.38918 27.2395 5.78666 26.4026 5.48074 25.4439C5.17483 24.4851 5.18133 23.454 5.49932 22.4991C5.81731 21.5443 6.43035 20.7152 7.25003 20.1313V15.75H3.00003C2.73994 15.7504 2.48303 15.6928 2.24799 15.5815C2.01295 15.4701 1.80569 15.3078 1.64128 15.1062C1.47839 14.9084 1.36158 14.6767 1.29931 14.4281C1.23704 14.1794 1.23088 13.9201 1.28128 13.6687C1.59153 12.1409 2.41997 10.7671 3.62647 9.7797C4.83298 8.79231 6.34349 8.25195 7.90253 8.25H8.76378C7.97916 7.61831 7.34607 6.81882 6.91106 5.91029C6.47605 5.00177 6.25017 4.0073 6.25003 3C6.25003 2.80109 6.32904 2.61032 6.4697 2.46967C6.61035 2.32902 6.80111 2.25 7.00003 2.25C7.19894 2.25 7.3897 2.32902 7.53036 2.46967C7.67101 2.61032 7.75003 2.80109 7.75003 3C7.75003 4.39239 8.30315 5.72774 9.28772 6.71231C10.2723 7.69688 11.6076 8.25 13 8.25H19C20.3924 8.25 21.7278 7.69688 22.7123 6.71231C23.6969 5.72774 24.25 4.39239 24.25 3C24.25 2.80109 24.329 2.61032 24.4697 2.46967C24.6103 2.32902 24.8011 2.25 25 2.25C25.1989 2.25 25.3897 2.32902 25.5304 2.46967C25.671 2.61032 25.75 2.80109 25.75 3C25.7499 4.0073 25.524 5.00177 25.089 5.91029C24.654 6.81882 24.0209 7.61831 23.2363 8.25H24.0975C25.6561 8.25252 27.1661 8.79315 28.372 9.78049C29.578 10.7678 30.4061 12.1413 30.7163 13.6687C30.7667 13.9201 30.7605 14.1794 30.6982 14.4281C30.636 14.6767 30.5192 14.9084 30.3563 15.1062ZM7.25003 14.25V13C7.2495 11.7917 7.71101 10.629 8.54003 9.75H7.90253C6.6897 9.75049 5.51431 10.1701 4.57535 10.9378C3.63639 11.7054 2.99155 12.774 2.75003 13.9625C2.74314 13.9965 2.74406 14.0316 2.75272 14.0651C2.76138 14.0987 2.77756 14.1299 2.80003 14.1562C2.82396 14.1862 2.85443 14.2102 2.88911 14.2264C2.92379 14.2427 2.96174 14.2507 3.00003 14.25H7.25003ZM25.25 24C25.25 23.138 24.9076 22.3114 24.2981 21.7019C23.6886 21.0924 22.862 20.75 22 20.75H10C9.13807 20.75 8.31142 21.0924 7.70193 21.7019C7.09244 22.3114 6.75003 23.138 6.75003 24C6.75003 24.862 7.09244 25.6886 7.70193 26.2981C8.31142 26.9076 9.13807 27.25 10 27.25H22C22.862 27.25 23.6886 26.9076 24.2981 26.2981C24.9076 25.6886 25.25 24.862 25.25 24ZM23.25 19.4175V13C23.25 12.138 22.9076 11.3114 22.2981 10.7019C21.6886 10.0924 20.862 9.75 20 9.75H12C11.1381 9.75 10.3114 10.0924 9.70193 10.7019C9.09244 11.3114 8.75003 12.138 8.75003 13V19.4175C9.15738 19.3063 9.57776 19.2499 10 19.25H22C22.4223 19.2499 22.8427 19.3063 23.25 19.4175ZM29.25 13.9625C29.0085 12.774 28.3637 11.7054 27.4247 10.9378C26.4857 10.1701 25.3104 9.75049 24.0975 9.75H23.46C24.289 10.629 24.7506 11.7917 24.75 13V14.25H29C29.0379 14.2504 29.0754 14.2421 29.1096 14.2259C29.1438 14.2096 29.1739 14.1858 29.1975 14.1562C29.2204 14.1301 29.2371 14.099 29.2462 14.0654C29.2553 14.0319 29.2566 13.9967 29.25 13.9625Z" fill="white"/>
</svg>
