<svg width="32" height="32" viewBox="0 0 32 32" fill="none" xmlns="http://www.w3.org/2000/svg">
<path d="M27 15.25C26.8728 15.25 26.7476 15.2823 26.6363 15.344C26.525 15.4056 26.4312 15.4946 26.3638 15.6025C25.7447 16.6002 25.0471 17.547 24.2775 18.4337L22.0438 6.68374C21.988 6.38695 21.8563 6.10965 21.6616 5.8788C21.467 5.64794 21.2159 5.4714 20.9327 5.36633C20.6496 5.26126 20.3441 5.23125 20.046 5.2792C19.7478 5.32715 19.4671 5.45145 19.2313 5.63999L19.2188 5.64999L16.1525 8.19874C16.1088 8.23239 16.0552 8.25064 16 8.25064C15.9448 8.25064 15.8912 8.23239 15.8475 8.19874L12.7812 5.64499L12.7688 5.63499C12.5329 5.44646 12.2524 5.32214 11.9543 5.27411C11.6562 5.22609 11.3508 5.256 11.0677 5.36093C10.7846 5.46586 10.5335 5.64225 10.3387 5.87295C10.144 6.10365 10.0122 6.38081 9.95625 6.67749L7.72125 18.4362C6.95268 17.5481 6.25551 16.6005 5.63625 15.6025C5.56881 15.4946 5.47502 15.4056 5.36372 15.344C5.25241 15.2823 5.12725 15.25 5 15.25C3.74022 15.25 2.53204 15.7504 1.64124 16.6412C0.750445 17.532 0.25 18.7402 0.25 20C0.25 21.2598 0.750445 22.468 1.64124 23.3587C2.53204 24.2495 3.74022 24.75 5 24.75H27C28.2598 24.75 29.468 24.2495 30.3588 23.3587C31.2496 22.468 31.75 21.2598 31.75 20C31.75 18.7402 31.2496 17.532 30.3588 16.6412C29.468 15.7504 28.2598 15.25 27 15.25ZM11.43 6.95624C11.4379 6.91429 11.4564 6.87506 11.4837 6.84228C11.511 6.8095 11.5463 6.78426 11.5862 6.76897C11.626 6.75368 11.6691 6.74885 11.7114 6.75494C11.7536 6.76103 11.7936 6.77783 11.8275 6.80374L14.895 9.35749L14.9062 9.36749C15.216 9.61751 15.602 9.75388 16 9.75388C16.398 9.75388 16.784 9.61751 17.0938 9.36749L17.105 9.35749L20.1725 6.80374C20.2065 6.77782 20.2466 6.76104 20.2889 6.75503C20.3312 6.74901 20.3744 6.75395 20.4143 6.76937C20.4542 6.7848 20.4894 6.81019 20.5167 6.84313C20.5439 6.87606 20.5623 6.91544 20.57 6.95749L22.3363 16.25H9.66375L11.43 6.95624ZM5 23.25C4.1717 23.251 3.37426 22.9358 2.77059 22.3686C2.16691 21.8015 1.80257 21.0252 1.75198 20.1985C1.7014 19.3717 1.96839 18.5568 2.49842 17.9203C3.02844 17.2838 3.7815 16.8737 4.60375 16.7737C6.8125 20.18 9.19125 22.1312 11.2025 23.25H5ZM16 23.25C15.9575 23.25 12.6613 23.1987 9 19.7612L9.375 17.75H22.625L23 19.7562C21.9321 20.7768 20.7142 21.628 19.3888 22.28C17.4225 23.2262 16.01 23.25 16 23.25ZM27 23.25H20.7975C22.8088 22.1312 25.1875 20.18 27.3962 16.7737C28.2185 16.8737 28.9716 17.2838 29.5016 17.9203C30.0316 18.5568 30.2986 19.3717 30.248 20.1985C30.1974 21.0252 29.8331 21.8015 29.2294 22.3686C28.6257 22.9358 27.8283 23.251 27 23.25Z" fill="white"/>
</svg>
