<svg width="32" height="32" viewBox="0 0 32 32" fill="none" xmlns="http://www.w3.org/2000/svg">
<path d="M30 10.25H13.4637L10.6713 4.665C10.609 4.54028 10.5132 4.43538 10.3946 4.36207C10.2761 4.28877 10.1394 4.24996 10 4.25H6C5.80109 4.25 5.61032 4.32902 5.46967 4.46967C5.32902 4.61032 5.25 4.80109 5.25 5V10.25H3C2.80109 10.25 2.61032 10.329 2.46967 10.4697C2.32902 10.6103 2.25 10.8011 2.25 11C2.25 11.1989 2.32902 11.3897 2.46967 11.5303C2.61032 11.671 2.80109 11.75 3 11.75H5.25V26.25H3C2.80109 26.25 2.61032 26.329 2.46967 26.4697C2.32902 26.6103 2.25 26.8011 2.25 27C2.25 27.1989 2.32902 27.3897 2.46967 27.5303C2.61032 27.671 2.80109 27.75 3 27.75H16C16.1989 27.75 16.3897 27.671 16.5303 27.5303C16.671 27.3897 16.75 27.1989 16.75 27C16.75 26.8011 16.671 26.6103 16.5303 26.4697C16.3897 26.329 16.1989 26.25 16 26.25H13.75V11.75H26.25V23C26.25 23.0663 26.2237 23.1299 26.1768 23.1768C26.1299 23.2237 26.0663 23.25 26 23.25H24C23.9337 23.25 23.8701 23.2237 23.8232 23.1768C23.7763 23.1299 23.75 23.0663 23.75 23V22C23.75 21.8011 23.671 21.6103 23.5303 21.4697C23.3897 21.329 23.1989 21.25 23 21.25C22.8011 21.25 22.6103 21.329 22.4697 21.4697C22.329 21.6103 22.25 21.8011 22.25 22V23C22.25 23.4641 22.4344 23.9092 22.7626 24.2374C23.0908 24.5656 23.5359 24.75 24 24.75H26C26.4641 24.75 26.9092 24.5656 27.2374 24.2374C27.5656 23.9092 27.75 23.4641 27.75 23V11.75H30C30.1989 11.75 30.3897 11.671 30.5303 11.5303C30.671 11.3897 30.75 11.1989 30.75 11C30.75 10.8011 30.671 10.6103 30.5303 10.4697C30.3897 10.329 30.1989 10.25 30 10.25ZM6.75 5.75H9.53625L11.7863 10.25H6.75V5.75ZM6.75 26.25V19.75H12.25V26.25H6.75ZM12.25 18.25H6.75V11.75H12.25V18.25Z" fill="white"/>
</svg>
