<svg width="32" height="32" viewBox="0 0 32 32" fill="none" xmlns="http://www.w3.org/2000/svg">
<path d="M28.3862 2.35753C28.2752 2.29089 28.1488 2.25414 28.0193 2.25085C27.8899 2.24757 27.7618 2.27786 27.6475 2.33878L12.8125 10.25H4C3.53587 10.25 3.09075 10.4344 2.76256 10.7626C2.43437 11.0908 2.25 11.5359 2.25 12V25C2.25 25.4642 2.43437 25.9093 2.76256 26.2375C3.09075 26.5657 3.53587 26.75 4 26.75H15C15.4641 26.75 15.9092 26.5657 16.2374 26.2375C16.5656 25.9093 16.75 25.4642 16.75 25V21C16.7496 20.9273 16.7391 20.8549 16.7188 20.785L13.895 11.375L27.25 4.25003V20C27.25 20.0663 27.2237 20.1299 27.1768 20.1768C27.1299 20.2237 27.0663 20.25 27 20.25H25C24.9337 20.25 24.8701 20.2237 24.8232 20.1768C24.7763 20.1299 24.75 20.0663 24.75 20V19C24.75 18.8011 24.671 18.6103 24.5303 18.4697C24.3897 18.329 24.1989 18.25 24 18.25C23.8011 18.25 23.6103 18.329 23.4697 18.4697C23.329 18.6103 23.25 18.8011 23.25 19V20C23.25 20.4642 23.4344 20.9093 23.7626 21.2375C24.0908 21.5657 24.5359 21.75 25 21.75H27C27.4641 21.75 27.9092 21.5657 28.2374 21.2375C28.5656 20.9093 28.75 20.4642 28.75 20V3.00003C28.7499 2.87066 28.7164 2.7435 28.6527 2.63092C28.5889 2.51834 28.4971 2.42416 28.3862 2.35753ZM12.4425 11.75L14.9925 20.25H7.75V11.75H12.4425ZM4 11.75H6.25V20.25H3.75V12C3.75 11.9337 3.77634 11.8701 3.82322 11.8233C3.87011 11.7764 3.9337 11.75 4 11.75ZM15 25.25H4C3.9337 25.25 3.87011 25.2237 3.82322 25.1768C3.77634 25.1299 3.75 25.0663 3.75 25V21.75H15.25V25C15.25 25.0663 15.2237 25.1299 15.1768 25.1768C15.1299 25.2237 15.0663 25.25 15 25.25Z" fill="white"/>
</svg>
