<svg width="32" height="32" viewBox="0 0 32 32" fill="none" xmlns="http://www.w3.org/2000/svg">
<path d="M30.2374 10.3487L23.6512 3.76249C23.323 3.43464 22.8781 3.25049 22.4143 3.25049C21.9504 3.25049 21.5056 3.43464 21.1774 3.76249L7.76241 17.1775C7.43456 17.5056 7.25041 17.9505 7.25041 18.4144C7.25041 18.8782 7.43456 19.3231 7.76241 19.6512L10.5249 22.4137L4.46991 28.47C4.39622 28.5387 4.33712 28.6215 4.29613 28.7135C4.25514 28.8055 4.23309 28.9048 4.23132 29.0055C4.22954 29.1062 4.24807 29.2062 4.28579 29.2996C4.32351 29.393 4.37965 29.4778 4.45087 29.549C4.52209 29.6202 4.60692 29.6764 4.70031 29.7141C4.7937 29.7518 4.89373 29.7704 4.99443 29.7686C5.09513 29.7668 5.19445 29.7448 5.28645 29.7038C5.37845 29.6628 5.46125 29.6037 5.52991 29.53L11.5862 23.475L14.3487 26.2375C14.6768 26.5653 15.1217 26.7495 15.5855 26.7495C16.0494 26.7495 16.4943 26.5653 16.8224 26.2375L30.2374 12.8225C30.5653 12.4943 30.7494 12.0495 30.7494 11.5856C30.7494 11.1218 30.5653 10.6769 30.2374 10.3487ZM15.7624 25.1775C15.7392 25.2007 15.7116 25.2192 15.6813 25.2318C15.6509 25.2443 15.6184 25.2508 15.5855 25.2508C15.5527 25.2508 15.5201 25.2443 15.4898 25.2318C15.4594 25.2192 15.4319 25.2007 15.4087 25.1775L12.6462 22.4137L16.5299 18.53C16.6624 18.3878 16.7345 18.1998 16.7311 18.0055C16.7277 17.8112 16.6489 17.6258 16.5115 17.4884C16.3741 17.351 16.1887 17.2722 15.9944 17.2688C15.8001 17.2654 15.6121 17.3375 15.4699 17.47L11.5862 21.3537L8.82241 18.5912C8.79917 18.568 8.78073 18.5405 8.76814 18.5101C8.75556 18.4798 8.74909 18.4472 8.74909 18.4144C8.74909 18.3815 8.75556 18.349 8.76814 18.3186C8.78073 18.2883 8.79917 18.2607 8.82241 18.2375L13.3099 13.75H20.2499V20.69L15.7624 25.1775ZM29.1774 11.7625L21.7499 19.19V13C21.7499 12.8011 21.6709 12.6103 21.5302 12.4697C21.3896 12.329 21.1988 12.25 20.9999 12.25H14.8099L22.2374 4.82249C22.2606 4.79925 22.2882 4.78081 22.3185 4.76822C22.3489 4.75564 22.3814 4.74917 22.4143 4.74917C22.4471 4.74917 22.4797 4.75564 22.51 4.76822C22.5404 4.78081 22.5679 4.79925 22.5912 4.82249L29.1774 11.4087C29.2007 11.432 29.2191 11.4595 29.2317 11.4899C29.2443 11.5202 29.2507 11.5528 29.2507 11.5856C29.2507 11.6185 29.2443 11.651 29.2317 11.6813C29.2191 11.7117 29.2007 11.7393 29.1774 11.7625ZM7.49991 10.75C8.1427 10.75 8.77105 10.5594 9.30551 10.2023C9.83997 9.84515 10.2565 9.33757 10.5025 8.74371C10.7485 8.14985 10.8129 7.49638 10.6875 6.86595C10.5621 6.23551 10.2525 5.65641 9.79801 5.20189C9.34349 4.74737 8.76439 4.43784 8.13395 4.31244C7.50351 4.18704 6.85005 4.2514 6.25619 4.49738C5.66233 4.74337 5.15475 5.15993 4.79763 5.69439C4.44052 6.22885 4.24991 6.8572 4.24991 7.49999C4.24991 8.36194 4.59232 9.18859 5.20181 9.79809C5.81131 10.4076 6.63796 10.75 7.49991 10.75ZM7.49991 5.74999C7.84603 5.74999 8.18437 5.85263 8.47216 6.04492C8.75994 6.23721 8.98424 6.51052 9.1167 6.83029C9.24915 7.15006 9.28381 7.50193 9.21628 7.8414C9.14876 8.18086 8.98209 8.49268 8.73735 8.73743C8.4926 8.98217 8.18078 9.14884 7.84132 9.21636C7.50185 9.28389 7.14998 9.24923 6.83021 9.11678C6.51044 8.98432 6.23713 8.76002 6.04484 8.47224C5.85254 8.18445 5.74991 7.84611 5.74991 7.49999C5.74991 7.03586 5.93428 6.59074 6.26247 6.26255C6.59066 5.93436 7.03578 5.74999 7.49991 5.74999Z" fill="white"/>
</svg>
