<svg width="32" height="32" viewBox="0 0 32 32" fill="none" xmlns="http://www.w3.org/2000/svg">
<path d="M25 9.25H19.75V4C19.75 3.53587 19.5656 3.09075 19.2374 2.76256C18.9092 2.43437 18.4641 2.25 18 2.25H14C13.5359 2.25 13.0908 2.43437 12.7626 2.76256C12.4344 3.09075 12.25 3.53587 12.25 4V9.25H7C6.53587 9.25 6.09075 9.43437 5.76256 9.76256C5.43437 10.0908 5.25 10.5359 5.25 11V15C5.25 15.4641 5.43437 15.9092 5.76256 16.2374C6.09075 16.5656 6.53587 16.75 7 16.75H12.25V28C12.25 28.4641 12.4344 28.9092 12.7626 29.2374C13.0908 29.5656 13.5359 29.75 14 29.75H18C18.4641 29.75 18.9092 29.5656 19.2374 29.2374C19.5656 28.9092 19.75 28.4641 19.75 28V16.75H25C25.4641 16.75 25.9092 16.5656 26.2374 16.2374C26.5656 15.9092 26.75 15.4641 26.75 15V11C26.75 10.5359 26.5656 10.0908 26.2374 9.76256C25.9092 9.43437 25.4641 9.25 25 9.25ZM25.25 15C25.25 15.0663 25.2237 15.1299 25.1768 15.1768C25.1299 15.2237 25.0663 15.25 25 15.25H19C18.8011 15.25 18.6103 15.329 18.4697 15.4697C18.329 15.6103 18.25 15.8011 18.25 16V28C18.25 28.0663 18.2237 28.1299 18.1768 28.1768C18.1299 28.2237 18.0663 28.25 18 28.25H14C13.9337 28.25 13.8701 28.2237 13.8232 28.1768C13.7763 28.1299 13.75 28.0663 13.75 28V16C13.75 15.8011 13.671 15.6103 13.5303 15.4697C13.3897 15.329 13.1989 15.25 13 15.25H7C6.9337 15.25 6.87011 15.2237 6.82322 15.1768C6.77634 15.1299 6.75 15.0663 6.75 15V11C6.75 10.9337 6.77634 10.8701 6.82322 10.8232C6.87011 10.7763 6.9337 10.75 7 10.75H13C13.1989 10.75 13.3897 10.671 13.5303 10.5303C13.671 10.3897 13.75 10.1989 13.75 10V4C13.75 3.9337 13.7763 3.87011 13.8232 3.82322C13.8701 3.77634 13.9337 3.75 14 3.75H18C18.0663 3.75 18.1299 3.77634 18.1768 3.82322C18.2237 3.87011 18.25 3.9337 18.25 4V10C18.25 10.1989 18.329 10.3897 18.4697 10.5303C18.6103 10.671 18.8011 10.75 19 10.75H25C25.0663 10.75 25.1299 10.7763 25.1768 10.8232C25.2237 10.8701 25.25 10.9337 25.25 11V15Z" fill="white"/>
</svg>
