<svg width="32" height="32" viewBox="0 0 32 32" fill="none" xmlns="http://www.w3.org/2000/svg">
<path d="M30.75 10C30.7504 9.48317 30.6276 8.97368 30.3917 8.51381C30.1558 8.05395 29.8137 7.65696 29.3936 7.35582C28.9736 7.05467 28.4878 6.85804 27.9766 6.78225C27.4653 6.70646 26.9433 6.75369 26.454 6.92003C25.9647 7.08636 25.5221 7.367 25.1629 7.73865C24.8037 8.11031 24.5384 8.56226 24.3889 9.057C24.2394 9.55174 24.21 10.075 24.3033 10.5834C24.3965 11.0917 24.6096 11.5705 24.925 11.98L21.1962 16.57L17.9462 9.10001C18.4925 8.69111 18.8962 8.12062 19.1002 7.46942C19.3041 6.81822 19.2979 6.11935 19.0824 5.47188C18.8669 4.82441 18.4531 4.26119 17.8996 3.86206C17.3462 3.46293 16.6811 3.24814 15.9987 3.24814C15.3163 3.24814 14.6512 3.46293 14.0978 3.86206C13.5443 4.26119 13.1305 4.82441 12.915 5.47188C12.6995 6.11935 12.6933 6.81822 12.8972 7.46942C13.1012 8.12062 13.5049 8.69111 14.0512 9.10001L10.8012 16.57L7.07495 11.98C7.51661 11.4058 7.75374 10.7004 7.7487 9.97603C7.74367 9.25162 7.49674 8.54965 7.04714 7.98162C6.59755 7.41359 5.97106 7.01205 5.26716 6.84077C4.56327 6.6695 3.82233 6.73831 3.16201 7.03628C2.5017 7.33425 1.95987 7.84429 1.62256 8.48541C1.28526 9.12652 1.17183 9.86195 1.30028 10.5749C1.42873 11.2879 1.7917 11.9375 2.33155 12.4205C2.8714 12.9036 3.55717 13.1925 4.27995 13.2413L6.12495 24.2875C6.19291 24.6955 6.4032 25.0663 6.71852 25.334C7.03384 25.6018 7.43381 25.7491 7.84745 25.75H24.1525C24.5661 25.7491 24.9661 25.6018 25.2814 25.334C25.5967 25.0663 25.807 24.6955 25.875 24.2875L27.7162 13.2413C28.5386 13.1864 29.3095 12.8211 29.8727 12.2194C30.436 11.6176 30.7496 10.8243 30.75 10ZM16 4.75001C16.3461 4.75001 16.6844 4.85265 16.9722 5.04494C17.26 5.23723 17.4843 5.51054 17.6167 5.83032C17.7492 6.15009 17.7839 6.50195 17.7163 6.84142C17.6488 7.18089 17.4821 7.49271 17.2374 7.73745C16.9926 7.98219 16.6808 8.14886 16.3414 8.21639C16.0019 8.28391 15.65 8.24925 15.3303 8.1168C15.0105 7.98435 14.7372 7.76005 14.5449 7.47226C14.3526 7.18447 14.25 6.84613 14.25 6.50001C14.25 6.03588 14.4343 5.59076 14.7625 5.26257C15.0907 4.93439 15.5358 4.75001 16 4.75001ZM2.74995 10C2.74995 9.65389 2.85259 9.31555 3.04488 9.02776C3.23717 8.73998 3.51049 8.51568 3.83026 8.38322C4.15003 8.25077 4.5019 8.21611 4.84136 8.28364C5.18083 8.35116 5.49265 8.51783 5.73739 8.76257C5.98213 9.00732 6.1488 9.31914 6.21633 9.6586C6.28385 9.99807 6.2492 10.3499 6.11674 10.6697C5.98429 10.9895 5.75999 11.2628 5.4722 11.4551C5.18442 11.6474 4.84607 11.75 4.49995 11.75C4.03583 11.75 3.59071 11.5656 3.26252 11.2374C2.93433 10.9093 2.74995 10.4641 2.74995 10ZM24.4 24.0413C24.3901 24.1002 24.3595 24.1536 24.3136 24.1919C24.2678 24.2302 24.2097 24.2508 24.15 24.25H7.84745C7.78771 24.2508 7.72966 24.2302 7.6838 24.1919C7.63794 24.1536 7.60731 24.1002 7.59745 24.0413L5.75995 13L5.91245 12.9313L10.4125 18.4763C10.4837 18.5629 10.5734 18.6325 10.6751 18.6799C10.7768 18.7273 10.8878 18.7512 11 18.75C11.0338 18.75 11.0677 18.7475 11.1012 18.7425C11.2288 18.7251 11.3498 18.6751 11.4524 18.5974C11.5551 18.5197 11.6361 18.4168 11.6875 18.2988L15.4275 9.69876C15.8061 9.76708 16.1938 9.76708 16.5725 9.69876L20.3125 18.2988C20.3639 18.4168 20.4448 18.5197 20.5475 18.5974C20.6501 18.6751 20.7711 18.7251 20.8987 18.7425C20.9322 18.7475 20.9661 18.75 21 18.75C21.1116 18.75 21.2218 18.7251 21.3226 18.6771C21.4233 18.6291 21.5121 18.5592 21.5825 18.4725L26.0825 12.9275L26.235 12.9963L24.4 24.0413ZM27.5 11.75C27.1538 11.75 26.8155 11.6474 26.5277 11.4551C26.2399 11.2628 26.0156 10.9895 25.8832 10.6697C25.7507 10.3499 25.7161 9.99807 25.7836 9.6586C25.8511 9.31914 26.0178 9.00732 26.2625 8.76257C26.5073 8.51783 26.8191 8.35116 27.1585 8.28364C27.498 8.21611 27.8499 8.25077 28.1697 8.38322C28.4894 8.51568 28.7627 8.73998 28.955 9.02776C29.1473 9.31555 29.25 9.65389 29.25 10C29.25 10.4641 29.0656 10.9093 28.7374 11.2374C28.4092 11.5656 27.9641 11.75 27.5 11.75Z" fill="white"/>
</svg>
