<svg width="32" height="32" viewBox="0 0 32 32" fill="none" xmlns="http://www.w3.org/2000/svg">
<path d="M28.75 9.425C28.4077 9.25817 28.02 9.20866 27.6468 9.28412C27.2736 9.35958 26.9356 9.5558 26.685 9.8425L22.2175 14.6575L17.5888 4.26625C17.4483 3.96216 17.2234 3.70478 16.941 3.52469C16.6585 3.3446 16.3303 3.24936 15.9953 3.25028C15.6603 3.2512 15.3327 3.34825 15.0512 3.52989C14.7697 3.71153 14.5463 3.97014 14.4075 4.275L9.78251 14.6575L5.31001 9.8425C5.0571 9.55745 4.71805 9.36274 4.34439 9.28796C3.97072 9.21318 3.58286 9.26242 3.23973 9.42818C2.8966 9.59395 2.61696 9.86719 2.44328 10.2064C2.26961 10.5456 2.21141 10.9322 2.27751 11.3075C2.27751 11.3175 2.27751 11.3275 2.28376 11.3375L5.12501 24.3213C5.19977 24.7216 5.41183 25.0834 5.72466 25.3442C6.03748 25.605 6.43148 25.7485 6.83876 25.75H25.1613C25.5696 25.7499 25.9651 25.6071 26.2792 25.3461C26.5933 25.0852 26.8063 24.7227 26.8813 24.3213L29.7163 11.3375C29.7163 11.3275 29.7163 11.3175 29.7225 11.3075C29.7909 10.9304 29.7326 10.5412 29.5567 10.2007C29.3808 9.86018 29.0972 9.58744 28.75 9.425ZM28.25 11.0362L25.4138 24.0138C25.4111 24.0236 25.409 24.0336 25.4075 24.0438C25.3971 24.1022 25.3663 24.1551 25.3205 24.1929C25.2746 24.2307 25.2169 24.2509 25.1575 24.25H6.83876C6.77938 24.2509 6.72162 24.2307 6.67581 24.1929C6.63 24.1551 6.59914 24.1022 6.58876 24.0438C6.58729 24.0336 6.5852 24.0236 6.58251 24.0138L3.75001 11.0362C3.73925 10.9837 3.7474 10.9291 3.77302 10.8819C3.79863 10.8348 3.84007 10.7983 3.89001 10.7787C3.93818 10.7516 3.99451 10.7428 4.04869 10.7538C4.10286 10.7648 4.15126 10.795 4.18501 10.8387L4.20001 10.855L9.45001 16.51C9.53438 16.6009 9.63999 16.6696 9.75738 16.7097C9.87478 16.7498 10.0003 16.7601 10.1227 16.7398C10.2451 16.7195 10.3605 16.6691 10.4586 16.5933C10.5568 16.5174 10.6345 16.4183 10.685 16.305L15.7725 4.895C15.7915 4.85081 15.8234 4.81336 15.864 4.78751C15.9045 4.76165 15.9519 4.74859 16 4.75C16.0464 4.74802 16.0924 4.75992 16.132 4.78419C16.1717 4.80846 16.2032 4.84399 16.2225 4.88625L21.315 16.305C21.3655 16.4183 21.4433 16.5174 21.5414 16.5933C21.6395 16.6691 21.755 16.7195 21.8773 16.7398C21.9997 16.7601 22.1252 16.7498 22.2426 16.7097C22.36 16.6696 22.4656 16.6009 22.55 16.51L27.8 10.855L27.815 10.8387C27.8488 10.795 27.8972 10.7648 27.9513 10.7538C28.0055 10.7428 28.0618 10.7516 28.11 10.7787C28.16 10.7983 28.2014 10.8348 28.227 10.8819C28.2526 10.9291 28.2608 10.9837 28.25 11.0362Z" fill="white"/>
</svg>
