<svg width="32" height="32" viewBox="0 0 32 32" fill="none" xmlns="http://www.w3.org/2000/svg">
<path d="M22.5 7.25C20.1063 7.25 18.0538 8.22375 16.75 9.79V4.75H19C19.1989 4.75 19.3897 4.67098 19.5303 4.53033C19.671 4.38968 19.75 4.19891 19.75 4C19.75 3.80109 19.671 3.61032 19.5303 3.46967C19.3897 3.32902 19.1989 3.25 19 3.25H16.75V1C16.75 0.801088 16.671 0.610322 16.5303 0.46967C16.3897 0.329018 16.1989 0.25 16 0.25C15.8011 0.25 15.6103 0.329018 15.4697 0.46967C15.329 0.610322 15.25 0.801088 15.25 1V3.25H13C12.8011 3.25 12.6103 3.32902 12.4697 3.46967C12.329 3.61032 12.25 3.80109 12.25 4C12.25 4.19891 12.329 4.38968 12.4697 4.53033C12.6103 4.67098 12.8011 4.75 13 4.75H15.25V9.79C13.9462 8.22375 11.8938 7.25 9.5 7.25C7.57789 7.25232 5.73517 8.0169 4.37603 9.37603C3.0169 10.7352 2.25232 12.5779 2.25 14.5C2.25 18.1388 4.02125 20.4525 5.50625 21.75C6.33063 22.4671 7.25753 23.0569 8.25625 23.5V26C8.25625 26.4641 8.44062 26.9092 8.76881 27.2374C9.097 27.5656 9.54212 27.75 10.0063 27.75H22.0063C22.4704 27.75 22.9155 27.5656 23.2437 27.2374C23.5719 26.9092 23.7563 26.4641 23.7563 26V23.5063C24.7532 23.0607 25.6779 22.4687 26.5 21.75C27.985 20.4513 29.7563 18.1375 29.7563 14.5C29.7539 12.5768 28.9885 10.7331 27.628 9.37383C26.2675 8.01451 24.4232 7.25066 22.5 7.25ZM22.7625 22.2887C22.6133 22.3386 22.4835 22.4341 22.3915 22.5617C22.2995 22.6893 22.25 22.8427 22.25 23V26C22.25 26.0663 22.2237 26.1299 22.1768 26.1768C22.1299 26.2237 22.0663 26.25 22 26.25H10C9.9337 26.25 9.87011 26.2237 9.82322 26.1768C9.77634 26.1299 9.75 26.0663 9.75 26V23C9.74997 22.8427 9.70046 22.6893 9.60849 22.5617C9.51651 22.4341 9.38673 22.3386 9.2375 22.2887C9.1825 22.27 3.75 20.3913 3.75 14.5C3.75198 12.9756 4.35842 11.5142 5.43633 10.4363C6.51423 9.35842 7.97561 8.75198 9.5 8.75C12.8313 8.75 15.25 10.9575 15.25 14V22C15.25 22.1989 15.329 22.3897 15.4697 22.5303C15.6103 22.671 15.8011 22.75 16 22.75C16.1989 22.75 16.3897 22.671 16.5303 22.5303C16.671 22.3897 16.75 22.1989 16.75 22V14C16.75 10.9575 19.1688 8.75 22.5 8.75C24.0244 8.75198 25.4858 9.35842 26.5637 10.4363C27.6416 11.5142 28.248 12.9756 28.25 14.5C28.25 20.3625 22.985 22.2137 22.7625 22.2887Z" fill="white"/>
</svg>
