<svg width="32" height="32" viewBox="0 0 32 32" fill="none" xmlns="http://www.w3.org/2000/svg">
<path d="M27.84 8.48749L16.84 2.46624C16.5828 2.3242 16.2938 2.24969 16 2.24969C15.7062 2.24969 15.4172 2.3242 15.16 2.46624L4.16 8.48874C3.88476 8.63934 3.65506 8.86117 3.49497 9.131C3.33487 9.40083 3.25026 9.70874 3.25 10.0225V21.9775C3.25026 22.2912 3.33487 22.5991 3.49497 22.869C3.65506 23.1388 3.88476 23.3606 4.16 23.5112L15.16 29.5337C15.4173 29.6756 15.7062 29.7499 16 29.7499C16.2938 29.7499 16.5827 29.6756 16.84 29.5337L27.84 23.5112C28.1152 23.3606 28.3449 23.1388 28.505 22.869C28.6651 22.5991 28.7497 22.2912 28.75 21.9775V10.0225C28.75 9.70853 28.6655 9.40036 28.5054 9.13029C28.3452 8.86022 28.1154 8.63819 27.84 8.48749ZM15.875 3.78124C15.9118 3.76111 15.9531 3.75056 15.995 3.75056C16.0369 3.75056 16.0782 3.76111 16.115 3.78124L26.5637 9.49999L16 15.28L5.43625 9.49999L15.875 3.78124ZM4.875 22.1962C4.83666 22.1741 4.80489 22.1422 4.78293 22.1038C4.76097 22.0653 4.7496 22.0218 4.75 21.9775V10.8325L15.25 16.5825V27.875L4.875 22.1962ZM27.115 22.1962L16.75 27.875V16.58L27.25 10.83V21.975C27.2508 22.0197 27.2397 22.0638 27.2177 22.1027C27.1957 22.1416 27.1637 22.1739 27.125 22.1962H27.115Z" fill="white"/>
</svg>
