<svg width="32" height="32" viewBox="0 0 32 32" fill="none" xmlns="http://www.w3.org/2000/svg">
<path d="M28.75 6V11C28.75 11.1989 28.671 11.3897 28.5303 11.5303C28.3897 11.671 28.1989 11.75 28 11.75C27.8011 11.75 27.6103 11.671 27.4697 11.5303C27.329 11.3897 27.25 11.1989 27.25 11V6.75H23C22.8011 6.75 22.6103 6.67098 22.4697 6.53033C22.329 6.38968 22.25 6.19891 22.25 6C22.25 5.80109 22.329 5.61032 22.4697 5.46967C22.6103 5.32902 22.8011 5.25 23 5.25H28C28.1989 5.25 28.3897 5.32902 28.5303 5.46967C28.671 5.61032 28.75 5.80109 28.75 6ZM9 25.25H4.75V21C4.75 20.8011 4.67098 20.6103 4.53033 20.4697C4.38968 20.329 4.19891 20.25 4 20.25C3.80109 20.25 3.61032 20.329 3.46967 20.4697C3.32902 20.6103 3.25 20.8011 3.25 21V26C3.25 26.1989 3.32902 26.3897 3.46967 26.5303C3.61032 26.671 3.80109 26.75 4 26.75H9C9.19891 26.75 9.38968 26.671 9.53033 26.5303C9.67098 26.3897 9.75 26.1989 9.75 26C9.75 25.8011 9.67098 25.6103 9.53033 25.4697C9.38968 25.329 9.19891 25.25 9 25.25ZM28 20.25C27.8011 20.25 27.6103 20.329 27.4697 20.4697C27.329 20.6103 27.25 20.8011 27.25 21V25.25H23C22.8011 25.25 22.6103 25.329 22.4697 25.4697C22.329 25.6103 22.25 25.8011 22.25 26C22.25 26.1989 22.329 26.3897 22.4697 26.5303C22.6103 26.671 22.8011 26.75 23 26.75H28C28.1989 26.75 28.3897 26.671 28.5303 26.5303C28.671 26.3897 28.75 26.1989 28.75 26V21C28.75 20.8011 28.671 20.6103 28.5303 20.4697C28.3897 20.329 28.1989 20.25 28 20.25ZM4 11.75C4.19891 11.75 4.38968 11.671 4.53033 11.5303C4.67098 11.3897 4.75 11.1989 4.75 11V6.75H9C9.19891 6.75 9.38968 6.67098 9.53033 6.53033C9.67098 6.38968 9.75 6.19891 9.75 6C9.75 5.80109 9.67098 5.61032 9.53033 5.46967C9.38968 5.32902 9.19891 5.25 9 5.25H4C3.80109 5.25 3.61032 5.32902 3.46967 5.46967C3.32902 5.61032 3.25 5.80109 3.25 6V11C3.25 11.1989 3.32902 11.3897 3.46967 11.5303C3.61032 11.671 3.80109 11.75 4 11.75ZM23.375 20.6513L16.375 24.6513C16.261 24.7171 16.1317 24.7517 16 24.7517C15.8683 24.7517 15.739 24.7171 15.625 24.6513L8.625 20.6513C8.51073 20.5853 8.41589 20.4903 8.35005 20.376C8.28421 20.2616 8.2497 20.1319 8.25 20V12C8.2497 11.8681 8.28421 11.7384 8.35005 11.624C8.41589 11.5097 8.51073 11.4147 8.625 11.3488L15.625 7.34875C15.739 7.28292 15.8683 7.24827 16 7.24827C16.1317 7.24827 16.261 7.28292 16.375 7.34875L23.375 11.3488C23.4893 11.4147 23.5841 11.5097 23.65 11.624C23.7158 11.7384 23.7503 11.8681 23.75 12V20C23.7503 20.1319 23.7158 20.2616 23.65 20.376C23.5841 20.4903 23.4893 20.5853 23.375 20.6513ZM10.5112 12L16 15.1362L21.4888 12L16 8.86375L10.5112 12ZM9.75 19.565L15.25 22.7075V16.435L9.75 13.2925V19.565ZM22.25 19.565V13.2925L16.75 16.435V22.7075L22.25 19.565Z" fill="white"/>
</svg>
