<svg width="32" height="32" viewBox="0 0 32 32" fill="none" xmlns="http://www.w3.org/2000/svg">
<path d="M27.59 15.5362L16.59 1.53623C16.5198 1.44682 16.4303 1.37453 16.3281 1.32481C16.2258 1.2751 16.1137 1.24927 16 1.24927C15.8864 1.24927 15.7742 1.2751 15.672 1.32481C15.5698 1.37453 15.4802 1.44682 15.41 1.53623L4.41001 15.5362C4.306 15.6684 4.24945 15.8318 4.24945 16C4.24945 16.1682 4.306 16.3315 4.41001 16.4637L15.41 30.4637C15.4802 30.5531 15.5698 30.6254 15.672 30.6752C15.7742 30.7249 15.8864 30.7507 16 30.7507C16.1137 30.7507 16.2258 30.7249 16.3281 30.6752C16.4303 30.6254 16.5198 30.5531 16.59 30.4637L27.59 16.4637C27.694 16.3315 27.7506 16.1682 27.7506 16C27.7506 15.8318 27.694 15.6684 27.59 15.5362ZM16.75 4.16873L25.82 15.7125L16.75 19.8375V4.16873ZM15.25 19.835L6.18001 15.71L15.25 4.16873V19.835ZM15.25 21.4825V27.8312L7.49001 17.9562L15.25 21.4825ZM16.75 21.4825L24.51 17.9562L16.75 27.8312V21.4825Z" fill="white"/>
</svg>
