<svg width="32" height="32" viewBox="0 0 32 32" fill="none" xmlns="http://www.w3.org/2000/svg">
<path d="M25.75 10C25.75 10.1989 25.671 10.3897 25.5303 10.5303C25.3897 10.671 25.1989 10.75 25 10.75H20.7113C20.7368 10.9992 20.7498 11.2495 20.75 11.5C20.7477 13.4221 19.9831 15.2648 18.624 16.624C17.2648 17.9831 15.4221 18.7477 13.5 18.75H10.94L20.5 27.445C20.6472 27.5789 20.7352 27.7659 20.7445 27.9646C20.7539 28.1634 20.6839 28.3578 20.55 28.505C20.4161 28.6522 20.2292 28.7402 20.0304 28.7495C19.8316 28.7589 19.6372 28.6889 19.49 28.555L8.49001 18.555C8.37763 18.4529 8.29891 18.319 8.26424 18.1712C8.22958 18.0233 8.24062 17.8684 8.2959 17.727C8.35117 17.5855 8.44808 17.4642 8.57381 17.379C8.69954 17.2939 8.84816 17.2489 9.00001 17.25H13.5C15.0244 17.248 16.4858 16.6416 17.5637 15.5637C18.6416 14.4858 19.248 13.0244 19.25 11.5C19.2492 11.2492 19.2325 10.9987 19.2 10.75H9.00001C8.8011 10.75 8.61034 10.671 8.46968 10.5303C8.32903 10.3897 8.25001 10.1989 8.25001 10C8.25001 9.80109 8.32903 9.61032 8.46968 9.46967C8.61034 9.32902 8.8011 9.25 9.00001 9.25H18.7913C18.3488 8.21268 17.6115 7.32807 16.6709 6.70589C15.7303 6.08372 14.6278 5.75134 13.5 5.75H9.00001C8.8011 5.75 8.61034 5.67098 8.46968 5.53033C8.32903 5.38968 8.25001 5.19891 8.25001 5C8.25001 4.80109 8.32903 4.61032 8.46968 4.46967C8.61034 4.32902 8.8011 4.25 9.00001 4.25H25C25.1989 4.25 25.3897 4.32902 25.5303 4.46967C25.671 4.61032 25.75 4.80109 25.75 5C25.75 5.19891 25.671 5.38968 25.5303 5.53033C25.3897 5.67098 25.1989 5.75 25 5.75H17.9088C19.0691 6.64081 19.9341 7.86045 20.3913 9.25H25C25.1989 9.25 25.3897 9.32902 25.5303 9.46967C25.671 9.61032 25.75 9.80109 25.75 10Z" fill="white"/>
</svg>
