<svg width="32" height="32" viewBox="0 0 32 32" fill="none" xmlns="http://www.w3.org/2000/svg">
<path d="M30 16.25H26.8638L29.695 9.28248C29.7699 9.09815 29.7686 8.89161 29.6912 8.70829C29.6138 8.52498 29.4668 8.3799 29.2825 8.30498C29.0982 8.23005 28.8916 8.23142 28.7083 8.30878C28.525 8.38614 28.3799 8.53315 28.305 8.71748L25.25 16.25H19.75L16.695 8.71748C16.6389 8.57915 16.5428 8.46071 16.419 8.37732C16.2952 8.29393 16.1493 8.24939 16 8.24939C15.8507 8.24939 15.7048 8.29393 15.581 8.37732C15.4572 8.46071 15.3611 8.57915 15.305 8.71748L12.25 16.25H6.75L3.695 8.71748C3.6579 8.62621 3.60319 8.54314 3.53399 8.47301C3.46479 8.40289 3.38245 8.34708 3.29168 8.30878C3.20091 8.27048 3.10349 8.25042 3.00497 8.24977C2.90645 8.24912 2.80877 8.26788 2.7175 8.30498C2.62623 8.34207 2.54316 8.39679 2.47304 8.46599C2.40291 8.53519 2.34711 8.61753 2.3088 8.70829C2.2705 8.79906 2.25045 8.89649 2.2498 8.99501C2.24914 9.09353 2.2679 9.19121 2.305 9.28248L5.13625 16.25H2C1.80109 16.25 1.61032 16.329 1.46967 16.4696C1.32902 16.6103 1.25 16.8011 1.25 17C1.25 17.1989 1.32902 17.3897 1.46967 17.5303C1.61032 17.671 1.80109 17.75 2 17.75H5.75L8.81 25.2825C8.86611 25.4208 8.96222 25.5392 9.08603 25.6226C9.20985 25.706 9.35573 25.7506 9.505 25.7506C9.65427 25.7506 9.80015 25.706 9.92397 25.6226C10.0478 25.5392 10.1439 25.4208 10.2 25.2825L13.25 17.75H18.75L21.81 25.2825C21.8661 25.4208 21.9622 25.5392 22.086 25.6226C22.2098 25.706 22.3557 25.7506 22.505 25.7506C22.6543 25.7506 22.8002 25.706 22.924 25.6226C23.0478 25.5392 23.1439 25.4208 23.2 25.2825L26.25 17.75H30C30.1989 17.75 30.3897 17.671 30.5303 17.5303C30.671 17.3897 30.75 17.1989 30.75 17C30.75 16.8011 30.671 16.6103 30.5303 16.4696C30.3897 16.329 30.1989 16.25 30 16.25ZM9.5 23.0075L7.36375 17.75H11.6362L9.5 23.0075ZM13.8638 16.25L16 10.9925L18.1362 16.25H13.8638ZM22.5 23.0075L20.3638 17.75H24.6362L22.5 23.0075Z" fill="white"/>
</svg>
