<svg width="32" height="32" viewBox="0 0 32 32" fill="none" xmlns="http://www.w3.org/2000/svg">
<path d="M7.25 7C7.25 6.80109 7.32902 6.61032 7.46967 6.46967C7.61032 6.32902 7.80109 6.25 8 6.25H24C24.1989 6.25 24.3897 6.32902 24.5303 6.46967C24.671 6.61032 24.75 6.80109 24.75 7C24.75 7.19891 24.671 7.38968 24.5303 7.53033C24.3897 7.67098 24.1989 7.75 24 7.75H8C7.80109 7.75 7.61032 7.67098 7.46967 7.53033C7.32902 7.38968 7.25 7.19891 7.25 7ZM27 20.25C26.8011 20.25 26.6103 20.329 26.4697 20.4697C26.329 20.6103 26.25 20.8011 26.25 21V23.25H22C21.4033 23.25 20.831 23.0129 20.409 22.591C19.9871 22.169 19.75 21.5967 19.75 21V14.75H26C26.1989 14.75 26.3897 14.671 26.5303 14.5303C26.671 14.3897 26.75 14.1989 26.75 14C26.75 13.8011 26.671 13.6103 26.5303 13.4697C26.3897 13.329 26.1989 13.25 26 13.25H6C5.80109 13.25 5.61032 13.329 5.46967 13.4697C5.32902 13.6103 5.25 13.8011 5.25 14C5.25 14.1989 5.32902 14.3897 5.46967 14.5303C5.61032 14.671 5.80109 14.75 6 14.75H12.25V16C12.2477 17.9221 11.4831 19.7648 10.124 21.124C8.76483 22.4831 6.92211 23.2477 5 23.25C4.80109 23.25 4.61032 23.329 4.46967 23.4697C4.32902 23.6103 4.25 23.8011 4.25 24C4.25 24.1989 4.32902 24.3897 4.46967 24.5303C4.61032 24.671 4.80109 24.75 5 24.75C7.31983 24.7474 9.54389 23.8246 11.1843 22.1843C12.8246 20.5439 13.7474 18.3198 13.75 16V14.75H18.25V21C18.25 21.9946 18.6451 22.9484 19.3483 23.6517C20.0516 24.3549 21.0054 24.75 22 24.75H27C27.1989 24.75 27.3897 24.671 27.5303 24.5303C27.671 24.3897 27.75 24.1989 27.75 24V21C27.75 20.8011 27.671 20.6103 27.5303 20.4697C27.3897 20.329 27.1989 20.25 27 20.25Z" fill="white"/>
</svg>
