<svg width="32" height="32" viewBox="0 0 32 32" fill="none" xmlns="http://www.w3.org/2000/svg">
<path d="M21.8363 14.5513C22.654 13.8772 23.2486 12.9715 23.5419 11.9531C23.8352 10.9348 23.8134 9.85152 23.4795 8.84578C23.1455 7.84004 22.515 6.9589 21.6709 6.31823C20.8268 5.67755 19.8085 5.30733 18.75 5.25625V3C18.75 2.80109 18.671 2.61032 18.5303 2.46967C18.3897 2.32902 18.1989 2.25 18 2.25C17.8011 2.25 17.6103 2.32902 17.4697 2.46967C17.329 2.61032 17.25 2.80109 17.25 3V5.25H14.75V3C14.75 2.80109 14.671 2.61032 14.5303 2.46967C14.3897 2.32902 14.1989 2.25 14 2.25C13.8011 2.25 13.6103 2.32902 13.4697 2.46967C13.329 2.61032 13.25 2.80109 13.25 3V5.25H9C8.80109 5.25 8.61032 5.32902 8.46967 5.46967C8.32902 5.61032 8.25 5.80109 8.25 6C8.25 6.19891 8.32902 6.38968 8.46967 6.53033C8.61032 6.67098 8.80109 6.75 9 6.75H10.25V24.25H9C8.80109 24.25 8.61032 24.329 8.46967 24.4697C8.32902 24.6103 8.25 24.8011 8.25 25C8.25 25.1989 8.32902 25.3897 8.46967 25.5303C8.61032 25.671 8.80109 25.75 9 25.75H13.25V28C13.25 28.1989 13.329 28.3897 13.4697 28.5303C13.6103 28.671 13.8011 28.75 14 28.75C14.1989 28.75 14.3897 28.671 14.5303 28.5303C14.671 28.3897 14.75 28.1989 14.75 28V25.75H17.25V28C17.25 28.1989 17.329 28.3897 17.4697 28.5303C17.6103 28.671 17.8011 28.75 18 28.75C18.1989 28.75 18.3897 28.671 18.5303 28.5303C18.671 28.3897 18.75 28.1989 18.75 28V25.75H20C21.3636 25.7499 22.6828 25.2651 23.7221 24.3823C24.7614 23.4995 25.4531 22.2761 25.6737 20.9304C25.8944 19.5847 25.6296 18.2045 24.9267 17.036C24.2238 15.8675 23.1284 14.9868 21.8363 14.5513ZM22.25 10.5C22.25 11.4946 21.8549 12.4484 21.1517 13.1517C20.4484 13.8549 19.4946 14.25 18.5 14.25H11.75V6.75H18.5C19.4946 6.75 20.4484 7.14509 21.1517 7.84835C21.8549 8.55161 22.25 9.50544 22.25 10.5ZM20 24.25H11.75V15.75H20C21.1272 15.75 22.2082 16.1978 23.0052 16.9948C23.8022 17.7918 24.25 18.8728 24.25 20C24.25 21.1272 23.8022 22.2082 23.0052 23.0052C22.2082 23.8022 21.1272 24.25 20 24.25Z" fill="white"/>
</svg>
