<svg width="32" height="32" viewBox="0 0 32 32" fill="none" xmlns="http://www.w3.org/2000/svg">
<path d="M31 8.25H1C0.801088 8.25 0.610322 8.32902 0.46967 8.46967C0.329018 8.61032 0.25 8.80109 0.25 9C0.25 9.19891 0.329018 9.38968 0.46967 9.53033C0.610322 9.67098 0.801088 9.75 1 9.75H2.25V24C2.25 24.1989 2.32902 24.3897 2.46967 24.5303C2.61032 24.671 2.80109 24.75 3 24.75C3.19891 24.75 3.38968 24.671 3.53033 24.5303C3.67098 24.3897 3.75 24.1989 3.75 24V17.75H28.25V24C28.25 24.1989 28.329 24.3897 28.4697 24.5303C28.6103 24.671 28.8011 24.75 29 24.75C29.1989 24.75 29.3897 24.671 29.5303 24.5303C29.671 24.3897 29.75 24.1989 29.75 24V9.75H31C31.1989 9.75 31.3897 9.67098 31.5303 9.53033C31.671 9.38968 31.75 9.19891 31.75 9C31.75 8.80109 31.671 8.61032 31.5303 8.46967C31.3897 8.32902 31.1989 8.25 31 8.25ZM3.75 9.75H15.25V16.25H3.75V9.75ZM28.25 16.25H16.75V9.75H28.25V16.25ZM11.75 13C11.75 13.1989 11.671 13.3897 11.5303 13.5303C11.3897 13.671 11.1989 13.75 11 13.75H8C7.80109 13.75 7.61032 13.671 7.46967 13.5303C7.32902 13.3897 7.25 13.1989 7.25 13C7.25 12.8011 7.32902 12.6103 7.46967 12.4697C7.61032 12.329 7.80109 12.25 8 12.25H11C11.1989 12.25 11.3897 12.329 11.5303 12.4697C11.671 12.6103 11.75 12.8011 11.75 13ZM20.25 13C20.25 12.8011 20.329 12.6103 20.4697 12.4697C20.6103 12.329 20.8011 12.25 21 12.25H24C24.1989 12.25 24.3897 12.329 24.5303 12.4697C24.671 12.6103 24.75 12.8011 24.75 13C24.75 13.1989 24.671 13.3897 24.5303 13.5303C24.3897 13.671 24.1989 13.75 24 13.75H21C20.8011 13.75 20.6103 13.671 20.4697 13.5303C20.329 13.3897 20.25 13.1989 20.25 13Z" fill="white"/>
</svg>
