<svg width="32" height="32" viewBox="0 0 32 32" fill="none" xmlns="http://www.w3.org/2000/svg">
<path d="M31 14.25H27.3825L21.375 5.97128C21.2174 5.75496 21.0123 5.57768 20.7754 5.45306C20.5386 5.32844 20.2763 5.25981 20.0087 5.25244C19.7412 5.24508 19.4755 5.29918 19.2322 5.41058C18.9888 5.52198 18.7743 5.68771 18.605 5.89503L16.9912 7.76003C16.9847 7.76654 16.9789 7.77365 16.9737 7.78128C16.8566 7.92682 16.7083 8.04426 16.5398 8.12494C16.3713 8.20562 16.1868 8.2475 16 8.2475C15.8132 8.2475 15.6287 8.20562 15.4602 8.12494C15.2917 8.04426 15.1434 7.92682 15.0262 7.78128C15.0211 7.77365 15.0152 7.76654 15.0087 7.76003L13.4 5.89503C13.2308 5.68677 13.016 5.52021 12.7721 5.40822C12.5283 5.29624 12.2619 5.24183 11.9937 5.2492C11.7255 5.25657 11.4625 5.32552 11.2252 5.45073C10.9879 5.57594 10.7825 5.75404 10.625 5.97128L4.6175 14.25H1C0.801088 14.25 0.610322 14.329 0.46967 14.4697C0.329018 14.6104 0.25 14.8011 0.25 15C0.25 15.1989 0.329018 15.3897 0.46967 15.5304C0.610322 15.671 0.801088 15.75 1 15.75H31C31.1989 15.75 31.3897 15.671 31.5303 15.5304C31.671 15.3897 31.75 15.1989 31.75 15C31.75 14.8011 31.671 14.6104 31.5303 14.4697C31.3897 14.329 31.1989 14.25 31 14.25ZM11.8438 6.85253C11.8665 6.82212 11.8958 6.79728 11.9295 6.7799C11.9633 6.76251 12.0005 6.75304 12.0385 6.7522C12.0764 6.75135 12.1141 6.75916 12.1486 6.77503C12.183 6.7909 12.2135 6.81441 12.2375 6.84378L12.2563 6.86503L13.8638 8.73003C14.1207 9.04921 14.446 9.30658 14.8158 9.48313C15.1856 9.65968 15.5903 9.75089 16 9.75003C16.4097 9.75089 16.8144 9.65968 17.1842 9.48313C17.554 9.30658 17.8793 9.04921 18.1362 8.73003L19.75 6.86503L19.7687 6.84378C19.7928 6.81441 19.8232 6.7909 19.8577 6.77503C19.8922 6.75916 19.9298 6.75135 19.9678 6.7522C20.0057 6.75304 20.043 6.76251 20.0767 6.7799C20.1104 6.79728 20.1398 6.82212 20.1625 6.85253L25.5375 14.25H6.47125L11.8438 6.85253ZM22.5 18.25C21.4161 18.2501 20.3732 18.6642 19.5846 19.4077C18.796 20.1513 18.3213 21.168 18.2575 22.25H13.7425C13.6796 21.1904 13.2225 20.1926 12.461 19.453C11.6995 18.7134 10.6889 18.2856 9.62781 18.2536C8.56676 18.2217 7.53218 18.588 6.7276 19.2805C5.92303 19.9729 5.40671 20.9414 5.28023 21.9954C5.15376 23.0493 5.42628 24.1125 6.04418 24.9756C6.66209 25.8388 7.58064 26.4394 8.61911 26.6594C9.65759 26.8795 10.7408 26.7029 11.6556 26.1644C12.5705 25.626 13.2507 24.7647 13.5625 23.75H18.4375C18.6689 24.5018 19.1043 25.1747 19.6954 25.6937C20.2865 26.2127 21.01 26.5574 21.7854 26.6896C22.5608 26.8218 23.3577 26.7362 24.0873 26.4423C24.817 26.1484 25.4507 25.6578 25.9181 25.0251C26.3854 24.3924 26.668 23.6424 26.7344 22.8586C26.8007 22.0748 26.6483 21.288 26.294 20.5857C25.9397 19.8834 25.3974 19.2932 24.7276 18.8809C24.0577 18.4685 23.2866 18.2501 22.5 18.25ZM9.5 25.25C8.9561 25.25 8.42442 25.0887 7.97218 24.7866C7.51995 24.4844 7.16747 24.0549 6.95933 23.5524C6.75119 23.0499 6.69673 22.497 6.80284 21.9635C6.90895 21.4301 7.17086 20.9401 7.55546 20.5555C7.94005 20.1709 8.43005 19.909 8.9635 19.8029C9.49695 19.6968 10.0499 19.7512 10.5524 19.9594C11.0549 20.1675 11.4844 20.52 11.7865 20.9722C12.0887 21.4244 12.25 21.9561 12.25 22.5C12.25 22.8612 12.1789 23.2188 12.0407 23.5524C11.9025 23.8861 11.6999 24.1892 11.4445 24.4446C11.1892 24.6999 10.886 24.9025 10.5524 25.0407C10.2187 25.1789 9.86114 25.25 9.5 25.25ZM22.5 25.25C21.9561 25.25 21.4244 25.0887 20.9722 24.7866C20.5199 24.4844 20.1675 24.0549 19.9593 23.5524C19.7512 23.0499 19.6967 22.497 19.8028 21.9635C19.909 21.4301 20.1709 20.9401 20.5555 20.5555C20.9401 20.1709 21.4301 19.909 21.9635 19.8029C22.4969 19.6968 23.0499 19.7512 23.5524 19.9594C24.0549 20.1675 24.4844 20.52 24.7865 20.9722C25.0887 21.4244 25.25 21.9561 25.25 22.5C25.25 23.2294 24.9603 23.9289 24.4445 24.4446C23.9288 24.9603 23.2293 25.25 22.5 25.25Z" fill="white"/>
</svg>
