<svg width="32" height="32" viewBox="0 0 32 32" fill="none" xmlns="http://www.w3.org/2000/svg">
<path d="M25.5298 27.53L22.5298 30.53C22.3877 30.6625 22.1996 30.7346 22.0053 30.7312C21.811 30.7278 21.6256 30.6491 21.4882 30.5117C21.3508 30.3742 21.2721 30.1889 21.2687 29.9946C21.2652 29.8003 21.3373 29.6122 21.4698 29.47L23.1886 27.75H9.99983C9.27048 27.75 8.57101 27.4603 8.05528 26.9446C7.53956 26.4289 7.24983 25.7294 7.24983 25V13C7.24983 12.8011 7.32885 12.6104 7.4695 12.4697C7.61015 12.329 7.80092 12.25 7.99983 12.25C8.19874 12.25 8.38951 12.329 8.53016 12.4697C8.67081 12.6104 8.74983 12.8011 8.74983 13V25C8.74983 25.3316 8.88152 25.6495 9.11594 25.8839C9.35037 26.1183 9.66831 26.25 9.99983 26.25H23.1886L21.4698 24.53C21.3373 24.3879 21.2652 24.1998 21.2687 24.0055C21.2721 23.8112 21.3508 23.6258 21.4882 23.4884C21.6256 23.351 21.811 23.2723 22.0053 23.2689C22.1996 23.2654 22.3877 23.3375 22.5298 23.47L25.5298 26.47C25.6703 26.6107 25.7492 26.8013 25.7492 27C25.7492 27.1988 25.6703 27.3894 25.5298 27.53ZM9.99983 8.75003C10.1481 8.7499 10.2929 8.70584 10.4162 8.62342C10.5394 8.541 10.6354 8.42392 10.6921 8.28695C10.7488 8.14999 10.7637 7.99929 10.7348 7.85389C10.7059 7.70849 10.6346 7.57492 10.5298 7.47003L8.81108 5.75003H21.9998C22.3313 5.75003 22.6493 5.88173 22.8837 6.11615C23.1181 6.35057 23.2498 6.66851 23.2498 7.00003V19C23.2498 19.1989 23.3288 19.3897 23.4695 19.5304C23.6101 19.671 23.8009 19.75 23.9998 19.75C24.1987 19.75 24.3895 19.671 24.5302 19.5304C24.6708 19.3897 24.7498 19.1989 24.7498 19V7.00003C24.7498 6.27068 24.4601 5.57121 23.9444 5.05549C23.4286 4.53976 22.7292 4.25003 21.9998 4.25003H8.81108L10.5298 2.53003C10.6623 2.38785 10.7344 2.19981 10.731 2.00551C10.7276 1.81121 10.6489 1.62582 10.5114 1.48841C10.374 1.35099 10.1887 1.27228 9.99435 1.26885C9.80005 1.26543 9.612 1.33755 9.46983 1.47003L6.46983 4.47003C6.32938 4.61065 6.25049 4.80128 6.25049 5.00003C6.25049 5.19878 6.32938 5.3894 6.46983 5.53003L9.46983 8.53003C9.61035 8.67072 9.80098 8.74985 9.99983 8.75003Z" fill="white"/>
</svg>
