<svg width="32" height="32" viewBox="0 0 32 32" fill="none" xmlns="http://www.w3.org/2000/svg">
<path d="M26.5551 26.5L6.55515 4.5C6.41785 4.37256 6.23782 4.30111 6.0505 4.29972C5.86317 4.29833 5.6821 4.36709 5.54292 4.49248C5.40374 4.61787 5.31653 4.7908 5.29843 4.97726C5.28034 5.16371 5.33267 5.35019 5.44515 5.5L7.25015 7.49V27C7.25015 27.7293 7.53988 28.4288 8.0556 28.9445C8.57133 29.4603 9.2708 29.75 10.0001 29.75H22.0001C22.7295 29.75 23.429 29.4603 23.9447 28.9445C24.4604 28.4288 24.7501 27.7293 24.7501 27V26.74L25.4451 27.505C25.5791 27.6522 25.766 27.7402 25.9648 27.7495C26.1636 27.7589 26.358 27.6889 26.5051 27.555C26.6523 27.4211 26.7403 27.2341 26.7497 27.0354C26.7591 26.8366 26.6891 26.6422 26.5551 26.495V26.5ZM23.2501 27C23.2501 27.3315 23.1185 27.6495 22.884 27.8839C22.6496 28.1183 22.3317 28.25 22.0001 28.25H10.0001C9.66863 28.25 9.35069 28.1183 9.11626 27.8839C8.88184 27.6495 8.75015 27.3315 8.75015 27V9.14L23.2501 25.09V27ZM8.83765 3C8.83765 2.80109 8.91667 2.61032 9.05732 2.46967C9.19797 2.32902 9.38874 2.25 9.58765 2.25H22.0001C22.7295 2.25 23.429 2.53973 23.9447 3.05546C24.4604 3.57118 24.7501 4.27065 24.7501 5V18.8538C24.7501 19.0527 24.6711 19.2434 24.5305 19.3841C24.3898 19.5247 24.1991 19.6038 24.0001 19.6038C23.8012 19.6038 23.6105 19.5247 23.4698 19.3841C23.3292 19.2434 23.2501 19.0527 23.2501 18.8538V5C23.2501 4.66848 23.1185 4.35054 22.884 4.11612C22.6496 3.8817 22.3317 3.75 22.0001 3.75H9.58765C9.38874 3.75 9.19797 3.67098 9.05732 3.53033C8.91667 3.38968 8.83765 3.19891 8.83765 3Z" fill="white"/>
</svg>
