<svg width="32" height="32" viewBox="0 0 32 32" fill="none" xmlns="http://www.w3.org/2000/svg">
<path d="M29.2401 14.7675L17.2326 2.76C16.9048 2.43482 16.4618 2.25235 16.0001 2.25235C15.5384 2.25235 15.0954 2.43482 14.7676 2.76L2.76009 14.7675C2.43491 15.0953 2.25244 15.5383 2.25244 16C2.25244 16.4617 2.43491 16.9047 2.76009 17.2325L14.7676 29.24C15.0954 29.5652 15.5384 29.7476 16.0001 29.7476C16.4618 29.7476 16.9048 29.5652 17.2326 29.24L29.2326 17.2325C29.3945 17.0707 29.5229 16.8785 29.6106 16.6671C29.6982 16.4556 29.7433 16.2289 29.7433 16C29.7433 15.7711 29.6982 15.5444 29.6106 15.3329C29.5229 15.1215 29.3945 14.9293 29.2326 14.7675H29.2401ZM28.1788 16.1725L16.1726 28.18C16.1261 28.2243 16.0643 28.249 16.0001 28.249C15.9359 28.249 15.8741 28.2243 15.8276 28.18L3.82134 16.1725C3.77701 16.126 3.75229 16.0642 3.75229 16C3.75229 15.9358 3.77701 15.874 3.82134 15.8275L15.8276 3.82C15.8741 3.77567 15.9359 3.75095 16.0001 3.75095C16.0643 3.75095 16.1261 3.77567 16.1726 3.82L28.1788 15.8275C28.2232 15.874 28.2479 15.9358 28.2479 16C28.2479 16.0642 28.2232 16.126 28.1788 16.1725Z" fill="white"/>
</svg>
