<svg width="32" height="32" viewBox="0 0 32 32" fill="none" xmlns="http://www.w3.org/2000/svg">
<path d="M15.47 13.53C15.6106 13.6705 15.8012 13.7494 16 13.7494C16.1987 13.7494 16.3893 13.6705 16.53 13.53L21.53 8.53001C21.6704 8.38939 21.7493 8.19876 21.7493 8.00001C21.7493 7.80126 21.6704 7.61064 21.53 7.47001L16.53 2.47001C16.3893 2.32956 16.1987 2.25067 16 2.25067C15.8012 2.25067 15.6106 2.32956 15.47 2.47001L10.47 7.47001C10.3295 7.61064 10.2506 7.80126 10.2506 8.00001C10.2506 8.19876 10.3295 8.38939 10.47 8.53001L15.47 13.53ZM16 4.06126L19.9387 8.00001L16 11.9388L12.0612 8.00001L16 4.06126ZM16.53 18.47C16.3893 18.3296 16.1987 18.2507 16 18.2507C15.8012 18.2507 15.6106 18.3296 15.47 18.47L10.47 23.47C10.3295 23.6106 10.2506 23.8013 10.2506 24C10.2506 24.1988 10.3295 24.3894 10.47 24.53L15.47 29.53C15.6106 29.6705 15.8012 29.7494 16 29.7494C16.1987 29.7494 16.3893 29.6705 16.53 29.53L21.53 24.53C21.6704 24.3894 21.7493 24.1988 21.7493 24C21.7493 23.8013 21.6704 23.6106 21.53 23.47L16.53 18.47ZM16 27.9388L12.0612 24L16 20.0613L19.9387 24L16 27.9388ZM29.53 15.47L24.53 10.47C24.3893 10.3296 24.1987 10.2507 24 10.2507C23.8012 10.2507 23.6106 10.3296 23.4699 10.47L18.4699 15.47C18.3295 15.6106 18.2506 15.8013 18.2506 16C18.2506 16.1988 18.3295 16.3894 18.4699 16.53L23.4699 21.53C23.6106 21.6705 23.8012 21.7494 24 21.7494C24.1987 21.7494 24.3893 21.6705 24.53 21.53L29.53 16.53C29.6704 16.3894 29.7493 16.1988 29.7493 16C29.7493 15.8013 29.6704 15.6106 29.53 15.47ZM24 19.9388L20.0612 16L24 12.0613L27.9387 16L24 19.9388ZM13.53 15.47L8.52995 10.47C8.38932 10.3296 8.1987 10.2507 7.99995 10.2507C7.8012 10.2507 7.61058 10.3296 7.46995 10.47L2.46995 15.47C2.3295 15.6106 2.25061 15.8013 2.25061 16C2.25061 16.1988 2.3295 16.3894 2.46995 16.53L7.46995 21.53C7.61058 21.6705 7.8012 21.7494 7.99995 21.7494C8.1987 21.7494 8.38932 21.6705 8.52995 21.53L13.53 16.53C13.6704 16.3894 13.7493 16.1988 13.7493 16C13.7493 15.8013 13.6704 15.6106 13.53 15.47ZM7.99995 19.9388L4.0612 16L7.99995 12.0613L11.9387 16L7.99995 19.9388Z" fill="white"/>
</svg>
