<svg width="32" height="32" viewBox="0 0 32 32" fill="none" xmlns="http://www.w3.org/2000/svg">
<path d="M14.75 8.27875V2C14.75 1.80109 14.671 1.61032 14.5303 1.46967C14.3897 1.32902 14.1989 1.25 14 1.25C13.8011 1.25 13.6103 1.32902 13.4697 1.46967C13.329 1.61032 13.25 1.80109 13.25 2V8.27875C10.4707 8.47313 7.87539 9.73897 6.01114 11.8095C4.14689 13.88 3.15931 16.5934 3.25656 19.3778C3.35381 22.1622 4.52829 24.8001 6.53245 26.7355C8.53661 28.6709 11.2139 29.7526 14 29.7526C16.7861 29.7526 19.4634 28.6709 21.4676 26.7355C23.4717 24.8001 24.6462 22.1622 24.7435 19.3778C24.8407 16.5934 23.8531 13.88 21.9889 11.8095C20.1246 9.73897 17.5293 8.47313 14.75 8.27875ZM23.2175 18.25H18.7338C18.5713 14.1763 17.1088 11.4812 15.9388 9.95625C17.8807 10.376 19.6363 11.4087 20.9468 12.9019C22.2574 14.3952 23.0534 16.27 23.2175 18.25ZM10.7675 19.75H17.2325C17.0288 24.4613 14.9413 27.0575 14 28C13.0575 27.0562 10.9713 24.4587 10.7675 19.75ZM10.7675 18.25C10.9713 13.5387 13.0588 10.9425 14 10C14.9425 10.9388 17.0288 13.5363 17.2325 18.25H10.7675ZM12.0613 9.95625C10.8888 11.4812 9.42876 14.1763 9.26626 18.25H4.78251C4.94665 16.27 5.74266 14.3952 7.05317 12.9019C8.36368 11.4087 10.1193 10.376 12.0613 9.95625ZM4.78251 19.75H9.26626C9.42876 23.8237 10.8913 26.5188 12.0613 28.0438C10.1193 27.624 8.36368 26.5913 7.05317 25.0981C5.74266 23.6048 4.94665 21.73 4.78251 19.75ZM15.9388 28.0438C17.1113 26.5188 18.5713 23.8237 18.7338 19.75H23.2175C23.0534 21.73 22.2574 23.6048 20.9468 25.0981C19.6363 26.5913 17.8807 27.624 15.9388 28.0438ZM31.75 11C31.75 11.1989 31.671 11.3897 31.5303 11.5303C31.3897 11.671 31.1989 11.75 31 11.75H29.75V13C29.75 13.1989 29.671 13.3897 29.5303 13.5303C29.3897 13.671 29.1989 13.75 29 13.75C28.8011 13.75 28.6103 13.671 28.4697 13.5303C28.329 13.3897 28.25 13.1989 28.25 13V11.75H27C26.8011 11.75 26.6103 11.671 26.4697 11.5303C26.329 11.3897 26.25 11.1989 26.25 11C26.25 10.8011 26.329 10.6103 26.4697 10.4697C26.6103 10.329 26.8011 10.25 27 10.25H28.25V9C28.25 8.80109 28.329 8.61032 28.4697 8.46967C28.6103 8.32902 28.8011 8.25 29 8.25C29.1989 8.25 29.3897 8.32902 29.5303 8.46967C29.671 8.61032 29.75 8.80109 29.75 9V10.25H31C31.1989 10.25 31.3897 10.329 31.5303 10.4697C31.671 10.6103 31.75 10.8011 31.75 11ZM26 5.75H23.75V8C23.75 8.19891 23.671 8.38968 23.5303 8.53033C23.3897 8.67098 23.1989 8.75 23 8.75C22.8011 8.75 22.6103 8.67098 22.4697 8.53033C22.329 8.38968 22.25 8.19891 22.25 8V5.75H20C19.8011 5.75 19.6103 5.67098 19.4697 5.53033C19.329 5.38968 19.25 5.19891 19.25 5C19.25 4.80109 19.329 4.61032 19.4697 4.46967C19.6103 4.32902 19.8011 4.25 20 4.25H22.25V2C22.25 1.80109 22.329 1.61032 22.4697 1.46967C22.6103 1.32902 22.8011 1.25 23 1.25C23.1989 1.25 23.3897 1.32902 23.5303 1.46967C23.671 1.61032 23.75 1.80109 23.75 2V4.25H26C26.1989 4.25 26.3897 4.32902 26.5303 4.46967C26.671 4.61032 26.75 4.80109 26.75 5C26.75 5.19891 26.671 5.38968 26.5303 5.53033C26.3897 5.67098 26.1989 5.75 26 5.75Z" fill="white"/>
</svg>
