<svg width="32" height="32" viewBox="0 0 32 32" fill="none" xmlns="http://www.w3.org/2000/svg">
<path d="M12.75 17.5C12.75 17.7472 12.6767 17.9889 12.5393 18.1945C12.402 18.4 12.2068 18.5602 11.9784 18.6549C11.75 18.7495 11.4986 18.7742 11.2561 18.726C11.0137 18.6778 10.7909 18.5587 10.6161 18.3839C10.4413 18.2091 10.3223 17.9863 10.274 17.7439C10.2258 17.5014 10.2506 17.2501 10.3452 17.0216C10.4398 16.7932 10.6 16.598 10.8055 16.4607C11.0111 16.3233 11.2528 16.25 11.5 16.25C11.8315 16.25 12.1495 16.3817 12.3839 16.6161C12.6183 16.8505 12.75 17.1685 12.75 17.5ZM20.5 16.25C20.2528 16.25 20.0111 16.3233 19.8055 16.4607C19.6 16.598 19.4398 16.7932 19.3452 17.0216C19.2505 17.2501 19.2258 17.5014 19.274 17.7439C19.3223 17.9863 19.4413 18.2091 19.6161 18.3839C19.7909 18.5587 20.0137 18.6778 20.2561 18.726C20.4986 18.7742 20.75 18.7495 20.9784 18.6549C21.2068 18.5602 21.402 18.4 21.5393 18.1945C21.6767 17.9889 21.75 17.7472 21.75 17.5C21.75 17.1685 21.6183 16.8505 21.3839 16.6161C21.1495 16.3817 20.8315 16.25 20.5 16.25ZM29.705 23.885L21.33 27.5988C21.1026 27.6983 20.857 27.7498 20.6088 27.75C20.2486 27.7504 19.897 27.6407 19.601 27.4356C19.3049 27.2305 19.0787 26.9398 18.9525 26.6025L17.875 23.6788C17.2588 23.725 16.635 23.7513 16 23.7513C15.365 23.7513 14.7425 23.725 14.125 23.6788L13.0463 26.6025C12.9202 26.9396 12.6941 27.2302 12.3983 27.4352C12.1026 27.6403 11.7512 27.7501 11.3913 27.75C11.143 27.7498 10.8975 27.6983 10.67 27.5988L2.29501 23.885C1.91762 23.7184 1.6112 23.4239 1.42983 23.0534C1.24846 22.6829 1.20381 22.2602 1.30376 21.86L5.00001 7.3125C5.08475 6.98181 5.26389 6.68292 5.5156 6.4523C5.7673 6.22169 6.08068 6.06931 6.41751 6.01375L10.925 5.27375C11.3602 5.20296 11.8061 5.29677 12.1758 5.53687C12.5456 5.77698 12.8127 6.14618 12.925 6.5725L13.3863 8.38875C15.1238 8.20375 16.8762 8.20375 18.6138 8.38875L19.075 6.5725C19.1874 6.14618 19.4544 5.77698 19.8242 5.53687C20.1939 5.29677 20.6399 5.20296 21.075 5.27375L25.5825 6.01375C25.9193 6.06931 26.2327 6.22169 26.4844 6.4523C26.7361 6.68292 26.9153 6.98181 27 7.3125L30.6913 21.86C30.7916 22.2596 30.7476 22.6818 30.5672 23.0523C30.3868 23.4227 30.0815 23.7176 29.705 23.885ZM29.2425 22.2288L25.5513 7.68125C25.5378 7.63279 25.5105 7.58929 25.4728 7.55601C25.4351 7.52272 25.3885 7.5011 25.3388 7.49375L20.8313 6.75C20.7666 6.73843 20.6999 6.75117 20.6441 6.78578C20.5882 6.8204 20.5472 6.87443 20.5288 6.9375L20.1088 8.5925C20.8142 8.71366 21.513 8.87053 22.2025 9.0625C22.3807 9.10828 22.5359 9.21797 22.6385 9.3707C22.7411 9.52343 22.784 9.70856 22.759 9.89085C22.734 10.0731 22.6428 10.2399 22.5029 10.3593C22.3629 10.4788 22.184 10.5427 22 10.5388C21.9315 10.5389 21.8633 10.5293 21.7975 10.51C19.9079 9.99727 17.9579 9.74163 16 9.75C14.0421 9.74163 12.0921 9.99727 10.2025 10.51C10.1068 10.5396 10.0062 10.5497 9.90652 10.5398C9.80686 10.5298 9.71021 10.5 9.62225 10.4521C9.5343 10.4042 9.45683 10.3392 9.39442 10.2608C9.33201 10.1825 9.28592 10.0925 9.25886 9.99603C9.23181 9.8996 9.22435 9.79873 9.23692 9.69937C9.24948 9.6 9.28182 9.50416 9.33203 9.4175C9.38223 9.33084 9.44929 9.25511 9.52923 9.19478C9.60918 9.13446 9.7004 9.09075 9.79751 9.06625C10.487 8.87427 11.1858 8.71741 11.8913 8.59625L11.4713 6.94125C11.4539 6.87733 11.4132 6.82225 11.3572 6.78685C11.3012 6.75145 11.234 6.7383 11.1688 6.75L6.66126 7.5C6.6115 7.50735 6.56494 7.52897 6.52722 7.56225C6.4895 7.59554 6.46225 7.63904 6.44876 7.6875L2.75751 22.2288C2.74458 22.2857 2.752 22.3454 2.77849 22.3975C2.80497 22.4495 2.84885 22.4907 2.90251 22.5138L11.2775 26.2263C11.3122 26.2415 11.3496 26.2493 11.3875 26.2493C11.4254 26.2493 11.4628 26.2415 11.4975 26.2263C11.5299 26.2128 11.5593 26.1929 11.5838 26.1678C11.6083 26.1426 11.6274 26.1128 11.64 26.08L12.5875 23.5113C11.6453 23.3801 10.7128 23.1863 9.79626 22.9313C9.69915 22.9067 9.60793 22.863 9.52798 22.8027C9.44804 22.7424 9.38098 22.6667 9.33078 22.58C9.28057 22.4933 9.24823 22.3975 9.23567 22.2981C9.2231 22.1988 9.23056 22.0979 9.25762 22.0015C9.28467 21.905 9.33076 21.815 9.39317 21.7367C9.45558 21.6583 9.53305 21.5933 9.621 21.5454C9.70896 21.4975 9.80562 21.4677 9.90527 21.4577C10.0049 21.4478 10.1056 21.4579 10.2013 21.4875C12.0911 22.0012 14.0416 22.2577 16 22.25C17.9579 22.2584 19.9079 22.0027 21.7975 21.49C21.8932 21.4604 21.9938 21.4503 22.0935 21.4602C22.1932 21.4702 22.2898 21.5 22.3778 21.5479C22.4657 21.5958 22.5432 21.6608 22.6056 21.7392C22.668 21.8175 22.7141 21.9075 22.7412 22.004C22.7682 22.1004 22.7757 22.2013 22.7631 22.3006C22.7505 22.4 22.7182 22.4958 22.668 22.5825C22.6178 22.6692 22.5507 22.7449 22.4708 22.8052C22.3908 22.8655 22.2996 22.9093 22.2025 22.9338C21.286 23.1888 20.3535 23.3826 19.4113 23.5138L20.3588 26.0825C20.3713 26.1153 20.3905 26.1451 20.415 26.1703C20.4395 26.1954 20.4688 26.2153 20.5013 26.2288C20.5359 26.244 20.5734 26.2518 20.6113 26.2518C20.6491 26.2518 20.6866 26.244 20.7213 26.2288L29.0963 22.5163C29.1507 22.4933 29.1952 22.4519 29.222 22.3992C29.2487 22.3466 29.256 22.2862 29.2425 22.2288Z" fill="white"/>
</svg>
