<svg width="32" height="32" viewBox="0 0 32 32" fill="none" xmlns="http://www.w3.org/2000/svg">
<path d="M29 27.25H25.75V5C25.75 4.53587 25.5656 4.09075 25.2374 3.76256C24.9092 3.43437 24.4641 3.25 24 3.25H8C7.53587 3.25 7.09075 3.43437 6.76256 3.76256C6.43437 4.09075 6.25 4.53587 6.25 5V27.25H3C2.80109 27.25 2.61032 27.329 2.46967 27.4697C2.32902 27.6103 2.25 27.8011 2.25 28C2.25 28.1989 2.32902 28.3897 2.46967 28.5303C2.61032 28.671 2.80109 28.75 3 28.75H29C29.1989 28.75 29.3897 28.671 29.5303 28.5303C29.671 28.3897 29.75 28.1989 29.75 28C29.75 27.8011 29.671 27.6103 29.5303 27.4697C29.3897 27.329 29.1989 27.25 29 27.25ZM24.25 5V27.25H21.75V4.75H24C24.0663 4.75 24.1299 4.77634 24.1768 4.82322C24.2237 4.87011 24.25 4.9337 24.25 5ZM7.75 5C7.75 4.9337 7.77634 4.87011 7.82322 4.82322C7.87011 4.77634 7.9337 4.75 8 4.75H20.25V27.25H7.75V5ZM17.75 16.5C17.75 16.7472 17.6767 16.9889 17.5393 17.1945C17.402 17.4 17.2068 17.5602 16.9784 17.6549C16.7499 17.7495 16.4986 17.7742 16.2561 17.726C16.0137 17.6777 15.7909 17.5587 15.6161 17.3839C15.4413 17.2091 15.3222 16.9863 15.274 16.7439C15.2258 16.5014 15.2505 16.2501 15.3452 16.0216C15.4398 15.7932 15.6 15.598 15.8055 15.4607C16.0111 15.3233 16.2528 15.25 16.5 15.25C16.8315 15.25 17.1495 15.3817 17.3839 15.6161C17.6183 15.8505 17.75 16.1685 17.75 16.5Z" fill="white"/>
</svg>
