<svg width="32" height="32" viewBox="0 0 32 32" fill="none" xmlns="http://www.w3.org/2000/svg">
<path d="M27.75 18V26C27.75 26.1989 27.671 26.3897 27.5303 26.5303C27.3897 26.671 27.1989 26.75 27 26.75H5C4.80109 26.75 4.61032 26.671 4.46967 26.5303C4.32902 26.3897 4.25 26.1989 4.25 26V18C4.25 17.8011 4.32902 17.6103 4.46967 17.4697C4.61032 17.329 4.80109 17.25 5 17.25C5.19891 17.25 5.38968 17.329 5.53033 17.4697C5.67098 17.6103 5.75 17.8011 5.75 18V25.25H26.25V18C26.25 17.8011 26.329 17.6103 26.4697 17.4697C26.6103 17.329 26.8011 17.25 27 17.25C27.1989 17.25 27.3897 17.329 27.5303 17.4697C27.671 17.6103 27.75 17.8011 27.75 18ZM15.47 18.53C15.6106 18.6705 15.8012 18.7493 16 18.7493C16.1988 18.7493 16.3894 18.6705 16.53 18.53L21.53 13.53C21.6625 13.3878 21.7346 13.1998 21.7312 13.0055C21.7277 12.8112 21.649 12.6258 21.5116 12.4884C21.3742 12.351 21.1888 12.2723 20.9945 12.2688C20.8002 12.2654 20.6122 12.3375 20.47 12.47L16.75 16.1887V4C16.75 3.80109 16.671 3.61032 16.5303 3.46967C16.3897 3.32902 16.1989 3.25 16 3.25C15.8011 3.25 15.6103 3.32902 15.4697 3.46967C15.329 3.61032 15.25 3.80109 15.25 4V16.1887L11.53 12.47C11.3878 12.3375 11.1998 12.2654 11.0055 12.2688C10.8112 12.2723 10.6258 12.351 10.4884 12.4884C10.351 12.6258 10.2723 12.8112 10.2688 13.0055C10.2654 13.1998 10.3375 13.3878 10.47 13.53L15.47 18.53Z" fill="white"/>
</svg>
