<svg width="32" height="32" viewBox="0 0 32 32" fill="none" xmlns="http://www.w3.org/2000/svg">
<path d="M17.75 24C17.75 24.1989 17.671 24.3897 17.5303 24.5303C17.3897 24.671 17.1989 24.75 17 24.75H15C14.8011 24.75 14.6103 24.671 14.4697 24.5303C14.329 24.3897 14.25 24.1989 14.25 24C14.25 23.8011 14.329 23.6103 14.4697 23.4697C14.6103 23.329 14.8011 23.25 15 23.25H17C17.1989 23.25 17.3897 23.329 17.5303 23.4697C17.671 23.6103 17.75 23.8011 17.75 24ZM15 8.75H17C17.1989 8.75 17.3897 8.67098 17.5303 8.53033C17.671 8.38968 17.75 8.19891 17.75 8C17.75 7.80109 17.671 7.61032 17.5303 7.46967C17.3897 7.32902 17.1989 7.25 17 7.25H15C14.8011 7.25 14.6103 7.32902 14.4697 7.46967C14.329 7.61032 14.25 7.80109 14.25 8C14.25 8.19891 14.329 8.38968 14.4697 8.53033C14.6103 8.67098 14.8011 8.75 15 8.75ZM17 15.25H15C14.8011 15.25 14.6103 15.329 14.4697 15.4697C14.329 15.6103 14.25 15.8011 14.25 16C14.25 16.1989 14.329 16.3897 14.4697 16.5303C14.6103 16.671 14.8011 16.75 15 16.75H17C17.1989 16.75 17.3897 16.671 17.5303 16.5303C17.671 16.3897 17.75 16.1989 17.75 16C17.75 15.8011 17.671 15.6103 17.5303 15.4697C17.3897 15.329 17.1989 15.25 17 15.25ZM26.75 5V27C26.75 27.4641 26.5656 27.9092 26.2374 28.2374C25.9092 28.5656 25.4641 28.75 25 28.75H7C6.53587 28.75 6.09075 28.5656 5.76256 28.2374C5.43437 27.9092 5.25 27.4641 5.25 27V5C5.25 4.53587 5.43437 4.09075 5.76256 3.76256C6.09075 3.43437 6.53587 3.25 7 3.25H25C25.4641 3.25 25.9092 3.43437 26.2374 3.76256C26.5656 4.09075 26.75 4.53587 26.75 5ZM6.75 19.25H25.25V12.75H6.75V19.25ZM6.75 5V11.25H25.25V5C25.25 4.9337 25.2237 4.87011 25.1768 4.82322C25.1299 4.77634 25.0663 4.75 25 4.75H7C6.9337 4.75 6.87011 4.77634 6.82322 4.82322C6.77634 4.87011 6.75 4.9337 6.75 5ZM25.25 27V20.75H6.75V27C6.75 27.0663 6.77634 27.1299 6.82322 27.1768C6.87011 27.2237 6.9337 27.25 7 27.25H25C25.0663 27.25 25.1299 27.2237 25.1768 27.1768C25.2237 27.1299 25.25 27.0663 25.25 27Z" fill="white"/>
</svg>
