<svg width="32" height="32" viewBox="0 0 32 32" fill="none" xmlns="http://www.w3.org/2000/svg">
<path d="M23.53 8.47C23.3894 8.32955 23.1988 8.25066 23 8.25066C22.8013 8.25066 22.6106 8.32955 22.47 8.47L18.69 12.25H13.315L9.53 8.47C9.38783 8.33752 9.19978 8.2654 9.00548 8.26882C8.81118 8.27225 8.62579 8.35096 8.48838 8.48838C8.35097 8.62579 8.27225 8.81118 8.26883 9.00548C8.2654 9.19978 8.33752 9.38782 8.47 9.53L12.25 13.31V18.685L8.47 22.47C8.39632 22.5387 8.33721 22.6215 8.29622 22.7135C8.25523 22.8055 8.23319 22.9048 8.23141 23.0055C8.22963 23.1062 8.24816 23.2062 8.28588 23.2996C8.3236 23.393 8.37975 23.4778 8.45096 23.549C8.52218 23.6203 8.60702 23.6764 8.7004 23.7141C8.79379 23.7518 8.89382 23.7704 8.99452 23.7686C9.09523 23.7668 9.19454 23.7448 9.28654 23.7038C9.37854 23.6628 9.46134 23.6037 9.53 23.53L13.31 19.75H18.685L22.465 23.53C22.6072 23.6625 22.7952 23.7346 22.9895 23.7312C23.1838 23.7277 23.3692 23.649 23.5066 23.5116C23.644 23.3742 23.7227 23.1888 23.7262 22.9945C23.7296 22.8002 23.6575 22.6122 23.525 22.47L19.75 18.69V13.315L23.53 9.535C23.6003 9.46528 23.6561 9.38233 23.6942 9.29093C23.7322 9.19954 23.7519 9.10151 23.7519 9.0025C23.7519 8.90349 23.7322 8.80546 23.6942 8.71407C23.6561 8.62267 23.6003 8.53972 23.53 8.47ZM13.75 13.75H18.25V18.25H13.75V13.75ZM17.5488 7.75C17.8447 6.9142 18.3475 6.16696 19.0103 5.57799C19.673 4.98902 20.4741 4.57749 21.3389 4.3818C22.2037 4.1861 23.104 4.21261 23.9557 4.45886C24.8075 4.7051 25.583 5.16306 26.21 5.79001C26.8369 6.41697 27.2949 7.1925 27.5411 8.04426C27.7874 8.89603 27.8139 9.79629 27.6182 10.6611C27.4225 11.5259 27.011 12.327 26.422 12.9897C25.833 13.6525 25.0858 14.1553 24.25 14.4512C24.1696 14.4793 24.0851 14.4937 24 14.4937C23.8229 14.494 23.6514 14.4316 23.5159 14.3175C23.3804 14.2035 23.2896 14.0451 23.2597 13.8705C23.2297 13.696 23.2625 13.5164 23.3523 13.3637C23.442 13.211 23.5829 13.095 23.75 13.0362C24.3471 12.8249 24.8809 12.4658 25.3017 11.9925C25.7225 11.5191 26.0165 10.9468 26.1563 10.3291C26.2962 9.71133 26.2773 9.06823 26.1014 8.45977C25.9255 7.85132 25.5984 7.29732 25.1505 6.84946C24.7027 6.4016 24.1487 6.07447 23.5402 5.89859C22.9318 5.72271 22.2887 5.70381 21.6709 5.84365C21.0532 5.98349 20.4809 6.27752 20.0075 6.6983C19.5342 7.11909 19.1751 7.65292 18.9638 8.25C18.9309 8.34291 18.8801 8.42844 18.8142 8.50172C18.7483 8.57499 18.6687 8.63457 18.5798 8.67705C18.4908 8.71954 18.3944 8.74409 18.296 8.74931C18.1976 8.75454 18.0992 8.74033 18.0063 8.7075C17.9133 8.67467 17.8278 8.62386 17.7545 8.55797C17.6813 8.49209 17.6217 8.41241 17.5792 8.3235C17.5367 8.23459 17.5122 8.13818 17.5069 8.03978C17.5017 7.94138 17.5159 7.84291 17.5488 7.75ZM27.75 22.5C27.751 23.7392 27.3136 24.9388 26.5153 25.8866C25.7169 26.8343 24.609 27.4692 23.3877 27.6787C22.1663 27.8882 20.9102 27.6589 19.8416 27.0314C18.773 26.4039 17.9608 25.4187 17.5488 24.25C17.4824 24.0624 17.4934 23.8561 17.5792 23.6765C17.665 23.4969 17.8186 23.3588 18.0063 23.2925C18.1939 23.2262 18.4002 23.2371 18.5798 23.3229C18.7593 23.4087 18.8974 23.5624 18.9638 23.75C19.1751 24.3471 19.5342 24.8809 20.0075 25.3017C20.4809 25.7225 21.0532 26.0165 21.6709 26.1563C22.2887 26.2962 22.9318 26.2773 23.5402 26.1014C24.1487 25.9255 24.7027 25.5984 25.1505 25.1505C25.5984 24.7027 25.9255 24.1487 26.1014 23.5402C26.2773 22.9318 26.2962 22.2887 26.1563 21.6709C26.0165 21.0532 25.7225 20.4809 25.3017 20.0075C24.8809 19.5342 24.3471 19.1751 23.75 18.9637C23.5624 18.8974 23.4087 18.7593 23.3229 18.5798C23.2371 18.4002 23.2262 18.1939 23.2925 18.0062C23.3588 17.8186 23.4969 17.665 23.6765 17.5792C23.8561 17.4934 24.0624 17.4824 24.25 17.5487C25.2731 17.9118 26.1588 18.5827 26.7854 19.4692C27.4121 20.3557 27.749 21.4144 27.75 22.5ZM14.4513 24.25C14.1553 25.0858 13.6525 25.833 12.9897 26.422C12.327 27.011 11.5259 27.4225 10.6611 27.6182C9.79629 27.8139 8.89603 27.7874 8.04427 27.5411C7.1925 27.2949 6.41697 26.8369 5.79002 26.21C5.16306 25.583 4.70511 24.8075 4.45886 23.9557C4.21262 23.104 4.1861 22.2037 4.3818 21.3389C4.57749 20.4741 4.98902 19.673 5.57799 19.0103C6.16697 18.3475 6.9142 17.8447 7.75 17.5487C7.84291 17.5159 7.94138 17.5017 8.03978 17.5069C8.13818 17.5122 8.23459 17.5367 8.3235 17.5792C8.41242 17.6217 8.49209 17.6813 8.55798 17.7545C8.62386 17.8278 8.67467 17.9133 8.7075 18.0062C8.74033 18.0992 8.75454 18.1976 8.74932 18.296C8.74409 18.3944 8.71954 18.4908 8.67706 18.5798C8.63457 18.6687 8.57499 18.7483 8.50172 18.8142C8.42845 18.8801 8.34291 18.9309 8.25 18.9637C7.65292 19.1751 7.11909 19.5342 6.69831 20.0075C6.27752 20.4809 5.9835 21.0532 5.84365 21.6709C5.70381 22.2887 5.72271 22.9318 5.89859 23.5402C6.07447 24.1487 6.4016 24.7027 6.84946 25.1505C7.29732 25.5984 7.85132 25.9255 8.45978 26.1014C9.06824 26.2773 9.71133 26.2962 10.3291 26.1563C10.9468 26.0165 11.5191 25.7225 11.9925 25.3017C12.4658 24.8809 12.8249 24.3471 13.0363 23.75C13.1026 23.5624 13.2407 23.4087 13.4203 23.3229C13.5998 23.2371 13.8061 23.2262 13.9938 23.2925C14.1814 23.3588 14.335 23.4969 14.4208 23.6765C14.5066 23.8561 14.5176 24.0624 14.4513 24.25ZM4.25 9.5C4.249 8.26079 4.68637 7.06117 5.48473 6.11341C6.28309 5.16565 7.39098 4.53085 8.61234 4.32132C9.83371 4.1118 11.0898 4.34107 12.1584 4.96856C13.227 5.59605 14.0392 6.58131 14.4513 7.75C14.4841 7.84291 14.4983 7.94138 14.4931 8.03978C14.4878 8.13818 14.4633 8.23459 14.4208 8.3235C14.3783 8.41241 14.3187 8.49209 14.2455 8.55797C14.1722 8.62386 14.0867 8.67467 13.9938 8.7075C13.9008 8.74033 13.8024 8.75454 13.704 8.74931C13.6056 8.74409 13.5092 8.71954 13.4203 8.67705C13.3313 8.63457 13.2517 8.57499 13.1858 8.50172C13.1199 8.42844 13.0691 8.34291 13.0363 8.25C12.8249 7.65292 12.4658 7.11909 11.9925 6.6983C11.5191 6.27752 10.9468 5.98349 10.3291 5.84365C9.71133 5.70381 9.06824 5.72271 8.45978 5.89859C7.85132 6.07447 7.29732 6.4016 6.84946 6.84946C6.4016 7.29732 6.07447 7.85132 5.89859 8.45977C5.72271 9.06823 5.70381 9.71133 5.84365 10.3291C5.9835 10.9468 6.27752 11.5191 6.69831 11.9925C7.11909 12.4658 7.65292 12.8249 8.25 13.0362C8.42189 13.0915 8.56809 13.2069 8.66174 13.3612C8.75539 13.5156 8.79022 13.6986 8.75982 13.8765C8.72942 14.0545 8.63584 14.2156 8.49627 14.3301C8.35669 14.4446 8.18048 14.5049 8 14.5C7.91488 14.4999 7.83037 14.4855 7.75 14.4575C6.72589 14.0941 5.83951 13.4223 5.21276 12.5345C4.58601 11.6468 4.24968 10.5867 4.25 9.5Z" fill="white"/>
</svg>
