<svg width="32" height="32" viewBox="0 0 32 32" fill="none" xmlns="http://www.w3.org/2000/svg">
<path d="M29.4275 18.8838L23.8175 15L29.4275 11.1163C29.527 11.0472 29.6083 10.9551 29.6645 10.8478C29.7207 10.7405 29.75 10.6211 29.75 10.5C29.75 10.3789 29.7207 10.2596 29.6645 10.1522C29.6083 10.0449 29.527 9.95281 29.4275 9.88377L22.9275 5.38377C22.8019 5.29667 22.6528 5.25 22.5 5.25C22.3472 5.25 22.198 5.29667 22.0725 5.38377L16 9.58752L9.92749 5.38377C9.80195 5.29667 9.65279 5.25 9.49999 5.25C9.34719 5.25 9.19804 5.29667 9.07249 5.38377L2.57249 9.88377C2.47297 9.95281 2.39164 10.0449 2.33547 10.1522C2.27931 10.2596 2.24997 10.3789 2.24997 10.5C2.24997 10.6211 2.27931 10.7405 2.33547 10.8478C2.39164 10.9551 2.47297 11.0472 2.57249 11.1163L8.18249 15L2.57249 18.8838C2.47297 18.9528 2.39164 19.0449 2.33547 19.1522C2.27931 19.2596 2.24997 19.3789 2.24997 19.5C2.24997 19.6211 2.27931 19.7405 2.33547 19.8478C2.39164 19.9551 2.47297 20.0472 2.57249 20.1163L9.07249 24.6163C9.19804 24.7034 9.34719 24.75 9.49999 24.75C9.65279 24.75 9.80195 24.7034 9.92749 24.6163L16 20.4125L22.0725 24.6163C22.198 24.7034 22.3472 24.75 22.5 24.75C22.6528 24.75 22.8019 24.7034 22.9275 24.6163L29.4275 20.1163C29.527 20.0472 29.6083 19.9551 29.6645 19.8478C29.7207 19.7405 29.75 19.6211 29.75 19.5C29.75 19.3789 29.7207 19.2596 29.6645 19.1522C29.6083 19.0449 29.527 18.9528 29.4275 18.8838ZM16 18.5875L10.8175 15L16 11.4125L21.1825 15L16 18.5875ZM22.5 6.91252L27.6825 10.5L22.5 14.0875L17.3175 10.5L22.5 6.91252ZM9.49999 6.91252L14.6825 10.5L9.49999 14.0875L4.31749 10.5L9.49999 6.91252ZM9.49999 23.0875L4.31749 19.5L9.49999 15.9125L14.6825 19.5L9.49999 23.0875ZM22.5 23.0875L17.3175 19.5L22.5 15.9125L27.6825 19.5L22.5 23.0875ZM19.6025 26C19.6586 26.0809 19.6983 26.1721 19.7192 26.2684C19.7401 26.3646 19.7418 26.4641 19.7243 26.561C19.7068 26.6579 19.6703 26.7504 19.617 26.8333C19.5638 26.9161 19.4947 26.9876 19.4137 27.0438L16.4275 29.1113C16.3019 29.1984 16.1528 29.245 16 29.245C15.8472 29.245 15.698 29.1984 15.5725 29.1113L12.5862 27.0438C12.4294 26.9279 12.3238 26.7556 12.2919 26.5632C12.2599 26.3709 12.3042 26.1736 12.4152 26.0134C12.5262 25.8531 12.6953 25.7423 12.8866 25.7046C13.0779 25.6669 13.2764 25.7051 13.44 25.8113L16 27.5875L18.56 25.8163C18.7227 25.7028 18.9238 25.6584 19.1192 25.6928C19.3146 25.7273 19.4884 25.8377 19.6025 26Z" fill="white"/>
</svg>
