<svg width="32" height="32" viewBox="0 0 32 32" fill="none" xmlns="http://www.w3.org/2000/svg">
<path d="M21.5662 6.13252C20.0363 4.36296 18.3135 2.76976 16.43 1.38252C16.304 1.29432 16.1538 1.24701 16 1.24701C15.8462 1.24701 15.696 1.29432 15.57 1.38252C13.6865 2.76976 11.9637 4.36296 10.4338 6.13252C7.0425 10.0325 5.25 14.1363 5.25 18C5.25 20.8511 6.38259 23.5854 8.3986 25.6014C10.4146 27.6174 13.1489 28.75 16 28.75C18.8511 28.75 21.5854 27.6174 23.6014 25.6014C25.6174 23.5854 26.75 20.8511 26.75 18C26.75 14.1363 24.9575 10.0325 21.5662 6.13252ZM23.61 23.25H8.39C7.85884 22.4831 7.44668 21.6402 7.1675 20.75H24.8325C24.5533 21.6402 24.1412 22.4831 23.61 23.25ZM6.83625 19.25C6.77966 18.8357 6.75084 18.4181 6.75 18C6.75064 17.5824 6.77401 17.1651 6.82 16.75H25.18C25.226 17.1651 25.2494 17.5824 25.25 18C25.2492 18.4181 25.2203 18.8357 25.1637 19.25H6.83625ZM16 2.93627C17.6412 4.20127 23.4788 9.06877 24.9237 15.25H7.07625C8.52125 9.06877 14.3588 4.20127 16 2.93627ZM9.685 24.75H22.31C20.5997 26.3545 18.3426 27.2475 15.9975 27.2475C13.6524 27.2475 11.3953 26.3545 9.685 24.75Z" fill="white"/>
</svg>
