<svg width="32" height="32" viewBox="0 0 32 32" fill="none" xmlns="http://www.w3.org/2000/svg">
<path d="M21.5662 6.13258C20.0363 4.36303 18.3135 2.76982 16.43 1.38258C16.304 1.29438 16.1538 1.24707 16 1.24707C15.8462 1.24707 15.696 1.29438 15.57 1.38258C13.6865 2.76982 11.9637 4.36303 10.4338 6.13258C7.0425 10.0326 5.25 14.1363 5.25 18.0001C5.25 20.8512 6.38259 23.5855 8.3986 25.6015C10.4146 27.6175 13.1489 28.7501 16 28.7501C18.8511 28.7501 21.5854 27.6175 23.6014 25.6015C25.6174 23.5855 26.75 20.8512 26.75 18.0001C26.75 14.1363 24.9575 10.0326 21.5662 6.13258ZM16 27.2501C13.5477 27.2471 11.1966 26.2716 9.46255 24.5375C7.72848 22.8035 6.75298 20.4524 6.75 18.0001C6.75 10.5476 14.125 4.38383 16 2.93633C17.875 4.38383 25.25 10.5476 25.25 18.0001C25.247 20.4524 24.2715 22.8035 22.5374 24.5375C20.8034 26.2716 18.4523 27.2471 16 27.2501Z" fill="white"/>
</svg>
