<svg width="32" height="32" viewBox="0 0 32 32" fill="none" xmlns="http://www.w3.org/2000/svg">
<path d="M21.5662 6.13252C20.0363 4.36296 18.3135 2.76976 16.43 1.38252C16.304 1.29432 16.1538 1.24701 16 1.24701C15.8462 1.24701 15.696 1.29432 15.57 1.38252C13.6865 2.76976 11.9637 4.36296 10.4338 6.13252C7.0425 10.0325 5.25 14.1363 5.25 18C5.25 20.8511 6.38259 23.5854 8.3986 25.6014C10.4146 27.6174 13.1489 28.75 16 28.75C18.8511 28.75 21.5854 27.6174 23.6014 25.6014C25.6174 23.5854 26.75 20.8511 26.75 18C26.75 14.1363 24.9575 10.0325 21.5662 6.13252ZM25.25 18C25.2492 18.4181 25.2203 18.8357 25.1637 19.25H16.75V16.75H25.18C25.226 17.1651 25.2494 17.5824 25.25 18ZM23.35 11.25H16.75V8.75002H21.7362C22.33 9.54598 22.8691 10.3812 23.35 11.25ZM16.75 24.75H22.315C20.7929 26.1788 18.8309 27.0488 16.75 27.2175V24.75ZM16.75 23.25V20.75H24.8325C24.5533 21.6402 24.1412 22.4831 23.61 23.25H16.75ZM16.75 15.25V12.75H24.0875C24.4407 13.5566 24.7205 14.3933 24.9237 15.25H16.75ZM20.5362 7.25002H16.75V3.53752C18.1122 4.6686 19.3786 5.91033 20.5362 7.25002ZM6.75 18C6.75 11.3225 12.6687 5.68002 15.25 3.53752V27.2175C12.9355 27.0266 10.7773 25.9732 9.20293 24.266C7.62859 22.5587 6.75311 20.3223 6.75 18Z" fill="white"/>
</svg>
