<svg width="32" height="32" viewBox="0 0 32 32" fill="none" xmlns="http://www.w3.org/2000/svg">
<path d="M6.555 4.49999C6.4177 4.37255 6.23767 4.3011 6.05035 4.29971C5.86302 4.29832 5.68195 4.36708 5.54277 4.49247C5.40359 4.61786 5.31638 4.79079 5.29828 4.97725C5.28019 5.1637 5.33253 5.35018 5.445 5.49999L8.4075 8.75874C6.31375 11.8662 5.25 14.9712 5.25 18C5.25022 20.1331 5.88505 22.218 7.07373 23.9892C8.2624 25.7605 9.95117 27.1381 11.9251 27.9467C13.8991 28.7552 16.069 28.9583 18.1587 28.5299C20.2483 28.1016 22.1634 27.0612 23.66 25.5412L25.445 27.5C25.5789 27.6472 25.7659 27.7351 25.9646 27.7445C26.1634 27.7539 26.3578 27.6839 26.505 27.55C26.6522 27.4161 26.7402 27.2291 26.7495 27.0303C26.7589 26.8316 26.6889 26.6372 26.555 26.49L6.555 4.49999ZM16 27.25C13.5477 27.247 11.1966 26.2715 9.46255 24.5374C7.72848 22.8034 6.75298 20.4523 6.75 18C6.75 15.375 7.65875 12.655 9.44875 9.90874L22.6475 24.4275C21.7862 25.3208 20.7536 26.0312 19.6114 26.5162C18.4692 27.0012 17.2409 27.2507 16 27.25ZM11.425 6.13374C11.3536 6.06574 11.2963 5.98433 11.2564 5.89417C11.2165 5.80401 11.1948 5.70687 11.1924 5.6083C11.1901 5.50973 11.2073 5.41167 11.2429 5.31973C11.2785 5.22779 11.3319 5.14378 11.4 5.07249C12.6755 3.72002 14.0713 2.4862 15.57 1.38624C15.696 1.29804 15.8462 1.25073 16 1.25073C16.1538 1.25073 16.304 1.29804 16.43 1.38624C18.3135 2.77349 20.0363 4.36669 21.5662 6.13624C24.9575 10.0325 26.75 14.1362 26.75 18C26.7504 18.9659 26.6209 19.9274 26.365 20.8587C26.3215 21.017 26.2273 21.1567 26.0968 21.2563C25.9662 21.3558 25.8067 21.4098 25.6425 21.41C25.5754 21.4099 25.5086 21.4011 25.4438 21.3837C25.3487 21.3577 25.2597 21.3132 25.1818 21.2527C25.1039 21.1922 25.0388 21.117 24.99 21.0313C24.9412 20.9457 24.9098 20.8512 24.8976 20.7534C24.8854 20.6556 24.8926 20.5563 24.9188 20.4612C25.1393 19.6594 25.2507 18.8316 25.25 18C25.25 10.5462 17.875 4.38249 16 2.93499C14.751 3.90347 13.576 4.96392 12.485 6.10749C12.3479 6.25148 12.1592 6.33513 11.9604 6.34005C11.7617 6.34497 11.5691 6.27077 11.425 6.13374Z" fill="white"/>
</svg>
