<svg width="32" height="32" viewBox="0 0 32 32" fill="none" xmlns="http://www.w3.org/2000/svg">
<path d="M26 19.2499H6C5.53587 19.2499 5.09075 19.4343 4.76256 19.7625C4.43438 20.0907 4.25 20.5358 4.25 20.9999V23.9999C4.25 24.4641 4.43438 24.9092 4.76256 25.2374C5.09075 25.5656 5.53587 25.7499 6 25.7499H26C26.4641 25.7499 26.9092 25.5656 27.2374 25.2374C27.5656 24.9092 27.75 24.4641 27.75 23.9999V20.9999C27.75 20.5358 27.5656 20.0907 27.2374 19.7625C26.9092 19.4343 26.4641 19.2499 26 19.2499ZM26.25 23.9999C26.25 24.0663 26.2237 24.1298 26.1768 24.1767C26.1299 24.2236 26.0663 24.2499 26 24.2499H6C5.9337 24.2499 5.87011 24.2236 5.82322 24.1767C5.77634 24.1298 5.75 24.0663 5.75 23.9999V20.9999C5.75 20.9336 5.77634 20.8701 5.82322 20.8232C5.87011 20.7763 5.9337 20.7499 6 20.7499H26C26.0663 20.7499 26.1299 20.7763 26.1768 20.8232C26.2237 20.8701 26.25 20.9336 26.25 20.9999V23.9999ZM6.03 16.7499H25.97C26.3176 16.7519 26.6582 16.6516 26.9493 16.4616C27.2405 16.2716 27.4693 16.0002 27.6075 15.6812C27.7444 15.3704 27.7852 15.0258 27.7247 14.6916C27.6641 14.3575 27.5048 14.0491 27.2675 13.8062L18.0513 4.12495C17.7858 3.84872 17.4672 3.62896 17.1148 3.47884C16.7623 3.32872 16.3831 3.25134 16 3.25134C15.6169 3.25134 15.2377 3.32872 14.8852 3.47884C14.5328 3.62896 14.2142 3.84872 13.9488 4.12495L4.7325 13.8124C4.49516 14.0553 4.33594 14.3637 4.27535 14.6979C4.21475 15.032 4.25555 15.3767 4.3925 15.6874C4.53162 16.0053 4.76089 16.2754 5.05195 16.4642C5.343 16.6531 5.68305 16.7524 6.03 16.7499ZM5.81875 14.8462L15.035 5.15745C15.1605 5.02848 15.3105 4.92597 15.4762 4.85597C15.642 4.78597 15.8201 4.7499 16 4.7499C16.1799 4.7499 16.358 4.78597 16.5238 4.85597C16.6895 4.92597 16.8395 5.02848 16.965 5.15745L26.1812 14.8462C26.2156 14.8768 26.2389 14.9179 26.2475 14.9631C26.2561 15.0083 26.2495 15.0551 26.2288 15.0962C26.2072 15.1461 26.1708 15.1881 26.1245 15.2165C26.0782 15.2449 26.0242 15.2584 25.97 15.2549H6.03C5.97577 15.2584 5.92181 15.2449 5.8755 15.2165C5.82918 15.1881 5.79277 15.1461 5.77125 15.0962C5.7505 15.0551 5.74391 15.0083 5.7525 14.9631C5.76109 14.9179 5.78438 14.8768 5.81875 14.8462Z" fill="white"/>
</svg>
