<svg width="32" height="32" viewBox="0 0 32 32" fill="none" xmlns="http://www.w3.org/2000/svg">
<path d="M28.75 25C28.75 25.1989 28.671 25.3897 28.5304 25.5304C28.3897 25.671 28.1989 25.75 28 25.75H4.00003C3.80112 25.75 3.61035 25.671 3.4697 25.5304C3.32905 25.3897 3.25003 25.1989 3.25003 25C3.25003 24.8011 3.32905 24.6104 3.4697 24.4697C3.61035 24.329 3.80112 24.25 4.00003 24.25H28C28.1989 24.25 28.3897 24.329 28.5304 24.4697C28.671 24.6104 28.75 24.8011 28.75 25ZM3.42378 18.75C3.27753 18.4491 3.22065 18.1125 3.25986 17.7801C3.29908 17.4478 3.43275 17.1337 3.64503 16.875L13.8525 4.27503C14.1115 3.95499 14.4387 3.69688 14.8103 3.51957C15.1818 3.34226 15.5883 3.25024 16 3.25024C16.4117 3.25024 16.8182 3.34226 17.1898 3.51957C17.5613 3.69688 17.8886 3.95499 18.1475 4.27503L28.355 16.875C28.5659 17.1333 28.699 17.4461 28.7391 17.7771C28.7792 18.1081 28.7245 18.4436 28.5814 18.7447C28.4383 19.0459 28.2127 19.3002 27.9307 19.4781C27.6488 19.6561 27.3222 19.7504 26.9888 19.75H5.01128C4.67904 19.7512 4.35331 19.6578 4.07219 19.4808C3.79107 19.3037 3.56617 19.0502 3.42378 18.75ZM4.77753 18.105C4.79805 18.1494 4.83112 18.1868 4.87267 18.2126C4.91422 18.2383 4.96241 18.2514 5.01128 18.25H26.9888C27.0379 18.2512 27.0863 18.2378 27.1279 18.2115C27.1695 18.1853 27.2024 18.1474 27.2225 18.1025C27.2457 18.0579 27.2549 18.0073 27.2489 17.9573C27.2429 17.9074 27.2219 17.8604 27.1888 17.8225L16.9825 5.22003C16.8642 5.07339 16.7145 4.95509 16.5445 4.87382C16.3745 4.79255 16.1885 4.75037 16 4.75037C15.8116 4.75037 15.6255 4.79255 15.4555 4.87382C15.2855 4.95509 15.1359 5.07339 15.0175 5.22003L4.81128 17.8225C4.77813 17.8604 4.75717 17.9074 4.75115 17.9573C4.74513 18.0073 4.75432 18.0579 4.77753 18.1025V18.105Z" fill="white"/>
</svg>
