<svg width="32" height="32" viewBox="0 0 32 32" fill="none" xmlns="http://www.w3.org/2000/svg">
<path d="M24.4389 7.83249L26.5551 5.49999C26.6314 5.42915 26.6922 5.34319 26.7334 5.24759C26.7747 5.15199 26.7956 5.04884 26.7949 4.94471C26.7941 4.84059 26.7716 4.73776 26.7289 4.64278C26.6862 4.54781 26.6242 4.46276 26.5469 4.39307C26.4695 4.32337 26.3785 4.27054 26.2796 4.23796C26.1807 4.20537 26.0761 4.19374 25.9724 4.20379C25.8688 4.21385 25.7684 4.24538 25.6776 4.29638C25.5868 4.34737 25.5076 4.41671 25.4451 4.49999L23.3289 6.82249C20.9934 4.98475 18.0483 4.10022 15.0868 4.34706C12.1253 4.59389 9.36728 5.95374 7.36828 8.15274C5.36928 10.3517 4.27777 13.2265 4.3136 16.1981C4.34942 19.1697 5.50992 22.0173 7.56135 24.1675L5.4451 26.5C5.33263 26.6498 5.28029 26.8363 5.29838 27.0227C5.31648 27.2092 5.4037 27.3821 5.54288 27.5075C5.68206 27.6329 5.86312 27.7017 6.05045 27.7003C6.23778 27.6989 6.4178 27.6274 6.5551 27.5L8.67135 25.1725C11.0071 27.0027 13.9488 27.8815 16.9056 27.6322C19.8625 27.3829 22.6156 26.0241 24.6119 23.8287C26.6083 21.6333 27.7 18.7638 27.6679 15.7966C27.6358 12.8294 26.4822 9.98421 24.4389 7.83249ZM5.7501 16C5.7484 14.078 6.28758 12.1943 7.306 10.5643C8.32443 8.93429 9.78099 7.62378 11.5091 6.78259C13.2373 5.9414 15.1673 5.60349 17.0784 5.8075C18.9895 6.01151 20.8047 6.74921 22.3164 7.93624L8.57385 23.0537C6.76032 21.1532 5.74899 18.6269 5.7501 16ZM16.0001 26.25C13.7088 26.2516 11.4838 25.4815 9.68385 24.0637L23.4264 8.94624C24.8085 10.3985 25.734 12.2244 26.0883 14.1976C26.4425 16.1708 26.2099 18.2047 25.4193 20.047C24.6286 21.8893 23.3147 23.459 21.6403 24.5617C19.966 25.6643 18.0049 26.2513 16.0001 26.25Z" fill="white"/>
</svg>
