<svg width="32" height="32" viewBox="0 0 32 32" fill="none" xmlns="http://www.w3.org/2000/svg">
<path d="M30 13.25H28.3113L23.8225 8.7625C23.6605 8.59959 23.4679 8.47042 23.2557 8.38245C23.0435 8.29448 22.816 8.24946 22.5863 8.25H17.25V4.75H20.5C20.6989 4.75 20.8897 4.67098 21.0303 4.53033C21.171 4.38968 21.25 4.19891 21.25 4C21.25 3.80109 21.171 3.61032 21.0303 3.46967C20.8897 3.32902 20.6989 3.25 20.5 3.25H12.5C12.3011 3.25 12.1103 3.32902 11.9697 3.46967C11.829 3.61032 11.75 3.80109 11.75 4C11.75 4.19891 11.829 4.38968 11.9697 4.53033C12.1103 4.67098 12.3011 4.75 12.5 4.75H15.75V8.25H8C7.53587 8.25 7.09075 8.43437 6.76256 8.76256C6.43437 9.09075 6.25 9.53587 6.25 10V16.75H2.75V13.5C2.75 13.3011 2.67098 13.1103 2.53033 12.9697C2.38968 12.829 2.19891 12.75 2 12.75C1.80109 12.75 1.61032 12.829 1.46967 12.9697C1.32902 13.1103 1.25 13.3011 1.25 13.5V21.5C1.25 21.6989 1.32902 21.8897 1.46967 22.0303C1.61032 22.171 1.80109 22.25 2 22.25C2.19891 22.25 2.38968 22.171 2.53033 22.0303C2.67098 21.8897 2.75 21.6989 2.75 21.5V18.25H6.25V21.0863C6.24946 21.316 6.29448 21.5435 6.38245 21.7557C6.47042 21.9679 6.59959 22.1605 6.7625 22.3225L11.6775 27.2375C11.8395 27.4004 12.0321 27.5296 12.2443 27.6175C12.4565 27.7055 12.684 27.7505 12.9137 27.75H22.5863C22.816 27.7505 23.0435 27.7055 23.2557 27.6175C23.4679 27.5296 23.6605 27.4004 23.8225 27.2375L28.3113 22.75H30C30.4641 22.75 30.9092 22.5656 31.2374 22.2374C31.5656 21.9092 31.75 21.4641 31.75 21V15C31.75 14.5359 31.5656 14.0908 31.2374 13.7626C30.9092 13.4344 30.4641 13.25 30 13.25ZM30.25 21C30.25 21.0663 30.2237 21.1299 30.1768 21.1768C30.1299 21.2237 30.0663 21.25 30 21.25H28C27.8012 21.2502 27.6105 21.3293 27.47 21.47L22.7625 26.1775C22.7156 26.224 22.6523 26.2501 22.5863 26.25H12.9137C12.8477 26.2501 12.7844 26.224 12.7375 26.1775L7.8225 21.2625C7.77601 21.2156 7.74995 21.1523 7.75 21.0863V10C7.75 9.9337 7.77634 9.87011 7.82322 9.82322C7.87011 9.77634 7.9337 9.75 8 9.75H22.5863C22.6523 9.74995 22.7156 9.77601 22.7625 9.8225L27.47 14.53C27.6105 14.6707 27.8012 14.7498 28 14.75H30C30.0663 14.75 30.1299 14.7763 30.1768 14.8232C30.2237 14.8701 30.25 14.9337 30.25 15V21Z" fill="white"/>
</svg>
