<svg width="32" height="32" viewBox="0 0 32 32" fill="none" xmlns="http://www.w3.org/2000/svg">
<path d="M28.4163 11.3749L16.4163 3.37489C16.293 3.29266 16.1482 3.24878 16 3.24878C15.8518 3.24878 15.707 3.29266 15.5838 3.37489L3.58375 11.3749C3.48092 11.4435 3.39665 11.5365 3.33842 11.6455C3.28019 11.7545 3.24982 11.8763 3.25 11.9999V24.9999C3.25 25.464 3.43438 25.9091 3.76256 26.2373C4.09075 26.5655 4.53587 26.7499 5 26.7499H27C27.4641 26.7499 27.9092 26.5655 28.2374 26.2373C28.5656 25.9091 28.75 25.464 28.75 24.9999V11.9999C28.7502 11.8763 28.7198 11.7545 28.6616 11.6455C28.6034 11.5365 28.5191 11.4435 28.4163 11.3749ZM16 4.90114L26.6787 12.0261L17.9413 18.2499H14.0588L5.32125 12.0211L16 4.90114ZM27 25.2499H5C4.9337 25.2499 4.87011 25.2236 4.82322 25.1767C4.77634 25.1298 4.75 25.0662 4.75 24.9999V13.4561L13.3825 19.6111C13.5101 19.7013 13.6625 19.7497 13.8188 19.7499H18.1813C18.3375 19.7497 18.4899 19.7013 18.6175 19.6111L27.25 13.4561V24.9999C27.25 25.0662 27.2237 25.1298 27.1768 25.1767C27.1299 25.2236 27.0663 25.2499 27 25.2499Z" fill="white"/>
</svg>
