<svg width="32" height="32" viewBox="0 0 32 32" fill="none" xmlns="http://www.w3.org/2000/svg">
<path d="M27.9462 10.2263L22.7737 5.05378C22.5183 4.79828 22.2151 4.5956 21.8814 4.45732C21.5476 4.31904 21.1899 4.24786 20.8287 4.24786C20.4675 4.24786 20.1098 4.31904 19.776 4.45732C19.4423 4.5956 19.1391 4.79828 18.8837 5.05378L4.0537 19.8838C3.53808 20.3995 3.24841 21.0989 3.24841 21.8282C3.24841 22.5574 3.53808 23.2568 4.0537 23.7725L7.81245 27.53C7.95297 27.6707 8.14361 27.7499 8.34245 27.75H27C27.1989 27.75 27.3896 27.671 27.5303 27.5304C27.6709 27.3897 27.75 27.1989 27.75 27C27.75 26.8011 27.6709 26.6103 27.5303 26.4697C27.3896 26.329 27.1989 26.25 27 26.25H15.8112L27.9462 14.115C28.4618 13.5993 28.7515 12.8999 28.7515 12.1707C28.7515 11.4414 28.4618 10.742 27.9462 10.2263ZM13.6887 26.25H8.65245L5.11495 22.7125C4.99873 22.5964 4.90653 22.4586 4.84363 22.3068C4.78072 22.1551 4.74834 21.9924 4.74834 21.8282C4.74834 21.6639 4.78072 21.5012 4.84363 21.3495C4.90653 21.1977 4.99873 21.0599 5.11495 20.9438L12 14.06L18.94 21L13.6887 26.25ZM26.885 13.055L20 19.9388L13.06 13L19.945 6.11628C20.1794 5.88194 20.4972 5.75029 20.8287 5.75029C21.1602 5.75029 21.478 5.88194 21.7125 6.11628L26.885 11.2875C27.1193 11.5219 27.2509 11.8398 27.2509 12.1713C27.2509 12.5027 27.1193 12.8206 26.885 13.055Z" fill="white"/>
</svg>
