<svg width="32" height="32" viewBox="0 0 32 32" fill="none" xmlns="http://www.w3.org/2000/svg">
<path d="M28 5.25H21C20.8964 5.24997 20.794 5.2714 20.6991 5.31292C20.6042 5.35444 20.519 5.41516 20.4487 5.49125L8.67125 18.25H4C3.53587 18.25 3.09075 18.4344 2.76256 18.7626C2.43437 19.0908 2.25 19.5359 2.25 20V25C2.25 25.4641 2.43437 25.9092 2.76256 26.2374C3.09075 26.5656 3.53587 26.75 4 26.75H11C11.1036 26.75 11.206 26.7286 11.3009 26.6871C11.3958 26.6456 11.481 26.5848 11.5513 26.5088L23.3288 13.75H28C28.4641 13.75 28.9092 13.5656 29.2374 13.2374C29.5656 12.9092 29.75 12.4641 29.75 12V7C29.75 6.53587 29.5656 6.09075 29.2374 5.76256C28.9092 5.43437 28.4641 5.25 28 5.25ZM28.25 12C28.25 12.0663 28.2237 12.1299 28.1768 12.1768C28.1299 12.2237 28.0663 12.25 28 12.25H23C22.8964 12.25 22.794 12.2714 22.6991 12.3129C22.6042 12.3544 22.519 12.4152 22.4487 12.4913L10.6713 25.25H4C3.9337 25.25 3.87011 25.2237 3.82322 25.1768C3.77634 25.1299 3.75 25.0663 3.75 25V20C3.75 19.9337 3.77634 19.8701 3.82322 19.8232C3.87011 19.7763 3.9337 19.75 4 19.75H9C9.10356 19.75 9.20601 19.7286 9.30088 19.6871C9.39575 19.6456 9.481 19.5848 9.55125 19.5088L21.3288 6.75H28C28.0663 6.75 28.1299 6.77634 28.1768 6.82322C28.2237 6.87011 28.25 6.9337 28.25 7V12ZM28.53 21.47C28.6037 21.5387 28.6628 21.6215 28.7038 21.7135C28.7448 21.8055 28.7668 21.9048 28.7686 22.0055C28.7704 22.1062 28.7518 22.2062 28.7141 22.2996C28.6764 22.393 28.6203 22.4778 28.549 22.549C28.4778 22.6203 28.393 22.6764 28.2996 22.7141C28.2062 22.7518 28.1062 22.7704 28.0055 22.7686C27.9048 22.7668 27.8055 22.7448 27.7135 22.7038C27.6215 22.6628 27.5387 22.6037 27.47 22.53L25.75 20.8113V26C25.75 26.1989 25.671 26.3897 25.5303 26.5303C25.3897 26.671 25.1989 26.75 25 26.75C24.8011 26.75 24.6103 26.671 24.4697 26.5303C24.329 26.3897 24.25 26.1989 24.25 26V20.8113L22.53 22.53C22.3878 22.6625 22.1998 22.7346 22.0055 22.7312C21.8112 22.7277 21.6258 22.649 21.4884 22.5116C21.351 22.3742 21.2723 22.1888 21.2688 21.9945C21.2654 21.8002 21.3375 21.6122 21.47 21.47L24.47 18.47C24.6106 18.3295 24.8012 18.2507 25 18.2507C25.1988 18.2507 25.3894 18.3295 25.53 18.47L28.53 21.47Z" fill="white"/>
</svg>
