<svg width="32" height="32" viewBox="0 0 32 32" fill="none" xmlns="http://www.w3.org/2000/svg">
<path d="M21.47 10.53C21.3375 10.3878 21.2654 10.1998 21.2688 10.0055C21.2723 9.81118 21.351 9.62579 21.4884 9.48838C21.6258 9.35097 21.8112 9.27225 22.0055 9.26882C22.1998 9.2654 22.3878 9.33752 22.53 9.47L24.25 11.1888V6C24.25 5.80109 24.329 5.61032 24.4697 5.46967C24.6103 5.32902 24.8011 5.25 25 5.25C25.1989 5.25 25.3897 5.32902 25.5303 5.46967C25.671 5.61032 25.75 5.80109 25.75 6V11.1888L27.47 9.47C27.6122 9.33752 27.8002 9.2654 27.9945 9.26882C28.1888 9.27225 28.3742 9.35097 28.5116 9.48838C28.649 9.62579 28.7277 9.81118 28.7312 10.0055C28.7346 10.1998 28.6625 10.3878 28.53 10.53L25.53 13.53C25.3894 13.6705 25.1988 13.7493 25 13.7493C24.8012 13.7493 24.6106 13.6705 24.47 13.53L21.47 10.53ZM29.75 20V25C29.75 25.4641 29.5656 25.9092 29.2374 26.2374C28.9092 26.5656 28.4641 26.75 28 26.75H21C20.8964 26.75 20.794 26.7286 20.6991 26.6871C20.6042 26.6456 20.519 26.5848 20.4487 26.5088L8.67125 13.75H4C3.53587 13.75 3.09075 13.5656 2.76256 13.2374C2.43437 12.9092 2.25 12.4641 2.25 12V7C2.25 6.53587 2.43437 6.09075 2.76256 5.76256C3.09075 5.43437 3.53587 5.25 4 5.25H11C11.1036 5.24997 11.206 5.2714 11.3009 5.31292C11.3958 5.35444 11.481 5.41516 11.5513 5.49125L23.3288 18.25H28C28.4641 18.25 28.9092 18.4344 29.2374 18.7626C29.5656 19.0908 29.75 19.5359 29.75 20ZM28.25 20C28.25 19.9337 28.2237 19.8701 28.1768 19.8232C28.1299 19.7763 28.0663 19.75 28 19.75H23C22.8964 19.75 22.794 19.7286 22.6991 19.6871C22.6042 19.6456 22.519 19.5848 22.4487 19.5088L10.6713 6.75H4C3.9337 6.75 3.87011 6.77634 3.82322 6.82322C3.77634 6.87011 3.75 6.9337 3.75 7V12C3.75 12.0663 3.77634 12.1299 3.82322 12.1768C3.87011 12.2237 3.9337 12.25 4 12.25H9C9.10356 12.25 9.20601 12.2714 9.30088 12.3129C9.39575 12.3544 9.481 12.4152 9.55125 12.4913L21.3288 25.25H28C28.0663 25.25 28.1299 25.2237 28.1768 25.1768C28.2237 25.1299 28.25 25.0663 28.25 25V20Z" fill="white"/>
</svg>
