<svg width="32" height="32" viewBox="0 0 32 32" fill="none" xmlns="http://www.w3.org/2000/svg">
<path d="M21.6138 10.3862C21.3178 8.62019 20.5412 6.96976 19.3691 5.61598C18.197 4.26219 16.6747 3.25734 14.9692 2.71163C13.2637 2.16593 11.4408 2.10046 9.70056 2.52239C7.9603 2.94432 6.36984 3.83737 5.10363 5.10357C3.83743 6.36978 2.94438 7.96024 2.52245 9.7005C2.10052 11.4408 2.16599 13.2636 2.71169 14.9691C3.2574 16.6746 4.26225 18.1969 5.61604 19.369C6.96982 20.5411 8.62025 21.3178 10.3863 21.6137C10.6823 23.3798 11.4589 25.0302 12.631 26.384C13.8031 27.7378 15.3254 28.7427 17.0309 29.2884C18.7364 29.8341 20.5593 29.8995 22.2996 29.4776C24.0398 29.0557 25.6303 28.1626 26.8965 26.8964C28.1627 25.6302 29.0557 24.0398 29.4777 22.2995C29.8996 20.5592 29.8341 18.7364 29.2884 17.0309C28.7427 15.3254 27.7379 13.8031 26.3841 12.631C25.0303 11.4589 23.3799 10.6822 21.6138 10.3862ZM28.2501 20C28.2496 20.3722 28.2237 20.7439 28.1726 21.1125L21.4526 14.3912C21.6504 13.6096 21.7504 12.8063 21.7501 12C21.7501 11.9787 21.7501 11.9587 21.7501 11.9387C23.59 12.3405 25.2375 13.3587 26.4196 14.8248C27.6017 16.2908 28.2475 18.1167 28.2501 20ZM5.66381 6.72375L12.6013 13.6612C11.9891 14.3762 11.4838 15.1762 11.1013 16.0362L4.25006 9.185C4.57558 8.28907 5.05391 7.45633 5.66381 6.72375ZM9.18506 4.25L16.0351 11.1012C15.175 11.4838 14.375 11.989 13.6601 12.6012L6.72256 5.66375C7.45551 5.05372 8.28869 4.57539 9.18506 4.25ZM11.7501 20C11.7527 17.8128 12.6227 15.7159 14.1693 14.1693C15.716 12.6227 17.8128 11.7526 20.0001 11.75C20.0813 11.75 20.1626 11.75 20.2438 11.75C20.2438 11.8312 20.2501 11.9125 20.2501 12C20.2474 14.1872 19.3774 16.2841 17.8308 17.8307C16.2842 19.3773 14.1873 20.2474 12.0001 20.25C11.9188 20.25 11.8376 20.25 11.7501 20.2437C11.7501 20.1625 11.7501 20.0812 11.7501 20ZM18.3388 19.3987L25.2763 26.3362C24.5437 26.9461 23.711 27.4245 22.8151 27.75L15.9651 20.8987C16.8247 20.5161 17.6242 20.0109 18.3388 19.3987ZM19.3988 18.3387C20.011 17.6238 20.5163 16.8238 20.8988 15.9637L27.7501 22.815C27.423 23.7113 26.943 24.544 26.3313 25.2762L19.3988 18.3387ZM20.0613 10.2512H20.0001C19.1937 10.2509 18.3905 10.3509 17.6088 10.5487L10.8876 3.8275C11.2562 3.77634 11.6279 3.75044 12.0001 3.75C13.8833 3.75252 15.7092 4.39834 17.1753 5.58046C18.6413 6.76258 19.6596 8.41006 20.0613 10.25V10.2512ZM3.75006 12C3.7505 11.6278 3.7764 11.2561 3.82756 10.8875L10.5476 17.6087C10.3497 18.3904 10.2498 19.1937 10.2501 20C10.2501 20.0212 10.2501 20.0412 10.2501 20.0612C8.41013 19.6595 6.76264 18.6413 5.58052 17.1752C4.3984 15.7092 3.75258 13.8833 3.75006 12ZM11.9388 21.75H12.0001C12.8064 21.7503 13.6096 21.6504 14.3913 21.4525L21.1126 28.1725C20.7439 28.2237 20.3722 28.2496 20.0001 28.25C18.1168 28.2475 16.2909 27.6017 14.8248 26.4195C13.3588 25.2374 12.3405 23.5899 11.9388 21.75Z" fill="white"/>
</svg>
