<svg width="32" height="32" viewBox="0 0 32 32" fill="none" xmlns="http://www.w3.org/2000/svg">
<path d="M17.75 25C17.75 25.3461 17.6474 25.6845 17.4551 25.9722C17.2628 26.26 16.9895 26.4843 16.6697 26.6168C16.3499 26.7492 15.9981 26.7839 15.6586 26.7164C15.3191 26.6488 15.0073 26.4822 14.7626 26.2374C14.5178 25.9927 14.3512 25.6809 14.2836 25.3414C14.2161 25.0019 14.2508 24.6501 14.3832 24.3303C14.5157 24.0105 14.74 23.7372 15.0278 23.5449C15.3155 23.3526 15.6539 23.25 16 23.25C16.4641 23.25 16.9092 23.4344 17.2374 23.7626C17.5656 24.0908 17.75 24.5359 17.75 25ZM16 19.75C16.1989 19.75 16.3897 19.671 16.5303 19.5303C16.671 19.3897 16.75 19.1989 16.75 19V6C16.75 5.80109 16.671 5.61032 16.5303 5.46967C16.3897 5.32902 16.1989 5.25 16 5.25C15.8011 5.25 15.6103 5.32902 15.4697 5.46967C15.329 5.61032 15.25 5.80109 15.25 6V19C15.25 19.1989 15.329 19.3897 15.4697 19.5303C15.6103 19.671 15.8011 19.75 16 19.75Z" fill="white"/>
</svg>
