<svg width="32" height="32" viewBox="0 0 32 32" fill="none" xmlns="http://www.w3.org/2000/svg">
<path d="M26.75 14.0001V26.0001C26.75 26.4642 26.5656 26.9093 26.2374 27.2375C25.9092 27.5657 25.4641 27.7501 25 27.7501H7C6.53587 27.7501 6.09075 27.5657 5.76256 27.2375C5.43437 26.9093 5.25 26.4642 5.25 26.0001V14.0001C5.25 13.5359 5.43437 13.0908 5.76256 12.7626C6.09075 12.4344 6.53587 12.2501 7 12.2501H10C10.1989 12.2501 10.3897 12.3291 10.5303 12.4697C10.671 12.6104 10.75 12.8012 10.75 13.0001C10.75 13.199 10.671 13.3897 10.5303 13.5304C10.3897 13.6711 10.1989 13.7501 10 13.7501H7C6.9337 13.7501 6.87011 13.7764 6.82322 13.8233C6.77634 13.8702 6.75 13.9338 6.75 14.0001V26.0001C6.75 26.0664 6.77634 26.13 6.82322 26.1768C6.87011 26.2237 6.9337 26.2501 7 26.2501H25C25.0663 26.2501 25.1299 26.2237 25.1768 26.1768C25.2237 26.13 25.25 26.0664 25.25 26.0001V14.0001C25.25 13.9338 25.2237 13.8702 25.1768 13.8233C25.1299 13.7764 25.0663 13.7501 25 13.7501H22C21.8011 13.7501 21.6103 13.6711 21.4697 13.5304C21.329 13.3897 21.25 13.199 21.25 13.0001C21.25 12.8012 21.329 12.6104 21.4697 12.4697C21.6103 12.3291 21.8011 12.2501 22 12.2501H25C25.4641 12.2501 25.9092 12.4344 26.2374 12.7626C26.5656 13.0908 26.75 13.5359 26.75 14.0001ZM11.53 8.53007L15.25 4.81132V17.0001C15.25 17.199 15.329 17.3898 15.4697 17.5304C15.6103 17.6711 15.8011 17.7501 16 17.7501C16.1989 17.7501 16.3897 17.6711 16.5303 17.5304C16.671 17.3898 16.75 17.199 16.75 17.0001V4.81132L20.47 8.53007C20.5387 8.60376 20.6215 8.66286 20.7135 8.70385C20.8055 8.74485 20.9048 8.76689 21.0055 8.76866C21.1062 8.77044 21.2062 8.75192 21.2996 8.7142C21.393 8.67647 21.4778 8.62033 21.549 8.54911C21.6203 8.47789 21.6764 8.39306 21.7141 8.29967C21.7518 8.20628 21.7704 8.10625 21.7686 8.00555C21.7668 7.90485 21.7448 7.80553 21.7038 7.71353C21.6628 7.62153 21.6037 7.53873 21.53 7.47007L16.53 2.47007C16.3894 2.32962 16.1988 2.25073 16 2.25073C15.8012 2.25073 15.6106 2.32962 15.47 2.47007L10.47 7.47007C10.3963 7.53873 10.3372 7.62153 10.2962 7.71353C10.2552 7.80553 10.2332 7.90485 10.2314 8.00555C10.2296 8.10625 10.2482 8.20628 10.2859 8.29967C10.3236 8.39306 10.3797 8.47789 10.451 8.54911C10.5222 8.62033 10.607 8.67647 10.7004 8.7142C10.7938 8.75192 10.8938 8.77044 10.9945 8.76866C11.0952 8.76689 11.1945 8.74485 11.2865 8.70385C11.3785 8.66286 11.4613 8.60376 11.53 8.53007Z" fill="white"/>
</svg>
