<svg width="32" height="32" viewBox="0 0 32 32" fill="none" xmlns="http://www.w3.org/2000/svg">
<path d="M27.75 8.41752C27.7437 7.84876 27.6226 7.28712 27.3941 6.76626C27.1656 6.2454 26.8343 5.77603 26.42 5.38627C24.765 3.82002 22.085 3.87502 20.4425 5.52252L17.8525 8.12502L17.7737 8.04627C17.258 7.53065 16.5586 7.24098 15.8294 7.24098C15.1001 7.24098 14.4007 7.53065 13.885 8.04627L12.76 9.17127C12.5973 9.3338 12.4682 9.5268 12.3801 9.73925C12.2921 9.95169 12.2467 10.1794 12.2467 10.4094C12.2467 10.6394 12.2921 10.8671 12.3801 11.0795C12.4682 11.292 12.5973 11.485 12.76 11.6475L13.1937 12.0813L6.64249 18.6375C6.05021 19.226 5.62438 19.9608 5.40833 20.7673C5.19228 21.5737 5.19371 22.423 5.41249 23.2288L4.37374 25.6038C4.25467 25.874 4.22032 26.1739 4.27522 26.464C4.33011 26.7541 4.47168 27.0208 4.68124 27.2288C4.84222 27.3929 5.03414 27.5235 5.24591 27.613C5.45768 27.7024 5.6851 27.749 5.91499 27.75C6.1593 27.7504 6.40105 27.7002 6.62499 27.6025L8.87499 26.615C9.66694 26.8081 10.4953 26.7938 11.2801 26.5733C12.0649 26.3528 12.7795 25.9336 13.355 25.3563L19.91 18.7988L20.3437 19.2338C20.5062 19.3963 20.6992 19.5252 20.9115 19.6132C21.1238 19.7011 21.3514 19.7464 21.5812 19.7464C21.8111 19.7464 22.0386 19.7011 22.251 19.6132C22.4633 19.5252 22.6562 19.3963 22.8187 19.2338L23.9437 18.1088C24.4583 17.592 24.7472 16.8924 24.7472 16.1631C24.7472 15.4339 24.4583 14.7343 23.9437 14.2175L23.8612 14.1363L26.5 11.4813C26.904 11.0811 27.223 10.6035 27.4378 10.077C27.6526 9.55053 27.7588 8.98607 27.75 8.41752ZM12.2987 24.2925C11.8815 24.7096 11.3585 25.0053 10.7859 25.1478C10.2134 25.2902 9.61285 25.2742 9.04874 25.1013C8.87701 25.0485 8.69204 25.0592 8.52749 25.1313L6.02749 26.225C5.98467 26.2436 5.9375 26.2498 5.89133 26.243C5.84516 26.2361 5.80183 26.2165 5.76624 26.1863L6.90624 23.5738C6.9814 23.4035 6.98987 23.2112 6.92999 23.035C6.6748 22.2902 6.69969 21.4779 6.99999 20.75H15.8475L12.2987 24.2925ZM17.3475 19.25H8.15499L14.2587 13.145L18.8537 17.7425L17.3475 19.25ZM25.4437 10.4263L22.2712 13.6125C22.1312 13.7531 22.0525 13.9434 22.0525 14.1419C22.0525 14.3403 22.1312 14.5307 22.2712 14.6713L22.8812 15.2825C22.9975 15.3986 23.0897 15.5365 23.1526 15.6882C23.2155 15.84 23.2478 16.0026 23.2478 16.1669C23.2478 16.3312 23.2155 16.4938 23.1526 16.6456C23.0897 16.7973 22.9975 16.9352 22.8812 17.0513L21.7562 18.1763C21.7094 18.2228 21.646 18.249 21.58 18.249C21.5139 18.249 21.4506 18.2228 21.4037 18.1763L13.8175 10.5888C13.7942 10.5655 13.7758 10.538 13.7632 10.5076C13.7506 10.4773 13.7442 10.4447 13.7442 10.4119C13.7442 10.379 13.7506 10.3465 13.7632 10.3162C13.7758 10.2858 13.7942 10.2582 13.8175 10.235L14.9425 9.11002C15.1769 8.87568 15.4948 8.74403 15.8262 8.74403C16.1577 8.74403 16.4756 8.87568 16.71 9.11002L17.3212 9.72127C17.462 9.8615 17.6526 9.94017 17.8512 9.94002C17.95 9.93993 18.0478 9.92034 18.1389 9.88237C18.2301 9.8444 18.3129 9.78881 18.3825 9.71877L21.5 6.58252C22.5712 5.51002 24.3137 5.45752 25.3837 6.47627C25.6514 6.72889 25.8656 7.03267 26.0137 7.3696C26.1617 7.70653 26.2407 8.06976 26.2458 8.43776C26.2509 8.80576 26.1822 9.17105 26.0435 9.51197C25.9049 9.8529 25.6992 10.1625 25.4387 10.4225L25.4437 10.4263Z" fill="white"/>
</svg>
