<svg width="32" height="32" viewBox="0 0 32 32" fill="none" xmlns="http://www.w3.org/2000/svg">
<path d="M22 4.25C19.3563 4.25 17.1125 6.76875 16 10.5325C14.8875 6.76875 12.6438 4.25 10 4.25C6.215 4.25 3.25 9.41125 3.25 16C3.25 22.5887 6.215 27.75 10 27.75C12.6438 27.75 14.8875 25.2313 16 21.4675C17.1125 25.2313 19.3563 27.75 22 27.75C25.785 27.75 28.75 22.5887 28.75 16C28.75 9.41125 25.785 4.25 22 4.25ZM10 26.25C7.72 26.25 5.72625 23.2375 5.02125 19.1838C5.58905 19.5371 6.24103 19.7322 6.90962 19.7488C7.5782 19.7654 8.23906 19.6029 8.82371 19.2782C9.40835 18.9534 9.89551 18.4782 10.2347 17.9018C10.5739 17.3254 10.7527 16.6688 10.7527 16C10.7527 15.3312 10.5739 14.6746 10.2347 14.0982C9.89551 13.5218 9.40835 13.0466 8.82371 12.7218C8.23906 12.397 7.5782 12.2346 6.90962 12.2512C6.24103 12.2678 5.58905 12.4629 5.02125 12.8162C5.72625 8.7625 7.72 5.75 10 5.75C12.8463 5.75 15.25 10.4437 15.25 16C15.25 21.5562 12.8463 26.25 10 26.25ZM4.75 16C4.75 15.555 4.88196 15.12 5.12919 14.75C5.37643 14.38 5.72783 14.0916 6.13896 13.9213C6.5501 13.751 7.0025 13.7064 7.43895 13.7932C7.87541 13.88 8.27632 14.0943 8.59099 14.409C8.90566 14.7237 9.11995 15.1246 9.20677 15.561C9.29358 15.9975 9.24903 16.4499 9.07873 16.861C8.90843 17.2722 8.62004 17.6236 8.25003 17.8708C7.88002 18.118 7.44501 18.25 7 18.25C6.40326 18.25 5.83097 18.0129 5.40901 17.591C4.98705 17.169 4.75 16.5967 4.75 16ZM22 26.25C19.72 26.25 17.7262 23.2375 17.0212 19.1838C17.5891 19.5371 18.241 19.7322 18.9096 19.7488C19.5782 19.7654 20.2391 19.6029 20.8237 19.2782C21.4084 18.9534 21.8955 18.4782 22.2347 17.9018C22.5739 17.3254 22.7527 16.6688 22.7527 16C22.7527 15.3312 22.5739 14.6746 22.2347 14.0982C21.8955 13.5218 21.4084 13.0466 20.8237 12.7218C20.2391 12.397 19.5782 12.2346 18.9096 12.2512C18.241 12.2678 17.5891 12.4629 17.0212 12.8162C17.7262 8.7625 19.72 5.75 22 5.75C24.8463 5.75 27.25 10.4437 27.25 16C27.25 21.5562 24.8463 26.25 22 26.25ZM16.75 16C16.75 15.555 16.882 15.12 17.1292 14.75C17.3764 14.38 17.7278 14.0916 18.139 13.9213C18.5501 13.751 19.0025 13.7064 19.439 13.7932C19.8754 13.88 20.2763 14.0943 20.591 14.409C20.9057 14.7237 21.1199 15.1246 21.2068 15.561C21.2936 15.9975 21.249 16.4499 21.0787 16.861C20.9084 17.2722 20.62 17.6236 20.25 17.8708C19.88 18.118 19.445 18.25 19 18.25C18.4033 18.25 17.831 18.0129 17.409 17.591C16.9871 17.169 16.75 16.5967 16.75 16Z" fill="white"/>
</svg>
