<svg width="32" height="32" viewBox="0 0 32 32" fill="none" xmlns="http://www.w3.org/2000/svg">
<path d="M21.75 13C21.75 13.199 21.671 13.3897 21.5303 13.5304C21.3897 13.671 21.1989 13.75 21 13.75H11C10.8011 13.75 10.6103 13.671 10.4697 13.5304C10.329 13.3897 10.25 13.199 10.25 13C10.25 12.8011 10.329 12.6104 10.4697 12.4697C10.6103 12.3291 10.8011 12.25 11 12.25H21C21.1989 12.25 21.3897 12.3291 21.5303 12.4697C21.671 12.6104 21.75 12.8011 21.75 13ZM21 16.25H11C10.8011 16.25 10.6103 16.3291 10.4697 16.4697C10.329 16.6104 10.25 16.8011 10.25 17C10.25 17.199 10.329 17.3897 10.4697 17.5304C10.6103 17.671 10.8011 17.75 11 17.75H21C21.1989 17.75 21.3897 17.671 21.5303 17.5304C21.671 17.3897 21.75 17.199 21.75 17C21.75 16.8011 21.671 16.6104 21.5303 16.4697C21.3897 16.3291 21.1989 16.25 21 16.25ZM31.75 13V16C31.75 16.9946 31.3549 17.9484 30.6517 18.6517C29.9484 19.355 28.9946 19.75 28 19.75H27.1875C26.3363 21.735 24.5275 23.45 21.835 24.7963C20.0252 25.684 18.1092 26.3363 16.1338 26.7375C16.0454 26.7542 15.9546 26.7542 15.8663 26.7375C13.8908 26.3363 11.9748 25.684 10.165 24.7963C7.4725 23.45 5.66375 21.735 4.8125 19.75H4C3.00544 19.75 2.05161 19.355 1.34835 18.6517C0.645088 17.9484 0.25 16.9946 0.25 16V13C0.25 12.0055 0.645088 11.0517 1.34835 10.3484C2.05161 9.64513 3.00544 9.25004 4 9.25004H4.29375C4.35837 8.96416 4.49375 8.6991 4.68748 8.47916C4.88121 8.25923 5.12707 8.09147 5.4025 7.99129L15.4025 4.35504C15.7885 4.21482 16.2115 4.21482 16.5975 4.35504L26.5975 7.99129C26.8729 8.09147 27.1188 8.25923 27.3125 8.47916C27.5062 8.6991 27.6416 8.96416 27.7062 9.25004H28C28.9946 9.25004 29.9484 9.64513 30.6517 10.3484C31.3549 11.0517 31.75 12.0055 31.75 13ZM4.36125 18.25C4.28747 17.8375 4.25025 17.4192 4.25 17V10.75H4C3.40326 10.75 2.83097 10.9871 2.40901 11.409C1.98705 11.831 1.75 12.4033 1.75 13V16C1.75 16.5968 1.98705 17.1691 2.40901 17.591C2.83097 18.013 3.40326 18.25 4 18.25H4.36125ZM26.25 17V9.63629C26.25 9.58491 26.2341 9.53479 26.2046 9.49274C26.1751 9.45069 26.1333 9.41876 26.085 9.40129L16.085 5.76504C16.0301 5.74518 15.9699 5.74518 15.915 5.76504L5.915 9.40129C5.86668 9.41876 5.82492 9.45069 5.7954 9.49274C5.76587 9.53479 5.75002 9.58491 5.75 9.63629V17C5.75 19.5875 7.45125 21.75 10.8075 23.44C12.4589 24.2473 14.2026 24.8501 16 25.235C17.7973 24.8499 19.541 24.2471 21.1925 23.44C24.5487 21.75 26.25 19.5875 26.25 17ZM30.25 13C30.25 12.4033 30.0129 11.831 29.591 11.409C29.169 10.9871 28.5967 10.75 28 10.75H27.75V17C27.7498 17.4192 27.7125 17.8375 27.6388 18.25H28C28.5967 18.25 29.169 18.013 29.591 17.591C30.0129 17.1691 30.25 16.5968 30.25 16V13Z" fill="white"/>
</svg>
