<svg width="32" height="32" viewBox="0 0 32 32" fill="none" xmlns="http://www.w3.org/2000/svg">
<path d="M14.25 22C14.25 22.1989 14.171 22.3897 14.0303 22.5303C13.8897 22.671 13.6989 22.75 13.5 22.75H10C9.80109 22.75 9.61032 22.671 9.46967 22.5303C9.32902 22.3897 9.25 22.1989 9.25 22C9.25 21.8011 9.32902 21.6103 9.46967 21.4697C9.61032 21.329 9.80109 21.25 10 21.25H13.5C13.6989 21.25 13.8897 21.329 14.0303 21.4697C14.171 21.6103 14.25 21.8011 14.25 22ZM22 21.25H18.5C18.3011 21.25 18.1103 21.329 17.9697 21.4697C17.829 21.6103 17.75 21.8011 17.75 22C17.75 22.1989 17.829 22.3897 17.9697 22.5303C18.1103 22.671 18.3011 22.75 18.5 22.75H22C22.1989 22.75 22.3897 22.671 22.5303 22.5303C22.671 22.3897 22.75 22.1989 22.75 22C22.75 21.8011 22.671 21.6103 22.5303 21.4697C22.3897 21.329 22.1989 21.25 22 21.25ZM29.75 27C29.75 27.1989 29.671 27.3897 29.5303 27.5303C29.3897 27.671 29.1989 27.75 29 27.75H3C2.80109 27.75 2.61032 27.671 2.46967 27.5303C2.32902 27.3897 2.25 27.1989 2.25 27C2.25 26.8011 2.32902 26.6103 2.46967 26.4697C2.61032 26.329 2.80109 26.25 3 26.25H4.25V11C4.25 10.8607 4.28879 10.7242 4.36201 10.6057C4.43524 10.4872 4.54001 10.3915 4.66459 10.3292C4.78917 10.2669 4.92863 10.2405 5.06735 10.253C5.20608 10.2655 5.33857 10.3164 5.45 10.4L12.25 15.5V11C12.25 10.8607 12.2888 10.7242 12.362 10.6057C12.4352 10.4872 12.54 10.3915 12.6646 10.3292C12.7892 10.2669 12.9286 10.2405 13.0674 10.253C13.2061 10.2655 13.3386 10.3164 13.45 10.4L18.625 14.285L20.125 3.7525C20.1868 3.33668 20.3956 2.95677 20.7134 2.6816C21.0312 2.40643 21.4371 2.2542 21.8575 2.2525H24.1225C24.5429 2.2542 24.9488 2.40643 25.2666 2.6816C25.5844 2.95677 25.7932 3.33668 25.855 3.7525L27.73 16.8938C27.73 16.8938 27.7375 16.9675 27.7375 17V26.25H28.9875C29.087 26.2483 29.1859 26.2665 29.2784 26.3035C29.3708 26.3404 29.455 26.3954 29.5259 26.4652C29.5969 26.535 29.6533 26.6183 29.6917 26.7101C29.7302 26.8019 29.75 26.9004 29.75 27ZM20 15.3113L21.25 16.25H26.135L24.375 3.965C24.3665 3.90493 24.3365 3.85 24.2905 3.81044C24.2445 3.77089 24.1857 3.74941 24.125 3.75H21.8675C21.8068 3.74941 21.748 3.77089 21.702 3.81044C21.656 3.85 21.626 3.90493 21.6175 3.965L20 15.3113ZM5.75 26.25H26.25V17.75H21C20.8377 17.75 20.6798 17.6974 20.55 17.6L18.75 16.25L13.75 12.5V17C13.75 17.1393 13.7112 17.2758 13.638 17.3943C13.5648 17.5128 13.46 17.6085 13.3354 17.6708C13.2108 17.7331 13.0714 17.7595 12.9326 17.747C12.7939 17.7345 12.6614 17.6836 12.55 17.6L5.75 12.5V26.25Z" fill="white"/>
</svg>
