<svg width="32" height="32" viewBox="0 0 32 32" fill="none" xmlns="http://www.w3.org/2000/svg">
<path d="M22.25 10C22.25 9.80109 22.329 9.61032 22.4697 9.46967C22.6103 9.32902 22.8011 9.25 23 9.25H27C27.1989 9.25 27.3897 9.32902 27.5303 9.46967C27.671 9.61032 27.75 9.80109 27.75 10C27.75 10.1989 27.671 10.3897 27.5303 10.5303C27.3897 10.671 27.1989 10.75 27 10.75H23C22.8011 10.75 22.6103 10.671 22.4697 10.5303C22.329 10.3897 22.25 10.1989 22.25 10ZM5 10.75H18.25V13C18.25 13.1989 18.329 13.3897 18.4697 13.5303C18.6103 13.671 18.8011 13.75 19 13.75C19.1989 13.75 19.3897 13.671 19.5303 13.5303C19.671 13.3897 19.75 13.1989 19.75 13V7C19.75 6.80109 19.671 6.61032 19.5303 6.46967C19.3897 6.32902 19.1989 6.25 19 6.25C18.8011 6.25 18.6103 6.32902 18.4697 6.46967C18.329 6.61032 18.25 6.80109 18.25 7V9.25H5C4.80109 9.25 4.61032 9.32902 4.46967 9.46967C4.32902 9.61032 4.25 9.80109 4.25 10C4.25 10.1989 4.32902 10.3897 4.46967 10.5303C4.61032 10.671 4.80109 10.75 5 10.75ZM27 21.25H15C14.8011 21.25 14.6103 21.329 14.4697 21.4697C14.329 21.6103 14.25 21.8011 14.25 22C14.25 22.1989 14.329 22.3897 14.4697 22.5303C14.6103 22.671 14.8011 22.75 15 22.75H27C27.1989 22.75 27.3897 22.671 27.5303 22.5303C27.671 22.3897 27.75 22.1989 27.75 22C27.75 21.8011 27.671 21.6103 27.5303 21.4697C27.3897 21.329 27.1989 21.25 27 21.25ZM11 18.25C10.8011 18.25 10.6103 18.329 10.4697 18.4697C10.329 18.6103 10.25 18.8011 10.25 19V21.25H5C4.80109 21.25 4.61032 21.329 4.46967 21.4697C4.32902 21.6103 4.25 21.8011 4.25 22C4.25 22.1989 4.32902 22.3897 4.46967 22.5303C4.61032 22.671 4.80109 22.75 5 22.75H10.25V25C10.25 25.1989 10.329 25.3897 10.4697 25.5303C10.6103 25.671 10.8011 25.75 11 25.75C11.1989 25.75 11.3897 25.671 11.5303 25.5303C11.671 25.3897 11.75 25.1989 11.75 25V19C11.75 18.8011 11.671 18.6103 11.5303 18.4697C11.3897 18.329 11.1989 18.25 11 18.25Z" fill="white"/>
</svg>
