<svg width="32" height="32" viewBox="0 0 32 32" fill="none" xmlns="http://www.w3.org/2000/svg">
<path d="M16 3.25C13.4783 3.25 11.0132 3.99777 8.91648 5.39876C6.81976 6.79975 5.18556 8.79103 4.22054 11.1208C3.25552 13.4505 3.00303 16.0141 3.49499 18.4874C3.98696 20.9607 5.20127 23.2325 6.98439 25.0156C8.76751 26.7987 11.0393 28.0131 13.5126 28.505C15.9859 28.997 18.5495 28.7445 20.8792 27.7795C23.209 26.8144 25.2003 25.1802 26.6012 23.0835C28.0022 20.9868 28.75 18.5217 28.75 16C28.746 12.6197 27.4015 9.379 25.0112 6.98877C22.621 4.59854 19.3803 3.25397 16 3.25ZM16 27.25C13.775 27.25 11.5999 26.5902 9.74984 25.354C7.89979 24.1179 6.45785 22.3609 5.60636 20.3052C4.75488 18.2495 4.53209 15.9875 4.96617 13.8052C5.40025 11.6229 6.47171 9.61839 8.04505 8.04505C9.6184 6.47171 11.623 5.40025 13.8052 4.96617C15.9875 4.53208 18.2495 4.75487 20.3052 5.60636C22.3609 6.45784 24.1179 7.89978 25.354 9.74984C26.5902 11.5999 27.25 13.775 27.25 16C27.2467 18.9827 26.0604 21.8422 23.9513 23.9513C21.8422 26.0604 18.9827 27.2467 16 27.25ZM24.6613 15.6462C24.5972 15.5265 24.5019 15.4265 24.3854 15.3567C24.269 15.2869 24.1358 15.25 24 15.25H17.4013L20.625 10.4163C20.7004 10.3032 20.7437 10.1718 20.7502 10.0361C20.7568 9.90043 20.7264 9.76549 20.6622 9.64573C20.598 9.52598 20.5025 9.42591 20.3859 9.35621C20.2692 9.28651 20.1359 9.2498 20 9.25H12C11.8641 9.2498 11.7308 9.28651 11.6141 9.35621C11.4975 9.42591 11.402 9.52598 11.3378 9.64573C11.2737 9.76549 11.2432 9.90043 11.2498 10.0361C11.2563 10.1718 11.2996 10.3032 11.375 10.4163L14.5988 15.25H8.00001C7.86414 15.2498 7.73077 15.2865 7.61414 15.3562C7.49752 15.4259 7.40201 15.526 7.33784 15.6457C7.27366 15.7655 7.24322 15.9004 7.24976 16.0361C7.25631 16.1718 7.2996 16.3032 7.37501 16.4163L11.375 22.4163C11.4434 22.5194 11.5363 22.604 11.6453 22.6625C11.7544 22.721 11.8762 22.7517 12 22.7517C12.1238 22.7517 12.2456 22.721 12.3547 22.6625C12.4637 22.604 12.5566 22.5194 12.625 22.4163L16 17.3525L19.375 22.4163C19.4434 22.5194 19.5363 22.604 19.6453 22.6625C19.7544 22.721 19.8762 22.7517 20 22.7517C20.1238 22.7517 20.2456 22.721 20.3547 22.6625C20.4637 22.604 20.5566 22.5194 20.625 22.4163L24.625 16.4163C24.7002 16.3032 24.7432 16.1719 24.7496 16.0363C24.756 15.9007 24.7255 15.7659 24.6613 15.6462ZM18.5988 10.75L16 14.6475L13.4013 10.75H18.5988ZM12 20.6475L9.40126 16.75H14.5988L12 20.6475ZM20 20.6475L17.4013 16.75H22.5988L20 20.6475Z" fill="white"/>
</svg>
