<svg width="32" height="32" viewBox="0 0 32 32" fill="none" xmlns="http://www.w3.org/2000/svg">
<path d="M28.8825 16.94C28.5857 15.8297 28.0293 14.8058 27.259 13.9528C26.4887 13.0999 25.5267 12.4423 24.4523 12.0342C23.3779 11.6262 22.2219 11.4794 21.0796 11.6061C19.9373 11.7327 18.8415 12.1291 17.8825 12.7625C17.7962 12.7112 17.7062 12.6625 17.615 12.6187L19.7225 4.20373C19.7607 4.05141 19.7501 3.89093 19.6923 3.74493C19.6344 3.59893 19.5322 3.47478 19.4 3.38998C18.5709 2.86102 17.6428 2.50629 16.6722 2.34736C15.7016 2.18843 14.7089 2.22864 13.7544 2.46553C12.7998 2.70242 11.9035 3.13104 11.1198 3.72532C10.3362 4.31959 9.68165 5.06709 9.19605 5.92234C8.71044 6.77758 8.40392 7.72268 8.29514 8.70014C8.18635 9.67759 8.27757 10.667 8.56326 11.608C8.84894 12.5491 9.32311 13.4222 9.95691 14.1743C10.5907 14.9263 11.3709 15.5415 12.25 15.9825V16C12.25 16.0962 12.25 16.1925 12.2625 16.2875L3.92124 18.67C3.76968 18.7126 3.63538 18.8018 3.53734 18.9249C3.4393 19.0481 3.3825 19.199 3.37499 19.3562C3.33821 20.335 3.50014 21.3111 3.85101 22.2256C4.20188 23.1401 4.73441 23.974 5.41646 24.6769C6.09851 25.3799 6.91594 25.9374 7.81939 26.3158C8.72285 26.6941 9.6936 26.8855 10.6731 26.8783C11.6525 26.8711 12.6203 26.6655 13.5182 26.274C14.416 25.8824 15.2251 25.313 15.8968 24.6001C16.5684 23.8872 17.0887 23.0455 17.4261 22.126C17.7635 21.2065 17.9111 20.2281 17.86 19.25C17.9475 19.2 18.0337 19.1462 18.1175 19.0887L24.3512 25.125C24.4645 25.2342 24.6092 25.305 24.7648 25.3274C24.9205 25.3498 25.0793 25.3227 25.2187 25.25C26.6854 24.4891 27.8481 23.2501 28.5144 21.7382C29.1807 20.2262 29.3105 18.5321 28.8825 16.9362V16.94ZM13.75 16C13.75 15.555 13.8819 15.12 14.1292 14.75C14.3764 14.3799 14.7278 14.0916 15.1389 13.9213C15.5501 13.751 16.0025 13.7064 16.4389 13.7932C16.8754 13.88 17.2763 14.0943 17.591 14.409C17.9056 14.7237 18.1199 15.1246 18.2068 15.561C18.2936 15.9975 18.249 16.4499 18.0787 16.861C17.9084 17.2722 17.62 17.6236 17.25 17.8708C16.88 18.118 16.445 18.25 16 18.25C15.4032 18.25 14.831 18.0129 14.409 17.591C13.987 17.169 13.75 16.5967 13.75 16ZM9.74999 9.49998C9.74968 8.51367 10.0031 7.54386 10.4858 6.68377C10.9686 5.82369 11.6645 5.10224 12.5066 4.58878C13.3487 4.07532 14.3088 3.78711 15.2945 3.75186C16.2802 3.71661 17.2583 3.9355 18.135 4.38748L16.165 12.25C16.11 12.25 16.055 12.25 16 12.25C15.2785 12.2503 14.5725 12.4588 13.9666 12.8503C13.3606 13.2419 12.8805 13.7999 12.5837 14.4575C11.7192 13.951 11.0026 13.2268 10.5053 12.3569C10.0081 11.487 9.74765 10.5019 9.74999 9.49998ZM13.5 24.6625C12.6459 25.1571 11.6788 25.4235 10.6919 25.4361C9.70498 25.4486 8.73145 25.207 7.86499 24.7343C6.99854 24.2617 6.26834 23.5739 5.74467 22.7373C5.221 21.9007 4.9215 20.9434 4.87499 19.9575L12.6737 17.73C12.9903 18.3388 13.4678 18.8491 14.0543 19.2052C14.6408 19.5614 15.3138 19.7498 16 19.75C16.1252 19.7502 16.2504 19.7439 16.375 19.7312C16.3684 20.7327 16.0995 21.715 15.5951 22.5802C15.0906 23.4455 14.3683 24.1634 13.5 24.6625ZM26.8625 21.6925C26.4034 22.4872 25.7604 23.1602 24.9875 23.655L19.1587 18.015C19.5629 17.3836 19.768 16.6453 19.7472 15.8958C19.7265 15.1464 19.481 14.4206 19.0425 13.8125C20.14 13.191 21.4115 12.9476 22.661 13.1198C23.9105 13.292 25.0688 13.8704 25.9572 14.7657C26.8457 15.6609 27.4151 16.8235 27.5778 18.0743C27.7405 19.3251 27.4874 20.5947 26.8575 21.6875L26.8625 21.6925Z" fill="white"/>
</svg>
