<svg width="32" height="32" viewBox="0 0 32 32" fill="none" xmlns="http://www.w3.org/2000/svg">
<path d="M29 19.75C29.1989 19.75 29.3897 19.671 29.5303 19.5303C29.671 19.3897 29.75 19.1989 29.75 19C29.75 18.8011 29.671 18.6103 29.5303 18.4697C29.3897 18.329 29.1989 18.25 29 18.25C26.2014 18.2479 23.4175 18.6543 20.7362 19.4562C19.8039 18.8541 18.8414 18.3 17.8525 17.7962C21.4112 16.4356 25.1901 15.742 29 15.75C29.1989 15.75 29.3897 15.671 29.5303 15.5303C29.671 15.3897 29.75 15.1989 29.75 15C29.75 14.8011 29.671 14.6103 29.5303 14.4697C29.3897 14.329 29.1989 14.25 29 14.25C28.25 14.25 27.5 14.2775 26.75 14.3275V10C26.75 9.88357 26.7229 9.76873 26.6708 9.66459C26.6187 9.56045 26.5431 9.46986 26.45 9.4L18.45 3.4C18.3202 3.30263 18.1623 3.25 18 3.25C17.8377 3.25 17.6798 3.30263 17.55 3.4L9.55 9.4C9.45685 9.46986 9.38125 9.56045 9.32918 9.66459C9.27711 9.76873 9.25 9.88357 9.25 10V14.8462C7.19032 14.4495 5.09754 14.2499 3 14.25C2.80109 14.25 2.61032 14.329 2.46967 14.4697C2.32902 14.6103 2.25 14.8011 2.25 15C2.25 15.1989 2.32902 15.3897 2.46967 15.5303C2.61032 15.671 2.80109 15.75 3 15.75C7.68633 15.7407 12.3143 16.7897 16.5385 18.8189C20.7628 20.848 24.4744 23.8048 27.3962 27.4688C27.4666 27.5566 27.5558 27.6275 27.6573 27.6762C27.7588 27.7249 27.8699 27.7501 27.9825 27.75C28.1237 27.7497 28.2619 27.7095 28.3812 27.6342C28.5006 27.5588 28.5962 27.4513 28.6572 27.324C28.7182 27.1967 28.742 27.0548 28.7259 26.9145C28.7098 26.7743 28.6545 26.6414 28.5662 26.5312C27.8343 25.6181 27.0544 24.7444 26.23 23.9137C27.1494 23.8054 28.0743 23.7507 29 23.75C29.1989 23.75 29.3897 23.671 29.5303 23.5303C29.671 23.3897 29.75 23.1989 29.75 23C29.75 22.8011 29.671 22.6103 29.5303 22.4697C29.3897 22.329 29.1989 22.25 29 22.25C27.6089 22.25 26.2203 22.3667 24.8487 22.5987C24.0462 21.8779 23.2129 21.2008 22.3487 20.5675C24.5239 20.0233 26.7578 19.7487 29 19.75ZM15.75 16.82V12.75H20.25V15.4325C18.8032 15.8336 17.386 16.3348 16.0088 16.9325L15.75 16.82ZM10.75 10.375L18 4.9375L25.25 10.375V14.4637C24.0735 14.5971 22.9051 14.7944 21.75 15.055V12C21.75 11.8011 21.671 11.6103 21.5303 11.4697C21.3897 11.329 21.1989 11.25 21 11.25H15C14.8011 11.25 14.6103 11.329 14.4697 11.4697C14.329 11.6103 14.25 11.8011 14.25 12V16.2313C13.1042 15.8131 11.9357 15.46 10.75 15.1737V10.375ZM16.8962 27.415C16.8418 27.4971 16.7717 27.5677 16.6899 27.6227C16.6081 27.6776 16.5163 27.716 16.4198 27.7355C16.3232 27.755 16.2237 27.7553 16.127 27.7363C16.0303 27.7174 15.9383 27.6795 15.8562 27.625C12.048 25.0912 7.5742 23.7427 3 23.75C2.80109 23.75 2.61032 23.671 2.46967 23.5303C2.32902 23.3897 2.25 23.1989 2.25 23C2.25 22.8011 2.32902 22.6103 2.46967 22.4697C2.61032 22.329 2.80109 22.25 3 22.25C7.86948 22.2423 12.6321 23.6777 16.6863 26.375C16.7684 26.4295 16.8389 26.4996 16.8939 26.5814C16.9489 26.6631 16.9872 26.7549 17.0067 26.8515C17.0262 26.9481 17.0265 27.0475 17.0076 27.1442C16.9886 27.2409 16.9508 27.3329 16.8962 27.415ZM23.1213 26.4638C23.1916 26.5327 23.2477 26.6148 23.2863 26.7054C23.3249 26.796 23.3452 26.8934 23.3462 26.9919C23.3472 27.0903 23.3288 27.1881 23.292 27.2794C23.2552 27.3708 23.2008 27.454 23.1319 27.5244C23.0629 27.5947 22.9808 27.6508 22.8902 27.6894C22.7996 27.728 22.7023 27.7484 22.6038 27.7493C22.5053 27.7503 22.4076 27.7319 22.3162 27.6951C22.2248 27.6584 22.1416 27.6039 22.0713 27.535C16.9867 22.5308 10.134 19.7335 3 19.75C2.80109 19.75 2.61032 19.671 2.46967 19.5303C2.32902 19.3897 2.25 19.1989 2.25 19C2.25 18.8011 2.32902 18.6103 2.46967 18.4697C2.61032 18.329 2.80109 18.25 3 18.25C10.528 18.2318 17.7595 21.1833 23.125 26.4638H23.1213Z" fill="white"/>
</svg>
