<svg width="32" height="32" viewBox="0 0 32 32" fill="none" xmlns="http://www.w3.org/2000/svg">
<path d="M30.9487 14.5438L19.9263 7.52253C19.6621 7.35498 19.358 7.26127 19.0453 7.25116C18.7327 7.24105 18.4231 7.3149 18.1488 7.46503C17.8769 7.61382 17.6501 7.83295 17.4919 8.09948C17.3338 8.366 17.2503 8.67014 17.25 8.98003V14.105L6.92625 7.52253C6.66214 7.35498 6.35796 7.26127 6.04535 7.25116C5.73274 7.24105 5.42313 7.3149 5.14875 7.46503C4.8769 7.61382 4.65005 7.83295 4.49194 8.09948C4.33383 8.366 4.25026 8.67014 4.25 8.98003V23.02C4.25026 23.3299 4.33383 23.6341 4.49194 23.9006C4.65005 24.1671 4.8769 24.3862 5.14875 24.535C5.42313 24.6852 5.73274 24.759 6.04535 24.7489C6.35796 24.7388 6.66214 24.6451 6.92625 24.4775L17.25 17.9013V23.02C17.2503 23.3299 17.3338 23.6341 17.4919 23.9006C17.6501 24.1671 17.8769 24.3862 18.1488 24.535C18.4231 24.6852 18.7327 24.759 19.0453 24.7489C19.358 24.7388 19.6621 24.6451 19.9263 24.4775L30.9487 17.4563C31.1943 17.3008 31.3965 17.0857 31.5366 16.8311C31.6767 16.5765 31.7502 16.2906 31.7502 16C31.7502 15.7094 31.6767 15.4235 31.5366 15.1689C31.3965 14.9143 31.1943 14.6993 30.9487 14.5438ZM17.1437 16.1913L6.125 23.2113C6.08815 23.2357 6.04523 23.2493 6.00107 23.2506C5.9569 23.2519 5.91324 23.2409 5.875 23.2188C5.83724 23.2012 5.80535 23.1731 5.78318 23.1379C5.761 23.1026 5.74948 23.0617 5.75 23.02V8.98003C5.74948 8.93839 5.761 8.89748 5.78318 8.86222C5.80535 8.82696 5.83724 8.79886 5.875 8.78128C5.9131 8.75969 5.95621 8.74848 6 8.74878C6.04463 8.74991 6.08801 8.76379 6.125 8.78878L17.1488 15.8088C17.1813 15.829 17.2082 15.8571 17.2268 15.8906C17.2454 15.9241 17.2552 15.9617 17.2552 16C17.2552 16.0383 17.2454 16.076 17.2268 16.1095C17.2082 16.1429 17.1813 16.1711 17.1488 16.1913H17.1437ZM30.1437 16.1913L19.125 23.2113C19.0882 23.2357 19.0452 23.2493 19.0011 23.2506C18.9569 23.2519 18.9132 23.2409 18.875 23.2188C18.8372 23.2012 18.8054 23.1731 18.7832 23.1379C18.761 23.1026 18.7495 23.0617 18.75 23.02V8.98003C18.7495 8.93839 18.761 8.89748 18.7832 8.86222C18.8054 8.82696 18.8372 8.79886 18.875 8.78128C18.9131 8.75969 18.9562 8.74848 19 8.74878C19.0446 8.74991 19.088 8.76379 19.125 8.78878L30.1488 15.8088C30.1813 15.829 30.2082 15.8571 30.2268 15.8906C30.2454 15.9241 30.2552 15.9617 30.2552 16C30.2552 16.0383 30.2454 16.076 30.2268 16.1095C30.2082 16.1429 30.1813 16.1711 30.1488 16.1913H30.1437Z" fill="white"/>
</svg>
