<svg width="32" height="32" viewBox="0 0 32 32" fill="none" xmlns="http://www.w3.org/2000/svg">
<path d="M16 3.25C13.4783 3.25 11.0132 3.99777 8.91648 5.39876C6.81976 6.79975 5.18556 8.79103 4.22054 11.1208C3.25552 13.4505 3.00303 16.0141 3.49499 18.4874C3.98696 20.9607 5.20127 23.2325 6.98439 25.0156C8.76751 26.7987 11.0393 28.0131 13.5126 28.505C15.9859 28.997 18.5495 28.7445 20.8792 27.7795C23.209 26.8144 25.2003 25.1802 26.6012 23.0835C28.0022 20.9868 28.75 18.5217 28.75 16C28.746 12.6197 27.4015 9.379 25.0112 6.98877C22.621 4.59854 19.3803 3.25397 16 3.25ZM16 27.25C13.775 27.25 11.5999 26.5902 9.74984 25.354C7.89979 24.1179 6.45785 22.3609 5.60636 20.3052C4.75488 18.2495 4.53209 15.9875 4.96617 13.8052C5.40025 11.6229 6.47171 9.61839 8.04505 8.04505C9.6184 6.47171 11.623 5.40025 13.8052 4.96617C15.9875 4.53208 18.2495 4.75487 20.3052 5.60636C22.3609 6.45784 24.1179 7.89978 25.354 9.74984C26.5902 11.5999 27.25 13.775 27.25 16C27.2467 18.9827 26.0604 21.8422 23.9513 23.9513C21.8422 26.0604 18.9827 27.2467 16 27.25ZM23.95 15.4L17.95 10.9C17.8386 10.8164 17.7061 10.7655 17.5674 10.753C17.4286 10.7405 17.2892 10.7669 17.1646 10.8292C17.04 10.8915 16.9352 10.9872 16.862 11.1057C16.7888 11.2242 16.75 11.3607 16.75 11.5V15.25L10.95 10.9C10.8386 10.8164 10.7061 10.7655 10.5674 10.753C10.4286 10.7405 10.2892 10.7669 10.1646 10.8292C10.04 10.8915 9.93524 10.9872 9.86202 11.1057C9.78879 11.2242 9.75001 11.3607 9.75001 11.5V20.5C9.75001 20.6393 9.78879 20.7758 9.86202 20.8943C9.93524 21.0128 10.04 21.1085 10.1646 21.1708C10.2892 21.2331 10.4286 21.2595 10.5674 21.247C10.7061 21.2345 10.8386 21.1836 10.95 21.1L16.75 16.75V20.5C16.75 20.6393 16.7888 20.7758 16.862 20.8943C16.9352 21.0128 17.04 21.1085 17.1646 21.1708C17.2892 21.2331 17.4286 21.2595 17.5674 21.247C17.7061 21.2345 17.8386 21.1836 17.95 21.1L23.95 16.6C24.0432 16.5301 24.1188 16.4396 24.1708 16.3354C24.2229 16.2313 24.25 16.1164 24.25 16C24.25 15.8836 24.2229 15.7687 24.1708 15.6646C24.1188 15.5604 24.0432 15.4699 23.95 15.4ZM11.25 19V13L15.25 16L11.25 19ZM18.25 19V13L22.25 16L18.25 19Z" fill="white"/>
</svg>
