<svg width="32" height="32" viewBox="0 0 32 32" fill="none" xmlns="http://www.w3.org/2000/svg">
<path d="M29.7502 10.0001C29.7501 8.46761 29.2958 6.96954 28.4445 5.69524C27.5932 4.42094 26.3833 3.42762 24.9676 2.84085C23.5519 2.25408 21.994 2.10019 20.4908 2.39864C18.9877 2.69709 17.6068 3.43448 16.5227 4.51759L7.76265 13.1763C7.59982 13.3386 7.47071 13.5315 7.38275 13.7439C7.29479 13.9563 7.24973 14.184 7.25015 14.4138V23.6901L3.47015 27.4701C3.39647 27.5388 3.33736 27.6216 3.29637 27.7136C3.25538 27.8056 3.23334 27.9049 3.23156 28.0056C3.22979 28.1063 3.24831 28.2063 3.28603 28.2997C3.32375 28.3931 3.3799 28.4779 3.45112 28.5491C3.52233 28.6203 3.60717 28.6765 3.70056 28.7142C3.79394 28.7519 3.89397 28.7705 3.99468 28.7687C4.09538 28.7669 4.19469 28.7449 4.28669 28.7039C4.37869 28.6629 4.46149 28.6038 4.53015 28.5301L8.31015 24.7501H17.5864C17.8163 24.7505 18.044 24.7055 18.2564 24.6175C18.4688 24.5295 18.6616 24.4004 18.8239 24.2376L27.4277 15.5338L27.4764 15.4838C28.1994 14.7657 28.7727 13.9112 29.163 12.9699C29.5533 12.0286 29.7529 11.0191 29.7502 10.0001ZM17.5802 5.58009C18.7396 4.43018 20.303 3.7797 21.9359 3.76781C23.5688 3.75592 25.1415 4.38357 26.3175 5.51647C27.4935 6.64938 28.1795 8.19755 28.2285 9.82976C28.2776 11.462 27.686 13.0486 26.5802 14.2501H18.8102L23.5302 9.53009C23.6626 9.38792 23.7348 9.19987 23.7313 9.00557C23.7279 8.81127 23.6492 8.62589 23.5118 8.48847C23.3744 8.35106 23.189 8.27235 22.9947 8.26892C22.8004 8.26549 22.6123 8.33761 22.4702 8.47009L16.4702 14.4701L14.7502 16.1901V8.37509L17.5802 5.58009ZM8.75015 14.4138C8.75009 14.349 8.77518 14.2867 8.82015 14.2401L13.2502 9.86509V17.6938L8.75015 22.1938V14.4138ZM17.7614 23.1776C17.7148 23.2238 17.652 23.2498 17.5864 23.2501H9.81015L14.5302 18.5313L17.3102 15.7501H25.1039L17.7614 23.1776Z" fill="white"/>
</svg>
