<svg width="32" height="32" viewBox="0 0 32 32" fill="none" xmlns="http://www.w3.org/2000/svg">
<path d="M26.5 12.25C26.0196 12.2497 25.5452 12.3564 25.1112 12.5625L21.06 7.50003C21.379 7.09213 21.596 6.6139 21.6927 6.10518C21.7895 5.59646 21.7633 5.07198 21.6164 4.57543C21.4694 4.07888 21.2059 3.62464 20.8478 3.25054C20.4897 2.87645 20.0475 2.59333 19.5578 2.42478C19.0682 2.25623 18.5453 2.20712 18.0329 2.28155C17.5204 2.35597 17.0332 2.55178 16.6117 2.85265C16.1902 3.15353 15.8467 3.55076 15.6099 4.01126C15.373 4.47175 15.2496 4.98218 15.25 5.50003C15.2501 5.67547 15.2643 5.85061 15.2925 6.02378L9.12499 8.59253C8.81407 8.16339 8.40292 7.8168 7.92738 7.58294C7.45184 7.34908 6.92633 7.23505 6.39663 7.25079C5.86693 7.26653 5.34912 7.41156 4.8883 7.67325C4.42749 7.93493 4.03765 8.30533 3.75276 8.75217C3.46787 9.19901 3.29657 9.70873 3.25378 10.2369C3.21099 10.7651 3.29801 11.2958 3.50726 11.7827C3.71651 12.2695 4.04164 12.6978 4.45433 13.0303C4.86701 13.3627 5.35473 13.5892 5.87499 13.69L6.12499 19.875C5.60874 20.0187 5.13602 20.2878 4.74893 20.6583C4.36183 21.0289 4.07236 21.4894 3.90629 21.9989C3.74023 22.5084 3.70272 23.051 3.7971 23.5785C3.89149 24.106 4.11483 24.6019 4.44726 25.0222C4.77969 25.4425 5.21089 25.7741 5.70246 25.9874C6.19403 26.2007 6.73072 26.2892 7.26476 26.2449C7.79879 26.2007 8.31359 26.0251 8.76333 25.7337C9.21307 25.4423 9.58379 25.0443 9.84249 24.575L16.25 26.375C16.25 26.4175 16.25 26.4613 16.25 26.5C16.2494 27.0328 16.3799 27.5575 16.6298 28.028C16.8798 28.4985 17.2415 28.9003 17.6833 29.1981C18.125 29.4959 18.6332 29.6806 19.1631 29.7358C19.693 29.791 20.2283 29.7151 20.722 29.5148C21.2157 29.3145 21.6525 28.9959 21.9941 28.587C22.3357 28.1782 22.5715 27.6916 22.6808 27.1702C22.7901 26.6488 22.7696 26.1085 22.621 25.5969C22.4724 25.0853 22.2004 24.618 21.8287 24.2363L25.435 18.57C25.8814 18.7251 26.3564 18.781 26.8266 18.7337C27.2969 18.6865 27.7512 18.5372 28.1578 18.2963C28.5645 18.0555 28.9137 17.7288 29.1812 17.3391C29.4486 16.9495 29.6278 16.5061 29.7064 16.0401C29.7849 15.574 29.7609 15.0964 29.6359 14.6406C29.5109 14.1848 29.288 13.7618 28.9828 13.4009C28.6775 13.0401 28.2972 12.7502 27.8684 12.5514C27.4396 12.3527 26.9726 12.2498 26.5 12.25ZM19.5 23.25C19.4025 23.25 19.3062 23.25 19.2112 23.2638L17.025 16.7025L23.375 16.4C23.5239 16.9127 23.7965 17.3811 24.1687 17.7638L20.5625 23.43C20.2209 23.311 19.8617 23.2502 19.5 23.25ZM9.03374 20.4675C8.62426 20.1376 8.14085 19.912 7.62499 19.81L7.37499 13.625C7.94114 13.4659 8.45351 13.1562 8.85749 12.7288L14.66 16.0875L9.03374 20.4675ZM18.5 8.75003C18.9804 8.75039 19.4548 8.64363 19.8887 8.43753L23.94 13.5C23.6195 13.9091 23.4022 14.3893 23.3062 14.9L16.9612 15.2025L18.5 8.75003ZM18.5 3.75003C18.8461 3.75003 19.1844 3.85266 19.4722 4.04495C19.76 4.23725 19.9843 4.51056 20.1168 4.83033C20.2492 5.1501 20.2839 5.50197 20.2164 5.84143C20.1488 6.1809 19.9822 6.49272 19.7374 6.73746C19.4927 6.9822 19.1809 7.14888 18.8414 7.2164C18.5019 7.28392 18.1501 7.24927 17.8303 7.11682C17.5105 6.98436 17.2372 6.76006 17.0449 6.47227C16.8526 6.18449 16.75 5.84614 16.75 5.50003C16.75 5.0359 16.9344 4.59078 17.2626 4.26259C17.5907 3.9344 18.0359 3.75003 18.5 3.75003ZM15.875 7.40753C16.18 7.82652 16.5801 8.16711 17.0425 8.40128L15.5 14.8463L9.61249 11.435C9.75452 10.9623 9.78701 10.4634 9.70749 9.97628L15.875 7.40753ZM4.74999 10.5C4.74999 10.1539 4.85262 9.81556 5.04492 9.52778C5.23721 9.23999 5.51052 9.01569 5.83029 8.88324C6.15006 8.75078 6.50193 8.71613 6.8414 8.78365C7.18086 8.85118 7.49268 9.01785 7.73742 9.26259C7.98217 9.50733 8.14884 9.81915 8.21636 10.1586C8.28389 10.4981 8.24923 10.85 8.11678 11.1697C7.98432 11.4895 7.76002 11.7628 7.47224 11.9551C7.18445 12.1474 6.8461 12.25 6.49999 12.25C6.03586 12.25 5.59074 12.0657 5.26255 11.7375C4.93436 11.4093 4.74999 10.9642 4.74999 10.5ZM6.99999 24.75C6.65387 24.75 6.31552 24.6474 6.02774 24.4551C5.73995 24.2628 5.51565 23.9895 5.3832 23.6697C5.25074 23.35 5.21609 22.9981 5.28361 22.6586C5.35114 22.3192 5.51781 22.0073 5.76255 21.7626C6.00729 21.5178 6.31911 21.3512 6.65858 21.2837C6.99805 21.2161 7.34991 21.2508 7.66968 21.3832C7.98945 21.5157 8.26277 21.74 8.45506 22.0278C8.64735 22.3156 8.74999 22.6539 8.74999 23C8.74999 23.4642 8.56561 23.9093 8.23742 24.2375C7.90924 24.5657 7.46412 24.75 6.99999 24.75ZM10.25 23.125C10.25 23.0825 10.25 23.0388 10.25 23C10.25 22.5346 10.1498 22.0746 9.95624 21.6513L15.625 17.2425L17.79 23.7425C17.3185 24.0358 16.9293 24.444 16.6587 24.9288L10.25 23.125ZM19.5 28.25C19.1539 28.25 18.8155 28.1474 18.5277 27.9551C18.24 27.7628 18.0157 27.4895 17.8832 27.1697C17.7507 26.85 17.7161 26.4981 17.7836 26.1586C17.8511 25.8192 18.0178 25.5073 18.2626 25.2626C18.5073 25.0178 18.8191 24.8512 19.1586 24.7837C19.498 24.7161 19.8499 24.7508 20.1697 24.8832C20.4895 25.0157 20.7628 25.24 20.9551 25.5278C21.1474 25.8156 21.25 26.1539 21.25 26.5C21.25 26.9642 21.0656 27.4093 20.7374 27.7375C20.4092 28.0657 19.9641 28.25 19.5 28.25ZM26.5 17.25C26.1539 17.25 25.8155 17.1474 25.5277 16.9551C25.24 16.7628 25.0157 16.4895 24.8832 16.1697C24.7507 15.85 24.7161 15.4981 24.7836 15.1586C24.8511 14.8192 25.0178 14.5073 25.2626 14.2626C25.5073 14.0178 25.8191 13.8512 26.1586 13.7837C26.498 13.7161 26.8499 13.7508 27.1697 13.8832C27.4895 14.0157 27.7628 14.24 27.9551 14.5278C28.1474 14.8156 28.25 15.1539 28.25 15.5C28.25 15.9642 28.0656 16.4093 27.7374 16.7375C27.4092 17.0657 26.9641 17.25 26.5 17.25Z" fill="white"/>
</svg>
