<svg width="32" height="32" viewBox="0 0 32 32" fill="none" xmlns="http://www.w3.org/2000/svg">
<path d="M23.5562 12C24.4206 11.4464 25.0825 10.6277 25.4426 9.6665C25.8027 8.70529 25.8418 7.65328 25.5539 6.668C25.2661 5.68272 24.6668 4.81719 23.8459 4.20102C23.0249 3.58484 22.0265 3.25118 21 3.25H12C10.9735 3.25118 9.97507 3.58484 9.15412 4.20102C8.33317 4.81719 7.73391 5.68272 7.44607 6.668C7.15822 7.65328 7.19729 8.70529 7.55742 9.6665C7.91755 10.6277 8.57936 11.4464 9.44375 12C8.75747 12.4394 8.19576 13.0479 7.81263 13.767C7.42949 14.4862 7.23781 15.2919 7.25601 16.1065C7.27422 16.9212 7.50169 17.7175 7.91657 18.4188C8.33145 19.1202 8.91978 19.703 9.625 20.1112C8.86416 20.6092 8.2457 21.2962 7.83019 22.105C7.41468 22.9138 7.21636 23.8167 7.25466 24.7252C7.29296 25.6337 7.56656 26.5167 8.04867 27.2876C8.53079 28.0586 9.20487 28.6911 10.0049 29.1233C10.805 29.5554 11.7035 29.7724 12.6126 29.7529C13.5217 29.7334 14.4102 29.4781 15.1909 29.012C15.9717 28.5459 16.618 27.8851 17.0666 27.0941C17.5152 26.3032 17.7507 25.4093 17.75 24.5V19.46C18.2306 19.9174 18.8017 20.269 19.4265 20.4922C20.0513 20.7154 20.7159 20.8052 21.3776 20.7559C22.0392 20.7066 22.6832 20.5192 23.268 20.2059C23.8528 19.8925 24.3654 19.4601 24.7729 18.9365C25.1804 18.413 25.4737 17.8098 25.6339 17.166C25.7941 16.5222 25.8177 15.8519 25.7031 15.1984C25.5884 14.5449 25.3382 13.9227 24.9684 13.3718C24.5987 12.8209 24.1176 12.3536 23.5562 12ZM24.25 8C24.25 8.86195 23.9076 9.6886 23.2981 10.2981C22.6886 10.9076 21.862 11.25 21 11.25H17.75V4.75H21C21.862 4.75 22.6886 5.09241 23.2981 5.7019C23.9076 6.3114 24.25 7.13805 24.25 8ZM8.75 8C8.75 7.13805 9.09241 6.3114 9.7019 5.7019C10.3114 5.09241 11.138 4.75 12 4.75H16.25V11.25H12C11.138 11.25 10.3114 10.9076 9.7019 10.2981C9.09241 9.6886 8.75 8.86195 8.75 8ZM12 19.25C11.138 19.25 10.3114 18.9076 9.7019 18.2981C9.09241 17.6886 8.75 16.862 8.75 16C8.75 15.138 9.09241 14.3114 9.7019 13.7019C10.3114 13.0924 11.138 12.75 12 12.75H16.25V19.25H12ZM16.25 24.5C16.25 25.2417 16.0301 25.9667 15.618 26.5834C15.206 27.2001 14.6203 27.6807 13.9351 27.9645C13.2498 28.2484 12.4958 28.3226 11.7684 28.1779C11.041 28.0332 10.3728 27.6761 9.84835 27.1517C9.3239 26.6272 8.96675 25.959 8.82205 25.2316C8.67736 24.5042 8.75162 23.7502 9.03545 23.0649C9.31928 22.3797 9.79993 21.794 10.4166 21.382C11.0333 20.9699 11.7583 20.75 12.5 20.75H16.25V24.5ZM21 19.25C20.3572 19.25 19.7289 19.0594 19.1944 18.7023C18.6599 18.3452 18.2434 17.8376 17.9974 17.2437C17.7514 16.6499 17.687 15.9964 17.8124 15.366C17.9378 14.7355 18.2474 14.1564 18.7019 13.7019C19.1564 13.2474 19.7355 12.9378 20.366 12.8124C20.9964 12.687 21.6499 12.7514 22.2437 12.9974C22.8376 13.2434 23.3452 13.6599 23.7023 14.1944C24.0594 14.7289 24.25 15.3572 24.25 16C24.25 16.862 23.9076 17.6886 23.2981 18.2981C22.6886 18.9076 21.862 19.25 21 19.25Z" fill="white"/>
</svg>
