<svg width="32" height="32" viewBox="0 0 32 32" fill="none" xmlns="http://www.w3.org/2000/svg">
<path d="M5.75 22.5C5.75 24.0163 6.75875 25.25 8 25.25C8.27521 25.2447 8.54646 25.1835 8.79724 25.07C9.04802 24.9565 9.27309 24.7932 9.45875 24.59C9.59777 24.4529 9.78478 24.3754 9.98003 24.374C10.1753 24.3726 10.3634 24.4474 10.5043 24.5825C10.6453 24.7176 10.728 24.9024 10.7349 25.0975C10.7418 25.2927 10.6723 25.4828 10.5413 25.6275C10.2164 25.9778 9.82348 26.2581 9.3865 26.4511C8.94951 26.6441 8.4777 26.7458 8 26.75C5.9325 26.75 4.25 24.8438 4.25 22.5C4.25 20.1562 5.9325 18.25 8 18.25C8.47788 18.2545 8.9498 18.3566 9.3868 18.5501C9.8238 18.7435 10.2167 19.0242 10.5413 19.375C10.6723 19.5197 10.7418 19.7098 10.7349 19.905C10.728 20.1001 10.6453 20.2849 10.5043 20.42C10.3634 20.5551 10.1753 20.6299 9.98003 20.6285C9.78478 20.6271 9.59777 20.5496 9.45875 20.4125C9.27331 20.2088 9.04834 20.045 8.79754 19.9312C8.54675 19.8173 8.27539 19.7556 8 19.75C6.75875 19.75 5.75 20.9837 5.75 22.5ZM5.25 14V5C5.25 4.53587 5.43437 4.09075 5.76256 3.76256C6.09075 3.43437 6.53587 3.25 7 3.25H19C19.0987 3.24992 19.1964 3.26932 19.2875 3.30707C19.3787 3.34482 19.4615 3.40019 19.5312 3.47L26.5312 10.47C26.6715 10.6107 26.7502 10.8013 26.75 11V14C26.75 14.1989 26.671 14.3897 26.5303 14.5303C26.3897 14.671 26.1989 14.75 26 14.75C25.8011 14.75 25.6103 14.671 25.4697 14.5303C25.329 14.3897 25.25 14.1989 25.25 14V11.75H19C18.8011 11.75 18.6103 11.671 18.4697 11.5303C18.329 11.3897 18.25 11.1989 18.25 11V4.75H7C6.9337 4.75 6.87011 4.77634 6.82322 4.82322C6.77634 4.87011 6.75 4.9337 6.75 5V14C6.75 14.1989 6.67098 14.3897 6.53033 14.5303C6.38968 14.671 6.19891 14.75 6 14.75C5.80109 14.75 5.61032 14.671 5.46967 14.5303C5.32902 14.3897 5.25 14.1989 5.25 14ZM19.75 10.25H24.19L19.75 5.81V10.25ZM18.5 21.75H16.75V20C16.75 19.8011 16.671 19.6103 16.5303 19.4697C16.3897 19.329 16.1989 19.25 16 19.25C15.8011 19.25 15.6103 19.329 15.4697 19.4697C15.329 19.6103 15.25 19.8011 15.25 20V21.75H13.5C13.3011 21.75 13.1103 21.829 12.9697 21.9697C12.829 22.1103 12.75 22.3011 12.75 22.5C12.75 22.6989 12.829 22.8897 12.9697 23.0303C13.1103 23.171 13.3011 23.25 13.5 23.25H15.25V25C15.25 25.1989 15.329 25.3897 15.4697 25.5303C15.6103 25.671 15.8011 25.75 16 25.75C16.1989 25.75 16.3897 25.671 16.5303 25.5303C16.671 25.3897 16.75 25.1989 16.75 25V23.25H18.5C18.6989 23.25 18.8897 23.171 19.0303 23.0303C19.171 22.8897 19.25 22.6989 19.25 22.5C19.25 22.3011 19.171 22.1103 19.0303 21.9697C18.8897 21.829 18.6989 21.75 18.5 21.75ZM27 21.75H25.25V20C25.25 19.8011 25.171 19.6103 25.0303 19.4697C24.8897 19.329 24.6989 19.25 24.5 19.25C24.3011 19.25 24.1103 19.329 23.9697 19.4697C23.829 19.6103 23.75 19.8011 23.75 20V21.75H22C21.8011 21.75 21.6103 21.829 21.4697 21.9697C21.329 22.1103 21.25 22.3011 21.25 22.5C21.25 22.6989 21.329 22.8897 21.4697 23.0303C21.6103 23.171 21.8011 23.25 22 23.25H23.75V25C23.75 25.1989 23.829 25.3897 23.9697 25.5303C24.1103 25.671 24.3011 25.75 24.5 25.75C24.6989 25.75 24.8897 25.671 25.0303 25.5303C25.171 25.3897 25.25 25.1989 25.25 25V23.25H27C27.1989 23.25 27.3897 23.171 27.5303 23.0303C27.671 22.8897 27.75 22.6989 27.75 22.5C27.75 22.3011 27.671 22.1103 27.5303 21.9697C27.3897 21.829 27.1989 21.75 27 21.75Z" fill="white"/>
</svg>
