<svg width="32" height="32" viewBox="0 0 32 32" fill="none" xmlns="http://www.w3.org/2000/svg">
<path d="M26.53 10.47L19.53 3.47C19.3895 3.32931 19.1988 3.25018 19 3.25H7C6.53587 3.25 6.09075 3.43437 5.76256 3.76256C5.43437 4.09075 5.25 4.53587 5.25 5V14C5.25 14.1989 5.32902 14.3897 5.46967 14.5303C5.61032 14.671 5.80109 14.75 6 14.75C6.19891 14.75 6.38968 14.671 6.53033 14.5303C6.67098 14.3897 6.75 14.1989 6.75 14V5C6.75 4.9337 6.77634 4.87011 6.82322 4.82322C6.87011 4.77634 6.9337 4.75 7 4.75H18.25V11C18.25 11.1989 18.329 11.3897 18.4697 11.5303C18.6103 11.671 18.8011 11.75 19 11.75H25.25V27C25.25 27.0663 25.2237 27.1299 25.1768 27.1768C25.1299 27.2237 25.0663 27.25 25 27.25H24C23.8011 27.25 23.6103 27.329 23.4697 27.4697C23.329 27.6103 23.25 27.8011 23.25 28C23.25 28.1989 23.329 28.3897 23.4697 28.5303C23.6103 28.671 23.8011 28.75 24 28.75H25C25.4641 28.75 25.9092 28.5656 26.2374 28.2374C26.5656 27.9092 26.75 27.4641 26.75 27V11C26.7498 10.8012 26.6707 10.6105 26.53 10.47ZM19.75 5.81L24.19 10.25H19.75V5.81ZM19.3638 18.3438C19.2466 18.2788 19.1143 18.2464 18.9804 18.2499C18.8465 18.2535 18.716 18.2928 18.6025 18.3638L15.75 20.1462V20C15.75 19.5359 15.5656 19.0908 15.2374 18.7626C14.9092 18.4344 14.4641 18.25 14 18.25H6C5.53587 18.25 5.09075 18.4344 4.76256 18.7626C4.43437 19.0908 4.25 19.5359 4.25 20V26C4.25 26.4641 4.43437 26.9092 4.76256 27.2374C5.09075 27.5656 5.53587 27.75 6 27.75H14C14.4641 27.75 14.9092 27.5656 15.2374 27.2374C15.5656 26.9092 15.75 26.4641 15.75 26V25.8538L18.6025 27.6362C18.716 27.7072 18.8465 27.7465 18.9804 27.75C19.1142 27.7535 19.2466 27.7211 19.3637 27.6562C19.4808 27.5912 19.5784 27.4961 19.6463 27.3808C19.7142 27.2654 19.75 27.1339 19.75 27V19C19.7501 18.8661 19.7143 18.7346 19.6464 18.6192C19.5784 18.5038 19.4809 18.4087 19.3638 18.3438ZM14.25 26C14.25 26.0663 14.2237 26.1299 14.1768 26.1768C14.1299 26.2237 14.0663 26.25 14 26.25H6C5.9337 26.25 5.87011 26.2237 5.82322 26.1768C5.77634 26.1299 5.75 26.0663 5.75 26V20C5.75 19.9337 5.77634 19.8701 5.82322 19.8232C5.87011 19.7763 5.9337 19.75 6 19.75H14C14.0663 19.75 14.1299 19.7763 14.1768 19.8232C14.2237 19.8701 14.25 19.9337 14.25 20V26ZM18.25 25.6462L15.75 24.0837V21.9163L18.25 20.3538V25.6462Z" fill="white"/>
</svg>
