<svg width="32" height="32" viewBox="0 0 32 32" fill="none" xmlns="http://www.w3.org/2000/svg">
<path d="M26.53 10.47L19.53 3.47C19.3895 3.32931 19.1988 3.25018 19 3.25H7C6.53587 3.25 6.09075 3.43437 5.76256 3.76256C5.43437 4.09075 5.25 4.53587 5.25 5V14C5.25 14.1989 5.32902 14.3897 5.46967 14.5303C5.61032 14.671 5.80109 14.75 6 14.75C6.19891 14.75 6.38968 14.671 6.53033 14.5303C6.67098 14.3897 6.75 14.1989 6.75 14V5C6.75 4.9337 6.77634 4.87011 6.82322 4.82322C6.87011 4.77634 6.9337 4.75 7 4.75H18.25V11C18.25 11.1989 18.329 11.3897 18.4697 11.5303C18.6103 11.671 18.8011 11.75 19 11.75H25.25V28C25.25 28.1989 25.329 28.3897 25.4697 28.5303C25.6103 28.671 25.8011 28.75 26 28.75C26.1989 28.75 26.3897 28.671 26.5303 28.5303C26.671 28.3897 26.75 28.1989 26.75 28V11C26.7498 10.8012 26.6707 10.6105 26.53 10.47ZM19.75 5.81L24.19 10.25H19.75V5.81ZM18 18.25H16C15.8011 18.25 15.6103 18.329 15.4697 18.4697C15.329 18.6103 15.25 18.8011 15.25 19V26C15.25 26.1989 15.329 26.3897 15.4697 26.5303C15.6103 26.671 15.8011 26.75 16 26.75H18C19.1272 26.75 20.2082 26.3022 21.0052 25.5052C21.8022 24.7082 22.25 23.6272 22.25 22.5C22.25 21.3728 21.8022 20.2918 21.0052 19.4948C20.2082 18.6978 19.1272 18.25 18 18.25ZM18 25.25H16.75V19.75H18C18.7293 19.75 19.4288 20.0397 19.9445 20.5555C20.4603 21.0712 20.75 21.7707 20.75 22.5C20.75 23.2293 20.4603 23.9288 19.9445 24.4445C19.4288 24.9603 18.7293 25.25 18 25.25ZM12.75 19V26C12.75 26.1989 12.671 26.3897 12.5303 26.5303C12.3897 26.671 12.1989 26.75 12 26.75C11.8011 26.75 11.6103 26.671 11.4697 26.5303C11.329 26.3897 11.25 26.1989 11.25 26V21.375L9.115 24.43C9.04588 24.529 8.95388 24.6099 8.8468 24.6657C8.73973 24.7216 8.62076 24.7507 8.5 24.7507C8.37924 24.7507 8.26027 24.7216 8.1532 24.6657C8.04612 24.6099 7.95412 24.529 7.885 24.43L5.75 21.375V26C5.75 26.1989 5.67098 26.3897 5.53033 26.5303C5.38968 26.671 5.19891 26.75 5 26.75C4.80109 26.75 4.61032 26.671 4.46967 26.5303C4.32902 26.3897 4.25 26.1989 4.25 26V19C4.24985 18.8403 4.30065 18.6848 4.39501 18.556C4.48937 18.4272 4.62237 18.3319 4.77465 18.2839C4.92694 18.236 5.09055 18.2378 5.2417 18.2893C5.39284 18.3407 5.52362 18.4391 5.615 18.57L8.5 22.695L11.385 18.57C11.4764 18.4391 11.6072 18.3407 11.7583 18.2893C11.9094 18.2378 12.0731 18.236 12.2253 18.2839C12.3776 18.3319 12.5106 18.4272 12.605 18.556C12.6994 18.6848 12.7502 18.8403 12.75 19Z" fill="white"/>
</svg>
