<svg width="32" height="32" viewBox="0 0 32 32" fill="none" xmlns="http://www.w3.org/2000/svg">
<path d="M26.75 15V11C26.7498 10.8012 26.6707 10.6105 26.53 10.47L19.53 3.47C19.3895 3.32931 19.1988 3.25018 19 3.25H7C6.53587 3.25 6.09075 3.43437 5.76256 3.76256C5.43437 4.09075 5.25 4.53587 5.25 5V15C5.25 15.1989 5.32902 15.3897 5.46967 15.5303C5.61032 15.671 5.80109 15.75 6 15.75C6.19891 15.75 6.38968 15.671 6.53033 15.5303C6.67098 15.3897 6.75 15.1989 6.75 15V5C6.75 4.9337 6.77634 4.87011 6.82322 4.82322C6.87011 4.77634 6.9337 4.75 7 4.75H18.25V11C18.25 11.1989 18.329 11.3897 18.4697 11.5303C18.6103 11.671 18.8011 11.75 19 11.75H25.25V15C25.25 15.1989 25.329 15.3897 25.4697 15.5303C25.6103 15.671 25.8011 15.75 26 15.75C26.1989 15.75 26.3897 15.671 26.5303 15.5303C26.671 15.3897 26.75 15.1989 26.75 15ZM19.75 5.81L24.19 10.25H19.75V5.81ZM8.25 20V26C8.25 26.1989 8.17098 26.3897 8.03033 26.5303C7.88968 26.671 7.69891 26.75 7.5 26.75C7.30109 26.75 7.11032 26.671 6.96967 26.5303C6.82902 26.3897 6.75 26.1989 6.75 26V23.75H3.75V26C3.75 26.1989 3.67098 26.3897 3.53033 26.5303C3.38968 26.671 3.19891 26.75 3 26.75C2.80109 26.75 2.61032 26.671 2.46967 26.5303C2.32902 26.3897 2.25 26.1989 2.25 26V20C2.25 19.8011 2.32902 19.6103 2.46967 19.4697C2.61032 19.329 2.80109 19.25 3 19.25C3.19891 19.25 3.38968 19.329 3.53033 19.4697C3.67098 19.6103 3.75 19.8011 3.75 20V22.25H6.75V20C6.75 19.8011 6.82902 19.6103 6.96967 19.4697C7.11032 19.329 7.30109 19.25 7.5 19.25C7.69891 19.25 7.88968 19.329 8.03033 19.4697C8.17098 19.6103 8.25 19.8011 8.25 20ZM15.25 20C15.25 20.1989 15.171 20.3897 15.0303 20.5303C14.8897 20.671 14.6989 20.75 14.5 20.75H13.25V26C13.25 26.1989 13.171 26.3897 13.0303 26.5303C12.8897 26.671 12.6989 26.75 12.5 26.75C12.3011 26.75 12.1103 26.671 11.9697 26.5303C11.829 26.3897 11.75 26.1989 11.75 26V20.75H10.5C10.3011 20.75 10.1103 20.671 9.96967 20.5303C9.82902 20.3897 9.75 20.1989 9.75 20C9.75 19.8011 9.82902 19.6103 9.96967 19.4697C10.1103 19.329 10.3011 19.25 10.5 19.25H14.5C14.6989 19.25 14.8897 19.329 15.0303 19.4697C15.171 19.6103 15.25 19.8011 15.25 20ZM24.25 20V26C24.25 26.1989 24.171 26.3897 24.0303 26.5303C23.8897 26.671 23.6989 26.75 23.5 26.75C23.3011 26.75 23.1103 26.671 22.9697 26.5303C22.829 26.3897 22.75 26.1989 22.75 26V22.25L21.1 24.45C21.0301 24.5431 20.9396 24.6187 20.8354 24.6708C20.7313 24.7229 20.6164 24.75 20.5 24.75C20.3836 24.75 20.2687 24.7229 20.1646 24.6708C20.0604 24.6187 19.9699 24.5431 19.9 24.45L18.25 22.25V26C18.25 26.1989 18.171 26.3897 18.0303 26.5303C17.8897 26.671 17.6989 26.75 17.5 26.75C17.3011 26.75 17.1103 26.671 16.9697 26.5303C16.829 26.3897 16.75 26.1989 16.75 26V20C16.75 19.8426 16.7995 19.6892 16.8916 19.5615C16.9836 19.4338 17.1135 19.3383 17.2628 19.2885C17.4122 19.2387 17.5734 19.2372 17.7236 19.2841C17.8739 19.3311 18.0056 19.4241 18.1 19.55L20.5 22.75L22.9 19.55C22.9944 19.4241 23.1261 19.3311 23.2764 19.2841C23.4266 19.2372 23.5878 19.2387 23.7372 19.2885C23.8865 19.3383 24.0164 19.4338 24.1084 19.5615C24.2005 19.6892 24.25 19.8426 24.25 20ZM31.25 26C31.25 26.1989 31.171 26.3897 31.0303 26.5303C30.8897 26.671 30.6989 26.75 30.5 26.75H27C26.8011 26.75 26.6103 26.671 26.4697 26.5303C26.329 26.3897 26.25 26.1989 26.25 26V20C26.25 19.8011 26.329 19.6103 26.4697 19.4697C26.6103 19.329 26.8011 19.25 27 19.25C27.1989 19.25 27.3897 19.329 27.5303 19.4697C27.671 19.6103 27.75 19.8011 27.75 20V25.25H30.5C30.6989 25.25 30.8897 25.329 31.0303 25.4697C31.171 25.6103 31.25 25.8011 31.25 26Z" fill="white"/>
</svg>
