<svg width="32" height="32" viewBox="0 0 32 32" fill="none" xmlns="http://www.w3.org/2000/svg">
<path d="M6 14.75C6.19891 14.75 6.38968 14.671 6.53033 14.5303C6.67098 14.3897 6.75 14.1989 6.75 14V5C6.75 4.9337 6.77634 4.87011 6.82322 4.82322C6.87011 4.77634 6.9337 4.75 7 4.75H18.25V11C18.25 11.1989 18.329 11.3897 18.4697 11.5303C18.6103 11.671 18.8011 11.75 19 11.75H25.25V14C25.25 14.1989 25.329 14.3897 25.4697 14.5303C25.6103 14.671 25.8011 14.75 26 14.75C26.1989 14.75 26.3897 14.671 26.5303 14.5303C26.671 14.3897 26.75 14.1989 26.75 14V11C26.7498 10.8012 26.6707 10.6105 26.53 10.47L19.53 3.47C19.3895 3.32931 19.1988 3.25018 19 3.25H7C6.53587 3.25 6.09075 3.43437 5.76256 3.76256C5.43437 4.09075 5.25 4.53587 5.25 5V14C5.25 14.1989 5.32902 14.3897 5.46967 14.5303C5.61032 14.671 5.80109 14.75 6 14.75ZM19.75 5.81L24.19 10.25H19.75V5.81ZM19.11 19.435L16.9212 22.5L19.11 25.5637C19.1675 25.6439 19.2086 25.7345 19.231 25.8305C19.2534 25.9265 19.2567 26.026 19.2407 26.1232C19.2247 26.2205 19.1897 26.3137 19.1376 26.3974C19.0856 26.4811 19.0176 26.5538 18.9375 26.6112C18.8574 26.6687 18.7668 26.7098 18.6708 26.7322C18.5748 26.7547 18.4753 26.758 18.378 26.7419C18.2808 26.7259 18.1876 26.6909 18.1039 26.6389C18.0201 26.5869 17.9475 26.5189 17.89 26.4387L16 23.79L14.11 26.4363C13.994 26.598 13.8184 26.7071 13.622 26.7394C13.4255 26.7718 13.2243 26.7248 13.0625 26.6087C12.9007 26.4927 12.7917 26.3172 12.7593 26.1207C12.727 25.9243 12.774 25.723 12.89 25.5613L15.0787 22.5L12.89 19.4363C12.8325 19.3561 12.7914 19.2655 12.769 19.1695C12.7466 19.0735 12.7433 18.974 12.7593 18.8768C12.7753 18.7795 12.8103 18.6863 12.8624 18.6026C12.9144 18.5189 12.9824 18.4462 13.0625 18.3888C13.1426 18.3313 13.2332 18.2902 13.3292 18.2678C13.4252 18.2453 13.5247 18.242 13.622 18.2581C13.7192 18.2741 13.8124 18.3091 13.8961 18.3611C13.9799 18.4131 14.0525 18.4811 14.11 18.5613L16 21.21L17.89 18.5637C18.006 18.402 18.1816 18.2929 18.378 18.2606C18.5745 18.2282 18.7757 18.2752 18.9375 18.3913C19.0993 18.5073 19.2083 18.6828 19.2407 18.8793C19.273 19.0757 19.226 19.277 19.11 19.4387V19.435ZM11.25 19C11.25 19.1989 11.171 19.3897 11.0303 19.5303C10.8897 19.671 10.6989 19.75 10.5 19.75H8.75V26C8.75 26.1989 8.67098 26.3897 8.53033 26.5303C8.38968 26.671 8.19891 26.75 8 26.75C7.80109 26.75 7.61032 26.671 7.46967 26.5303C7.32902 26.3897 7.25 26.1989 7.25 26V19.75H5.5C5.30109 19.75 5.11032 19.671 4.96967 19.5303C4.82902 19.3897 4.75 19.1989 4.75 19C4.75 18.8011 4.82902 18.6103 4.96967 18.4697C5.11032 18.329 5.30109 18.25 5.5 18.25H10.5C10.6989 18.25 10.8897 18.329 11.0303 18.4697C11.171 18.6103 11.25 18.8011 11.25 19ZM27.25 19C27.25 19.1989 27.171 19.3897 27.0303 19.5303C26.8897 19.671 26.6989 19.75 26.5 19.75H24.75V26C24.75 26.1989 24.671 26.3897 24.5303 26.5303C24.3897 26.671 24.1989 26.75 24 26.75C23.8011 26.75 23.6103 26.671 23.4697 26.5303C23.329 26.3897 23.25 26.1989 23.25 26V19.75H21.5C21.3011 19.75 21.1103 19.671 20.9697 19.5303C20.829 19.3897 20.75 19.1989 20.75 19C20.75 18.8011 20.829 18.6103 20.9697 18.4697C21.1103 18.329 21.3011 18.25 21.5 18.25H26.5C26.6989 18.25 26.8897 18.329 27.0303 18.4697C27.171 18.6103 27.25 18.8011 27.25 19Z" fill="white"/>
</svg>
