<svg width="32" height="32" viewBox="0 0 32 32" fill="none" xmlns="http://www.w3.org/2000/svg">
<path d="M26.53 10.47L19.53 3.47C19.3895 3.32931 19.1988 3.25018 19 3.25H7C6.53587 3.25 6.09075 3.43437 5.76256 3.76256C5.43437 4.09075 5.25 4.53587 5.25 5V14C5.25 14.1989 5.32902 14.3897 5.46967 14.5303C5.61032 14.671 5.80109 14.75 6 14.75C6.19891 14.75 6.38968 14.671 6.53033 14.5303C6.67098 14.3897 6.75 14.1989 6.75 14V5C6.75 4.9337 6.77634 4.87011 6.82322 4.82322C6.87011 4.77634 6.9337 4.75 7 4.75H18.25V11C18.25 11.1989 18.329 11.3897 18.4697 11.5303C18.6103 11.671 18.8011 11.75 19 11.75H25.25V27C25.25 27.0663 25.2237 27.1299 25.1768 27.1768C25.1299 27.2237 25.0663 27.25 25 27.25H21C20.8011 27.25 20.6103 27.329 20.4697 27.4697C20.329 27.6103 20.25 27.8011 20.25 28C20.25 28.1989 20.329 28.3897 20.4697 28.5303C20.6103 28.671 20.8011 28.75 21 28.75H25C25.4641 28.75 25.9092 28.5656 26.2374 28.2374C26.5656 27.9092 26.75 27.4641 26.75 27V11C26.7498 10.8012 26.6707 10.6105 26.53 10.47ZM19.75 5.81L24.19 10.25H19.75V5.81ZM8 18.25H6C5.80109 18.25 5.61032 18.329 5.46967 18.4697C5.32902 18.6103 5.25 18.8011 5.25 19V26C5.25 26.1989 5.32902 26.3897 5.46967 26.5303C5.61032 26.671 5.80109 26.75 6 26.75C6.19891 26.75 6.38968 26.671 6.53033 26.5303C6.67098 26.3897 6.75 26.1989 6.75 26V24.75H8C8.86195 24.75 9.6886 24.4076 10.2981 23.7981C10.9076 23.1886 11.25 22.362 11.25 21.5C11.25 20.638 10.9076 19.8114 10.2981 19.2019C9.6886 18.5924 8.86195 18.25 8 18.25ZM8 23.25H6.75V19.75H8C8.46413 19.75 8.90925 19.9344 9.23744 20.2626C9.56563 20.5908 9.75 21.0359 9.75 21.5C9.75 21.9641 9.56563 22.4092 9.23744 22.7374C8.90925 23.0656 8.46413 23.25 8 23.25ZM19.1362 19.3975L16.75 23.215V26C16.75 26.1989 16.671 26.3897 16.5303 26.5303C16.3897 26.671 16.1989 26.75 16 26.75C15.8011 26.75 15.6103 26.671 15.4697 26.5303C15.329 26.3897 15.25 26.1989 15.25 26V23.215L12.8638 19.3975C12.7583 19.2288 12.7243 19.025 12.769 18.8312C12.8138 18.6373 12.9338 18.4692 13.1025 18.3638C13.2712 18.2583 13.475 18.2243 13.6688 18.269C13.8627 18.3138 14.0308 18.4338 14.1362 18.6025L16 21.585L17.8638 18.6025C17.9692 18.4338 18.1373 18.3138 18.3312 18.269C18.525 18.2243 18.7288 18.2583 18.8975 18.3638C19.0662 18.4692 19.1862 18.6373 19.231 18.8312C19.2757 19.025 19.2417 19.2288 19.1362 19.3975Z" fill="white"/>
</svg>
