<svg width="32" height="32" viewBox="0 0 32 32" fill="none" xmlns="http://www.w3.org/2000/svg">
<path d="M5.75 19V26C5.75 26.1989 5.67098 26.3897 5.53033 26.5303C5.38968 26.671 5.19891 26.75 5 26.75C4.80109 26.75 4.61032 26.671 4.46967 26.5303C4.32902 26.3897 4.25 26.1989 4.25 26V19C4.25 18.8011 4.32902 18.6103 4.46967 18.4697C4.61032 18.329 4.80109 18.25 5 18.25C5.19891 18.25 5.38968 18.329 5.53033 18.4697C5.67098 18.6103 5.75 18.8011 5.75 19ZM15 18.25C14.8011 18.25 14.6103 18.329 14.4697 18.4697C14.329 18.6103 14.25 18.8011 14.25 19V23.66L10.61 18.5637C10.5176 18.4346 10.3865 18.338 10.2357 18.2881C10.0849 18.2382 9.92218 18.2374 9.77092 18.2859C9.61966 18.3345 9.48771 18.4298 9.3941 18.5581C9.30048 18.6864 9.25002 18.8412 9.25 19V26C9.25 26.1989 9.32902 26.3897 9.46967 26.5303C9.61032 26.671 9.80109 26.75 10 26.75C10.1989 26.75 10.3897 26.671 10.5303 26.5303C10.671 26.3897 10.75 26.1989 10.75 26V21.34L14.39 26.4363C14.4594 26.5333 14.5509 26.6124 14.657 26.667C14.7631 26.7215 14.8807 26.75 15 26.75C15.0777 26.7503 15.1549 26.7381 15.2288 26.7138C15.38 26.6653 15.512 26.5701 15.6057 26.4418C15.6994 26.3135 15.7499 26.1588 15.75 26V19C15.75 18.8011 15.671 18.6103 15.5303 18.4697C15.3897 18.329 15.1989 18.25 15 18.25ZM20 18.25C19.8011 18.25 19.6103 18.329 19.4697 18.4697C19.329 18.6103 19.25 18.8011 19.25 19V26C19.25 26.1989 19.329 26.3897 19.4697 26.5303C19.6103 26.671 19.8011 26.75 20 26.75C20.1989 26.75 20.3897 26.671 20.5303 26.5303C20.671 26.3897 20.75 26.1989 20.75 26V19C20.75 18.8011 20.671 18.6103 20.5303 18.4697C20.3897 18.329 20.1989 18.25 20 18.25ZM26.75 11V28C26.75 28.1989 26.671 28.3897 26.5303 28.5303C26.3897 28.671 26.1989 28.75 26 28.75C25.8011 28.75 25.6103 28.671 25.4697 28.5303C25.329 28.3897 25.25 28.1989 25.25 28V11.75H19C18.8011 11.75 18.6103 11.671 18.4697 11.5303C18.329 11.3897 18.25 11.1989 18.25 11V4.75H7C6.9337 4.75 6.87011 4.77634 6.82322 4.82322C6.77634 4.87011 6.75 4.9337 6.75 5V14C6.75 14.1989 6.67098 14.3897 6.53033 14.5303C6.38968 14.671 6.19891 14.75 6 14.75C5.80109 14.75 5.61032 14.671 5.46967 14.5303C5.32902 14.3897 5.25 14.1989 5.25 14V5C5.25 4.53587 5.43437 4.09075 5.76256 3.76256C6.09075 3.43437 6.53587 3.25 7 3.25H19C19.0987 3.24992 19.1964 3.26932 19.2875 3.30707C19.3787 3.34482 19.4615 3.40019 19.5312 3.47L26.5312 10.47C26.6715 10.6107 26.7502 10.8013 26.75 11ZM19.75 10.25H24.19L19.75 5.81V10.25Z" fill="white"/>
</svg>
