<svg width="32" height="32" viewBox="0 0 32 32" fill="none" xmlns="http://www.w3.org/2000/svg">
<path d="M5.75 22.5C5.75 24.0163 6.75875 25.25 8 25.25C8.27521 25.2447 8.54646 25.1835 8.79724 25.07C9.04802 24.9565 9.27309 24.7932 9.45875 24.59C9.59777 24.4529 9.78478 24.3754 9.98003 24.374C10.1753 24.3726 10.3634 24.4474 10.5043 24.5825C10.6453 24.7176 10.728 24.9024 10.7349 25.0975C10.7418 25.2927 10.6723 25.4828 10.5413 25.6275C10.2164 25.9778 9.82348 26.2581 9.3865 26.4511C8.94951 26.6441 8.4777 26.7458 8 26.75C5.9325 26.75 4.25 24.8438 4.25 22.5C4.25 20.1562 5.9325 18.25 8 18.25C8.47788 18.2545 8.9498 18.3566 9.3868 18.5501C9.8238 18.7435 10.2167 19.0242 10.5413 19.375C10.6723 19.5197 10.7418 19.7098 10.7349 19.905C10.728 20.1001 10.6453 20.2849 10.5043 20.42C10.3634 20.5551 10.1753 20.6299 9.98003 20.6285C9.78478 20.6271 9.59777 20.5496 9.45875 20.4125C9.27331 20.2088 9.04834 20.045 8.79754 19.9312C8.54675 19.8173 8.27539 19.7556 8 19.75C6.75875 19.75 5.75 20.9837 5.75 22.5ZM26.75 11V28C26.75 28.1989 26.671 28.3897 26.5303 28.5303C26.3897 28.671 26.1989 28.75 26 28.75C25.8011 28.75 25.6103 28.671 25.4697 28.5303C25.329 28.3897 25.25 28.1989 25.25 28V11.75H19C18.8011 11.75 18.6103 11.671 18.4697 11.5303C18.329 11.3897 18.25 11.1989 18.25 11V4.75H7C6.9337 4.75 6.87011 4.77634 6.82322 4.82322C6.77634 4.87011 6.75 4.9337 6.75 5V14C6.75 14.1989 6.67098 14.3897 6.53033 14.5303C6.38968 14.671 6.19891 14.75 6 14.75C5.80109 14.75 5.61032 14.671 5.46967 14.5303C5.32902 14.3897 5.25 14.1989 5.25 14V5C5.25 4.53587 5.43437 4.09075 5.76256 3.76256C6.09075 3.43437 6.53587 3.25 7 3.25H19C19.0987 3.24992 19.1964 3.26932 19.2875 3.30707C19.3787 3.34482 19.4615 3.40019 19.5312 3.47L26.5312 10.47C26.6715 10.6107 26.7502 10.8013 26.75 11ZM19.75 10.25H24.19L19.75 5.81V10.25ZM20.75 20.75V23.25H22C22.1989 23.25 22.3897 23.329 22.5303 23.4697C22.671 23.6103 22.75 23.8011 22.75 24C22.75 24.1989 22.671 24.3897 22.5303 24.5303C22.3897 24.671 22.1989 24.75 22 24.75H20.75V26C20.75 26.1989 20.671 26.3897 20.5303 26.5303C20.3897 26.671 20.1989 26.75 20 26.75C19.8011 26.75 19.6103 26.671 19.4697 26.5303C19.329 26.3897 19.25 26.1989 19.25 26V24.75H16.75V26C16.75 26.1989 16.671 26.3897 16.5303 26.5303C16.3897 26.671 16.1989 26.75 16 26.75C15.8011 26.75 15.6103 26.671 15.4697 26.5303C15.329 26.3897 15.25 26.1989 15.25 26V24.75H14C13.8011 24.75 13.6103 24.671 13.4697 24.5303C13.329 24.3897 13.25 24.1989 13.25 24C13.25 23.8011 13.329 23.6103 13.4697 23.4697C13.6103 23.329 13.8011 23.25 14 23.25H15.25V20.75H14C13.8011 20.75 13.6103 20.671 13.4697 20.5303C13.329 20.3897 13.25 20.1989 13.25 20C13.25 19.8011 13.329 19.6103 13.4697 19.4697C13.6103 19.329 13.8011 19.25 14 19.25H15.25V18C15.25 17.8011 15.329 17.6103 15.4697 17.4697C15.6103 17.329 15.8011 17.25 16 17.25C16.1989 17.25 16.3897 17.329 16.5303 17.4697C16.671 17.6103 16.75 17.8011 16.75 18V19.25H19.25V18C19.25 17.8011 19.329 17.6103 19.4697 17.4697C19.6103 17.329 19.8011 17.25 20 17.25C20.1989 17.25 20.3897 17.329 20.5303 17.4697C20.671 17.6103 20.75 17.8011 20.75 18V19.25H22C22.1989 19.25 22.3897 19.329 22.5303 19.4697C22.671 19.6103 22.75 19.8011 22.75 20C22.75 20.1989 22.671 20.3897 22.5303 20.5303C22.3897 20.671 22.1989 20.75 22 20.75H20.75ZM19.25 20.75H16.75V23.25H19.25V20.75Z" fill="white"/>
</svg>
