<svg width="32" height="32" viewBox="0 0 32 32" fill="none" xmlns="http://www.w3.org/2000/svg">
<path d="M8.74995 16C8.75498 18.585 8.1557 21.1353 6.99995 23.4475C6.93777 23.5726 6.84185 23.6779 6.72303 23.7515C6.60421 23.825 6.4672 23.8639 6.32745 23.8638C6.19991 23.8635 6.07454 23.8307 5.9632 23.7684C5.85186 23.7062 5.75824 23.6166 5.69117 23.5081C5.6241 23.3997 5.5858 23.2758 5.5799 23.1484C5.574 23.021 5.60069 22.8942 5.65745 22.78C6.7096 20.6751 7.25495 18.3532 7.24995 16C7.24749 14.688 7.54129 13.3923 8.10944 12.2097C8.67759 11.0271 9.50543 9.98803 10.5312 9.17C10.6081 9.10836 10.6964 9.06247 10.791 9.03496C10.8857 9.00744 10.9848 8.99883 11.0828 9.00963C11.1807 9.02042 11.2756 9.05041 11.362 9.09787C11.4484 9.14533 11.5246 9.20934 11.5862 9.28625C11.6478 9.36316 11.6937 9.45145 11.7212 9.54609C11.7488 9.64073 11.7574 9.73986 11.7466 9.83783C11.7358 9.93579 11.7058 10.0307 11.6583 10.1171C11.6109 10.2034 11.5469 10.2796 11.47 10.3413C10.6196 11.0186 9.93327 11.8794 9.46228 12.8593C8.99128 13.8392 8.74778 14.9128 8.74995 16ZM16 15.25C15.801 15.25 15.6103 15.329 15.4696 15.4697C15.329 15.6103 15.25 15.8011 15.25 16C15.2508 19.9382 14.2517 23.8122 12.3462 27.2588C12.2497 27.4328 12.2263 27.638 12.2812 27.8293C12.3361 28.0206 12.4647 28.1823 12.6387 28.2787C12.8128 28.3752 13.018 28.3986 13.2093 28.3437C13.4006 28.2889 13.5622 28.1603 13.6587 27.9862C15.687 24.3169 16.7507 20.1927 16.75 16C16.75 15.8011 16.6709 15.6103 16.5303 15.4697C16.3896 15.329 16.1989 15.25 16 15.25ZM16 11.25C14.7402 11.25 13.532 11.7504 12.6412 12.6412C11.7504 13.532 11.25 14.7402 11.25 16C11.25 16.1989 11.329 16.3897 11.4696 16.5303C11.6103 16.671 11.801 16.75 12 16.75C12.1989 16.75 12.3896 16.671 12.5303 16.5303C12.6709 16.3897 12.75 16.1989 12.75 16C12.75 15.138 13.0924 14.3114 13.7019 13.7019C14.3113 13.0924 15.138 12.75 16 12.75C16.8619 12.75 17.6886 13.0924 18.298 13.7019C18.9075 14.3114 19.25 15.138 19.25 16C19.26 20.013 18.3757 23.9779 16.6612 27.6063C16.6189 27.6955 16.5947 27.7921 16.5897 27.8907C16.5848 27.9893 16.5994 28.0879 16.6326 28.1809C16.6658 28.2739 16.717 28.3594 16.7832 28.4326C16.8495 28.5058 16.9295 28.5652 17.0187 28.6075C17.1079 28.6498 17.2046 28.6741 17.3032 28.679C17.4018 28.6839 17.5004 28.6693 17.5934 28.6361C17.6863 28.6029 17.7719 28.5517 17.8451 28.4855C17.9183 28.4192 17.9777 28.3392 18.02 28.25C19.8291 24.4203 20.7618 20.2355 20.75 16C20.75 14.7402 20.2495 13.532 19.3587 12.6412C18.4679 11.7504 17.2597 11.25 16 11.25ZM16 3.25C12.6196 3.25364 9.37866 4.59811 6.98836 6.98841C4.59806 9.37871 3.25359 12.6196 3.24995 16C3.25104 17.2773 3.03462 18.5454 2.60995 19.75C2.57434 19.8435 2.55778 19.9431 2.56124 20.0431C2.56471 20.143 2.58813 20.2413 2.63013 20.332C2.67213 20.4228 2.73186 20.5042 2.80581 20.5716C2.87976 20.6389 2.96643 20.6908 3.06072 20.7241C3.15501 20.7575 3.25502 20.7716 3.35486 20.7658C3.4547 20.7599 3.55236 20.7341 3.64209 20.6899C3.73182 20.6457 3.8118 20.5841 3.87734 20.5085C3.94288 20.433 3.99264 20.3451 4.0237 20.25C4.5057 18.8849 4.75131 17.4477 4.74995 16C4.74995 13.0163 5.93522 10.1548 8.045 8.04505C10.1548 5.93526 13.0163 4.75 16 4.75C18.9836 4.75 21.8451 5.93526 23.9549 8.04505C26.0647 10.1548 27.25 13.0163 27.25 16C27.25 18.3012 27.0269 20.5969 26.5837 22.855C26.5451 23.0501 26.5856 23.2525 26.6962 23.4178C26.8069 23.5831 26.9786 23.6976 27.1737 23.7362C27.222 23.745 27.2709 23.7496 27.32 23.75C27.4936 23.7498 27.6617 23.6894 27.7957 23.5791C27.9298 23.4687 28.0214 23.3153 28.055 23.145C28.5177 20.7915 28.7505 18.3986 28.75 16C28.746 12.6197 27.4014 9.379 25.0112 6.98877C22.621 4.59854 19.3802 3.25397 16 3.25ZM11.75 19.2663C11.555 19.2268 11.3524 19.2664 11.1867 19.3764C11.021 19.4863 10.9057 19.6576 10.8662 19.8525C10.4548 21.8743 9.71863 23.8161 8.6862 25.6025C8.63696 25.6879 8.60501 25.7821 8.59217 25.8798C8.57934 25.9775 8.58588 26.0768 8.61142 26.172C8.63695 26.2671 8.68099 26.3564 8.741 26.4345C8.80102 26.5127 8.87584 26.5783 8.9612 26.6275C9.04656 26.6767 9.14078 26.7087 9.23849 26.7215C9.3362 26.7344 9.43548 26.7278 9.53066 26.7023C9.62584 26.6767 9.71505 26.6327 9.79322 26.5727C9.87138 26.5127 9.93696 26.4379 9.9862 26.3525C11.0999 24.4244 11.8935 22.3284 12.3362 20.1462C12.3745 19.9519 12.3344 19.7502 12.2245 19.5854C12.1147 19.4205 11.9441 19.3058 11.75 19.2663ZM16 7.25C15.6343 7.24987 15.269 7.27242 14.9062 7.3175C14.7088 7.3422 14.5293 7.44431 14.4071 7.60137C14.285 7.75843 14.2303 7.95758 14.255 8.155C14.2797 8.35242 14.3818 8.53194 14.5388 8.65408C14.6959 8.77621 14.895 8.83095 15.0925 8.80625C16.1131 8.67748 17.1495 8.7674 18.1328 9.07005C19.116 9.37269 20.0236 9.88113 20.7952 10.5616C21.5668 11.242 22.1847 12.0789 22.608 13.0165C23.0312 13.9542 23.2501 14.9712 23.25 16C23.2501 17.3063 23.1691 18.6113 23.0075 19.9075C22.9831 20.1047 23.0379 20.3036 23.1601 20.4604C23.2822 20.6172 23.4615 20.7191 23.6587 20.7437C23.6899 20.7455 23.7212 20.7455 23.7525 20.7437C23.9353 20.7436 24.1117 20.6767 24.2487 20.5557C24.3856 20.4346 24.4737 20.2677 24.4962 20.0863C24.6645 18.7307 24.7492 17.366 24.75 16C24.7473 13.6802 23.8246 11.4561 22.1842 9.81574C20.5438 8.17537 18.3198 7.25265 16 7.25ZM23.18 23.275C23.0846 23.2504 22.9853 23.2448 22.8878 23.2585C22.7902 23.2723 22.6963 23.3051 22.6115 23.3551C22.5266 23.4051 22.4525 23.4714 22.3932 23.5501C22.334 23.6288 22.2908 23.7184 22.2662 23.8137C22.0825 24.5312 21.8687 25.25 21.6337 25.95C21.5704 26.1386 21.5846 26.3447 21.6732 26.5229C21.7618 26.701 21.9176 26.8367 22.1062 26.9C22.2948 26.9633 22.5009 26.9491 22.6791 26.8605C22.8572 26.7719 22.9929 26.6161 23.0562 26.4275C23.3062 25.6925 23.525 24.94 23.7187 24.1875C23.7681 23.9951 23.7391 23.7909 23.6381 23.6198C23.5371 23.4487 23.3723 23.3247 23.18 23.275Z" fill="white"/>
</svg>
