<svg width="32" height="32" viewBox="0 0 32 32" fill="none" xmlns="http://www.w3.org/2000/svg">
<path d="M21 13.25H11C9.74022 13.25 8.53204 13.7504 7.64124 14.6412C6.75045 15.532 6.25 16.7402 6.25 18V19C6.25 20.2598 6.75045 21.468 7.64124 22.3587C8.53204 23.2495 9.74022 23.75 11 23.75H21C22.2598 23.75 23.468 23.2495 24.3588 22.3587C25.2496 21.468 25.75 20.2598 25.75 19V18C25.75 16.7402 25.2496 15.532 24.3588 14.6412C23.468 13.7504 22.2598 13.25 21 13.25ZM24.25 19C24.25 19.8619 23.9076 20.6886 23.2981 21.2981C22.6886 21.9076 21.862 22.25 21 22.25H11C10.138 22.25 9.3114 21.9076 8.70191 21.2981C8.09241 20.6886 7.75 19.8619 7.75 19V18C7.75 17.138 8.09241 16.3114 8.70191 15.7019C9.3114 15.0924 10.138 14.75 11 14.75H21C21.862 14.75 22.6886 15.0924 23.2981 15.7019C23.9076 16.3114 24.25 17.138 24.25 18V19ZM26 5.24999C25.1358 5.25099 24.2984 5.54993 23.629 6.09642C22.9595 6.64291 22.499 7.40351 22.325 8.24999H9.675C9.48994 7.33863 8.97285 6.52854 8.22411 5.97698C7.47536 5.42542 6.54839 5.17175 5.62313 5.26521C4.69787 5.35867 3.84035 5.79259 3.21703 6.48274C2.59371 7.17289 2.24907 8.07003 2.25 8.99999V19C2.25265 21.3198 3.17537 23.5439 4.81574 25.1843C6.45611 26.8246 8.68017 27.7473 11 27.75H21C23.3198 27.7473 25.5439 26.8246 27.1843 25.1843C28.8246 23.5439 29.7474 21.3198 29.75 19V8.99999C29.75 8.00543 29.3549 7.0516 28.6517 6.34834C27.9484 5.64508 26.9946 5.24999 26 5.24999ZM28.25 19C28.2477 20.9221 27.4831 22.7648 26.124 24.124C24.7648 25.4831 22.9221 26.2477 21 26.25H11C9.07789 26.2477 7.23517 25.4831 5.87604 24.124C4.5169 22.7648 3.75232 20.9221 3.75 19V8.99999C3.75 8.40326 3.98706 7.83096 4.40901 7.409C4.83097 6.98705 5.40326 6.74999 6 6.74999C6.59674 6.74999 7.16903 6.98705 7.59099 7.409C8.01295 7.83096 8.25 8.40326 8.25 8.99999C8.25 9.19891 8.32902 9.38967 8.46967 9.53032C8.61032 9.67097 8.80109 9.74999 9 9.74999H23C23.1989 9.74999 23.3897 9.67097 23.5303 9.53032C23.671 9.38967 23.75 9.19891 23.75 8.99999C23.75 8.40326 23.9871 7.83096 24.409 7.409C24.831 6.98705 25.4033 6.74999 26 6.74999C26.5967 6.74999 27.169 6.98705 27.591 7.409C28.0129 7.83096 28.25 8.40326 28.25 8.99999V19ZM12.75 18.5C12.75 18.7472 12.6767 18.9889 12.5393 19.1945C12.402 19.4 12.2068 19.5602 11.9784 19.6548C11.7499 19.7495 11.4986 19.7742 11.2561 19.726C11.0137 19.6777 10.7909 19.5587 10.6161 19.3839C10.4413 19.2091 10.3223 18.9863 10.274 18.7439C10.2258 18.5014 10.2505 18.25 10.3452 18.0216C10.4398 17.7932 10.6 17.598 10.8055 17.4607C11.0111 17.3233 11.2528 17.25 11.5 17.25C11.8315 17.25 12.1495 17.3817 12.3839 17.6161C12.6183 17.8505 12.75 18.1685 12.75 18.5ZM21.75 18.5C21.75 18.7472 21.6767 18.9889 21.5393 19.1945C21.402 19.4 21.2068 19.5602 20.9784 19.6548C20.7499 19.7495 20.4986 19.7742 20.2561 19.726C20.0137 19.6777 19.7909 19.5587 19.6161 19.3839C19.4413 19.2091 19.3223 18.9863 19.274 18.7439C19.2258 18.5014 19.2505 18.25 19.3452 18.0216C19.4398 17.7932 19.6 17.598 19.8055 17.4607C20.0111 17.3233 20.2528 17.25 20.5 17.25C20.8315 17.25 21.1495 17.3817 21.3839 17.6161C21.6183 17.8505 21.75 18.1685 21.75 18.5Z" fill="white"/>
</svg>
