<svg width="32" height="32" viewBox="0 0 32 32" fill="none" xmlns="http://www.w3.org/2000/svg">
<path d="M27.215 6.28121L19.0263 3.82496L23.335 1.67121C23.4231 1.62721 23.5018 1.56629 23.5664 1.49191C23.631 1.41753 23.6803 1.33116 23.7115 1.23772C23.7428 1.14428 23.7553 1.04561 23.7484 0.947334C23.7414 0.849058 23.7152 0.753107 23.6712 0.664957C23.6273 0.576807 23.5663 0.498186 23.492 0.433581C23.4176 0.368977 23.3312 0.319654 23.2378 0.288431C23.1443 0.257207 23.0457 0.244693 22.9474 0.251604C22.8491 0.258514 22.7532 0.284714 22.665 0.328707L16.8137 3.24996C14.261 3.30098 11.83 4.35041 10.042 6.17314C8.25413 7.99588 7.25178 10.4467 7.25 13V26C7.25 26.1989 7.32902 26.3896 7.46967 26.5303C7.61032 26.6709 7.80109 26.75 8 26.75C8.19891 26.75 8.38968 26.6709 8.53033 26.5303C8.67098 26.3896 8.75 26.1989 8.75 26V21.75H11.25V29C11.25 29.4641 11.4344 29.9092 11.7626 30.2374C12.0908 30.5656 12.5359 30.75 13 30.75H21C21.4641 30.75 21.9092 30.5656 22.2374 30.2374C22.5656 29.9092 22.75 29.4641 22.75 29V13C22.7479 11.6055 22.24 10.2592 21.3204 9.21097C20.4009 8.1627 19.1323 7.48368 17.75 7.29996V5.00871L26.7838 7.71871C26.854 7.73938 26.9268 7.74991 27 7.74996C27.1802 7.75014 27.3545 7.68542 27.4909 7.56764C27.6273 7.44987 27.7167 7.28691 27.7429 7.10859C27.769 6.93027 27.73 6.74851 27.633 6.59657C27.5361 6.44464 27.3877 6.33269 27.215 6.28121ZM8.75 20.25V13C8.75251 10.9427 9.52276 8.96043 10.91 7.44121C12.2972 5.92199 14.2014 4.97521 16.25 4.78621V7.29996C14.8677 7.48368 13.5991 8.1627 12.6796 9.21097C11.76 10.2592 11.2521 11.6055 11.25 13V20.25H8.75ZM21 29.25H13C12.9337 29.25 12.8701 29.2236 12.8232 29.1767C12.7763 29.1298 12.75 29.0663 12.75 29V21.75H21.25V29C21.25 29.0663 21.2237 29.1298 21.1768 29.1767C21.1299 29.2236 21.0663 29.25 21 29.25ZM21.25 13V20.25H12.75V13C12.75 11.8728 13.1978 10.7918 13.9948 9.99475C14.7918 9.19772 15.8728 8.74996 17 8.74996C18.1272 8.74996 19.2082 9.19772 20.0052 9.99475C20.8022 10.7918 21.25 11.8728 21.25 13Z" fill="white"/>
</svg>
