<svg width="32" height="32" viewBox="0 0 32 32" fill="none" xmlns="http://www.w3.org/2000/svg">
<path d="M27 7.25H21.75V6C21.75 5.27065 21.4603 4.57118 20.9445 4.05546C20.4288 3.53973 19.7293 3.25 19 3.25H13C12.2707 3.25 11.5712 3.53973 11.0555 4.05546C10.5397 4.57118 10.25 5.27065 10.25 6V7.25H5C4.53587 7.25 4.09075 7.43437 3.76256 7.76256C3.43437 8.09075 3.25 8.53587 3.25 9V25C3.25 25.4641 3.43437 25.9092 3.76256 26.2374C4.09075 26.5656 4.53587 26.75 5 26.75H27C27.4641 26.75 27.9092 26.5656 28.2374 26.2374C28.5656 25.9092 28.75 25.4641 28.75 25V9C28.75 8.53587 28.5656 8.09075 28.2374 7.76256C27.9092 7.43437 27.4641 7.25 27 7.25ZM11.75 6C11.75 5.66848 11.8817 5.35054 12.1161 5.11612C12.3505 4.8817 12.6685 4.75 13 4.75H19C19.3315 4.75 19.6495 4.8817 19.8839 5.11612C20.1183 5.35054 20.25 5.66848 20.25 6V7.25H11.75V6ZM27.25 25C27.25 25.0663 27.2237 25.1299 27.1768 25.1768C27.1299 25.2237 27.0663 25.25 27 25.25H5C4.9337 25.25 4.87011 25.2237 4.82322 25.1768C4.77634 25.1299 4.75 25.0663 4.75 25V9C4.75 8.9337 4.77634 8.87011 4.82322 8.82322C4.87011 8.77634 4.9337 8.75 5 8.75H27C27.0663 8.75 27.1299 8.77634 27.1768 8.82322C27.2237 8.87011 27.25 8.9337 27.25 9V25ZM19.75 17C19.75 17.1989 19.671 17.3897 19.5303 17.5303C19.3897 17.671 19.1989 17.75 19 17.75H16.75V20C16.75 20.1989 16.671 20.3897 16.5303 20.5303C16.3897 20.671 16.1989 20.75 16 20.75C15.8011 20.75 15.6103 20.671 15.4697 20.5303C15.329 20.3897 15.25 20.1989 15.25 20V17.75H13C12.8011 17.75 12.6103 17.671 12.4697 17.5303C12.329 17.3897 12.25 17.1989 12.25 17C12.25 16.8011 12.329 16.6103 12.4697 16.4697C12.6103 16.329 12.8011 16.25 13 16.25H15.25V14C15.25 13.8011 15.329 13.6103 15.4697 13.4697C15.6103 13.329 15.8011 13.25 16 13.25C16.1989 13.25 16.3897 13.329 16.5303 13.4697C16.671 13.6103 16.75 13.8011 16.75 14V16.25H19C19.1989 16.25 19.3897 16.329 19.5303 16.4697C19.671 16.6103 19.75 16.8011 19.75 17Z" fill="white"/>
</svg>
