<svg width="32" height="32" viewBox="0 0 32 32" fill="none" xmlns="http://www.w3.org/2000/svg">
<path d="M20.7499 9.49992C20.7499 9.74714 20.6766 9.98882 20.5392 10.1944C20.4019 10.3999 20.2067 10.5602 19.9782 10.6548C19.7498 10.7494 19.4985 10.7741 19.256 10.7259C19.0136 10.6777 18.7908 10.5586 18.616 10.3838C18.4412 10.209 18.3221 9.98626 18.2739 9.74378C18.2257 9.5013 18.2504 9.24997 18.345 9.02156C18.4397 8.79315 18.5999 8.59793 18.8054 8.46058C19.011 8.32323 19.2527 8.24992 19.4999 8.24992C19.8314 8.24992 20.1494 8.38161 20.3838 8.61603C20.6182 8.85045 20.7499 9.1684 20.7499 9.49992ZM26.8749 17.8337C24.4786 22.1512 19.9861 24.4687 13.5186 24.7262L10.7024 31.2949C10.6446 31.43 10.5484 31.5452 10.4257 31.626C10.3031 31.7069 10.1593 31.75 10.0124 31.7499H9.96489C9.81032 31.7401 9.66257 31.6827 9.54193 31.5856C9.42129 31.4884 9.33369 31.3563 9.29114 31.2074L7.40239 24.5962L0.793644 22.7037C0.64452 22.6612 0.51222 22.5736 0.414954 22.4528C0.317687 22.3321 0.260234 22.1842 0.250503 22.0294C0.240771 21.8747 0.279239 21.7207 0.360612 21.5887C0.441985 21.4567 0.562264 21.3532 0.704894 21.2924L7.27489 18.4812C7.53489 12.0162 9.85114 7.52492 14.1661 5.12492C19.9449 1.91742 27.3749 3.74992 27.7611 3.97242C27.8703 4.03655 27.9615 4.12729 28.0261 4.23617C28.2499 4.61742 30.0836 12.0474 26.8749 17.8312V17.8337ZM20.8749 21.5387C19.588 21.1921 18.4454 20.4436 17.6135 19.4024C16.7816 18.3612 16.3039 17.0816 16.2499 15.7499C14.9188 15.6948 13.6401 15.2167 12.5995 14.3849C11.5588 13.5531 10.8106 12.4111 10.4636 11.1249C9.40614 13.2412 8.83864 15.8749 8.75989 18.9999C8.75661 19.1439 8.71195 19.2838 8.63127 19.4031C8.55059 19.5223 8.43729 19.6158 8.30489 19.6724L3.23489 21.8424L8.21614 23.2687C8.33867 23.3037 8.45025 23.3693 8.54035 23.4595C8.63046 23.5496 8.69612 23.6611 8.73114 23.7837L10.1536 28.7649L12.3274 23.6949C12.3839 23.5627 12.4772 23.4495 12.5962 23.3689C12.7152 23.2882 12.8549 23.2434 12.9986 23.2399C16.1249 23.1662 18.7561 22.5949 20.8749 21.5362V21.5387ZM27.2499 9.72242C27.248 8.21292 27.0862 6.70786 26.7674 5.23242C25.2932 4.91355 23.7894 4.75181 22.2811 4.74992H22.2499C19.9349 4.74992 16.6249 5.15242 13.9161 7.05867C13.1099 7.62454 12.3877 8.30167 11.7711 9.06992C11.7083 9.76518 11.7994 10.4658 12.0381 11.1218C12.2767 11.7778 12.6571 12.3732 13.152 12.8655C13.647 13.3578 14.2443 13.735 14.9016 13.9702C15.5589 14.2053 16.26 14.2928 16.9549 14.2262C17.065 14.2157 17.176 14.2297 17.28 14.2672C17.384 14.3046 17.4785 14.3646 17.5566 14.4429C17.6347 14.5211 17.6946 14.6157 17.7319 14.7197C17.7692 14.8238 17.783 14.9349 17.7724 15.0449C17.7059 15.7401 17.7935 16.4413 18.029 17.0988C18.2645 17.7562 18.642 18.3536 19.1348 18.8485C19.6275 19.3434 20.2233 19.7235 20.8797 19.9619C21.5361 20.2002 22.2369 20.2909 22.9324 20.2274C23.6994 19.6146 24.3757 18.8962 24.9411 18.0937C26.8586 15.3749 27.2561 12.0387 27.2499 9.71992V9.72242Z" fill="white"/>
</svg>
