<svg width="32" height="32" viewBox="0 0 32 32" fill="none" xmlns="http://www.w3.org/2000/svg">
<path d="M20.7502 9.50004C20.7502 9.74727 20.6769 9.98894 20.5396 10.1945C20.4022 10.4001 20.207 10.5603 19.9786 10.6549C19.7502 10.7495 19.4988 10.7743 19.2564 10.726C19.0139 10.6778 18.7911 10.5587 18.6163 10.3839C18.4415 10.2091 18.3225 9.98638 18.2742 9.7439C18.226 9.50143 18.2508 9.25009 18.3454 9.02168C18.44 8.79328 18.6002 8.59805 18.8058 8.4607C19.0113 8.32335 19.253 8.25004 19.5002 8.25004C19.8317 8.25004 20.1497 8.38173 20.3841 8.61616C20.6185 8.85058 20.7502 9.16852 20.7502 9.50004ZM26.0477 19.2375C24.199 21.7925 21.4427 23.515 17.8565 24.3625C15.294 24.9638 12.284 25.1125 8.85647 24.8225C9.05897 26.4059 9.35355 28.0788 9.74022 29.8413C9.76138 29.9376 9.76336 30.0371 9.74603 30.1341C9.7287 30.2312 9.69242 30.3238 9.63925 30.4068C9.58607 30.4899 9.51706 30.5616 9.43615 30.6179C9.35524 30.6742 9.26402 30.714 9.16772 30.735C9.11471 30.7464 9.06068 30.7523 9.00647 30.7525C8.8356 30.7522 8.66998 30.6935 8.537 30.5862C8.40402 30.4789 8.31167 30.3295 8.27522 30.1625C7.85272 28.235 7.5373 26.4017 7.32897 24.6625C5.59563 24.4534 3.7648 24.138 1.83647 23.7163C1.74019 23.6949 1.64906 23.6549 1.56828 23.5983C1.4875 23.5417 1.41865 23.4698 1.36566 23.3867C1.31268 23.3035 1.27659 23.2107 1.25946 23.1136C1.24233 23.0165 1.2445 22.9169 1.26584 22.8207C1.28718 22.7244 1.32727 22.6333 1.38383 22.5525C1.44039 22.4717 1.51231 22.4028 1.59547 22.3499C1.67864 22.2969 1.77143 22.2608 1.86854 22.2437C1.96565 22.2265 2.06519 22.2287 2.16147 22.25C3.92313 22.6359 5.5948 22.9305 7.17647 23.1338C6.88272 19.7138 7.03522 16.7075 7.63772 14.1463C8.48022 10.5613 10.2015 7.80504 12.7502 5.95504C18.694 1.65004 27.289 3.70504 27.7502 3.97879C27.8592 4.04279 27.95 4.13358 28.014 4.24254C28.2927 4.70379 30.3515 13.2913 26.0465 19.2388L26.0477 19.2375ZM23.8052 19.5738C20.9554 19.1111 18.3234 17.7636 16.2819 15.7221C14.2404 13.6806 12.8929 11.0486 12.4302 8.19879C9.28897 11.2863 8.04022 16.3538 8.69647 23.31C15.649 23.9638 20.7152 22.7163 23.804 19.575L23.8052 19.5738ZM26.7577 5.24129C25.1602 4.88629 18.5802 3.72004 13.7965 7.05629C14.0435 9.92937 15.297 12.623 17.336 14.6622C19.375 16.7013 22.0684 17.9552 24.9415 18.2025C28.2765 13.4213 27.1115 6.84004 26.7577 5.24129Z" fill="white"/>
</svg>
