<svg width="32" height="32" viewBox="0 0 32 32" fill="none" xmlns="http://www.w3.org/2000/svg">
<path d="M29.6249 5.59375C29.5574 5.48907 29.465 5.40283 29.3559 5.34282C29.2468 5.28281 29.1244 5.25091 28.9999 5.25H18.9999C18.8559 5.25008 18.715 5.29162 18.5939 5.36964C18.4729 5.44767 18.3769 5.55888 18.3174 5.69L17.1536 8.25H3.4999C3.35546 8.25077 3.21431 8.29324 3.09343 8.37229C2.97254 8.45134 2.87705 8.56362 2.81844 8.69564C2.75982 8.82765 2.74057 8.97379 2.76301 9.11648C2.78544 9.25917 2.8486 9.39234 2.9449 9.5L7.48615 14.5L2.9449 19.5C2.8486 19.6077 2.78544 19.7408 2.76301 19.8835C2.74057 20.0262 2.75982 20.1723 2.81844 20.3044C2.87705 20.4364 2.97254 20.5487 3.09343 20.6277C3.21431 20.7068 3.35546 20.7492 3.4999 20.75H12.6361C12.7801 20.7499 12.9211 20.7084 13.0421 20.6304C13.1631 20.5523 13.2591 20.4411 13.3186 20.31L14.4824 17.75H22.8349L18.3174 27.69C18.2768 27.7798 18.2543 27.8767 18.2512 27.9752C18.2481 28.0736 18.2644 28.1718 18.2993 28.2639C18.3341 28.3561 18.3867 28.4405 18.4542 28.5123C18.5216 28.5842 18.6026 28.642 18.6924 28.6825C18.7888 28.7269 18.8937 28.7499 18.9999 28.75C19.1439 28.7499 19.2848 28.7084 19.4058 28.6304C19.5269 28.5523 19.6229 28.4411 19.6824 28.31L29.6824 6.31C29.7335 6.19534 29.7551 6.06968 29.745 5.94454C29.735 5.8194 29.6937 5.69878 29.6249 5.59375ZM12.1536 19.25H5.1949L9.0549 15C9.18068 14.8619 9.2504 14.6818 9.2504 14.495C9.2504 14.3082 9.18068 14.1281 9.0549 13.99L5.1949 9.75H16.4711L12.1536 19.25ZM23.5174 16.25H15.1649L19.4824 6.75H27.8349L23.5174 16.25Z" fill="white"/>
</svg>
