<svg width="32" height="32" viewBox="0 0 32 32" fill="none" xmlns="http://www.w3.org/2000/svg">
<path d="M29.6338 6.6C29.5663 6.49292 29.4728 6.40467 29.362 6.34347C29.2512 6.28227 29.1267 6.25011 29.0001 6.25H5.00007C4.85183 6.25013 4.70696 6.29419 4.58374 6.37661C4.46053 6.45903 4.3645 6.57611 4.30779 6.71308C4.25107 6.85004 4.23622 7.00074 4.26511 7.14614C4.29399 7.29154 4.36532 7.42511 4.47007 7.53L9.93882 13L4.47007 18.47C4.36532 18.5749 4.29399 18.7085 4.26511 18.8539C4.23622 18.9993 4.25107 19.15 4.30779 19.2869C4.3645 19.4239 4.46053 19.541 4.58374 19.6234C4.70696 19.7058 4.85183 19.7499 5.00007 19.75H22.0976L18.3226 27.6775C18.2802 27.7665 18.2558 27.8629 18.2507 27.9613C18.2456 28.0597 18.26 28.1582 18.293 28.251C18.3259 28.3439 18.3769 28.4293 18.4429 28.5025C18.5088 28.5757 18.5886 28.6351 18.6776 28.6775C18.7665 28.7199 18.863 28.7443 18.9614 28.7493C19.0598 28.7544 19.1582 28.7401 19.2511 28.7071C19.344 28.6741 19.4294 28.6232 19.5026 28.5572C19.5758 28.4912 19.6352 28.4115 19.6776 28.3225L29.6776 7.3225C29.7318 7.20816 29.7563 7.08195 29.7486 6.95562C29.741 6.82929 29.7015 6.70696 29.6338 6.6ZM22.8126 18.25H6.81257L11.5313 13.53C11.6718 13.3894 11.7507 13.1988 11.7507 13C11.7507 12.8012 11.6718 12.6106 11.5313 12.47L6.81132 7.75H27.8113L22.8126 18.25Z" fill="white"/>
</svg>
