<svg width="32" height="32" viewBox="0 0 32 32" fill="none" xmlns="http://www.w3.org/2000/svg">
<path d="M28.3113 6.31252C28.1806 6.25278 28.0354 6.23186 27.8931 6.25225C27.7509 6.27264 27.6175 6.33347 27.5088 6.42752C23.8838 9.56627 20.8488 8.06252 17.3325 6.32252C13.8425 4.59502 9.88627 2.63627 5.50877 6.42752C5.42681 6.49856 5.36123 6.58653 5.31656 6.68537C5.27189 6.78421 5.24919 6.89156 5.25002 7.00002V28C5.25002 28.1989 5.32904 28.3897 5.46969 28.5303C5.61034 28.671 5.80111 28.75 6.00002 28.75C6.19893 28.75 6.3897 28.671 6.53035 28.5303C6.671 28.3897 6.75002 28.1989 6.75002 28V22.3475C10.26 19.4988 13.235 20.9725 16.6675 22.6713C20.1575 24.3988 24.115 26.3563 28.4913 22.565C28.5723 22.4948 28.6373 22.408 28.6819 22.3106C28.7266 22.2131 28.7498 22.1072 28.75 22V7.00002C28.751 6.85531 28.7101 6.71341 28.6323 6.59142C28.5544 6.46943 28.4429 6.37257 28.3113 6.31252ZM27.25 8.50002V14.15C25.3088 15.725 23.5313 15.9813 21.75 15.6063V9.61002C23.5 9.91627 25.33 9.72252 27.25 8.50002ZM20.25 9.23377V15.1588C19.3 14.8025 18.3363 14.3263 17.3325 13.8288C16.1875 13.2625 14.9938 12.6713 13.75 12.2663V6.33877C14.7442 6.7325 15.7179 7.17598 16.6675 7.66752C17.8125 8.23377 19.0063 8.82377 20.25 9.22877V9.23377ZM12.25 5.89127V11.875C10.5 11.5688 8.67002 11.7638 6.75002 12.9913V7.34377C8.69127 5.76877 10.4688 5.51627 12.25 5.89127ZM10.8288 19.25C9.51627 19.25 8.15502 19.5988 6.75002 20.5V14.8488C8.69127 13.2725 10.4688 13.0175 12.25 13.3925V19.3838C11.781 19.2984 11.3055 19.2537 10.8288 19.25ZM13.75 19.7638V13.84C14.7 14.195 15.6638 14.6725 16.6675 15.1688C17.8125 15.735 19.0063 16.3263 20.25 16.7313V22.655C19.3 22.2988 18.3363 21.8225 17.3325 21.3263C16.1875 20.7588 15 20.1688 13.75 19.7638ZM21.75 23.1013V17.1113C22.2193 17.1937 22.6948 17.2355 23.1713 17.2363C24.4838 17.2363 25.845 16.8888 27.25 15.9863V21.6413C25.3088 23.2238 23.5313 23.4763 21.75 23.1013Z" fill="white"/>
</svg>
