<svg width="32" height="32" viewBox="0 0 32 32" fill="none" xmlns="http://www.w3.org/2000/svg">
<path d="M5.51 6.42128C5.42861 6.49151 5.36327 6.57842 5.31841 6.67612C5.27355 6.77382 5.25022 6.88002 5.25 6.98753V28C5.25 28.1989 5.32902 28.3897 5.46967 28.5304C5.61032 28.671 5.80109 28.75 6 28.75C6.19891 28.75 6.38968 28.671 6.53033 28.5304C6.67098 28.3897 6.75 28.1989 6.75 28V22.3475C10.26 19.4988 13.235 20.9725 16.6675 22.6688C18.6825 23.6688 20.8537 24.7413 23.1675 24.7413C24.8638 24.7413 26.6375 24.1663 28.4875 22.5638C28.569 22.494 28.6346 22.4076 28.6799 22.3104C28.7252 22.2131 28.7491 22.1073 28.75 22V6.98753C28.7501 6.84367 28.7089 6.7028 28.6312 6.58173C28.5536 6.46065 28.4427 6.36447 28.3119 6.30466C28.181 6.24484 28.0357 6.22391 27.8934 6.24437C27.751 6.26482 27.6175 6.3258 27.5088 6.42003C23.8838 9.56003 20.8488 8.05628 17.3325 6.31503C13.8463 4.58878 9.875 2.64503 5.51 6.42128ZM27.25 21.6463C23.74 24.4963 20.765 23.0213 17.3325 21.3238C14.175 19.76 10.6363 18.0088 6.75 20.5V7.34003C10.26 4.49003 13.235 5.96503 16.6675 7.66003C19.825 9.22377 23.3638 10.975 27.25 8.48878V21.6463Z" fill="white"/>
</svg>
