<svg width="32" height="32" viewBox="0 0 32 32" fill="none" xmlns="http://www.w3.org/2000/svg">
<path d="M21.5425 6.6076C20.0043 4.98508 18.2726 3.55772 16.3862 2.3576C16.2696 2.28751 16.1361 2.25049 16 2.25049C15.8639 2.25049 15.7304 2.28751 15.6138 2.3576C13.7274 3.55772 11.9957 4.98508 10.4575 6.6076C7.05 10.1851 5.25 14.1251 5.25 18.0001C5.25 20.8512 6.38259 23.5855 8.3986 25.6015C10.4146 27.6175 13.1489 28.7501 16 28.7501C18.8511 28.7501 21.5854 27.6175 23.6014 25.6015C25.6174 23.5855 26.75 20.8512 26.75 18.0001C26.75 14.1251 24.95 10.1851 21.5425 6.6076ZM11.75 23.0001C11.75 19.2751 14.8888 16.6988 16 15.9026C17.1138 16.6963 20.25 19.2613 20.25 23.0001C20.2499 24.0899 19.8318 25.1382 19.0818 25.9289C18.3318 26.7196 17.3071 27.1925 16.2188 27.2501C16.145 27.2501 16.0737 27.2501 16 27.2501C15.9263 27.2501 15.855 27.2501 15.7812 27.2501C14.6929 27.1925 13.6682 26.7196 12.9182 25.9289C12.1682 25.1382 11.7501 24.0899 11.75 23.0001ZM21.0525 25.7426C21.5114 24.9014 21.7513 23.9583 21.75 23.0001C21.75 17.6376 16.605 14.4888 16.3862 14.3576C16.2696 14.2875 16.1361 14.2505 16 14.2505C15.8639 14.2505 15.7304 14.2875 15.6138 14.3576C15.395 14.4888 10.25 17.6376 10.25 23.0001C10.2487 23.9583 10.4886 24.9014 10.9475 25.7426C9.65941 24.9027 8.60105 23.7548 7.86815 22.403C7.13525 21.0511 6.75095 19.5378 6.75 18.0001C6.75 10.5213 14.2025 5.0926 16 3.8926C17.7987 5.0926 25.25 10.5176 25.25 18.0001C25.2491 19.5378 24.8647 21.0511 24.1318 22.403C23.399 23.7548 22.3406 24.9027 21.0525 25.7426Z" fill="white"/>
</svg>
