<svg width="32" height="32" viewBox="0 0 32 32" fill="none" xmlns="http://www.w3.org/2000/svg">
<path d="M27.4999 25.1L19.7499 12.185V4.75H20.9999C21.1988 4.75 21.3896 4.67098 21.5302 4.53033C21.6709 4.38968 21.7499 4.19891 21.7499 4C21.7499 3.80109 21.6709 3.61032 21.5302 3.46967C21.3896 3.32902 21.1988 3.25 20.9999 3.25H10.9999C10.801 3.25 10.6102 3.32902 10.4696 3.46967C10.3289 3.61032 10.2499 3.80109 10.2499 4C10.2499 4.19891 10.3289 4.38968 10.4696 4.53033C10.6102 4.67098 10.801 4.75 10.9999 4.75H12.2499V12.185L4.4999 25.1C4.34069 25.3655 4.25476 25.6685 4.25087 25.978C4.24698 26.2876 4.32529 26.5926 4.47778 26.862C4.63028 27.1315 4.85152 27.3556 5.11892 27.5116C5.38632 27.6676 5.69032 27.7499 5.9999 27.75H25.9999C26.3095 27.7499 26.6135 27.6676 26.8809 27.5116C27.1483 27.3556 27.3695 27.1315 27.522 26.862C27.6745 26.5926 27.7528 26.2876 27.7489 25.978C27.745 25.6685 27.6591 25.3655 27.4999 25.1ZM13.6437 12.7788C13.7134 12.662 13.7502 12.5285 13.7499 12.3925V4.75H18.2499V12.3925C18.2496 12.5285 18.2864 12.662 18.3562 12.7788L23.3124 21.0387C21.7611 21.4338 19.4549 21.4137 16.3387 19.8312C14.2212 18.7587 12.2136 18.2312 10.3599 18.2512L13.6437 12.7788ZM26.2149 26.125C26.1929 26.1632 26.1612 26.1948 26.123 26.2168C26.0848 26.2387 26.0415 26.2502 25.9974 26.25H5.9999C5.95625 26.2495 5.91349 26.2376 5.87586 26.2155C5.83824 26.1933 5.80707 26.1617 5.78545 26.1238C5.76384 26.0859 5.75253 26.043 5.75265 25.9993C5.75277 25.9557 5.76432 25.9128 5.78615 25.875L9.41115 19.8237C11.2724 19.5637 13.3712 20.0175 15.6537 21.1725C17.9999 22.35 19.9586 22.75 21.5524 22.75C22.4195 22.7565 23.2824 22.63 24.1111 22.375L26.2111 25.875C26.2337 25.9127 26.2459 25.9556 26.2465 25.9995C26.2472 26.0434 26.2363 26.0867 26.2149 26.125Z" fill="white"/>
</svg>
