<svg width="32" height="32" viewBox="0 0 32 32" fill="none" xmlns="http://www.w3.org/2000/svg">
<path d="M13.3475 3.28628C12.9516 3.2029 12.5391 3.26046 12.1812 3.44899C11.8233 3.63752 11.5426 3.94518 11.3875 4.31878C11.3875 4.31878 11.3875 4.32878 11.3875 4.33378L3.38746 24.3263C3.2766 24.592 3.23303 24.881 3.26061 25.1676C3.28819 25.4543 3.38606 25.7296 3.54555 25.9694C3.70504 26.2091 3.92123 26.4058 4.17493 26.542C4.42863 26.6781 4.71202 26.7496 4.99996 26.75H13C13.2298 26.75 13.4573 26.7048 13.6697 26.6168C13.882 26.5289 14.0749 26.4 14.2374 26.2375C14.3999 26.075 14.5288 25.882 14.6167 25.6697C14.7047 25.4574 14.75 25.2298 14.75 25V5.00003C14.7527 4.59564 14.6141 4.20301 14.358 3.89006C14.1019 3.57711 13.7444 3.36353 13.3475 3.28628ZM13.25 25C13.25 25.0663 13.2236 25.1299 13.1767 25.1768C13.1299 25.2237 13.0663 25.25 13 25.25H4.99996C4.95859 25.2502 4.91783 25.2401 4.88132 25.2206C4.84481 25.2012 4.8137 25.173 4.79079 25.1385C4.76787 25.1041 4.75385 25.0645 4.75 25.0233C4.74615 24.9821 4.75258 24.9406 4.76871 24.9025L4.77496 24.8888L12.775 4.89878C12.7993 4.84838 12.8399 4.80761 12.8901 4.783C12.9404 4.75838 12.9975 4.75134 13.0522 4.76301C13.1069 4.77468 13.1562 4.80438 13.192 4.84735C13.2279 4.89032 13.2483 4.94408 13.25 5.00003V25ZM28.615 24.3263L20.615 4.33378C20.615 4.33378 20.615 4.32378 20.615 4.31878C20.4589 3.94492 20.1781 3.63677 19.8202 3.44689C19.4624 3.25701 19.0497 3.19715 18.6527 3.27754C18.2557 3.35792 17.8988 3.57356 17.643 3.88768C17.3872 4.20179 17.2483 4.59493 17.25 5.00003V25C17.25 25.4642 17.4343 25.9093 17.7625 26.2375C18.0907 26.5657 18.5358 26.75 19 26.75H27C27.2882 26.7502 27.5721 26.6792 27.8263 26.5433C28.0805 26.4074 28.2972 26.2108 28.4571 25.9709C28.617 25.7311 28.7152 25.4555 28.743 25.1686C28.7707 24.8816 28.7272 24.5923 28.6162 24.3263H28.615ZM27.2075 25.1375C27.1853 25.1727 27.1544 25.2015 27.1179 25.2212C27.0813 25.2409 27.0402 25.2508 26.9987 25.25H19C18.9337 25.25 18.8701 25.2237 18.8232 25.1768C18.7763 25.1299 18.75 25.0663 18.75 25V5.00003C18.7436 4.94041 18.7611 4.88071 18.7985 4.83389C18.836 4.78708 18.8904 4.75694 18.95 4.75003C18.9721 4.74519 18.9948 4.74268 19.0175 4.74253C19.064 4.74196 19.1095 4.75618 19.1475 4.78313C19.1855 4.81009 19.2139 4.84839 19.2287 4.89253L27.2287 24.8825L27.235 24.8963C27.2513 24.9355 27.2573 24.9783 27.2525 25.0205C27.2477 25.0627 27.2322 25.103 27.2075 25.1375Z" fill="white"/>
</svg>
