<svg width="32" height="32" viewBox="0 0 32 32" fill="none" xmlns="http://www.w3.org/2000/svg">
<path d="M7 14.75H27C27.4041 14.7506 27.796 14.6113 28.1091 14.3557C28.4222 14.1002 28.6372 13.7442 28.7176 13.3481C28.798 12.952 28.7388 12.5404 28.5501 12.183C28.3614 11.8256 28.0549 11.5445 27.6825 11.3875H27.6688L7.675 3.38749C7.40919 3.27637 7.12007 3.23259 6.83328 3.26004C6.54649 3.28748 6.27091 3.38531 6.03101 3.54483C5.7911 3.70436 5.5943 3.92064 5.45805 4.17449C5.32181 4.42834 5.25034 4.71189 5.25 4.99999V13C5.25 13.2298 5.29526 13.4574 5.38321 13.6697C5.47116 13.882 5.60006 14.0749 5.76256 14.2374C5.92507 14.3999 6.11798 14.5288 6.3303 14.6168C6.54262 14.7047 6.77019 14.75 7 14.75ZM6.75 4.99999C6.75 4.93369 6.77634 4.8701 6.82322 4.82322C6.87011 4.77633 6.9337 4.74999 7 4.74999C7.03393 4.74989 7.06753 4.75669 7.09875 4.76999L7.1125 4.77624L27.1025 12.7762C27.1523 12.801 27.1925 12.8416 27.2166 12.8918C27.2407 12.9419 27.2474 12.9986 27.2356 13.053C27.2239 13.1074 27.1943 13.1563 27.1516 13.192C27.109 13.2276 27.0556 13.2481 27 13.25H7C6.9337 13.25 6.87011 13.2237 6.82322 13.1768C6.77634 13.1299 6.75 13.0663 6.75 13V4.99999ZM27 17.25H7C6.53587 17.25 6.09075 17.4344 5.76256 17.7626C5.43437 18.0907 5.25 18.5359 5.25 19V27C5.25002 27.2881 5.32119 27.5718 5.45719 27.8259C5.5932 28.0799 5.78983 28.2964 6.02962 28.4562C6.26942 28.616 6.54496 28.7141 6.83177 28.7418C7.11859 28.7695 7.40781 28.7259 7.67375 28.615L27.6737 20.615L27.6875 20.6087C28.058 20.4501 28.3623 20.1685 28.5492 19.8115C28.7361 19.4545 28.794 19.0439 28.7132 18.6491C28.6324 18.2543 28.4178 17.8995 28.1056 17.6446C27.7935 17.3897 27.403 17.2503 27 17.25ZM27.1025 19.2287L7.1125 27.2287L7.09875 27.235C7.0603 27.2515 7.01832 27.2582 6.97665 27.2543C6.93498 27.2504 6.89495 27.2361 6.86024 27.2127C6.82553 27.1893 6.79725 27.1576 6.77799 27.1204C6.75873 27.0832 6.7491 27.0418 6.75 27V19C6.75 18.9337 6.77634 18.8701 6.82322 18.8232C6.87011 18.7763 6.9337 18.75 7 18.75H27C27.0575 18.7496 27.1134 18.7691 27.1582 18.8051C27.203 18.8411 27.2341 18.8914 27.2461 18.9477C27.2581 19.0039 27.2504 19.0625 27.2243 19.1137C27.1981 19.1649 27.1551 19.2056 27.1025 19.2287Z" fill="white"/>
</svg>
