<svg width="32" height="32" viewBox="0 0 32 32" fill="none" xmlns="http://www.w3.org/2000/svg">
<path d="M30.53 9.47003L26.53 5.47003C26.3878 5.33755 26.1997 5.26543 26.0054 5.26885C25.8111 5.27228 25.6257 5.35099 25.4883 5.48841C25.3509 5.62582 25.2722 5.81121 25.2688 6.00551C25.2654 6.19981 25.3375 6.38785 25.47 6.53003L28.1887 9.25003H26C20 9.25003 18.57 12.6825 17.3075 15.7113C16.1287 18.5413 15.1 21.0025 10.6825 21.2313C10.4879 20.0526 9.85638 18.9904 8.9137 18.2566C7.97101 17.5227 6.78641 17.171 5.59599 17.2716C4.40558 17.3722 3.29677 17.9176 2.49055 18.7992C1.68434 19.6808 1.23994 20.8338 1.24591 22.0285C1.25188 23.2231 1.7078 24.3716 2.52278 25.2451C3.33777 26.1187 4.45198 26.653 5.64334 26.7416C6.83471 26.8303 8.01573 26.4668 8.95103 25.7235C9.88633 24.9803 10.5072 23.9119 10.69 22.7313C16.1075 22.4738 17.4762 19.195 18.69 16.2875C19.93 13.3163 21 10.75 26 10.75H28.1887L25.47 13.47C25.3963 13.5387 25.3372 13.6215 25.2962 13.7135C25.2552 13.8055 25.2331 13.9048 25.2314 14.0055C25.2296 14.1062 25.2481 14.2062 25.2858 14.2996C25.3236 14.393 25.3797 14.4778 25.4509 14.5491C25.5221 14.6203 25.607 14.6764 25.7004 14.7142C25.7937 14.7519 25.8938 14.7704 25.9945 14.7686C26.0952 14.7668 26.1945 14.7448 26.2865 14.7038C26.3785 14.6628 26.4613 14.6037 26.53 14.53L30.53 10.53C30.6704 10.3894 30.7493 10.1988 30.7493 10C30.7493 9.80128 30.6704 9.61066 30.53 9.47003ZM5.99996 25.25C5.35717 25.25 4.72881 25.0594 4.19435 24.7023C3.65989 24.3452 3.24333 23.8376 2.99735 23.2438C2.75136 22.6499 2.687 21.9964 2.8124 21.366C2.93781 20.7355 3.24734 20.1565 3.70186 19.7019C4.15638 19.2474 4.73547 18.9379 5.36591 18.8125C5.99635 18.6871 6.64982 18.7514 7.24368 18.9974C7.83754 19.2434 8.34512 19.66 8.70223 20.1944C9.05935 20.7289 9.24996 21.3572 9.24996 22C9.24996 22.862 8.90755 23.6886 8.29805 24.2981C7.68856 24.9076 6.86191 25.25 5.99996 25.25Z" fill="white"/>
</svg>
