<svg width="32" height="32" viewBox="0 0 32 32" fill="none" xmlns="http://www.w3.org/2000/svg">
<path d="M30.5123 15.3286C30.4011 15.1331 30.2521 14.9617 30.0739 14.8243C29.8958 14.687 29.6921 14.5865 29.4748 14.5286C28.4888 14.2765 27.4675 14.192 26.4535 14.2786C27.0373 11.6999 26.656 9.66488 26.2723 8.47863C26.1383 8.05957 25.8532 7.7054 25.4723 7.48517C25.0915 7.26493 24.6423 7.19442 24.2123 7.28738C22.8776 7.58674 21.614 8.14337 20.4923 8.92613C19.7116 7.22787 18.5313 5.74391 17.0523 4.60113C16.7488 4.37246 16.3791 4.24878 15.9991 4.24878C15.6192 4.24878 15.2495 4.37246 14.946 4.60113C13.4678 5.74441 12.288 7.22826 11.5073 8.92613C10.3852 8.14308 9.1212 7.58643 7.78601 7.28738C7.35601 7.19453 6.90684 7.26526 6.52618 7.48575C6.14551 7.70625 5.86068 8.06068 5.72726 8.47988C5.34351 9.66613 4.96226 11.7011 5.54601 14.2799C4.53204 14.1933 3.51071 14.2778 2.52476 14.5299C2.3074 14.5877 2.10372 14.6882 1.9256 14.8256C1.74747 14.9629 1.59847 15.1344 1.48726 15.3299C1.37039 15.5308 1.29473 15.753 1.26468 15.9835C1.23463 16.214 1.25081 16.4482 1.31226 16.6724C1.72601 18.2074 2.99976 21.1249 6.86476 23.4386C10.7298 25.7524 14.161 25.7499 15.9998 25.7499C17.8385 25.7499 21.2648 25.7499 25.1323 23.4386C28.9998 21.1274 30.271 18.2074 30.6848 16.6711C30.7466 16.4471 30.7632 16.213 30.7336 15.9825C30.7039 15.752 30.6287 15.5297 30.5123 15.3286ZM21.0598 10.3624C22.0889 9.58633 23.2706 9.03679 24.5273 8.74988C24.594 8.73626 24.6634 8.74789 24.7221 8.78253C24.7808 8.81717 24.8245 8.87235 24.8448 8.93738C25.3373 10.4649 25.821 13.6249 23.521 17.6249C22.5978 19.2026 21.4144 20.6129 20.021 21.7961C20.981 20.1249 21.7498 17.8661 21.7498 14.8961C21.7614 13.3579 21.5285 11.8275 21.0598 10.3624ZM7.15476 8.94113C7.17432 8.87541 7.21772 8.81936 7.27645 8.78398C7.33519 8.7486 7.40503 8.73643 7.47226 8.74988C8.72889 9.03679 9.9106 9.58633 10.9398 10.3624C10.471 11.8275 10.2381 13.3579 10.2498 14.8961C10.2498 17.8661 11.0185 20.1274 11.976 21.7924C10.5823 20.6094 9.39894 19.1991 8.47601 17.6211C6.17851 13.6249 6.66226 10.4649 7.15476 8.94113ZM7.63476 22.1499C4.22226 20.1111 3.11601 17.5974 2.75976 16.2749C2.75042 16.2413 2.74793 16.2062 2.75244 16.1716C2.75695 16.137 2.76837 16.1037 2.78601 16.0736C2.81316 16.0254 2.85797 15.9895 2.91101 15.9736C3.92124 15.7226 4.97162 15.6771 5.99976 15.8399C6.31691 16.7181 6.71138 17.5664 7.17851 18.3749C8.46098 20.588 10.2098 22.4955 12.3035 23.9649C10.6529 23.6382 9.0726 23.0238 7.63476 22.1499ZM15.9998 24.1074C14.9148 23.3324 11.7498 20.5824 11.7498 14.8961C11.7498 9.47613 14.6173 6.72863 15.8498 5.79863C15.893 5.76617 15.9457 5.74863 15.9998 5.74863C16.0539 5.74863 16.1065 5.76617 16.1498 5.79863C17.3823 6.72863 20.2498 9.47613 20.2498 14.8961C20.2498 20.6174 17.101 23.3336 15.9998 24.1074ZM29.2373 16.2799C28.881 17.5974 27.7748 20.1111 24.3623 22.1549C22.9228 23.0271 21.3413 23.6393 19.6898 23.9636C21.7835 22.4943 23.5323 20.5868 24.8148 18.3736C25.284 17.5658 25.6805 16.7179 25.9998 15.8399C27.0291 15.6784 28.0803 15.7256 29.091 15.9786C29.1441 15.9945 29.1889 16.0304 29.216 16.0786C29.2332 16.1089 29.2442 16.1423 29.2483 16.1768C29.2524 16.2114 29.2495 16.2465 29.2398 16.2799H29.2373Z" fill="white"/>
</svg>
