<svg width="32" height="32" viewBox="0 0 32 32" fill="none" xmlns="http://www.w3.org/2000/svg">
<path d="M11.75 20.5C11.75 20.7472 11.6767 20.9889 11.5393 21.1945C11.402 21.4 11.2068 21.5603 10.9784 21.6549C10.7499 21.7495 10.4986 21.7742 10.2561 21.726C10.0137 21.6778 9.79093 21.5587 9.61612 21.3839C9.4413 21.2091 9.32225 20.9863 9.27402 20.7439C9.22579 20.5014 9.25054 20.2501 9.34515 20.0217C9.43976 19.7933 9.59998 19.598 9.80554 19.4607C10.0111 19.3233 10.2528 19.25 10.5 19.25C10.8315 19.25 11.1495 19.3817 11.3839 19.6161C11.6183 19.8505 11.75 20.1685 11.75 20.5ZM28.75 22V26C28.75 26.4641 28.5656 26.9093 28.2374 27.2374C27.9093 27.5656 27.4641 27.75 27 27.75H22.5C22.1233 27.7484 21.7571 27.6261 21.455 27.4012C21.1529 27.1762 20.9308 26.8604 20.8213 26.5L19.4188 21.75H16.1563L16.6975 23.57C16.6975 23.5863 16.7063 23.6038 16.71 23.62C16.7669 23.876 16.7656 24.1415 16.7062 24.3969C16.6467 24.6523 16.5306 24.8911 16.3664 25.0956C16.2022 25.3001 15.9942 25.465 15.7577 25.5783C15.5212 25.6916 15.2622 25.7503 15 25.75H9.0175C8.86691 25.7518 8.71925 25.7083 8.59375 25.625C6.94582 24.5001 5.59759 22.9898 4.66629 21.2252C3.73498 19.4606 3.2488 17.4953 3.25 15.5C3.25 8.84126 8.66875 3.34751 15.3263 3.25001C16.9495 3.22699 18.5611 3.52684 20.0675 4.13214C21.5739 4.73744 22.9449 5.63612 24.1008 6.77594C25.2568 7.91576 26.1747 9.27398 26.8012 10.7717C27.4276 12.2693 27.7502 13.8766 27.75 15.5V16C27.75 16.1989 27.671 16.3897 27.5303 16.5303C27.3897 16.671 27.1989 16.75 27 16.75H19.5L20.5338 20.25H27C27.4641 20.25 27.9093 20.4344 28.2374 20.7626C28.5656 21.0908 28.75 21.5359 28.75 22ZM15.25 23.9638L13.3075 17.4313C13.3075 17.4138 13.2988 17.3963 13.295 17.38C13.2381 17.1244 13.2394 16.8594 13.2986 16.6043C13.3578 16.3493 13.4734 16.1108 13.637 15.9064C13.8007 15.702 14.008 15.5369 14.2439 15.4233C14.4798 15.3097 14.7382 15.2505 15 15.25H26.25C26.1847 12.4425 25.0233 9.77198 23.0144 7.80972C21.0054 5.84746 18.3083 4.74925 15.5 4.75001H15.345C9.5 4.83251 4.75 9.65251 4.75 15.5C4.74943 17.2114 5.15746 18.8982 5.94016 20.4201C6.72285 21.942 7.85759 23.255 9.25 24.25H15C15.0361 24.2504 15.0719 24.2429 15.1049 24.2282C15.1378 24.2134 15.1672 24.1917 15.1909 24.1645C15.2147 24.1373 15.2323 24.1052 15.2425 24.0706C15.2527 24.0359 15.2552 23.9995 15.25 23.9638ZM18.9738 20.25L17.94 16.75H15C14.9639 16.7496 14.9281 16.7571 14.8952 16.7718C14.8622 16.7866 14.8328 16.8083 14.8091 16.8355C14.7853 16.8628 14.7677 16.8948 14.7575 16.9294C14.7473 16.9641 14.7448 17.0005 14.75 17.0363L15.7075 20.25H18.9738ZM27.25 22C27.25 21.9337 27.2237 21.8701 27.1768 21.8232C27.1299 21.7764 27.0663 21.75 27 21.75H20.9813L22.2575 26.0713C22.273 26.1234 22.305 26.169 22.3488 26.2013C22.3926 26.2335 22.4456 26.2506 22.5 26.25H27C27.0663 26.25 27.1299 26.2237 27.1768 26.1768C27.2237 26.1299 27.25 26.0663 27.25 26V22Z" fill="white"/>
</svg>
