<svg width="32" height="32" viewBox="0 0 32 32" fill="none" xmlns="http://www.w3.org/2000/svg">
<path d="M28.3862 6.77752C28.2521 5.9872 27.8755 5.25814 27.3087 4.69131C26.7418 4.12447 26.0128 3.74791 25.2225 3.61377C21.2225 2.93627 13.6875 2.62502 8.15621 8.15627C2.62496 13.6875 2.93621 21.2225 3.61371 25.2225C3.74785 26.0128 4.12441 26.7419 4.69125 27.3087C5.25808 27.8756 5.98714 28.2521 6.77746 28.3863C8.18156 28.6254 9.60315 28.7471 11.0275 28.75C14.9887 28.75 19.9175 27.765 23.8387 23.8438C29.375 18.3125 29.0637 10.7775 28.3862 6.77752ZM20.93 4.73752C22.2846 4.74236 23.6364 4.86069 24.9712 5.09127C25.4553 5.17332 25.9018 5.4039 26.2489 5.75105C26.5961 6.0982 26.8267 6.54473 26.9087 7.02877C27.2069 8.72859 27.3159 10.4562 27.2337 12.18L19.82 4.76752C20.1812 4.75002 20.55 4.73752 20.93 4.73752ZM7.02871 26.9088C6.54467 26.8267 6.09814 26.5961 5.75099 26.249C5.40384 25.9018 5.17326 25.4553 5.09121 24.9713C4.79305 23.2715 4.68406 21.5438 4.76621 19.82L12.18 27.2338C10.4561 27.3159 8.72853 27.2069 7.02871 26.9088ZM22.7787 22.7838C21.2887 24.2725 18.4987 26.3513 14.0962 27.0338L4.96496 17.8988C5.64871 13.4963 7.72746 10.7063 9.21496 9.21627C10.7025 7.72627 13.5 5.65002 17.9 4.96627L27.035 14.1013C26.3512 18.5 24.2725 21.2938 22.7837 22.7838H22.7787ZM20.5275 11.4725C20.6679 11.6131 20.7468 11.8038 20.7468 12.0025C20.7468 12.2013 20.6679 12.3919 20.5275 12.5325L18.56 14.5L19.5287 15.4688C19.6024 15.5374 19.6615 15.6202 19.7025 15.7122C19.7435 15.8042 19.7655 15.9035 19.7673 16.0042C19.7691 16.105 19.7506 16.205 19.7128 16.2984C19.6751 16.3918 19.619 16.4766 19.5478 16.5478C19.4765 16.619 19.3917 16.6752 19.2983 16.7129C19.2049 16.7506 19.1049 16.7691 19.0042 16.7674C18.9035 16.7656 18.8042 16.7435 18.7122 16.7026C18.6202 16.6616 18.5374 16.6025 18.4687 16.5288L17.5 15.5613L15.5612 17.5L16.53 18.47C16.6036 18.5387 16.6628 18.6215 16.7037 18.7135C16.7447 18.8055 16.7668 18.9048 16.7686 19.0055C16.7703 19.1062 16.7518 19.2062 16.7141 19.2996C16.6764 19.393 16.6202 19.4778 16.549 19.5491C16.4778 19.6203 16.3929 19.6764 16.2996 19.7141C16.2062 19.7519 16.1061 19.7704 16.0054 19.7686C15.9047 19.7668 15.8054 19.7448 15.7134 19.7038C15.6214 19.6628 15.5386 19.6037 15.47 19.53L14.5 18.56L12.5312 20.5275C12.4626 20.6012 12.3797 20.6603 12.2878 20.7013C12.1958 20.7423 12.0964 20.7643 11.9957 20.7661C11.895 20.7679 11.795 20.7494 11.7016 20.7116C11.6082 20.6739 11.5234 20.6178 11.4522 20.5466C11.381 20.4753 11.3248 20.3905 11.2871 20.2971C11.2494 20.2037 11.2308 20.1037 11.2326 20.003C11.2344 19.9023 11.2564 19.803 11.2974 19.711C11.3384 19.619 11.3975 19.5362 11.4712 19.4675L13.44 17.5L12.4712 16.5313C12.3975 16.4626 12.3384 16.3798 12.2974 16.2878C12.2564 16.1958 12.2344 16.0965 12.2326 15.9958C12.2308 15.8951 12.2494 15.7951 12.2871 15.7017C12.3248 15.6083 12.381 15.5235 12.4522 15.4522C12.5234 15.381 12.6082 15.3249 12.7016 15.2872C12.795 15.2494 12.895 15.2309 12.9957 15.2327C13.0964 15.2345 13.1958 15.2565 13.2878 15.2975C13.3797 15.3385 13.4626 15.3976 13.5312 15.4713L14.5012 16.44L16.4387 14.5025L15.47 13.5325C15.3963 13.4639 15.3372 13.3811 15.2962 13.2891C15.2552 13.1971 15.2331 13.0977 15.2314 12.997C15.2296 12.8963 15.2481 12.7963 15.2858 12.7029C15.3236 12.6095 15.3797 12.5247 15.4509 12.4535C15.5221 12.3823 15.607 12.3261 15.7004 12.2884C15.7938 12.2507 15.8938 12.2322 15.9945 12.2339C16.0952 12.2357 16.1945 12.2578 16.2865 12.2987C16.3785 12.3397 16.4613 12.3988 16.53 12.4725L17.4987 13.4413L19.4675 11.4738C19.6079 11.3332 19.7985 11.254 19.9972 11.2538C20.196 11.2536 20.3867 11.3322 20.5275 11.4725Z" fill="white"/>
</svg>
