<svg width="32" height="32" viewBox="0 0 32 32" fill="none" xmlns="http://www.w3.org/2000/svg">
<path d="M3.25 6C3.25 5.80109 3.32902 5.61032 3.46967 5.46967C3.61032 5.32902 3.80109 5.25 4 5.25H28C28.1989 5.25 28.3897 5.32902 28.5303 5.46967C28.671 5.61032 28.75 5.80109 28.75 6C28.75 6.19891 28.671 6.38968 28.5303 6.53033C28.3897 6.67098 28.1989 6.75 28 6.75H4C3.80109 6.75 3.61032 6.67098 3.46967 6.53033C3.32902 6.38968 3.25 6.19891 3.25 6ZM28 25.25H4C3.80109 25.25 3.61032 25.329 3.46967 25.4697C3.32902 25.6103 3.25 25.8011 3.25 26C3.25 26.1989 3.32902 26.3897 3.46967 26.5303C3.61032 26.671 3.80109 26.75 4 26.75H28C28.1989 26.75 28.3897 26.671 28.5303 26.5303C28.671 26.3897 28.75 26.1989 28.75 26C28.75 25.8011 28.671 25.6103 28.5303 25.4697C28.3897 25.329 28.1989 25.25 28 25.25ZM18 9.25C17.8011 9.25 17.6103 9.32902 17.4697 9.46967C17.329 9.61032 17.25 9.80109 17.25 10V22C17.25 22.1989 17.329 22.3897 17.4697 22.5303C17.6103 22.671 17.8011 22.75 18 22.75C18.1989 22.75 18.3897 22.671 18.5303 22.5303C18.671 22.3897 18.75 22.1989 18.75 22V18.2812L20.6775 16.0788L24.3525 22.375C24.4183 22.4889 24.5128 22.5835 24.6267 22.6493C24.7406 22.7151 24.8697 22.7499 25.0012 22.75C25.1332 22.7499 25.2626 22.7145 25.3762 22.6475C25.5479 22.5473 25.6727 22.3831 25.7233 22.1909C25.774 21.9987 25.7462 21.7943 25.6462 21.6225L21.72 14.8875L25.565 10.5C25.6813 10.349 25.7358 10.1594 25.7173 9.96968C25.6988 9.77997 25.6088 9.60441 25.4656 9.47867C25.3223 9.35294 25.1366 9.28645 24.9461 9.29274C24.7556 9.29902 24.5746 9.3776 24.44 9.5125L18.75 16V10C18.75 9.80109 18.671 9.61032 18.5303 9.46967C18.3897 9.32902 18.1989 9.25 18 9.25ZM11.25 22V19.75H5C4.85964 19.75 4.72208 19.7107 4.60298 19.6364C4.48388 19.5621 4.38802 19.4559 4.32629 19.3298C4.26456 19.2038 4.23944 19.0629 4.2538 18.9233C4.26816 18.7837 4.32141 18.6509 4.4075 18.54L11.4075 9.54C11.5034 9.41647 11.6355 9.32599 11.7853 9.28122C11.9351 9.23646 12.0952 9.23964 12.2431 9.29032C12.391 9.34101 12.5194 9.43667 12.6103 9.56391C12.7012 9.69116 12.75 9.84363 12.75 10V18.25H14C14.1989 18.25 14.3897 18.329 14.5303 18.4697C14.671 18.6103 14.75 18.8011 14.75 19C14.75 19.1989 14.671 19.3897 14.5303 19.5303C14.3897 19.671 14.1989 19.75 14 19.75H12.75V22C12.75 22.1989 12.671 22.3897 12.5303 22.5303C12.3897 22.671 12.1989 22.75 12 22.75C11.8011 22.75 11.6103 22.671 11.4697 22.5303C11.329 22.3897 11.25 22.1989 11.25 22ZM11.25 18.25V12.1862L6.53375 18.25H11.25Z" fill="white"/>
</svg>
