<svg width="32" height="32" viewBox="0 0 32 32" fill="none" xmlns="http://www.w3.org/2000/svg">
<path d="M25.75 13V5C25.75 4.80109 25.671 4.61032 25.5303 4.46967C25.3897 4.32902 25.1989 4.25 25 4.25H7C6.84789 4.24978 6.6993 4.29581 6.57396 4.382C6.44862 4.46818 6.35245 4.59044 6.29821 4.73256C6.24396 4.87467 6.23422 5.02992 6.27026 5.1777C6.3063 5.32549 6.38643 5.45882 6.5 5.56L14.0275 12.25H7C6.80109 12.25 6.61033 12.329 6.46967 12.4697C6.32902 12.6103 6.25 12.8011 6.25 13V21C6.25018 21.1988 6.32931 21.3895 6.47 21.53L15.47 30.53C15.5749 30.6348 15.7085 30.7061 15.8539 30.735C15.9993 30.7638 16.15 30.749 16.2869 30.6923C16.4239 30.6356 16.541 30.5395 16.6234 30.4163C16.7058 30.2931 16.7499 30.1482 16.75 30V21.75H25C25.1521 21.7502 25.3007 21.7042 25.426 21.618C25.5514 21.5318 25.6476 21.4096 25.7018 21.2674C25.756 21.1253 25.7658 20.9701 25.7297 20.8223C25.6937 20.6745 25.6136 20.5412 25.5 20.44L17.9725 13.75H25C25.1989 13.75 25.3897 13.671 25.5303 13.5303C25.671 13.3897 25.75 13.1989 25.75 13ZM23.0275 20.25H16C15.8011 20.25 15.6103 20.329 15.4697 20.4697C15.329 20.6103 15.25 20.8011 15.25 21V28.1887L7.75 20.6887V13.75H15.715L23.0275 20.25ZM24.25 12.25H16.285L8.9725 5.75H24.25V12.25Z" fill="white"/>
</svg>
