<svg width="32" height="32" viewBox="0 0 32 32" fill="none" xmlns="http://www.w3.org/2000/svg">
<path d="M28.5988 6.29248C28.4641 5.98096 28.2407 5.71599 27.9564 5.5306C27.6721 5.34522 27.3395 5.24762 27.0001 5.24998H5.00007C4.66129 5.25063 4.32998 5.3496 4.04635 5.53488C3.76273 5.72015 3.53897 5.98377 3.40225 6.29374C3.26553 6.60371 3.22172 6.9467 3.27614 7.28108C3.33056 7.61546 3.48087 7.92686 3.70882 8.17748L3.71632 8.18498L12.2501 17.2975V27C12.2504 27.3165 12.3365 27.6271 12.4993 27.8985C12.6621 28.17 12.8955 28.3922 13.1746 28.5415C13.4537 28.6908 13.7681 28.7616 14.0843 28.7464C14.4005 28.7311 14.7066 28.6304 14.9701 28.455L18.9701 25.7887C19.2099 25.629 19.4066 25.4125 19.5427 25.1584C19.6788 24.9044 19.75 24.6207 19.7501 24.3325V17.2975L28.2926 8.17248C28.5221 7.92355 28.6735 7.61268 28.728 7.27846C28.7824 6.94425 28.7375 6.6014 28.5988 6.29248ZM27.1913 7.15998L18.4538 16.4875C18.3233 16.6262 18.2504 16.8095 18.2501 17V24.3325C18.2502 24.3738 18.2401 24.4144 18.2207 24.4508C18.2013 24.4873 18.1732 24.5183 18.1388 24.5412L14.1388 27.2075C14.1012 27.2326 14.0575 27.247 14.0123 27.2492C13.9672 27.2514 13.9222 27.2414 13.8823 27.2201C13.8425 27.1988 13.8091 27.1671 13.7858 27.1283C13.7625 27.0895 13.7502 27.0452 13.7501 27V17C13.75 16.8096 13.6777 16.6264 13.5476 16.4875L4.81632 7.16498C4.78313 7.13009 4.76139 7.0859 4.75402 7.03831C4.74665 6.99073 4.75399 6.94203 4.77507 6.89873C4.79321 6.85415 4.8244 6.81608 4.86455 6.78954C4.9047 6.76299 4.95194 6.7492 5.00007 6.74998H27.0001C27.0487 6.74852 27.0965 6.76199 27.1372 6.78859C27.1779 6.81519 27.2094 6.85364 27.2276 6.89873C27.2485 6.94087 27.2563 6.98834 27.2498 7.03496C27.2433 7.08157 27.223 7.12514 27.1913 7.15998ZM30.5301 26.4712C30.6038 26.5399 30.6629 26.6227 30.7039 26.7147C30.7448 26.8067 30.7669 26.906 30.7687 27.0067C30.7704 27.1074 30.7519 27.2074 30.7142 27.3008C30.6765 27.3942 30.6203 27.4791 30.5491 27.5503C30.4779 27.6215 30.3931 27.6776 30.2997 27.7154C30.2063 27.7531 30.1063 27.7716 30.0055 27.7698C29.9048 27.768 29.8055 27.746 29.7135 27.705C29.6215 27.664 29.5387 27.6049 29.4701 27.5312L27.0001 25.0612L24.5313 27.5312C24.3904 27.6701 24.2003 27.7476 24.0024 27.7469C23.8045 27.7462 23.615 27.6674 23.475 27.5276C23.335 27.3877 23.2559 27.1983 23.255 27.0004C23.2541 26.8026 23.3314 26.6124 23.4701 26.4712L25.9401 24L23.4701 21.53C23.3293 21.3893 23.2503 21.1984 23.2503 20.9994C23.2503 20.8003 23.3293 20.6095 23.4701 20.4687C23.6108 20.328 23.8017 20.2489 24.0007 20.2489C24.1997 20.2489 24.3906 20.328 24.5313 20.4687L27.0001 22.94L29.4701 20.47C29.6112 20.3313 29.8014 20.254 29.9992 20.2549C30.1971 20.2558 30.3866 20.3349 30.5264 20.4749C30.6662 20.6149 30.7451 20.8045 30.7458 21.0023C30.7464 21.2002 30.6689 21.3903 30.5301 21.5312L28.0613 24L30.5301 26.4712Z" fill="white"/>
</svg>
