<svg width="32" height="32" viewBox="0 0 32 32" fill="none" xmlns="http://www.w3.org/2000/svg">
<path d="M24.75 17C24.75 17.1989 24.671 17.3897 24.5303 17.5303C24.3897 17.671 24.1989 17.75 24 17.75H8C7.80109 17.75 7.61032 17.671 7.46967 17.5303C7.32902 17.3897 7.25 17.1989 7.25 17C7.25 16.8011 7.32902 16.6103 7.46967 16.4697C7.61032 16.329 7.80109 16.25 8 16.25H24C24.1989 16.25 24.3897 16.329 24.5303 16.4697C24.671 16.6103 24.75 16.8011 24.75 17ZM29 10.25H3C2.80109 10.25 2.61032 10.329 2.46967 10.4697C2.32902 10.6103 2.25 10.8011 2.25 11C2.25 11.1989 2.32902 11.3897 2.46967 11.5303C2.61032 11.671 2.80109 11.75 3 11.75H29C29.1989 11.75 29.3897 11.671 29.5303 11.5303C29.671 11.3897 29.75 11.1989 29.75 11C29.75 10.8011 29.671 10.6103 29.5303 10.4697C29.3897 10.329 29.1989 10.25 29 10.25ZM19 22.25H13C12.8011 22.25 12.6103 22.329 12.4697 22.4697C12.329 22.6103 12.25 22.8011 12.25 23C12.25 23.1989 12.329 23.3897 12.4697 23.5303C12.6103 23.671 12.8011 23.75 13 23.75H19C19.1989 23.75 19.3897 23.671 19.5303 23.5303C19.671 23.3897 19.75 23.1989 19.75 23C19.75 22.8011 19.671 22.6103 19.5303 22.4697C19.3897 22.329 19.1989 22.25 19 22.25Z" fill="white"/>
</svg>
