<svg width="32" height="32" viewBox="0 0 32 32" fill="none" xmlns="http://www.w3.org/2000/svg">
<path d="M24 17.75H8C7.80109 17.75 7.61032 17.671 7.46967 17.5303C7.32902 17.3897 7.25 17.1989 7.25 17C7.25 16.8011 7.32902 16.6103 7.46967 16.4697C7.61032 16.329 7.80109 16.25 8 16.25H24C24.1989 16.25 24.3897 16.329 24.5303 16.4697C24.671 16.6103 24.75 16.8011 24.75 17C24.75 17.1989 24.671 17.3897 24.5303 17.5303C24.3897 17.671 24.1989 17.75 24 17.75ZM29 10.25H3C2.80109 10.25 2.61032 10.329 2.46967 10.4697C2.32902 10.6103 2.25 10.8011 2.25 11C2.25 11.1989 2.32902 11.3897 2.46967 11.5303C2.61032 11.671 2.80109 11.75 3 11.75H29C29.1989 11.75 29.3897 11.671 29.5303 11.5303C29.671 11.3897 29.75 11.1989 29.75 11C29.75 10.8011 29.671 10.6103 29.5303 10.4697C29.3897 10.329 29.1989 10.25 29 10.25ZM16 22.25H13C12.8011 22.25 12.6103 22.329 12.4697 22.4697C12.329 22.6103 12.25 22.8011 12.25 23C12.25 23.1989 12.329 23.3897 12.4697 23.5303C12.6103 23.671 12.8011 23.75 13 23.75H16C16.1989 23.75 16.3897 23.671 16.5303 23.5303C16.671 23.3897 16.75 23.1989 16.75 23C16.75 22.8011 16.671 22.6103 16.5303 22.4697C16.3897 22.329 16.1989 22.25 16 22.25ZM27.53 21.47C27.3894 21.3295 27.1988 21.2507 27 21.2507C26.8012 21.2507 26.6106 21.3295 26.47 21.47L24 23.9387L21.53 21.47C21.3878 21.3375 21.1998 21.2654 21.0055 21.2688C20.8112 21.2723 20.6258 21.351 20.4884 21.4884C20.351 21.6258 20.2723 21.8112 20.2688 22.0055C20.2654 22.1998 20.3375 22.3878 20.47 22.53L22.9387 25L20.47 27.47C20.3963 27.5387 20.3372 27.6215 20.2962 27.7135C20.2552 27.8055 20.2332 27.9048 20.2314 28.0055C20.2296 28.1062 20.2482 28.2062 20.2859 28.2996C20.3236 28.393 20.3797 28.4778 20.451 28.549C20.5222 28.6203 20.607 28.6764 20.7004 28.7141C20.7938 28.7518 20.8938 28.7704 20.9945 28.7686C21.0952 28.7668 21.1945 28.7448 21.2865 28.7038C21.3785 28.6628 21.4613 28.6037 21.53 28.53L24 26.0613L26.47 28.53C26.6122 28.6625 26.8002 28.7346 26.9945 28.7312C27.1888 28.7277 27.3742 28.649 27.5116 28.5116C27.649 28.3742 27.7277 28.1888 27.7312 27.9945C27.7346 27.8002 27.6625 27.6122 27.53 27.47L25.0613 25L27.53 22.53C27.6705 22.3894 27.7493 22.1988 27.7493 22C27.7493 21.8012 27.6705 21.6106 27.53 21.47Z" fill="white"/>
</svg>
