<svg width="32" height="32" viewBox="0 0 32 32" fill="none" xmlns="http://www.w3.org/2000/svg">
<path d="M28.5963 6.29248C28.4622 5.98106 28.2392 5.71608 27.9553 5.53067C27.6714 5.34525 27.3391 5.24762 27.0001 5.24998H5.00007C4.66129 5.25063 4.32998 5.3496 4.04635 5.53488C3.76273 5.72015 3.53897 5.98377 3.40225 6.29374C3.26553 6.60371 3.22172 6.9467 3.27614 7.28108C3.33056 7.61546 3.48087 7.92686 3.70882 8.17748L3.71632 8.18623L12.2501 17.2975V27C12.2502 27.3167 12.3363 27.6275 12.4992 27.8991C12.6621 28.1708 12.8956 28.3931 13.1749 28.5425C13.4542 28.6918 13.7689 28.7626 14.0852 28.7472C14.4016 28.7318 14.7078 28.6308 14.9713 28.455L18.9713 25.7887C19.211 25.6288 19.4074 25.4123 19.5433 25.1582C19.6791 24.9042 19.7502 24.6206 19.7501 24.3325V17.2975L28.2913 8.17248C28.5208 7.9235 28.6721 7.61256 28.7263 7.27831C28.7805 6.94406 28.7353 6.60125 28.5963 6.29248ZM27.1888 7.15998L18.4526 16.4875C18.3225 16.6264 18.2501 16.8096 18.2501 17V24.3325C18.2502 24.3738 18.2401 24.4144 18.2207 24.4508C18.2013 24.4873 18.1732 24.5183 18.1388 24.5412L14.1388 27.2075C14.1012 27.2326 14.0575 27.247 14.0123 27.2492C13.9672 27.2514 13.9222 27.2414 13.8823 27.2201C13.8425 27.1988 13.8091 27.1671 13.7858 27.1283C13.7625 27.0895 13.7502 27.0452 13.7501 27V17C13.75 16.8096 13.6777 16.6264 13.5476 16.4875L4.81632 7.16498C4.78481 7.12913 4.76422 7.085 4.75699 7.03782C4.74976 6.99064 4.75619 6.94238 4.77551 6.89873C4.79484 6.85509 4.82625 6.81789 4.86605 6.79153C4.90584 6.76517 4.95234 6.75075 5.00007 6.74998H27.0001C27.0489 6.74825 27.097 6.76161 27.1379 6.78823C27.1789 6.81484 27.2106 6.85343 27.2288 6.89873C27.2495 6.94119 27.2567 6.98893 27.2496 7.03559C27.2424 7.08226 27.2212 7.12565 27.1888 7.15998Z" fill="white"/>
</svg>
