<svg width="32" height="32" viewBox="0 0 32 32" fill="none" xmlns="http://www.w3.org/2000/svg">
<path d="M21.9999 13.75H18.9999C18.801 13.75 18.6102 13.671 18.4696 13.5303C18.3289 13.3897 18.2499 13.1989 18.2499 13C18.2499 12.8011 18.3289 12.6103 18.4696 12.4697C18.6102 12.329 18.801 12.25 18.9999 12.25H21.9999C22.1988 12.25 22.3896 12.329 22.5302 12.4697C22.6709 12.6103 22.7499 12.8011 22.7499 13C22.7499 13.1989 22.6709 13.3897 22.5302 13.5303C22.3896 13.671 22.1988 13.75 21.9999 13.75ZM12.9999 12.25H11.7499V11C11.7499 10.8011 11.6709 10.6103 11.5302 10.4697C11.3896 10.329 11.1988 10.25 10.9999 10.25C10.801 10.25 10.6102 10.329 10.4696 10.4697C10.3289 10.6103 10.2499 10.8011 10.2499 11V12.25H8.99988C8.80097 12.25 8.61021 12.329 8.46955 12.4697C8.3289 12.6103 8.24988 12.8011 8.24988 13C8.24988 13.1989 8.3289 13.3897 8.46955 13.5303C8.61021 13.671 8.80097 13.75 8.99988 13.75H10.2499V15C10.2499 15.1989 10.3289 15.3897 10.4696 15.5303C10.6102 15.671 10.801 15.75 10.9999 15.75C11.1988 15.75 11.3896 15.671 11.5302 15.5303C11.6709 15.3897 11.7499 15.1989 11.7499 15V13.75H12.9999C13.1988 13.75 13.3896 13.671 13.5302 13.5303C13.6709 13.3897 13.7499 13.1989 13.7499 13C13.7499 12.8011 13.6709 12.6103 13.5302 12.4697C13.3896 12.329 13.1988 12.25 12.9999 12.25ZM29.9799 24.9375C29.5882 25.497 29.0673 25.9539 28.4616 26.2694C27.8558 26.5849 27.1829 26.7498 26.4999 26.75C25.375 26.7474 24.2967 26.3004 23.4999 25.5063L23.4674 25.4713L18.4224 19.75H13.5774L8.53863 25.47L8.49988 25.5C7.70498 26.2977 6.626 26.7472 5.49988 26.75C4.87946 26.7496 4.26664 26.6133 3.70448 26.3508C3.14232 26.0883 2.64446 25.7059 2.24585 25.2305C1.84725 24.755 1.55757 24.1981 1.39717 23.5988C1.23677 22.9994 1.20954 22.3722 1.31738 21.7612C1.31738 21.7612 1.31738 21.7537 1.31738 21.7488L3.36238 11.235C3.65661 9.55904 4.53204 8.04038 5.83486 6.94582C7.13768 5.85126 8.78455 5.25082 10.4861 5.25H21.4999C23.1971 5.25216 24.8399 5.84896 26.1427 6.93666C27.4455 8.02437 28.326 9.53421 28.6311 11.2037C28.6311 11.2125 28.6311 11.2188 28.6311 11.2275L30.6824 21.75C30.6824 21.75 30.6824 21.7588 30.6824 21.7638C30.781 22.3129 30.7697 22.8762 30.6491 23.421C30.5285 23.9658 30.301 24.4812 29.9799 24.9375ZM21.4999 18.25C23.0249 18.25 24.4874 17.6442 25.5657 16.5659C26.6441 15.4875 27.2499 14.025 27.2499 12.5C27.2499 10.975 26.6441 9.51247 25.5657 8.43414C24.4874 7.3558 23.0249 6.75 21.4999 6.75H10.4861C9.13645 6.75103 7.83033 7.22784 6.79742 8.0966C5.76451 8.96536 5.07093 10.1705 4.83863 11.5C4.83805 11.5041 4.83805 11.5084 4.83863 11.5125L2.79113 22.0287C2.69119 22.6027 2.77608 23.1935 3.03355 23.716C3.29102 24.2386 3.70779 24.6659 4.22375 24.9363C4.73972 25.2067 5.32823 25.3063 5.90445 25.2207C6.48066 25.1351 7.01481 24.8687 7.42988 24.46L12.6799 18.5037C12.7506 18.4247 12.8373 18.3615 12.9343 18.3184C13.0313 18.2753 13.1363 18.2533 13.2424 18.2537L21.4999 18.25ZM29.2086 22.0287L27.9849 15.735C27.383 16.9401 26.4577 17.954 25.3123 18.6631C24.167 19.3722 22.8469 19.7485 21.4999 19.75H20.4211L24.5699 24.46C24.985 24.8687 25.5191 25.1351 26.0953 25.2207C26.6715 25.3063 27.26 25.2067 27.776 24.9363C28.292 24.6659 28.7087 24.2386 28.9662 23.716C29.2237 23.1935 29.3086 22.6027 29.2086 22.0287Z" fill="white"/>
</svg>
