<svg width="32" height="32" viewBox="0 0 32 32" fill="none" xmlns="http://www.w3.org/2000/svg">
<path d="M30 24.25H28.75V12.3337C28.7505 12.0452 28.6797 11.7611 28.5438 11.5066C28.4079 11.2521 28.2112 11.0351 27.9713 10.875L16.9713 3.54249C16.6837 3.35062 16.3457 3.24823 16 3.24823C15.6543 3.24823 15.3163 3.35062 15.0288 3.54249L4.02875 10.875C3.78876 11.0351 3.59208 11.2521 3.45621 11.5066C3.32034 11.7611 3.2495 12.0452 3.25 12.3337V24.25H2C1.80109 24.25 1.61032 24.329 1.46967 24.4697C1.32902 24.6103 1.25 24.8011 1.25 25C1.25 25.1989 1.32902 25.3897 1.46967 25.5303C1.61032 25.671 1.80109 25.75 2 25.75H30C30.1989 25.75 30.3897 25.671 30.5303 25.5303C30.671 25.3897 30.75 25.1989 30.75 25C30.75 24.8011 30.671 24.6103 30.5303 24.4697C30.3897 24.329 30.1989 24.25 30 24.25ZM4.75 12.3337C4.74987 12.2925 4.75996 12.2518 4.77937 12.2154C4.79879 12.179 4.82692 12.1479 4.86125 12.125L15.8612 4.79124C15.9023 4.76383 15.9506 4.7492 16 4.7492C16.0494 4.7492 16.0977 4.76383 16.1388 4.79124L27.1388 12.125C27.1729 12.1478 27.2009 12.1786 27.2203 12.2148C27.2397 12.251 27.2499 12.2914 27.25 12.3325V24.25H23.75V17C23.75 16.8011 23.671 16.6103 23.5303 16.4697C23.3897 16.329 23.1989 16.25 23 16.25H9C8.80109 16.25 8.61032 16.329 8.46967 16.4697C8.32902 16.6103 8.25 16.8011 8.25 17V24.25H4.75V12.3337ZM22.25 17.75V20.25H16.75V17.75H22.25ZM15.25 20.25H9.75V17.75H15.25V20.25ZM9.75 21.75H15.25V24.25H9.75V21.75ZM16.75 21.75H22.25V24.25H16.75V21.75Z" fill="white"/>
</svg>
