<svg width="32" height="32" viewBox="0 0 32 32" fill="none" xmlns="http://www.w3.org/2000/svg">
<path d="M24.9999 3.25H15.4136C15.1838 3.24958 14.9561 3.29464 14.7437 3.3826C14.5313 3.47056 14.3384 3.59967 14.1761 3.7625L12.7074 5.2325L11.2374 3.7625C11.0749 3.59998 10.882 3.47106 10.6696 3.38311C10.4573 3.29515 10.2297 3.24988 9.99988 3.24988C9.77005 3.24988 9.54248 3.29515 9.33015 3.38311C9.11781 3.47106 8.92489 3.59998 8.76238 3.7625L5.76238 6.7625C5.59986 6.92501 5.47094 7.11794 5.38298 7.33027C5.29503 7.5426 5.24976 7.77018 5.24976 8C5.24976 8.22983 5.29503 8.45741 5.38298 8.66974C5.47094 8.88207 5.59986 9.075 5.76238 9.2375L7.23238 10.7075L5.76238 12.1763C5.59955 12.3385 5.47044 12.5314 5.38248 12.7438C5.29452 12.9562 5.24946 13.1839 5.24988 13.4138V27C5.24988 27.4641 5.43426 27.9093 5.76245 28.2374C6.09063 28.5656 6.53575 28.75 6.99988 28.75H24.9999C25.464 28.75 25.9091 28.5656 26.2373 28.2374C26.5655 27.9093 26.7499 27.4641 26.7499 27V5C26.7499 4.53588 26.5655 4.09076 26.2373 3.76257C25.9091 3.43438 25.464 3.25 24.9999 3.25ZM6.82363 8.17625C6.77707 8.12941 6.75093 8.06605 6.75093 8C6.75093 7.93396 6.77707 7.87059 6.82363 7.82375L9.82363 4.82375C9.87047 4.77719 9.93384 4.75106 9.99988 4.75106C10.0659 4.75106 10.1293 4.77719 10.1761 4.82375L11.6461 6.2925L8.29238 9.64625L6.82363 8.17625ZM25.2499 27C25.2499 27.0663 25.2235 27.1299 25.1767 27.1768C25.1298 27.2237 25.0662 27.25 24.9999 27.25H6.99988C6.93358 27.25 6.86999 27.2237 6.82311 27.1768C6.77622 27.1299 6.74988 27.0663 6.74988 27V13.4138C6.75016 13.3476 6.77668 13.2842 6.82363 13.2375L8.82363 11.2375L13.2374 6.82375L15.2374 4.82375C15.2841 4.77681 15.3474 4.75028 15.4136 4.75H24.9999C25.0662 4.75 25.1298 4.77634 25.1767 4.82323C25.2235 4.87011 25.2499 4.9337 25.2499 5V27ZM22.7499 8C22.7499 8.19892 22.6709 8.38968 22.5302 8.53033C22.3896 8.67099 22.1988 8.75 21.9999 8.75H16.9999C16.801 8.75 16.6102 8.67099 16.4696 8.53033C16.3289 8.38968 16.2499 8.19892 16.2499 8C16.2499 7.80109 16.3289 7.61033 16.4696 7.46967C16.6102 7.32902 16.801 7.25 16.9999 7.25H21.9999C22.1988 7.25 22.3896 7.32902 22.5302 7.46967C22.6709 7.61033 22.7499 7.80109 22.7499 8ZM22.4499 15.6L17.2499 19.5L22.4499 23.4C22.5287 23.4591 22.5951 23.5331 22.6452 23.6179C22.6954 23.7026 22.7284 23.7964 22.7423 23.8939C22.7563 23.9914 22.7509 24.0907 22.7264 24.1861C22.702 24.2815 22.659 24.3712 22.5999 24.45C22.5408 24.5288 22.4668 24.5952 22.382 24.6454C22.2973 24.6955 22.2034 24.7285 22.1059 24.7425C22.0084 24.7564 21.9092 24.751 21.8137 24.7265C21.7183 24.7021 21.6287 24.6591 21.5499 24.6L15.9999 20.4375L10.4499 24.6C10.2908 24.7194 10.0907 24.7706 9.89382 24.7425C9.6969 24.7143 9.51923 24.6091 9.39988 24.45C9.28053 24.2909 9.22929 24.0909 9.25742 23.8939C9.28555 23.697 9.39075 23.5194 9.54988 23.4L14.7499 19.5L9.54988 15.6C9.39075 15.4807 9.28555 15.303 9.25742 15.1061C9.22929 14.9092 9.28053 14.7091 9.39988 14.55C9.51923 14.3909 9.6969 14.2857 9.89382 14.2575C10.0907 14.2294 10.2908 14.2807 10.4499 14.4L15.9999 18.5625L21.5499 14.4C21.6287 14.3409 21.7183 14.2979 21.8137 14.2735C21.9092 14.249 22.0084 14.2436 22.1059 14.2575C22.2034 14.2715 22.2973 14.3045 22.382 14.3546C22.4668 14.4048 22.5408 14.4712 22.5999 14.55C22.659 14.6288 22.702 14.7185 22.7264 14.8139C22.7509 14.9093 22.7563 15.0086 22.7423 15.1061C22.7284 15.2036 22.6954 15.2974 22.6452 15.3821C22.5951 15.4669 22.5287 15.5409 22.4499 15.6Z" fill="white"/>
</svg>
