<svg width="32" height="32" viewBox="0 0 32 32" fill="none" xmlns="http://www.w3.org/2000/svg">
<path d="M25.7062 9.25999C24.433 7.98417 22.9199 6.97299 21.254 6.28475C19.5881 5.59651 17.8024 5.24484 16 5.24999H15.9513C8.39625 5.27624 2.25 11.5075 2.25 19.1412V22C2.25 22.4641 2.43437 22.9092 2.76256 23.2374C3.09075 23.5656 3.53587 23.75 4 23.75H28C28.4641 23.75 28.9092 23.5656 29.2374 23.2374C29.5656 22.9092 29.75 22.4641 29.75 22V19C29.7549 17.1895 29.4 15.3962 28.7058 13.7241C28.0116 12.052 26.992 10.5346 25.7062 9.25999ZM28.25 22C28.25 22.0663 28.2237 22.1299 28.1768 22.1768C28.1299 22.2237 28.0663 22.25 28 22.25H14.4725L21.6063 12.4412C21.7182 12.2802 21.7627 12.0818 21.7301 11.8884C21.6975 11.695 21.5904 11.522 21.4319 11.4066C21.2733 11.2912 21.0758 11.2425 20.8818 11.2709C20.6877 11.2994 20.5125 11.4027 20.3937 11.5587L12.6175 22.25H4C3.9337 22.25 3.87011 22.2237 3.82322 22.1768C3.77634 22.1299 3.75 22.0663 3.75 22V19.1412C3.75054 18.6764 3.77642 18.212 3.8275 17.75H7C7.19891 17.75 7.38968 17.671 7.53033 17.5303C7.67098 17.3897 7.75 17.1989 7.75 17C7.75 16.8011 7.67098 16.6103 7.53033 16.4697C7.38968 16.329 7.19891 16.25 7 16.25H4.08875C5.325 11.05 9.81625 7.10749 15.25 6.77374V9.99999C15.25 10.1989 15.329 10.3897 15.4697 10.5303C15.6103 10.671 15.8011 10.75 16 10.75C16.1989 10.75 16.3897 10.671 16.5303 10.5303C16.671 10.3897 16.75 10.1989 16.75 9.99999V6.77374C19.3877 6.93565 21.9024 7.94577 23.9192 9.65349C25.936 11.3612 27.3468 13.6751 27.9412 16.25H25C24.8011 16.25 24.6103 16.329 24.4697 16.4697C24.329 16.6103 24.25 16.8011 24.25 17C24.25 17.1989 24.329 17.3897 24.4697 17.5303C24.6103 17.671 24.8011 17.75 25 17.75H28.1875C28.2288 18.1625 28.25 18.58 28.25 19V22Z" fill="white"/>
</svg>
