<svg width="32" height="32" viewBox="0 0 32 32" fill="none" xmlns="http://www.w3.org/2000/svg">
<path d="M30.2388 14.7625L28.2388 12.7625C27.9157 12.4398 27.4793 12.2562 27.0228 12.2509C26.5662 12.2455 26.1256 12.4188 25.7951 12.7337L19.2663 6.20497C19.5813 5.87439 19.7545 5.43381 19.7492 4.97725C19.7438 4.52068 19.5602 4.0843 19.2376 3.76122L17.2376 1.76122C17.075 1.5987 16.8821 1.46978 16.6698 1.38182C16.4575 1.29387 16.2299 1.2486 16.0001 1.2486C15.7702 1.2486 15.5427 1.29387 15.3303 1.38182C15.118 1.46978 14.9251 1.5987 14.7626 1.76122L6.76255 9.76122C6.60003 9.92373 6.47111 10.1167 6.38316 10.329C6.2952 10.5413 6.24993 10.7689 6.24993 10.9987C6.24993 11.2285 6.2952 11.4561 6.38316 11.6685C6.47111 11.8808 6.60003 12.0737 6.76255 12.2362L8.76255 14.2362C9.08563 14.5589 9.52202 14.7425 9.97858 14.7478C10.4351 14.7532 10.8757 14.5799 11.2063 14.265L12.4401 15.5L4.0913 23.8487C3.59704 24.3957 3.3318 25.1117 3.3504 25.8487C3.369 26.5857 3.67002 27.2874 4.19124 27.8088C4.71247 28.3302 5.41407 28.6314 6.15107 28.6503C6.88807 28.6691 7.60414 28.4041 8.1513 27.91L16.5001 19.5612L17.7338 20.795C17.4188 21.1256 17.2456 21.5661 17.2509 22.0227C17.2563 22.4793 17.4399 22.9156 17.7626 23.2387L19.7626 25.2387C19.9251 25.4012 20.118 25.5302 20.3303 25.6181C20.5427 25.7061 20.7702 25.7514 21.0001 25.7514C21.2299 25.7514 21.4575 25.7061 21.6698 25.6181C21.8821 25.5302 22.0751 25.4012 22.2376 25.2387L30.2376 17.2387C30.4003 17.0763 30.5295 16.8833 30.6177 16.6709C30.7059 16.4585 30.7513 16.2308 30.7514 16.0009C30.7515 15.7709 30.7063 15.5431 30.6184 15.3306C30.5304 15.1182 30.4014 14.9251 30.2388 14.7625ZM18.7938 19.7325L12.2676 13.2075L18.2076 7.26747L24.7326 13.7925L18.7938 19.7325ZM9.8238 13.1762L7.8238 11.1762C7.80056 11.153 7.78212 11.1254 7.76954 11.0951C7.75696 11.0647 7.75048 11.0322 7.75048 10.9993C7.75048 10.9665 7.75696 10.934 7.76954 10.9036C7.78212 10.8733 7.80056 10.8457 7.8238 10.8225L15.8238 2.82247C15.847 2.79923 15.8746 2.78079 15.9049 2.76821C15.9353 2.75563 15.9678 2.74915 16.0007 2.74915C16.0335 2.74915 16.0661 2.75563 16.0964 2.76821C16.1268 2.78079 16.1543 2.79923 16.1776 2.82247L18.1776 4.82247C18.2008 4.84569 18.2192 4.87326 18.2318 4.90361C18.2444 4.93396 18.2509 4.96649 18.2509 4.99935C18.2509 5.0322 18.2444 5.06473 18.2318 5.09508C18.2192 5.12543 18.2008 5.153 18.1776 5.17622L10.1776 13.1762C10.1543 13.1995 10.1268 13.2179 10.0964 13.2305C10.0661 13.2431 10.0335 13.2495 10.0007 13.2495C9.96783 13.2495 9.93529 13.2431 9.90494 13.2305C9.8746 13.2179 9.84702 13.1995 9.8238 13.1762ZM7.0913 26.85C6.82868 27.0789 6.48894 27.1997 6.14073 27.1877C5.79253 27.1758 5.46182 27.0322 5.21546 26.7858C4.9691 26.5395 4.82544 26.2088 4.81353 25.8605C4.80163 25.5123 4.92235 25.1726 5.1513 24.91L13.5001 16.5612L15.4401 18.5L7.0913 26.85ZM29.1776 16.1775L21.1776 24.1775C21.1543 24.2007 21.1268 24.2192 21.0964 24.2317C21.0661 24.2443 21.0335 24.2508 21.0007 24.2508C20.9678 24.2508 20.9353 24.2443 20.9049 24.2317C20.8746 24.2192 20.847 24.2007 20.8238 24.1775L18.8238 22.1775C18.8006 22.1543 18.7821 22.1267 18.7695 22.0963C18.757 22.066 18.7505 22.0335 18.7505 22.0006C18.7505 21.9677 18.757 21.9352 18.7695 21.9049C18.7821 21.8745 18.8006 21.8469 18.8238 21.8237L26.8238 13.8237C26.847 13.8005 26.8746 13.782 26.9049 13.7695C26.9353 13.7569 26.9678 13.7504 27.0007 13.7504C27.0335 13.7504 27.0661 13.7569 27.0964 13.7695C27.1268 13.782 27.1543 13.8005 27.1776 13.8237L29.1776 15.8237C29.2008 15.8469 29.2192 15.8745 29.2318 15.9049C29.2444 15.9352 29.2509 15.9677 29.2509 16.0006C29.2509 16.0335 29.2444 16.066 29.2318 16.0963C29.2192 16.1267 29.2008 16.1543 29.1776 16.1775Z" fill="white"/>
</svg>
