<svg width="32" height="32" viewBox="0 0 32 32" fill="none" xmlns="http://www.w3.org/2000/svg">
<path d="M15.9998 10.25C14.8626 10.25 13.7509 10.5872 12.8053 11.219C11.8597 11.8509 11.1227 12.7489 10.6875 13.7996C10.2523 14.8502 10.1384 16.0064 10.3603 17.1218C10.5822 18.2371 11.1298 19.2617 11.934 20.0658C12.7381 20.87 13.7627 21.4176 14.8781 21.6395C15.9934 21.8614 17.1496 21.7475 18.2003 21.3123C19.2509 20.8771 20.149 20.1401 20.7808 19.1945C21.4126 18.2489 21.7498 17.1372 21.7498 16C21.7478 14.4756 21.1414 13.0142 20.0635 11.9363C18.9856 10.8584 17.5242 10.252 15.9998 10.25ZM15.9998 20.25C15.1593 20.25 14.3376 20.0007 13.6386 19.5337C12.9397 19.0667 12.395 18.403 12.0733 17.6264C11.7517 16.8498 11.6675 15.9953 11.8315 15.1708C11.9955 14.3464 12.4002 13.5892 12.9946 12.9948C13.589 12.4004 14.3463 11.9956 15.1707 11.8316C15.9951 11.6677 16.8496 11.7518 17.6262 12.0735C18.4028 12.3952 19.0666 12.9399 19.5336 13.6388C20.0006 14.3377 20.2498 15.1594 20.2498 16C20.2498 17.1272 19.8021 18.2082 19.005 19.0052C18.208 19.8022 17.127 20.25 15.9998 20.25ZM29.4998 13.45C29.4781 13.3455 29.4343 13.2468 29.3713 13.1606C29.3084 13.0743 29.2277 13.0025 29.1348 12.95L25.3298 10.7775L25.2773 10.6887L25.2623 6.39998C25.2623 6.29165 25.2389 6.18461 25.1936 6.08621C25.1482 5.98781 25.0821 5.9004 24.9998 5.82998C23.6709 4.70632 22.141 3.84486 20.4911 3.29123C20.3919 3.25788 20.2868 3.24566 20.1826 3.25535C20.0784 3.26503 19.9774 3.29642 19.8861 3.34748L16.0573 5.48248H15.9323L12.1136 3.34498C12.0218 3.29377 11.9203 3.26241 11.8157 3.25293C11.711 3.24346 11.6055 3.25608 11.5061 3.28998C9.85634 3.84522 8.32714 4.70887 6.99982 5.83498C6.9172 5.90503 6.85073 5.99213 6.80499 6.09031C6.75924 6.18849 6.7353 6.29542 6.73482 6.40373L6.71482 10.6962C6.69732 10.725 6.67982 10.755 6.66357 10.785L2.86357 12.9462C2.77019 12.9996 2.68937 13.0724 2.62661 13.1598C2.56385 13.2471 2.52061 13.347 2.49982 13.4525C2.16607 15.1353 2.16607 16.8672 2.49982 18.55C2.52157 18.6545 2.56538 18.7532 2.62833 18.8394C2.69127 18.9256 2.7719 18.9974 2.86482 19.05L6.66732 21.2162L6.71982 21.305L6.73482 25.5937C6.73422 25.7033 6.75763 25.8117 6.80341 25.9112C6.84919 26.0108 6.91624 26.0991 6.99982 26.17C8.32874 27.2936 9.85868 28.1551 11.5086 28.7087C11.6078 28.7421 11.7128 28.7543 11.817 28.7446C11.9212 28.7349 12.0222 28.7035 12.1136 28.6525L15.9398 26.5175H16.0648L19.8848 28.655C19.9966 28.7168 20.1221 28.7494 20.2498 28.75C20.3319 28.7503 20.4135 28.7368 20.4911 28.71C22.1386 28.154 23.6656 27.2904 24.9911 26.165C25.0737 26.0949 25.1402 26.0078 25.1859 25.9097C25.2317 25.8115 25.2556 25.7045 25.2561 25.5962L25.2761 21.3037C25.2936 21.275 25.3111 21.245 25.3273 21.215L29.1298 19.0537C29.2234 19.0005 29.3045 18.9277 29.3675 18.8404C29.4305 18.753 29.4739 18.6531 29.4948 18.5475C29.8302 16.865 29.8319 15.1331 29.4998 13.45ZM28.0936 17.9237L24.4148 20.0125C24.2955 20.0807 24.197 20.1801 24.1298 20.3C24.0561 20.425 23.9786 20.5637 23.8973 20.6925C23.8234 20.811 23.784 20.9478 23.7836 21.0875L23.7636 25.2387C22.7293 26.0674 21.5676 26.7229 20.3236 27.18L16.6248 25.11C16.513 25.0471 16.3869 25.014 16.2586 25.0137H16.2411C16.0861 25.0137 15.9286 25.0137 15.7736 25.0137C15.6395 25.0105 15.5069 25.0433 15.3898 25.1087L11.6811 27.1787C10.4355 26.724 9.27205 26.0701 8.23607 25.2425L8.22107 21.0962C8.22068 20.9565 8.18129 20.8197 8.10732 20.7012C8.02732 20.5762 7.94857 20.4412 7.87482 20.3087C7.80831 20.1888 7.71017 20.0893 7.59107 20.0212L3.91232 17.925C3.69848 16.651 3.69848 15.3502 3.91232 14.0762L7.58482 11.9875C7.70595 11.92 7.80625 11.8205 7.87482 11.7C7.94857 11.575 8.02607 11.4362 8.10732 11.3075C8.18129 11.189 8.22068 11.0522 8.22107 10.9125L8.24107 6.76123C9.27384 5.93307 10.4338 5.27751 11.6761 4.81998L15.3748 6.88998C15.4915 6.95653 15.6243 6.98941 15.7586 6.98498C15.9136 6.98498 16.0711 6.98498 16.2261 6.98498C16.3602 6.98821 16.4927 6.9554 16.6098 6.88998L20.3161 4.81998C21.5616 5.2747 22.7251 5.92862 23.7611 6.75623L23.7761 10.9025C23.7765 11.0422 23.8159 11.179 23.8898 11.2975C23.9698 11.4225 24.0486 11.5575 24.1223 11.69C24.1888 11.81 24.287 11.9094 24.4061 11.9775L28.0873 14.075C28.3024 15.3488 28.3037 16.6495 28.0911 17.9237H28.0936Z" fill="white"/>
</svg>
