<svg width="32" height="32" viewBox="0 0 32 32" fill="none" xmlns="http://www.w3.org/2000/svg">
<path d="M16.0002 10.25C14.863 10.25 13.7513 10.5872 12.8057 11.2191C11.8601 11.8509 11.1231 12.7489 10.6879 13.7996C10.2527 14.8503 10.1388 16.0064 10.3607 17.1218C10.5826 18.2372 11.1302 19.2617 11.9343 20.0659C12.7385 20.87 13.7631 21.4177 14.8784 21.6395C15.9938 21.8614 17.15 21.7475 18.2006 21.3123C19.2513 20.8771 20.1493 20.1401 20.7812 19.1945C21.413 18.249 21.7502 17.1373 21.7502 16C21.7482 14.4756 21.1418 13.0142 20.0639 11.9363C18.986 10.8584 17.5246 10.252 16.0002 10.25ZM16.0002 20.25C15.1596 20.25 14.3379 20.0008 13.639 19.5338C12.9401 19.0668 12.3954 18.403 12.0737 17.6264C11.7521 16.8498 11.6679 15.9953 11.8319 15.1709C11.9959 14.3465 12.4006 13.5892 12.995 12.9948C13.5894 12.4004 14.3467 11.9957 15.1711 11.8317C15.9955 11.6677 16.85 11.7519 17.6266 12.0735C18.4032 12.3952 19.067 12.9399 19.534 13.6388C20.001 14.3377 20.2502 15.1594 20.2502 16C20.2502 17.1272 19.8024 18.2082 19.0054 19.0052C18.2084 19.8022 17.1274 20.25 16.0002 20.25ZM26.7502 16.355C26.7577 16.1188 26.7577 15.8813 26.7502 15.645L28.6665 13.25C28.7397 13.1583 28.7904 13.0507 28.8145 12.9359C28.8386 12.8211 28.8354 12.7022 28.8052 12.5888C28.5054 11.4589 28.0565 10.3739 27.4702 9.36251C27.412 9.25987 27.3304 9.17241 27.232 9.10725C27.1336 9.04209 27.0212 9.00106 26.904 8.98751L23.8477 8.64876C23.6869 8.47626 23.5202 8.3096 23.3477 8.14876L23.0077 5.09126C22.9942 4.97403 22.9531 4.86165 22.888 4.76326C22.8228 4.66487 22.7354 4.58324 22.6327 4.52501C21.6226 3.94046 20.5394 3.49239 19.4115 3.19251C19.2978 3.16281 19.1787 3.16023 19.0639 3.18498C18.949 3.20974 18.8416 3.26113 18.7502 3.33501L16.3502 5.25626C16.114 5.24876 15.8765 5.24876 15.6402 5.25626L13.2502 3.33376C13.1585 3.26052 13.0509 3.20981 12.9361 3.18571C12.8212 3.16161 12.7024 3.1648 12.589 3.19501C11.4591 3.49483 10.3741 3.94377 9.36271 4.53001C9.26006 4.58824 9.1726 4.66987 9.10744 4.76826C9.04228 4.86665 9.00126 4.97903 8.98771 5.09626L8.65396 8.15251C8.48146 8.31418 8.31479 8.48085 8.15396 8.65251L5.09521 9.00001C4.97798 9.01356 4.8656 9.05459 4.76721 9.11975C4.66881 9.18491 4.58719 9.27237 4.52896 9.37501C3.94441 10.3852 3.49634 11.4684 3.19646 12.5963C3.16747 12.7085 3.16492 12.826 3.18899 12.9394C3.21307 13.0529 3.26312 13.1592 3.33521 13.25L5.25646 15.65C5.24896 15.8863 5.24896 16.1238 5.25646 16.36L3.33396 18.7563C3.26072 18.8479 3.21 18.9555 3.18591 19.0704C3.16181 19.1852 3.165 19.3041 3.19521 19.4175C3.49555 20.5453 3.94448 21.6281 4.53021 22.6375C4.58844 22.7402 4.67006 22.8276 4.76846 22.8928C4.86685 22.9579 4.97923 22.999 5.09646 23.0125L8.15271 23.3513C8.31438 23.5238 8.48104 23.6904 8.65271 23.8513L9.00021 26.905C9.01376 27.0222 9.05478 27.1346 9.11994 27.233C9.1851 27.3314 9.27256 27.413 9.37521 27.4713C10.3854 28.0558 11.4685 28.5039 12.5965 28.8038C12.7099 28.834 12.8287 28.8372 12.9436 28.8131C13.0584 28.789 13.166 28.7383 13.2577 28.665L15.6452 26.75C15.8815 26.7575 16.119 26.7575 16.3552 26.75L18.7565 28.6725C18.8896 28.7787 19.0549 28.8365 19.2252 28.8363C19.2902 28.836 19.3548 28.8276 19.4177 28.8113C20.5455 28.5109 21.6283 28.062 22.6377 27.4763C22.7404 27.418 22.8278 27.3364 22.893 27.238C22.9581 27.1396 22.9992 27.0272 23.0127 26.91L23.3515 23.8538C23.524 23.6929 23.6906 23.5263 23.8515 23.3538L26.909 23.0138C27.0262 23.0002 27.1386 22.9592 27.237 22.894C27.3354 22.8289 27.417 22.7414 27.4752 22.6388C28.06 21.6287 28.5081 20.5455 28.8077 19.4175C28.8379 19.3041 28.8411 19.1852 28.817 19.0704C28.7929 18.9555 28.7422 18.8479 28.669 18.7563L26.7502 16.355ZM26.3627 21.5588L23.4077 21.8875C23.2231 21.9088 23.0529 21.9979 22.9302 22.1375C22.6832 22.4158 22.4198 22.6792 22.1415 22.9263C22.0018 23.049 21.9127 23.2191 21.8915 23.4038L21.5627 26.3575C20.8709 26.7265 20.1439 27.0254 19.3927 27.25L17.0715 25.3925C16.9383 25.2863 16.773 25.2285 16.6027 25.2288H16.5577C16.1863 25.25 15.8141 25.25 15.4427 25.2288C15.2572 25.2174 15.0742 25.2753 14.929 25.3913L12.609 27.25C11.8584 27.0242 11.1323 26.724 10.4415 26.3538L10.1127 23.4013C10.0914 23.2166 10.0023 23.0465 9.86271 22.9238C9.5844 22.6767 9.32102 22.4133 9.07396 22.135C8.95127 21.9954 8.78111 21.9063 8.59646 21.885L5.64271 21.5563C5.27415 20.8664 4.97517 20.1416 4.75021 19.3925L6.60771 17.0713C6.72365 16.9261 6.78156 16.743 6.77021 16.5575C6.74896 16.1862 6.74896 15.8139 6.77021 15.4425C6.78156 15.257 6.72365 15.074 6.60771 14.9288L4.75021 12.6088C4.97602 11.8582 5.27626 11.1321 5.64646 10.4413L8.59896 10.1125C8.78361 10.0912 8.95377 10.0021 9.07646 9.86251C9.32352 9.5842 9.5869 9.32082 9.86521 9.07376C10.0048 8.95107 10.0939 8.78091 10.1152 8.59626L10.444 5.64251C11.1338 5.27395 11.8586 4.97498 12.6077 4.75001L14.929 6.60751C15.0742 6.72345 15.2572 6.78136 15.4427 6.77001C15.8141 6.74876 16.1863 6.74876 16.5577 6.77001C16.7432 6.78136 16.9263 6.72345 17.0715 6.60751L19.3915 4.75001C20.142 4.97583 20.8681 5.27607 21.559 5.64626L21.8877 8.60126C21.909 8.78591 21.9981 8.95607 22.1377 9.07876C22.416 9.32582 22.6794 9.5892 22.9265 9.86751C23.0492 10.0071 23.2193 10.0962 23.404 10.1175L26.3577 10.4463C26.7261 11.1353 27.0251 11.8593 27.2502 12.6075L25.3927 14.9288C25.2768 15.074 25.2189 15.257 25.2302 15.4425C25.2515 15.8139 25.2515 16.1862 25.2302 16.5575C25.2189 16.743 25.2768 16.9261 25.3927 17.0713L27.2502 19.3913C27.0252 20.1417 26.7258 20.8678 26.3565 21.5588H26.3627Z" fill="white"/>
</svg>
