<svg width="32" height="32" viewBox="0 0 32 32" fill="none" xmlns="http://www.w3.org/2000/svg">
<path d="M25.75 13C25.7505 11.1035 25.1978 9.24806 24.1597 7.66088C23.1216 6.0737 21.6432 4.82373 19.9055 4.06406C18.1678 3.30439 16.2462 3.068 14.3762 3.38385C12.5062 3.69971 10.7689 4.55408 9.37705 5.84234C7.98523 7.1306 6.99934 8.7968 6.54013 10.6369C6.08092 12.477 6.16833 14.411 6.79165 16.2022C7.41496 17.9933 8.54713 19.5638 10.0495 20.7213C11.5518 21.8787 13.3591 22.5729 15.25 22.7188V29C15.25 29.199 15.329 29.3897 15.4697 29.5304C15.6103 29.671 15.8011 29.75 16 29.75C16.1989 29.75 16.3897 29.671 16.5303 29.5304C16.671 29.3897 16.75 29.199 16.75 29V22.7188C19.1974 22.5274 21.4828 21.4208 23.1508 19.6196C24.8187 17.8184 25.7468 15.4549 25.75 13ZM16 21.25C14.3683 21.25 12.7733 20.7662 11.4165 19.8597C10.0598 18.9532 9.00242 17.6647 8.37799 16.1572C7.75357 14.6497 7.59019 12.9909 7.90852 11.3906C8.22685 9.79021 9.01259 8.3202 10.1664 7.16642C11.3202 6.01263 12.7902 5.2269 14.3905 4.90857C15.9908 4.59024 17.6496 4.75362 19.1571 5.37804C20.6646 6.00246 21.9531 7.05989 22.8596 8.41659C23.7661 9.7733 24.25 11.3684 24.25 13C24.2474 15.1873 23.3773 17.2842 21.8307 18.8308C20.2841 20.3774 18.1872 21.2474 16 21.25Z" fill="white"/>
</svg>
