<svg width="32" height="32" viewBox="0 0 32 32" fill="none" xmlns="http://www.w3.org/2000/svg">
<path d="M27.0001 4.25H21.0001C20.8012 4.25 20.6104 4.32902 20.4697 4.46967C20.3291 4.61032 20.2501 4.80109 20.2501 5C20.2501 5.19891 20.3291 5.38968 20.4697 5.53033C20.6104 5.67098 20.8012 5.75 21.0001 5.75H25.1901L19.3401 11.5988C17.8997 10.3653 16.1309 9.57868 14.2503 9.33517C12.3697 9.09166 10.4589 9.40184 8.75189 10.2277C7.04488 11.0536 5.61575 12.3594 4.63953 13.9851C3.6633 15.6109 3.18235 17.486 3.25556 19.3809C3.32877 21.2758 3.95297 23.1082 5.05173 24.6537C6.15048 26.1993 7.67609 27.3909 9.44173 28.0826C11.2074 28.7744 13.1364 28.9362 14.9926 28.5483C16.8489 28.1604 18.5517 27.2396 19.8926 25.8988C21.6264 24.1603 22.6416 21.8324 22.7359 19.3789C22.8302 16.9254 21.9966 14.5264 20.4013 12.66L26.2501 6.81125V11C26.2501 11.1989 26.3291 11.3897 26.4697 11.5303C26.6104 11.671 26.8012 11.75 27.0001 11.75C27.199 11.75 27.3898 11.671 27.5304 11.5303C27.6711 11.3897 27.7501 11.1989 27.7501 11V5C27.7501 4.80109 27.6711 4.61032 27.5304 4.46967C27.3898 4.32902 27.199 4.25 27.0001 4.25ZM18.8326 24.8375C17.6786 25.9909 16.2086 26.7762 14.6084 27.0943C13.0081 27.4123 11.3495 27.2487 9.84228 26.6241C8.33501 25.9996 7.04677 24.9422 6.14042 23.5856C5.23407 22.2289 4.75031 20.634 4.75031 19.0025C4.75031 17.371 5.23407 15.7761 6.14042 14.4194C7.04677 13.0628 8.33501 12.0054 9.84228 11.3809C11.3495 10.7563 13.0081 10.5927 14.6084 10.9107C16.2086 11.2288 17.6786 12.0141 18.8326 13.1675C20.3775 14.7164 21.2451 16.8148 21.2451 19.0025C21.2451 21.1902 20.3775 23.2886 18.8326 24.8375Z" fill="white"/>
</svg>
