<svg width="32" height="32" viewBox="0 0 32 32" fill="none" xmlns="http://www.w3.org/2000/svg">
<path d="M25.75 12C25.7505 10.1035 25.1978 8.24806 24.1597 6.66088C23.1216 5.0737 21.6432 3.82373 19.9055 3.06406C18.1678 2.30439 16.2462 2.068 14.3762 2.38385C12.5062 2.69971 10.7689 3.55408 9.37705 4.84234C7.98523 6.1306 6.99934 7.7968 6.54013 9.63688C6.08092 11.477 6.16833 13.411 6.79165 15.2022C7.41496 16.9933 8.54713 18.5638 10.0495 19.7213C11.5518 20.8787 13.3591 21.5729 15.25 21.7188V25.25H11C10.8011 25.25 10.6103 25.3291 10.4697 25.4697C10.329 25.6104 10.25 25.8011 10.25 26C10.25 26.199 10.329 26.3897 10.4697 26.5304C10.6103 26.671 10.8011 26.75 11 26.75H15.25V30C15.25 30.199 15.329 30.3897 15.4697 30.5304C15.6103 30.671 15.8011 30.75 16 30.75C16.1989 30.75 16.3897 30.671 16.5303 30.5304C16.671 30.3897 16.75 30.199 16.75 30V26.75H21C21.1989 26.75 21.3897 26.671 21.5303 26.5304C21.671 26.3897 21.75 26.199 21.75 26C21.75 25.8011 21.671 25.6104 21.5303 25.4697C21.3897 25.3291 21.1989 25.25 21 25.25H16.75V21.7188C19.1974 21.5274 21.4828 20.4208 23.1508 18.6196C24.8187 16.8184 25.7468 14.4549 25.75 12ZM7.75 12C7.75 10.3684 8.23386 8.7733 9.14038 7.41659C10.0469 6.05989 11.3354 5.00246 12.8429 4.37804C14.3504 3.75362 16.0092 3.59024 17.6095 3.90857C19.2098 4.2269 20.6798 5.01263 21.8336 6.16642C22.9874 7.3202 23.7731 8.79021 24.0915 10.3906C24.4098 11.9909 24.2464 13.6497 23.622 15.1572C22.9976 16.6647 21.9402 17.9532 20.5835 18.8597C19.2267 19.7662 17.6317 20.25 16 20.25C13.8128 20.2474 11.7159 19.3774 10.1693 17.8308C8.62269 16.2842 7.75265 14.1873 7.75 12Z" fill="white"/>
</svg>
