<svg width="32" height="32" viewBox="0 0 32 32" fill="none" xmlns="http://www.w3.org/2000/svg">
<path d="M16.75 12.2837V7.32494L20.6138 9.64244C20.6982 9.69672 20.7927 9.73349 20.8916 9.75057C20.9905 9.76766 21.0919 9.76471 21.1896 9.74191C21.2874 9.71911 21.3796 9.67692 21.4607 9.61783C21.5419 9.55875 21.6103 9.48397 21.6621 9.39794C21.7138 9.31191 21.7477 9.21637 21.7618 9.11698C21.7759 9.0176 21.7699 8.91639 21.7442 8.81936C21.7185 8.72233 21.6736 8.63145 21.6121 8.5521C21.5506 8.47276 21.4738 8.40656 21.3863 8.35744L17.4575 5.99994L21.3863 3.64369C21.5568 3.54125 21.6797 3.37525 21.7279 3.18221C21.7761 2.98916 21.7456 2.78489 21.6431 2.61432C21.5407 2.44375 21.3747 2.32086 21.1816 2.27269C20.9886 2.22452 20.7843 2.255 20.6138 2.35744L16 5.12494L11.3863 2.35744C11.2157 2.255 11.0114 2.22452 10.8184 2.27269C10.6253 2.32086 10.4593 2.44375 10.3569 2.61432C10.2544 2.78489 10.224 2.98916 10.2721 3.18221C10.3203 3.37525 10.4432 3.54125 10.6138 3.64369L14.5425 5.99994L10.6138 8.35744C10.5262 8.40656 10.4494 8.47276 10.3879 8.5521C10.3264 8.63145 10.2815 8.72233 10.2558 8.81936C10.2301 8.91639 10.2241 9.0176 10.2382 9.11698C10.2523 9.21637 10.2862 9.31191 10.338 9.39794C10.3897 9.48397 10.4581 9.55875 10.5393 9.61783C10.6205 9.67692 10.7126 9.71911 10.8104 9.74191C10.9082 9.76471 11.0095 9.76766 11.1084 9.75057C11.2073 9.73349 11.3018 9.69672 11.3863 9.64244L15.25 7.32494V12.2837C13.0026 12.477 10.9168 13.5308 9.42767 15.2251C7.93857 16.9194 7.1613 19.1233 7.25806 21.3768C7.35482 23.6304 8.31814 25.7596 9.94698 27.32C11.5758 28.8804 13.7443 29.7515 16 29.7515C18.2557 29.7515 20.4242 28.8804 22.053 27.32C23.6819 25.7596 24.6452 23.6304 24.742 21.3768C24.8387 19.1233 24.0614 16.9194 22.5723 15.2251C21.0832 13.5308 18.9974 12.477 16.75 12.2837ZM16 28.2499C14.5661 28.2499 13.1644 27.8247 11.9721 27.0281C10.7799 26.2315 9.85062 25.0992 9.30188 23.7744C8.75315 22.4496 8.60957 20.9919 8.88931 19.5855C9.16906 18.1792 9.85955 16.8873 10.8735 15.8734C11.8874 14.8595 13.1792 14.169 14.5856 13.8892C15.992 13.6095 17.4497 13.7531 18.7745 14.3018C20.0992 14.8506 21.2315 15.7798 22.0282 16.9721C22.8248 18.1643 23.25 19.566 23.25 20.9999C23.2477 22.9221 22.4831 24.7648 21.124 26.1239C19.7648 27.483 17.9221 28.2476 16 28.2499Z" fill="white"/>
</svg>
