<svg width="32" height="32" viewBox="0 0 32 32" fill="none" xmlns="http://www.w3.org/2000/svg">
<path d="M27 9.25H21.8425C22.1072 9.08384 22.358 8.89657 22.5925 8.69C22.9461 8.37491 23.231 7.99027 23.4293 7.56013C23.6276 7.12998 23.7351 6.66356 23.745 6.19C23.7603 5.66907 23.6692 5.15049 23.4771 4.66602C23.285 4.18156 22.996 3.74142 22.6278 3.37255C22.2597 3.00368 21.8201 2.71386 21.336 2.52084C20.8519 2.32782 20.3335 2.23566 19.8125 2.25C19.3389 2.25992 18.8725 2.36739 18.4424 2.56569C18.0122 2.76399 17.6276 3.04886 17.3125 3.4025C16.7335 4.08581 16.2882 4.872 16 5.72C15.7124 4.87263 15.268 4.08689 14.69 3.40375C14.3747 3.04957 13.9897 2.76429 13.5591 2.56576C13.1285 2.36724 12.6616 2.25974 12.1875 2.25C11.6662 2.23497 11.1474 2.32658 10.6628 2.51922C10.1782 2.71185 9.73805 3.00145 9.36936 3.37026C9.00067 3.73906 8.71121 4.17929 8.51873 4.66396C8.32625 5.14862 8.2348 5.66749 8.25 6.18875C8.25992 6.66231 8.36739 7.12873 8.56568 7.55888C8.76398 7.98902 9.04885 8.37366 9.4025 8.68875C9.63678 8.89561 9.88762 9.0829 10.1525 9.24875H5C4.77008 9.24875 4.54242 9.29406 4.33002 9.38208C4.11761 9.47011 3.92464 9.59912 3.76212 9.76176C3.5996 9.92439 3.47072 10.1175 3.38285 10.3299C3.29498 10.5424 3.24984 10.7701 3.25 11V15C3.25 15.4641 3.43437 15.9093 3.76256 16.2374C4.09075 16.5656 4.53587 16.75 5 16.75H5.25V25C5.25 25.4641 5.43438 25.9093 5.76256 26.2374C6.09075 26.5656 6.53587 26.75 7 26.75H25C25.4641 26.75 25.9092 26.5656 26.2374 26.2374C26.5656 25.9093 26.75 25.4641 26.75 25V16.75H27C27.4641 16.75 27.9092 16.5656 28.2374 16.2374C28.5656 15.9093 28.75 15.4641 28.75 15V11C28.75 10.5359 28.5656 10.0908 28.2374 9.76257C27.9092 9.43438 27.4641 9.25 27 9.25ZM16.9713 7.875C17.2525 6.36 17.7575 5.15625 18.4325 4.39375C18.6131 4.1944 18.8329 4.03437 19.078 3.92362C19.3232 3.81287 19.5885 3.75377 19.8575 3.75H19.9263C20.2372 3.75004 20.545 3.81246 20.8315 3.93358C21.1179 4.05469 21.3771 4.23204 21.5938 4.45512C21.8105 4.6782 21.9802 4.94248 22.0929 5.23231C22.2056 5.52215 22.259 5.83165 22.25 6.1425C22.2458 6.41177 22.1861 6.67727 22.0747 6.92244C21.9633 7.16762 21.8025 7.3872 21.6025 7.5675C20.2625 8.75 17.99 9.10375 16.7925 9.20625C16.8237 8.845 16.875 8.385 16.9713 7.875ZM10.4313 4.43125C10.8675 3.99655 11.4579 3.75171 12.0737 3.75H12.1425C12.4118 3.75425 12.6773 3.81393 12.9224 3.92534C13.1676 4.03674 13.3872 4.19747 13.5675 4.3975C14.75 5.7375 15.1038 8.01 15.2063 9.2075C14.845 9.17625 14.385 9.1225 13.88 9.02875C12.365 8.75 11.1613 8.2425 10.3988 7.56625C10.1984 7.3864 10.0374 7.1671 9.92574 6.92211C9.8141 6.67711 9.75427 6.4117 9.75 6.1425C9.74137 5.82595 9.79733 5.51096 9.91446 5.21675C10.0316 4.92253 10.2074 4.65527 10.4313 4.43125ZM4.75 15V11C4.75 10.9337 4.77634 10.8701 4.82322 10.8232C4.87011 10.7763 4.9337 10.75 5 10.75H15.25V15.25H5C4.9337 15.25 4.87011 15.2237 4.82322 15.1768C4.77634 15.1299 4.75 15.0663 4.75 15ZM6.75 25V16.75H15.25V25.25H7C6.9337 25.25 6.87011 25.2237 6.82322 25.1768C6.77634 25.1299 6.75 25.0663 6.75 25ZM25.25 25C25.25 25.0663 25.2237 25.1299 25.1768 25.1768C25.1299 25.2237 25.0663 25.25 25 25.25H16.75V16.75H25.25V25ZM27.25 15C27.25 15.0663 27.2237 15.1299 27.1768 15.1768C27.1299 15.2237 27.0663 15.25 27 15.25H16.75V10.75H27C27.0663 10.75 27.1299 10.7763 27.1768 10.8232C27.2237 10.8701 27.25 10.9337 27.25 11V15Z" fill="white"/>
</svg>
