<svg width="32" height="32" viewBox="0 0 32 32" fill="none" xmlns="http://www.w3.org/2000/svg">
<path d="M14 19.2501C13.8011 19.2501 13.6103 19.3291 13.4697 19.4697C13.329 19.6104 13.25 19.8011 13.25 20.0001V24.1901L8.11626 19.0551C7.99979 18.9393 7.90744 18.8016 7.84458 18.6499C7.78171 18.4982 7.74956 18.3355 7.75001 18.1713V11.6713C8.66054 11.4854 9.46963 10.9681 10.0204 10.2196C10.5712 9.47111 10.8244 8.54476 10.731 7.62016C10.6376 6.69556 10.2042 5.83857 9.51487 5.21535C8.82552 4.59213 7.92932 4.24707 7.00001 4.24707C6.0707 4.24707 5.1745 4.59213 4.48514 5.21535C3.79579 5.83857 3.3624 6.69556 3.269 7.62016C3.17559 8.54476 3.42883 9.47111 3.97961 10.2196C4.53039 10.9681 5.33948 11.4854 6.25001 11.6713V18.1713C6.24907 18.5326 6.31972 18.8905 6.45789 19.2244C6.59606 19.5582 6.79901 19.8613 7.05501 20.1163L12.19 25.2501H8.00001C7.8011 25.2501 7.61033 25.3291 7.46968 25.4697C7.32903 25.6104 7.25001 25.8011 7.25001 26.0001C7.25001 26.199 7.32903 26.3897 7.46968 26.5304C7.61033 26.671 7.8011 26.7501 8.00001 26.7501H14C14.1989 26.7501 14.3897 26.671 14.5303 26.5304C14.671 26.3897 14.75 26.199 14.75 26.0001V20.0001C14.75 19.8011 14.671 19.6104 14.5303 19.4697C14.3897 19.3291 14.1989 19.2501 14 19.2501ZM4.75001 8.00005C4.75001 7.55505 4.88197 7.12003 5.1292 6.75002C5.37644 6.38001 5.72784 6.09162 6.13897 5.92133C6.5501 5.75103 7.0025 5.70647 7.43896 5.79329C7.87542 5.8801 8.27633 6.0944 8.591 6.40906C8.90567 6.72373 9.11996 7.12464 9.20678 7.5611C9.29359 7.99756 9.24903 8.44996 9.07874 8.86109C8.90844 9.27223 8.62005 9.62363 8.25004 9.87086C7.88003 10.1181 7.44502 10.2501 7.00001 10.2501C6.40327 10.2501 5.83098 10.013 5.40902 9.59104C4.98706 9.16909 4.75001 8.59679 4.75001 8.00005ZM25.75 20.3251V13.8251C25.7509 13.4638 25.6803 13.1058 25.5421 12.772C25.404 12.4382 25.201 12.135 24.945 11.8801L19.81 6.75005H24C24.1989 6.75005 24.3897 6.67104 24.5303 6.53039C24.671 6.38973 24.75 6.19897 24.75 6.00005C24.75 5.80114 24.671 5.61038 24.5303 5.46972C24.3897 5.32907 24.1989 5.25005 24 5.25005H18C17.8011 5.25005 17.6103 5.32907 17.4697 5.46972C17.329 5.61038 17.25 5.80114 17.25 6.00005V12.0001C17.25 12.199 17.329 12.3897 17.4697 12.5304C17.6103 12.671 17.8011 12.7501 18 12.7501C18.1989 12.7501 18.3897 12.671 18.5303 12.5304C18.671 12.3897 18.75 12.199 18.75 12.0001V7.81005L23.8838 12.9451C24.0002 13.0608 24.0926 13.1985 24.1554 13.3502C24.2183 13.5019 24.2505 13.6646 24.25 13.8288V20.3288C23.3395 20.5147 22.5304 21.032 21.9796 21.7805C21.4288 22.529 21.1756 23.4553 21.269 24.3799C21.3624 25.3046 21.7958 26.1615 22.4851 26.7848C23.1745 27.408 24.0707 27.753 25 27.753C25.9293 27.753 26.8255 27.408 27.5149 26.7848C28.2042 26.1615 28.6376 25.3046 28.731 24.3799C28.8244 23.4553 28.5712 22.529 28.0204 21.7805C27.4696 21.032 26.6605 20.5147 25.75 20.3288V20.3251ZM25 26.2501C24.555 26.2501 24.12 26.1181 23.75 25.8709C23.38 25.6236 23.0916 25.2722 22.9213 24.8611C22.751 24.45 22.7064 23.9976 22.7932 23.5611C22.8801 23.1246 23.0943 22.7237 23.409 22.4091C23.7237 22.0944 24.1246 21.8801 24.5611 21.7933C24.9975 21.7065 25.4499 21.751 25.861 21.9213C26.2722 22.0916 26.6236 22.38 26.8708 22.75C27.118 23.12 27.25 23.555 27.25 24.0001C27.25 24.5968 27.013 25.1691 26.591 25.591C26.169 26.013 25.5967 26.2501 25 26.2501Z" fill="white"/>
</svg>
