<svg width="32" height="32" viewBox="0 0 32 32" fill="none" xmlns="http://www.w3.org/2000/svg">
<path d="M25.9999 14.25C25.1535 14.2502 24.332 14.5367 23.6691 15.063C23.0062 15.5893 22.5408 16.3244 22.3487 17.1487L16.8487 16.3637C16.5483 16.3209 16.2737 16.1703 16.0762 15.94L11.3974 10.4787C12.2324 10.1425 12.9187 9.5172 13.3308 8.71693C13.7429 7.91665 13.8533 6.99484 13.642 6.11984C13.4307 5.24485 12.9117 4.47505 12.1798 3.95104C11.4479 3.42703 10.552 3.18377 9.65556 3.26569C8.75914 3.34761 7.9221 3.74924 7.29731 4.39723C6.67251 5.04523 6.30164 5.89634 6.25244 6.79515C6.20323 7.69395 6.47897 8.58046 7.0293 9.29279C7.57963 10.0051 8.36783 10.4957 9.24994 10.675V21.325C8.33941 21.5109 7.53032 22.0282 6.97954 22.7767C6.42876 23.5252 6.17553 24.4515 6.26893 25.3761C6.36233 26.3007 6.79572 27.1577 7.48508 27.781C8.17443 28.4042 9.07063 28.7492 9.99994 28.7492C10.9292 28.7492 11.8255 28.4042 12.5148 27.781C13.2042 27.1577 13.6375 26.3007 13.731 25.3761C13.8244 24.4515 13.5711 23.5252 13.0203 22.7767C12.4696 22.0282 11.6605 21.5109 10.7499 21.325V12.0275L14.9399 16.9162C15.3746 17.4232 15.9789 17.7546 16.6399 17.8487L22.3087 18.6587C22.434 19.3612 22.7572 20.0133 23.2402 20.5385C23.7232 21.0636 24.346 21.4401 25.0355 21.6237C25.725 21.8073 26.4525 21.7904 27.1328 21.5749C27.813 21.3595 28.4176 20.9544 28.8757 20.4073C29.3337 19.8603 29.6262 19.1938 29.7187 18.4863C29.8112 17.7788 29.7 17.0596 29.3981 16.4131C29.0961 15.7666 28.616 15.2197 28.0141 14.8366C27.4122 14.4534 26.7135 14.2499 25.9999 14.25ZM7.74994 7C7.74994 6.55499 7.8819 6.11997 8.12913 5.74996C8.37637 5.37995 8.72777 5.09157 9.1389 4.92127C9.55004 4.75097 10.0024 4.70641 10.4389 4.79323C10.8754 4.88005 11.2763 5.09434 11.5909 5.40901C11.9056 5.72368 12.1199 6.12459 12.2067 6.56104C12.2935 6.9975 12.249 7.4499 12.0787 7.86103C11.9084 8.27217 11.62 8.62357 11.25 8.8708C10.88 9.11804 10.4449 9.25 9.99994 9.25C9.4032 9.25 8.83091 9.01294 8.40895 8.59099C7.98699 8.16903 7.74994 7.59673 7.74994 7ZM12.2499 25C12.2499 25.445 12.118 25.88 11.8707 26.25C11.6235 26.62 11.2721 26.9084 10.861 27.0787C10.4498 27.249 9.99745 27.2936 9.56099 27.2068C9.12453 27.1199 8.72362 26.9057 8.40895 26.591C8.09428 26.2763 7.87999 25.8754 7.79317 25.439C7.70636 25.0025 7.75092 24.5501 7.92121 24.139C8.09151 23.7278 8.3799 23.3764 8.74991 23.1292C9.11992 22.882 9.55493 22.75 9.99994 22.75C10.5967 22.75 11.169 22.9871 11.5909 23.409C12.0129 23.831 12.2499 24.4033 12.2499 25ZM25.9999 20.25C25.5549 20.25 25.1199 20.118 24.7499 19.8708C24.3799 19.6236 24.0915 19.2722 23.9212 18.861C23.7509 18.4499 23.7064 17.9975 23.7932 17.561C23.88 17.1246 24.0943 16.7237 24.409 16.409C24.7236 16.0943 25.1245 15.88 25.561 15.7932C25.9974 15.7064 26.4498 15.751 26.861 15.9213C27.2721 16.0916 27.6235 16.38 27.8707 16.75C28.118 17.12 28.2499 17.555 28.2499 18C28.2499 18.5967 28.0129 19.169 27.5909 19.591C27.169 20.0129 26.5967 20.25 25.9999 20.25Z" fill="white"/>
</svg>
