<svg width="32" height="32" viewBox="0 0 32 32" fill="none" xmlns="http://www.w3.org/2000/svg">
<path d="M16 3.25C13.4783 3.25 11.0132 3.99777 8.91648 5.39876C6.81976 6.79975 5.18556 8.79103 4.22054 11.1208C3.25552 13.4505 3.00303 16.0141 3.49499 18.4874C3.98696 20.9607 5.20127 23.2325 6.98439 25.0156C8.76751 26.7987 11.0393 28.0131 13.5126 28.505C15.9859 28.997 18.5495 28.7445 20.8792 27.7795C23.209 26.8144 25.2003 25.1802 26.6012 23.0835C28.0022 20.9868 28.75 18.5217 28.75 16C28.746 12.6197 27.4015 9.379 25.0112 6.98877C22.621 4.59854 19.3803 3.25397 16 3.25ZM27.225 15.25H21.7363C21.5438 10.1537 19.4263 6.72125 17.9325 4.91625C20.4132 5.35305 22.6762 6.60802 24.3604 8.48099C26.0447 10.354 27.0531 12.737 27.225 15.25ZM16 26.9788C15.2779 26.2421 14.641 25.4266 14.1013 24.5475C12.6657 22.1922 11.8615 19.5067 11.7663 16.75H20.2338C20.1385 19.5067 19.3343 22.1922 17.8988 24.5475C17.359 25.4266 16.7221 26.2421 16 26.9788ZM11.7663 15.25C11.8615 12.4933 12.6657 9.80778 14.1013 7.4525C14.641 6.57343 15.2779 5.75788 16 5.02125C16.7221 5.75788 17.359 6.57343 17.8988 7.4525C19.3343 9.80778 20.1385 12.4933 20.2338 15.25H11.7663ZM14.0675 4.91625C12.5675 6.72125 10.4563 10.1537 10.2638 15.25H4.77501C4.94687 12.737 5.95535 10.354 7.6396 8.48099C9.32384 6.60802 11.5868 5.35305 14.0675 4.91625ZM4.77501 16.75H10.2638C10.4563 21.8463 12.5738 25.2787 14.0675 27.0837C11.5868 26.647 9.32384 25.392 7.6396 23.519C5.95535 21.646 4.94687 19.263 4.77501 16.75ZM17.9325 27.0837C19.4263 25.2787 21.5438 21.8463 21.7363 16.75H27.225C27.0531 19.263 26.0447 21.646 24.3604 23.519C22.6762 25.392 20.4132 26.647 17.9325 27.0837Z" fill="white"/>
</svg>
