<svg width="32" height="32" viewBox="0 0 32 32" fill="none" xmlns="http://www.w3.org/2000/svg">
<path d="M17.0001 22.75C18.9285 22.75 20.8135 22.1782 22.4169 21.1068C24.0203 20.0355 25.27 18.5127 26.0079 16.7311C26.7459 14.9496 26.939 12.9892 26.5628 11.0979C26.1866 9.20654 25.258 7.46926 23.8944 6.1057C22.5308 4.74213 20.7936 3.81354 18.9022 3.43733C17.0109 3.06112 15.0505 3.25421 13.2689 3.99216C11.4874 4.73012 9.96463 5.9798 8.89328 7.58318C7.82194 9.18656 7.25011 11.0716 7.25011 13C7.25309 15.5849 8.28128 18.0632 10.1091 19.891C11.9369 21.7188 14.4152 22.747 17.0001 22.75ZM17.0001 4.74999C18.6318 4.74999 20.2269 5.23384 21.5836 6.14036C22.9403 7.04688 23.9977 8.33536 24.6221 9.84285C25.2465 11.3503 25.4099 13.0091 25.0916 14.6095C24.7733 16.2098 23.9875 17.6798 22.8337 18.8336C21.68 19.9874 20.21 20.7731 18.6096 21.0915C17.0093 21.4098 15.3505 21.2464 13.843 20.622C12.3355 19.9976 11.047 18.9401 10.1405 17.5834C9.23397 16.2267 8.75011 14.6317 8.75011 13C8.75276 10.8128 9.6228 8.71588 11.1694 7.16928C12.716 5.62268 14.8129 4.75263 17.0001 4.74999ZM26.5414 21.8612C26.679 22.0047 26.7541 22.1969 26.7501 22.3956C26.7462 22.5944 26.6634 22.7834 26.5201 22.9212C24.1513 25.2061 21.0368 26.5582 17.7501 26.7287V29.25H21.0001C21.199 29.25 21.3898 29.329 21.5304 29.4697C21.6711 29.6103 21.7501 29.8011 21.7501 30C21.7501 30.1989 21.6711 30.3897 21.5304 30.5303C21.3898 30.671 21.199 30.75 21.0001 30.75H13.0001C12.8012 30.75 12.6104 30.671 12.4698 30.5303C12.3291 30.3897 12.2501 30.1989 12.2501 30C12.2501 29.8011 12.3291 29.6103 12.4698 29.4697C12.6104 29.329 12.8012 29.25 13.0001 29.25H16.2501V26.7287C13.6224 26.5855 11.0909 25.6912 8.95633 24.1519C6.82175 22.6127 5.17373 20.4933 4.20794 18.0452C3.24215 15.5972 2.99917 12.9234 3.50784 10.3414C4.01651 7.75936 5.25548 5.37754 7.07761 3.47874C7.21553 3.33519 7.40481 3.2523 7.60384 3.24832C7.80286 3.24433 7.99531 3.31957 8.13886 3.45749C8.28241 3.5954 8.3653 3.78469 8.36928 3.98371C8.37327 4.18273 8.29803 4.37519 8.16011 4.51874C5.93879 6.83092 4.71255 9.92185 4.74462 13.128C4.77669 16.3342 6.06451 19.3999 8.33164 21.6672C10.5988 23.9345 13.6645 25.2226 16.8706 25.2549C20.0768 25.2872 23.1678 24.0611 25.4801 21.84C25.5512 21.7716 25.635 21.718 25.7268 21.682C25.8186 21.6461 25.9166 21.6286 26.0151 21.6306C26.1137 21.6326 26.2109 21.6539 26.3012 21.6935C26.3915 21.7331 26.4731 21.7901 26.5414 21.8612Z" fill="white"/>
</svg>
