<svg width="32" height="32" viewBox="0 0 32 32" fill="none" xmlns="http://www.w3.org/2000/svg">
<path d="M27.53 21.53L25.0613 24L27.53 26.47C27.6037 26.5387 27.6628 26.6215 27.7038 26.7135C27.7448 26.8055 27.7668 26.9048 27.7686 27.0055C27.7704 27.1062 27.7519 27.2062 27.7141 27.2996C27.6764 27.393 27.6203 27.4778 27.549 27.549C27.4778 27.6203 27.393 27.6764 27.2996 27.7141C27.2062 27.7519 27.1062 27.7704 27.0055 27.7686C26.9048 27.7668 26.8055 27.7448 26.7135 27.7038C26.6215 27.6628 26.5387 27.6037 26.47 27.53L24 25.0613L21.53 27.53C21.3878 27.6625 21.1998 27.7346 21.0055 27.7312C20.8112 27.7278 20.6258 27.649 20.4884 27.5116C20.351 27.3742 20.2723 27.1888 20.2688 26.9945C20.2654 26.8002 20.3375 26.6122 20.47 26.47L22.9388 24L20.47 21.53C20.3375 21.3878 20.2654 21.1998 20.2688 21.0055C20.2723 20.8112 20.351 20.6258 20.4884 20.4884C20.6258 20.351 20.8112 20.2723 21.0055 20.2688C21.1998 20.2654 21.3878 20.3375 21.53 20.47L24 22.9388L26.47 20.47C26.6122 20.3375 26.8002 20.2654 26.9945 20.2688C27.1888 20.2723 27.3742 20.351 27.5116 20.4884C27.649 20.6258 27.7278 20.8112 27.7312 21.0055C27.7346 21.1998 27.6625 21.3878 27.53 21.53ZM28.75 16C28.75 16.1989 28.671 16.3897 28.5303 16.5303C28.3897 16.671 28.1989 16.75 28 16.75H11.7663C11.8612 19.5063 12.6655 22.1915 14.1013 24.5463C15.27 26.435 16.4575 27.4063 16.47 27.415C16.5912 27.5122 16.6792 27.6447 16.7219 27.7941C16.7645 27.9435 16.7597 28.1025 16.7081 28.2491C16.6565 28.3956 16.5607 28.5225 16.4338 28.6123C16.307 28.702 16.1554 28.7501 16 28.75C13.4783 28.75 11.0132 28.0022 8.91648 26.6012C6.81976 25.2003 5.18556 23.209 4.22054 20.8792C3.25552 18.5495 3.00303 15.9859 3.49499 13.5126C3.98696 11.0393 5.20127 8.76751 6.98439 6.98439C8.76751 5.20127 11.0393 3.98696 13.5126 3.49499C15.9859 3.00303 18.5495 3.25552 20.8792 4.22054C23.209 5.18556 25.2003 6.81976 26.6012 8.91648C28.0022 11.0132 28.75 13.4783 28.75 16ZM17.9325 4.91626C19.4263 6.72126 21.5438 10.1538 21.7363 15.25H27.225C27.0531 12.737 26.0447 10.354 24.3604 8.48099C22.6762 6.60803 20.4132 5.35305 17.9325 4.91626ZM14.1013 7.45376C12.6655 9.80848 11.8612 12.4937 11.7663 15.25H20.2338C20.1388 12.4937 19.3345 9.80848 17.8988 7.45376C17.3598 6.57419 16.7228 5.75856 16 5.02251C15.2772 5.75856 14.6403 6.57419 14.1013 7.45376ZM4.77501 15.25H10.2638C10.4563 10.1538 12.5738 6.72126 14.0675 4.91626C11.5868 5.35305 9.32384 6.60803 7.6396 8.48099C5.95535 10.354 4.94687 12.737 4.77501 15.25ZM10.2638 16.75H4.77501C4.94687 19.263 5.95535 21.6461 7.6396 23.519C9.32384 25.392 11.5868 26.647 14.0675 27.0838C12.5738 25.2788 10.4563 21.8463 10.2638 16.75Z" fill="white"/>
</svg>
