<svg width="32" height="32" viewBox="0 0 32 32" fill="none" xmlns="http://www.w3.org/2000/svg">
<path d="M16 3.25C12.6185 3.25 9.37548 4.5933 6.98439 6.98439C4.5933 9.37548 3.25 12.6185 3.25 16C3.25 19.3815 4.5933 22.6245 6.98439 25.0156C9.37548 27.4067 12.6185 28.75 16 28.75C16.1551 28.7498 16.3063 28.7016 16.4328 28.6119C16.5593 28.5222 16.6549 28.3955 16.7065 28.2493C16.758 28.103 16.763 27.9444 16.7206 27.7952C16.6783 27.646 16.5907 27.5136 16.47 27.4163C16.4575 27.4075 15.27 26.4363 14.1012 24.5475C13.3726 23.3629 12.8067 22.0856 12.4187 20.75H16C16.1989 20.75 16.3897 20.671 16.5303 20.5303C16.671 20.3897 16.75 20.1989 16.75 20C16.75 19.8011 16.671 19.6103 16.5303 19.4697C16.3897 19.329 16.1989 19.25 16 19.25H12.0562C11.6479 17.1026 11.6479 14.8974 12.0562 12.75H19.9438C20.1487 13.8212 20.2513 14.9094 20.25 16C20.25 16.1989 20.329 16.3897 20.4697 16.5303C20.6103 16.671 20.8011 16.75 21 16.75C21.1989 16.75 21.3897 16.671 21.5303 16.5303C21.671 16.3897 21.75 16.1989 21.75 16C21.7515 14.9108 21.6599 13.8236 21.4762 12.75H26.7712C27.0895 13.804 27.2508 14.899 27.25 16C27.25 16.1989 27.329 16.3897 27.4697 16.5303C27.6103 16.671 27.8011 16.75 28 16.75C28.1989 16.75 28.3897 16.671 28.5303 16.5303C28.671 16.3897 28.75 16.1989 28.75 16C28.746 12.6197 27.4015 9.379 25.0112 6.98877C22.621 4.59854 19.3803 3.25397 16 3.25ZM14.0675 4.91625C12.5502 6.77022 11.4529 8.9311 10.8512 11.25H5.80375C6.57147 9.60835 7.72322 8.17572 9.16162 7.07326C10.6 5.97081 12.2827 5.23095 14.0675 4.91625ZM14.0675 27.0837C12.2827 26.7691 10.6 26.0292 9.16162 24.9267C7.72322 23.8243 6.57147 22.3916 5.80375 20.75H10.8512C11.4529 23.0689 12.5502 25.2298 14.0675 27.0837ZM10.5238 19.25H5.22875C4.59045 17.1303 4.59045 14.8697 5.22875 12.75H10.5238C10.1587 14.9013 10.1587 17.0987 10.5238 19.25ZM12.4187 11.25C12.8068 9.91485 13.3727 8.63798 14.1012 7.45375C14.6403 6.57418 15.2772 5.75856 16 5.0225C16.7228 5.75856 17.3597 6.57418 17.8988 7.45375C18.6273 8.63798 19.1932 9.91485 19.5812 11.25H12.4187ZM21.1488 11.25C20.5471 8.9311 19.4498 6.77022 17.9325 4.91625C19.7173 5.23095 21.4 5.97081 22.8384 7.07326C24.2768 8.17572 25.4285 9.60835 26.1963 11.25H21.1488ZM27.53 21.53L25.0613 24L27.53 26.47C27.6037 26.5387 27.6628 26.6215 27.7038 26.7135C27.7448 26.8055 27.7668 26.9048 27.7686 27.0055C27.7704 27.1062 27.7518 27.2062 27.7141 27.2996C27.6764 27.393 27.6203 27.4778 27.549 27.549C27.4778 27.6203 27.393 27.6764 27.2996 27.7141C27.2062 27.7518 27.1062 27.7704 27.0055 27.7686C26.9048 27.7668 26.8055 27.7448 26.7135 27.7038C26.6215 27.6628 26.5387 27.6037 26.47 27.53L24 25.0613L21.53 27.53C21.3878 27.6625 21.1998 27.7346 21.0055 27.7312C20.8112 27.7277 20.6258 27.649 20.4884 27.5116C20.351 27.3742 20.2723 27.1888 20.2688 26.9945C20.2654 26.8002 20.3375 26.6122 20.47 26.47L22.9387 24L20.47 21.53C20.3375 21.3878 20.2654 21.1998 20.2688 21.0055C20.2723 20.8112 20.351 20.6258 20.4884 20.4884C20.6258 20.351 20.8112 20.2723 21.0055 20.2688C21.1998 20.2654 21.3878 20.3375 21.53 20.47L24 22.9387L26.47 20.47C26.6122 20.3375 26.8002 20.2654 26.9945 20.2688C27.1888 20.2723 27.3742 20.351 27.5116 20.4884C27.649 20.6258 27.7277 20.8112 27.7312 21.0055C27.7346 21.1998 27.6625 21.3878 27.53 21.53Z" fill="white"/>
</svg>
