<svg width="32" height="32" viewBox="0 0 32 32" fill="none" xmlns="http://www.w3.org/2000/svg">
<path d="M21.75 12.5C21.75 12.7472 21.6767 12.9889 21.5393 13.1945C21.402 13.4 21.2068 13.5602 20.9784 13.6548C20.75 13.7495 20.4986 13.7742 20.2561 13.726C20.0137 13.6778 19.7909 13.5587 19.6161 13.3839C19.4413 13.2091 19.3223 12.9863 19.274 12.7439C19.2258 12.5014 19.2505 12.2501 19.3452 12.0216C19.4398 11.7932 19.6 11.598 19.8055 11.4607C20.0111 11.3233 20.2528 11.25 20.5 11.25C20.8315 11.25 21.1495 11.3817 21.3839 11.6161C21.6183 11.8505 21.75 12.1685 21.75 12.5ZM16.5 15.25C16.2528 15.25 16.0111 15.3233 15.8055 15.4607C15.6 15.598 15.4398 15.7932 15.3452 16.0216C15.2505 16.2501 15.2258 16.5014 15.274 16.7439C15.3223 16.9863 15.4413 17.2091 15.6161 17.3839C15.7909 17.5587 16.0137 17.6777 16.2561 17.726C16.4986 17.7742 16.75 17.7495 16.9784 17.6549C17.2068 17.5602 17.402 17.4 17.5393 17.1945C17.6767 16.9889 17.75 16.7472 17.75 16.5C17.75 16.1685 17.6183 15.8505 17.3839 15.6161C17.1495 15.3817 16.8315 15.25 16.5 15.25ZM26.75 12C26.75 14.1261 26.1195 16.2046 24.9383 17.9724C23.7571 19.7402 22.0782 21.1181 20.1139 21.9317C18.1495 22.7453 15.9881 22.9582 13.9028 22.5434C11.8175 22.1287 9.90202 21.1048 8.39861 19.6014C6.89519 18.098 5.87135 16.1825 5.45656 14.0972C5.04177 12.0119 5.25466 9.85046 6.0683 7.88615C6.88194 5.92185 8.2598 4.24293 10.0276 3.0617C11.7955 1.88048 13.8739 1.25 16 1.25C18.8501 1.25331 21.5825 2.38696 23.5977 4.40226C25.613 6.41756 26.7467 9.14994 26.75 12ZM25.25 12C25.25 10.1705 24.7075 8.38213 23.6911 6.86098C22.6747 5.33982 21.23 4.15423 19.5398 3.45411C17.8496 2.754 15.9897 2.57082 14.1954 2.92774C12.4011 3.28465 10.7529 4.16563 9.45927 5.45926C8.16563 6.7529 7.28465 8.40109 6.92774 10.1954C6.57083 11.9897 6.75401 13.8496 7.45412 15.5398C8.15423 17.23 9.33983 18.6747 10.861 19.6911C12.3821 20.7075 14.1705 21.25 16 21.25C18.4523 21.247 20.8034 20.2715 22.5375 18.5374C24.2715 16.8034 25.247 14.4523 25.25 12ZM20.7325 24.3C19.06 24.9387 17.5113 25.25 16 25.25C14.4888 25.25 12.94 24.9387 11.2675 24.3C11.1746 24.2601 11.0747 24.2393 10.9736 24.239C10.8725 24.2387 10.7724 24.2589 10.6793 24.2982C10.5862 24.3376 10.502 24.3953 10.4318 24.468C10.3616 24.5407 10.3068 24.6269 10.2707 24.7213C10.2346 24.8157 10.218 24.9165 10.2218 25.0175C10.2257 25.1185 10.2499 25.2177 10.293 25.3091C10.3362 25.4005 10.3973 25.4822 10.4728 25.5494C10.5484 25.6166 10.6367 25.6678 10.7325 25.7C12.1775 26.2695 13.7008 26.6156 15.25 26.7262V31C15.25 31.1989 15.329 31.3897 15.4697 31.5303C15.6103 31.671 15.8011 31.75 16 31.75C16.1989 31.75 16.3897 31.671 16.5303 31.5303C16.671 31.3897 16.75 31.1989 16.75 31V26.7262C18.2992 26.6156 19.8225 26.2695 21.2675 25.7C21.4454 25.6235 21.5868 25.4813 21.6621 25.303C21.7375 25.1246 21.741 24.9241 21.6719 24.7432C21.6028 24.5624 21.4664 24.4153 21.2914 24.3327C21.1163 24.2501 20.916 24.2384 20.7325 24.3Z" fill="white"/>
</svg>
