<svg width="32" height="32" viewBox="0 0 32 32" fill="none" xmlns="http://www.w3.org/2000/svg">
<path d="M29.4875 18.1025L20.9287 4.07251C20.7722 3.82011 20.5537 3.61201 20.294 3.46802C20.0342 3.32404 19.742 3.24899 19.445 3.25001H12.5537C12.2568 3.24911 11.9645 3.32421 11.7048 3.46818C11.4451 3.61215 11.2266 3.8202 11.07 4.07251V4.07876L2.51624 18.095C2.34859 18.3633 2.2568 18.672 2.25064 18.9883C2.24447 19.3046 2.32417 19.6166 2.48124 19.8913L5.89624 25.875C6.0501 26.1415 6.27152 26.3627 6.53817 26.5164C6.80481 26.67 7.10725 26.7506 7.41499 26.75H24.5837C24.8917 26.7508 25.1944 26.6703 25.4613 26.5167C25.7281 26.363 25.9498 26.1417 26.1037 25.875L29.5187 19.8975C29.6761 19.6234 29.7563 19.3117 29.7508 18.9957C29.7453 18.6796 29.6543 18.371 29.4875 18.1025ZM27.82 18.25H21.4237L16.875 10.6663L20.01 5.44251L27.82 18.25ZM12.32 18.25L16 12.125L19.675 18.25H12.32ZM20.57 19.75L23.875 25.25H8.12499L11.425 19.75H20.57ZM16 9.20876L13.325 4.75001H18.675L16 9.20876ZM11.9912 5.44251L15.125 10.6663L10.575 18.25H4.17874L11.9912 5.44251ZM4.12499 19.75H9.67499L6.83374 24.4863L4.12499 19.75ZM25.1625 24.4863L22.3237 19.75H27.875L25.1625 24.4863Z" fill="white"/>
</svg>
