<svg width="32" height="32" viewBox="0 0 32 32" fill="none" xmlns="http://www.w3.org/2000/svg">
<path d="M29.855 14.4912L8.87499 2.48625C8.60718 2.32985 8.30262 2.24744 7.99249 2.24744C7.68236 2.24744 7.3778 2.32985 7.10999 2.48625C6.84666 2.63709 6.62821 2.85529 6.47707 3.11846C6.32594 3.38163 6.24756 3.68028 6.24999 3.98375V28.0162C6.24895 28.3194 6.32851 28.6173 6.4805 28.8796C6.6325 29.1418 6.85147 29.359 7.11499 29.5087C7.3828 29.6651 7.68736 29.7476 7.99749 29.7476C8.30762 29.7476 8.61218 29.6651 8.87999 29.5087L29.855 17.5087C30.126 17.3609 30.3522 17.1427 30.5097 16.8772C30.6673 16.6118 30.7505 16.3087 30.7505 16C30.7505 15.6913 30.6673 15.3882 30.5097 15.1228C30.3522 14.8573 30.126 14.6391 29.855 14.4912ZM7.74999 27.1875V4.8125L18.9387 16L7.74999 27.1875ZM20 17.0625L22.7737 19.8362L9.79999 27.2587L20 17.0625ZM9.79999 4.74125L22.7737 12.1662L20 14.94L9.79999 4.74125ZM29.125 16.1975L29.1125 16.205L24.125 19.0612L21.0612 16L24.125 12.9387L29.1175 15.795L29.13 15.8025C29.1669 15.8206 29.198 15.8487 29.2198 15.8836C29.2415 15.9186 29.2531 15.9589 29.2531 16C29.2531 16.0411 29.2415 16.0814 29.2198 16.1164C29.198 16.1513 29.1669 16.1794 29.13 16.1975H29.125Z" fill="white"/>
</svg>
