<svg width="32" height="32" viewBox="0 0 32 32" fill="none" xmlns="http://www.w3.org/2000/svg">
<path d="M30 15.25H26.7213C26.5368 12.6664 25.4271 10.2359 23.5956 8.40443C21.7641 6.57291 19.3336 5.46316 16.75 5.27875V2C16.75 1.80109 16.671 1.61032 16.5303 1.46967C16.3897 1.32902 16.1989 1.25 16 1.25C15.8011 1.25 15.6103 1.32902 15.4697 1.46967C15.329 1.61032 15.25 1.80109 15.25 2V5.27875C12.6664 5.46316 10.2359 6.57291 8.40443 8.40443C6.57291 10.2359 5.46316 12.6664 5.27875 15.25H2C1.80109 15.25 1.61032 15.329 1.46967 15.4697C1.32902 15.6103 1.25 15.8011 1.25 16C1.25 16.1989 1.32902 16.3897 1.46967 16.5303C1.61032 16.671 1.80109 16.75 2 16.75H5.27875C5.46316 19.3336 6.57291 21.7641 8.40443 23.5956C10.2359 25.4271 12.6664 26.5368 15.25 26.7213V30C15.25 30.1989 15.329 30.3897 15.4697 30.5303C15.6103 30.671 15.8011 30.75 16 30.75C16.1989 30.75 16.3897 30.671 16.5303 30.5303C16.671 30.3897 16.75 30.1989 16.75 30V26.7213C19.3336 26.5368 21.7641 25.4271 23.5956 23.5956C25.4271 21.7641 26.5368 19.3336 26.7213 16.75H30C30.1989 16.75 30.3897 16.671 30.5303 16.5303C30.671 16.3897 30.75 16.1989 30.75 16C30.75 15.8011 30.671 15.6103 30.5303 15.4697C30.3897 15.329 30.1989 15.25 30 15.25ZM16 25.25C14.1705 25.25 12.3821 24.7075 10.861 23.6911C9.33982 22.6747 8.15422 21.23 7.45411 19.5398C6.754 17.8496 6.57082 15.9897 6.92774 14.1954C7.28465 12.4011 8.16563 10.7529 9.45926 9.45926C10.7529 8.16563 12.4011 7.28465 14.1954 6.92774C15.9897 6.57082 17.8496 6.754 19.5398 7.45411C21.23 8.15422 22.6747 9.33982 23.6911 10.861C24.7075 12.3821 25.25 14.1705 25.25 16C25.247 18.4523 24.2715 20.8034 22.5374 22.5374C20.8034 24.2715 18.4523 25.247 16 25.25ZM16 11.25C15.0605 11.25 14.1422 11.5286 13.361 12.0505C12.5799 12.5725 11.9711 13.3143 11.6116 14.1823C11.2521 15.0502 11.158 16.0053 11.3413 16.9267C11.5245 17.8481 11.9769 18.6945 12.6412 19.3588C13.3055 20.0231 14.1519 20.4755 15.0733 20.6587C15.9947 20.842 16.9498 20.7479 17.8177 20.3884C18.6857 20.0289 19.4275 19.4201 19.9495 18.639C20.4714 17.8578 20.75 16.9395 20.75 16C20.75 14.7402 20.2496 13.532 19.3588 12.6412C18.468 11.7504 17.2598 11.25 16 11.25ZM16 19.25C15.3572 19.25 14.7289 19.0594 14.1944 18.7023C13.6599 18.3452 13.2434 17.8376 12.9974 17.2437C12.7514 16.6499 12.687 15.9964 12.8124 15.366C12.9378 14.7355 13.2474 14.1564 13.7019 13.7019C14.1564 13.2474 14.7355 12.9378 15.366 12.8124C15.9964 12.687 16.6499 12.7514 17.2437 12.9974C17.8376 13.2434 18.3452 13.6599 18.7023 14.1944C19.0594 14.7289 19.25 15.3572 19.25 16C19.25 16.862 18.9076 17.6886 18.2981 18.2981C17.6886 18.9076 16.862 19.25 16 19.25Z" fill="white"/>
</svg>
