<svg width="32" height="32" viewBox="0 0 32 32" fill="none" xmlns="http://www.w3.org/2000/svg">
<path d="M30.75 16C30.75 16.1989 30.671 16.3897 30.5303 16.5303C30.3897 16.671 30.1989 16.75 30 16.75H26.7237C26.6386 18.0112 26.3296 19.2471 25.8113 20.4C25.7521 20.5322 25.656 20.6445 25.5344 20.7232C25.4128 20.802 25.2711 20.8438 25.1262 20.8438C25.0206 20.8438 24.9162 20.8212 24.82 20.7775C24.6389 20.6957 24.4977 20.5453 24.4274 20.3595C24.3571 20.1736 24.3634 19.9674 24.445 19.7862C25.18 18.1433 25.4201 16.3217 25.1359 14.5444C24.8516 12.7671 24.0554 11.1112 22.8446 9.7795C21.6338 8.44774 20.061 7.49788 18.3188 7.04618C16.5765 6.59448 14.7403 6.66053 13.035 7.23625C12.9417 7.26777 12.8431 7.2806 12.7448 7.274C12.6465 7.26741 12.5505 7.24152 12.4622 7.19782C12.3739 7.15412 12.2951 7.09346 12.2303 7.0193C12.1655 6.94514 12.1159 6.85895 12.0844 6.76562C12.0529 6.6723 12.04 6.57369 12.0466 6.47541C12.0532 6.37713 12.0791 6.28112 12.1228 6.19284C12.1665 6.10457 12.2272 6.02577 12.3013 5.96094C12.3755 5.89611 12.4617 5.84652 12.555 5.815C13.4265 5.52079 14.3323 5.34014 15.25 5.2775V2C15.25 1.80109 15.329 1.61032 15.4697 1.46967C15.6103 1.32902 15.8011 1.25 16 1.25C16.1989 1.25 16.3897 1.32902 16.5303 1.46967C16.671 1.61032 16.75 1.80109 16.75 2V5.27875C19.3336 5.46316 21.7641 6.57291 23.5956 8.40443C25.4271 10.2359 26.5368 12.6664 26.7213 15.25H30C30.1989 15.25 30.3897 15.329 30.5303 15.4697C30.671 15.6103 30.75 15.8011 30.75 16ZM26.555 26.5C26.6889 26.6472 26.7589 26.8416 26.7495 27.0404C26.7402 27.2391 26.6522 27.4261 26.505 27.56C26.3578 27.6939 26.1634 27.7639 25.9646 27.7545C25.7659 27.7452 25.5789 27.6572 25.445 27.51L22.6575 24.4425C20.9628 25.7798 18.9037 26.574 16.75 26.7213V30C16.75 30.1989 16.671 30.3897 16.5303 30.5303C16.3897 30.671 16.1989 30.75 16 30.75C15.8011 30.75 15.6103 30.671 15.4697 30.5303C15.329 30.3897 15.25 30.1989 15.25 30V26.7213C12.6664 26.5368 10.2359 25.4271 8.40443 23.5956C6.57291 21.7641 5.46316 19.3336 5.27875 16.75H2C1.80109 16.75 1.61032 16.671 1.46967 16.5303C1.32902 16.3897 1.25 16.1989 1.25 16C1.25 15.8011 1.32902 15.6103 1.46967 15.4697C1.61032 15.329 1.80109 15.25 2 15.25H5.2775C5.45501 12.7473 6.50006 10.3849 8.2325 8.57L5.445 5.5C5.33253 5.35019 5.28019 5.16371 5.29828 4.97726C5.31638 4.7908 5.40359 4.61787 5.54277 4.49248C5.68195 4.36709 5.86302 4.29833 6.05035 4.29972C6.23767 4.30111 6.4177 4.37256 6.555 4.5L26.555 26.5ZM21.6462 23.325L9.25 9.685C7.67678 11.384 6.79797 13.6112 6.78717 15.9266C6.77638 18.2421 7.63438 20.4774 9.19169 22.1909C10.749 23.9045 12.8923 24.9717 15.1983 25.1816C17.5042 25.3916 19.8051 24.7291 21.6462 23.325Z" fill="white"/>
</svg>
