<svg width="32" height="32" viewBox="0 0 32 32" fill="none" xmlns="http://www.w3.org/2000/svg">
<path d="M25 19.25C24.1054 19.2495 23.2405 19.5702 22.5625 20.1537L19.36 17.6625C19.6168 17.146 19.7503 16.5769 19.75 16C19.7497 15.8496 19.7405 15.6993 19.7225 15.55L21.75 14.875C22.2039 15.6635 22.9289 16.2601 23.7901 16.5536C24.6512 16.8472 25.5897 16.8176 26.4307 16.4705C27.2717 16.1234 27.9578 15.4823 28.3612 14.6668C28.7646 13.8513 28.8578 12.917 28.6233 12.0379C28.3889 11.1588 27.8429 10.395 27.087 9.8886C26.3311 9.38225 25.4169 9.16797 24.5148 9.28568C23.6126 9.40339 22.784 9.84507 22.1834 10.5284C21.5827 11.2118 21.251 12.0902 21.25 13C21.2502 13.1504 21.2594 13.3007 21.2775 13.45L19.25 14.125C18.8533 13.4339 18.2461 12.8876 17.5171 12.5658C16.7881 12.2441 15.9754 12.1636 15.1975 12.3362L14.18 10.0487C14.9364 9.50928 15.4657 8.7082 15.6652 7.80075C15.8647 6.8933 15.7202 5.9441 15.2597 5.13711C14.7993 4.33011 14.0556 3.72279 13.1729 3.43285C12.2902 3.1429 11.3312 3.19098 10.4819 3.56776C9.63265 3.94453 8.95347 4.62319 8.57603 5.47219C8.19858 6.32119 8.14976 7.28008 8.43901 8.16303C8.72827 9.04598 9.335 9.79011 10.1416 10.2512C10.9483 10.7123 11.8974 10.8575 12.805 10.6587L13.8225 12.9462C13.0622 13.4869 12.5315 14.2923 12.3344 15.2041C12.1374 16.116 12.2883 17.0686 12.7575 17.875L9.24996 21C8.50409 20.4416 7.57746 20.18 6.6497 20.266C5.72194 20.3519 4.85914 20.7793 4.22855 21.4652C3.59796 22.1511 3.24451 23.0468 3.2367 23.9785C3.2289 24.9102 3.5673 25.8116 4.18631 26.508C4.80532 27.2043 5.66085 27.6461 6.58703 27.7476C7.51322 27.8491 8.44411 27.6031 9.19923 27.0572C9.95435 26.5114 10.4799 25.7047 10.674 24.7934C10.8682 23.8821 10.7171 22.9312 10.25 22.125L13.75 19C14.4313 19.5121 15.2671 19.776 16.1189 19.748C16.9707 19.7201 17.7875 19.4019 18.4337 18.8462L21.6362 21.3375C21.2749 22.0681 21.1614 22.8966 21.313 23.6974C21.4646 24.4983 21.873 25.228 22.4763 25.776C23.0797 26.324 23.8452 26.6604 24.6569 26.7345C25.4686 26.8085 26.2824 26.6161 26.9749 26.1863C27.6675 25.7565 28.2012 25.1128 28.4951 24.3525C28.7891 23.5923 28.8274 22.757 28.6042 21.9731C28.381 21.1891 27.9085 20.4993 27.2581 20.0079C26.6078 19.5166 25.815 19.2505 25 19.25ZM25 10.75C25.445 10.75 25.88 10.882 26.25 11.1292C26.62 11.3764 26.9084 11.7278 27.0787 12.139C27.249 12.5501 27.2935 13.0025 27.2067 13.4389C27.1199 13.8754 26.9056 14.2763 26.591 14.591C26.2763 14.9057 25.8754 15.1199 25.4389 15.2068C25.0025 15.2936 24.5501 15.249 24.1389 15.0787C23.7278 14.9084 23.3764 14.62 23.1292 14.25C22.8819 13.88 22.75 13.445 22.75 13C22.75 12.4033 22.987 11.831 23.409 11.409C23.8309 10.987 24.4032 10.75 25 10.75ZM9.74996 6.99999C9.74996 6.55499 9.88192 6.11997 10.1292 5.74996C10.3764 5.37995 10.7278 5.09156 11.1389 4.92127C11.5501 4.75097 12.0025 4.70641 12.4389 4.79323C12.8754 4.88004 13.2763 5.09434 13.591 5.409C13.9056 5.72367 14.1199 6.12458 14.2067 6.56104C14.2935 6.9975 14.249 7.4499 14.0787 7.86103C13.9084 8.27217 13.62 8.62357 13.25 8.8708C12.88 9.11804 12.445 9.25 12 9.25C11.4032 9.25 10.8309 9.01294 10.409 8.59099C9.98701 8.16903 9.74996 7.59673 9.74996 6.99999ZM6.99996 26.25C6.55495 26.25 6.11994 26.118 5.74993 25.8708C5.37992 25.6236 5.09153 25.2722 4.92123 24.861C4.75093 24.4499 4.70638 23.9975 4.79319 23.561C4.88001 23.1246 5.0943 22.7237 5.40897 22.409C5.72364 22.0943 6.12455 21.88 6.56101 21.7932C6.99746 21.7064 7.44986 21.751 7.861 21.9213C8.27213 22.0916 8.62353 22.38 8.87077 22.75C9.118 23.12 9.24996 23.555 9.24996 24C9.24996 24.5967 9.01291 25.169 8.59095 25.591C8.16899 26.0129 7.5967 26.25 6.99996 26.25ZM16 18.25C15.555 18.25 15.1199 18.118 14.7499 17.8708C14.3799 17.6236 14.0915 17.2722 13.9212 16.861C13.7509 16.4499 13.7064 15.9975 13.7932 15.561C13.88 15.1246 14.0943 14.7237 14.409 14.409C14.7236 14.0943 15.1245 13.88 15.561 13.7932C15.9975 13.7064 16.4499 13.751 16.861 13.9213C17.2721 14.0916 17.6235 14.38 17.8708 14.75C18.118 15.12 18.25 15.555 18.25 16C18.25 16.5967 18.0129 17.169 17.591 17.591C17.169 18.0129 16.5967 18.25 16 18.25ZM25 25.25C24.555 25.25 24.1199 25.118 23.7499 24.8708C23.3799 24.6236 23.0915 24.2722 22.9212 23.861C22.7509 23.4499 22.7064 22.9975 22.7932 22.561C22.88 22.1246 23.0943 21.7237 23.409 21.409C23.7236 21.0943 24.1246 20.88 24.561 20.7932C24.9975 20.7064 25.4499 20.751 25.861 20.9213C26.2721 21.0916 26.6235 21.38 26.8708 21.75C27.118 22.12 27.25 22.555 27.25 23C27.25 23.5967 27.0129 24.169 26.591 24.591C26.169 25.0129 25.5967 25.25 25 25.25Z" fill="white"/>
</svg>
