<svg width="32" height="32" viewBox="0 0 32 32" fill="none" xmlns="http://www.w3.org/2000/svg">
<path d="M27.7501 16C27.75 16.1419 27.7097 16.2809 27.6338 16.4008C27.5579 16.5208 27.4496 16.6167 27.3213 16.6775L8.32131 25.6775C8.23202 25.7224 8.13466 25.7489 8.03496 25.7556C7.93525 25.7623 7.83521 25.7491 7.74071 25.7166C7.64622 25.6841 7.55917 25.633 7.48468 25.5664C7.41018 25.4998 7.34976 25.419 7.30694 25.3287C7.26413 25.2384 7.23979 25.1404 7.23536 25.0406C7.23092 24.9408 7.24649 24.841 7.28113 24.7473C7.31577 24.6536 7.3688 24.5677 7.43709 24.4948C7.50539 24.4218 7.58757 24.3632 7.67881 24.3225L25.2501 16L7.67881 7.6775C7.58757 7.63675 7.50539 7.57818 7.43709 7.50523C7.3688 7.43228 7.31577 7.34641 7.28113 7.25268C7.24649 7.15895 7.23092 7.05924 7.23536 6.95941C7.23979 6.85958 7.26413 6.76164 7.30694 6.67134C7.34976 6.58105 7.41018 6.50022 7.48468 6.43361C7.55917 6.367 7.64622 6.31594 7.74071 6.28344C7.83521 6.25095 7.93525 6.23766 8.03496 6.24437C8.13466 6.25107 8.23202 6.27764 8.32131 6.3225L27.3213 15.3225C27.4496 15.3833 27.5579 15.4792 27.6338 15.5991C27.7097 15.7191 27.75 15.8581 27.7501 16Z" fill="white"/>
</svg>
