<svg width="32" height="32" viewBox="0 0 32 32" fill="none" xmlns="http://www.w3.org/2000/svg">
<path d="M6.74125 19.2962L23.83 13L6.74125 6.70375C6.5546 6.63496 6.40293 6.49484 6.31959 6.31422C6.23626 6.1336 6.22808 5.92727 6.29688 5.74062C6.36567 5.55397 6.50578 5.4023 6.6864 5.31896C6.86703 5.23563 7.07335 5.22746 7.26 5.29625L26.26 12.2962C26.4039 12.3493 26.5282 12.4452 26.6159 12.571C26.7037 12.6969 26.7507 12.8466 26.7507 13C26.7507 13.1534 26.7037 13.3031 26.6159 13.429C26.5282 13.5548 26.4039 13.6507 26.26 13.7037L7.26 20.7037C7.17669 20.7342 7.0887 20.7498 7 20.75C6.82397 20.7499 6.6536 20.6878 6.51871 20.5747C6.38382 20.4617 6.293 20.3047 6.26215 20.1314C6.23131 19.9581 6.2624 19.7795 6.34999 19.6268C6.43758 19.4741 6.57608 19.3571 6.74125 19.2962ZM26 24.25H7C6.80109 24.25 6.61032 24.329 6.46967 24.4697C6.32902 24.6103 6.25 24.8011 6.25 25C6.25 25.1989 6.32902 25.3897 6.46967 25.5303C6.61032 25.671 6.80109 25.75 7 25.75H26C26.1989 25.75 26.3897 25.671 26.5303 25.5303C26.671 25.3897 26.75 25.1989 26.75 25C26.75 24.8011 26.671 24.6103 26.5303 24.4697C26.3897 24.329 26.1989 24.25 26 24.25Z" fill="white"/>
</svg>
