<svg width="32" height="32" viewBox="0 0 32 32" fill="none" xmlns="http://www.w3.org/2000/svg">
<path d="M31.0299 5.96997L26.0299 0.969969C25.8877 0.837489 25.6997 0.765365 25.5054 0.768794C25.3111 0.772222 25.1257 0.850934 24.9883 0.988347C24.8509 1.12576 24.7722 1.31114 24.7687 1.50545C24.7653 1.69975 24.8374 1.88779 24.9699 2.02997L25.4399 2.49997L17.6124 10.3275C14.8174 8.80247 11.6612 8.87497 9.77116 10.77C9.28194 11.2565 8.89888 11.8392 8.64616 12.4812C8.54738 12.708 8.38502 12.9013 8.17871 13.0377C7.97241 13.1741 7.73099 13.2478 7.48366 13.25C5.72616 13.31 4.19991 13.9375 3.07116 15.0662C1.62491 16.5225 0.999914 18.625 1.33991 20.9737C1.66491 23.25 2.84741 25.5 4.67116 27.3287C6.49491 29.1575 8.74991 30.335 11.0262 30.66C11.4352 30.7191 11.8479 30.7492 12.2612 30.75C14.1099 30.75 15.7374 30.125 16.9299 28.9287C18.0549 27.8037 18.6862 26.275 18.7462 24.5162C18.7474 24.2674 18.8211 24.0243 18.9583 23.8168C19.0955 23.6092 19.2902 23.4461 19.5187 23.3475C20.1601 23.0966 20.7428 22.7157 21.2299 22.2287C23.1199 20.3387 23.1974 17.1825 21.6724 14.3875L29.4999 6.55997L29.9699 7.02997C30.1121 7.16245 30.3001 7.23457 30.4944 7.23114C30.6887 7.22772 30.8741 7.149 31.0115 7.01159C31.1489 6.87418 31.2277 6.68879 31.2311 6.49449C31.2345 6.30019 31.1624 6.11214 31.0299 5.96997ZM20.1699 21.1687C19.827 21.5102 19.4172 21.7771 18.9662 21.9525C18.4667 22.1589 18.0382 22.5065 17.7334 22.9528C17.4285 23.3991 17.2605 23.9246 17.2499 24.465C17.2037 25.84 16.7274 27.0137 15.8749 27.8675C14.7637 28.9787 13.1249 29.4437 11.2499 29.175C9.29366 28.8962 7.33866 27.8637 5.74241 26.2687C4.14616 24.6737 3.11741 22.7175 2.83616 20.7612C2.56741 18.8862 3.03241 17.2412 4.14366 16.13C4.99741 15.275 6.17491 14.7987 7.54616 14.755C8.08699 14.7442 8.61289 14.5757 9.05924 14.2701C9.5056 13.9646 9.85297 13.5353 10.0587 13.035C10.2344 12.5845 10.5012 12.1751 10.8424 11.8325C11.5649 11.0962 12.5712 10.75 13.6799 10.75C14.6592 10.7664 15.6226 11.0008 16.4999 11.4362L13.6749 14.265C12.9635 14.3267 12.2845 14.5902 11.7178 15.0246C11.151 15.459 10.7201 16.0461 10.4756 16.717C10.2311 17.388 10.1833 18.1147 10.3377 18.8119C10.4921 19.5091 10.8424 20.1477 11.3473 20.6526C11.8522 21.1575 12.4908 21.5078 13.188 21.6622C13.8852 21.8166 14.6119 21.7688 15.2828 21.5243C15.9538 21.2798 16.5409 20.8489 16.9753 20.2821C17.4097 19.7154 17.6732 19.0364 17.7349 18.325L20.5649 15.5C21.5787 17.6025 21.4999 19.835 20.1699 21.1687ZM18.8749 13.125C19.1995 13.4494 19.4991 13.7979 19.7712 14.1675L17.4374 16.5C17.0572 15.6341 16.3658 14.9426 15.4999 14.5625L17.8274 12.235C18.1987 12.5046 18.5489 12.8021 18.8749 13.125ZM13.9999 15.75C14.5967 15.75 15.1689 15.987 15.5909 16.409C16.0129 16.8309 16.2499 17.4032 16.2499 18C16.2499 18.445 16.118 18.88 15.8707 19.25C15.6235 19.62 15.2721 19.9084 14.861 20.0787C14.4498 20.249 13.9974 20.2936 13.561 20.2067C13.1245 20.1199 12.7236 19.9056 12.4089 19.591C12.0943 19.2763 11.88 18.8754 11.7931 18.4389C11.7063 18.0025 11.7509 17.5501 11.9212 17.1389C12.0915 16.7278 12.3799 16.3764 12.7499 16.1292C13.1199 15.8819 13.5549 15.75 13.9999 15.75ZM19.9299 12.07C19.6052 11.7462 19.2595 11.4443 18.8949 11.1662L21.9999 8.05997L23.9399 9.99997L20.8349 13.1037C20.5564 12.7395 20.2546 12.3937 19.9312 12.0687L19.9299 12.07ZM24.9987 8.94497L23.0612 6.99997L26.4999 3.55997L28.4399 5.49997L24.9987 8.94497ZM11.5312 24.4687C11.6049 24.5374 11.664 24.6202 11.7049 24.7122C11.7459 24.8042 11.768 24.9035 11.7698 25.0042C11.7715 25.1049 11.753 25.2049 11.7153 25.2983C11.6776 25.3917 11.6214 25.4765 11.5502 25.5478C11.479 25.619 11.3942 25.6751 11.3008 25.7128C11.2074 25.7506 11.1073 25.7691 11.0066 25.7673C10.9059 25.7655 10.8066 25.7435 10.7146 25.7025C10.6226 25.6615 10.5398 25.6024 10.4712 25.5287L6.47116 21.5287C6.33868 21.3865 6.26656 21.1985 6.26999 21.0042C6.27342 20.8099 6.35213 20.6245 6.48954 20.4871C6.62696 20.3497 6.81234 20.271 7.00664 20.2675C7.20094 20.2641 7.38899 20.3362 7.53116 20.4687L11.5312 24.4687Z" fill="white"/>
</svg>
