<svg width="32" height="32" viewBox="0 0 32 32" fill="none" xmlns="http://www.w3.org/2000/svg">
<path d="M24.75 11C24.75 10.2583 24.5301 9.5333 24.118 8.91661C23.706 8.29993 23.1203 7.81928 22.4351 7.53545C21.7498 7.25162 20.9958 7.17736 20.2684 7.32206C19.541 7.46675 18.8728 7.8239 18.3483 8.34835C17.8239 8.8728 17.4668 9.54098 17.3221 10.2684C17.1774 10.9958 17.2516 11.7498 17.5355 12.4351C17.8193 13.1203 18.2999 13.706 18.9166 14.118C19.5333 14.5301 20.2583 14.75 21 14.75C21.9946 14.75 22.9484 14.3549 23.6517 13.6517C24.3549 12.9484 24.75 11.9946 24.75 11ZM21 13.25C20.555 13.25 20.12 13.118 19.75 12.8708C19.38 12.6236 19.0916 12.2722 18.9213 11.861C18.751 11.4499 18.7064 10.9975 18.7932 10.561C18.8801 10.1246 19.0943 9.72368 19.409 9.40901C19.7237 9.09434 20.1246 8.88005 20.561 8.79323C20.9975 8.70642 21.4499 8.75097 21.861 8.92127C22.2722 9.09157 22.6236 9.37996 22.8708 9.74997C23.118 10.12 23.25 10.555 23.25 11C23.25 11.5967 23.0129 12.169 22.591 12.591C22.169 13.0129 21.5967 13.25 21 13.25ZM20.3563 26.75C20.6922 26.7498 21.021 26.653 21.3034 26.471C21.5858 26.289 21.8098 26.0296 21.9487 25.7237L25.9237 16.9813C27.1555 15.9664 28.0439 14.5959 28.4675 13.0572C28.8912 11.5184 28.8294 9.88643 28.2907 8.3841C27.752 6.88176 26.7626 5.58238 25.4577 4.66347C24.1528 3.74455 22.596 3.25092 21 3.25C20.9581 3.25016 20.9164 3.25351 20.875 3.26L3.7125 6.125C3.30447 6.19296 2.93371 6.40325 2.66598 6.71857C2.39826 7.03389 2.25088 7.43385 2.25 7.8475V14.1525C2.25088 14.5661 2.39826 14.9661 2.66598 15.2814C2.93371 15.5968 3.30447 15.807 3.7125 15.875L16.25 17.9688V25C16.25 25.4641 16.4344 25.9092 16.7626 26.2374C17.0908 26.5656 17.5359 26.75 18 26.75H18.25V27C18.25 28.2598 18.7504 29.468 19.6412 30.3588C20.532 31.2496 21.7402 31.75 23 31.75H25C25.1989 31.75 25.3897 31.671 25.5303 31.5303C25.671 31.3897 25.75 31.1989 25.75 31C25.75 30.8011 25.671 30.6103 25.5303 30.4697C25.3897 30.329 25.1989 30.25 25 30.25H23C22.138 30.25 21.3114 29.9076 20.7019 29.2981C20.0924 28.6886 19.75 27.862 19.75 27V26.75H20.3563ZM3.75 14.1525V7.8475C3.74918 7.78776 3.76979 7.7297 3.80808 7.68384C3.84637 7.63798 3.89982 7.60735 3.95875 7.5975L21.06 4.75C22.7176 4.75 24.3073 5.40848 25.4794 6.58058C26.6515 7.75269 27.31 9.3424 27.31 11C27.31 12.6576 26.6515 14.2473 25.4794 15.4194C24.3073 16.5915 22.7176 17.25 21.06 17.25L3.95875 14.4C3.90025 14.3902 3.84714 14.3599 3.8089 14.3146C3.77066 14.2693 3.74978 14.2118 3.75 14.1525ZM17.75 25V18.2188L20.875 18.74C20.9164 18.7465 20.9581 18.7498 21 18.75C21.9186 18.7506 22.83 18.5872 23.6912 18.2675L20.5837 25.1038C20.5638 25.1474 20.5318 25.1844 20.4915 25.2103C20.4511 25.2362 20.4042 25.25 20.3563 25.25H18C17.9337 25.25 17.8701 25.2237 17.8232 25.1768C17.7763 25.1299 17.75 25.0663 17.75 25Z" fill="white"/>
</svg>
