<svg width="32" height="32" viewBox="0 0 32 32" fill="none" xmlns="http://www.w3.org/2000/svg">
<path d="M6.00875 12.75H25.9913C26.2538 12.7516 26.5134 12.6941 26.7507 12.5818C26.988 12.4694 27.197 12.3051 27.3622 12.101C27.5274 11.897 27.6445 11.6583 27.7049 11.4028C27.7654 11.1473 27.7675 10.8815 27.7113 10.625C26.8063 6.35375 21.8813 3.25 16 3.25C10.1188 3.25 5.19375 6.35375 4.28875 10.625C4.23249 10.8815 4.23465 11.1473 4.29508 11.4028C4.35551 11.6583 4.47266 11.897 4.63784 12.101C4.80303 12.3051 5.01203 12.4694 5.24934 12.5818C5.48665 12.6941 5.7462 12.7516 6.00875 12.75ZM5.75875 10.94C6.5 7.41125 10.9063 4.75 16 4.75C21.0938 4.75 25.5 7.41125 26.25 10.94C26.2593 10.9774 26.2598 11.0165 26.2514 11.0542C26.2431 11.0918 26.2262 11.127 26.2019 11.157C26.1777 11.1871 26.1469 11.2111 26.1119 11.2272C26.0768 11.2433 26.0386 11.2511 26 11.25H6.00875C5.97021 11.2511 5.93192 11.2433 5.89689 11.2272C5.86185 11.2111 5.83103 11.1871 5.80682 11.157C5.78261 11.127 5.76567 11.0918 5.75733 11.0542C5.749 11.0165 5.74948 10.9774 5.75875 10.94ZM28.75 19.295L23.5125 21.1975L18.7788 19.3037C18.5998 19.2321 18.4002 19.2321 18.2213 19.3037L13.5 21.1925L8.77876 19.3037C8.60756 19.2352 8.4171 19.232 8.24375 19.295L2.74375 21.295C2.57792 21.3552 2.43862 21.4719 2.35032 21.6246C2.26203 21.7774 2.2304 21.9563 2.261 22.1301C2.2916 22.3038 2.38247 22.4612 2.51763 22.5746C2.65279 22.688 2.82359 22.7501 3 22.75C3.08737 22.7498 3.17404 22.7345 3.25625 22.705L5.25625 21.98V23C5.25625 24.2598 5.7567 25.468 6.6475 26.3588C7.5383 27.2496 8.74648 27.75 10.0063 27.75H22.0063C23.266 27.75 24.4742 27.2496 25.365 26.3588C26.2558 25.468 26.7563 24.2598 26.7563 23V21.6162L29.2625 20.705C29.4495 20.637 29.6018 20.4976 29.686 20.3173C29.7701 20.137 29.7792 19.9307 29.7113 19.7437C29.6433 19.5568 29.5038 19.4044 29.3236 19.3203C29.1433 19.2361 28.937 19.227 28.75 19.295ZM25.25 23C25.25 23.862 24.9076 24.6886 24.2981 25.2981C23.6886 25.9076 22.862 26.25 22 26.25H10C9.13805 26.25 8.3114 25.9076 7.70191 25.2981C7.09241 24.6886 6.75 23.862 6.75 23V21.435L8.4875 20.8025L13.2213 22.6963C13.4002 22.7679 13.5998 22.7679 13.7788 22.6963L18.5 20.8075L23.2213 22.6963C23.3924 22.7648 23.5829 22.768 23.7563 22.705L25.25 22.1612V23ZM2.25 16C2.25 15.8011 2.32902 15.6103 2.46967 15.4697C2.61033 15.329 2.80109 15.25 3 15.25H29C29.1989 15.25 29.3897 15.329 29.5303 15.4697C29.671 15.6103 29.75 15.8011 29.75 16C29.75 16.1989 29.671 16.3897 29.5303 16.5303C29.3897 16.671 29.1989 16.75 29 16.75H3C2.80109 16.75 2.61033 16.671 2.46967 16.5303C2.32902 16.3897 2.25 16.1989 2.25 16Z" fill="white"/>
</svg>
