<svg width="32" height="32" viewBox="0 0 32 32" fill="none" xmlns="http://www.w3.org/2000/svg">
<path d="M26.7501 17.5V22C26.7501 25.1413 25.7151 27.25 25.6701 27.335C25.6079 27.4596 25.5123 27.5643 25.394 27.6376C25.2757 27.7109 25.1393 27.7498 25.0001 27.75C24.8837 27.7503 24.7688 27.7229 24.6651 27.67C24.4889 27.581 24.3549 27.4261 24.2922 27.2389C24.2294 27.0516 24.2431 26.8473 24.3301 26.67C24.3389 26.6525 25.2514 24.7713 25.2514 22.005V17.5C25.2514 17.0359 25.067 16.5908 24.7388 16.2626C24.4106 15.9344 23.9655 15.75 23.5014 15.75C23.0372 15.75 22.5921 15.9344 22.2639 16.2626C21.9357 16.5908 21.7514 17.0359 21.7514 17.5V18C21.7514 18.1989 21.6723 18.3897 21.5317 18.5304C21.391 18.671 21.2003 18.75 21.0014 18.75C20.8024 18.75 20.6117 18.671 20.471 18.5304C20.3304 18.3897 20.2514 18.1989 20.2514 18V15.5C20.2514 15.0359 20.067 14.5908 19.7388 14.2626C19.4106 13.9344 18.9655 13.75 18.5014 13.75C18.0372 13.75 17.5921 13.9344 17.2639 14.2626C16.9357 14.5908 16.7514 15.0359 16.7514 15.5V17C16.7514 17.1989 16.6723 17.3897 16.5317 17.5304C16.391 17.671 16.2003 17.75 16.0014 17.75C15.8024 17.75 15.6117 17.671 15.471 17.5304C15.3304 17.3897 15.2514 17.1989 15.2514 17V8.50003C15.2514 8.0359 15.067 7.59078 14.7388 7.26259C14.4106 6.9344 13.9655 6.75003 13.5014 6.75003C13.0372 6.75003 12.5921 6.9344 12.2639 7.26259C11.9357 7.59078 11.7514 8.0359 11.7514 8.50003V22C11.7512 22.1629 11.698 22.3212 11.5999 22.4511C11.5018 22.5811 11.364 22.6756 11.2075 22.7203C11.0509 22.7651 10.8841 22.7576 10.7321 22.6992C10.5801 22.6407 10.4513 22.5344 10.3651 22.3963L8.03011 18.6463C8.02525 18.6396 8.02107 18.6325 8.01761 18.625C7.78555 18.2231 7.4033 17.9297 6.95497 17.8096C6.50665 17.6895 6.02895 17.7523 5.62698 17.9844C5.22502 18.2165 4.9317 18.5987 4.81156 19.047C4.69142 19.4954 4.7543 19.9731 4.98636 20.375L8.64761 26.625C8.73398 26.796 8.75166 26.9935 8.69703 27.1771C8.6424 27.3607 8.51959 27.5165 8.35379 27.6124C8.18799 27.7083 7.99177 27.7372 7.80538 27.693C7.61898 27.6489 7.45654 27.5351 7.35136 27.375L3.68636 21.125C3.25323 20.3791 3.13415 19.4917 3.35533 18.658C3.5765 17.8242 4.11981 17.1125 4.86573 16.6794C5.61166 16.2463 6.49909 16.1272 7.3328 16.3484C8.16652 16.5695 8.87823 17.1129 9.31136 17.8588L10.2501 19.375V8.50003C10.2501 7.63808 10.5925 6.81143 11.202 6.20193C11.8115 5.59244 12.6382 5.25003 13.5001 5.25003C14.3621 5.25003 15.1887 5.59244 15.7982 6.20193C16.4077 6.81143 16.7501 7.63808 16.7501 8.50003V12.7625C17.1917 12.48 17.6951 12.3085 18.2173 12.2627C18.7396 12.2169 19.2651 12.2981 19.7492 12.4993C20.2333 12.7006 20.6615 13.016 20.9973 13.4185C21.333 13.8211 21.5665 14.299 21.6776 14.8113C22.1662 14.4804 22.7356 14.2887 23.3248 14.2569C23.9141 14.2251 24.5008 14.3543 25.0222 14.6307C25.5436 14.907 25.9799 15.3201 26.2843 15.8256C26.5887 16.3311 26.7497 16.9099 26.7501 17.5ZM31.5301 6.47003L27.5301 2.47003C27.3879 2.33755 27.1999 2.26543 27.0056 2.26885C26.8113 2.27228 26.6259 2.35099 26.4885 2.48841C26.3511 2.62582 26.2724 2.81121 26.2689 3.00551C26.2655 3.19981 26.3376 3.38785 26.4701 3.53003L29.1889 6.25003H22.0001C21.8012 6.25003 21.6104 6.32905 21.4698 6.4697C21.3291 6.61035 21.2501 6.80112 21.2501 7.00003C21.2501 7.19894 21.3291 7.38971 21.4698 7.53036C21.6104 7.67101 21.8012 7.75003 22.0001 7.75003H29.1889L26.4701 10.47C26.3964 10.5387 26.3373 10.6215 26.2963 10.7135C26.2553 10.8055 26.2333 10.9048 26.2315 11.0055C26.2297 11.1062 26.2483 11.2062 26.286 11.2996C26.3237 11.393 26.3799 11.4778 26.4511 11.5491C26.5223 11.6203 26.6071 11.6764 26.7005 11.7142C26.7939 11.7519 26.8939 11.7704 26.9946 11.7686C27.0953 11.7668 27.1946 11.7448 27.2866 11.7038C27.3786 11.6628 27.4614 11.6037 27.5301 11.53L31.5301 7.53003C31.6706 7.3894 31.7494 7.19878 31.7494 7.00003C31.7494 6.80128 31.6706 6.61065 31.5301 6.47003Z" fill="white"/>
</svg>
