<svg width="32" height="32" viewBox="0 0 32 32" fill="none" xmlns="http://www.w3.org/2000/svg">
<path d="M24.5 11.25C23.8495 11.2494 23.2139 11.445 22.6762 11.8112C22.565 11.2991 22.3316 10.8215 21.9959 10.419C21.6602 10.0166 21.2322 9.70135 20.7483 9.50011C20.2644 9.29886 19.739 9.21762 19.2169 9.26331C18.6949 9.309 18.1916 9.48027 17.75 9.7625V5.5C17.75 4.63805 17.4076 3.8114 16.7981 3.2019C16.1886 2.59241 15.3619 2.25 14.5 2.25C13.638 2.25 12.8114 2.59241 12.2019 3.2019C11.5924 3.8114 11.25 4.63805 11.25 5.5V16.375L10.3087 14.8625C9.87661 14.1166 9.16585 13.5729 8.33284 13.351C7.49983 13.1291 6.61279 13.2472 5.86687 13.6794C5.12095 14.1115 4.57724 14.8223 4.35537 15.6553C4.13349 16.4883 4.25161 17.3753 4.68375 18.1213L5.2675 19.1525C9.5175 26.6525 11.2762 29.7488 17 29.7488C19.8501 29.7454 22.5824 28.6118 24.5977 26.5965C26.613 24.5812 27.7467 21.8488 27.75 18.9988V14.5C27.75 13.638 27.4076 12.8114 26.7981 12.2019C26.1886 11.5924 25.3619 11.25 24.5 11.25ZM26.25 19C26.247 21.4523 25.2715 23.8034 23.5374 25.5374C21.8034 27.2715 19.4523 28.247 17 28.25C12.15 28.25 10.75 25.7712 6.5725 18.4137L5.98625 17.375C5.7542 16.9733 5.69114 16.4959 5.81092 16.0478C5.93069 15.5996 6.2235 15.2174 6.625 14.985C6.89068 14.8305 7.19266 14.7494 7.5 14.75C7.80773 14.7494 8.11017 14.83 8.37681 14.9837C8.64346 15.1373 8.86488 15.3585 9.01875 15.625L9.03125 15.6462L11.3662 19.3962C11.4529 19.5332 11.5816 19.6384 11.7331 19.6961C11.8846 19.7538 12.0507 19.7608 12.2065 19.7162C12.3623 19.6716 12.4995 19.5777 12.5975 19.4486C12.6954 19.3195 12.749 19.1621 12.75 19V5.5C12.75 5.03587 12.9344 4.59075 13.2626 4.26256C13.5907 3.93437 14.0359 3.75 14.5 3.75C14.9641 3.75 15.4092 3.93437 15.7374 4.26256C16.0656 4.59075 16.25 5.03587 16.25 5.5V14C16.25 14.1989 16.329 14.3897 16.4697 14.5303C16.6103 14.671 16.8011 14.75 17 14.75C17.1989 14.75 17.3897 14.671 17.5303 14.5303C17.671 14.3897 17.75 14.1989 17.75 14V12.5C17.75 12.0359 17.9344 11.5908 18.2626 11.2626C18.5907 10.9344 19.0359 10.75 19.5 10.75C19.9641 10.75 20.4092 10.9344 20.7374 11.2626C21.0656 11.5908 21.25 12.0359 21.25 12.5V15C21.25 15.1989 21.329 15.3897 21.4697 15.5303C21.6103 15.671 21.8011 15.75 22 15.75C22.1989 15.75 22.3897 15.671 22.5303 15.5303C22.671 15.3897 22.75 15.1989 22.75 15V14.5C22.75 14.0359 22.9344 13.5908 23.2626 13.2626C23.5907 12.9344 24.0359 12.75 24.5 12.75C24.9641 12.75 25.4092 12.9344 25.7374 13.2626C26.0656 13.5908 26.25 14.0359 26.25 14.5V19Z" fill="white"/>
</svg>
