<svg width="32" height="32" viewBox="0 0 32 32" fill="none" xmlns="http://www.w3.org/2000/svg">
<path d="M17.25 21C17.25 21.2472 17.1767 21.4889 17.0393 21.6944C16.902 21.9 16.7068 22.0602 16.4784 22.1548C16.2499 22.2494 15.9986 22.2742 15.7561 22.2259C15.5137 22.1777 15.2909 22.0587 15.1161 21.8838C14.9413 21.709 14.8222 21.4863 14.774 21.2438C14.7258 21.0013 14.7505 20.75 14.8452 20.5216C14.9398 20.2932 15.1 20.098 15.3055 19.9606C15.5111 19.8233 15.7528 19.75 16 19.75C16.3315 19.75 16.6495 19.8817 16.8839 20.1161C17.1183 20.3505 17.25 20.6684 17.25 21ZM26.75 14.5V19C26.75 21.851 25.6174 24.5853 23.6014 26.6014C21.5854 28.6174 18.8511 29.75 16 29.75C13.1489 29.75 10.4146 28.6174 8.3986 26.6014C6.38259 24.5853 5.25 21.851 5.25 19V9.49996C5.25042 8.91726 5.4075 8.34539 5.70478 7.84423C6.00207 7.34307 6.42862 6.93105 6.93979 6.65132C7.45095 6.37158 8.02792 6.23442 8.61028 6.2542C9.19265 6.27397 9.75899 6.44995 10.25 6.76371V5.49996C10.2499 4.69792 10.5464 3.92417 11.0824 3.32756C11.6185 2.73095 12.3562 2.35362 13.1537 2.26815C13.9511 2.18268 14.752 2.3951 15.4023 2.86457C16.0526 3.33403 16.5064 4.02737 16.6763 4.81121C17.1648 4.47997 17.7344 4.28805 18.3238 4.25605C18.9132 4.22405 19.5002 4.35318 20.0218 4.62958C20.5434 4.90598 20.9798 5.31921 21.2843 5.82491C21.5888 6.33061 21.7498 6.90968 21.75 7.49996V11.7637C22.241 11.45 22.8074 11.274 23.3897 11.2542C23.9721 11.2344 24.549 11.3716 25.0602 11.6513C25.5714 11.9311 25.9979 12.3431 26.2952 12.8442C26.5925 13.3454 26.7496 13.9173 26.75 14.5ZM25.25 14.5C25.25 14.0358 25.0656 13.5907 24.7374 13.2625C24.4092 12.9343 23.9641 12.75 23.5 12.75C23.0359 12.75 22.5908 12.9343 22.2626 13.2625C21.9344 13.5907 21.75 14.0358 21.75 14.5V15C21.75 15.1989 21.671 15.3896 21.5303 15.5303C21.3897 15.6709 21.1989 15.75 21 15.75C20.8011 15.75 20.6103 15.6709 20.4697 15.5303C20.329 15.3896 20.25 15.1989 20.25 15V7.49996C20.25 7.03583 20.0656 6.59071 19.7374 6.26252C19.4092 5.93434 18.9641 5.74996 18.5 5.74996C18.0359 5.74996 17.5908 5.93434 17.2626 6.26252C16.9344 6.59071 16.75 7.03583 16.75 7.49996V13C16.75 13.1989 16.671 13.3896 16.5303 13.5303C16.3897 13.6709 16.1989 13.75 16 13.75C15.8011 13.75 15.6103 13.6709 15.4697 13.5303C15.329 13.3896 15.25 13.1989 15.25 13V5.49996C15.25 5.03583 15.0656 4.59071 14.7374 4.26252C14.4092 3.93434 13.9641 3.74996 13.5 3.74996C13.0359 3.74996 12.5908 3.93434 12.2626 4.26252C11.9344 4.59071 11.75 5.03583 11.75 5.49996V14C11.75 14.1989 11.671 14.3896 11.5303 14.5303C11.3897 14.6709 11.1989 14.75 11 14.75C10.8011 14.75 10.6103 14.6709 10.4697 14.5303C10.329 14.3896 10.25 14.1989 10.25 14V9.49996C10.25 9.03583 10.0656 8.59071 9.73744 8.26252C9.40925 7.93434 8.96413 7.74996 8.5 7.74996C8.03587 7.74996 7.59075 7.93434 7.26256 8.26252C6.93437 8.59071 6.75 9.03583 6.75 9.49996V19C6.75 21.4532 7.72455 23.806 9.45926 25.5407C11.194 27.2754 13.5467 28.25 16 28.25C18.4533 28.25 20.806 27.2754 22.5407 25.5407C24.2754 23.806 25.25 21.4532 25.25 19V14.5ZM22.6712 20.665C22.7232 20.769 22.7502 20.8837 22.7502 21C22.7502 21.1162 22.7232 21.2309 22.6712 21.335C22.5812 21.515 20.4125 25.75 16 25.75C11.5875 25.75 9.41875 21.515 9.32875 21.335C9.27681 21.2309 9.24977 21.1162 9.24977 21C9.24977 20.8837 9.27681 20.769 9.32875 20.665C9.41875 20.485 11.5875 16.25 16 16.25C20.4125 16.25 22.5812 20.485 22.6712 20.665ZM21.135 21C20.5775 20.11 18.8337 17.75 16 17.75C13.1663 17.75 11.4187 20.1062 10.865 21C11.4225 21.8912 13.1663 24.25 16 24.25C18.8337 24.25 20.5813 21.8937 21.135 21Z" fill="white"/>
</svg>
