<svg width="32" height="32" viewBox="0 0 32 32" fill="none" xmlns="http://www.w3.org/2000/svg">
<path d="M31.5638 13.6L28.3751 7.21875C28.2724 7.01315 28.1302 6.82979 27.9567 6.67913C27.7832 6.52847 27.5816 6.41347 27.3637 6.34069C27.1457 6.26791 26.9155 6.23878 26.6862 6.25497C26.457 6.27115 26.2332 6.33232 26.0276 6.435L22.8326 8.0325L16.1913 6.275C16.0659 6.2425 15.9343 6.2425 15.8088 6.275L9.16759 8.0325L5.97384 6.435C5.76818 6.33213 5.54426 6.2708 5.31488 6.25452C5.0855 6.23823 4.85517 6.26732 4.63703 6.3401C4.4189 6.41289 4.21726 6.52796 4.04362 6.67872C3.86998 6.82948 3.72776 7.01299 3.62509 7.21875L0.436339 13.6C0.228883 14.0151 0.194775 14.4956 0.341515 14.9358C0.488255 15.376 0.803828 15.7399 1.21884 15.9475L4.61259 17.645L11.5638 22.61C11.6392 22.6643 11.724 22.7042 11.8138 22.7275L19.8138 24.7275C19.8748 24.7427 19.9373 24.7502 20.0001 24.75C20.1989 24.7498 20.3896 24.6707 20.5301 24.53L27.4438 17.6163L30.7813 15.9475C31.1964 15.7399 31.5119 15.376 31.6587 14.9358C31.8054 14.4956 31.7713 14.0151 31.5638 13.6ZM24.9388 17.995L20.4638 14.41C20.3195 14.2945 20.1376 14.2364 19.9531 14.2467C19.7685 14.2571 19.5943 14.3353 19.4638 14.4663C17.1326 16.815 14.5263 16.5188 12.8651 15.4563C12.8324 15.4361 12.8048 15.4087 12.7845 15.3762C12.7641 15.3437 12.7515 15.3069 12.7476 15.2688C12.7432 15.2337 12.7466 15.1982 12.7576 15.1647C12.7686 15.1312 12.787 15.1005 12.8113 15.075L18.3038 9.75H22.5363L26.0876 16.8525L24.9388 17.995ZM1.76384 14.4613C1.74317 14.3986 1.74811 14.3303 1.77759 14.2713L4.96759 7.88875C4.98855 7.84714 5.02073 7.81222 5.06049 7.78792C5.10024 7.76363 5.146 7.75093 5.19259 7.75125C5.2312 7.75129 5.26928 7.76028 5.30384 7.7775L8.08009 9.165L4.66509 16L1.88884 14.6125C1.85888 14.597 1.83236 14.5756 1.81088 14.5497C1.7894 14.5237 1.7734 14.4936 1.76384 14.4613ZM19.7701 23.17L12.3201 21.3075L5.95759 16.7625L9.60509 9.46875L16.0001 7.77625L17.8501 8.26625C17.7086 8.29376 17.5783 8.36197 17.4751 8.4625L11.7626 14.0063C11.5771 14.1916 11.4357 14.4163 11.3487 14.6637C11.2617 14.9111 11.2315 15.1748 11.2601 15.4355C11.2888 15.6961 11.3757 15.947 11.5144 16.1696C11.6531 16.3921 11.84 16.5807 12.0613 16.7213C14.5888 18.3363 17.6551 18.0325 20.0363 15.985L23.8751 19.0625L19.7701 23.17ZM30.2363 14.4613C30.2261 14.4924 30.2097 14.5213 30.1883 14.5462C30.1668 14.5711 30.1407 14.5915 30.1113 14.6063L27.3351 16L23.9201 9.165L26.6963 7.7775C26.7257 7.76274 26.7578 7.75392 26.7906 7.75156C26.8234 7.7492 26.8564 7.75334 26.8876 7.76375C26.9188 7.77404 26.9476 7.79037 26.9725 7.81182C26.9974 7.83327 27.0178 7.85941 27.0326 7.88875L30.2226 14.2713C30.2521 14.3303 30.257 14.3986 30.2363 14.4613ZM16.2363 27.1813C16.1882 27.3742 16.0654 27.5401 15.895 27.6425C15.7246 27.7449 15.5205 27.7755 15.3276 27.7275L10.1113 26.4238C10.0213 26.4007 9.9365 26.3609 9.86134 26.3063L6.56509 23.955C6.4849 23.8975 6.41681 23.8249 6.36472 23.7411C6.31262 23.6573 6.27753 23.5641 6.26145 23.4668C6.22899 23.2702 6.27593 23.0688 6.39196 22.9069C6.508 22.7449 6.68361 22.6357 6.88017 22.6032C6.9775 22.5872 7.07704 22.5904 7.17311 22.6128C7.26918 22.6352 7.3599 22.6763 7.44009 22.7338L10.6138 25L15.6901 26.2688C15.7859 26.2927 15.876 26.3353 15.9553 26.3942C16.0346 26.4531 16.1015 26.527 16.1521 26.6118C16.2028 26.6966 16.2362 26.7905 16.2504 26.8883C16.2646 26.986 16.2594 27.0855 16.2351 27.1813H16.2363Z" fill="white"/>
</svg>
