<svg width="32" height="32" viewBox="0 0 32 32" fill="none" xmlns="http://www.w3.org/2000/svg">
<path d="M28.75 24.8312V30C28.75 30.1989 28.671 30.3897 28.5303 30.5303C28.3897 30.671 28.1989 30.75 28 30.75C27.8011 30.75 27.6103 30.671 27.4697 30.5303C27.329 30.3897 27.25 30.1989 27.25 30V24.8312C27.2456 23.4186 26.9297 22.0244 26.3247 20.7479C25.7197 19.4714 24.8406 18.344 23.75 17.4463V25.2887C23.749 25.4495 23.6964 25.6056 23.6 25.7342C23.5036 25.8628 23.3684 25.957 23.2143 26.0029C23.0603 26.0489 22.8956 26.0441 22.7445 25.9893C22.5934 25.9346 22.4638 25.8327 22.375 25.6987L21.04 23.6612C21.0322 23.6496 21.0251 23.6375 21.0187 23.625C20.7888 23.2217 20.4081 22.9263 19.9604 22.8037C19.5127 22.6811 19.0345 22.7413 18.6313 22.9713C18.228 23.2012 17.9325 23.5819 17.8099 24.0296C17.6873 24.4773 17.7476 24.9555 17.9775 25.3587L20.75 29.5888C20.843 29.7542 20.8698 29.9488 20.825 30.1333C20.7801 30.3178 20.667 30.4784 20.5084 30.5827C20.3499 30.6871 20.1576 30.7274 19.9704 30.6956C19.7833 30.6638 19.6152 30.5622 19.5 30.4112L16.7175 26.1612C16.71 26.1487 16.7025 26.1375 16.6963 26.125C16.3072 25.3914 16.2137 24.5367 16.435 23.7363C16.6562 22.936 17.1755 22.2507 17.8861 21.8211C18.5967 21.3915 19.4448 21.2502 20.2563 21.4262C21.0678 21.6022 21.7812 22.0821 22.25 22.7675V8C22.25 7.9337 22.2237 7.87011 22.1768 7.82322C22.1299 7.77634 22.0663 7.75 22 7.75H20C19.8011 7.75 19.6103 7.67098 19.4697 7.53033C19.329 7.38968 19.25 7.19891 19.25 7C19.25 6.80109 19.329 6.61032 19.4697 6.46967C19.6103 6.32902 19.8011 6.25 20 6.25H22C22.4641 6.25 22.9092 6.43437 23.2374 6.76256C23.5656 7.09075 23.75 7.53587 23.75 8V15.5863C25.2817 16.5948 26.5399 17.9669 27.4124 19.5801C28.2848 21.1932 28.7444 22.9973 28.75 24.8312ZM10.75 7C10.75 6.80109 10.671 6.61032 10.5303 6.46967C10.3897 6.32902 10.1989 6.25 10 6.25H8C7.53587 6.25 7.09075 6.43437 6.76256 6.76256C6.43437 7.09075 6.25 7.53587 6.25 8V25C6.25 25.1989 6.32902 25.3897 6.46967 25.5303C6.61032 25.671 6.80109 25.75 7 25.75C7.19891 25.75 7.38968 25.671 7.53033 25.5303C7.67098 25.3897 7.75 25.1989 7.75 25V8C7.75 7.9337 7.77634 7.87011 7.82322 7.82322C7.87011 7.77634 7.9337 7.75 8 7.75H10C10.1989 7.75 10.3897 7.67098 10.5303 7.53033C10.671 7.38968 10.75 7.19891 10.75 7ZM19.53 12.47C19.3894 12.3295 19.1988 12.2507 19 12.2507C18.8012 12.2507 18.6106 12.3295 18.47 12.47L15.75 15.1888V2C15.75 1.80109 15.671 1.61032 15.5303 1.46967C15.3897 1.32902 15.1989 1.25 15 1.25C14.8011 1.25 14.6103 1.32902 14.4697 1.46967C14.329 1.61032 14.25 1.80109 14.25 2V15.1888L11.53 12.47C11.3878 12.3375 11.1998 12.2654 11.0055 12.2688C10.8112 12.2723 10.6258 12.351 10.4884 12.4884C10.351 12.6258 10.2723 12.8112 10.2688 13.0055C10.2654 13.1998 10.3375 13.3878 10.47 13.53L14.47 17.53C14.6106 17.6705 14.8012 17.7493 15 17.7493C15.1988 17.7493 15.3894 17.6705 15.53 17.53L19.53 13.53C19.6705 13.3894 19.7493 13.1988 19.7493 13C19.7493 12.8012 19.6705 12.6106 19.53 12.47Z" fill="white"/>
</svg>
