<svg width="32" height="32" viewBox="0 0 32 32" fill="none" xmlns="http://www.w3.org/2000/svg">
<path d="M23.5 6.24996C22.8794 6.24926 22.2717 6.42764 21.75 6.76371V5.49996C21.7501 4.69792 21.4536 3.92417 20.9175 3.32756C20.3815 2.73095 19.6438 2.35362 18.8463 2.26815C18.0489 2.18268 17.2479 2.3951 16.5977 2.86457C15.9474 3.33403 15.4936 4.02737 15.3237 4.81121C14.8352 4.47997 14.2656 4.28805 13.6762 4.25605C13.0868 4.22405 12.4998 4.35318 11.9782 4.62958C11.4566 4.90598 11.0202 5.31921 10.7157 5.82491C10.4112 6.33061 10.2502 6.90968 10.25 7.49996V16.375L9.30874 14.8625C8.87992 14.1147 8.17162 13.5679 7.33966 13.3424C6.50771 13.1169 5.62024 13.2311 4.87249 13.66C4.12475 14.0888 3.57798 14.7971 3.35246 15.629C3.12695 16.461 3.24117 17.3485 3.66999 18.0962C7.59499 26.375 9.81374 29.75 16 29.75C18.8501 29.7467 21.5824 28.613 23.5977 26.5977C25.613 24.5824 26.7467 21.85 26.75 19V9.49996C26.75 9.07317 26.6659 8.65055 26.5026 8.25624C26.3393 7.86193 26.0999 7.50365 25.7981 7.20186C25.4963 6.90007 25.138 6.66068 24.7437 6.49735C24.3494 6.33403 23.9268 6.24996 23.5 6.24996ZM25.25 19C25.247 21.4523 24.2715 23.8033 22.5374 25.5374C20.8034 27.2715 18.4523 28.247 16 28.25C13.375 28.25 11.6862 27.6187 10.1562 26.0687C8.47624 24.375 6.94249 21.5 5.01249 17.4287L4.98374 17.375C4.75168 16.973 4.6888 16.4953 4.80894 16.047C4.92908 15.5986 5.2224 15.2164 5.62437 14.9843C6.02634 14.7523 6.50403 14.6894 6.95236 14.8095C7.40069 14.9297 7.78293 15.223 8.01499 15.625L8.02749 15.6462L10.3625 19.3962C10.4485 19.5349 10.5773 19.6418 10.7295 19.7007C10.8818 19.7595 11.049 19.7671 11.2059 19.7223C11.3629 19.6775 11.5009 19.5827 11.5991 19.4523C11.6973 19.322 11.7502 19.1632 11.75 19V7.49996C11.75 7.03583 11.9344 6.59071 12.2626 6.26252C12.5907 5.93434 13.0359 5.74996 13.5 5.74996C13.9641 5.74996 14.4092 5.93434 14.7374 6.26252C15.0656 6.59071 15.25 7.03583 15.25 7.49996V15C15.25 15.1989 15.329 15.3896 15.4697 15.5303C15.6103 15.6709 15.8011 15.75 16 15.75C16.1989 15.75 16.3897 15.6709 16.5303 15.5303C16.671 15.3896 16.75 15.1989 16.75 15V5.49996C16.75 5.03583 16.9344 4.59071 17.2626 4.26252C17.5907 3.93434 18.0359 3.74996 18.5 3.74996C18.9641 3.74996 19.4092 3.93434 19.7374 4.26252C20.0656 4.59071 20.25 5.03583 20.25 5.49996V15C20.25 15.1989 20.329 15.3896 20.4697 15.5303C20.6103 15.6709 20.8011 15.75 21 15.75C21.1989 15.75 21.3897 15.6709 21.5303 15.5303C21.671 15.3896 21.75 15.1989 21.75 15V9.49996C21.75 9.03583 21.9344 8.59071 22.2626 8.26252C22.5907 7.93434 23.0359 7.74996 23.5 7.74996C23.9641 7.74996 24.4092 7.93434 24.7374 8.26252C25.0656 8.59071 25.25 9.03583 25.25 9.49996V19Z" fill="white"/>
</svg>
