<svg width="32" height="32" viewBox="0 0 32 32" fill="none" xmlns="http://www.w3.org/2000/svg">
<path d="M23.5 10.25C22.8494 10.2492 22.2138 10.4448 21.6763 10.8112C21.5467 10.216 21.2526 9.66918 20.8273 9.23309C20.402 8.79701 19.8627 8.48922 19.271 8.34483C18.6792 8.20044 18.0587 8.22526 17.4804 8.41646C16.9021 8.60766 16.3891 8.95755 16 9.42621C15.5731 8.91229 14.9982 8.54242 14.3536 8.36696C13.7089 8.19149 13.0259 8.21896 12.3974 8.44562C11.7689 8.67228 11.2256 9.08711 10.8413 9.63365C10.4571 10.1802 10.2506 10.8319 10.25 11.5V14.25H8.5C7.63805 14.25 6.8114 14.5924 6.2019 15.2019C5.59241 15.8114 5.25 16.638 5.25 17.5V19C5.25 21.851 6.38259 24.5853 8.3986 26.6014C10.4146 28.6174 13.1489 29.75 16 29.75C18.8511 29.75 21.5854 28.6174 23.6014 26.6014C25.6174 24.5853 26.75 21.851 26.75 19V13.5C26.75 13.0732 26.6659 12.6505 26.5026 12.2562C26.3393 11.8619 26.0999 11.5037 25.7981 11.2019C25.4963 10.9001 25.138 10.6607 24.7437 10.4974C24.3494 10.334 23.9268 10.25 23.5 10.25ZM25.25 19C25.25 21.4532 24.2754 23.806 22.5407 25.5407C20.806 27.2754 18.4533 28.25 16 28.25C13.5467 28.25 11.194 27.2754 9.45926 25.5407C7.72455 23.806 6.75 21.4532 6.75 19V17.5C6.75 17.0358 6.93437 16.5907 7.26256 16.2625C7.59075 15.9343 8.03587 15.75 8.5 15.75H10.25V19C10.25 19.1989 10.329 19.3896 10.4697 19.5303C10.6103 19.6709 10.8011 19.75 11 19.75C11.1989 19.75 11.3897 19.6709 11.5303 19.5303C11.671 19.3896 11.75 19.1989 11.75 19V11.5C11.75 11.0358 11.9344 10.5907 12.2626 10.2625C12.5908 9.93433 13.0359 9.74996 13.5 9.74996C13.9641 9.74996 14.4092 9.93433 14.7374 10.2625C15.0656 10.5907 15.25 11.0358 15.25 11.5V15C15.25 15.1989 15.329 15.3896 15.4697 15.5303C15.6103 15.6709 15.8011 15.75 16 15.75C16.1989 15.75 16.3897 15.6709 16.5303 15.5303C16.671 15.3896 16.75 15.1989 16.75 15V11.5C16.75 11.0358 16.9344 10.5907 17.2626 10.2625C17.5908 9.93433 18.0359 9.74996 18.5 9.74996C18.9641 9.74996 19.4092 9.93433 19.7374 10.2625C20.0656 10.5907 20.25 11.0358 20.25 11.5V15C20.25 15.1989 20.329 15.3896 20.4697 15.5303C20.6103 15.6709 20.8011 15.75 21 15.75C21.1989 15.75 21.3897 15.6709 21.5303 15.5303C21.671 15.3896 21.75 15.1989 21.75 15V13.5C21.75 13.0358 21.9344 12.5907 22.2626 12.2625C22.5908 11.9343 23.0359 11.75 23.5 11.75C23.9641 11.75 24.4092 11.9343 24.7374 12.2625C25.0656 12.5907 25.25 13.0358 25.25 13.5V19Z" fill="white"/>
</svg>
