<svg width="32" height="32" viewBox="0 0 32 32" fill="none" xmlns="http://www.w3.org/2000/svg">
<path d="M29.7375 24.795L27.9562 9.795C27.9042 9.36791 27.6973 8.97473 27.3748 8.68998C27.0523 8.40523 26.6365 8.24868 26.2062 8.25H21.75V8C21.75 6.47501 21.1442 5.01247 20.0658 3.93414C18.9875 2.8558 17.525 2.25 16 2.25C14.475 2.25 13.0124 2.8558 11.9341 3.93414C10.8558 5.01247 10.25 6.47501 10.25 8V8.25H5.79123C5.36098 8.24868 4.9452 8.40523 4.62266 8.68998C4.30013 8.97473 4.09325 9.36791 4.04123 9.795L2.25998 24.795C2.23091 25.0414 2.25457 25.2912 2.3294 25.5278C2.40423 25.7644 2.52852 25.9823 2.69401 26.1672C2.85951 26.3521 3.06243 26.4997 3.28931 26.6002C3.5162 26.7006 3.76185 26.7517 4.00998 26.75H27.99C28.2381 26.7517 28.4838 26.7006 28.7106 26.6002C28.9375 26.4997 29.1404 26.3521 29.3059 26.1672C29.4714 25.9823 29.5957 25.7644 29.6706 25.5278C29.7454 25.2912 29.7691 25.0414 29.74 24.795H29.7375ZM11.75 8C11.75 6.87283 12.1977 5.79183 12.9948 4.9948C13.7918 4.19777 14.8728 3.75 16 3.75C17.1271 3.75 18.2082 4.19777 19.0052 4.9948C19.8022 5.79183 20.25 6.87283 20.25 8V8.25H11.75V8ZM28.1875 25.1625C28.1628 25.1905 28.1324 25.2127 28.0983 25.2278C28.0642 25.2429 28.0273 25.2505 27.99 25.25H4.00998C3.9727 25.2505 3.93575 25.2429 3.90166 25.2278C3.86757 25.2127 3.83715 25.1905 3.81248 25.1625C3.78906 25.1369 3.77146 25.1066 3.76089 25.0736C3.75032 25.0406 3.74702 25.0057 3.75123 24.9713L5.53373 9.97125C5.54092 9.90873 5.57143 9.85123 5.61916 9.81021C5.6669 9.7692 5.72834 9.7477 5.79123 9.75H10.25V13C10.25 13.1989 10.329 13.3897 10.4696 13.5303C10.6103 13.671 10.8011 13.75 11 13.75C11.1989 13.75 11.3897 13.671 11.5303 13.5303C11.671 13.3897 11.75 13.1989 11.75 13V9.75H20.25V13C20.25 13.1989 20.329 13.3897 20.4696 13.5303C20.6103 13.671 20.8011 13.75 21 13.75C21.1989 13.75 21.3897 13.671 21.5303 13.5303C21.671 13.3897 21.75 13.1989 21.75 13V9.75H26.2087C26.2716 9.7477 26.3331 9.7692 26.3808 9.81021C26.4285 9.85123 26.459 9.90873 26.4662 9.97125L28.2487 24.9713C28.2529 25.0057 28.2496 25.0406 28.2391 25.0736C28.2285 25.1066 28.2109 25.1369 28.1875 25.1625Z" fill="white"/>
</svg>
