<svg width="32" height="32" viewBox="0 0 32 32" fill="none" xmlns="http://www.w3.org/2000/svg">
<path d="M15.75 3.8112V16C15.75 16.1989 15.671 16.3896 15.5303 16.5303C15.3897 16.6709 15.1989 16.75 15 16.75C14.8011 16.75 14.6103 16.6709 14.4697 16.5303C14.329 16.3896 14.25 16.1989 14.25 16V3.8112L11.53 6.52995C11.3878 6.66243 11.1998 6.73455 11.0055 6.73113C10.8112 6.7277 10.6258 6.64899 10.4884 6.51157C10.351 6.37416 10.2723 6.18877 10.2688 5.99447C10.2654 5.80017 10.3375 5.61213 10.47 5.46995L14.47 1.46995C14.6106 1.3295 14.8012 1.25061 15 1.25061C15.1988 1.25061 15.3894 1.3295 15.53 1.46995L19.53 5.46995C19.6037 5.53861 19.6628 5.62141 19.7038 5.71341C19.7448 5.80541 19.7668 5.90473 19.7686 6.00543C19.7704 6.10613 19.7518 6.20616 19.7141 6.29955C19.6764 6.39294 19.6203 6.47777 19.549 6.54899C19.4778 6.62021 19.393 6.67635 19.2996 6.71407C19.2062 6.75179 19.1062 6.77032 19.0055 6.76854C18.9048 6.76677 18.8055 6.74472 18.7135 6.70373C18.6215 6.66274 18.5387 6.60364 18.47 6.52995L15.75 3.8112ZM23.75 15.5862V12C23.75 11.5358 23.5656 11.0907 23.2374 10.7625C22.9092 10.4343 22.4641 10.25 22 10.25H20C19.8011 10.25 19.6103 10.329 19.4697 10.4696C19.329 10.6103 19.25 10.801 19.25 11C19.25 11.1989 19.329 11.3896 19.4697 11.5303C19.6103 11.6709 19.8011 11.75 20 11.75H22C22.0663 11.75 22.1299 11.7763 22.1768 11.8232C22.2237 11.8701 22.25 11.9336 22.25 12V22.7675C21.7948 22.0506 21.0772 21.5404 20.2506 21.3459C19.424 21.1514 18.5542 21.2882 17.8272 21.7269C17.1001 22.1657 16.5737 22.8715 16.3605 23.6934C16.1472 24.5154 16.2642 25.3881 16.6863 26.125C16.6863 26.1375 16.7 26.1487 16.7075 26.1612L19.49 30.4112C19.6052 30.5621 19.7733 30.6637 19.9604 30.6955C20.1476 30.7274 20.3399 30.687 20.4984 30.5827C20.657 30.4783 20.7701 30.3177 20.815 30.1333C20.8598 29.9488 20.833 29.7542 20.74 29.5887L17.975 25.3587C17.8612 25.159 17.7878 24.9389 17.759 24.7108C17.7303 24.4827 17.7467 24.2513 17.8074 24.0296C17.93 23.5818 18.2255 23.2011 18.6287 22.9712C19.032 22.7413 19.5102 22.681 19.9579 22.8036C20.1796 22.8643 20.3872 22.9681 20.5688 23.109C20.7504 23.2499 20.9024 23.4253 21.0163 23.625C21.0226 23.6375 21.0297 23.6496 21.0375 23.6612L22.375 25.6987C22.4638 25.8326 22.5934 25.9345 22.7445 25.9893C22.8956 26.044 23.0603 26.0488 23.2143 26.0029C23.3684 25.9569 23.5036 25.8627 23.6 25.7342C23.6964 25.6056 23.749 25.4494 23.75 25.2887V17.4462C24.8406 18.344 25.7197 19.4713 26.3247 20.7478C26.9297 22.0243 27.2456 23.4186 27.25 24.8312V30C27.25 30.1989 27.329 30.3896 27.4697 30.5303C27.6103 30.6709 27.8011 30.75 28 30.75C28.1989 30.75 28.3897 30.6709 28.5303 30.5303C28.671 30.3896 28.75 30.1989 28.75 30V24.8312C28.7444 22.9972 28.2848 21.1932 27.4124 19.58C26.5399 17.9669 25.2817 16.5948 23.75 15.5862ZM10 10.25H8C7.53587 10.25 7.09075 10.4343 6.76256 10.7625C6.43437 11.0907 6.25 11.5358 6.25 12V25C6.25 25.1989 6.32902 25.3896 6.46967 25.5303C6.61032 25.6709 6.80109 25.75 7 25.75C7.19891 25.75 7.38968 25.6709 7.53033 25.5303C7.67098 25.3896 7.75 25.1989 7.75 25V12C7.75 11.9336 7.77634 11.8701 7.82322 11.8232C7.87011 11.7763 7.9337 11.75 8 11.75H10C10.1989 11.75 10.3897 11.6709 10.5303 11.5303C10.671 11.3896 10.75 11.1989 10.75 11C10.75 10.801 10.671 10.6103 10.5303 10.4696C10.3897 10.329 10.1989 10.25 10 10.25Z" fill="white"/>
</svg>
