<svg width="32" height="32" viewBox="0 0 32 32" fill="none" xmlns="http://www.w3.org/2000/svg">
<path d="M28.64 17.8312C28.2976 17.5675 27.8989 17.3865 27.475 17.3024C27.051 17.2182 26.6134 17.2332 26.1963 17.3462L20.5413 18.6462C20.7266 18.1544 20.79 17.6249 20.7258 17.1032C20.6616 16.5816 20.4719 16.0832 20.1729 15.651C19.8738 15.2187 19.4744 14.8654 19.0089 14.6214C18.5434 14.3774 18.0256 14.2499 17.5 14.25H11.2425C10.7499 14.2485 10.2618 14.3449 9.80673 14.5336C9.35162 14.7222 8.93848 14.9992 8.59125 15.3487L5.69 18.25H2C1.53587 18.25 1.09075 18.4343 0.762563 18.7625C0.434374 19.0907 0.25 19.5358 0.25 20V25C0.25 25.4641 0.434374 25.9092 0.762563 26.2374C1.09075 26.5656 1.53587 26.75 2 26.75H15C15.0615 26.75 15.1228 26.7424 15.1825 26.7275L23.1825 24.7275C23.2204 24.7174 23.2575 24.7049 23.2938 24.69L28.1462 22.625C28.1604 22.6197 28.1742 22.6134 28.1875 22.6062C28.6165 22.3919 28.984 22.072 29.2552 21.6765C29.5264 21.281 29.6925 20.8229 29.7377 20.3455C29.783 19.8681 29.706 19.387 29.5139 18.9475C29.3219 18.5081 29.0211 18.1248 28.64 17.8337V17.8312ZM1.75 25V20C1.75 19.9336 1.77634 19.8701 1.82322 19.8232C1.87011 19.7763 1.9337 19.75 2 19.75H5.25V25.25H2C1.9337 25.25 1.87011 25.2236 1.82322 25.1767C1.77634 25.1298 1.75 25.0663 1.75 25ZM27.535 21.25L22.76 23.2837L14.9075 25.25H6.75V19.3112L9.65125 16.4087C9.85974 16.1991 10.1077 16.033 10.3809 15.9199C10.654 15.8068 10.9469 15.7491 11.2425 15.75H17.5C17.9641 15.75 18.4092 15.9343 18.7374 16.2625C19.0656 16.5907 19.25 17.0358 19.25 17.5C19.25 17.9641 19.0656 18.4092 18.7374 18.7374C18.4092 19.0656 17.9641 19.25 17.5 19.25H14C13.8011 19.25 13.6103 19.329 13.4697 19.4696C13.329 19.6103 13.25 19.801 13.25 20C13.25 20.1989 13.329 20.3896 13.4697 20.5303C13.6103 20.6709 13.8011 20.75 14 20.75H18C18.0564 20.75 18.1125 20.7437 18.1675 20.7312L26.5425 18.805L26.5725 18.7975C26.8877 18.7115 27.2236 18.7451 27.5156 18.8917C27.8075 19.0383 28.0351 19.2876 28.1544 19.5917C28.2738 19.8959 28.2766 20.2334 28.1622 20.5395C28.0479 20.8455 27.8245 21.0986 27.535 21.25ZM19.47 7.52995C19.3295 7.38933 19.2507 7.1987 19.2507 6.99995C19.2507 6.8012 19.3295 6.61058 19.47 6.46995L23.47 2.46995C23.6106 2.3295 23.8012 2.25061 24 2.25061C24.1988 2.25061 24.3894 2.3295 24.53 2.46995L28.53 6.46995C28.6037 6.53861 28.6628 6.62141 28.7038 6.71341C28.7448 6.80541 28.7668 6.90473 28.7686 7.00543C28.7704 7.10613 28.7518 7.20616 28.7141 7.29955C28.6764 7.39294 28.6203 7.47777 28.549 7.54899C28.4778 7.62021 28.393 7.67635 28.2996 7.71407C28.2062 7.75179 28.1062 7.77032 28.0055 7.76854C27.9048 7.76677 27.8055 7.74472 27.7135 7.70373C27.6215 7.66274 27.5387 7.60364 27.47 7.52995L24.75 4.8112V13C24.75 13.1989 24.671 13.3896 24.5303 13.5303C24.3897 13.6709 24.1989 13.75 24 13.75C23.8011 13.75 23.6103 13.6709 23.4697 13.5303C23.329 13.3896 23.25 13.1989 23.25 13V4.8112L20.53 7.52995C20.3894 7.6704 20.1988 7.74929 20 7.74929C19.8012 7.74929 19.6106 7.6704 19.47 7.52995Z" fill="white"/>
</svg>
