<svg width="32" height="32" viewBox="0 0 32 32" fill="none" xmlns="http://www.w3.org/2000/svg">
<path d="M27.3049 12.625L25.1412 8.87505C24.8499 8.37057 24.4283 7.95366 23.9207 7.66796C23.413 7.38225 22.8378 7.23825 22.2554 7.25103C21.673 7.26381 21.1048 7.43289 20.6101 7.74059C20.1155 8.04828 19.7126 8.48328 19.4437 9.00005L17.0587 4.87505C16.7601 4.35909 16.3254 3.93519 15.8021 3.64972C15.2788 3.36425 14.6871 3.2282 14.0916 3.25646C13.4962 3.28473 12.92 3.47621 12.4261 3.80996C11.9322 4.14372 11.5395 4.60688 11.2912 5.1488C10.7252 4.61071 9.9843 4.29445 9.20418 4.25787C8.42406 4.2213 7.65686 4.46686 7.04297 4.94963C6.42908 5.43239 6.00956 6.12007 5.86118 6.88682C5.7128 7.65357 5.84548 8.44811 6.23494 9.12505L6.64619 9.83755C6.06336 9.81086 5.4841 9.94157 4.9692 10.2159C4.4543 10.4903 4.02276 10.8982 3.71986 11.3969C3.41696 11.8955 3.25388 12.4665 3.24774 13.0499C3.24159 13.6333 3.39261 14.2076 3.68494 14.7125L8.68744 23.375C9.38999 24.6001 10.3285 25.6737 11.4488 26.5337C12.569 27.3937 13.8487 28.0229 15.2137 28.385C16.1267 28.6317 17.068 28.7577 18.0137 28.76C19.8991 28.7568 21.7506 28.2577 23.3822 27.3129C25.0138 26.368 26.3683 25.0107 27.3096 23.377C28.2509 21.7434 28.746 19.8909 28.7452 18.0054C28.7444 16.12 28.2477 14.2679 27.3049 12.635V12.625ZM26.9299 20.395C26.456 22.1616 25.469 23.7481 24.0936 24.9538C22.7182 26.1595 21.0163 26.9305 19.2029 27.1691C17.3895 27.4078 15.546 27.1035 13.9055 26.2947C12.265 25.4859 10.9011 24.2088 9.98619 22.625L4.98619 13.96C4.75413 13.5581 4.69125 13.0804 4.81139 12.6321C4.93153 12.1837 5.22485 11.8015 5.62682 11.5694C6.02879 11.3374 6.50648 11.2745 6.95481 11.3946C7.40314 11.5148 7.78538 11.8081 8.01744 12.21L10.4199 16.375C10.5213 16.5434 10.6847 16.6653 10.875 16.7144C11.0654 16.7635 11.2673 16.736 11.4375 16.6377C11.6077 16.5394 11.7326 16.3782 11.7851 16.1888C11.8377 15.9995 11.8139 15.797 11.7187 15.625L7.53369 8.37505C7.30163 7.97308 7.23875 7.49539 7.35889 7.04706C7.47903 6.59873 7.77235 6.21649 8.17432 5.98442C8.37335 5.86951 8.59307 5.79494 8.82093 5.76494C9.04878 5.73495 9.28032 5.75013 9.50231 5.80962C9.95064 5.92976 10.3329 6.22308 10.5649 6.62505L14.4612 13.375C14.5271 13.4891 14.6218 13.5839 14.7359 13.6497C14.85 13.7155 14.9795 13.7501 15.1112 13.75C15.243 13.7504 15.3725 13.7154 15.4862 13.6488C15.5716 13.5996 15.6465 13.534 15.7065 13.4559C15.7666 13.3777 15.8106 13.2885 15.8361 13.1933C15.8617 13.0981 15.8682 12.9988 15.8553 12.9011C15.8425 12.8034 15.8105 12.7091 15.7612 12.6238L12.7287 7.37505C12.4966 6.97308 12.4337 6.49539 12.5539 6.04706C12.674 5.59873 12.9673 5.21649 13.3693 4.98442C13.7713 4.75236 14.249 4.68948 14.6973 4.80962C15.1456 4.92976 15.5279 5.22308 15.7599 5.62505L20.0349 13.0288C19.0482 13.9667 18.4262 15.2243 18.2798 16.5777C18.1333 17.9312 18.4717 19.2927 19.2349 20.42C19.3465 20.5848 19.5189 20.6985 19.7143 20.7361C19.9097 20.7738 20.1121 20.7322 20.2768 20.6207C20.4416 20.5091 20.5553 20.3367 20.5929 20.1413C20.6305 19.9459 20.589 19.7436 20.4774 19.5788C19.8656 18.6748 19.625 17.57 19.8056 16.4935C19.9862 15.4169 20.5741 14.4512 21.4474 13.7963C21.5942 13.6863 21.6956 13.5264 21.7325 13.3468C21.7693 13.1671 21.7391 12.9802 21.6474 12.8213L20.8112 11.375C20.6963 11.176 20.6217 10.9563 20.5917 10.7284C20.5617 10.5006 20.5769 10.269 20.6364 10.0471C20.6959 9.82507 20.7985 9.61697 20.9384 9.43464C21.0783 9.25231 21.2528 9.09933 21.4518 8.98442C21.6509 8.86951 21.8706 8.79494 22.0984 8.76494C22.3263 8.73495 22.5578 8.75013 22.7798 8.80962C23.0018 8.86911 23.2099 8.97174 23.3922 9.11165C23.5746 9.25156 23.7275 9.42601 23.8424 9.62505L26.0062 13.375C26.6163 14.4256 27.0121 15.5868 27.1707 16.7913C27.3292 17.9958 27.2474 19.2198 26.9299 20.3925V20.395ZM23.2724 4.02755C23.3245 3.83617 23.4503 3.67322 23.6223 3.57437C23.7942 3.47551 23.9983 3.44878 24.1899 3.50005C25.1128 3.74199 25.9783 4.16495 26.7362 4.74434C27.4942 5.32373 28.1294 6.048 28.6049 6.87505L28.6462 6.9463C28.6976 7.03166 28.7315 7.12641 28.7458 7.22501C28.7602 7.32362 28.7548 7.42409 28.7299 7.52057C28.705 7.61705 28.6611 7.7076 28.6008 7.78694C28.5405 7.86627 28.465 7.9328 28.3787 7.98263C28.2924 8.03245 28.1971 8.06459 28.0982 8.07716C27.9994 8.08972 27.899 8.08246 27.803 8.05581C27.707 8.02915 27.6173 7.98363 27.539 7.9219C27.4608 7.86017 27.3957 7.78348 27.3474 7.6963L27.3062 7.62505C26.9293 6.96896 26.4258 6.3943 25.825 5.93445C25.2242 5.47459 24.5379 5.1387 23.8062 4.9463C23.7107 4.92117 23.6212 4.87745 23.5426 4.81764C23.4641 4.75783 23.3981 4.6831 23.3486 4.59774C23.299 4.51239 23.2667 4.41808 23.2537 4.32023C23.2406 4.22238 23.247 4.12292 23.2724 4.02755ZM9.91494 29.4638C9.79186 29.6198 9.61189 29.7206 9.41455 29.7441C9.21722 29.7675 9.01864 29.7117 8.86244 29.5888C7.39259 28.4284 6.1576 26.9983 5.22369 25.375C5.12424 25.2027 5.09733 24.9978 5.14891 24.8056C5.20048 24.6134 5.3263 24.4495 5.49869 24.35C5.67108 24.2506 5.87592 24.2237 6.06815 24.2753C6.26037 24.3268 6.42424 24.4527 6.52369 24.625C7.36133 26.084 8.47045 27.3692 9.79119 28.4113C9.94703 28.5346 10.0476 28.7146 10.0708 28.9119C10.094 29.1093 10.0379 29.3078 9.91494 29.4638Z" fill="white"/>
</svg>
