<svg width="32" height="32" viewBox="0 0 32 32" fill="none" xmlns="http://www.w3.org/2000/svg">
<path d="M20.2762 3V1C20.2762 0.801088 20.3552 0.610322 20.4958 0.46967C20.6365 0.329018 20.8273 0.25 21.0262 0.25C21.2251 0.25 21.4158 0.329018 21.5565 0.46967C21.6971 0.610322 21.7762 0.801088 21.7762 1V3C21.7762 3.19891 21.6971 3.38968 21.5565 3.53033C21.4158 3.67098 21.2251 3.75 21.0262 3.75C20.8273 3.75 20.6365 3.67098 20.4958 3.53033C20.3552 3.38968 20.2762 3.19891 20.2762 3ZM24.6424 4.90625C24.7266 4.95779 24.8201 4.9922 24.9176 5.00753C25.0151 5.02286 25.1146 5.01879 25.2106 4.99557C25.3065 4.97234 25.3969 4.93041 25.4766 4.87219C25.5562 4.81396 25.6236 4.74058 25.6749 4.65625L26.6749 3.0175C26.7262 2.93329 26.7604 2.8398 26.7756 2.74237C26.7908 2.64494 26.7866 2.54547 26.7633 2.44966C26.74 2.35384 26.6981 2.26354 26.64 2.18392C26.5818 2.1043 26.5085 2.03692 26.4243 1.98563C26.3401 1.93433 26.2466 1.90012 26.1492 1.88495C26.0517 1.86978 25.9523 1.87396 25.8564 1.89723C25.7606 1.9205 25.6703 1.96242 25.5907 2.02059C25.5111 2.07876 25.4437 2.15204 25.3924 2.23625L24.3924 3.875C24.3411 3.95912 24.3068 4.05253 24.2916 4.14989C24.2764 4.24725 24.2805 4.34666 24.3037 4.44243C24.3269 4.53821 24.3688 4.62846 24.4269 4.70805C24.485 4.78763 24.5583 4.85498 24.6424 4.90625ZM30.2137 6.77C30.1835 6.67599 30.135 6.58888 30.0711 6.51365C30.0071 6.43842 29.9289 6.37655 29.841 6.33161C29.7531 6.28666 29.6572 6.25952 29.5587 6.25174C29.4603 6.24395 29.3613 6.25568 29.2674 6.28625L27.3924 6.8925C27.2214 6.94665 27.0755 7.06029 26.9811 7.21281C26.8867 7.36533 26.8501 7.54663 26.8779 7.72383C26.9057 7.90103 26.9961 8.06239 27.1327 8.17865C27.2693 8.2949 27.4431 8.35836 27.6224 8.3575C27.7006 8.35725 27.7782 8.34459 27.8524 8.32L29.7349 7.715C29.9236 7.65296 30.0799 7.51863 30.1697 7.34148C30.2594 7.16432 30.2752 6.95881 30.2137 6.77ZM26.9024 12.3225C27.9393 14.1274 28.3729 16.2161 28.1402 18.2845C27.9075 20.353 27.0206 22.2931 25.6087 23.8225C25.5637 24.0562 25.5137 24.29 25.4512 24.5225C24.9481 26.3857 23.9047 28.0582 22.4524 29.3291C21.0001 30.6001 19.204 31.4126 17.2906 31.6642C15.3772 31.9158 13.4321 31.5953 11.7006 30.743C9.96917 29.8907 8.5288 28.5448 7.56117 26.875L3.15242 19.25C2.88876 18.7933 2.75013 18.2753 2.75049 17.748C2.75085 17.2206 2.89018 16.7028 3.15446 16.2465C3.41873 15.7902 3.7986 15.4116 4.2558 15.1489C4.713 14.8861 5.23137 14.7486 5.75867 14.75L5.18242 13.75C4.91893 13.2936 4.7803 12.7759 4.78049 12.2489C4.78069 11.7219 4.91969 11.2043 5.18352 10.7481C5.44735 10.2919 5.82669 9.91325 6.28337 9.65026C6.74004 9.38727 7.25793 9.24922 7.78492 9.25L7.49992 8.75C7.14872 8.14043 7.02291 7.42682 7.14448 6.7339C7.26606 6.04098 7.62728 5.41282 8.16502 4.95922C8.70276 4.50562 9.38281 4.25543 10.0863 4.25237C10.7898 4.24931 11.472 4.49359 12.0137 4.9425C12.252 4.45162 12.6195 4.03489 13.0767 3.73698C13.5339 3.43907 14.0636 3.27122 14.6089 3.25144C15.1543 3.23166 15.6947 3.36068 16.1723 3.62468C16.6499 3.88867 17.0466 4.27769 17.3199 4.75L19.0562 7.75C19.319 7.29245 19.698 6.91233 20.1547 6.648C20.6114 6.38368 21.1297 6.24449 21.6574 6.24449C22.1851 6.24449 22.7035 6.38368 23.1602 6.648C23.6169 6.91233 23.9958 7.29245 24.2587 7.75L26.9024 12.3225ZM13.4162 7L16.7499 12.75C17.0134 12.2937 17.3924 11.9148 17.8488 11.6514C18.3053 11.3881 18.823 11.2497 19.3499 11.25L16.0187 5.5C15.8198 5.15489 15.4919 4.90293 15.1072 4.79955C14.7225 4.69617 14.3125 4.74984 13.9674 4.94875C13.6223 5.14766 13.3703 5.47552 13.267 5.86021C13.1636 6.24489 13.2173 6.65489 13.4162 7ZM8.79117 8L9.80117 9.75C10.0648 9.29329 10.4443 8.91416 10.9012 8.65082C11.3581 8.38747 11.8763 8.24922 12.4037 8.25L11.3962 6.5C11.2479 6.24242 11.0265 6.03467 10.76 5.90312C10.4936 5.77157 10.194 5.72215 9.89938 5.76112C9.60476 5.80009 9.32835 5.9257 9.10523 6.12201C8.88211 6.31832 8.72233 6.57649 8.64617 6.86375C8.59479 7.05365 8.58159 7.25186 8.60734 7.4469C8.63309 7.64194 8.69727 7.82993 8.79617 8H8.79117ZM23.1662 17.875L20.6374 13.5C20.4336 13.1831 20.1179 12.9545 19.7532 12.8598C19.3886 12.765 19.0016 12.8109 18.6692 12.9884C18.3368 13.1659 18.0835 13.462 17.9595 13.8179C17.8355 14.1737 17.8499 14.5631 17.9999 14.9087L19.5699 17.625C19.6694 17.7974 19.6963 18.0022 19.6447 18.1945C19.5931 18.3867 19.4673 18.5505 19.2949 18.65C19.1225 18.7495 18.9177 18.7764 18.7255 18.7248C18.5332 18.6732 18.3694 18.5474 18.2699 18.375L13.7062 10.5C13.5073 10.1549 13.1794 9.90293 12.7947 9.79955C12.41 9.69617 12 9.74984 11.6549 9.94875C11.3098 10.1477 11.0578 10.4755 10.9545 10.8602C10.8511 11.2449 10.9048 11.6549 11.1037 12L14.3537 17.625C14.4531 17.7974 14.48 18.0022 14.4285 18.1945C14.3769 18.3867 14.2511 18.5505 14.0787 18.65C13.9063 18.7495 13.7014 18.7764 13.5092 18.7248C13.317 18.6732 13.1531 18.5474 13.0537 18.375L9.08492 11.5C8.88601 11.1551 8.55821 10.9033 8.17364 10.8C7.78908 10.6967 7.37924 10.7505 7.03429 10.9494C6.68935 11.1483 6.43755 11.4761 6.33428 11.8606C6.23102 12.2452 6.28476 12.6551 6.48367 13L10.8874 20.625C10.9869 20.7976 11.0137 21.0026 10.962 21.1949C10.9103 21.3872 10.7843 21.5512 10.6118 21.6506C10.4392 21.7501 10.2342 21.7769 10.0419 21.7252C9.84956 21.6735 9.68563 21.5476 9.58617 21.375L7.05492 17C6.95643 16.8292 6.82526 16.6795 6.6689 16.5594C6.51255 16.4393 6.33406 16.3511 6.14364 16.3C5.95323 16.2489 5.7546 16.2357 5.55911 16.2614C5.36362 16.287 5.17509 16.3509 5.00429 16.4494C4.83349 16.5479 4.68376 16.679 4.56366 16.8354C4.44355 16.9917 4.35541 17.1702 4.30428 17.3606C4.25315 17.5511 4.24003 17.7497 4.26566 17.9452C4.29129 18.1407 4.35518 18.3292 4.45367 18.5L8.86242 26.125C9.68022 27.539 10.8986 28.679 12.3638 29.4012C13.829 30.1233 15.4753 30.3951 17.0949 30.1823C18.7144 29.9695 20.2346 29.2817 21.4636 28.2056C22.6925 27.1296 23.5751 25.7135 23.9999 24.1362C24.2836 23.0899 24.3567 21.9977 24.2151 20.9229C24.0735 19.8481 23.7199 18.8121 23.1749 17.875H23.1662ZM25.5924 13.0725L22.9574 8.5C22.8589 8.32897 22.7276 8.17907 22.571 8.05888C22.4145 7.9387 22.2357 7.85059 22.0451 7.79961C21.8544 7.74863 21.6555 7.73579 21.4599 7.76181C21.2642 7.78783 21.0756 7.85221 20.9049 7.95125C20.7341 8.04945 20.5843 8.18036 20.464 8.33648C20.3438 8.49261 20.2555 8.67089 20.2042 8.86115C20.1529 9.05141 20.1396 9.24992 20.165 9.44532C20.1904 9.64073 20.2541 9.82921 20.3524 10L24.4774 17.125C25.1784 18.3328 25.6108 19.6775 25.7449 21.0675C26.3979 19.8311 26.7271 18.4495 26.702 17.0515C26.6768 15.6535 26.2981 14.2846 25.6012 13.0725H25.5924Z" fill="white"/>
</svg>
