<svg width="32" height="32" viewBox="0 0 32 32" fill="none" xmlns="http://www.w3.org/2000/svg">
<path d="M23.5 11.25C22.8794 11.2493 22.2717 11.4276 21.75 11.7637V7.49996C21.7498 6.90968 21.5888 6.33061 21.2843 5.82491C20.9798 5.31921 20.5434 4.90598 20.0218 4.62958C19.5002 4.35318 18.9132 4.22405 18.3238 4.25605C17.7344 4.28805 17.1648 4.47997 16.6763 4.81121C16.5064 4.02737 16.0526 3.33403 15.4023 2.86457C14.752 2.3951 13.9511 2.18268 13.1537 2.26815C12.3562 2.35362 11.6185 2.73095 11.0824 3.32756C10.5464 3.92417 10.2499 4.69792 10.25 5.49996V6.76371C9.75899 6.44995 9.19265 6.27397 8.61028 6.2542C8.02792 6.23442 7.45095 6.37158 6.93979 6.65132C6.42862 6.93105 6.00207 7.34307 5.70478 7.84423C5.4075 8.34539 5.25042 8.91726 5.25 9.49996V19C5.25 21.851 6.38259 24.5853 8.3986 26.6014C10.4146 28.6174 13.1489 29.75 16 29.75C18.8511 29.75 21.5854 28.6174 23.6014 26.6014C25.6174 24.5853 26.75 21.851 26.75 19V14.5C26.75 14.0732 26.6659 13.6505 26.5026 13.2562C26.3393 12.8619 26.0999 12.5037 25.7981 12.2019C25.4963 11.9001 25.138 11.6607 24.7437 11.4974C24.3494 11.334 23.9268 11.25 23.5 11.25ZM25.25 19C25.25 21.4532 24.2754 23.806 22.5407 25.5407C20.806 27.2754 18.4533 28.25 16 28.25C13.5467 28.25 11.194 27.2754 9.45926 25.5407C7.72455 23.806 6.75 21.4532 6.75 19V9.49996C6.75 9.03583 6.93437 8.59071 7.26256 8.26252C7.59075 7.93434 8.03587 7.74996 8.5 7.74996C8.96413 7.74996 9.40925 7.93434 9.73744 8.26252C10.0656 8.59071 10.25 9.03583 10.25 9.49996V15C10.25 15.1989 10.329 15.3896 10.4697 15.5303C10.6103 15.6709 10.8011 15.75 11 15.75C11.1989 15.75 11.3897 15.6709 11.5303 15.5303C11.671 15.3896 11.75 15.1989 11.75 15V5.49996C11.75 5.03583 11.9344 4.59071 12.2626 4.26252C12.5908 3.93434 13.0359 3.74996 13.5 3.74996C13.9641 3.74996 14.4092 3.93434 14.7374 4.26252C15.0656 4.59071 15.25 5.03583 15.25 5.49996V14C15.25 14.1989 15.329 14.3896 15.4697 14.5303C15.6103 14.6709 15.8011 14.75 16 14.75C16.1989 14.75 16.3897 14.6709 16.5303 14.5303C16.671 14.3896 16.75 14.1989 16.75 14V7.49996C16.75 7.03583 16.9344 6.59071 17.2626 6.26252C17.5908 5.93434 18.0359 5.74996 18.5 5.74996C18.9641 5.74996 19.4092 5.93434 19.7374 6.26252C20.0656 6.59071 20.25 7.03583 20.25 7.49996V16.2987C18.8675 16.4825 17.5987 17.1617 16.6791 18.2102C15.7596 19.2587 15.2518 20.6053 15.25 22C15.25 22.1989 15.329 22.3896 15.4697 22.5303C15.6103 22.6709 15.8011 22.75 16 22.75C16.1989 22.75 16.3897 22.6709 16.5303 22.5303C16.671 22.3896 16.75 22.1989 16.75 22C16.75 20.8728 17.1978 19.7918 17.9948 18.9948C18.7918 18.1977 19.8728 17.75 21 17.75C21.1989 17.75 21.3897 17.6709 21.5303 17.5303C21.671 17.3896 21.75 17.1989 21.75 17V14.5C21.75 14.0358 21.9344 13.5907 22.2626 13.2625C22.5908 12.9343 23.0359 12.75 23.5 12.75C23.9641 12.75 24.4092 12.9343 24.7374 13.2625C25.0656 13.5907 25.25 14.0358 25.25 14.5V19Z" fill="white"/>
</svg>
