<svg width="32" height="32" viewBox="0 0 32 32" fill="none" xmlns="http://www.w3.org/2000/svg">
<path d="M28.64 17.8312C28.2976 17.5675 27.8989 17.3865 27.475 17.3024C27.051 17.2183 26.6134 17.2333 26.1963 17.3463L20.5413 18.6462C20.7266 18.1544 20.79 17.625 20.7258 17.1033C20.6616 16.5816 20.4719 16.0833 20.1729 15.651C19.8738 15.2188 19.4744 14.8655 19.0089 14.6215C18.5434 14.3774 18.0256 14.25 17.5 14.25H11.2425C10.7499 14.2486 10.2618 14.345 9.80673 14.5336C9.35162 14.7222 8.93848 14.9993 8.59125 15.3488L5.69 18.25H2C1.53587 18.25 1.09075 18.4344 0.762563 18.7626C0.434374 19.0908 0.25 19.5359 0.25 20V25C0.25 25.4641 0.434374 25.9092 0.762563 26.2374C1.09075 26.5656 1.53587 26.75 2 26.75H15C15.0615 26.75 15.1228 26.7425 15.1825 26.7275L23.1825 24.7275C23.2204 24.7174 23.2575 24.7049 23.2938 24.69L28.1462 22.625L28.1875 22.6063C28.6165 22.392 28.984 22.072 29.2552 21.6765C29.5264 21.281 29.6925 20.823 29.7377 20.3455C29.783 19.8681 29.706 19.387 29.5139 18.9476C29.3219 18.5081 29.0211 18.1248 28.64 17.8337V17.8312ZM1.75 25V20C1.75 19.9337 1.77634 19.8701 1.82322 19.8232C1.87011 19.7763 1.9337 19.75 2 19.75H5.25V25.25H2C1.9337 25.25 1.87011 25.2237 1.82322 25.1768C1.77634 25.1299 1.75 25.0663 1.75 25ZM27.535 21.25L22.76 23.2838L14.9075 25.25H6.75V19.3113L9.65125 16.4088C9.85974 16.1992 10.1077 16.033 10.3809 15.92C10.654 15.8069 10.9469 15.7491 11.2425 15.75H17.5C17.9641 15.75 18.4092 15.9344 18.7374 16.2626C19.0656 16.5908 19.25 17.0359 19.25 17.5C19.25 17.9641 19.0656 18.4092 18.7374 18.7374C18.4092 19.0656 17.9641 19.25 17.5 19.25H14C13.8011 19.25 13.6103 19.329 13.4697 19.4697C13.329 19.6103 13.25 19.8011 13.25 20C13.25 20.1989 13.329 20.3897 13.4697 20.5303C13.6103 20.671 13.8011 20.75 14 20.75H18C18.0564 20.7501 18.1125 20.7438 18.1675 20.7313L26.5425 18.805L26.5725 18.7975C26.8877 18.7116 27.2236 18.7451 27.5156 18.8917C27.8075 19.0383 28.0351 19.2876 28.1544 19.5918C28.2738 19.8959 28.2766 20.2334 28.1622 20.5395C28.0479 20.8456 27.8245 21.0986 27.535 21.25ZM19.47 9.53C19.3375 9.38783 19.2654 9.19978 19.2688 9.00548C19.2723 8.81118 19.351 8.62579 19.4884 8.48838C19.6258 8.35097 19.8112 8.27225 20.0055 8.26882C20.1998 8.2654 20.3878 8.33752 20.53 8.47L23.25 11.1888V3C23.25 2.80109 23.329 2.61032 23.4697 2.46967C23.6103 2.32902 23.8011 2.25 24 2.25C24.1989 2.25 24.3897 2.32902 24.5303 2.46967C24.671 2.61032 24.75 2.80109 24.75 3V11.1888L27.47 8.47C27.6122 8.33752 27.8002 8.2654 27.9945 8.26882C28.1888 8.27225 28.3742 8.35097 28.5116 8.48838C28.649 8.62579 28.7277 8.81118 28.7312 9.00548C28.7346 9.19978 28.6625 9.38783 28.53 9.53L24.53 13.53C24.3894 13.6705 24.1988 13.7493 24 13.7493C23.8012 13.7493 23.6106 13.6705 23.47 13.53L19.47 9.53Z" fill="white"/>
</svg>
