<svg width="32" height="32" viewBox="0 0 32 32" fill="none" xmlns="http://www.w3.org/2000/svg">
<path d="M26.7501 17.5V22C26.7501 25.1413 25.7151 27.25 25.6701 27.335C25.628 27.4262 25.568 27.508 25.4937 27.5756C25.4194 27.6432 25.3323 27.6952 25.2375 27.7284C25.1428 27.7617 25.0423 27.7756 24.942 27.7693C24.8418 27.763 24.7438 27.7366 24.654 27.6917C24.5641 27.6468 24.4842 27.5843 24.4189 27.508C24.3537 27.4316 24.3044 27.3429 24.2741 27.2472C24.2438 27.1514 24.233 27.0505 24.2424 26.9505C24.2518 26.8505 24.2812 26.7534 24.3289 26.665C24.3376 26.6475 25.2501 24.7663 25.2501 22V17.5C25.2501 17.0359 25.0657 16.5908 24.7375 16.2626C24.4094 15.9344 23.9642 15.75 23.5001 15.75C23.036 15.75 22.5909 15.9344 22.2627 16.2626C21.9345 16.5908 21.7501 17.0359 21.7501 17.5V18C21.7501 18.1989 21.6711 18.3897 21.5304 18.5304C21.3898 18.671 21.199 18.75 21.0001 18.75C20.8012 18.75 20.6104 18.671 20.4698 18.5304C20.3291 18.3897 20.2501 18.1989 20.2501 18V15.5C20.2501 15.0359 20.0657 14.5908 19.7375 14.2626C19.4094 13.9344 18.9642 13.75 18.5001 13.75C18.036 13.75 17.5909 13.9344 17.2627 14.2626C16.9345 14.5908 16.7501 15.0359 16.7501 15.5V17C16.7501 17.1989 16.6711 17.3897 16.5304 17.5304C16.3898 17.671 16.199 17.75 16.0001 17.75C15.8012 17.75 15.6104 17.671 15.4698 17.5304C15.3291 17.3897 15.2501 17.1989 15.2501 17V8.50002C15.2501 8.03589 15.0657 7.59078 14.7375 7.26259C14.4094 6.9344 13.9642 6.75002 13.5001 6.75002C13.036 6.75002 12.5909 6.9344 12.2627 7.26259C11.9345 7.59078 11.7501 8.03589 11.7501 8.50002V22C11.7499 22.1628 11.6968 22.3212 11.5986 22.4511C11.5005 22.5811 11.3628 22.6755 11.2062 22.7203C11.0497 22.765 10.8828 22.7576 10.7309 22.6992C10.5789 22.6407 10.4501 22.5344 10.3639 22.3963L8.02886 18.6463C8.024 18.6396 8.01982 18.6325 8.01636 18.625C7.7843 18.2231 7.40205 17.9297 6.95372 17.8096C6.5054 17.6895 6.0277 17.7523 5.62573 17.9844C5.22377 18.2165 4.93045 18.5987 4.81031 19.047C4.69017 19.4954 4.75305 19.9731 4.98511 20.375L8.64636 26.625C8.73017 26.7956 8.74609 26.9916 8.6909 27.1735C8.63572 27.3554 8.51355 27.5095 8.34909 27.6048C8.18463 27.7 7.99014 27.7293 7.80493 27.6866C7.61972 27.644 7.45761 27.5326 7.35136 27.375L3.68636 21.125C3.25323 20.3791 3.13415 19.4917 3.35533 18.658C3.5765 17.8242 4.11981 17.1125 4.86573 16.6794C5.61166 16.2463 6.49909 16.1272 7.3328 16.3484C8.16652 16.5695 8.87823 17.1129 9.31136 17.8588L10.2501 19.375V8.50002C10.2501 7.63807 10.5925 6.81142 11.202 6.20193C11.8115 5.59243 12.6382 5.25002 13.5001 5.25002C14.3621 5.25002 15.1887 5.59243 15.7982 6.20193C16.4077 6.81142 16.7501 7.63807 16.7501 8.50002V12.7625C17.1917 12.48 17.6951 12.3085 18.2173 12.2627C18.7396 12.2169 19.2651 12.298 19.7492 12.4993C20.2333 12.7006 20.6615 13.016 20.9973 13.4185C21.333 13.8211 21.5665 14.2989 21.6776 14.8113C22.1662 14.4804 22.7356 14.2887 23.3248 14.2569C23.9141 14.2251 24.5008 14.3543 25.0222 14.6306C25.5436 14.907 25.9799 15.3201 26.2843 15.8256C26.5887 16.3311 26.7497 16.9099 26.7501 17.5ZM31.0001 6.25002H23.8101L26.5301 3.53002C26.6688 3.3889 26.7461 3.1987 26.7452 3.00085C26.7443 2.80299 26.6652 2.61351 26.5252 2.47369C26.3852 2.33387 26.1956 2.25502 25.9978 2.25434C25.7999 2.25365 25.6098 2.33118 25.4689 2.47002L21.4689 6.47002C21.3284 6.61065 21.2495 6.80127 21.2495 7.00002C21.2495 7.19877 21.3284 7.3894 21.4689 7.53002L25.4689 11.53C25.6098 11.6689 25.7999 11.7464 25.9978 11.7457C26.1956 11.745 26.3852 11.6662 26.5252 11.5264C26.6652 11.3865 26.7443 11.1971 26.7452 10.9992C26.7461 10.8013 26.6688 10.6111 26.5301 10.47L23.8101 7.75002H31.0001C31.199 7.75002 31.3898 7.67101 31.5304 7.53035C31.6711 7.3897 31.7501 7.19894 31.7501 7.00002C31.7501 6.80111 31.6711 6.61035 31.5304 6.46969C31.3898 6.32904 31.199 6.25002 31.0001 6.25002Z" fill="white"/>
</svg>
