<svg width="32" height="32" viewBox="0 0 32 32" fill="none" xmlns="http://www.w3.org/2000/svg">
<path d="M26.3138 3.87504C25.9924 3.3184 25.5132 2.86956 24.9367 2.58528C24.3602 2.30099 23.7124 2.19403 23.0751 2.27792C22.4378 2.36181 21.8397 2.63278 21.3565 3.05657C20.8732 3.48036 20.5264 4.03794 20.36 4.65879L18.5 11.6025L16.64 4.66004C16.4169 3.82743 15.8722 3.11755 15.1257 2.68657C14.3792 2.25559 13.492 2.13881 12.6594 2.36192C11.8268 2.58503 11.1169 3.12976 10.6859 3.87627C10.255 4.62279 10.1382 5.50993 10.3613 6.34254L11.6375 11.1025L10.1513 10.8163C9.43517 10.6694 8.69043 10.7681 8.03738 11.0967C7.38433 11.4253 6.86113 11.9644 6.5523 12.627C6.24347 13.2896 6.16705 14.037 6.33539 14.7484C6.50373 15.4598 6.907 16.0936 7.48004 16.5475C6.88006 17.021 6.46765 17.6921 6.31629 18.4413C6.27198 18.6602 6.24979 18.883 6.25004 19.1063V20C6.25004 22.5859 7.27727 25.0659 9.10575 26.8943C10.9342 28.7228 13.4142 29.75 16 29.75H16.075C21.41 29.71 25.75 25.2863 25.75 19.8875V19.47C25.748 17.9308 25.2186 16.4388 24.25 15.2425L26.6338 6.34254C26.7463 5.93053 26.776 5.50029 26.721 5.07673C26.6661 4.65318 26.5277 4.24473 26.3138 3.87504ZM11.985 4.62504C12.1581 4.32519 12.4162 4.08341 12.7267 3.93028C13.0372 3.77715 13.3861 3.71955 13.7294 3.76478C14.0726 3.81001 14.3947 3.95603 14.6549 4.18437C14.9152 4.41271 15.1018 4.7131 15.1913 5.04754L17.125 12.25C16.3447 12.2215 15.5802 12.4749 14.9713 12.9638C14.9238 12.8763 14.8725 12.79 14.8163 12.705C14.4492 12.1463 13.917 11.7159 13.2938 11.4738L11.81 5.95379C11.7501 5.73173 11.7346 5.49998 11.7647 5.27192C11.7947 5.04386 11.8696 4.82401 11.985 4.62504ZM7.78629 13.65C7.83245 13.4243 7.92275 13.2098 8.052 13.019C8.18126 12.8282 8.34692 12.6648 8.53949 12.5382C8.73206 12.4116 8.94773 12.3243 9.17414 12.2813C9.40054 12.2383 9.63321 12.2404 9.85879 12.2875L12.4513 12.7875C12.6838 12.8256 12.9062 12.9103 13.1053 13.0365C13.3043 13.1626 13.4757 13.3277 13.6094 13.5217C13.7431 13.7157 13.8362 13.9348 13.8832 14.1657C13.9301 14.3966 13.93 14.6346 13.8828 14.8654C13.8355 15.0962 13.7421 15.3152 13.6082 15.509C13.4743 15.7029 13.3026 15.8678 13.1035 15.9937C12.9043 16.1196 12.6818 16.204 12.4492 16.2418C12.2167 16.2796 11.9788 16.2701 11.75 16.2138L10.25 15.925L10.16 15.9075L10.11 15.8988L9.15629 15.715C8.70236 15.6214 8.30409 15.3516 8.04889 14.9647C7.79369 14.5778 7.7024 14.1054 7.79504 13.6513L7.78629 13.65ZM7.78629 18.74C7.87921 18.2891 8.14612 17.8929 8.52915 17.6374C8.91218 17.3819 9.38048 17.2876 9.83254 17.375L9.95754 17.4L11.1 17.625C11.3297 17.6665 11.5487 17.7535 11.7442 17.8808C11.9397 18.0081 12.1078 18.1733 12.2385 18.3666C12.3693 18.5598 12.4601 18.7773 12.5055 19.0061C12.551 19.235 12.5503 19.4706 12.5033 19.6992C12.4564 19.9277 12.3642 20.1446 12.2323 20.337C12.1003 20.5294 11.9312 20.6935 11.7348 20.8196C11.5385 20.9457 11.319 21.0313 11.0891 21.0713C10.8592 21.1113 10.6237 21.1049 10.3963 21.0525L9.14629 20.8025C8.69212 20.7092 8.29355 20.4395 8.0381 20.0525C7.78264 19.6656 7.69118 19.1931 7.78379 18.7388L7.78629 18.74ZM24.25 19.8875C24.25 24.465 20.5763 28.2163 16.0625 28.25C14.2061 28.2632 12.3994 27.6503 10.9341 26.5104C9.46874 25.3706 8.43027 23.7702 7.98629 21.9675C8.25841 22.1109 8.54972 22.2145 8.85129 22.275L10.1013 22.525C10.3173 22.5687 10.5371 22.5909 10.7575 22.5913C11.3442 22.5902 11.9197 22.4303 12.4229 22.1286C12.926 21.8269 13.3382 21.3946 13.6155 20.8776C13.8928 20.3606 14.0251 19.7782 13.9981 19.1921C13.9712 18.606 13.7861 18.0382 13.4625 17.5488L13.41 17.4738C13.6702 17.3592 13.9143 17.2113 14.1363 17.0338C14.1838 17.1221 14.235 17.2084 14.29 17.2925C14.5249 17.6499 14.8284 17.9571 15.1829 18.1964C15.5373 18.4356 15.9358 18.6021 16.355 18.6863L17.3975 18.8938C17.3004 19.2545 17.2508 19.6264 17.25 20C17.2477 21.1127 17.6838 22.1815 18.4638 22.975C18.603 23.1171 18.793 23.198 18.9919 23.2C19.1908 23.202 19.3824 23.1249 19.5244 22.9857C19.6665 22.8464 19.7474 22.6565 19.7494 22.4576C19.7514 22.2587 19.6743 22.0671 19.535 21.925C19.1239 21.5055 18.8579 20.9653 18.776 20.3836C18.6942 19.8019 18.8007 19.2093 19.08 18.6925C19.1362 18.5893 19.1673 18.4742 19.1708 18.3567C19.1743 18.2393 19.1501 18.1226 19.1002 18.0161C19.0504 17.9097 18.9762 17.8165 18.8836 17.744C18.7911 17.6715 18.6828 17.6217 18.5675 17.5988L16.65 17.215C16.4204 17.1736 16.2014 17.0866 16.0059 16.9593C15.8104 16.8319 15.6423 16.6668 15.5116 16.4735C15.3808 16.2803 15.29 16.0628 15.2446 15.834C15.1991 15.6051 15.1998 15.3695 15.2468 15.1409C15.2937 14.9124 15.3859 14.6955 15.5178 14.5031C15.6498 14.3106 15.8189 14.1466 16.0152 14.0205C16.2116 13.8944 16.4311 13.8088 16.661 13.7688C16.8909 13.7288 17.1264 13.7352 17.3538 13.7875L20.0288 14.3213C21.2179 14.5618 22.2874 15.2056 23.0566 16.1437C23.8258 17.0819 24.2473 18.2569 24.25 19.47V19.8875ZM25.1888 5.95379L23.0188 14.0525C22.2205 13.4567 21.2994 13.0463 20.3225 12.8513L19.7488 12.7363L21.8088 5.04879C21.9491 4.62465 22.2463 4.27021 22.6394 4.05811C23.0326 3.84601 23.492 3.79231 23.9235 3.90802C24.355 4.02372 24.7259 4.30007 24.9602 4.68043C25.1946 5.06079 25.2745 5.51637 25.1838 5.95379H25.1888Z" fill="white"/>
</svg>
