<svg width="32" height="32" viewBox="0 0 32 32" fill="none" xmlns="http://www.w3.org/2000/svg">
<path d="M28 19.25H27.75V17C27.7435 14.5414 26.9689 12.1463 25.5346 10.1494C24.1003 8.15252 22.0778 6.65372 19.75 5.8625V5C19.75 4.53587 19.5656 4.09075 19.2374 3.76256C18.9092 3.43437 18.4641 3.25 18 3.25H14C13.5359 3.25 13.0908 3.43437 12.7626 3.76256C12.4344 4.09075 12.25 4.53587 12.25 5V5.8625C9.92217 6.65372 7.89974 8.15252 6.4654 10.1494C5.03106 12.1463 4.25651 14.5414 4.25 17V19.25H4C3.53587 19.25 3.09075 19.4344 2.76256 19.7626C2.43437 20.0908 2.25 20.5359 2.25 21V24C2.25 24.4641 2.43437 24.9092 2.76256 25.2374C3.09075 25.5656 3.53587 25.75 4 25.75H28C28.4641 25.75 28.9092 25.5656 29.2374 25.2374C29.5656 24.9092 29.75 24.4641 29.75 24V21C29.75 20.5359 29.5656 20.0908 29.2374 19.7626C28.9092 19.4344 28.4641 19.25 28 19.25ZM26.25 17V19.25H19.75V7.46C21.6631 8.21807 23.3049 9.53223 24.4636 11.2328C25.6223 12.9334 26.2445 14.9422 26.25 17ZM14 4.75H18C18.0663 4.75 18.1299 4.77634 18.1768 4.82322C18.2237 4.87011 18.25 4.9337 18.25 5V19.25H13.75V5C13.75 4.9337 13.7763 4.87011 13.8232 4.82322C13.8701 4.77634 13.9337 4.75 14 4.75ZM5.75 17C5.75549 14.9422 6.37775 12.9334 7.53642 11.2328C8.69508 9.53223 10.3369 8.21807 12.25 7.46V19.25H5.75V17ZM28.25 24C28.25 24.0663 28.2237 24.1299 28.1768 24.1768C28.1299 24.2237 28.0663 24.25 28 24.25H4C3.9337 24.25 3.87011 24.2237 3.82322 24.1768C3.77634 24.1299 3.75 24.0663 3.75 24V21C3.75 20.9337 3.77634 20.8701 3.82322 20.8232C3.87011 20.7763 3.9337 20.75 4 20.75H28C28.0663 20.75 28.1299 20.7763 28.1768 20.8232C28.2237 20.8701 28.25 20.9337 28.25 21V24Z" fill="white"/>
</svg>
