<svg width="32" height="32" viewBox="0 0 32 32" fill="none" xmlns="http://www.w3.org/2000/svg">
<path d="M23.7963 21.3275C25.0629 20.2914 26.0772 18.9807 26.7622 17.4946C27.4472 16.0085 27.785 14.386 27.7501 12.75C27.6251 7.16497 23.1551 2.56122 17.5826 2.26747C16.1396 2.18895 14.6956 2.40215 13.337 2.89435C11.9783 3.38655 10.7328 4.14763 9.67491 5.1321C8.61704 6.11657 7.76852 7.30423 7.18007 8.62407C6.59162 9.94392 6.27531 11.3689 6.25005 12.8137L3.4138 18.2637C3.40505 18.28 3.39755 18.2962 3.39005 18.3137C3.21563 18.7235 3.20399 19.1843 3.35751 19.6024C3.51102 20.0204 3.81814 20.3642 4.2163 20.5637L4.2388 20.575L7.2488 21.95V26C7.2488 26.4641 7.43318 26.9092 7.76137 27.2374C8.08956 27.5656 8.53468 27.75 8.9988 27.75H14.9988C15.1977 27.75 15.3885 27.671 15.5291 27.5303C15.6698 27.3896 15.7488 27.1989 15.7488 27C15.7488 26.8011 15.6698 26.6103 15.5291 26.4696C15.3885 26.329 15.1977 26.25 14.9988 26.25H9.00005C8.93375 26.25 8.87016 26.2236 8.82328 26.1767C8.77639 26.1299 8.75005 26.0663 8.75005 26V21.4762C8.75019 21.3325 8.70903 21.1918 8.63146 21.0708C8.5539 20.9498 8.44321 20.8536 8.31255 20.7937L4.87505 19.2225C4.82347 19.1941 4.78352 19.1485 4.76226 19.0937C4.74099 19.0388 4.73977 18.9782 4.7588 18.9225L7.66005 13.3462C7.71755 13.2398 7.74842 13.121 7.75005 13C7.75078 10.8504 8.49965 8.768 9.86816 7.11028C11.2367 5.45256 13.1395 4.32283 15.2501 3.91497V6.35497C14.6115 6.53599 14.0599 6.94188 13.6971 7.49773C13.3343 8.05359 13.1849 8.72189 13.2762 9.37933C13.3676 10.0368 13.6937 10.639 14.1943 11.0748C14.6949 11.5106 15.3363 11.7507 16.0001 11.7507C16.6638 11.7507 17.3052 11.5106 17.8058 11.0748C18.3064 10.639 18.6325 10.0368 18.7239 9.37933C18.8153 8.72189 18.6658 8.05359 18.303 7.49773C17.9402 6.94188 17.3886 6.53599 16.7501 6.35497V3.75622C17.0001 3.74997 17.2501 3.74997 17.5001 3.76372C19.3827 3.87136 21.188 4.54961 22.6757 5.70826C24.1635 6.86691 25.2633 8.45104 25.8288 10.25H23.0001C22.8901 10.25 22.7815 10.2742 22.6819 10.3208C22.5823 10.3675 22.4942 10.4355 22.4238 10.52L19.1176 14.4875C18.5097 14.2158 17.8242 14.1733 17.1874 14.3676C16.5506 14.562 16.0057 14.9802 15.6532 15.5449C15.3007 16.1097 15.1644 16.783 15.2695 17.4404C15.3747 18.0978 15.7141 18.695 16.2251 19.1217C16.7361 19.5484 17.3843 19.7758 18.0499 19.7619C18.7155 19.748 19.3537 19.4938 19.8465 19.0462C20.3393 18.5985 20.6535 17.9877 20.7311 17.3265C20.8088 16.6653 20.6445 15.9983 20.2688 15.4487L23.3513 11.75H26.1638C26.2114 12.0923 26.2394 12.437 26.2476 12.7825C26.2797 14.2545 25.9612 15.713 25.3183 17.0375C24.6753 18.3621 23.7265 19.5146 22.5501 20.4C22.4444 20.4793 22.3617 20.5851 22.3101 20.7067C22.2585 20.8283 22.24 20.9614 22.2563 21.0925L23.2563 29.0925C23.2789 29.2739 23.3669 29.4408 23.5038 29.5619C23.6408 29.683 23.8173 29.7498 24.0001 29.75C24.0314 29.7498 24.0627 29.7477 24.0938 29.7437C24.1916 29.7315 24.286 29.7002 24.3716 29.6515C24.4573 29.6028 24.5325 29.5377 24.5929 29.4599C24.6534 29.3821 24.698 29.2932 24.7241 29.1982C24.7502 29.1032 24.7573 29.004 24.7451 28.9062L23.7963 21.3275ZM17.2501 8.99997C17.2501 9.2472 17.1767 9.48887 17.0394 9.69443C16.902 9.89999 16.7068 10.0602 16.4784 10.1548C16.25 10.2494 15.9987 10.2742 15.7562 10.226C15.5137 10.1777 15.291 10.0587 15.1162 9.88385C14.9414 9.70904 14.8223 9.48631 14.7741 9.24383C14.7258 9.00136 14.7506 8.75002 14.8452 8.52162C14.9398 8.29321 15.1 8.09798 15.3056 7.96063C15.5112 7.82328 15.7528 7.74997 16.0001 7.74997C16.3316 7.74997 16.6495 7.88167 16.8839 8.11609C17.1184 8.35051 17.2501 8.66845 17.2501 8.99997ZM18.0001 18.25C17.7528 18.25 17.5112 18.1767 17.3056 18.0393C17.1 17.902 16.9398 17.7067 16.8452 17.4783C16.7506 17.2499 16.7258 16.9986 16.7741 16.7561C16.8223 16.5136 16.9414 16.2909 17.1162 16.1161C17.291 15.9413 17.5137 15.8222 17.7562 15.774C17.9987 15.7258 18.25 15.7505 18.4784 15.8451C18.7068 15.9397 18.902 16.0999 19.0394 16.3055C19.1767 16.5111 19.2501 16.7527 19.2501 17C19.2501 17.3315 19.1184 17.6494 18.8839 17.8839C18.6495 18.1183 18.3316 18.25 18.0001 18.25Z" fill="white"/>
</svg>
