<svg width="32" height="32" viewBox="0 0 32 32" fill="none" xmlns="http://www.w3.org/2000/svg">
<path d="M20.25 10C20.25 9.80109 20.3291 9.61032 20.4697 9.46967C20.6104 9.32902 20.8011 9.25 21 9.25H30C30.1989 9.25 30.3897 9.32902 30.5304 9.46967C30.671 9.61032 30.75 9.80109 30.75 10C30.75 10.1989 30.671 10.3897 30.5304 10.5303C30.3897 10.671 30.1989 10.75 30 10.75H21C20.8011 10.75 20.6104 10.671 20.4697 10.5303C20.3291 10.3897 20.25 10.1989 20.25 10ZM30 21.25H21C20.8011 21.25 20.6104 21.329 20.4697 21.4697C20.3291 21.6103 20.25 21.8011 20.25 22C20.25 22.1989 20.3291 22.3897 20.4697 22.5303C20.6104 22.671 20.8011 22.75 21 22.75H30C30.1989 22.75 30.3897 22.671 30.5304 22.5303C30.671 22.3897 30.75 22.1989 30.75 22C30.75 21.8011 30.671 21.6103 30.5304 21.4697C30.3897 21.329 30.1989 21.25 30 21.25ZM30 13.25H21C20.8011 13.25 20.6104 13.329 20.4697 13.4697C20.3291 13.6103 20.25 13.8011 20.25 14C20.25 14.1989 20.3291 14.3897 20.4697 14.5303C20.6104 14.671 20.8011 14.75 21 14.75H30C30.1989 14.75 30.3897 14.671 30.5304 14.5303C30.671 14.3897 30.75 14.1989 30.75 14C30.75 13.8011 30.671 13.6103 30.5304 13.4697C30.3897 13.329 30.1989 13.25 30 13.25ZM30 17.25H21C20.8011 17.25 20.6104 17.329 20.4697 17.4697C20.3291 17.6103 20.25 17.8011 20.25 18C20.25 18.1989 20.3291 18.3897 20.4697 18.5303C20.6104 18.671 20.8011 18.75 21 18.75H30C30.1989 18.75 30.3897 18.671 30.5304 18.5303C30.671 18.3897 30.75 18.1989 30.75 18C30.75 17.8011 30.671 17.6103 30.5304 17.4697C30.3897 17.329 30.1989 17.25 30 17.25ZM17.75 8V24C17.75 24.4641 17.5657 24.9092 17.2375 25.2374C16.9093 25.5656 16.4642 25.75 16 25.75H11C9.71342 25.75 8.43952 25.4954 7.25176 25.0008C6.064 24.5062 4.98588 23.7815 4.07954 22.8683C3.1732 21.9551 2.45656 20.8715 1.97093 19.6801C1.48531 18.4886 1.2403 17.2128 1.25003 15.9263C1.29003 10.5913 5.71379 6.25 11.1125 6.25H16C16.4642 6.25 16.9093 6.43437 17.2375 6.76256C17.5657 7.09075 17.75 7.53587 17.75 8ZM16.25 8C16.25 7.9337 16.2237 7.87011 16.1768 7.82322C16.1299 7.77634 16.0663 7.75 16 7.75H11.1125C6.53504 7.75 2.78378 11.4225 2.75003 15.9375C2.74179 17.0262 2.94909 18.1057 3.36 19.1138C3.77091 20.122 4.37729 21.0389 5.1442 21.8116C5.9111 22.5843 6.82336 23.1976 7.82839 23.6161C8.83343 24.0346 9.91135 24.25 11 24.25H16C16.0663 24.25 16.1299 24.2237 16.1768 24.1768C16.2237 24.1299 16.25 24.0663 16.25 24V8Z" fill="white"/>
</svg>
