<svg width="32" height="32" viewBox="0 0 32 32" fill="none" xmlns="http://www.w3.org/2000/svg">
<path d="M25.0588 7.00875C23.8857 5.82324 22.4902 4.88096 20.9522 4.23595C19.4142 3.59094 17.764 3.25588 16.0963 3.25H16C12.6185 3.25 9.37548 4.5933 6.98439 6.98439C4.5933 9.37548 3.25 12.6185 3.25 16V23C3.25 23.7293 3.53973 24.4288 4.05546 24.9445C4.57118 25.4603 5.27065 25.75 6 25.75H8C8.72935 25.75 9.42882 25.4603 9.94454 24.9445C10.4603 24.4288 10.75 23.7293 10.75 23V18C10.75 17.2707 10.4603 16.5712 9.94454 16.0555C9.42882 15.5397 8.72935 15.25 8 15.25H4.775C4.92118 13.0893 5.68709 11.0165 6.98101 9.27986C8.27494 7.54323 10.042 6.21639 12.0706 5.45823C14.0993 4.70007 16.3034 4.54273 18.4192 5.00506C20.5349 5.46738 22.4725 6.52977 24 8.065C25.9116 9.98917 27.0583 12.5429 27.2262 15.25H24C23.2707 15.25 22.5712 15.5397 22.0555 16.0555C21.5397 16.5712 21.25 17.2707 21.25 18V23C21.25 23.7293 21.5397 24.4288 22.0555 24.9445C22.5712 25.4603 23.2707 25.75 24 25.75H26C26.7293 25.75 27.4288 25.4603 27.9445 24.9445C28.4603 24.4288 28.75 23.7293 28.75 23V16C28.7563 14.3322 28.4335 12.6795 27.8001 11.1367C27.1667 9.59379 26.2351 8.19104 25.0588 7.00875ZM8 16.75C8.33152 16.75 8.64946 16.8817 8.88388 17.1161C9.1183 17.3505 9.25 17.6685 9.25 18V23C9.25 23.3315 9.1183 23.6495 8.88388 23.8839C8.64946 24.1183 8.33152 24.25 8 24.25H6C5.66848 24.25 5.35054 24.1183 5.11612 23.8839C4.8817 23.6495 4.75 23.3315 4.75 23V16.75H8ZM27.25 23C27.25 23.3315 27.1183 23.6495 26.8839 23.8839C26.6495 24.1183 26.3315 24.25 26 24.25H24C23.6685 24.25 23.3505 24.1183 23.1161 23.8839C22.8817 23.6495 22.75 23.3315 22.75 23V18C22.75 17.6685 22.8817 17.3505 23.1161 17.1161C23.3505 16.8817 23.6685 16.75 24 16.75H27.25V23Z" fill="white"/>
</svg>
