<svg width="32" height="32" viewBox="0 0 32 32" fill="none" xmlns="http://www.w3.org/2000/svg">
<path d="M21.1375 6.8525C21.3334 6.81603 21.5068 6.70323 21.6196 6.5389C21.7324 6.37457 21.7752 6.17218 21.7388 5.97625C21.7023 5.78032 21.5895 5.6069 21.4251 5.49415C21.2608 5.38139 21.0584 5.33853 20.8625 5.375C18.7875 5.76625 17.0813 6.8525 16 8.425C14.6625 6.4375 12.375 5.25 9.75 5.25C7.76159 5.25232 5.85528 6.04324 4.44926 7.44926C3.04324 8.85528 2.25232 10.7616 2.25 12.75C2.25 16.4 4.525 20.1987 9.0125 24.0387C11.0688 25.791 13.29 27.3399 15.645 28.6637C15.7539 28.7232 15.876 28.7543 16 28.7543C16.124 28.7543 16.2461 28.7232 16.355 28.6637C18.1372 27.6668 19.8427 26.5387 21.4575 25.2887C21.6151 25.1674 21.7181 24.9884 21.7438 24.7912C21.7695 24.5939 21.7157 24.3945 21.5944 24.2369C21.473 24.0792 21.2941 23.9763 21.0968 23.9506C20.8995 23.9249 20.7001 23.9787 20.5425 24.1C19.3258 25.0324 18.0598 25.8986 16.75 26.695V10.16C17.5 8.4375 19.095 7.235 21.1375 6.8525ZM15.25 26.6925C12.175 24.8137 3.75 19.0875 3.75 12.75C3.75165 11.1592 4.38433 9.63405 5.50919 8.50919C6.63405 7.38433 8.15921 6.75165 9.75 6.75C12.2338 6.75 14.3275 8.05 15.25 10.1525V26.6925ZM29.0413 12.75C29.0134 12.7519 28.9854 12.7519 28.9575 12.75C28.7732 12.7496 28.5954 12.6813 28.4583 12.5582C28.3211 12.435 28.234 12.2657 28.2138 12.0825C28.1174 11.2136 27.8319 10.3763 27.3773 9.62955C26.9227 8.88278 26.3101 8.24465 25.5825 7.76C25.4167 7.64927 25.3018 7.47723 25.2628 7.28172C25.2239 7.08622 25.2643 6.88326 25.375 6.7175C25.4857 6.55174 25.6578 6.43675 25.8533 6.39784C26.0488 6.35893 26.2517 6.39927 26.4175 6.51C27.3266 7.11609 28.092 7.91396 28.6597 8.84753C29.2275 9.7811 29.5838 10.8277 29.7038 11.9137C29.7158 12.0123 29.7081 12.1122 29.6812 12.2077C29.6543 12.3032 29.6088 12.3924 29.5471 12.4702C29.4855 12.548 29.4091 12.6128 29.3222 12.6608C29.2354 12.7088 29.1399 12.7392 29.0413 12.75ZM28.5837 17.34C27.8862 18.74 26.865 20.1713 25.5513 21.59C25.4162 21.7362 25.2285 21.8227 25.0296 21.8306C24.8307 21.8385 24.6368 21.767 24.4906 21.6319C24.3444 21.4968 24.2579 21.3091 24.25 21.1102C24.2422 20.9113 24.3137 20.7175 24.4487 20.5713C25.6675 19.2538 26.6075 17.94 27.2425 16.6663C27.2846 16.5751 27.3446 16.4932 27.4189 16.4257C27.4932 16.3581 27.5803 16.3061 27.6751 16.2728C27.7699 16.2396 27.8703 16.2257 27.9706 16.232C28.0708 16.2383 28.1688 16.2647 28.2586 16.3096C28.3485 16.3545 28.4284 16.4169 28.4937 16.4933C28.5589 16.5697 28.6082 16.6583 28.6385 16.7541C28.6688 16.8499 28.6796 16.9507 28.6702 17.0507C28.6608 17.1507 28.6314 17.2478 28.5837 17.3363V17.34Z" fill="white"/>
</svg>
