<svg width="32" height="32" viewBox="0 0 32 32" fill="none" xmlns="http://www.w3.org/2000/svg">
<path d="M22.25 5.24999C21.2647 5.24733 20.2886 5.44007 19.3782 5.81705C18.4678 6.19403 17.6413 6.74777 16.9463 7.44624L16 8.39374L15.0538 7.44624C14.0049 6.39716 12.6684 5.68271 11.2134 5.39325C9.75845 5.10378 8.25031 5.25231 6.87975 5.82004C5.5092 6.38777 4.33779 7.34921 3.51369 8.58274C2.68959 9.81627 2.24982 11.2665 2.25 12.75C2.25 16.4 4.525 20.1987 9.0125 24.0387C11.0688 25.7909 13.29 27.3398 15.645 28.6637C15.7541 28.7224 15.8761 28.7531 16 28.7531C16.1239 28.7531 16.2459 28.7224 16.355 28.6637C18.71 27.3398 20.9312 25.7909 22.9875 24.0387C27.475 20.1987 29.75 16.4 29.75 12.75C29.7477 10.7616 28.9568 8.85526 27.5507 7.44924C26.1447 6.04322 24.2384 5.2523 22.25 5.24999ZM16 27.1387C13.9487 25.955 3.75 19.715 3.75 12.75C3.75006 11.5633 4.10198 10.4034 4.76127 9.41671C5.42056 8.43007 6.35762 7.66108 7.45394 7.20697C8.55026 6.75287 9.75662 6.63405 10.9205 6.86554C12.0843 7.09703 13.1534 7.66843 13.9925 8.50749L14.9388 9.45374L13.47 10.9237C13.4003 10.9934 13.3449 11.0761 13.3072 11.1672C13.2695 11.2582 13.25 11.3558 13.25 11.4544C13.25 11.5529 13.2695 11.6505 13.3072 11.7416C13.3449 11.8326 13.4003 11.9153 13.47 11.985L16.7125 15.2275L14.47 17.47C14.3375 17.6122 14.2654 17.8002 14.2688 17.9945C14.2723 18.1888 14.351 18.3742 14.4884 18.5116C14.6258 18.649 14.8112 18.7277 15.0055 18.7312C15.1998 18.7346 15.3878 18.6625 15.53 18.53L18.3037 15.7575C18.3735 15.6878 18.4288 15.6051 18.4665 15.5141C18.5043 15.423 18.5237 15.3254 18.5237 15.2269C18.5237 15.1283 18.5043 15.0307 18.4665 14.9397C18.4288 14.8486 18.3735 14.7659 18.3037 14.6962L15.0612 11.4537L18.0075 8.50749C18.8466 7.66843 19.9157 7.09703 21.0795 6.86554C22.2434 6.63405 23.4497 6.75287 24.5461 7.20697C25.6424 7.66108 26.5794 8.43007 27.2387 9.41671C27.898 10.4034 28.2499 11.5633 28.25 12.75C28.25 19.715 18.0513 25.955 16 27.1387Z" fill="white"/>
</svg>
