<svg width="32" height="32" viewBox="0 0 32 32" fill="none" xmlns="http://www.w3.org/2000/svg">
<path d="M27.6999 7.29753C26.3879 5.98818 24.6106 5.25198 22.757 5.25011C20.9034 5.24823 19.1246 5.98083 17.8099 7.28753L15.9999 8.97253L14.1899 7.28753C12.8763 5.97554 11.0952 5.23912 9.23861 5.2403C7.382 5.24147 5.6019 5.98013 4.28991 7.29378C2.97792 8.60743 2.24151 10.3885 2.24268 12.2451C2.24385 14.1017 2.98251 15.8818 4.29616 17.1938L15.4662 28.5263C15.5359 28.597 15.619 28.6531 15.7107 28.6914C15.8023 28.7297 15.9006 28.7494 15.9999 28.7494C16.0992 28.7494 16.1975 28.7297 16.2892 28.6914C16.3808 28.6531 16.4639 28.597 16.5337 28.5263L27.6999 17.1988C28.3502 16.5487 28.866 15.777 29.218 14.9275C29.5699 14.0781 29.751 13.1676 29.751 12.2482C29.751 11.3287 29.5699 10.4182 29.218 9.5688C28.866 8.71936 28.3502 7.94757 27.6999 7.29753ZM26.6349 16.1413L15.9999 26.9313L5.36116 16.1375C4.33571 15.1049 3.76132 13.7079 3.7638 12.2527C3.76628 10.7974 4.34543 9.40239 5.37439 8.37326C6.40336 7.34414 7.79825 6.76476 9.25353 6.76205C10.7088 6.75933 12.1059 7.3335 13.1387 8.35878C13.1447 8.36526 13.1514 8.37112 13.1587 8.37628L15.4887 10.5463C15.6275 10.6756 15.8102 10.7475 15.9999 10.7475C16.1896 10.7475 16.3723 10.6756 16.5112 10.5463L18.8412 8.37503C18.8484 8.36987 18.8551 8.36401 18.8612 8.35753C19.3715 7.84414 19.9782 7.43655 20.6464 7.15813C21.3146 6.87971 22.0312 6.73595 22.7552 6.73508C23.4791 6.73421 24.196 6.87625 24.8649 7.15306C25.5338 7.42988 26.1414 7.83601 26.653 8.34817C27.1646 8.86034 27.5701 9.46846 27.8461 10.1377C28.1222 10.8069 28.2634 11.524 28.2617 12.2479C28.2601 12.9718 28.1155 13.6882 27.8363 14.3561C27.5571 15.024 27.1489 15.6302 26.6349 16.14V16.1413Z" fill="white"/>
</svg>
