<svg width="32" height="32" viewBox="0 0 32 32" fill="none" xmlns="http://www.w3.org/2000/svg">
<path d="M9 17.75H4C3.80109 17.75 3.61032 17.671 3.46967 17.5303C3.32902 17.3897 3.25 17.1989 3.25 17C3.25 16.8011 3.32902 16.6103 3.46967 16.4697C3.61032 16.329 3.80109 16.25 4 16.25H8.59875L10.375 13.5837C10.4434 13.4806 10.5363 13.396 10.6453 13.3375C10.7544 13.279 10.8762 13.2483 11 13.2483C11.1238 13.2483 11.2456 13.279 11.3547 13.3375C11.4637 13.396 11.5566 13.4806 11.625 13.5837L15 18.6475L16.375 16.5837C16.4436 16.4809 16.5366 16.3966 16.6456 16.3384C16.7546 16.2802 16.8764 16.2498 17 16.25H20C20.1989 16.25 20.3897 16.329 20.5303 16.4697C20.671 16.6103 20.75 16.8011 20.75 17C20.75 17.1989 20.671 17.3897 20.5303 17.5303C20.3897 17.671 20.1989 17.75 20 17.75H17.4013L15.625 20.4163C15.5566 20.5194 15.4637 20.604 15.3547 20.6625C15.2456 20.721 15.1238 20.7517 15 20.7517C14.8762 20.7517 14.7544 20.721 14.6453 20.6625C14.5363 20.604 14.4434 20.5194 14.375 20.4163L11 15.3525L9.625 17.4163C9.55639 17.5191 9.46344 17.6034 9.3544 17.6616C9.24536 17.7198 9.12361 17.7502 9 17.75ZM22.25 5.25C19.625 5.25 17.3425 6.43375 16 8.4175C14.6575 6.43375 12.375 5.25 9.75 5.25C7.76159 5.25232 5.85528 6.04324 4.44926 7.44926C3.04324 8.85528 2.25232 10.7616 2.25 12.75C2.25 12.8408 2.25 12.9321 2.25 13.0238C2.2563 13.2227 2.34136 13.4109 2.48646 13.5471C2.55831 13.6146 2.64274 13.6672 2.73493 13.702C2.82712 13.7368 2.92526 13.7531 3.02375 13.75C3.12224 13.7469 3.21915 13.7244 3.30895 13.6838C3.39876 13.6432 3.47969 13.5854 3.54712 13.5135C3.61456 13.4417 3.66719 13.3573 3.702 13.2651C3.73681 13.1729 3.75312 13.0747 3.75 12.9762C3.75 12.9012 3.75 12.825 3.75 12.75C3.75165 11.1592 4.38433 9.63405 5.50919 8.50919C6.63405 7.38433 8.15921 6.75165 9.75 6.75C12.285 6.75 14.4137 8.10375 15.3062 10.2837C15.3628 10.4213 15.4589 10.539 15.5824 10.6218C15.7059 10.7046 15.8513 10.7488 16 10.7488C16.1487 10.7488 16.2941 10.7046 16.4176 10.6218C16.5411 10.539 16.6372 10.4213 16.6938 10.2837C17.5863 8.10375 19.715 6.75 22.25 6.75C23.8408 6.75165 25.366 7.38433 26.4908 8.50919C27.6157 9.63405 28.2483 11.1592 28.25 12.75C28.25 19.7162 18.0487 25.9562 16 27.1388C14.77 26.4312 10.6138 23.9112 7.48 20.4937C7.41483 20.4165 7.33471 20.3532 7.24446 20.3076C7.1542 20.2621 7.05567 20.2353 6.95479 20.2288C6.8539 20.2223 6.75275 20.2362 6.6574 20.2698C6.56205 20.3034 6.47448 20.356 6.39995 20.4242C6.32541 20.4925 6.26545 20.5752 6.22367 20.6673C6.18189 20.7593 6.15916 20.8589 6.15683 20.9599C6.1545 21.061 6.17262 21.1615 6.21011 21.2554C6.24761 21.3493 6.30369 21.4346 6.375 21.5063C10.2425 25.7275 15.4263 28.5425 15.645 28.66C15.7541 28.7186 15.8761 28.7493 16 28.7493C16.1239 28.7493 16.2459 28.7186 16.355 28.66C18.71 27.3361 20.9312 25.7872 22.9875 24.035C27.475 20.1987 29.75 16.4 29.75 12.75C29.7477 10.7616 28.9568 8.85528 27.5507 7.44926C26.1447 6.04324 24.2384 5.25232 22.25 5.25Z" fill="white"/>
</svg>
