<svg width="32" height="32" viewBox="0 0 32 32" fill="none" xmlns="http://www.w3.org/2000/svg">
<path d="M27.84 8.48874L16.84 2.46624C16.5828 2.3242 16.2938 2.24969 16 2.24969C15.7062 2.24969 15.4172 2.3242 15.16 2.46624L4.16 8.48874C3.88476 8.63934 3.65506 8.86117 3.49497 9.131C3.33487 9.40083 3.25026 9.70874 3.25 10.0225V21.9775C3.25026 22.2912 3.33487 22.5991 3.49497 22.869C3.65506 23.1388 3.88476 23.3606 4.16 23.5112L15.16 29.5337C15.4173 29.6756 15.7062 29.7499 16 29.7499C16.2938 29.7499 16.5827 29.6756 16.84 29.5337L27.84 23.5112C28.1152 23.3606 28.3449 23.1388 28.505 22.869C28.6651 22.5991 28.7497 22.2912 28.75 21.9775V10.0225C28.7497 9.70874 28.6651 9.40083 28.505 9.131C28.3449 8.86117 28.1152 8.63934 27.84 8.48874ZM27.25 21.9775C27.2504 22.0218 27.239 22.0653 27.2171 22.1038C27.1951 22.1422 27.1633 22.1741 27.125 22.1962L16.125 28.2187C16.0882 28.2389 16.0469 28.2494 16.005 28.2494C15.9631 28.2494 15.9218 28.2389 15.885 28.2187L4.875 22.1962C4.83666 22.1741 4.80489 22.1422 4.78293 22.1038C4.76097 22.0653 4.7496 22.0218 4.75 21.9775V10.0225C4.7496 9.97823 4.76097 9.93465 4.78293 9.89622C4.80489 9.85778 4.83666 9.82587 4.875 9.80374L15.875 3.78124C15.9118 3.76111 15.9531 3.75056 15.995 3.75056C16.0369 3.75056 16.0782 3.76111 16.115 3.78124L27.115 9.80374C27.1533 9.82587 27.1851 9.85778 27.2071 9.89622C27.229 9.93465 27.2404 9.97823 27.24 10.0225L27.25 21.9775Z" fill="white"/>
</svg>
