<svg width="32" height="32" viewBox="0 0 32 32" fill="none" xmlns="http://www.w3.org/2000/svg">
<path d="M28.8162 19.7675L22.375 18.3162L8.53 4.46998C8.45839 4.39832 8.37301 4.34191 8.27901 4.30416C8.18501 4.2664 8.08433 4.24808 7.98305 4.2503C7.88177 4.25252 7.78199 4.27524 7.68973 4.31707C7.59748 4.35891 7.51465 4.419 7.44625 4.49373C4.74 7.45248 3.25 11.1837 3.25 15V24C3.25 24.4641 3.43437 24.9092 3.76256 25.2374C4.09075 25.5656 4.53587 25.75 5 25.75H9C9.46413 25.75 9.90925 25.5656 10.2374 25.2374C10.5656 24.9092 10.75 24.4641 10.75 24V17.4562C13.6752 19.0394 15.9609 21.5879 17.2175 24.6675C17.349 24.9897 17.5742 25.2652 17.8638 25.4581C18.1535 25.6511 18.4944 25.7528 18.8425 25.75H30C30.4641 25.75 30.9092 25.5656 31.2374 25.2374C31.5656 24.9092 31.75 24.4641 31.75 24V23.4087C31.7519 22.5576 31.4616 21.7316 30.9276 21.0688C30.3936 20.4061 29.6483 19.9467 28.8162 19.7675ZM9.25 24C9.25 24.0663 9.22366 24.1299 9.17678 24.1768C9.12989 24.2236 9.0663 24.25 9 24.25H5C4.9337 24.25 4.87011 24.2236 4.82322 24.1768C4.77634 24.1299 4.75 24.0663 4.75 24V15.7725C6.29345 15.8494 7.81374 16.1796 9.25 16.75V24ZM30.25 24C30.25 24.0663 30.2237 24.1299 30.1768 24.1768C30.1299 24.2236 30.0663 24.25 30 24.25H18.84C18.7911 24.2509 18.7429 24.2373 18.7016 24.2111C18.6603 24.1849 18.6276 24.1471 18.6075 24.1025C17.442 21.2355 15.4611 18.7734 12.91 17.0212C10.5066 15.3627 7.68684 14.4101 4.77 14.2712C4.93375 11.3325 6.075 8.47873 8.03875 6.09873L21.47 19.53C21.5702 19.6302 21.6968 19.7 21.835 19.7312L28.4888 21.2312C28.9881 21.3379 29.4356 21.6129 29.7562 22.0103C30.0769 22.4076 30.2512 22.9031 30.25 23.4137V24Z" fill="white"/>
</svg>
