<svg width="32" height="32" viewBox="0 0 32 32" fill="none" xmlns="http://www.w3.org/2000/svg">
<path d="M22 9.25H19C18.8011 9.25 18.6103 9.32902 18.4697 9.46967C18.329 9.61032 18.25 9.80109 18.25 10V22C18.25 22.1989 18.329 22.3897 18.4697 22.5303C18.6103 22.671 18.8011 22.75 19 22.75H22C23.7902 22.75 25.5071 22.0388 26.773 20.773C28.0388 19.5071 28.75 17.7902 28.75 16C28.75 14.2098 28.0388 12.4929 26.773 11.227C25.5071 9.96116 23.7902 9.25 22 9.25ZM22 21.25H19.75V10.75H22C23.3924 10.75 24.7277 11.3031 25.7123 12.2877C26.6969 13.2723 27.25 14.6076 27.25 16C27.25 17.3924 26.6969 18.7277 25.7123 19.7123C24.7277 20.6969 23.3924 21.25 22 21.25ZM14.25 22V16.75H6.75V22C6.75 22.1989 6.67098 22.3897 6.53033 22.5303C6.38968 22.671 6.19891 22.75 6 22.75C5.80109 22.75 5.61032 22.671 5.46967 22.5303C5.32902 22.3897 5.25 22.1989 5.25 22V10C5.25 9.80109 5.32902 9.61032 5.46967 9.46967C5.61032 9.32902 5.80109 9.25 6 9.25C6.19891 9.25 6.38968 9.32902 6.53033 9.46967C6.67098 9.61032 6.75 9.80109 6.75 10V15.25H14.25V10C14.25 9.80109 14.329 9.61032 14.4697 9.46967C14.6103 9.32902 14.8011 9.25 15 9.25C15.1989 9.25 15.3897 9.32902 15.5303 9.46967C15.671 9.61032 15.75 9.80109 15.75 10V22C15.75 22.1989 15.671 22.3897 15.5303 22.5303C15.3897 22.671 15.1989 22.75 15 22.75C14.8011 22.75 14.6103 22.671 14.4697 22.5303C14.329 22.3897 14.25 22.1989 14.25 22ZM3.25 6C3.25 5.80109 3.32902 5.61032 3.46967 5.46967C3.61032 5.32902 3.80109 5.25 4 5.25H28C28.1989 5.25 28.3897 5.32902 28.5303 5.46967C28.671 5.61032 28.75 5.80109 28.75 6C28.75 6.19891 28.671 6.38968 28.5303 6.53033C28.3897 6.67098 28.1989 6.75 28 6.75H4C3.80109 6.75 3.61032 6.67098 3.46967 6.53033C3.32902 6.38968 3.25 6.19891 3.25 6ZM28.75 26C28.75 26.1989 28.671 26.3897 28.5303 26.5303C28.3897 26.671 28.1989 26.75 28 26.75H4C3.80109 26.75 3.61032 26.671 3.46967 26.5303C3.32902 26.3897 3.25 26.1989 3.25 26C3.25 25.8011 3.32902 25.6103 3.46967 25.4697C3.61032 25.329 3.80109 25.25 4 25.25H28C28.1989 25.25 28.3897 25.329 28.5303 25.4697C28.671 25.6103 28.75 25.8011 28.75 26Z" fill="white"/>
</svg>
