<svg width="32" height="32" viewBox="0 0 32 32" fill="none" xmlns="http://www.w3.org/2000/svg">
<path d="M25.0151 6.98376C23.8346 5.78402 22.4283 4.82987 20.8773 4.17635C19.3263 3.52283 17.6612 3.18286 15.9781 3.17607C14.295 3.16927 12.6273 3.49578 11.071 4.13676C9.51475 4.77774 8.1008 5.7205 6.91071 6.91067C5.72063 8.10083 4.77796 9.51485 4.13709 11.0712C3.49622 12.6275 3.16983 14.2952 3.17674 15.9783C3.18365 17.6614 3.52373 19.3265 4.17736 20.8774C4.83099 22.4284 5.78524 23.8347 6.98506 25.015C8.16549 26.2147 9.57179 27.1689 11.1228 27.8224C12.6739 28.4759 14.3389 28.8159 16.022 28.8227C17.7051 28.8295 19.3729 28.503 20.9291 27.862C22.4854 27.221 23.8993 26.2783 25.0894 25.0881C26.2795 23.8979 27.2222 22.4839 27.863 20.9276C28.5039 19.3713 28.8303 17.7035 28.8234 16.0204C28.8165 14.3374 28.4764 12.6723 27.8228 11.1213C27.1691 9.57033 26.2149 8.16411 25.0151 6.98376ZM11.7501 26.4213V19C11.7501 18.9337 11.7764 18.8701 11.8233 18.8232C11.8702 18.7763 11.9338 18.75 12.0001 18.75H20.0001C20.0664 18.75 20.1299 18.7763 20.1768 18.8232C20.2237 18.8701 20.2501 18.9337 20.2501 19V26.4213C17.5245 27.5263 14.4756 27.5263 11.7501 26.4213ZM18.2501 17.25H13.7501V12.4638L18.2501 10.2138V17.25ZM23.9551 23.955C23.2936 24.6165 22.553 25.1938 21.7501 25.6738V19C21.7501 18.5359 21.5657 18.0908 21.2375 17.7626C20.9093 17.4344 20.4642 17.25 20.0001 17.25H19.7501V9.00001C19.7501 8.87218 19.7175 8.74647 19.6553 8.63481C19.5931 8.52314 19.5033 8.42922 19.3946 8.36197C19.2859 8.29472 19.1619 8.25637 19.0342 8.25056C18.9065 8.24474 18.7794 8.27166 18.6651 8.32876L12.6651 11.3288C12.5403 11.391 12.4354 11.4868 12.3621 11.6054C12.2888 11.724 12.25 11.8606 12.2501 12V17.25H12.0001C11.5359 17.25 11.0908 17.4344 10.7626 17.7626C10.4344 18.0908 10.2501 18.5359 10.2501 19V25.6738C9.44713 25.1938 8.70653 24.6165 8.04506 23.955C6.47173 22.3817 5.40029 20.3771 4.96621 18.1948C4.53214 16.0125 4.75494 13.7505 5.60643 11.6949C6.45792 9.63922 7.89986 7.88222 9.74991 6.64606C11.6 5.4099 13.775 4.7501 16.0001 4.7501C18.2251 4.7501 20.4002 5.4099 22.2502 6.64606C24.1003 7.88222 25.5422 9.63922 26.3937 11.6949C27.2452 13.7505 27.468 16.0125 27.0339 18.1948C26.5998 20.3771 25.5284 22.3817 23.9551 23.955Z" fill="white"/>
</svg>
