<svg width="32" height="32" viewBox="0 0 32 32" fill="none" xmlns="http://www.w3.org/2000/svg">
<path d="M31.53 13.47C31.3894 13.3296 31.1988 13.2507 31 13.2507C30.8013 13.2507 30.6106 13.3296 30.47 13.47L24.1763 19.7625C24.1294 19.8091 24.066 19.8352 24 19.8352C23.934 19.8352 23.8706 19.8091 23.8238 19.7625L13.2375 9.17628C13.1909 9.12944 13.1648 9.06608 13.1648 9.00003C13.1648 8.93398 13.1909 8.87062 13.2375 8.82378L19.53 2.53003C19.6625 2.38785 19.7346 2.19981 19.7312 2.00551C19.7277 1.81121 19.649 1.62582 19.5116 1.48841C19.3742 1.35099 19.1888 1.27228 18.9945 1.26885C18.8002 1.26543 18.6122 1.33755 18.47 1.47003L12.1763 7.76253C11.8895 8.04955 11.7115 8.42727 11.6725 8.83108C11.6335 9.23489 11.736 9.6397 11.9625 9.97628L9.17625 12.7625C9.01373 12.925 8.88481 13.118 8.79685 13.3303C8.7089 13.5426 8.66363 13.7702 8.66363 14C8.66363 14.2299 8.7089 14.4574 8.79685 14.6698C8.88481 14.8821 9.01373 15.075 9.17625 15.2375L9.93875 16L2.47 23.47C2.37973 23.5604 2.31404 23.6723 2.27914 23.7952C2.24425 23.918 2.24131 24.0478 2.27061 24.1721C2.2999 24.2964 2.36046 24.4112 2.44655 24.5056C2.53263 24.5999 2.64138 24.6707 2.7625 24.7113L11.7625 27.7113C11.8946 27.7553 12.0364 27.7617 12.172 27.7297C12.3076 27.6977 12.4315 27.6285 12.53 27.53L17 23.0613L17.7625 23.8238C17.925 23.9863 18.1179 24.1152 18.3303 24.2032C18.5426 24.2911 18.7702 24.3364 19 24.3364C19.2298 24.3364 19.4574 24.2911 19.6697 24.2032C19.8821 24.1152 20.075 23.9863 20.2375 23.8238L23.0225 21.0375C23.3592 21.2643 23.7643 21.3671 24.1684 21.3281C24.5724 21.2891 24.9504 21.1108 25.2375 20.8238L31.53 14.53C31.6705 14.3894 31.7493 14.1988 31.7493 14C31.7493 13.8013 31.6705 13.6107 31.53 13.47ZM11.7975 26.1425L4.38875 23.6725L11 17.0613L15.9388 22L11.7975 26.1425ZM19.1725 22.7675C19.1257 22.8141 19.0623 22.8402 18.9963 22.8402C18.9302 22.8402 18.8668 22.8141 18.82 22.7675L17.5263 21.475L11.5263 15.475L10.2375 14.1763C10.1909 14.1294 10.1648 14.0661 10.1648 14C10.1648 13.934 10.1909 13.8706 10.2375 13.8238L13 11.0613L21.9388 20L19.1725 22.7675Z" fill="white"/>
</svg>
