<svg width="32" height="32" viewBox="0 0 32 32" fill="none" xmlns="http://www.w3.org/2000/svg">
<path d="M28 19.25H16.25L4.57125 5.51497C4.50835 5.43717 4.43052 5.37274 4.34234 5.32548C4.25416 5.27822 4.15741 5.24907 4.0578 5.23976C3.95819 5.23046 3.85772 5.24117 3.76231 5.27128C3.6669 5.30139 3.57848 5.35029 3.50225 5.41509C3.42603 5.47989 3.36354 5.55928 3.31846 5.6486C3.27338 5.73792 3.24663 5.83535 3.23979 5.93517C3.23294 6.03498 3.24613 6.13515 3.27858 6.22979C3.31103 6.32443 3.36209 6.41162 3.42875 6.48622L20.125 26.1337C20.2898 26.3275 20.4948 26.483 20.7258 26.5894C20.9568 26.6958 21.2082 26.7506 21.4625 26.75H28C28.4641 26.75 28.9092 26.5656 29.2374 26.2374C29.5656 25.9092 29.75 25.4641 29.75 25V21C29.75 20.5358 29.5656 20.0907 29.2374 19.7625C28.9092 19.4343 28.4641 19.25 28 19.25ZM21.2725 25.1625L17.5225 20.75H24.25V25.25H21.4625C21.4264 25.25 21.3907 25.2422 21.3579 25.227C21.3251 25.2119 21.296 25.1899 21.2725 25.1625ZM28.25 25C28.25 25.0663 28.2237 25.1299 28.1768 25.1767C28.1299 25.2236 28.0663 25.25 28 25.25H25.75V20.75H28C28.0663 20.75 28.1299 20.7763 28.1768 20.8232C28.2237 20.8701 28.25 20.9337 28.25 21V25ZM13.8612 22.635C13.7862 22.5711 13.6994 22.5226 13.6056 22.4923C13.5119 22.462 13.4131 22.4505 13.3149 22.4584C13.2167 22.4663 13.121 22.4934 13.0333 22.5383C12.9456 22.5832 12.8676 22.6449 12.8038 22.72L10.7275 25.1625C10.704 25.1899 10.6749 25.2119 10.6421 25.227C10.6093 25.2422 10.5736 25.25 10.5375 25.25H7.75V20.75H10.65C10.8489 20.75 11.0397 20.671 11.1803 20.5303C11.321 20.3897 11.4 20.1989 11.4 20C11.4 19.8011 11.321 19.6103 11.1803 19.4696C11.0397 19.329 10.8489 19.25 10.65 19.25H4C3.53587 19.25 3.09075 19.4343 2.76256 19.7625C2.43437 20.0907 2.25 20.5358 2.25 21V25C2.25 25.4641 2.43437 25.9092 2.76256 26.2374C3.09075 26.5656 3.53587 26.75 4 26.75H10.5375C10.7918 26.7506 11.0432 26.6958 11.2742 26.5894C11.5052 26.483 11.7102 26.3275 11.875 26.1337L13.95 23.6912C14.0782 23.5393 14.1408 23.3428 14.1242 23.1447C14.1075 22.9467 14.013 22.7633 13.8612 22.635ZM3.75 25V21C3.75 20.9337 3.77634 20.8701 3.82322 20.8232C3.87011 20.7763 3.9337 20.75 4 20.75H6.25V25.25H4C3.9337 25.25 3.87011 25.2236 3.82322 25.1767C3.77634 25.1299 3.75 25.0663 3.75 25ZM18.9287 15.515L27.4287 5.51497C27.4917 5.43717 27.5695 5.37274 27.6577 5.32548C27.7458 5.27822 27.8426 5.24907 27.9422 5.23976C28.0418 5.23046 28.1423 5.24117 28.2377 5.27128C28.3331 5.30139 28.4215 5.35029 28.4977 5.41509C28.574 5.47989 28.6365 5.55928 28.6815 5.6486C28.7266 5.73792 28.7534 5.83535 28.7602 5.93517C28.7671 6.03498 28.7539 6.13515 28.7214 6.22979C28.689 6.32443 28.6379 6.41162 28.5713 6.48622L20.0713 16.4862C19.9409 16.6322 19.7586 16.7214 19.5633 16.7348C19.3681 16.7481 19.1753 16.6847 19.0262 16.5579C18.8771 16.4312 18.7834 16.2511 18.7652 16.0563C18.747 15.8614 18.8057 15.6672 18.9287 15.515Z" fill="white"/>
</svg>
