<svg width="32" height="32" viewBox="0 0 32 32" fill="none" xmlns="http://www.w3.org/2000/svg">
<path d="M29.4562 15.205L22.6725 5.02875C22.5126 4.78911 22.296 4.59265 22.042 4.4568C21.788 4.32095 21.5043 4.24992 21.2162 4.25H10.7837C10.4957 4.24992 10.212 4.32095 9.95798 4.4568C9.70394 4.59265 9.48737 4.78911 9.32749 5.02875L2.54374 15.205C2.40495 15.4131 2.31238 15.6485 2.27228 15.8954C2.23217 16.1423 2.24546 16.3949 2.31124 16.6362L4.99124 26.46C5.09213 26.8303 5.31196 27.1572 5.61689 27.3903C5.92182 27.6234 6.29492 27.7498 6.67874 27.75H9.99999C10.4641 27.75 10.9092 27.5656 11.2374 27.2374C11.5656 26.9092 11.75 26.4641 11.75 26V23.75H20.25V26C20.25 26.4641 20.4344 26.9092 20.7626 27.2374C21.0907 27.5656 21.5359 27.75 22 27.75H25.3212C25.7051 27.7498 26.0782 27.6234 26.3831 27.3903C26.688 27.1572 26.9079 26.8303 27.0087 26.46L29.6887 16.6362C29.7545 16.3949 29.7678 16.1423 29.7277 15.8954C29.6876 15.6485 29.595 15.4131 29.4562 15.205ZM9.99999 22.25C9.93368 22.25 9.87009 22.2237 9.82321 22.1768C9.77633 22.1299 9.74999 22.0663 9.74999 22V8.18625L13.25 10.25V17C13.25 17.1989 13.329 17.3897 13.4697 17.5303C13.6103 17.671 13.8011 17.75 14 17.75C14.1989 17.75 14.3897 17.671 14.5303 17.5303C14.671 17.3897 14.75 17.1989 14.75 17V11.1337L15.625 11.6462C15.7405 11.7144 15.8721 11.7504 16.0062 11.7504C16.1403 11.7504 16.272 11.7144 16.3875 11.6462L17.2562 11.1337V16C17.2562 16.1989 17.3353 16.3897 17.4759 16.5303C17.6166 16.671 17.8073 16.75 18.0062 16.75C18.2052 16.75 18.3959 16.671 18.5366 16.5303C18.6772 16.3897 18.7562 16.1989 18.7562 16V10.25L22.2562 8.18625V22C22.2562 22.0663 22.2299 22.1299 22.183 22.1768C22.1361 22.2237 22.0725 22.25 22.0062 22.25H9.99999ZM10.7837 5.75H21.2162C21.2573 5.75008 21.2977 5.76027 21.3339 5.77967C21.3701 5.79907 21.4009 5.82709 21.4237 5.86125L21.9362 6.63L16 10.125L10.0637 6.625L10.5762 5.85625C10.5996 5.82302 10.6307 5.79597 10.6668 5.77746C10.703 5.75895 10.7431 5.74952 10.7837 5.75ZM10.25 26C10.25 26.0663 10.2236 26.1299 10.1768 26.1768C10.1299 26.2237 10.0663 26.25 9.99999 26.25H6.67874C6.62416 26.2498 6.57116 26.2317 6.52782 26.1985C6.48449 26.1653 6.4532 26.1189 6.43874 26.0662L3.75874 16.2412C3.74952 16.2068 3.74777 16.1709 3.75359 16.1357C3.75941 16.1006 3.77267 16.0671 3.79249 16.0375L8.24999 9.35V22C8.24999 22.4641 8.43436 22.9092 8.76255 23.2374C9.09074 23.5656 9.53586 23.75 9.99999 23.75H10.25V26ZM28.2412 16.2412L25.5612 26.0662C25.5468 26.1189 25.5155 26.1653 25.4722 26.1985C25.4288 26.2317 25.3758 26.2498 25.3212 26.25H22C21.9337 26.25 21.8701 26.2237 21.8232 26.1768C21.7763 26.1299 21.75 26.0663 21.75 26V23.75H22C22.4641 23.75 22.9092 23.5656 23.2374 23.2374C23.5656 22.9092 23.75 22.4641 23.75 22V9.35L28.2075 16.0375C28.2273 16.0671 28.2406 16.1006 28.2464 16.1357C28.2522 16.1709 28.2505 16.2068 28.2412 16.2412Z" fill="white"/>
</svg>
