<svg width="32" height="32" viewBox="0 0 32 32" fill="none" xmlns="http://www.w3.org/2000/svg">
<path d="M31 26.25H29.75V16C29.75 15.5359 29.5656 15.0908 29.2374 14.7626C28.9092 14.4344 28.4641 14.25 28 14.25H20.75V6C20.75 5.53587 20.5656 5.09075 20.2374 4.76256C19.9092 4.43437 19.4641 4.25 19 4.25H7C6.53587 4.25 6.09075 4.43437 5.76256 4.76256C5.43437 5.09075 5.25 5.53587 5.25 6V26.25H4C3.80109 26.25 3.61032 26.329 3.46967 26.4697C3.32902 26.6103 3.25 26.8011 3.25 27C3.25 27.1989 3.32902 27.3897 3.46967 27.5303C3.61032 27.671 3.80109 27.75 4 27.75H31C31.1989 27.75 31.3897 27.671 31.5303 27.5303C31.671 27.3897 31.75 27.1989 31.75 27C31.75 26.8011 31.671 26.6103 31.5303 26.4697C31.3897 26.329 31.1989 26.25 31 26.25ZM28 15.75C28.0663 15.75 28.1299 15.7763 28.1768 15.8232C28.2237 15.8701 28.25 15.9337 28.25 16V26.25H20.75V15.75H28ZM6.75 6C6.75 5.9337 6.77634 5.87011 6.82322 5.82322C6.87011 5.77634 6.9337 5.75 7 5.75H19C19.0663 5.75 19.1299 5.77634 19.1768 5.82322C19.2237 5.87011 19.25 5.9337 19.25 6V26.25H16.75V20C16.75 19.8011 16.671 19.6103 16.5303 19.4697C16.3897 19.329 16.1989 19.25 16 19.25H10C9.80109 19.25 9.61032 19.329 9.46967 19.4697C9.32902 19.6103 9.25 19.8011 9.25 20V26.25H6.75V6ZM15.25 26.25H10.75V20.75H15.25V26.25ZM9.25 12C9.25 11.8011 9.32902 11.6103 9.46967 11.4697C9.61032 11.329 9.80109 11.25 10 11.25H12.25V9C12.25 8.80109 12.329 8.61032 12.4697 8.46967C12.6103 8.32902 12.8011 8.25 13 8.25C13.1989 8.25 13.3897 8.32902 13.5303 8.46967C13.671 8.61032 13.75 8.80109 13.75 9V11.25H16C16.1989 11.25 16.3897 11.329 16.5303 11.4697C16.671 11.6103 16.75 11.8011 16.75 12C16.75 12.1989 16.671 12.3897 16.5303 12.5303C16.3897 12.671 16.1989 12.75 16 12.75H13.75V15C13.75 15.1989 13.671 15.3897 13.5303 15.5303C13.3897 15.671 13.1989 15.75 13 15.75C12.8011 15.75 12.6103 15.671 12.4697 15.5303C12.329 15.3897 12.25 15.1989 12.25 15V12.75H10C9.80109 12.75 9.61032 12.671 9.46967 12.5303C9.32902 12.3897 9.25 12.1989 9.25 12Z" fill="white"/>
</svg>
