<svg width="32" height="32" viewBox="0 0 32 32" fill="none" xmlns="http://www.w3.org/2000/svg">
<path d="M26.2251 24.75L17.0851 16L26.2251 7.25L26.2364 7.23875C26.4815 6.99415 26.6485 6.68232 26.7164 6.34274C26.7842 6.00316 26.7497 5.6511 26.6174 5.3311C26.485 5.01111 26.2607 4.73758 25.9728 4.54513C25.6849 4.35269 25.3464 4.24997 25.0001 4.25H7.00013C6.65399 4.24998 6.31562 4.3526 6.02781 4.54489C5.74001 4.73718 5.51568 5.0105 5.38322 5.33029C5.25076 5.65007 5.2161 6.00196 5.28363 6.34144C5.35117 6.68093 5.51786 6.99276 5.76263 7.2375L5.77388 7.24875L14.9139 15.9987L5.77513 24.75L5.76388 24.7612C5.51876 25.0059 5.35171 25.3177 5.28389 25.6573C5.21607 25.9968 5.25052 26.3489 5.38288 26.6689C5.51524 26.9889 5.73956 27.2624 6.02745 27.4549C6.31533 27.6473 6.65384 27.75 7.00013 27.75H25.0001C25.3463 27.75 25.6846 27.6474 25.9724 27.4551C26.2603 27.2628 26.4846 26.9895 26.617 26.6697C26.7495 26.3499 26.7842 25.998 26.7166 25.6586C26.6491 25.3191 26.4824 25.0072 26.2376 24.7625L26.2251 24.75ZM6.77013 5.90375C6.78776 5.85741 6.81937 5.81772 6.86059 5.79017C6.9018 5.76261 6.95057 5.74858 7.00013 5.75H25.0001C25.0491 5.74994 25.097 5.76426 25.1379 5.79118C25.1788 5.8181 25.2109 5.85644 25.2302 5.90144C25.2495 5.94643 25.2551 5.99611 25.2465 6.04429C25.2378 6.09248 25.2152 6.13706 25.1814 6.1725L16.0001 14.9613L6.82013 6.1725C6.78528 6.13821 6.7618 6.09405 6.75286 6.04599C6.74392 5.99793 6.74994 5.94828 6.77013 5.90375ZM25.2301 26.0963C25.2125 26.1426 25.1809 26.1823 25.1397 26.2098C25.0985 26.2374 25.0497 26.2514 25.0001 26.25H7.00013C6.95117 26.2501 6.90327 26.2357 6.86237 26.2088C6.82147 26.1819 6.78938 26.1436 6.77008 26.0986C6.75078 26.0536 6.74511 26.0039 6.75379 25.9557C6.76246 25.9075 6.78509 25.8629 6.81888 25.8275L16.0001 17.0387L25.1801 25.8275C25.215 25.8618 25.2385 25.9059 25.2474 25.954C25.2563 26.0021 25.2503 26.0517 25.2301 26.0963Z" fill="white"/>
</svg>
