<svg width="32" height="32" viewBox="0 0 32 32" fill="none" xmlns="http://www.w3.org/2000/svg">
<path d="M30 26.25H27.75V16.3963L28.47 17.1163C28.6111 17.255 28.8013 17.3323 28.9992 17.3313C29.197 17.3304 29.3865 17.2514 29.5263 17.1114C29.6662 16.9714 29.745 16.7818 29.7457 16.584C29.7464 16.3861 29.6688 16.196 29.53 16.055L17.2375 3.76128C17.075 3.59876 16.8821 3.46984 16.6697 3.38189C16.4574 3.29393 16.2298 3.24866 16 3.24866C15.7702 3.24866 15.5426 3.29393 15.3303 3.38189C15.1179 3.46984 14.925 3.59876 14.7625 3.76128L2.47 16.055C2.33115 16.196 2.25363 16.3861 2.25431 16.584C2.255 16.7818 2.33384 16.9714 2.47367 17.1114C2.61349 17.2514 2.80297 17.3304 3.00082 17.3313C3.19868 17.3323 3.38888 17.255 3.53 17.1163L4.25 16.3963V26.25H2C1.80109 26.25 1.61032 26.3291 1.46967 26.4697C1.32902 26.6104 1.25 26.8011 1.25 27C1.25 27.1989 1.32902 27.3897 1.46967 27.5304C1.61032 27.671 1.80109 27.75 2 27.75H30C30.1989 27.75 30.3897 27.671 30.5303 27.5304C30.671 27.3897 30.75 27.1989 30.75 27C30.75 26.8011 30.671 26.6104 30.5303 26.4697C30.3897 26.3291 30.1989 26.25 30 26.25ZM5.75 14.8963L15.8225 4.82253C15.8457 4.7991 15.8734 4.7805 15.9039 4.76781C15.9343 4.75512 15.967 4.74858 16 4.74858C16.033 4.74858 16.0657 4.75512 16.0961 4.76781C16.1266 4.7805 16.1543 4.7991 16.1775 4.82253L26.25 14.8963V26.25H19.75V19C19.75 18.8011 19.671 18.6104 19.5303 18.4697C19.3897 18.3291 19.1989 18.25 19 18.25H13C12.8011 18.25 12.6103 18.3291 12.4697 18.4697C12.329 18.6104 12.25 18.8011 12.25 19V26.25H5.75V14.8963ZM18.25 26.25H13.75V19.75H18.25V26.25Z" fill="white"/>
</svg>
