<svg width="32" height="32" viewBox="0 0 32 32" fill="none" xmlns="http://www.w3.org/2000/svg">
<path d="M27.2375 13.7625L17.2375 3.7625C17.075 3.59998 16.8821 3.47106 16.6697 3.38311C16.4574 3.29515 16.2298 3.24988 16 3.24988C15.7702 3.24988 15.5426 3.29515 15.3303 3.38311C15.1179 3.47106 14.925 3.59998 14.7625 3.7625L4.76251 13.7625C4.59956 13.9247 4.47037 14.1176 4.38241 14.33C4.29444 14.5424 4.24944 14.7701 4.25001 15V27C4.25001 27.1989 4.32902 27.3897 4.46968 27.5303C4.61033 27.671 4.80109 27.75 5.00001 27.75H27C27.1989 27.75 27.3897 27.671 27.5303 27.5303C27.671 27.3897 27.75 27.1989 27.75 27V15C27.7506 14.7701 27.7056 14.5424 27.6176 14.33C27.5296 14.1176 27.4004 13.9247 27.2375 13.7625ZM26.25 26.25H5.75001V15C5.74981 14.9671 5.75612 14.9345 5.76856 14.904C5.781 14.8736 5.79934 14.8459 5.82251 14.8225L15.8225 4.8225C15.8457 4.79907 15.8734 4.78047 15.9039 4.76778C15.9343 4.75509 15.967 4.74855 16 4.74855C16.033 4.74855 16.0657 4.75509 16.0961 4.76778C16.1266 4.78047 16.1543 4.79907 16.1775 4.8225L26.1775 14.8225C26.2007 14.8459 26.219 14.8736 26.2314 14.904C26.2439 14.9345 26.2502 14.9671 26.25 15V26.25Z" fill="white"/>
</svg>
