<svg width="32" height="32" viewBox="0 0 32 32" fill="none" xmlns="http://www.w3.org/2000/svg">
<path d="M16 12.25C15.2583 12.25 14.5333 12.47 13.9166 12.882C13.2999 13.2941 12.8193 13.8798 12.5355 14.565C12.2516 15.2502 12.1774 16.0042 12.3221 16.7316C12.4667 17.4591 12.8239 18.1272 13.3483 18.6517C13.8728 19.1761 14.541 19.5333 15.2684 19.678C15.9958 19.8227 16.7498 19.7484 17.4351 19.4646C18.1203 19.1808 18.706 18.7001 19.118 18.0834C19.5301 17.4667 19.75 16.7417 19.75 16C19.75 15.0055 19.3549 14.0517 18.6517 13.3484C17.9484 12.6451 16.9946 12.25 16 12.25ZM16 18.25C15.555 18.25 15.12 18.1181 14.75 17.8708C14.38 17.6236 14.0916 17.2722 13.9213 16.8611C13.751 16.4499 13.7064 15.9975 13.7932 15.5611C13.88 15.1246 14.0943 14.7237 14.409 14.4091C14.7237 14.0944 15.1246 13.8801 15.561 13.7933C15.9975 13.7065 16.4499 13.751 16.861 13.9213C17.2722 14.0916 17.6236 14.38 17.8708 14.75C18.118 15.12 18.25 15.555 18.25 16C18.25 16.5968 18.0129 17.1691 17.591 17.591C17.169 18.013 16.5967 18.25 16 18.25ZM19.4888 5.82879L20.725 1.19254C20.758 1.06848 20.7587 0.938011 20.7269 0.813628C20.695 0.689245 20.6318 0.575114 20.5433 0.482161C20.4547 0.389208 20.3438 0.320546 20.2211 0.282749C20.0984 0.244952 19.968 0.239286 19.8425 0.266293C17.2727 0.89783 14.8236 1.94586 12.5925 3.36879C7.79 6.45754 5.25 10.825 5.25 16C5.25121 18.2403 5.95145 20.4243 7.25309 22.2476C8.55473 24.0708 10.3929 25.4425 12.5112 26.1713L11.275 30.8063C11.2417 30.9304 11.2408 31.0611 11.2725 31.1856C11.3042 31.3102 11.3674 31.4245 11.456 31.5176C11.5446 31.6108 11.6557 31.6795 11.7785 31.7174C11.9014 31.7552 12.0319 31.7609 12.1575 31.7338C14.7273 31.1023 17.1764 30.0542 19.4075 28.6313C24.21 25.5425 26.75 21.175 26.75 16C26.749 13.7598 26.0488 11.5757 24.7471 9.75236C23.4455 7.92904 21.6072 6.55742 19.4888 5.82879ZM18.6313 27.345C16.8962 28.4466 15.0239 29.3152 13.0625 29.9288L14.1475 25.8575C14.1728 25.7623 14.1791 25.6631 14.166 25.5654C14.1529 25.4678 14.1208 25.3737 14.0713 25.2885C14.0219 25.2033 13.9561 25.1287 13.8778 25.0689C13.7995 25.0091 13.7102 24.9653 13.615 24.94C11.6462 24.4133 9.90629 23.2517 8.66505 21.6353C7.42382 20.0189 6.75066 18.038 6.75 16C6.75 11.3088 8.9775 7.49129 13.375 4.65379C15.1084 3.55359 16.9784 2.68536 18.9375 2.07129L17.8525 6.14254C17.8272 6.23775 17.8209 6.33701 17.834 6.43465C17.8471 6.53229 17.8792 6.6264 17.9287 6.7116C17.9781 6.7968 18.0439 6.87143 18.1222 6.93122C18.2005 6.991 18.2898 7.03478 18.385 7.06004C20.3538 7.58674 22.0937 8.74839 23.3349 10.3648C24.5762 11.9812 25.2493 13.962 25.25 16C25.25 20.6913 23.0225 24.5088 18.6313 27.345Z" fill="white"/>
</svg>
