<svg width="32" height="32" viewBox="0 0 32 32" fill="none" xmlns="http://www.w3.org/2000/svg">
<path d="M25.75 12.3538V12C25.75 9.41414 24.7228 6.93419 22.8943 5.10571C21.0658 3.27723 18.5859 2.25 16 2.25C13.4141 2.25 10.9342 3.27723 9.10571 5.10571C7.27723 6.93419 6.25 9.41414 6.25 12V12.3538C5.61099 12.5344 5.05894 12.9402 4.69581 13.4962C4.33268 14.0522 4.183 14.7208 4.27442 15.3786C4.36584 16.0363 4.69217 16.6388 5.19316 17.0747C5.69414 17.5105 6.33593 17.7504 7 17.75H7.55625L14.48 29.875C14.633 30.1431 14.8542 30.366 15.1211 30.5211C15.3881 30.6761 15.6913 30.7578 16 30.7578C16.3087 30.7578 16.6119 30.6761 16.8789 30.5211C17.1458 30.366 17.367 30.1431 17.52 29.875L24.4438 17.75H25C25.6641 17.7504 26.3059 17.5105 26.8068 17.0747C27.3078 16.6388 27.6342 16.0363 27.7256 15.3786C27.817 14.7208 27.6673 14.0522 27.3042 13.4962C26.9411 12.9402 26.389 12.5344 25.75 12.3538ZM16.2175 29.125C16.1957 29.1635 16.1641 29.1955 16.1259 29.2177C16.0877 29.24 16.0442 29.2517 16 29.2517C15.9558 29.2517 15.9123 29.24 15.8741 29.2177C15.8359 29.1955 15.8043 29.1635 15.7825 29.125L9.2825 17.75H12.2825L17.5 26.8825L16.2175 29.125ZM17 17.75L19.8612 22.7575L18.3612 25.3713L14.0063 17.7463L17 17.75ZM20.725 21.25L18.725 17.75H22.725L20.725 21.25ZM25 16.25H7C6.66848 16.25 6.35054 16.1183 6.11612 15.8839C5.8817 15.6495 5.75 15.3315 5.75 15C5.75 14.6685 5.8817 14.3505 6.11612 14.1161C6.35054 13.8817 6.66848 13.75 7 13.75C7.19891 13.75 7.38968 13.671 7.53033 13.5303C7.67098 13.3897 7.75 13.1989 7.75 13V12C7.75 9.81196 8.61919 7.71354 10.1664 6.16637C11.7135 4.61919 13.812 3.75 16 3.75C18.188 3.75 20.2865 4.61919 21.8336 6.16637C23.3808 7.71354 24.25 9.81196 24.25 12V13C24.25 13.1989 24.329 13.3897 24.4697 13.5303C24.6103 13.671 24.8011 13.75 25 13.75C25.3315 13.75 25.6495 13.8817 25.8839 14.1161C26.1183 14.3505 26.25 14.6685 26.25 15C26.25 15.3315 26.1183 15.6495 25.8839 15.8839C25.6495 16.1183 25.3315 16.25 25 16.25Z" fill="white"/>
</svg>
