<svg width="32" height="32" viewBox="0 0 32 32" fill="none" xmlns="http://www.w3.org/2000/svg">
<path d="M27 5.25H5C4.53587 5.25 4.09075 5.43437 3.76256 5.76256C3.43437 6.09075 3.25 6.53587 3.25 7V25C3.25 25.4641 3.43437 25.9092 3.76256 26.2374C4.09075 26.5656 4.53587 26.75 5 26.75H13C13.1573 26.75 13.3107 26.7005 13.4383 26.6085C13.5659 26.5165 13.6614 26.3867 13.7113 26.2375L15.6012 20.5675L20.2787 18.6925C20.373 18.6548 20.4585 18.5983 20.5303 18.5266C20.6021 18.4548 20.6585 18.3692 20.6963 18.275L22.5713 13.5975L28.2375 11.7113C28.3867 11.6614 28.5165 11.5659 28.6085 11.4383C28.7005 11.3107 28.75 11.1573 28.75 11V7C28.75 6.53587 28.5656 6.09075 28.2374 5.76256C27.9092 5.43437 27.4641 5.25 27 5.25ZM14.7212 19.3037C14.6202 19.3442 14.5291 19.4062 14.4545 19.4855C14.3798 19.5647 14.3232 19.6592 14.2887 19.7625L12.46 25.25H5C4.9337 25.25 4.87011 25.2237 4.82322 25.1768C4.77634 25.1299 4.75 25.0663 4.75 25V21.3962L11.3225 14.8237C11.3457 14.8005 11.3733 14.7821 11.4036 14.7695C11.434 14.7569 11.4665 14.7504 11.4994 14.7504C11.5322 14.7504 11.5648 14.7569 11.5951 14.7695C11.6255 14.7821 11.653 14.8005 11.6763 14.8237L15.75 18.8937L14.7212 19.3037ZM27.25 10.46L21.7625 12.2887C21.6592 12.3232 21.5647 12.3798 21.4855 12.4545C21.4062 12.5291 21.3442 12.6202 21.3037 12.7212L19.4225 17.4225L17.2625 18.2875L12.7375 13.7625C12.575 13.6 12.3821 13.4711 12.1697 13.3831C11.9574 13.2951 11.7298 13.2499 11.5 13.2499C11.2702 13.2499 11.0426 13.2951 10.8303 13.3831C10.6179 13.4711 10.425 13.6 10.2625 13.7625L4.75 19.275V7C4.75 6.9337 4.77634 6.87011 4.82322 6.82322C4.87011 6.77634 4.9337 6.75 5 6.75H27C27.0663 6.75 27.1299 6.77634 27.1768 6.82322C27.2237 6.87011 27.25 6.9337 27.25 7V10.46ZM28.4387 14.6075C28.3422 14.538 28.2306 14.4925 28.113 14.4747C27.9954 14.4569 27.8753 14.4672 27.7625 14.505L24.7875 15.5C24.6841 15.5346 24.5895 15.5913 24.5103 15.6663C24.431 15.7412 24.3691 15.8324 24.3288 15.9338L22.5 20.5L17.93 22.3288C17.8294 22.3695 17.7388 22.4317 17.6646 22.5109C17.5904 22.5901 17.5342 22.6845 17.5 22.7875L16.5 25.7625C16.4624 25.8752 16.4521 25.9953 16.4699 26.1128C16.4878 26.2303 16.5334 26.3419 16.6028 26.4383C16.6723 26.5348 16.7637 26.6133 16.8695 26.6675C16.9752 26.7217 17.0924 26.75 17.2113 26.75H27C27.4641 26.75 27.9092 26.5656 28.2374 26.2374C28.5656 25.9092 28.75 25.4641 28.75 25V15.2163C28.7501 15.0974 28.7219 14.9802 28.6678 14.8743C28.6137 14.7685 28.5352 14.677 28.4387 14.6075ZM27.25 25C27.25 25.0663 27.2237 25.1299 27.1768 25.1768C27.1299 25.2237 27.0663 25.25 27 25.25H18.2575L18.81 23.5925L23.3563 21.7738C23.4505 21.736 23.536 21.6796 23.6078 21.6078C23.6796 21.536 23.736 21.4505 23.7738 21.3563L25.5925 16.81L27.25 16.2575V25Z" fill="white"/>
</svg>
