<svg width="32" height="32" viewBox="0 0 32 32" fill="none" xmlns="http://www.w3.org/2000/svg">
<path d="M30.7499 16C30.7497 17.3349 30.3537 18.6398 29.612 19.7496C28.8703 20.8595 27.8162 21.7245 26.5829 22.2353C25.3496 22.7461 23.9926 22.8798 22.6833 22.6194C21.3741 22.359 20.1714 21.7163 19.2274 20.7725C19.2164 20.7623 19.2059 20.7514 19.1962 20.74L11.6962 12.2725C10.9602 11.5426 10.0247 11.0468 9.00748 10.8478C7.99026 10.6487 6.93687 10.7551 5.98007 11.1538C5.02327 11.5524 4.20587 12.2253 3.63089 13.0877C3.05592 13.9502 2.7491 14.9635 2.7491 16C2.7491 17.0365 3.05592 18.0499 3.63089 18.9123C4.20587 19.7747 5.02327 20.4476 5.98007 20.8462C6.93687 21.2449 7.99026 21.3513 9.00748 21.1523C10.0247 20.9532 10.9602 20.4574 11.6962 19.7275L12.7674 18.5188C12.8331 18.4449 12.9126 18.3847 13.0016 18.3416C13.0905 18.2984 13.187 18.2733 13.2857 18.2675C13.3844 18.2617 13.4832 18.2753 13.5766 18.3077C13.67 18.3401 13.756 18.3906 13.8299 18.4563C13.9038 18.5219 13.964 18.6015 14.0071 18.6904C14.0502 18.7793 14.0754 18.8759 14.0812 18.9746C14.087 19.0732 14.0733 19.1721 14.0409 19.2654C14.0085 19.3588 13.9581 19.4449 13.8924 19.5188L12.8062 20.745C12.7964 20.7564 12.786 20.7673 12.7749 20.7775C11.831 21.7216 10.6282 22.3647 9.31881 22.6252C8.00941 22.8858 6.65214 22.7522 5.41866 22.2413C4.18518 21.7305 3.1309 20.8653 2.38914 19.7552C1.64738 18.6452 1.25146 17.3401 1.25146 16.005C1.25146 14.6699 1.64738 13.3648 2.38914 12.2548C3.1309 11.1447 4.18518 10.2795 5.41866 9.76869C6.65214 9.25784 8.00941 9.12425 9.31881 9.3848C10.6282 9.64536 11.831 10.2884 12.7749 11.2325C12.786 11.2427 12.7964 11.2536 12.8062 11.265L20.3062 19.7325C21.0421 20.4624 21.9776 20.9582 22.9948 21.1573C24.012 21.3563 25.0654 21.2499 26.0222 20.8512C26.979 20.4526 27.7964 19.7797 28.3714 18.9173C28.9464 18.0549 29.2532 17.0415 29.2532 16.005C29.2532 14.9685 28.9464 13.9552 28.3714 13.0927C27.7964 12.2303 26.979 11.5574 26.0222 11.1588C25.0654 10.7601 24.012 10.6537 22.9948 10.8528C21.9776 11.0518 21.0421 11.5476 20.3062 12.2775L19.2349 13.4863C19.1692 13.5601 19.0897 13.6203 19.0007 13.6635C18.9118 13.7066 18.8153 13.7318 18.7166 13.7376C18.6179 13.7434 18.5191 13.7297 18.4257 13.6973C18.3324 13.6649 18.2463 13.6144 18.1724 13.5488C18.0985 13.4831 18.0383 13.4035 17.9952 13.3146C17.9521 13.2257 17.9269 13.1291 17.9211 13.0305C17.9153 12.9318 17.929 12.833 17.9614 12.7396C17.9938 12.6462 18.0442 12.5601 18.1099 12.4863L19.1962 11.26C19.2059 11.2486 19.2164 11.2377 19.2274 11.2275C20.1714 10.2837 21.3741 9.64097 22.6833 9.3806C23.9926 9.12022 25.3496 9.2539 26.5829 9.76471C27.8162 10.2755 28.8703 11.1405 29.612 12.2504C30.3537 13.3603 30.7497 14.6651 30.7499 16Z" fill="white"/>
</svg>
