<svg width="32" height="32" viewBox="0 0 32 32" fill="none" xmlns="http://www.w3.org/2000/svg">
<path d="M21.6138 10.3862C21.3178 8.62019 20.5412 6.96976 19.3691 5.61598C18.197 4.26219 16.6747 3.25734 14.9692 2.71163C13.2637 2.16593 11.4408 2.10046 9.70056 2.52239C7.9603 2.94432 6.36984 3.83737 5.10363 5.10357C3.83743 6.36978 2.94438 7.96024 2.52245 9.7005C2.10052 11.4408 2.16599 13.2636 2.71169 14.9691C3.2574 16.6746 4.26225 18.1969 5.61604 19.369C6.96982 20.5411 8.62025 21.3178 10.3863 21.6137C10.6823 23.3798 11.4589 25.0302 12.631 26.384C13.8031 27.7378 15.3254 28.7427 17.0309 29.2884C18.7364 29.8341 20.5593 29.8995 22.2996 29.4776C24.0398 29.0557 25.6303 28.1626 26.8965 26.8964C28.1627 25.6302 29.0557 24.0398 29.4777 22.2995C29.8996 20.5592 29.8341 18.7364 29.2884 17.0309C28.7427 15.3254 27.7379 13.8031 26.3841 12.631C25.0303 11.4589 23.3799 10.6822 21.6138 10.3862ZM3.75006 12C3.7512 9.96514 4.50432 8.00248 5.8647 6.4892C7.22508 4.97592 9.09673 4.01877 11.12 3.8017C13.1432 3.58463 15.1753 4.12295 16.8258 5.31321C18.4762 6.50347 19.6285 8.26169 20.0613 10.25H20.0001C17.4151 10.253 14.9369 11.2812 13.1091 13.109C11.2812 14.9368 10.253 17.415 10.2501 20C10.2501 20.0212 10.2501 20.0412 10.2501 20.0612C8.41013 19.6595 6.76264 18.6413 5.58052 17.1752C4.3984 15.7092 3.75258 13.8833 3.75006 12ZM11.7501 20C11.7487 18.8138 12.0045 17.6415 12.5001 16.5637L15.4363 19.5C14.3586 19.9955 13.1862 20.2514 12.0001 20.25C11.9188 20.25 11.8376 20.25 11.7501 20.2437C11.7501 20.1625 11.7501 20.0812 11.7501 20ZM16.7788 18.7187L13.2788 15.2187C13.8135 14.469 14.4691 13.8134 15.2188 13.2787L18.7188 16.7787C18.1841 17.5284 17.5285 18.1841 16.7788 18.7187ZM20.2501 12C20.2515 13.1862 19.9956 14.3585 19.5001 15.4362L16.5638 12.5C17.6415 12.0045 18.8139 11.7486 20.0001 11.75C20.0813 11.75 20.1626 11.75 20.2438 11.75C20.2501 11.8375 20.2501 11.9187 20.2501 12ZM20.0001 28.25C18.1168 28.2475 16.2909 27.6017 14.8248 26.4195C13.3588 25.2374 12.3405 23.5899 11.9388 21.75H12.0001C14.585 21.747 17.0632 20.7188 18.8911 18.891C20.7189 17.0632 21.7471 14.5849 21.7501 12C21.7501 11.9787 21.7501 11.9587 21.7501 11.9387C23.7384 12.3715 25.4966 13.5239 26.6868 15.1743C27.8771 16.8247 28.4154 18.8568 28.1984 20.8801C27.9813 22.9033 27.0241 24.775 25.5109 26.1354C23.9976 27.4957 22.0349 28.2489 20.0001 28.25Z" fill="white"/>
</svg>
