<svg width="32" height="32" viewBox="0 0 32 32" fill="none" xmlns="http://www.w3.org/2000/svg">
<path d="M25.75 15V25C25.75 25.1989 25.671 25.3897 25.5303 25.5303C25.3897 25.671 25.1989 25.75 25 25.75C24.8011 25.75 24.6103 25.671 24.4697 25.5303C24.329 25.3897 24.25 25.1989 24.25 25V15C24.25 12.812 23.3808 10.7135 21.8336 9.16637C20.2865 7.61919 18.188 6.75 16 6.75C13.812 6.75 11.7135 7.61919 10.1664 9.16637C8.61919 10.7135 7.75 12.812 7.75 15V25C7.75 25.1989 7.67098 25.3897 7.53033 25.5303C7.38968 25.671 7.19891 25.75 7 25.75C6.80109 25.75 6.61032 25.671 6.46967 25.5303C6.32902 25.3897 6.25 25.1989 6.25 25V15C6.25 12.4141 7.27723 9.93419 9.10571 8.10571C10.9342 6.27723 13.4141 5.25 16 5.25C18.5859 5.25 21.0658 6.27723 22.8943 8.10571C24.7228 9.93419 25.75 12.4141 25.75 15Z" fill="white"/>
</svg>
