<svg width="32" height="32" viewBox="0 0 32 32" fill="none" xmlns="http://www.w3.org/2000/svg">
<path d="M3.5 15.75C3.30109 15.75 3.11032 15.671 2.96967 15.5303C2.82902 15.3897 2.75 15.1989 2.75 15C2.75 14.8011 2.82902 14.6103 2.96967 14.4697C3.11032 14.329 3.30109 14.25 3.5 14.25H7C7.33152 14.25 7.64946 14.1183 7.88388 13.8839C8.1183 13.6495 8.25 13.3315 8.25 13C8.25 12.6685 8.1183 12.3505 7.88388 12.1161C7.64946 11.8817 7.33152 11.75 7 11.75H5C4.27065 11.75 3.57118 11.4603 3.05546 10.9445C2.53973 10.4288 2.25 9.72935 2.25 9C2.25 8.27065 2.53973 7.57118 3.05546 7.05546C3.57118 6.53973 4.27065 6.25 5 6.25H5.25V6C5.25 5.80109 5.32902 5.61032 5.46967 5.46967C5.61032 5.32902 5.80109 5.25 6 5.25C6.19891 5.25 6.38968 5.32902 6.53033 5.46967C6.67098 5.61032 6.75 5.80109 6.75 6V6.25H8C8.19891 6.25 8.38968 6.32902 8.53033 6.46967C8.67098 6.61032 8.75 6.80109 8.75 7C8.75 7.19891 8.67098 7.38968 8.53033 7.53033C8.38968 7.67098 8.19891 7.75 8 7.75H5C4.66848 7.75 4.35054 7.8817 4.11612 8.11612C3.8817 8.35054 3.75 8.66848 3.75 9C3.75 9.33152 3.8817 9.64946 4.11612 9.88388C4.35054 10.1183 4.66848 10.25 5 10.25H7C7.72935 10.25 8.42882 10.5397 8.94454 11.0555C9.46027 11.5712 9.75 12.2707 9.75 13C9.75 13.7293 9.46027 14.4288 8.94454 14.9445C8.42882 15.4603 7.72935 15.75 7 15.75H6.75V16C6.75 16.1989 6.67098 16.3897 6.53033 16.5303C6.38968 16.671 6.19891 16.75 6 16.75C5.80109 16.75 5.61032 16.671 5.46967 16.5303C5.32902 16.3897 5.25 16.1989 5.25 16V15.75H3.5ZM28.75 7V24C28.75 24.4641 28.5656 24.9092 28.2374 25.2374C27.9092 25.5656 27.4641 25.75 27 25.75H5C4.53587 25.75 4.09075 25.5656 3.76256 25.2374C3.43437 24.9092 3.25 24.4641 3.25 24V19C3.25 18.8011 3.32902 18.6103 3.46967 18.4697C3.61032 18.329 3.80109 18.25 4 18.25C4.19891 18.25 4.38968 18.329 4.53033 18.4697C4.67098 18.6103 4.75 18.8011 4.75 19V24C4.75 24.0663 4.77634 24.1299 4.82322 24.1768C4.87011 24.2237 4.9337 24.25 5 24.25H20.25V19.75H10C9.80109 19.75 9.61032 19.671 9.46967 19.5303C9.32902 19.3897 9.25 19.1989 9.25 19C9.25 18.8011 9.32902 18.6103 9.46967 18.4697C9.61032 18.329 9.80109 18.25 10 18.25H20.25V13.75H13C12.8011 13.75 12.6103 13.671 12.4697 13.5303C12.329 13.3897 12.25 13.1989 12.25 13C12.25 12.8011 12.329 12.6103 12.4697 12.4697C12.6103 12.329 12.8011 12.25 13 12.25H27.25V7.75H12C11.8011 7.75 11.6103 7.67098 11.4697 7.53033C11.329 7.38968 11.25 7.19891 11.25 7C11.25 6.80109 11.329 6.61032 11.4697 6.46967C11.6103 6.32902 11.8011 6.25 12 6.25H28C28.1989 6.25 28.3897 6.32902 28.5303 6.46967C28.671 6.61032 28.75 6.80109 28.75 7ZM21.75 18.25H27.25V13.75H21.75V18.25ZM27.25 24V19.75H21.75V24.25H27C27.0663 24.25 27.1299 24.2237 27.1768 24.1768C27.2237 24.1299 27.25 24.0663 27.25 24Z" fill="white"/>
</svg>
