<svg width="32" height="32" viewBox="0 0 32 32" fill="none" xmlns="http://www.w3.org/2000/svg">
<path d="M29.5864 28.4686C29.5249 28.5457 29.4488 28.6099 29.3624 28.6575C29.2761 28.7051 29.1812 28.7352 29.0832 28.7461C28.9852 28.7571 28.8861 28.7485 28.7914 28.7211C28.6967 28.6936 28.6083 28.6478 28.5314 28.5861C28.4839 28.5474 23.6251 24.7499 16.0001 24.7499C8.35138 24.7499 3.51637 28.5474 3.46887 28.5861C3.31339 28.7105 3.11489 28.7679 2.91704 28.7459C2.71919 28.7239 2.53819 28.6241 2.41387 28.4686C2.28955 28.3132 2.23209 28.1147 2.25413 27.9168C2.27616 27.719 2.37589 27.538 2.53137 27.4136C2.73512 27.2511 7.40637 23.5824 14.9801 23.2711C14.5413 21.6585 14.379 19.9831 14.5001 18.3161C14.7201 15.5574 15.9239 11.8474 20.2251 9.13739C19.3503 8.86871 18.439 8.73797 17.5239 8.74989C15.0564 8.82989 13.4426 10.3199 12.7276 13.1786C12.6877 13.3415 12.5943 13.4862 12.4624 13.5898C12.3306 13.6933 12.1678 13.7497 12.0001 13.7499C11.9386 13.7497 11.8773 13.7422 11.8176 13.7274C11.7221 13.7034 11.6322 13.6609 11.5531 13.6022C11.474 13.5435 11.4073 13.4698 11.3566 13.3853C11.306 13.3008 11.2726 13.2071 11.2582 13.1097C11.2437 13.0123 11.2487 12.9129 11.2726 12.8174C12.3914 8.34989 15.2626 7.32614 17.4764 7.25489C18.5617 7.23672 19.6432 7.38898 20.6814 7.70614C20.1939 6.74989 19.3751 5.58614 18.1251 5.05114C16.8064 4.48739 15.2051 4.72364 13.3639 5.74989C13.2777 5.80302 13.1816 5.83814 13.0815 5.85315C12.9814 5.86816 12.8793 5.86274 12.7813 5.83722C12.6833 5.8117 12.5915 5.76661 12.5114 5.70467C12.4314 5.64272 12.3647 5.5652 12.3153 5.47679C12.266 5.38837 12.2351 5.29088 12.2245 5.19019C12.2138 5.08951 12.2237 4.98772 12.2535 4.89095C12.2832 4.79418 12.3323 4.70444 12.3977 4.62713C12.463 4.54983 12.5434 4.48656 12.6339 4.44114C14.9051 3.17364 16.9539 2.91614 18.7226 3.67614C20.4001 4.39614 21.4439 5.88114 22.0439 7.07114C22.6251 6.05489 23.5614 4.88239 24.9314 4.43614C26.3314 3.97989 27.8526 4.36114 29.4514 5.56989C29.61 5.6899 29.7145 5.86801 29.7418 6.06504C29.7691 6.26207 29.717 6.46188 29.597 6.62052C29.477 6.77915 29.2989 6.88361 29.1018 6.91092C28.9048 6.93823 28.705 6.88615 28.5464 6.76614C27.3639 5.87239 26.3051 5.56739 25.4001 5.86114C24.2376 6.23614 23.4689 7.49489 23.0626 8.36114C24.0505 8.52478 25.0022 8.85937 25.8751 9.34989C27.6439 10.3611 29.7501 12.5086 29.7501 17.0011C29.7501 17.2001 29.6711 17.3908 29.5305 17.5315C29.3898 17.6721 29.199 17.7511 29.0001 17.7511C28.8012 17.7511 28.6104 17.6721 28.4698 17.5315C28.3291 17.3908 28.2501 17.2001 28.2501 17.0011C28.2501 12.2611 25.6001 10.6261 23.7501 10.0524C24.5878 11.4157 24.9146 13.032 24.6726 14.6136C24.5224 15.6185 24.1598 16.5799 23.6089 17.4336C23.4943 17.5964 23.3198 17.707 23.1237 17.7411C22.9276 17.7752 22.726 17.7301 22.5632 17.6155C22.4005 17.501 22.2899 17.3265 22.2558 17.1304C22.2216 16.9343 22.2668 16.7327 22.3814 16.5699C22.4789 16.4299 24.6076 13.2736 21.8326 9.93739C18.2739 11.8749 16.3126 14.7111 16.0001 18.3811C15.8763 20.0254 16.0586 21.6783 16.5376 23.2561C24.3901 23.4249 29.2589 27.2461 29.4664 27.4124C29.5438 27.4737 29.6083 27.5498 29.6563 27.6361C29.7043 27.7225 29.7347 27.8174 29.7458 27.9156C29.757 28.0137 29.7486 28.1131 29.7213 28.208C29.6939 28.3029 29.6481 28.3915 29.5864 28.4686ZM3.25012 17.4999C3.25012 16.8571 3.44073 16.2287 3.79785 15.6943C4.15496 15.1598 4.66254 14.7433 5.2564 14.4973C5.85026 14.2513 6.50373 14.1869 7.13417 14.3123C7.76461 14.4377 8.3437 14.7473 8.79822 15.2018C9.25274 15.6563 9.56227 16.2354 9.68768 16.8658C9.81308 17.4963 9.74872 18.1498 9.50273 18.7436C9.25675 19.3375 8.84019 19.8451 8.30573 20.2022C7.77127 20.5593 7.14291 20.7499 6.50012 20.7499C5.63817 20.7499 4.81152 20.4075 4.20203 19.798C3.59253 19.1885 3.25012 18.3618 3.25012 17.4999ZM4.75012 17.4999C4.75012 17.846 4.85276 18.1844 5.04505 18.4721C5.23734 18.7599 5.51066 18.9842 5.83043 19.1167C6.1502 19.2491 6.50207 19.2838 6.84153 19.2163C7.181 19.1487 7.49282 18.9821 7.73756 18.7373C7.9823 18.4926 8.14897 18.1808 8.2165 17.8413C8.28402 17.5018 8.24937 17.15 8.11691 16.8302C7.98446 16.5104 7.76016 16.2371 7.47237 16.0448C7.18459 15.8525 6.84624 15.7499 6.50012 15.7499C6.036 15.7499 5.59088 15.9343 5.26269 16.2625C4.9345 16.5906 4.75012 17.0358 4.75012 17.4999Z" fill="white"/>
</svg>
