<svg width="32" height="32" viewBox="0 0 32 32" fill="none" xmlns="http://www.w3.org/2000/svg">
<path d="M22.75 6.31V4C22.75 3.53587 22.5656 3.09075 22.2374 2.76256C21.9092 2.43437 21.4641 2.25 21 2.25H11C10.5359 2.25 10.0908 2.43437 9.76256 2.76256C9.43437 3.09075 9.25 3.53587 9.25 4V6.31C8.135 6.48957 7.12028 7.06004 6.38742 7.91932C5.65455 8.77861 5.25136 9.87064 5.25 11V25C5.25 26.2598 5.75045 27.468 6.64124 28.3588C7.53204 29.2496 8.74022 29.75 10 29.75H22C23.2598 29.75 24.468 29.2496 25.3588 28.3588C26.2496 27.468 26.75 26.2598 26.75 25V11C26.7486 9.87064 26.3454 8.77861 25.6126 7.91932C24.8797 7.06004 23.865 6.48957 22.75 6.31ZM6.75 13.75H25.25V22.25H6.75V13.75ZM21.25 4V6.25H18.75V3.75H21C21.0663 3.75 21.1299 3.77634 21.1768 3.82322C21.2237 3.87011 21.25 3.9337 21.25 4ZM14.75 6.25V3.75H17.25V6.25H14.75ZM11 3.75H13.25V6.25H10.75V4C10.75 3.9337 10.7763 3.87011 10.8232 3.82322C10.8701 3.77634 10.9337 3.75 11 3.75ZM10 7.75H22C22.862 7.75 23.6886 8.09241 24.2981 8.7019C24.9076 9.3114 25.25 10.138 25.25 11V12.25H6.75V11C6.75 10.138 7.09241 9.3114 7.7019 8.7019C8.3114 8.09241 9.13805 7.75 10 7.75ZM22 28.25H10C9.5732 28.25 9.15059 28.1659 8.75628 28.0026C8.36197 27.8393 8.00369 27.5999 7.7019 27.2981C7.40011 26.9963 7.16072 26.638 6.99739 26.2437C6.83406 25.8494 6.75 25.4268 6.75 25V23.75H25.25V25C25.25 25.4268 25.1659 25.8494 25.0026 26.2437C24.8393 26.638 24.5999 26.9963 24.2981 27.2981C23.9963 27.5999 23.638 27.8393 23.2437 28.0026C22.8494 28.1659 22.4268 28.25 22 28.25Z" fill="white"/>
</svg>
