<svg width="32" height="32" viewBox="0 0 32 32" fill="none" xmlns="http://www.w3.org/2000/svg">
<path d="M30 11.25H28.6063L27.4025 5.63375C27.3174 5.24275 27.1014 4.89249 26.7903 4.64088C26.4791 4.38927 26.0914 4.25138 25.6912 4.25H6.30875C5.9086 4.25138 5.52089 4.38927 5.20973 4.64088C4.89857 4.89249 4.6826 5.24275 4.5975 5.63375L3.39375 11.25H2C1.80109 11.25 1.61032 11.329 1.46967 11.4697C1.32902 11.6103 1.25 11.8011 1.25 12C1.25 12.1989 1.32902 12.3897 1.46967 12.5303C1.61032 12.671 1.80109 12.75 2 12.75H3.25V25C3.25 25.4641 3.43437 25.9092 3.76256 26.2374C4.09075 26.5656 4.53587 26.75 5 26.75H8C8.46413 26.75 8.90925 26.5656 9.23744 26.2374C9.56563 25.9092 9.75 25.4641 9.75 25V21.75H22.25V25C22.25 25.4641 22.4344 25.9092 22.7626 26.2374C23.0908 26.5656 23.5359 26.75 24 26.75H27C27.4641 26.75 27.9092 26.5656 28.2374 26.2374C28.5656 25.9092 28.75 25.4641 28.75 25V12.75H30C30.1989 12.75 30.3897 12.671 30.5303 12.5303C30.671 12.3897 30.75 12.1989 30.75 12C30.75 11.8011 30.671 11.6103 30.5303 11.4697C30.3897 11.329 30.1989 11.25 30 11.25ZM6.06375 5.9475C6.07595 5.89064 6.10758 5.83982 6.15321 5.80377C6.19884 5.76772 6.25561 5.74871 6.31375 5.75H25.6912C25.7494 5.74871 25.8062 5.76772 25.8518 5.80377C25.8974 5.83982 25.9291 5.89064 25.9412 5.9475L27.0725 11.25H4.9275L6.06375 5.9475ZM8.25 25C8.25 25.0663 8.22366 25.1299 8.17678 25.1768C8.12989 25.2237 8.0663 25.25 8 25.25H5C4.9337 25.25 4.87011 25.2237 4.82322 25.1768C4.77634 25.1299 4.75 25.0663 4.75 25V21.75H8.25V25ZM27 25.25H24C23.9337 25.25 23.8701 25.2237 23.8232 25.1768C23.7763 25.1299 23.75 25.0663 23.75 25V21.75H27.25V25C27.25 25.0663 27.2237 25.1299 27.1768 25.1768C27.1299 25.2237 27.0663 25.25 27 25.25ZM27.25 20.25H18.75V16C18.75 15.8011 18.671 15.6103 18.5303 15.4697C18.3897 15.329 18.1989 15.25 18 15.25C17.8011 15.25 17.6103 15.329 17.4697 15.4697C17.329 15.6103 17.25 15.8011 17.25 16V20.25H14.75V16C14.75 15.8011 14.671 15.6103 14.5303 15.4697C14.3897 15.329 14.1989 15.25 14 15.25C13.8011 15.25 13.6103 15.329 13.4697 15.4697C13.329 15.6103 13.25 15.8011 13.25 16V20.25H4.75V12.75H27.25V20.25ZM7.25 16.5C7.25 16.2528 7.32331 16.0111 7.46066 15.8055C7.59801 15.6 7.79324 15.4398 8.02165 15.3452C8.25005 15.2505 8.50139 15.2258 8.74386 15.274C8.98634 15.3222 9.20907 15.4413 9.38388 15.6161C9.5587 15.7909 9.67775 16.0137 9.72598 16.2561C9.77421 16.4986 9.74946 16.7499 9.65485 16.9784C9.56024 17.2068 9.40002 17.402 9.19446 17.5393C8.9889 17.6767 8.74723 17.75 8.5 17.75C8.16848 17.75 7.85054 17.6183 7.61612 17.3839C7.3817 17.1495 7.25 16.8315 7.25 16.5ZM22.25 16.5C22.25 16.2528 22.3233 16.0111 22.4607 15.8055C22.598 15.6 22.7932 15.4398 23.0216 15.3452C23.2501 15.2505 23.5014 15.2258 23.7439 15.274C23.9863 15.3222 24.2091 15.4413 24.3839 15.6161C24.5587 15.7909 24.6777 16.0137 24.726 16.2561C24.7742 16.4986 24.7495 16.7499 24.6549 16.9784C24.5602 17.2068 24.4 17.402 24.1945 17.5393C23.9889 17.6767 23.7472 17.75 23.5 17.75C23.1685 17.75 22.8505 17.6183 22.6161 17.3839C22.3817 17.1495 22.25 16.8315 22.25 16.5Z" fill="white"/>
</svg>
