<svg width="32" height="32" viewBox="0 0 32 32" fill="none" xmlns="http://www.w3.org/2000/svg">
<path d="M26 18.25H16.75V11.69C17.9297 11.5014 18.9949 10.8751 19.7335 9.93613C20.4721 8.99713 20.8297 7.8143 20.7351 6.62339C20.6405 5.43248 20.1006 4.32096 19.223 3.51035C18.3455 2.69974 17.1947 2.24957 16 2.24957C14.8053 2.24957 13.6546 2.69974 12.777 3.51035C11.8994 4.32096 11.3595 5.43248 11.2649 6.62339C11.1703 7.8143 11.5279 8.99713 12.2665 9.93613C13.0051 10.8751 14.0703 11.5014 15.25 11.69V18.25H6C5.53587 18.25 5.09075 18.4344 4.76256 18.7626C4.43437 19.0907 4.25 19.5359 4.25 20V26C4.25 26.4641 4.43437 26.9092 4.76256 27.2374C5.09075 27.5656 5.53587 27.75 6 27.75H26C26.4641 27.75 26.9092 27.5656 27.2374 27.2374C27.5656 26.9092 27.75 26.4641 27.75 26V20C27.75 19.5359 27.5656 19.0907 27.2374 18.7626C26.9092 18.4344 26.4641 18.25 26 18.25ZM12.75 6.99999C12.75 6.3572 12.9406 5.72885 13.2977 5.19439C13.6548 4.65993 14.1624 4.24336 14.7563 3.99738C15.3501 3.7514 16.0036 3.68703 16.634 3.81244C17.2645 3.93784 17.8436 4.24737 18.2981 4.70189C18.7526 5.15641 19.0621 5.73551 19.1876 6.36594C19.313 6.99638 19.2486 7.64985 19.0026 8.24371C18.7566 8.83757 18.3401 9.34515 17.8056 9.70226C17.2711 10.0594 16.6428 10.25 16 10.25C15.138 10.25 14.3114 9.90758 13.7019 9.29809C13.0924 8.68859 12.75 7.86194 12.75 6.99999ZM26.25 26C26.25 26.0663 26.2237 26.1299 26.1768 26.1768C26.1299 26.2236 26.0663 26.25 26 26.25H6C5.9337 26.25 5.87011 26.2236 5.82322 26.1768C5.77634 26.1299 5.75 26.0663 5.75 26V20C5.75 19.9337 5.77634 19.8701 5.82322 19.8232C5.87011 19.7763 5.9337 19.75 6 19.75H26C26.0663 19.75 26.1299 19.7763 26.1768 19.8232C26.2237 19.8701 26.25 19.9337 26.25 20V26ZM21 14.25H25C25.1989 14.25 25.3897 14.329 25.5303 14.4697C25.671 14.6103 25.75 14.8011 25.75 15C25.75 15.1989 25.671 15.3897 25.5303 15.5303C25.3897 15.671 25.1989 15.75 25 15.75H21C20.8011 15.75 20.6103 15.671 20.4697 15.5303C20.329 15.3897 20.25 15.1989 20.25 15C20.25 14.8011 20.329 14.6103 20.4697 14.4697C20.6103 14.329 20.8011 14.25 21 14.25Z" fill="white"/>
</svg>
