<svg width="32" height="32" viewBox="0 0 32 32" fill="none" xmlns="http://www.w3.org/2000/svg">
<path d="M28 6.25H4C3.53587 6.25 3.09075 6.43437 2.76256 6.76256C2.43437 7.09075 2.25 7.53587 2.25 8V24C2.25 24.4641 2.43437 24.9092 2.76256 25.2374C3.09075 25.5656 3.53587 25.75 4 25.75H28C28.4641 25.75 28.9092 25.5656 29.2374 25.2374C29.5656 24.9092 29.75 24.4641 29.75 24V8C29.75 7.53587 29.5656 7.09075 29.2374 6.76256C28.9092 6.43437 28.4641 6.25 28 6.25ZM28.25 24C28.25 24.0663 28.2237 24.1299 28.1768 24.1768C28.1299 24.2237 28.0663 24.25 28 24.25H4C3.9337 24.25 3.87011 24.2237 3.82322 24.1768C3.77634 24.1299 3.75 24.0663 3.75 24V8C3.75 7.9337 3.77634 7.87011 3.82322 7.82322C3.87011 7.77634 3.9337 7.75 4 7.75H28C28.0663 7.75 28.1299 7.77634 28.1768 7.82322C28.2237 7.87011 28.25 7.9337 28.25 8V24ZM25.75 16C25.75 16.1989 25.671 16.3897 25.5303 16.5303C25.3897 16.671 25.1989 16.75 25 16.75H7C6.80109 16.75 6.61032 16.671 6.46967 16.5303C6.32902 16.3897 6.25 16.1989 6.25 16C6.25 15.8011 6.32902 15.6103 6.46967 15.4697C6.61032 15.329 6.80109 15.25 7 15.25H25C25.1989 15.25 25.3897 15.329 25.5303 15.4697C25.671 15.6103 25.75 15.8011 25.75 16ZM25.75 12C25.75 12.1989 25.671 12.3897 25.5303 12.5303C25.3897 12.671 25.1989 12.75 25 12.75H7C6.80109 12.75 6.61032 12.671 6.46967 12.5303C6.32902 12.3897 6.25 12.1989 6.25 12C6.25 11.8011 6.32902 11.6103 6.46967 11.4697C6.61032 11.329 6.80109 11.25 7 11.25H25C25.1989 11.25 25.3897 11.329 25.5303 11.4697C25.671 11.6103 25.75 11.8011 25.75 12ZM8.75 20C8.75 20.1989 8.67098 20.3897 8.53033 20.5303C8.38968 20.671 8.19891 20.75 8 20.75H7C6.80109 20.75 6.61032 20.671 6.46967 20.5303C6.32902 20.3897 6.25 20.1989 6.25 20C6.25 19.8011 6.32902 19.6103 6.46967 19.4697C6.61032 19.329 6.80109 19.25 7 19.25H8C8.19891 19.25 8.38968 19.329 8.53033 19.4697C8.67098 19.6103 8.75 19.8011 8.75 20ZM20.75 20C20.75 20.1989 20.671 20.3897 20.5303 20.5303C20.3897 20.671 20.1989 20.75 20 20.75H12C11.8011 20.75 11.6103 20.671 11.4697 20.5303C11.329 20.3897 11.25 20.1989 11.25 20C11.25 19.8011 11.329 19.6103 11.4697 19.4697C11.6103 19.329 11.8011 19.25 12 19.25H20C20.1989 19.25 20.3897 19.329 20.5303 19.4697C20.671 19.6103 20.75 19.8011 20.75 20ZM25.75 20C25.75 20.1989 25.671 20.3897 25.5303 20.5303C25.3897 20.671 25.1989 20.75 25 20.75H24C23.8011 20.75 23.6103 20.671 23.4697 20.5303C23.329 20.3897 23.25 20.1989 23.25 20C23.25 19.8011 23.329 19.6103 23.4697 19.4697C23.6103 19.329 23.8011 19.25 24 19.25H25C25.1989 19.25 25.3897 19.329 25.5303 19.4697C25.671 19.6103 25.75 19.8011 25.75 20Z" fill="white"/>
</svg>
