<svg width="32" height="32" viewBox="0 0 32 32" fill="none" xmlns="http://www.w3.org/2000/svg">
<path d="M28.8075 4.19378C28.2025 3.58916 27.3822 3.24951 26.5269 3.24951C25.6715 3.24951 24.8512 3.58916 24.2462 4.19378L2.46998 25.9775C2.37528 26.0722 2.30763 26.1904 2.27407 26.32C2.24051 26.4496 2.24225 26.5859 2.27911 26.7146C2.31598 26.8433 2.38662 26.9598 2.48371 27.0519C2.58079 27.1441 2.70079 27.2086 2.83123 27.2388C4.29624 27.5778 5.79501 27.7493 7.29873 27.75C11.37 27.75 15.445 26.4875 19.2825 24.0113C23.2187 21.4713 25.4975 18.5875 25.5925 18.4663C25.7052 18.3219 25.7613 18.1413 25.75 17.9584C25.7387 17.7756 25.6609 17.6032 25.5312 17.4738L22.8112 14.75L28.8112 8.75003C29.4123 8.14395 29.7493 7.32473 29.7486 6.47113C29.7479 5.61754 29.4096 4.79887 28.8075 4.19378ZM23.9825 18.0463C22.3591 19.8495 20.5052 21.4311 18.4687 22.75C13.9375 25.675 9.24998 26.7788 4.52873 26.04L18.25 12.3125L23.9825 18.0463ZM27.75 7.69503L21.75 13.695L19.3112 11.25L25.3112 5.25003C25.6355 4.92663 26.0749 4.74528 26.5328 4.74586C26.9908 4.74645 27.4297 4.92893 27.7531 5.25316C28.0765 5.57738 28.2579 6.0168 28.2573 6.47474C28.2567 6.93268 28.0742 7.37163 27.75 7.69503Z" fill="white"/>
</svg>
