<svg width="32" height="32" viewBox="0 0 32 32" fill="none" xmlns="http://www.w3.org/2000/svg">
<path d="M26.705 26.75L20.2975 9.125L21.525 5.75H23C23.1989 5.75 23.3897 5.67098 23.5303 5.53033C23.671 5.38968 23.75 5.19891 23.75 5C23.75 4.80109 23.671 4.61032 23.5303 4.46967C23.3897 4.32902 23.1989 4.25 23 4.25H11C10.8011 4.25 10.6103 4.32902 10.4696 4.46967C10.329 4.61032 10.25 4.80109 10.25 5C10.25 5.19891 10.329 5.38968 10.4696 5.53033C10.6103 5.67098 10.8011 5.75 11 5.75H11.9287L4.29497 26.75C4.22921 26.937 4.24016 27.1424 4.32542 27.3214C4.41068 27.5003 4.56332 27.6383 4.74997 27.705C4.83023 27.7338 4.91472 27.749 4.99997 27.75C5.15396 27.75 5.30422 27.7027 5.43035 27.6143C5.55648 27.526 5.65236 27.401 5.70497 27.2563L6.97997 23.75H13.3837L12.295 26.75C12.2613 26.8426 12.2462 26.9409 12.2505 27.0393C12.2549 27.1377 12.2785 27.2343 12.3202 27.3236C12.3619 27.4128 12.4207 27.493 12.4934 27.5595C12.5661 27.6261 12.6511 27.6776 12.7437 27.7113C12.824 27.74 12.9085 27.7552 12.9937 27.7563C13.1477 27.7563 13.298 27.7089 13.4241 27.6206C13.5502 27.5322 13.6461 27.4072 13.6987 27.2625L16.0712 20.75H22.9287L25.295 27.2563C25.3476 27.401 25.4435 27.526 25.5696 27.6143C25.6957 27.7027 25.846 27.75 26 27.75C26.0873 27.7497 26.174 27.7344 26.2562 27.705C26.4417 27.637 26.5929 27.4986 26.6769 27.3198C26.761 27.1409 26.771 26.9362 26.705 26.75ZM16.1112 16.25H9.70747L11.3437 11.75H17.75L16.1112 16.25ZM19.9287 5.75L18.2925 10.25H11.8887L13.525 5.75H19.9287ZM7.52497 22.25L9.16122 17.75H15.565L13.9287 22.25H7.52497ZM16.6162 19.25L19.5 11.32L22.3837 19.25H16.6162Z" fill="white"/>
</svg>
