<svg width="32" height="32" viewBox="0 0 32 32" fill="none" xmlns="http://www.w3.org/2000/svg">
<path d="M21.75 9.50625V9C21.75 8.53587 21.5656 8.09075 21.2374 7.76256C20.9092 7.43437 20.4641 7.25 20 7.25H16.75V2C16.75 1.80109 16.671 1.61032 16.5303 1.46967C16.3896 1.32902 16.1989 1.25 16 1.25C15.8011 1.25 15.6103 1.32902 15.4696 1.46967C15.329 1.61032 15.25 1.80109 15.25 2V7.25H12C11.5358 7.25 11.0907 7.43437 10.7625 7.76256C10.4343 8.09075 10.25 8.53587 10.25 9V9.5C7.85823 10.597 5.8324 12.3587 4.41398 14.575C2.99555 16.7913 2.24437 19.3687 2.24997 22C2.24997 22.1989 2.32899 22.3897 2.46964 22.5303C2.61029 22.671 2.80106 22.75 2.99997 22.75H11.25V23C11.25 24.2598 11.7504 25.468 12.6412 26.3588C13.532 27.2496 14.7402 27.75 16 27.75C17.2597 27.75 18.4679 27.2496 19.3587 26.3588C20.2495 25.468 20.75 24.2598 20.75 23V22.75H29C29.1989 22.75 29.3896 22.671 29.5303 22.5303C29.671 22.3897 29.75 22.1989 29.75 22C29.7544 19.3697 29.0026 16.7937 27.5843 14.5786C26.1659 12.3635 24.1407 10.6028 21.75 9.50625ZM19.25 23C19.25 23.862 18.9076 24.6886 18.2981 25.2981C17.6886 25.9076 16.8619 26.25 16 26.25C15.138 26.25 14.3114 25.9076 13.7019 25.2981C13.0924 24.6886 12.75 23.862 12.75 23V22.75H19.25V23ZM3.77247 21.25C3.90868 18.9619 4.68571 16.7581 6.01481 14.8906C7.3439 13.0231 9.17145 11.567 11.2887 10.6888C11.4248 10.632 11.5411 10.5364 11.6231 10.4139C11.7052 10.2914 11.7493 10.1474 11.75 10V9C11.75 8.9337 11.7763 8.87011 11.8232 8.82322C11.8701 8.77634 11.9337 8.75 12 8.75H20C20.0663 8.75 20.1299 8.77634 20.1767 8.82322C20.2236 8.87011 20.25 8.9337 20.25 9V10C20.2499 10.1481 20.2937 10.2928 20.3758 10.4161C20.4578 10.5393 20.5746 10.6355 20.7112 10.6925C22.8279 11.5705 24.6551 13.026 25.9842 14.8928C27.3132 16.7596 28.0906 18.9625 28.2275 21.25H3.77247Z" fill="white"/>
</svg>
