<svg width="32" height="32" viewBox="0 0 32 32" fill="none" xmlns="http://www.w3.org/2000/svg">
<path d="M30.6887 18.705L24.6887 4.705C24.631 4.5701 24.535 4.45509 24.4126 4.37422C24.2902 4.29335 24.1467 4.25016 24 4.25H8C7.85327 4.25016 7.70982 4.29335 7.58739 4.37422C7.46497 4.45509 7.36896 4.5701 7.31125 4.705L1.31125 18.705C1.26247 18.819 1.24273 18.9433 1.25378 19.0668C1.26483 19.1904 1.30633 19.3092 1.37458 19.4127C1.44282 19.5163 1.53567 19.6013 1.64481 19.6601C1.75396 19.719 1.87599 19.7499 2 19.75H15.25V26.25H12C11.8011 26.25 11.6103 26.329 11.4697 26.4697C11.329 26.6103 11.25 26.8011 11.25 27C11.25 27.1989 11.329 27.3897 11.4697 27.5303C11.6103 27.671 11.8011 27.75 12 27.75H20C20.1989 27.75 20.3897 27.671 20.5303 27.5303C20.671 27.3897 20.75 27.1989 20.75 27C20.75 26.8011 20.671 26.6103 20.5303 26.4697C20.3897 26.329 20.1989 26.25 20 26.25H16.75V19.75H24.25V24C24.25 24.1989 24.329 24.3897 24.4697 24.5303C24.6103 24.671 24.8011 24.75 25 24.75C25.1989 24.75 25.3897 24.671 25.5303 24.5303C25.671 24.3897 25.75 24.1989 25.75 24V19.75H30C30.124 19.7499 30.246 19.719 30.3552 19.6601C30.4643 19.6013 30.5572 19.5163 30.6254 19.4127C30.6937 19.3092 30.7352 19.1904 30.7462 19.0668C30.7573 18.9433 30.7375 18.819 30.6887 18.705ZM3.1375 18.25L8.5 5.75H23.5L28.8625 18.25H3.1375Z" fill="white"/>
</svg>
