<svg width="32" height="32" viewBox="0 0 32 32" fill="none" xmlns="http://www.w3.org/2000/svg">
<path d="M25.585 7.70375C23.0137 6.125 19.61 5.25 16 5.25C12.39 5.25 8.98625 6.125 6.415 7.70375C3.72875 9.35625 2.25 11.5912 2.25 14C2.25 16.4088 3.72875 18.6413 6.415 20.2938C8.80625 21.7625 11.9187 22.625 15.25 22.7313C15.25 22.8113 15.25 22.8912 15.25 22.9737C15.25 24.8187 14.3825 26.3612 12.8075 27.315C10.905 28.4675 8.3075 28.5525 6.3475 27.5287C6.26002 27.4802 6.16369 27.4496 6.06421 27.4388C5.96473 27.428 5.86409 27.4373 5.76824 27.466C5.67238 27.4947 5.58324 27.5423 5.50606 27.606C5.42888 27.6697 5.36523 27.7482 5.31885 27.8369C5.27247 27.9255 5.24431 28.0226 5.23601 28.1223C5.22772 28.222 5.23946 28.3224 5.27056 28.4175C5.30165 28.5126 5.35146 28.6005 5.41705 28.6761C5.48265 28.7517 5.5627 28.8133 5.6525 28.8575C6.80361 29.4498 8.08048 29.7559 9.375 29.75C10.8578 29.756 12.3142 29.3575 13.5875 28.5975C15.63 27.3612 16.7537 25.3638 16.7537 22.9725C16.7537 22.8913 16.7537 22.8112 16.7537 22.73C20.085 22.6187 23.2 21.7625 25.5938 20.29C28.2712 18.6388 29.75 16.4037 29.75 14C29.75 11.5963 28.2712 9.35625 25.585 7.70375ZM8.085 19.5112C8.75 18.0112 10.235 17.6275 11.395 17.7775C12.93 17.9775 14.475 19.1113 15.03 21.2213C12.4662 21.1013 10.06 20.51 8.09 19.5112H8.085ZM24.7938 19.0112C22.5913 20.3675 19.69 21.1488 16.5725 21.235C16.3612 20.138 15.8748 19.1126 15.1587 18.255C14.2545 17.1786 12.9818 16.4776 11.5887 16.2887C9.4775 16.0138 7.6525 16.9813 6.7875 18.7488C4.82625 17.4213 3.75 15.75 3.75 14C3.75 12.1337 4.975 10.3525 7.20125 8.98375C9.54 7.5425 12.665 6.75 16 6.75C19.335 6.75 22.46 7.5425 24.7987 8.98125C27.025 10.35 28.25 12.1312 28.25 14C28.25 15.8687 27.025 17.645 24.7987 19.0138L24.7938 19.0112Z" fill="white"/>
</svg>
