<svg width="32" height="32" viewBox="0 0 32 32" fill="none" xmlns="http://www.w3.org/2000/svg">
<path d="M30.75 20C30.75 21.2598 30.2496 22.468 29.3588 23.3588C28.468 24.2496 27.2598 24.75 26 24.75H23.8213C22.5373 24.747 21.2806 24.3793 20.1976 23.6898C19.1145 23.0002 18.2497 22.0171 17.7038 20.855L13.9362 12.78C13.512 11.8759 12.8396 11.111 11.9972 10.5746C11.1549 10.0381 10.1774 9.75212 9.17875 9.75H8C6.60761 9.75 5.27225 10.3031 4.28769 11.2877C3.30312 12.2723 2.75 13.6076 2.75 15V18C2.75 19.3924 3.30312 20.7277 4.28769 21.7123C5.27225 22.6969 6.60761 23.25 8 23.25H9C9.82713 23.2502 10.6364 23.009 11.3284 22.5561C12.0205 22.1031 12.5654 21.4581 12.8962 20.7C12.9758 20.5177 13.1246 20.3744 13.3097 20.3017C13.4949 20.2291 13.7014 20.2329 13.8837 20.3125C14.0661 20.3921 14.2093 20.5408 14.282 20.726C14.3547 20.9112 14.3508 21.1177 14.2712 21.3C13.8236 22.3256 13.0865 23.1983 12.1502 23.8111C11.2138 24.424 10.119 24.7502 9 24.75H8C6.2104 24.748 4.49466 24.0362 3.22922 22.7708C1.96378 21.5053 1.25199 19.7896 1.25 18V15C1.25199 13.2104 1.96378 11.4947 3.22922 10.2292C4.49466 8.96378 6.2104 8.25199 8 8.25H9.17875C10.4627 8.25297 11.7194 8.62066 12.8024 9.31024C13.8855 9.99981 14.7503 10.9829 15.2963 12.145L19.0637 20.22C19.488 21.1241 20.1604 21.889 21.0028 22.4254C21.8451 22.9619 22.8226 23.2479 23.8213 23.25H26C26.862 23.25 27.6886 22.9076 28.2981 22.2981C28.9076 21.6886 29.25 20.862 29.25 20C29.25 19.138 28.9076 18.3114 28.2981 17.7019C27.6886 17.0924 26.862 16.75 26 16.75H23.5C22.3728 16.75 21.2918 16.3022 20.4948 15.5052C19.6978 14.7082 19.25 13.6272 19.25 12.5C19.25 11.3728 19.6978 10.2918 20.4948 9.4948C21.2918 8.69777 22.3728 8.25 23.5 8.25H26C26.9946 8.25 27.9484 8.64509 28.6517 9.34835C29.3549 10.0516 29.75 11.0054 29.75 12C29.75 12.1989 29.671 12.3897 29.5303 12.5303C29.3897 12.671 29.1989 12.75 29 12.75C28.8011 12.75 28.6103 12.671 28.4697 12.5303C28.329 12.3897 28.25 12.1989 28.25 12C28.25 11.4033 28.0129 10.831 27.591 10.409C27.169 9.98705 26.5967 9.75 26 9.75H23.5C22.7707 9.75 22.0712 10.0397 21.5555 10.5555C21.0397 11.0712 20.75 11.7707 20.75 12.5C20.75 13.2293 21.0397 13.9288 21.5555 14.4445C22.0712 14.9603 22.7707 15.25 23.5 15.25H26C27.2598 15.25 28.468 15.7504 29.3588 16.6412C30.2496 17.532 30.75 18.7402 30.75 20Z" fill="white"/>
</svg>
