<svg width="32" height="32" viewBox="0 0 32 32" fill="none" xmlns="http://www.w3.org/2000/svg">
<path d="M30.5638 15.2175L25.5638 5.21751C25.4195 4.9263 25.1966 4.68131 24.9202 4.51032C24.6438 4.33932 24.3251 4.24915 24.0001 4.25001H8.00006C7.67485 4.24891 7.35584 4.33898 7.07922 4.50998C6.8026 4.68099 6.57944 4.9261 6.43506 5.21751L1.43506 15.2175C1.30169 15.4843 1.23873 15.7807 1.25214 16.0787C1.26555 16.3767 1.35489 16.6662 1.51168 16.92C1.66848 17.1737 1.88751 17.3831 2.14801 17.5284C2.4085 17.6737 2.7018 17.75 3.00006 17.75H15.2501V26.25H12.0001C11.8011 26.25 11.6104 26.329 11.4697 26.4697C11.3291 26.6103 11.2501 26.8011 11.2501 27C11.2501 27.1989 11.3291 27.3897 11.4697 27.5303C11.6104 27.671 11.8011 27.75 12.0001 27.75H20.0001C20.199 27.75 20.3897 27.671 20.5304 27.5303C20.671 27.3897 20.7501 27.1989 20.7501 27C20.7501 26.8011 20.671 26.6103 20.5304 26.4697C20.3897 26.329 20.199 26.25 20.0001 26.25H16.7501V17.75H29.0001C29.2983 17.75 29.5916 17.6737 29.8521 17.5284C30.1126 17.3831 30.3316 17.1737 30.4884 16.92C30.6452 16.6662 30.7346 16.3767 30.748 16.0787C30.7614 15.7807 30.6984 15.4843 30.5651 15.2175H30.5638ZM29.2113 16.1313C29.1896 16.1681 29.1585 16.1985 29.1211 16.2194C29.0838 16.2403 29.0416 16.2508 28.9988 16.25H3.00006C2.95751 16.25 2.91567 16.2391 2.8785 16.2184C2.84133 16.1977 2.81006 16.1678 2.78765 16.1316C2.76525 16.0955 2.75245 16.0542 2.75046 16.0117C2.74848 15.9692 2.75737 15.9269 2.77631 15.8888L7.77631 5.88876C7.797 5.84711 7.82891 5.81206 7.86844 5.78754C7.90797 5.76303 7.95355 5.75003 8.00006 5.75001H24.0001C24.0466 5.75003 24.0921 5.76303 24.1317 5.78754C24.1712 5.81206 24.2031 5.84711 24.2238 5.88876L29.2238 15.8888C29.2425 15.9269 29.2512 15.9692 29.249 16.0116C29.2468 16.0541 29.2338 16.0952 29.2113 16.1313ZM23.7501 13C23.7501 13.1989 23.671 13.3897 23.5304 13.5303C23.3897 13.671 23.199 13.75 23.0001 13.75H9.00006C8.80115 13.75 8.61038 13.671 8.46973 13.5303C8.32908 13.3897 8.25006 13.1989 8.25006 13C8.25006 12.8011 8.32908 12.6103 8.46973 12.4697C8.61038 12.329 8.80115 12.25 9.00006 12.25H23.0001C23.199 12.25 23.3897 12.329 23.5304 12.4697C23.671 12.6103 23.7501 12.8011 23.7501 13Z" fill="white"/>
</svg>
