<svg width="32" height="32" viewBox="0 0 32 32" fill="none" xmlns="http://www.w3.org/2000/svg">
<path d="M12.5 15.25C12.2528 15.25 12.0111 15.1767 11.8055 15.0393C11.6 14.902 11.4398 14.7068 11.3452 14.4784C11.2505 14.2499 11.2258 13.9986 11.274 13.7561C11.3222 13.5137 11.4413 13.2909 11.6161 13.1161C11.7909 12.9413 12.0137 12.8222 12.2561 12.774C12.4986 12.7258 12.7499 12.7505 12.9784 12.8452C13.2068 12.9398 13.402 13.1 13.5393 13.3055C13.6767 13.5111 13.75 13.7528 13.75 14C13.75 14.3315 13.6183 14.6495 13.3839 14.8839C13.1495 15.1183 12.8315 15.25 12.5 15.25ZM19.5 12.75C19.2528 12.75 19.0111 12.8233 18.8055 12.9607C18.6 13.098 18.4398 13.2932 18.3451 13.5216C18.2505 13.7501 18.2258 14.0014 18.274 14.2439C18.3223 14.4863 18.4413 14.7091 18.6161 14.8839C18.7909 15.0587 19.0137 15.1778 19.2561 15.226C19.4986 15.2742 19.7499 15.2495 19.9784 15.1548C20.2068 15.0602 20.402 14.9 20.5393 14.6945C20.6767 14.4889 20.75 14.2472 20.75 14C20.75 13.6685 20.6183 13.3505 20.3839 13.1161C20.1495 12.8817 19.8315 12.75 19.5 12.75ZM19.1 18.365C18.1693 18.9431 17.0956 19.2494 16 19.2494C14.9044 19.2494 13.8307 18.9431 12.9 18.365C12.7316 18.2589 12.5279 18.2241 12.3338 18.2681C12.1397 18.3122 11.9711 18.4316 11.865 18.6C11.7589 18.7684 11.7241 18.9721 11.7681 19.1662C11.8122 19.3603 11.9316 19.5289 12.1 19.635C13.2702 20.3641 14.6213 20.7506 16 20.7506C17.3787 20.7506 18.7298 20.3641 19.9 19.635C19.9834 19.5825 20.0556 19.514 20.1126 19.4336C20.1695 19.3531 20.21 19.2623 20.2319 19.1662C20.2537 19.0701 20.2564 18.9706 20.2397 18.8735C20.2231 18.7763 20.1875 18.6834 20.135 18.6C20.0825 18.5166 20.014 18.4444 19.9336 18.3874C19.8531 18.3305 19.7623 18.29 19.6662 18.2681C19.5701 18.2463 19.4706 18.2436 19.3735 18.2603C19.2763 18.2769 19.1834 18.3125 19.1 18.365ZM26.75 10V22C26.749 22.8642 26.4501 23.7016 25.9036 24.371C25.3571 25.0405 24.5965 25.501 23.75 25.675V28C23.75 28.4641 23.5656 28.9092 23.2374 29.2374C22.9092 29.5656 22.4641 29.75 22 29.75H10C9.53587 29.75 9.09075 29.5656 8.76256 29.2374C8.43437 28.9092 8.25 28.4641 8.25 28V25.675C7.40352 25.501 6.64291 25.0405 6.09643 24.371C5.54994 23.7016 5.251 22.8642 5.25 22V10C5.25 9.00544 5.64509 8.05161 6.34835 7.34835C7.05161 6.64509 8.00544 6.25 9 6.25H11.25V4C11.25 3.53587 11.4344 3.09075 11.7626 2.76256C12.0908 2.43437 12.5359 2.25 13 2.25H19C19.4641 2.25 19.9092 2.43437 20.2374 2.76256C20.5656 3.09075 20.75 3.53587 20.75 4V6.25H23C23.9946 6.25 24.9484 6.64509 25.6517 7.34835C26.3549 8.05161 26.75 9.00544 26.75 10ZM12.75 6.25H19.25V4C19.25 3.9337 19.2237 3.87011 19.1768 3.82322C19.1299 3.77634 19.0663 3.75 19 3.75H13C12.9337 3.75 12.8701 3.77634 12.8232 3.82322C12.7763 3.87011 12.75 3.9337 12.75 4V6.25ZM22.25 28V25.75H9.75V28C9.75 28.0663 9.77634 28.1299 9.82322 28.1768C9.87011 28.2237 9.9337 28.25 10 28.25H22C22.0663 28.25 22.1299 28.2237 22.1768 28.1768C22.2237 28.1299 22.25 28.0663 22.25 28ZM25.25 10C25.25 9.40326 25.0129 8.83097 24.591 8.40901C24.169 7.98705 23.5967 7.75 23 7.75H9C8.40326 7.75 7.83097 7.98705 7.40901 8.40901C6.98705 8.83097 6.75 9.40326 6.75 10V22C6.75 22.5967 6.98705 23.169 7.40901 23.591C7.83097 24.0129 8.40326 24.25 9 24.25H23C23.5967 24.25 24.169 24.0129 24.591 23.591C25.0129 23.169 25.25 22.5967 25.25 22V10Z" fill="white"/>
</svg>
