<svg width="32" height="32" viewBox="0 0 32 32" fill="none" xmlns="http://www.w3.org/2000/svg">
<path d="M30.335 9.32875L24.4813 6.4025C23.8363 5.13625 22.0975 4.25 20 4.25C17.3363 4.25 15.25 5.6775 15.25 7.5C15.2507 7.8229 15.3171 8.14228 15.445 8.43875L12.695 9.81375C11.8479 9.43356 10.9285 9.24124 10 9.25C7.33625 9.25 5.25 10.6775 5.25 12.5C5.25071 12.8229 5.31706 13.1423 5.445 13.4388L1.665 15.3287C1.54028 15.391 1.43538 15.4868 1.36207 15.6054C1.28877 15.7239 1.24996 15.8606 1.25 16V24C1.24996 24.1394 1.28877 24.2761 1.36207 24.3946C1.43538 24.5132 1.54028 24.609 1.665 24.6712L9.665 28.6712C9.76903 28.7232 9.88372 28.7502 10 28.7502C10.1163 28.7502 10.231 28.7232 10.335 28.6712L30.335 18.6712C30.4597 18.609 30.5646 18.5132 30.6379 18.3946C30.7112 18.2761 30.75 18.1394 30.75 18V10C30.75 9.8606 30.7112 9.72395 30.6379 9.60538C30.5646 9.48681 30.4597 9.39102 30.335 9.32875ZM10 19.1612L3.6775 16L6.39875 14.64C7.2625 15.3238 8.545 15.75 10 15.75C12.6637 15.75 14.75 14.3225 14.75 12.5C14.7413 11.8697 14.4995 11.265 14.0712 10.8025L16.3988 9.64C17.2625 10.3238 18.545 10.75 20 10.75C22.3288 10.75 24.2175 9.65875 24.6537 8.16625L28.3225 10L10 19.1612ZM20 5.75C21.915 5.75 23.25 6.6725 23.25 7.5C23.25 8.3275 21.915 9.25 20 9.25C18.085 9.25 16.75 8.3275 16.75 7.5C16.75 6.6725 18.085 5.75 20 5.75ZM10 10.75C11.915 10.75 13.25 11.6725 13.25 12.5C13.25 13.3275 11.915 14.25 10 14.25C8.085 14.25 6.75 13.3275 6.75 12.5C6.75 11.6725 8.085 10.75 10 10.75ZM2.75 17.2138L9.25 20.4638V26.7862L2.75 23.5362V17.2138ZM10.75 26.7862V20.4638L29.25 11.2137V17.5362L10.75 26.7862Z" fill="white"/>
</svg>
