<svg width="32" height="32" viewBox="0 0 32 32" fill="none" xmlns="http://www.w3.org/2000/svg">
<path d="M5.25 13C5.25004 12.8465 5.29717 12.6968 5.38501 12.5709C5.47286 12.4451 5.5972 12.3492 5.74125 12.2962L24.7412 5.29625C24.8337 5.26218 24.9319 5.24666 25.0303 5.25056C25.1287 5.25445 25.2254 5.2777 25.3148 5.31896C25.4043 5.36023 25.4847 5.4187 25.5515 5.49105C25.6184 5.5634 25.6703 5.6482 25.7044 5.74062C25.7384 5.83304 25.754 5.93126 25.7501 6.02968C25.7462 6.1281 25.7229 6.22478 25.6817 6.31422C25.6404 6.40365 25.5819 6.48408 25.5096 6.55092C25.4372 6.61775 25.3524 6.66968 25.26 6.70375L8.17 13L25.2588 19.2962C25.4239 19.3571 25.5624 19.4741 25.65 19.6268C25.7376 19.7795 25.7687 19.9581 25.7378 20.1314C25.707 20.3047 25.6162 20.4617 25.4813 20.5747C25.3464 20.6878 25.176 20.7499 25 20.75C24.9113 20.7498 24.8233 20.7342 24.74 20.7037L5.74 13.7037C5.59618 13.6506 5.47211 13.5546 5.3845 13.4288C5.29689 13.303 5.24995 13.1533 5.25 13ZM25 24.25H6C5.80109 24.25 5.61032 24.329 5.46967 24.4697C5.32902 24.6103 5.25 24.8011 5.25 25C5.25 25.1989 5.32902 25.3897 5.46967 25.5303C5.61032 25.671 5.80109 25.75 6 25.75H25C25.1989 25.75 25.3897 25.671 25.5303 25.5303C25.671 25.3897 25.75 25.1989 25.75 25C25.75 24.8011 25.671 24.6103 25.5303 24.4697C25.3897 24.329 25.1989 24.25 25 24.25Z" fill="white"/>
</svg>
