<svg width="32" height="32" viewBox="0 0 32 32" fill="none" xmlns="http://www.w3.org/2000/svg">
<path d="M25.6776 25.3213C25.6354 25.4104 25.576 25.4903 25.5029 25.5564C25.4298 25.6226 25.3443 25.6736 25.2514 25.7067C25.1586 25.7398 25.0601 25.7543 24.9616 25.7493C24.8631 25.7442 24.7666 25.7199 24.6776 25.6775L5.67756 16.6775C5.5494 16.6166 5.44113 16.5207 5.36532 16.4008C5.28951 16.2808 5.24927 16.1419 5.24927 16C5.24927 15.8581 5.28951 15.7192 5.36532 15.5992C5.44113 15.4793 5.5494 15.3834 5.67756 15.3225L24.6776 6.3225C24.8565 6.2426 25.0596 6.2359 25.2434 6.30384C25.4272 6.37177 25.5771 6.50894 25.661 6.68599C25.745 6.86305 25.7563 7.06593 25.6926 7.25123C25.6289 7.43653 25.4952 7.58953 25.3201 7.6775L7.75006 16L25.3188 24.3225C25.408 24.3645 25.488 24.4236 25.5543 24.4966C25.6206 24.5695 25.6719 24.6548 25.7052 24.7475C25.7385 24.8403 25.7532 24.9387 25.7485 25.0371C25.7437 25.1356 25.7196 25.2321 25.6776 25.3213Z" fill="white"/>
</svg>
