<svg width="32" height="32" viewBox="0 0 32 32" fill="none" xmlns="http://www.w3.org/2000/svg">
<path d="M16 3.25C13.4783 3.25 11.0132 3.99777 8.91648 5.39876C6.81976 6.79975 5.18556 8.79103 4.22054 11.1208C3.25552 13.4505 3.00303 16.0141 3.49499 18.4874C3.98696 20.9607 5.20127 23.2325 6.98439 25.0156C8.76751 26.7987 11.0393 28.0131 13.5126 28.505C15.9859 28.997 18.5495 28.7445 20.8792 27.7795C23.209 26.8144 25.2003 25.1802 26.6012 23.0835C28.0022 20.9868 28.75 18.5217 28.75 16C28.746 12.6197 27.4015 9.379 25.0112 6.98877C22.621 4.59854 19.3803 3.25397 16 3.25ZM16 27.25C13.775 27.25 11.5999 26.5902 9.74984 25.354C7.89979 24.1179 6.45785 22.3609 5.60636 20.3052C4.75488 18.2495 4.53209 15.9875 4.96617 13.8052C5.40025 11.6229 6.47171 9.61839 8.04505 8.04505C9.6184 6.47171 11.623 5.40025 13.8052 4.96617C15.9875 4.53208 18.2495 4.75487 20.3052 5.60636C22.3609 6.45784 24.1179 7.89978 25.354 9.74984C26.5902 11.5999 27.25 13.775 27.25 16C27.2467 18.9827 26.0604 21.8422 23.9513 23.9513C21.8422 26.0604 18.9827 27.2467 16 27.25ZM20.6963 12.2788L16.6963 22.2787C16.6406 22.4179 16.5445 22.5371 16.4204 22.6211C16.2963 22.7051 16.1499 22.7499 16 22.7499C15.8502 22.7499 15.7038 22.7051 15.5797 22.6211C15.4556 22.5371 15.3595 22.4179 15.3038 22.2787L11.3038 12.2788C11.2662 12.1871 11.2472 12.089 11.2478 11.99C11.2484 11.8911 11.2686 11.7932 11.3072 11.702C11.3458 11.6109 11.4021 11.5283 11.4728 11.459C11.5435 11.3897 11.6272 11.3351 11.7191 11.2983C11.811 11.2615 11.9092 11.2433 12.0082 11.2446C12.1072 11.246 12.2049 11.2669 12.2957 11.3063C12.3866 11.3456 12.4687 11.4025 12.5375 11.4737C12.6062 11.5449 12.6602 11.6291 12.6963 11.7212L16 19.98L19.3038 11.7212C19.3787 11.5381 19.5231 11.392 19.7053 11.3148C19.8875 11.2377 20.0929 11.2356 20.2766 11.3092C20.4603 11.3827 20.6075 11.5259 20.6861 11.7075C20.7647 11.8891 20.7684 12.0945 20.6963 12.2788Z" fill="white"/>
</svg>
