<svg width="32" height="32" viewBox="0 0 32 32" fill="none" xmlns="http://www.w3.org/2000/svg">
<path d="M16 3.25C13.4783 3.25 11.0132 3.99777 8.91648 5.39876C6.81976 6.79975 5.18556 8.79103 4.22054 11.1208C3.25552 13.4505 3.00303 16.0141 3.49499 18.4874C3.98696 20.9607 5.20127 23.2325 6.98439 25.0156C8.76751 26.7987 11.0393 28.0131 13.5126 28.505C15.9859 28.997 18.5495 28.7445 20.8792 27.7795C23.209 26.8144 25.2003 25.1802 26.6012 23.0835C28.0022 20.9868 28.75 18.5217 28.75 16C28.746 12.6197 27.4015 9.379 25.0112 6.98877C22.621 4.59854 19.3803 3.25397 16 3.25ZM16 27.25C13.775 27.25 11.5999 26.5902 9.74984 25.354C7.89979 24.1179 6.45785 22.3609 5.60636 20.3052C4.75488 18.2495 4.53209 15.9875 4.96617 13.8052C5.40025 11.6229 6.47171 9.61839 8.04505 8.04505C9.6184 6.47171 11.623 5.40025 13.8052 4.96617C15.9875 4.53208 18.2495 4.75487 20.3052 5.60636C22.3609 6.45784 24.1179 7.89978 25.354 9.74984C26.5902 11.5999 27.25 13.775 27.25 16C27.2467 18.9827 26.0604 21.8422 23.9513 23.9513C21.8422 26.0604 18.9827 27.2467 16 27.25ZM17 10.25H13C12.8011 10.25 12.6103 10.329 12.4697 10.4697C12.329 10.6103 12.25 10.8011 12.25 11V21C12.25 21.1989 12.329 21.3897 12.4697 21.5303C12.6103 21.671 12.8011 21.75 13 21.75C13.1989 21.75 13.3897 21.671 13.5303 21.5303C13.671 21.3897 13.75 21.1989 13.75 21V18.75H17C18.1272 18.75 19.2082 18.3022 20.0052 17.5052C20.8022 16.7082 21.25 15.6272 21.25 14.5C21.25 13.3728 20.8022 12.2918 20.0052 11.4948C19.2082 10.6978 18.1272 10.25 17 10.25ZM17 17.25H13.75V11.75H17C17.7294 11.75 18.4288 12.0397 18.9445 12.5555C19.4603 13.0712 19.75 13.7707 19.75 14.5C19.75 15.2293 19.4603 15.9288 18.9445 16.4445C18.4288 16.9603 17.7294 17.25 17 17.25Z" fill="white"/>
</svg>
