<svg width="32" height="32" viewBox="0 0 32 32" fill="none" xmlns="http://www.w3.org/2000/svg">
<path d="M6.55479 4.50001C6.41749 4.37257 6.23747 4.30112 6.05014 4.29973C5.86282 4.29834 5.68175 4.3671 5.54257 4.49249C5.40339 4.61788 5.31617 4.79081 5.29808 4.97727C5.27998 5.16372 5.33232 5.3502 5.44479 5.50001L10.506 11.0725L5.45104 16.4888C5.36697 16.5789 5.3064 16.6884 5.27471 16.8075C5.24303 16.9266 5.24119 17.0517 5.26937 17.1718C5.29755 17.2918 5.35487 17.403 5.43627 17.4955C5.51767 17.5881 5.62063 17.6592 5.73604 17.7025L13.1398 20.4788L11.2648 29.8538C11.2326 30.0138 11.2535 30.18 11.3243 30.3271C11.3952 30.4742 11.5121 30.5941 11.6573 30.6688C11.7635 30.7223 11.8808 30.7502 11.9998 30.75C12.1028 30.75 12.2046 30.7288 12.299 30.6877C12.3934 30.6467 12.4784 30.5866 12.5485 30.5113L20.466 22.0275L25.4448 27.5C25.5787 27.6472 25.7657 27.7352 25.9644 27.7445C26.1632 27.7539 26.3576 27.6839 26.5048 27.55C26.652 27.4161 26.74 27.2292 26.7493 27.0304C26.7587 26.8316 26.6887 26.6372 26.5548 26.49L6.55479 4.50001ZM13.2498 27.5575L14.731 20.1475C14.7662 19.9729 14.7381 19.7916 14.6517 19.6359C14.5654 19.4801 14.4265 19.3602 14.2598 19.2975L7.30979 16.6913L11.5148 12.1913L19.4498 20.92L13.2498 27.5575ZM13.7498 8.69376C13.6044 8.558 13.5189 8.37005 13.5121 8.17127C13.5054 7.97248 13.5778 7.77914 13.7135 7.63376L19.4485 1.48876C19.5599 1.36947 19.7071 1.28974 19.8678 1.26167C20.0286 1.2336 20.1941 1.25872 20.3393 1.33321C20.4844 1.40771 20.6014 1.52752 20.6723 1.67447C20.7432 1.82143 20.7643 1.9875 20.7323 2.14751L18.8573 11.5225L26.261 14.2988C26.3765 14.3421 26.4794 14.4131 26.5608 14.5057C26.6422 14.5983 26.6995 14.7095 26.7277 14.8295C26.7559 14.9495 26.7541 15.0746 26.7224 15.1938C26.6907 15.3129 26.6301 15.4224 26.546 15.5125L23.7598 18.5C23.6928 18.573 23.6121 18.632 23.5222 18.6736C23.4323 18.7152 23.3351 18.7386 23.2361 18.7424C23.1371 18.7462 23.0384 18.7304 22.9456 18.6958C22.8527 18.6613 22.7677 18.6087 22.6953 18.5411C22.6229 18.4735 22.5646 18.3922 22.5238 18.302C22.483 18.2117 22.4605 18.1143 22.4575 18.0153C22.4546 17.9163 22.4713 17.8177 22.5066 17.7252C22.542 17.6327 22.5953 17.5481 22.6635 17.4763L24.686 15.31L17.736 12.7038C17.5694 12.6411 17.4304 12.5212 17.3441 12.3654C17.2578 12.2097 17.2297 12.0283 17.2648 11.8538L18.7498 4.44251L14.8123 8.65626C14.7451 8.7287 14.6643 8.78714 14.5745 8.82825C14.4846 8.86936 14.3876 8.89231 14.2888 8.8958C14.1901 8.89928 14.0917 8.88323 13.9992 8.84856C13.9067 8.81388 13.8219 8.76128 13.7498 8.69376Z" fill="white"/>
</svg>
