<svg width="32" height="32" viewBox="0 0 32 32" fill="none" xmlns="http://www.w3.org/2000/svg">
<path d="M21.7502 28.9999C21.7502 29.1989 21.6712 29.3896 21.5305 29.5303C21.3898 29.6709 21.1991 29.7499 21.0002 29.7499H11.0002C10.8013 29.7499 10.6105 29.6709 10.4698 29.5303C10.3292 29.3896 10.2502 29.1989 10.2502 28.9999C10.2502 28.801 10.3292 28.6103 10.4698 28.4696C10.6105 28.329 10.8013 28.2499 11.0002 28.2499H21.0002C21.1991 28.2499 21.3898 28.329 21.5305 28.4696C21.6712 28.6103 21.7502 28.801 21.7502 28.9999ZM26.7502 12.9999C26.7544 14.6292 26.3863 16.2379 25.674 17.7032C24.9617 19.1686 23.924 20.4518 22.6402 21.4549C22.3649 21.6666 22.1416 21.9383 21.9873 22.2494C21.8331 22.5605 21.752 22.9027 21.7502 23.2499V23.9999C21.7502 24.4641 21.5658 24.9092 21.2376 25.2374C20.9094 25.5656 20.4643 25.7499 20.0002 25.7499H12.0002C11.536 25.7499 11.0909 25.5656 10.7627 25.2374C10.4345 24.9092 10.2502 24.4641 10.2502 23.9999V23.2499C10.2498 22.9063 10.1708 22.5673 10.0191 22.259C9.86744 21.9507 9.64716 21.6812 9.37517 21.4712C8.09527 20.4744 7.05881 19.1997 6.34417 17.7433C5.62953 16.287 5.25543 14.6872 5.25017 13.0649C5.21767 7.23869 9.92392 2.38994 15.7414 2.24994C17.1748 2.21543 18.6005 2.46799 19.9348 2.99276C21.269 3.51752 22.4848 4.30389 23.5106 5.30558C24.5364 6.30727 25.3515 7.50403 25.9078 8.82544C26.4642 10.1468 26.7506 11.5662 26.7502 12.9999ZM25.2502 12.9999C25.2505 11.7662 25.0041 10.5448 24.5253 9.40766C24.0465 8.27056 23.3451 7.24074 22.4623 6.37881C21.5795 5.51688 20.5332 4.84026 19.385 4.38878C18.2368 3.93731 17.0098 3.7201 15.7764 3.74994C10.7714 3.87494 6.72267 8.04244 6.75017 13.0524C6.7549 14.4484 7.07695 15.825 7.69196 17.0782C8.30698 18.3314 9.19885 19.4284 10.3002 20.2862C10.7524 20.6364 11.1183 21.0857 11.3697 21.5995C11.621 22.1133 11.7512 22.6779 11.7502 23.2499V23.9999C11.7502 24.0662 11.7765 24.1298 11.8234 24.1767C11.8703 24.2236 11.9339 24.2499 12.0002 24.2499H15.2502V18.3112L11.4702 14.5299C11.3377 14.3878 11.2656 14.1997 11.269 14.0054C11.2724 13.8111 11.3511 13.6257 11.4885 13.4883C11.626 13.3509 11.8113 13.2722 12.0056 13.2688C12.1999 13.2653 12.388 13.3375 12.5302 13.4699L16.0002 16.9399L19.4702 13.4699C19.6123 13.3375 19.8004 13.2653 19.9947 13.2688C20.189 13.2722 20.3744 13.3509 20.5118 13.4883C20.6492 13.6257 20.7279 13.8111 20.7313 14.0054C20.7348 14.1997 20.6626 14.3878 20.5302 14.5299L16.7502 18.3112V24.2499H20.0002C20.0665 24.2499 20.1301 24.2236 20.1769 24.1767C20.2238 24.1298 20.2502 24.0662 20.2502 23.9999V23.2499C20.2517 22.6759 20.3842 22.1097 20.6377 21.5946C20.8911 21.0795 21.2588 20.629 21.7127 20.2774C22.8181 19.4143 23.7115 18.3099 24.3246 17.0485C24.9377 15.7872 25.2543 14.4024 25.2502 12.9999Z" fill="white"/>
</svg>
