<svg width="32" height="32" viewBox="0 0 32 32" fill="none" xmlns="http://www.w3.org/2000/svg">
<path d="M26 10.2499C25.8011 10.2499 25.6103 10.329 25.4697 10.4696C25.329 10.6103 25.25 10.801 25.25 10.9999V13.2499H23.375L22.75 6.92495C22.7305 6.73763 22.6413 6.56449 22.5 6.43995L17.1388 1.6712L17.12 1.6562C16.8055 1.39428 16.4092 1.25085 16 1.25085C15.5908 1.25085 15.1945 1.39428 14.88 1.6562L14.8612 1.6712L9.5 6.43995C9.35873 6.56449 9.26948 6.73763 9.25 6.92495L8.625 13.2499H6.75V10.9999C6.75 10.801 6.67098 10.6103 6.53033 10.4696C6.38968 10.329 6.19891 10.2499 6 10.2499C5.80109 10.2499 5.61032 10.329 5.46967 10.4696C5.32902 10.6103 5.25 10.801 5.25 10.9999V13.9999C5.25 14.1989 5.32902 14.3896 5.46967 14.5303C5.61032 14.6709 5.80109 14.7499 6 14.7499H8.46875L7.2575 26.8337C7.23433 27.0765 7.26216 27.3214 7.3392 27.5528C7.41623 27.7841 7.54078 27.9969 7.70484 28.1773C7.86891 28.3577 8.06887 28.5019 8.29191 28.6005C8.51495 28.6991 8.75613 28.75 9 28.7499H23C23.2441 28.7499 23.4855 28.6987 23.7087 28.5998C23.9318 28.5009 24.1318 28.3564 24.2958 28.1756C24.4598 27.9947 24.5842 27.7816 24.6609 27.5499C24.7376 27.3181 24.765 27.0729 24.7412 26.8299L23.5312 14.7499H26C26.1989 14.7499 26.3897 14.6709 26.5303 14.5303C26.671 14.3896 26.75 14.1989 26.75 13.9999V10.9999C26.75 10.801 26.671 10.6103 26.5303 10.4696C26.3897 10.329 26.1989 10.2499 26 10.2499ZM15.8462 2.80245C15.8902 2.76819 15.9443 2.74958 16 2.74958C16.0557 2.74958 16.1098 2.76819 16.1537 2.80245L20.0287 6.24995H11.9712L15.8462 2.80245ZM10.6788 7.74995H21.3213L21.875 13.2499H16.75V10.9999C16.75 10.801 16.671 10.6103 16.5303 10.4696C16.3897 10.329 16.1989 10.2499 16 10.2499C15.8011 10.2499 15.6103 10.329 15.4697 10.4696C15.329 10.6103 15.25 10.801 15.25 10.9999V13.2499H10.125L10.6788 7.74995ZM23.1787 27.1687C23.156 27.1936 23.1284 27.2136 23.0977 27.2276C23.067 27.2416 23.0337 27.2492 23 27.2499H9C8.96542 27.2501 8.93119 27.243 8.89947 27.2292C8.86776 27.2154 8.83926 27.1952 8.81576 27.1698C8.79226 27.1444 8.77429 27.1145 8.76297 27.0818C8.75165 27.0491 8.74723 27.0144 8.75 26.9799L9.275 21.7499H22.725L23.25 26.9762C23.2532 27.011 23.2491 27.0462 23.2379 27.0793C23.2267 27.1125 23.2087 27.143 23.185 27.1687H23.1787ZM22.575 20.2499H9.425L9.97625 14.7499H22.0238L22.575 20.2499Z" fill="white"/>
</svg>
