<svg width="32" height="32" viewBox="0 0 32 32" fill="none" xmlns="http://www.w3.org/2000/svg">
<path d="M26.7298 14.8288C26.7017 14.7087 26.6445 14.5975 26.5632 14.5048C26.4819 14.4121 26.3789 14.3409 26.2635 14.2975L18.8598 11.5213L20.7348 2.14629C20.7668 1.98628 20.7457 1.82021 20.6748 1.67325C20.6039 1.5263 20.4869 1.40649 20.3418 1.33199C20.1966 1.2575 20.0311 1.23238 19.8703 1.26045C19.7096 1.28852 19.5624 1.36825 19.451 1.48754L5.45104 16.4875C5.36697 16.5777 5.3064 16.6872 5.27471 16.8063C5.24303 16.9254 5.24119 17.0505 5.26937 17.1705C5.29755 17.2905 5.35487 17.4018 5.43627 17.4943C5.51767 17.5869 5.62063 17.658 5.73604 17.7013L13.1398 20.4775L11.2648 29.8525C11.2326 30.0126 11.2535 30.1788 11.3243 30.3259C11.3952 30.473 11.5121 30.5929 11.6573 30.6675C11.7634 30.7215 11.8807 30.7498 11.9998 30.75C12.1028 30.75 12.2046 30.7288 12.299 30.6878C12.3934 30.6467 12.4784 30.5866 12.5485 30.5113L26.5485 15.5113C26.6325 15.4212 26.6929 15.3117 26.7245 15.1927C26.7561 15.0737 26.7579 14.9487 26.7298 14.8288ZM13.2498 27.5575L14.731 20.1475C14.7662 19.973 14.7381 19.7916 14.6517 19.6359C14.5654 19.4802 14.4265 19.3602 14.2598 19.2975L7.30979 16.6913L18.7423 4.44129L17.2648 11.8525C17.2297 12.0271 17.2578 12.2085 17.3441 12.3642C17.4304 12.5199 17.5694 12.6399 17.736 12.7025L24.686 15.3088L13.2498 27.5575Z" fill="white"/>
</svg>
