<svg width="32" height="32" viewBox="0 0 32 32" fill="none" xmlns="http://www.w3.org/2000/svg">
<path d="M21.7349 13.9925C21.711 13.876 21.6598 13.7669 21.5855 13.6741C21.5112 13.5813 21.4158 13.5074 21.3074 13.4587L14.8749 10.57L16.6249 3.17374C16.6634 3.01242 16.6475 2.84287 16.5794 2.6916C16.5114 2.54033 16.3951 2.41589 16.2488 2.33774C16.1025 2.25959 15.9344 2.23214 15.7709 2.25969C15.6073 2.28723 15.4575 2.36823 15.3449 2.48999L3.44986 15.3475C3.36896 15.4348 3.31001 15.5401 3.27787 15.6547C3.24572 15.7693 3.24132 15.8899 3.26501 16.0065C3.28871 16.1232 3.33982 16.2325 3.41413 16.3255C3.48844 16.4185 3.58381 16.4924 3.69236 16.5412L10.1249 19.43L8.37486 26.8262C8.33643 26.9873 8.35237 27.1565 8.42021 27.3076C8.48804 27.4586 8.60395 27.583 8.74986 27.6612C8.89603 27.739 9.06382 27.7662 9.22707 27.7386C9.39032 27.711 9.53986 27.6302 9.65236 27.5087L21.5524 14.6525C21.633 14.5649 21.6916 14.4593 21.7233 14.3445C21.7551 14.2298 21.759 14.1091 21.7349 13.9925ZM10.4849 24.3937L11.7249 19.1737C11.7652 19.004 11.745 18.8255 11.6679 18.669C11.5908 18.5124 11.4615 18.3877 11.3024 18.3162L5.25986 15.6L14.5099 5.59999L13.2699 10.8212C13.2295 10.991 13.2497 11.1695 13.3268 11.326C13.4039 11.4825 13.5332 11.6073 13.6924 11.6787L19.7399 14.395L10.4849 24.3937ZM29.6649 26.6637L25.1649 17.6637C25.1027 17.5389 25.0069 17.4339 24.8883 17.3606C24.7697 17.2872 24.6331 17.2483 24.4936 17.2483C24.3542 17.2483 24.2175 17.2872 24.0989 17.3606C23.9803 17.4339 23.8846 17.5389 23.8224 17.6637L19.3224 26.6637C19.2783 26.7519 19.252 26.8479 19.245 26.9462C19.238 27.0445 19.2505 27.1432 19.2816 27.2367C19.3128 27.3302 19.3621 27.4166 19.4267 27.4911C19.4912 27.5655 19.5698 27.6265 19.658 27.6706C19.7461 27.7147 19.8421 27.741 19.9404 27.748C20.0387 27.7549 20.1374 27.7425 20.2309 27.7113C20.3244 27.6802 20.4109 27.6309 20.4853 27.5663C20.5598 27.5017 20.6208 27.4231 20.6649 27.335L21.9636 24.75H27.0361L28.3286 27.335C28.3909 27.4597 28.4867 27.5646 28.6052 27.6379C28.7238 27.7112 28.8605 27.75 28.9999 27.75C29.1163 27.7503 29.2311 27.7229 29.3349 27.67C29.5127 27.581 29.6479 27.4249 29.7107 27.2362C29.7736 27.0475 29.7589 26.8416 29.6699 26.6637H29.6649ZM22.7136 23.25L24.4999 19.6775L26.2861 23.25H22.7136Z" fill="white"/>
</svg>
