<svg width="32" height="32" viewBox="0 0 32 32" fill="none" xmlns="http://www.w3.org/2000/svg">
<path d="M26.6537 5.34622C25.9965 4.68906 25.1186 4.29941 24.1903 4.25282C23.262 4.20624 22.3495 4.50604 21.6297 5.09409C20.91 5.68214 20.4342 6.51654 20.2948 7.43546C20.1553 8.35438 20.3621 9.29235 20.875 10.0675L10.0675 20.875C9.34576 20.3994 8.48218 20.1872 7.62222 20.2739C6.76226 20.3606 5.95848 20.7411 5.34625 21.3512C4.84449 21.8531 4.49544 22.487 4.33965 23.1794C4.18386 23.8717 4.22772 24.594 4.46614 25.2625C4.70456 25.9309 5.12774 26.5179 5.68653 26.9554C6.24532 27.3928 6.91678 27.6628 7.62287 27.7338C8.32897 27.8048 9.04073 27.674 9.67545 27.3566C10.3102 27.0392 10.8418 26.5482 11.2085 25.9406C11.5753 25.3331 11.7621 24.634 11.7474 23.9245C11.7326 23.2149 11.5168 22.5242 11.125 21.9325L21.9325 11.125C22.7078 11.6407 23.6472 11.8495 24.5679 11.7108C25.4887 11.5721 26.3249 11.0958 26.9139 10.3746C27.5028 9.65338 27.8024 8.73886 27.7543 7.80897C27.7063 6.87908 27.314 6.00033 26.6537 5.34372V5.34622ZM9.59 25.5962C9.2753 25.9108 8.87439 26.125 8.43795 26.2118C8.00151 26.2985 7.54915 26.2539 7.13806 26.0836C6.72697 25.9133 6.37561 25.6249 6.12841 25.2549C5.88121 24.8849 5.74927 24.4499 5.74927 24.005C5.74927 23.56 5.88121 23.125 6.12841 22.755C6.37561 22.385 6.72697 22.0966 7.13806 21.9263C7.54915 21.756 8.00151 21.7114 8.43795 21.7982C8.87439 21.8849 9.2753 22.0991 9.59 22.4137C10.011 22.8355 10.2474 23.4072 10.2474 24.0031C10.2474 24.599 10.011 25.1706 9.59 25.5925V25.5962ZM25.59 9.59622C25.3811 9.80523 25.133 9.97103 24.86 10.0841C24.5869 10.1973 24.2943 10.2555 23.9987 10.2555C23.7032 10.2555 23.4106 10.1973 23.1375 10.0841C22.8645 9.97103 22.6164 9.80523 22.4075 9.59622C22.0929 9.28152 21.8787 8.88061 21.7919 8.44417C21.7052 8.00774 21.7498 7.55537 21.9201 7.14428C22.0904 6.73319 22.3788 6.38183 22.7488 6.13463C23.1188 5.88743 23.5538 5.75549 23.9987 5.75549C24.4437 5.75549 24.8787 5.88743 25.2487 6.13463C25.6187 6.38183 25.9071 6.73319 26.0774 7.14428C26.2477 7.55537 26.2923 8.00774 26.2056 8.44417C26.1188 8.88061 25.9046 9.28152 25.59 9.59622Z" fill="white"/>
</svg>
