<svg width="32" height="32" viewBox="0 0 32 32" fill="none" xmlns="http://www.w3.org/2000/svg">
<path d="M29.6538 4.34622C28.9495 3.64427 27.9956 3.25012 27.0013 3.25012C26.0069 3.25012 25.0531 3.64427 24.3488 4.34622C23.6468 5.05052 23.2527 6.00435 23.2527 6.99872C23.2527 7.99309 23.6468 8.94692 24.3488 9.65122C24.43 9.73122 24.5138 9.80622 24.5988 9.87747L21.0813 16.41C20.5543 16.2528 19.9993 16.2129 19.4553 16.2932C18.9113 16.3736 18.3915 16.5721 17.9325 16.875L15.125 14.0675C15.6353 13.2924 15.8401 12.3557 15.6998 11.4384C15.5594 10.5211 15.084 9.68843 14.3654 9.10135C13.6468 8.51426 12.736 8.21446 11.8092 8.25992C10.8823 8.30539 10.0052 8.69287 9.34753 9.34747C8.99924 9.6957 8.72296 10.1091 8.53447 10.5641C8.34597 11.0191 8.24896 11.5068 8.24896 11.9993C8.24896 12.4919 8.34597 12.9795 8.53447 13.4346C8.72296 13.8896 8.99924 14.303 9.34753 14.6512C9.42691 14.7313 9.51035 14.8072 9.59753 14.8787L6.08003 21.4112C5.43105 21.2154 4.74114 21.1992 4.08368 21.3643C3.42621 21.5294 2.82579 21.8696 2.34628 22.3487C1.82207 22.8733 1.46516 23.5415 1.32066 24.2688C1.17616 24.9962 1.25056 25.7501 1.53446 26.4351C1.81836 27.1202 2.29901 27.7058 2.91564 28.1177C3.53227 28.5296 4.2572 28.7495 4.99878 28.7495C5.74036 28.7495 6.46529 28.5296 7.08192 28.1177C7.69855 27.7058 8.1792 27.1202 8.4631 26.4351C8.747 25.7501 8.8214 24.9962 8.6769 24.2688C8.5324 23.5415 8.17549 22.8733 7.65128 22.3487C7.57003 22.2687 7.48628 22.1937 7.40128 22.1225L10.9188 15.59C11.4457 15.7475 12.0007 15.7876 12.5448 15.7072C13.0889 15.6269 13.6087 15.4281 14.0675 15.125L16.875 17.9325C16.4839 18.5244 16.2688 19.2152 16.2546 19.9245C16.2404 20.6338 16.4277 21.3327 16.7948 21.9398C17.1619 22.5469 17.6936 23.0375 18.3284 23.3545C18.9631 23.6715 19.6747 23.8019 20.3806 23.7306C21.0865 23.6593 21.7577 23.3893 22.3162 22.9518C22.8747 22.5143 23.2977 21.9274 23.536 21.2591C23.7743 20.5908 23.8181 19.8687 23.6624 19.1765C23.5067 18.4843 23.1578 17.8505 22.6563 17.3487C22.5769 17.2686 22.4935 17.1927 22.4063 17.1212L25.9238 10.5887C26.7237 10.8299 27.5814 10.7971 28.3605 10.4954C29.1397 10.1937 29.7958 9.64037 30.2247 8.9233C30.6536 8.20623 30.8307 7.36647 30.7279 6.53726C30.6252 5.70806 30.2485 4.93692 29.6575 4.34622H29.6538ZM6.59003 26.5962C6.27533 26.9108 5.87442 27.125 5.43798 27.2118C5.00155 27.2985 4.54918 27.2539 4.13809 27.0836C3.727 26.9133 3.37564 26.6249 3.12844 26.2549C2.88124 25.8849 2.7493 25.4499 2.7493 25.005C2.7493 24.56 2.88124 24.125 3.12844 23.755C3.37564 23.385 3.727 23.0966 4.13809 22.9263C4.54918 22.756 5.00155 22.7114 5.43798 22.7982C5.87442 22.8849 6.27533 23.0991 6.59003 23.4137C7.011 23.8355 7.24743 24.4072 7.24743 25.0031C7.24743 25.599 7.011 26.1706 6.59003 26.5925V26.5962ZM10.4088 13.5962C10.0942 13.2815 9.87997 12.8806 9.79321 12.4442C9.70645 12.0077 9.75105 11.5554 9.92137 11.1443C10.0917 10.7332 10.3801 10.3818 10.7501 10.1346C11.1201 9.88743 11.5551 9.75549 12 9.75549C12.445 9.75549 12.88 9.88743 13.25 10.1346C13.62 10.3818 13.9084 10.7332 14.0787 11.1443C14.249 11.5554 14.2936 12.0077 14.2069 12.4442C14.1201 12.8806 13.9059 13.2815 13.5913 13.5962C13.382 13.8049 13.1337 13.9703 12.8605 14.083C12.5873 14.1957 12.2945 14.2535 11.999 14.253C11.7035 14.2525 11.4109 14.1938 11.1381 14.0803C10.8652 13.9668 10.6174 13.8006 10.4088 13.5912V13.5962ZM21.5913 21.5962C21.2766 21.9108 20.8757 22.125 20.4392 22.2118C20.0028 22.2985 19.5504 22.2539 19.1393 22.0836C18.7283 21.9133 18.3769 21.6249 18.1297 21.2549C17.8825 20.8849 17.7505 20.4499 17.7505 20.005C17.7505 19.56 17.8825 19.125 18.1297 18.755C18.3769 18.385 18.7283 18.0966 19.1393 17.9263C19.5504 17.756 20.0028 17.7114 20.4392 17.7982C20.8757 17.8849 21.2766 18.0991 21.5913 18.4137C22.0119 18.8355 22.2481 19.4068 22.2481 20.0025C22.2481 20.5981 22.0119 21.1694 21.5913 21.5912V21.5962ZM28.5913 8.59622C28.2766 8.91082 27.8757 9.12504 27.4392 9.21179C27.0028 9.29855 26.5504 9.25395 26.1393 9.08363C25.7283 8.91331 25.3769 8.62492 25.1297 8.25493C24.8825 7.88493 24.7505 7.44995 24.7505 7.00497C24.7505 6.56 24.8825 6.12501 25.1297 5.75502C25.3769 5.38502 25.7283 5.09663 26.1393 4.92631C26.5504 4.75599 27.0028 4.71139 27.4392 4.79815C27.8757 4.88491 28.2766 5.09913 28.5913 5.41372C29.0117 5.83528 29.2478 6.40625 29.2481 7.00159C29.2483 7.59692 29.0126 8.16809 28.5925 8.58997L28.5913 8.59622Z" fill="white"/>
</svg>
