<svg width="32" height="32" viewBox="0 0 32 32" fill="none" xmlns="http://www.w3.org/2000/svg">
<path d="M29.7498 11.0225C29.7027 12.7001 29.0136 14.2955 27.8248 15.48L23.4811 19.8238C22.8714 20.4367 22.1461 20.9226 21.3472 21.2533C20.5484 21.5839 19.6919 21.7528 18.8273 21.75H18.8211C17.9421 21.7494 17.0722 21.5726 16.2627 21.2301C15.4531 20.8876 14.7205 20.3864 14.1079 19.756C13.4953 19.1256 13.0153 18.3788 12.6962 17.5598C12.3771 16.7408 12.2253 15.8662 12.2498 14.9875C12.2551 14.7921 12.3364 14.6064 12.4765 14.4701C12.6165 14.3337 12.8043 14.2575 12.9998 14.2575H13.0211C13.2198 14.2631 13.4082 14.3473 13.5448 14.4917C13.6815 14.6361 13.7552 14.8288 13.7498 15.0275C13.7305 15.706 13.8473 16.3815 14.0935 17.014C14.3396 17.6465 14.7101 18.2233 15.183 18.7102C15.6559 19.1971 16.2216 19.5842 16.8467 19.8487C17.4718 20.1132 18.1436 20.2496 18.8223 20.25C19.4895 20.2516 20.1504 20.121 20.7668 19.8657C21.3832 19.6103 21.9429 19.2354 22.4136 18.7625L26.7573 14.42C27.6748 13.461 28.1803 12.1808 28.1657 10.8537C28.1512 9.52658 27.6177 8.25787 26.6794 7.31915C25.7412 6.38042 24.4728 5.84626 23.1457 5.83101C21.8185 5.81576 20.5382 6.32062 19.5786 7.23754L18.2036 8.61254C18.0629 8.75327 17.872 8.83233 17.673 8.83233C17.4739 8.83233 17.2831 8.75327 17.1423 8.61254C17.0016 8.47181 16.9225 8.28093 16.9225 8.08191C16.9225 7.88289 17.0016 7.69202 17.1423 7.55129L18.5173 6.17629C19.1282 5.56525 19.8534 5.08053 20.6515 4.74982C21.4497 4.41912 22.3052 4.2489 23.1692 4.2489C24.0332 4.2489 24.8887 4.41912 25.6869 4.74982C26.4851 5.08053 27.2103 5.56525 27.8211 6.17629C28.4548 6.8108 28.9526 7.56772 29.2842 8.40092C29.6158 9.23411 29.7742 10.1261 29.7498 11.0225ZM13.7973 23.385L12.4223 24.76C11.9513 25.2343 11.3907 25.6103 10.7731 25.8661C10.1556 26.1219 9.49329 26.2524 8.82484 26.25C7.82067 26.2493 6.83925 25.9509 6.00462 25.3926C5.16998 24.8342 4.5196 24.041 4.13566 23.1131C3.75172 22.1852 3.65146 21.1644 3.84755 20.1795C4.04364 19.1947 4.52728 18.2901 5.23734 17.58L9.57734 13.2375C10.2959 12.5171 11.2144 12.0291 12.2137 11.8368C13.2129 11.6445 14.2469 11.7569 15.1815 12.1593C16.1162 12.5617 16.9084 13.2356 17.4555 14.0936C18.0026 14.9516 18.2793 15.9541 18.2498 16.9713C18.2445 17.17 18.3182 17.3627 18.4548 17.5071C18.5915 17.6515 18.7799 17.7357 18.9786 17.7413H18.9998C19.1953 17.7414 19.3831 17.6651 19.5232 17.5287C19.6633 17.3924 19.7446 17.2067 19.7498 17.0113C19.7872 15.6942 19.4282 14.3963 18.7193 13.2857C18.0105 12.175 16.9845 11.3028 15.7742 10.7819C14.564 10.2611 13.2252 10.1157 11.9313 10.3645C10.6374 10.6134 9.4481 11.245 8.51734 12.1775L4.17234 16.52C3.25277 17.4399 2.62648 18.6116 2.37262 19.8873C2.11876 21.1629 2.24872 22.4852 2.74609 23.687C3.24345 24.8888 4.08589 25.9162 5.16695 26.6394C6.24802 27.3625 7.51919 27.749 8.81984 27.75C9.6843 27.7526 10.5407 27.5835 11.3393 27.2526C12.1379 26.9218 12.863 26.4357 13.4723 25.8225L14.8473 24.4475C14.9179 24.3781 14.974 24.2953 15.0123 24.204C15.0507 24.1128 15.0707 24.0148 15.071 23.9158C15.0714 23.8168 15.0521 23.7187 15.0143 23.6272C14.9766 23.5357 14.9211 23.4525 14.851 23.3826C14.781 23.3126 14.6978 23.2572 14.6062 23.2196C14.5147 23.1819 14.4165 23.1628 14.3175 23.1632C14.2185 23.1637 14.1206 23.1838 14.0294 23.2222C13.9382 23.2607 13.8555 23.3169 13.7861 23.3875L13.7973 23.385Z" fill="white"/>
</svg>
