<svg width="32" height="32" viewBox="0 0 32 32" fill="none" xmlns="http://www.w3.org/2000/svg">
<path d="M16.75 20V29C16.75 29.1989 16.671 29.3897 16.5303 29.5303C16.3897 29.671 16.1989 29.75 16 29.75C15.8011 29.75 15.6103 29.671 15.4697 29.5303C15.329 29.3897 15.25 29.1989 15.25 29V20C15.25 19.8011 15.329 19.6103 15.4697 19.4697C15.6103 19.329 15.8011 19.25 16 19.25C16.1989 19.25 16.3897 19.329 16.5303 19.4697C16.671 19.6103 16.75 19.8011 16.75 20ZM26 12.25H17.81L23.53 6.53C23.6625 6.38783 23.7346 6.19978 23.7312 6.00548C23.7277 5.81118 23.649 5.62579 23.5116 5.48838C23.3742 5.35097 23.1888 5.27225 22.9945 5.26883C22.8002 5.2654 22.6122 5.33752 22.47 5.47L16.75 11.19V3C16.75 2.80109 16.671 2.61032 16.5303 2.46967C16.3897 2.32902 16.1989 2.25 16 2.25C15.8011 2.25 15.6103 2.32902 15.4697 2.46967C15.329 2.61032 15.25 2.80109 15.25 3V11.19L9.53 5.47C9.38783 5.33752 9.19978 5.2654 9.00548 5.26883C8.81118 5.27225 8.62579 5.35097 8.48838 5.48838C8.35097 5.62579 8.27225 5.81118 8.26882 6.00548C8.2654 6.19978 8.33752 6.38783 8.47 6.53L14.19 12.25H6C5.80109 12.25 5.61032 12.329 5.46967 12.4697C5.32902 12.6103 5.25 12.8011 5.25 13C5.25 13.1989 5.32902 13.3897 5.46967 13.5303C5.61032 13.671 5.80109 13.75 6 13.75H14.19L8.47 19.47C8.39631 19.5387 8.33721 19.6215 8.29622 19.7135C8.25523 19.8055 8.23318 19.9048 8.23141 20.0055C8.22963 20.1062 8.24816 20.2062 8.28588 20.2996C8.3236 20.393 8.37974 20.4778 8.45096 20.549C8.52218 20.6203 8.60701 20.6764 8.7004 20.7141C8.79379 20.7518 8.89382 20.7704 8.99452 20.7686C9.09522 20.7668 9.19454 20.7448 9.28654 20.7038C9.37854 20.6628 9.46134 20.6037 9.53 20.53L16 14.06L22.47 20.53C22.6122 20.6625 22.8002 20.7346 22.9945 20.7312C23.1888 20.7277 23.3742 20.649 23.5116 20.5116C23.649 20.3742 23.7277 20.1888 23.7312 19.9945C23.7346 19.8002 23.6625 19.6122 23.53 19.47L17.81 13.75H26C26.1989 13.75 26.3897 13.671 26.5303 13.5303C26.671 13.3897 26.75 13.1989 26.75 13C26.75 12.8011 26.671 12.6103 26.5303 12.4697C26.3897 12.329 26.1989 12.25 26 12.25Z" fill="white"/>
</svg>
