<svg width="32" height="32" viewBox="0 0 32 32" fill="none" xmlns="http://www.w3.org/2000/svg">
<path d="M20.5312 11.4688C20.6009 11.5384 20.6563 11.6212 20.694 11.7122C20.7317 11.8033 20.7512 11.9009 20.7512 11.9994C20.7512 12.098 20.7317 12.1956 20.694 12.2866C20.6563 12.3777 20.6009 12.4604 20.5312 12.53L12.5312 20.53C12.3903 20.6689 12.2001 20.7464 12.0023 20.7457C11.8044 20.745 11.6149 20.6662 11.4749 20.5264C11.3349 20.3866 11.2558 20.1971 11.2549 19.9992C11.254 19.8014 11.3313 19.6112 11.47 19.47L19.47 11.47C19.5395 11.4002 19.6222 11.3448 19.7132 11.307C19.8042 11.2691 19.9018 11.2496 20.0003 11.2495C20.0989 11.2493 20.1965 11.2687 20.2876 11.3063C20.3787 11.3439 20.4615 11.3991 20.5312 11.4688ZM26.775 5.22504C25.5079 3.96084 23.7911 3.25085 22.0012 3.25085C20.2113 3.25085 18.4945 3.96084 17.2275 5.22504L13.4687 8.98129C13.328 9.12203 13.2489 9.3129 13.2489 9.51192C13.2489 9.71094 13.328 9.90181 13.4687 10.0425C13.6094 10.1833 13.8003 10.2623 13.9993 10.2623C14.1984 10.2623 14.3892 10.1833 14.53 10.0425L18.2887 6.28504C19.2735 5.30026 20.6091 4.74702 22.0018 4.74702C23.3945 4.74702 24.7302 5.30026 25.715 6.28504C26.6997 7.26983 27.253 8.60548 27.253 9.99817C27.253 11.3909 26.6997 12.7265 25.715 13.7113L21.955 17.47C21.8853 17.5397 21.83 17.6225 21.7923 17.7135C21.7546 17.8045 21.7352 17.9021 21.7352 18.0007C21.7352 18.0992 21.7546 18.1968 21.7923 18.2878C21.83 18.3789 21.8853 18.4616 21.955 18.5313C22.0246 18.601 22.1074 18.6563 22.1984 18.694C22.2895 18.7317 22.387 18.7511 22.4856 18.7511C22.5841 18.7511 22.6817 18.7317 22.7728 18.694C22.8638 18.6563 22.9465 18.601 23.0162 18.5313L26.775 14.7725C27.402 14.1457 27.8994 13.4015 28.2387 12.5824C28.5781 11.7633 28.7528 10.8854 28.7528 9.99879C28.7528 9.11219 28.5781 8.23426 28.2387 7.41517C27.8994 6.59608 27.402 5.85187 26.775 5.22504ZM17.47 21.955L13.7112 25.715C12.7264 26.6998 11.3908 27.2531 9.99809 27.2531C8.60539 27.2531 7.26974 26.6998 6.28496 25.715C5.30018 24.7303 4.74694 23.3946 4.74694 22.0019C4.74694 20.6092 5.30018 19.2736 6.28496 18.2888L10.0425 14.53C10.1832 14.3893 10.2623 14.1984 10.2623 13.9994C10.2623 13.8004 10.1832 13.6095 10.0425 13.4688C9.90173 13.3281 9.71086 13.249 9.51184 13.249C9.31281 13.249 9.12194 13.3281 8.98121 13.4688L5.23121 17.2275C3.96497 18.4936 3.25354 20.2109 3.25342 22.0015C3.2533 23.7921 3.96451 25.5094 5.23059 26.7757C6.49666 28.0419 8.2139 28.7533 10.0045 28.7535C11.7951 28.7536 13.5125 28.0424 14.7787 26.7763L18.5375 23.0163C18.6071 22.9466 18.6624 22.8639 18.7001 22.7728C18.7378 22.6818 18.7573 22.5842 18.7573 22.4857C18.7573 22.3871 18.7378 22.2895 18.7001 22.1985C18.6624 22.1075 18.6071 22.0247 18.5375 21.955C18.4678 21.8854 18.3851 21.8301 18.294 21.7924C18.203 21.7547 18.1054 21.7353 18.0068 21.7353C17.9083 21.7353 17.8107 21.7547 17.7197 21.7924C17.6286 21.8301 17.5459 21.8854 17.4762 21.955H17.47Z" fill="white"/>
</svg>
