<svg width="32" height="32" viewBox="0 0 32 32" fill="none" xmlns="http://www.w3.org/2000/svg">
<path d="M25.0001 7.00006C24.2043 6.20538 23.126 5.7585 22.0013 5.75733C20.8767 5.75616 19.7975 6.20079 19.0001 6.99381L17.5426 8.51756C17.4754 8.59181 17.394 8.65186 17.3032 8.69415C17.2124 8.73644 17.1141 8.76012 17.014 8.7638C16.9139 8.76747 16.8141 8.75107 16.7205 8.71555C16.6268 8.68003 16.5413 8.62611 16.4688 8.55699C16.3963 8.48786 16.3384 8.40492 16.2985 8.31306C16.2586 8.2212 16.2376 8.12229 16.2365 8.02214C16.2355 7.922 16.2545 7.82266 16.2924 7.72999C16.3304 7.63732 16.3866 7.55318 16.4576 7.48256L17.9213 5.94756L17.9338 5.93381C19.0122 4.85537 20.4749 4.24951 22.0001 4.24951C23.5252 4.24951 24.9879 4.85537 26.0663 5.93381C27.1447 7.01224 27.7506 8.47492 27.7506 10.0001C27.7506 11.5252 27.1447 12.9879 26.0663 14.0663L26.0526 14.0788L24.5176 15.5426C24.4469 15.6136 24.3628 15.6697 24.2701 15.7077C24.1775 15.7456 24.0781 15.7647 23.978 15.7636C23.8778 15.7626 23.7789 15.7415 23.6871 15.7016C23.5952 15.6617 23.5123 15.6038 23.4431 15.5313C23.374 15.4589 23.3201 15.3733 23.2846 15.2796C23.2491 15.186 23.2326 15.0862 23.2363 14.9861C23.24 14.886 23.2637 14.7877 23.306 14.6969C23.3483 14.6061 23.4083 14.5248 23.4826 14.4576L25.0113 13.0001C25.8037 12.202 26.2474 11.1224 26.2453 9.99773C26.2432 8.87311 25.7954 7.79517 25.0001 7.00006ZM14.4526 23.4876L13.0001 25.0113C12.6054 25.406 12.1368 25.7191 11.6211 25.9327C11.1054 26.1463 10.5526 26.2563 9.99443 26.2563C9.43624 26.2563 8.88351 26.1463 8.3678 25.9327C7.85209 25.7191 7.38351 25.406 6.98881 25.0113C6.19167 24.2142 5.74384 23.133 5.74384 22.0057C5.74384 20.8784 6.19167 19.7972 6.98881 19.0001L8.51756 17.5413C8.65543 17.4027 8.73373 17.2157 8.73577 17.0202C8.73782 16.8247 8.66344 16.6362 8.5285 16.4947C8.39356 16.3533 8.20871 16.2701 8.01334 16.2629C7.81796 16.2557 7.62751 16.3251 7.48256 16.4563L5.94756 17.9213L5.93381 17.9338C4.85537 19.0122 4.24951 20.4749 4.24951 22.0001C4.24951 23.5252 4.85537 24.9879 5.93381 26.0663C7.01224 27.1447 8.47492 27.7506 10.0001 27.7506C11.5252 27.7506 12.9879 27.1447 14.0663 26.0663L14.0788 26.0526L15.5426 24.5176C15.6136 24.4469 15.6697 24.3628 15.7077 24.2701C15.7456 24.1775 15.7647 24.0781 15.7636 23.978C15.7626 23.8778 15.7415 23.7789 15.7016 23.6871C15.6617 23.5952 15.6038 23.5123 15.5313 23.4431C15.4589 23.374 15.3733 23.3201 15.2796 23.2846C15.186 23.2491 15.0862 23.2326 14.9861 23.2363C14.886 23.24 14.7877 23.2637 14.6969 23.306C14.6061 23.3483 14.5248 23.4083 14.4576 23.4826L14.4526 23.4876ZM27.0001 19.2501H24.0001C23.8011 19.2501 23.6104 19.3291 23.4697 19.4697C23.3291 19.6104 23.2501 19.8011 23.2501 20.0001C23.2501 20.199 23.3291 20.3897 23.4697 20.5304C23.6104 20.671 23.8011 20.7501 24.0001 20.7501H27.0001C27.199 20.7501 27.3897 20.671 27.5304 20.5304C27.671 20.3897 27.7501 20.199 27.7501 20.0001C27.7501 19.8011 27.671 19.6104 27.5304 19.4697C27.3897 19.3291 27.199 19.2501 27.0001 19.2501ZM5.00006 12.7501H8.00006C8.19897 12.7501 8.38974 12.671 8.53039 12.5304C8.67104 12.3897 8.75006 12.199 8.75006 12.0001C8.75006 11.8011 8.67104 11.6104 8.53039 11.4697C8.38974 11.3291 8.19897 11.2501 8.00006 11.2501H5.00006C4.80115 11.2501 4.61038 11.3291 4.46973 11.4697C4.32908 11.6104 4.25006 11.8011 4.25006 12.0001C4.25006 12.199 4.32908 12.3897 4.46973 12.5304C4.61038 12.671 4.80115 12.7501 5.00006 12.7501ZM20.0001 23.2501C19.8011 23.2501 19.6104 23.3291 19.4697 23.4697C19.3291 23.6104 19.2501 23.8011 19.2501 24.0001V27.0001C19.2501 27.199 19.3291 27.3897 19.4697 27.5304C19.6104 27.671 19.8011 27.7501 20.0001 27.7501C20.199 27.7501 20.3897 27.671 20.5304 27.5304C20.671 27.3897 20.7501 27.199 20.7501 27.0001V24.0001C20.7501 23.8011 20.671 23.6104 20.5304 23.4697C20.3897 23.3291 20.199 23.2501 20.0001 23.2501ZM12.0001 8.75006C12.199 8.75006 12.3897 8.67104 12.5304 8.53039C12.671 8.38974 12.7501 8.19897 12.7501 8.00006V5.00006C12.7501 4.80115 12.671 4.61038 12.5304 4.46973C12.3897 4.32908 12.199 4.25006 12.0001 4.25006C11.8011 4.25006 11.6104 4.32908 11.4697 4.46973C11.3291 4.61038 11.2501 4.80115 11.2501 5.00006V8.00006C11.2501 8.19897 11.3291 8.38974 11.4697 8.53039C11.6104 8.67104 11.8011 8.75006 12.0001 8.75006Z" fill="white"/>
</svg>
