<svg width="32" height="32" viewBox="0 0 32 32" fill="none" xmlns="http://www.w3.org/2000/svg">
<path d="M28.4675 26.5863C28.3122 26.7099 28.1143 26.767 27.917 26.745C27.7197 26.723 27.5392 26.6236 27.415 26.4688C27.25 26.2563 23.25 21.1462 23.25 11C23.25 9.07718 22.4862 7.23311 21.1265 5.87348C19.7669 4.51384 17.9228 3.75 16 3.75C14.0772 3.75 12.2331 4.51384 10.8735 5.87348C9.51384 7.23311 8.75 9.07718 8.75 11C8.75 21.1462 4.75625 26.2563 4.58625 26.4688C4.4621 26.6242 4.28126 26.724 4.08353 26.7462C3.88579 26.7683 3.68736 26.711 3.53188 26.5869C3.37639 26.4627 3.2766 26.2819 3.25445 26.0842C3.23229 25.8864 3.2896 25.688 3.41375 25.5325C3.46 25.4737 7.25 20.57 7.25 11C7.25 8.67936 8.17187 6.45376 9.81282 4.81282C11.4538 3.17187 13.6794 2.25 16 2.25C18.3206 2.25 20.5462 3.17187 22.1872 4.81282C23.8281 6.45376 24.75 8.67936 24.75 11C24.75 20.5788 28.5475 25.4837 28.5863 25.5325C28.7102 25.688 28.7673 25.8864 28.745 26.084C28.7228 26.2816 28.6229 26.4622 28.4675 26.5863ZM12.5 11.25C12.2528 11.25 12.0111 11.3233 11.8055 11.4607C11.6 11.598 11.4398 11.7932 11.3452 12.0216C11.2505 12.2501 11.2258 12.5014 11.274 12.7439C11.3223 12.9863 11.4413 13.2091 11.6161 13.3839C11.7909 13.5587 12.0137 13.6778 12.2561 13.726C12.4986 13.7742 12.7499 13.7495 12.9784 13.6548C13.2068 13.5602 13.402 13.4 13.5393 13.1945C13.6767 12.9889 13.75 12.7472 13.75 12.5C13.75 12.1685 13.6183 11.8505 13.3839 11.6161C13.1495 11.3817 12.8315 11.25 12.5 11.25ZM20.75 12.5C20.75 12.2528 20.6767 12.0111 20.5393 11.8055C20.402 11.6 20.2068 11.4398 19.9784 11.3452C19.7499 11.2505 19.4986 11.2258 19.2561 11.274C19.0137 11.3222 18.7909 11.4413 18.6161 11.6161C18.4413 11.7909 18.3223 12.0137 18.274 12.2561C18.2258 12.4986 18.2505 12.7499 18.3452 12.9784C18.4398 13.2068 18.6 13.402 18.8055 13.5393C19.0111 13.6767 19.2528 13.75 19.5 13.75C19.8315 13.75 20.1495 13.6183 20.3839 13.3839C20.6183 13.1495 20.75 12.8315 20.75 12.5ZM12.3363 16.3288C12.1582 16.2397 11.9521 16.2251 11.7633 16.288C11.5745 16.351 11.4184 16.4863 11.3294 16.6644C11.2404 16.8424 11.2257 17.0485 11.2887 17.2373C11.3516 17.4261 11.487 17.5822 11.665 17.6712L15.665 19.6712C15.7691 19.7231 15.8837 19.7501 16 19.75C16.1166 19.7499 16.2317 19.723 16.3363 19.6712L20.3363 17.6712C20.5143 17.5822 20.6497 17.4261 20.7126 17.2373C20.7755 17.0485 20.7609 16.8424 20.6719 16.6644C20.5829 16.4863 20.4268 16.351 20.2379 16.288C20.0491 16.2251 19.843 16.2397 19.665 16.3288L16 18.1612L12.3363 16.3288ZM16 22.25C14.8414 22.2598 13.7065 22.5788 12.7124 23.1738C11.7183 23.7689 10.901 24.6185 10.345 25.635C10.2971 25.7211 10.2666 25.8158 10.2552 25.9137C10.2439 26.0116 10.2519 26.1107 10.2789 26.2055C10.3334 26.3969 10.4617 26.5588 10.6356 26.6556C10.8095 26.7524 11.0147 26.7762 11.2061 26.7217C11.3009 26.6947 11.3894 26.6493 11.4667 26.5881C11.5439 26.5269 11.6083 26.4511 11.6563 26.365C12.0744 25.5755 12.6999 24.9149 13.4653 24.4542C14.2307 23.9935 15.1072 23.75 16.0006 23.75C16.894 23.75 17.7705 23.9935 18.536 24.4542C19.3014 24.9149 19.9268 25.5755 20.345 26.365C20.41 26.4817 20.505 26.5789 20.6201 26.6466C20.7353 26.7143 20.8664 26.75 21 26.75C21.1274 26.7503 21.2528 26.7176 21.3638 26.655C21.4499 26.6072 21.5257 26.5428 21.5869 26.4657C21.6482 26.3885 21.6936 26.3 21.7207 26.2053C21.7477 26.1106 21.7558 26.0115 21.7446 25.9136C21.7333 25.8158 21.7029 25.7211 21.655 25.635C21.0988 24.6187 20.2815 23.7692 19.2874 23.1742C18.2933 22.5791 17.1585 22.2601 16 22.25Z" fill="white"/>
</svg>
