<svg width="32" height="32" viewBox="0 0 32 32" fill="none" xmlns="http://www.w3.org/2000/svg">
<path d="M4.25 8C4.25 7.80109 4.32902 7.61032 4.46967 7.46967C4.61032 7.32902 4.80109 7.25 5 7.25H27C27.1989 7.25 27.3897 7.32902 27.5303 7.46967C27.671 7.61032 27.75 7.80109 27.75 8C27.75 8.19891 27.671 8.38968 27.5303 8.53033C27.3897 8.67098 27.1989 8.75 27 8.75H5C4.80109 8.75 4.61032 8.67098 4.46967 8.53033C4.32902 8.38968 4.25 8.19891 4.25 8ZM5 16.75H13C13.1989 16.75 13.3897 16.671 13.5303 16.5303C13.671 16.3897 13.75 16.1989 13.75 16C13.75 15.8011 13.671 15.6103 13.5303 15.4697C13.3897 15.329 13.1989 15.25 13 15.25H5C4.80109 15.25 4.61032 15.329 4.46967 15.4697C4.32902 15.6103 4.25 15.8011 4.25 16C4.25 16.1989 4.32902 16.3897 4.46967 16.5303C4.61032 16.671 4.80109 16.75 5 16.75ZM15 23.25H5C4.80109 23.25 4.61032 23.329 4.46967 23.4697C4.32902 23.6103 4.25 23.8011 4.25 24C4.25 24.1989 4.32902 24.3897 4.46967 24.5303C4.61032 24.671 4.80109 24.75 5 24.75H15C15.1989 24.75 15.3897 24.671 15.5303 24.5303C15.671 24.3897 15.75 24.1989 15.75 24C15.75 23.8011 15.671 23.6103 15.5303 23.4697C15.3897 23.329 15.1989 23.25 15 23.25ZM30.75 18C30.75 22.4125 24.5975 25.54 24.335 25.6712C24.231 25.7232 24.1163 25.7502 24 25.7502C23.8837 25.7502 23.769 25.7232 23.665 25.6712C23.4025 25.54 17.25 22.4125 17.25 18C17.25 17.2129 17.4976 16.4458 17.9578 15.8073C18.418 15.1688 19.0675 14.6913 19.8141 14.4424C20.5608 14.1935 21.3669 14.1859 22.1181 14.4206C22.8694 14.6552 23.5278 15.1204 24 15.75C24.4722 15.1204 25.1306 14.6552 25.8819 14.4206C26.6331 14.1859 27.4392 14.1935 28.1859 14.4424C28.9325 14.6913 29.582 15.1688 30.0422 15.8073C30.5024 16.4458 30.75 17.2129 30.75 18ZM29.25 18C29.25 17.4033 29.0129 16.831 28.591 16.409C28.169 15.9871 27.5967 15.75 27 15.75C26.4033 15.75 25.831 15.9871 25.409 16.409C24.9871 16.831 24.75 17.4033 24.75 18C24.75 18.1989 24.671 18.3897 24.5303 18.5303C24.3897 18.671 24.1989 18.75 24 18.75C23.8011 18.75 23.6103 18.671 23.4697 18.5303C23.329 18.3897 23.25 18.1989 23.25 18C23.25 17.4033 23.0129 16.831 22.591 16.409C22.169 15.9871 21.5967 15.75 21 15.75C20.4033 15.75 19.831 15.9871 19.409 16.409C18.9871 16.831 18.75 17.4033 18.75 18C18.75 19.7688 20.2225 21.375 21.4587 22.4062C22.2525 23.0613 23.1029 23.6444 24 24.1488C24.8974 23.6449 25.7478 23.0617 26.5413 22.4062C27.7775 21.375 29.25 19.7688 29.25 18Z" fill="white"/>
</svg>
