<svg width="32" height="32" viewBox="0 0 32 32" fill="none" xmlns="http://www.w3.org/2000/svg">
<path d="M27.7499 16C27.7499 16.1989 27.6709 16.3897 27.5302 16.5304C27.3896 16.671 27.1988 16.75 26.9999 16.75H15.9999C15.801 16.75 15.6102 16.671 15.4696 16.5304C15.3289 16.3897 15.2499 16.1989 15.2499 16C15.2499 15.8011 15.3289 15.6104 15.4696 15.4697C15.6102 15.329 15.801 15.25 15.9999 15.25H26.9999C27.1988 15.25 27.3896 15.329 27.5302 15.4697C27.6709 15.6104 27.7499 15.8011 27.7499 16ZM15.9999 8.75003H26.9999C27.1988 8.75003 27.3896 8.67101 27.5302 8.53036C27.6709 8.38971 27.7499 8.19894 27.7499 8.00003C27.7499 7.80112 27.6709 7.61035 27.5302 7.4697C27.3896 7.32905 27.1988 7.25003 26.9999 7.25003H15.9999C15.801 7.25003 15.6102 7.32905 15.4696 7.4697C15.3289 7.61035 15.2499 7.80112 15.2499 8.00003C15.2499 8.19894 15.3289 8.38971 15.4696 8.53036C15.6102 8.67101 15.801 8.75003 15.9999 8.75003ZM26.9999 23.25H15.9999C15.801 23.25 15.6102 23.329 15.4696 23.4697C15.3289 23.6104 15.2499 23.8011 15.2499 24C15.2499 24.1989 15.3289 24.3897 15.4696 24.5304C15.6102 24.671 15.801 24.75 15.9999 24.75H26.9999C27.1988 24.75 27.3896 24.671 27.5302 24.5304C27.6709 24.3897 27.7499 24.1989 27.7499 24C27.7499 23.8011 27.6709 23.6104 27.5302 23.4697C27.3896 23.329 27.1988 23.25 26.9999 23.25ZM10.4699 5.47003L6.99991 8.93878L5.52991 7.47003C5.38773 7.33755 5.19969 7.26543 5.00539 7.26885C4.81109 7.27228 4.6257 7.35099 4.48829 7.48841C4.35087 7.62582 4.27216 7.81121 4.26873 8.00551C4.26531 8.19981 4.33743 8.38785 4.46991 8.53003L6.46991 10.53C6.61053 10.6705 6.80116 10.7494 6.99991 10.7494C7.19866 10.7494 7.38928 10.6705 7.52991 10.53L11.5299 6.53003C11.6624 6.38785 11.7345 6.19981 11.7311 6.00551C11.7277 5.81121 11.6489 5.62582 11.5115 5.48841C11.3741 5.35099 11.1887 5.27228 10.9944 5.26885C10.8001 5.26543 10.6121 5.33755 10.4699 5.47003ZM10.4699 13.47L6.99991 16.9388L5.52991 15.47C5.46125 15.3963 5.37845 15.3372 5.28645 15.2962C5.19445 15.2553 5.09513 15.2332 4.99443 15.2314C4.89373 15.2297 4.7937 15.2482 4.70031 15.2859C4.60692 15.3236 4.52209 15.3798 4.45087 15.451C4.37965 15.5222 4.32351 15.607 4.28579 15.7004C4.24807 15.7938 4.22954 15.8938 4.23132 15.9946C4.23309 16.0953 4.25514 16.1946 4.29613 16.2866C4.33712 16.3786 4.39622 16.4614 4.46991 16.53L6.46991 18.53C6.61053 18.6705 6.80116 18.7494 6.99991 18.7494C7.19866 18.7494 7.38928 18.6705 7.52991 18.53L11.5299 14.53C11.6624 14.3879 11.7345 14.1998 11.7311 14.0055C11.7277 13.8112 11.6489 13.6258 11.5115 13.4884C11.3741 13.351 11.1887 13.2723 10.9944 13.2689C10.8001 13.2654 10.6121 13.3376 10.4699 13.47ZM10.4699 21.47L6.99991 24.9388L5.52991 23.47C5.38773 23.3375 5.19969 23.2654 5.00539 23.2689C4.81109 23.2723 4.6257 23.351 4.48829 23.4884C4.35087 23.6258 4.27216 23.8112 4.26873 24.0055C4.26531 24.1998 4.33743 24.3879 4.46991 24.53L6.46991 26.53C6.61053 26.6705 6.80116 26.7494 6.99991 26.7494C7.19866 26.7494 7.38928 26.6705 7.52991 26.53L11.5299 22.53C11.6624 22.3879 11.7345 22.1998 11.7311 22.0055C11.7277 21.8112 11.6489 21.6258 11.5115 21.4884C11.3741 21.351 11.1887 21.2723 10.9944 21.2689C10.8001 21.2654 10.6121 21.3375 10.4699 21.47Z" fill="white"/>
</svg>
