<svg width="32" height="32" viewBox="0 0 32 32" fill="none" xmlns="http://www.w3.org/2000/svg">
<path d="M4.25 8C4.25 7.80109 4.32902 7.61032 4.46967 7.46967C4.61032 7.32902 4.80109 7.25 5 7.25H27C27.1989 7.25 27.3897 7.32902 27.5303 7.46967C27.671 7.61032 27.75 7.80109 27.75 8C27.75 8.19891 27.671 8.38968 27.5303 8.53033C27.3897 8.67098 27.1989 8.75 27 8.75H5C4.80109 8.75 4.61032 8.67098 4.46967 8.53033C4.32902 8.38968 4.25 8.19891 4.25 8ZM5 16.75H12C12.1989 16.75 12.3897 16.671 12.5303 16.5303C12.671 16.3897 12.75 16.1989 12.75 16C12.75 15.8011 12.671 15.6103 12.5303 15.4697C12.3897 15.329 12.1989 15.25 12 15.25H5C4.80109 15.25 4.61032 15.329 4.46967 15.4697C4.32902 15.6103 4.25 15.8011 4.25 16C4.25 16.1989 4.32902 16.3897 4.46967 16.5303C4.61032 16.671 4.80109 16.75 5 16.75ZM14 23.25H5C4.80109 23.25 4.61032 23.329 4.46967 23.4697C4.32902 23.6103 4.25 23.8011 4.25 24C4.25 24.1989 4.32902 24.3897 4.46967 24.5303C4.61032 24.671 4.80109 24.75 5 24.75H14C14.1989 24.75 14.3897 24.671 14.5303 24.5303C14.671 24.3897 14.75 24.1989 14.75 24C14.75 23.8011 14.671 23.6103 14.5303 23.4697C14.3897 23.329 14.1989 23.25 14 23.25ZM29.4775 17.78L26.5413 20.2038L27.4363 23.82C27.4717 23.9633 27.464 24.114 27.4142 24.253C27.3645 24.392 27.2747 24.5132 27.1563 24.6014C27.0379 24.6897 26.8961 24.741 26.7487 24.7489C26.6012 24.7569 26.4547 24.7212 26.3275 24.6462L23 22.6875L19.6725 24.6462C19.5453 24.7212 19.3988 24.7569 19.2513 24.7489C19.1039 24.741 18.9621 24.6897 18.8437 24.6014C18.7253 24.5132 18.6355 24.392 18.5858 24.253C18.536 24.114 18.5283 23.9633 18.5637 23.82L19.4587 20.2038L16.5225 17.78C16.4072 17.6848 16.3229 17.5573 16.2806 17.4139C16.2382 17.2705 16.2397 17.1177 16.2849 16.9751C16.33 16.8326 16.4168 16.7068 16.5339 16.6138C16.6511 16.5209 16.7934 16.4652 16.9425 16.4538L20.8175 16.1537L22.3062 12.7025C22.3646 12.5687 22.4607 12.4548 22.5828 12.3748C22.705 12.2948 22.8478 12.2522 22.9937 12.2522C23.1397 12.2522 23.2825 12.2948 23.4047 12.3748C23.5268 12.4548 23.6229 12.5687 23.6812 12.7025L25.17 16.1537L29.045 16.4538C29.1941 16.4652 29.3364 16.5209 29.4536 16.6138C29.5707 16.7068 29.6575 16.8326 29.7026 16.9751C29.7478 17.1177 29.7493 17.2705 29.7069 17.4139C29.6646 17.5573 29.5803 17.6848 29.465 17.78H29.4775ZM27.09 17.8062L24.6112 17.615C24.476 17.6034 24.3464 17.5553 24.2363 17.4758C24.1263 17.3963 24.0398 17.2885 23.9862 17.1637L23 14.8925L22.02 17.1637C21.9664 17.2885 21.88 17.3963 21.7699 17.4758C21.6598 17.5553 21.5303 17.6034 21.395 17.615L18.9163 17.8062L20.7838 19.3475C20.8927 19.4376 20.9739 19.5566 21.0182 19.6908C21.0624 19.8251 21.0678 19.9691 21.0338 20.1063L20.455 22.4487L22.625 21.1712C22.7402 21.1036 22.8714 21.0679 23.005 21.0679C23.1386 21.0679 23.2698 21.1036 23.385 21.1712L25.5562 22.4487L24.9775 20.1063C24.9434 19.9691 24.9488 19.8251 24.9931 19.6908C25.0373 19.5566 25.1186 19.4376 25.2275 19.3475L27.09 17.8062Z" fill="white"/>
</svg>
