<svg width="32" height="32" viewBox="0 0 32 32" fill="none" xmlns="http://www.w3.org/2000/svg">
<path d="M26.25 17C26.25 17.2472 26.1767 17.4889 26.0393 17.6945C25.902 17.9 25.7068 18.0602 25.4784 18.1549C25.2499 18.2495 24.9986 18.2742 24.7561 18.226C24.5137 18.1777 24.2909 18.0587 24.1161 17.8839C23.9413 17.7091 23.8223 17.4863 23.774 17.2439C23.7258 17.0014 23.7505 16.7501 23.8451 16.5216C23.9398 16.2932 24.1 16.098 24.3055 15.9607C24.5111 15.8233 24.7528 15.75 25 15.75C25.3315 15.75 25.6495 15.8817 25.8839 16.1161C26.1183 16.3505 26.25 16.6685 26.25 17ZM30.75 17C30.75 19.2762 30.19 21.4262 29.1712 23.0537C28.085 24.7925 26.6038 25.75 25 25.75H7C5.39625 25.75 3.915 24.7925 2.82875 23.0537C1.81 21.4262 1.25 19.2762 1.25 17C1.25 14.7238 1.81 12.5737 2.82875 10.9462C3.915 9.2075 5.39625 8.25 7 8.25H11.69L16.47 3.47C16.6105 3.32931 16.8012 3.25018 17 3.25H21C21.1989 3.25 21.3897 3.32902 21.5303 3.46967C21.671 3.61032 21.75 3.80109 21.75 4C21.75 4.19891 21.671 4.38968 21.5303 4.53033C21.3897 4.67098 21.1989 4.75 21 4.75H17.3113L13.8112 8.25H25C26.6038 8.25 28.085 9.2075 29.1712 10.9462C30.19 12.5737 30.75 14.7238 30.75 17ZM21.75 24.25C21.4006 23.8848 21.0906 23.4838 20.825 23.0537C20.3834 22.3336 20.0372 21.5592 19.795 20.75H10C9.80109 20.75 9.61032 20.671 9.46967 20.5303C9.32902 20.3897 9.25 20.1989 9.25 20C9.25 19.8011 9.32902 19.6103 9.46967 19.4697C9.61032 19.329 9.80109 19.25 10 19.25H19.44C19.3129 18.5068 19.2493 17.754 19.25 17C19.25 14.7238 19.81 12.5737 20.8288 10.9462C21.0932 10.5164 21.4019 10.1154 21.75 9.75H7C5.26375 9.75 3.73 11.6375 3.08 14.25H13C13.1989 14.25 13.3897 14.329 13.5303 14.4697C13.671 14.6103 13.75 14.8011 13.75 15C13.75 15.1989 13.671 15.3897 13.5303 15.5303C13.3897 15.671 13.1989 15.75 13 15.75H2.8175C2.77273 16.1652 2.7502 16.5824 2.75 17C2.75 20.93 4.69625 24.25 7 24.25H21.75ZM29.25 17C29.25 13.07 27.3037 9.75 25 9.75C22.6963 9.75 20.75 13.07 20.75 17C20.75 20.93 22.6963 24.25 25 24.25C27.3037 24.25 29.25 20.93 29.25 17Z" fill="white"/>
</svg>
