<svg width="32" height="32" viewBox="0 0 32 32" fill="none" xmlns="http://www.w3.org/2000/svg">
<path d="M30.75 19C30.75 19.1989 30.671 19.3897 30.5304 19.5303C30.3897 19.671 30.1989 19.75 30 19.75H27.75V22C27.75 22.1989 27.671 22.3897 27.5304 22.5303C27.3897 22.671 27.1989 22.75 27 22.75C26.8011 22.75 26.6104 22.671 26.4697 22.5303C26.3291 22.3897 26.25 22.1989 26.25 22V19.75H24C23.8011 19.75 23.6104 19.671 23.4697 19.5303C23.3291 19.3897 23.25 19.1989 23.25 19C23.25 18.8011 23.3291 18.6103 23.4697 18.4697C23.6104 18.329 23.8011 18.25 24 18.25H26.25V16C26.25 15.8011 26.3291 15.6103 26.4697 15.4697C26.6104 15.329 26.8011 15.25 27 15.25C27.1989 15.25 27.3897 15.329 27.5304 15.4697C27.671 15.6103 27.75 15.8011 27.75 16V18.25H30C30.1989 18.25 30.3897 18.329 30.5304 18.4697C30.671 18.6103 30.75 18.8011 30.75 19ZM7.00003 8.75H9.25003V11C9.25003 11.1989 9.32905 11.3897 9.4697 11.5303C9.61036 11.671 9.80112 11.75 10 11.75C10.1989 11.75 10.3897 11.671 10.5304 11.5303C10.671 11.3897 10.75 11.1989 10.75 11V8.75H13C13.1989 8.75 13.3897 8.67099 13.5304 8.53033C13.671 8.38968 13.75 8.19892 13.75 8C13.75 7.80109 13.671 7.61033 13.5304 7.46967C13.3897 7.32902 13.1989 7.25 13 7.25H10.75V5C10.75 4.80109 10.671 4.61033 10.5304 4.46967C10.3897 4.32902 10.1989 4.25 10 4.25C9.80112 4.25 9.61036 4.32902 9.4697 4.46967C9.32905 4.61033 9.25003 4.80109 9.25003 5V7.25H7.00003C6.80112 7.25 6.61036 7.32902 6.4697 7.46967C6.32905 7.61033 6.25003 7.80109 6.25003 8C6.25003 8.19892 6.32905 8.38968 6.4697 8.53033C6.61036 8.67099 6.80112 8.75 7.00003 8.75ZM23 24.25H21.75V23C21.75 22.8011 21.671 22.6103 21.5304 22.4697C21.3897 22.329 21.1989 22.25 21 22.25C20.8011 22.25 20.6104 22.329 20.4697 22.4697C20.3291 22.6103 20.25 22.8011 20.25 23V24.25H19C18.8011 24.25 18.6104 24.329 18.4697 24.4697C18.3291 24.6103 18.25 24.8011 18.25 25C18.25 25.1989 18.3291 25.3897 18.4697 25.5303C18.6104 25.671 18.8011 25.75 19 25.75H20.25V27C20.25 27.1989 20.3291 27.3897 20.4697 27.5303C20.6104 27.671 20.8011 27.75 21 27.75C21.1989 27.75 21.3897 27.671 21.5304 27.5303C21.671 27.3897 21.75 27.1989 21.75 27V25.75H23C23.1989 25.75 23.3897 25.671 23.5304 25.5303C23.671 25.3897 23.75 25.1989 23.75 25C23.75 24.8011 23.671 24.6103 23.5304 24.4697C23.3897 24.329 23.1989 24.25 23 24.25ZM27.2375 9.82375L9.82253 27.2375C9.66003 27.4 9.4671 27.5289 9.25477 27.6169C9.04244 27.7049 8.81486 27.7501 8.58503 27.7501C8.35521 27.7501 8.12763 27.7049 7.9153 27.6169C7.70296 27.5289 7.51004 27.4 7.34753 27.2375L4.76128 24.6513C4.59876 24.4888 4.46984 24.2958 4.38189 24.0835C4.29393 23.8712 4.24866 23.6436 4.24866 23.4138C4.24866 23.1839 4.29393 22.9563 4.38189 22.744C4.46984 22.5317 4.59876 22.3388 4.76128 22.1763L22.1763 4.7625C22.3388 4.59998 22.5317 4.47106 22.744 4.38311C22.9564 4.29515 23.184 4.24988 23.4138 4.24988C23.6436 4.24988 23.8712 4.29515 24.0835 4.38311C24.2959 4.47106 24.4888 4.59998 24.6513 4.7625L27.2375 7.34875C27.4001 7.51126 27.529 7.70419 27.6169 7.91652C27.7049 8.12885 27.7502 8.35643 27.7502 8.58625C27.7502 8.81608 27.7049 9.04366 27.6169 9.25599C27.529 9.46832 27.4001 9.66125 27.2375 9.82375ZM20.9388 14L18 11.0613L5.82253 23.2375C5.79929 23.2607 5.78085 23.2883 5.76827 23.3186C5.75569 23.349 5.74921 23.3815 5.74921 23.4144C5.74921 23.4472 5.75569 23.4798 5.76827 23.5101C5.78085 23.5405 5.79929 23.568 5.82253 23.5913L8.40878 26.1763C8.45562 26.2228 8.51899 26.249 8.58503 26.249C8.65108 26.249 8.71444 26.2228 8.76128 26.1763L20.9388 14ZM26.1763 8.40875L23.5913 5.82375C23.5681 5.80051 23.5405 5.78207 23.5101 5.76949C23.4798 5.75691 23.4473 5.75043 23.4144 5.75043C23.3816 5.75043 23.349 5.75691 23.3187 5.76949C23.2883 5.78207 23.2608 5.80051 23.2375 5.82375L19.06 10L22 12.94L26.1763 8.7625C26.1995 8.73929 26.218 8.71171 26.2305 8.68136C26.2431 8.65101 26.2496 8.61848 26.2496 8.58563C26.2496 8.55277 26.2431 8.52024 26.2305 8.48989C26.218 8.45954 26.1995 8.43197 26.1763 8.40875Z" fill="white"/>
</svg>
