<svg width="32" height="32" viewBox="0 0 32 32" fill="none" xmlns="http://www.w3.org/2000/svg">
<path d="M25.695 6.45629C24.7014 5.44263 23.5159 4.63704 22.2076 4.08655C20.8993 3.53606 19.4944 3.25169 18.075 3.25004H18.0338C16.6204 3.24614 15.2203 3.52278 13.9147 4.06393C12.609 4.60507 11.4237 5.39997 10.4275 6.40254L2.75002 14.1738C2.42508 14.5027 2.24348 14.9468 2.24488 15.4091C2.24629 15.8714 2.43058 16.3144 2.75752 16.6413L6.34002 20.2238C6.50208 20.3869 6.69493 20.5162 6.90736 20.6042C7.1198 20.6922 7.34759 20.7371 7.57752 20.7363H7.58752C7.81925 20.7359 8.04856 20.6891 8.26194 20.5987C8.47533 20.5083 8.66848 20.3762 8.83002 20.21L16.4388 12.41C16.8566 11.9941 17.4203 11.7578 18.0098 11.7512C18.5993 11.7447 19.1681 11.9685 19.595 12.375C19.8059 12.5801 19.9737 12.8254 20.0883 13.0963C20.203 13.3672 20.2622 13.6584 20.2625 13.9525C20.2668 14.5804 20.0224 15.1844 19.5825 15.6325L11.7963 23.1638C11.6297 23.3254 11.4969 23.5185 11.4057 23.7319C11.3144 23.9453 11.2665 24.1747 11.2648 24.4067C11.2631 24.6388 11.3075 24.8689 11.3955 25.0836C11.4835 25.2984 11.6134 25.4935 11.7775 25.6575L15.3613 29.24C15.6881 29.5646 16.1294 29.7478 16.59 29.7502C17.0506 29.7525 17.4937 29.5738 17.8238 29.2525L25.5488 21.6913C29.7588 17.4825 29.825 10.6475 25.695 6.45629ZM7.76002 19.1613C7.73687 19.1849 7.70926 19.2037 7.67879 19.2166C7.64832 19.2295 7.6156 19.2362 7.58252 19.2363C7.51645 19.2348 7.45326 19.209 7.40502 19.1638L3.82127 15.5813C3.77471 15.5345 3.74857 15.4711 3.74857 15.405C3.74857 15.339 3.77471 15.2756 3.82127 15.2288L6.97377 12.035L10.8913 15.9525L7.76002 19.1613ZM16.7738 28.18C16.7269 28.2266 16.6636 28.2527 16.5975 28.2527C16.5315 28.2527 16.4681 28.2266 16.4213 28.18L12.8388 24.5975C12.8152 24.5741 12.7966 24.5463 12.7839 24.5156C12.7713 24.4849 12.7648 24.452 12.765 24.4188C12.7653 24.3859 12.7721 24.3534 12.785 24.3232C12.7978 24.293 12.8165 24.2655 12.84 24.2425L16.0638 21.125L19.9813 25.0413L16.7738 28.18ZM24.5 20.625L21.06 23.9925L17.1488 20.0813L20.6363 16.7063L20.645 16.6963C21.0055 16.3339 21.2906 15.9035 21.4837 15.4302C21.6768 14.9569 21.7741 14.45 21.77 13.9388C21.7692 13.4452 21.6692 12.9569 21.4759 12.5027C21.2826 12.0486 21.0001 11.6379 20.645 11.295C19.9335 10.6176 18.9857 10.2446 18.0033 10.2553C17.021 10.266 16.0816 10.6597 15.385 11.3525L11.9388 14.875L8.02752 10.9675L11.4925 7.46004C12.3493 6.59795 13.3686 5.91451 14.4915 5.44931C15.6143 4.98412 16.8184 4.74644 18.0338 4.75004H18.0688C19.2902 4.75133 20.4991 4.99607 21.6248 5.46996C22.7505 5.94386 23.7704 6.6374 24.625 7.51004C28.18 11.115 28.1175 17 24.5 20.625Z" fill="white"/>
</svg>
