<svg width="32" height="32" viewBox="0 0 32 32" fill="none" xmlns="http://www.w3.org/2000/svg">
<path d="M18.7498 14C18.7498 14.1989 18.6708 14.3896 18.5302 14.5303C18.3895 14.6709 18.1988 14.75 17.9998 14.75H9.99984C9.80093 14.75 9.61017 14.6709 9.46951 14.5303C9.32886 14.3896 9.24984 14.1989 9.24984 14C9.24984 13.8011 9.32886 13.6103 9.46951 13.4696C9.61017 13.329 9.80093 13.25 9.99984 13.25H17.9998C18.1988 13.25 18.3895 13.329 18.5302 13.4696C18.6708 13.6103 18.7498 13.8011 18.7498 14ZM28.5298 28.53C28.3892 28.6704 28.1986 28.7493 27.9998 28.7493C27.8011 28.7493 27.6105 28.6704 27.4698 28.53L21.0473 22.1075C18.9411 23.9389 16.2061 24.8811 13.4188 24.7353C10.6315 24.5896 8.00965 23.3673 6.10596 21.3262C4.20226 19.285 3.16543 16.5844 3.21404 13.7938C3.26264 11.0031 4.39288 8.34024 6.3665 6.36662C8.34012 4.393 11.0029 3.26276 13.7936 3.21416C16.5843 3.16556 19.2849 4.20238 21.326 6.10608C23.3672 8.00977 24.5895 10.6316 24.7352 13.4189C24.881 16.2062 23.9388 18.9413 22.1073 21.0475L28.5298 27.47C28.6703 27.6106 28.7492 27.8012 28.7492 28C28.7492 28.1987 28.6703 28.3893 28.5298 28.53ZM13.9998 23.25C15.8293 23.25 17.6177 22.7075 19.1389 21.6911C20.66 20.6747 21.8456 19.23 22.5457 17.5398C23.2458 15.8496 23.429 13.9897 23.0721 12.1954C22.7152 10.4011 21.8342 8.75286 20.5406 7.45923C19.2469 6.16559 17.5988 5.28462 15.8044 4.9277C14.0101 4.57079 12.1502 4.75397 10.46 5.45408C8.7698 6.15419 7.32515 7.33979 6.30875 8.86094C5.29235 10.3821 4.74984 12.1705 4.74984 14C4.75282 16.4523 5.72833 18.8033 7.46239 20.5374C9.19646 22.2715 11.5475 23.247 13.9998 23.25Z" fill="white"/>
</svg>
