<svg width="32" height="32" viewBox="0 0 32 32" fill="none" xmlns="http://www.w3.org/2000/svg">
<path d="M22.75 8.99998C22.7501 7.69691 22.3731 6.42166 21.6644 5.32816C20.9557 4.23467 19.9456 3.36968 18.7562 2.83761C17.5667 2.30554 16.2486 2.12914 14.9611 2.32971C13.6735 2.53027 12.4716 3.09922 11.5003 3.96788C10.529 4.83654 9.82987 5.96778 9.48736 7.22502C9.14484 8.48227 9.17356 9.81178 9.57004 11.0531C9.96651 12.2943 10.7138 13.3943 11.7217 14.2203C12.7296 15.0462 13.955 15.5627 15.25 15.7075V29C15.25 29.1989 15.329 29.3897 15.4697 29.5303C15.6103 29.671 15.8011 29.75 16 29.75C16.1989 29.75 16.3897 29.671 16.5303 29.5303C16.671 29.3897 16.75 29.1989 16.75 29V15.7075C18.3992 15.5212 19.9222 14.7345 21.0287 13.4975C22.1352 12.2605 22.7479 10.6597 22.75 8.99998ZM16 14.25C14.9616 14.25 13.9466 13.9421 13.0833 13.3652C12.2199 12.7883 11.547 11.9684 11.1496 11.0091C10.7523 10.0498 10.6483 8.99415 10.8509 7.97575C11.0534 6.95735 11.5535 6.02189 12.2877 5.28766C13.0219 4.55344 13.9574 4.05343 14.9758 3.85085C15.9942 3.64828 17.0498 3.75225 18.0091 4.14961C18.9684 4.54697 19.7883 5.21987 20.3652 6.08323C20.9421 6.94659 21.25 7.96162 21.25 8.99998C21.25 10.3924 20.6969 11.7277 19.7123 12.7123C18.7277 13.6969 17.3924 14.25 16 14.25Z" fill="white"/>
</svg>
