<svg width="32" height="32" viewBox="0 0 32 32" fill="none" xmlns="http://www.w3.org/2000/svg">
<path d="M15.25 12.69V22C15.25 22.199 15.329 22.3897 15.4697 22.5304C15.6103 22.671 15.8011 22.75 16 22.75C16.1989 22.75 16.3897 22.671 16.5303 22.5304C16.671 22.3897 16.75 22.199 16.75 22V12.69C17.9297 12.5014 18.9949 11.8752 19.7335 10.9362C20.4721 9.99719 20.8297 8.81436 20.7351 7.62345C20.6405 6.43255 20.1006 5.32102 19.223 4.51041C18.3455 3.6998 17.1947 3.24963 16 3.24963C14.8053 3.24963 13.6546 3.6998 12.777 4.51041C11.8994 5.32102 11.3595 6.43255 11.2649 7.62345C11.1703 8.81436 11.5279 9.99719 12.2665 10.9362C13.0051 11.8752 14.0703 12.5014 15.25 12.69ZM16 4.75005C16.6428 4.75005 17.2711 4.94066 17.8056 5.29777C18.3401 5.65489 18.7566 6.16247 19.0026 6.75633C19.2486 7.35019 19.313 8.00365 19.1876 8.63409C19.0621 9.26453 18.7526 9.84363 18.2981 10.2981C17.8436 10.7527 17.2645 11.0622 16.634 11.1876C16.0036 11.313 15.3501 11.2486 14.7563 11.0027C14.1624 10.7567 13.6548 10.3401 13.2977 9.80565C12.9406 9.27119 12.75 8.64284 12.75 8.00005C12.75 7.1381 13.0924 6.31145 13.7019 5.70195C14.3114 5.09246 15.138 4.75005 16 4.75005ZM29.75 22C29.75 23.6675 28.2275 25.1726 25.4613 26.2351C22.9225 27.2126 19.5625 27.75 16 27.75C12.4375 27.75 9.0775 27.2126 6.53875 26.2351C3.7725 25.1726 2.25 23.6675 2.25 22C2.25 19.55 5.5575 17.5 10.8813 16.6425C11.0778 16.6102 11.2792 16.6573 11.4411 16.7735C11.603 16.8896 11.7121 17.0653 11.7444 17.2619C11.7767 17.4585 11.7296 17.6599 11.6134 17.8218C11.4973 17.9836 11.3216 18.0927 11.125 18.125C8.875 18.4863 6.96625 19.0825 5.61375 19.8475C4.41 20.525 3.75 21.2901 3.75 22C3.75 24.01 8.78125 26.25 16 26.25C23.2188 26.25 28.25 24.01 28.25 22C28.25 21.2901 27.59 20.525 26.3925 19.8463C25.04 19.0813 23.1338 18.4851 20.8813 18.1238C20.6848 18.0923 20.509 17.9841 20.3923 17.8229C20.2757 17.6617 20.2279 17.4609 20.2594 17.2644C20.2909 17.068 20.3991 16.8921 20.5603 16.7755C20.7214 16.6589 20.9223 16.6111 21.1187 16.6425C26.4425 17.5 29.75 19.55 29.75 22Z" fill="white"/>
</svg>
