<svg width="32" height="32" viewBox="0 0 32 32" fill="none" xmlns="http://www.w3.org/2000/svg">
<path d="M14.25 10C14.25 9.65388 14.3526 9.31554 14.5449 9.02775C14.7372 8.73997 15.0105 8.51566 15.3303 8.38321C15.6501 8.25076 16.0019 8.2161 16.3414 8.28363C16.6809 8.35115 16.9927 8.51782 17.2374 8.76256C17.4822 9.0073 17.6488 9.31913 17.7164 9.65859C17.7839 9.99806 17.7492 10.3499 17.6168 10.6697C17.4843 10.9895 17.26 11.2628 16.9722 11.4551C16.6845 11.6474 16.3461 11.75 16 11.75C15.5359 11.75 15.0908 11.5656 14.7626 11.2374C14.4344 10.9092 14.25 10.4641 14.25 10ZM8.25 10C8.25 7.94457 9.06652 5.97333 10.5199 4.51992C11.9733 3.06652 13.9446 2.25 16 2.25C18.0554 2.25 20.0267 3.06652 21.4801 4.51992C22.9335 5.97333 23.75 7.94457 23.75 10C23.75 17.3512 16.6737 21.4788 16.375 21.6513C16.261 21.7171 16.1317 21.7517 16 21.7517C15.8683 21.7517 15.739 21.7171 15.625 21.6513C15.3263 21.4788 8.25 17.3512 8.25 10ZM9.75 10C9.75 15.565 14.6012 19.1863 16 20.1138C17.3975 19.1863 22.25 15.5662 22.25 10C22.25 8.3424 21.5915 6.75269 20.4194 5.58058C19.2473 4.40848 17.6576 3.75 16 3.75C14.3424 3.75 12.7527 4.40848 11.5806 5.58058C10.4085 6.75269 9.75 8.3424 9.75 10ZM25.26 18.6887C25.1669 18.6511 25.0672 18.6325 24.9669 18.6341C24.8665 18.6357 24.7674 18.6574 24.6756 18.698C24.5837 18.7386 24.501 18.7972 24.4322 18.8703C24.3635 18.9435 24.3101 19.0297 24.2753 19.1239C24.2404 19.2181 24.2249 19.3183 24.2295 19.4186C24.2341 19.5188 24.2588 19.6172 24.3022 19.7078C24.3455 19.7983 24.4066 19.8793 24.4818 19.9458C24.557 20.0123 24.6448 20.063 24.74 20.095C26.9375 20.9062 28.25 21.9925 28.25 23C28.25 25.01 23.2188 27.25 16 27.25C8.78125 27.25 3.75 25.01 3.75 23C3.75 21.9925 5.0625 20.9062 7.26 20.095C7.35518 20.063 7.44298 20.0123 7.51818 19.9458C7.59339 19.8793 7.65447 19.7983 7.69781 19.7078C7.74115 19.6172 7.76587 19.5188 7.77049 19.4186C7.77512 19.3183 7.75956 19.2181 7.72474 19.1239C7.68992 19.0297 7.63654 18.9435 7.56778 18.8703C7.49901 18.7972 7.41626 18.7386 7.32442 18.698C7.23259 18.6574 7.13354 18.6357 7.03315 18.6341C6.93276 18.6325 6.83307 18.6511 6.74 18.6887C3.845 19.7575 2.25 21.2887 2.25 23C2.25 24.6675 3.7725 26.1725 6.53875 27.235C9.0775 28.2125 12.4375 28.75 16 28.75C19.5625 28.75 22.9225 28.2125 25.4613 27.235C28.2275 26.1725 29.75 24.6675 29.75 23C29.75 21.2887 28.155 19.7575 25.26 18.6887Z" fill="white"/>
</svg>
