<svg width="32" height="32" viewBox="0 0 32 32" fill="none" xmlns="http://www.w3.org/2000/svg">
<path d="M27 26.25H16.75V16.7075C18.4645 16.5158 20.0406 15.6749 21.1544 14.3575C22.2683 13.0401 22.8355 11.3462 22.7395 9.62369C22.6435 7.90117 21.8917 6.28078 20.6383 5.09531C19.3849 3.90983 17.7252 3.24927 16 3.24927C14.2748 3.24927 12.6151 3.90983 11.3617 5.09531C10.1083 6.28078 9.35645 7.90117 9.26046 9.62369C9.16446 11.3462 9.73166 13.0401 10.8456 14.3575C11.9594 15.6749 13.5355 16.5158 15.25 16.7075V26.25H5C4.80109 26.25 4.61032 26.329 4.46967 26.4696C4.32902 26.6103 4.25 26.8011 4.25 27C4.25 27.1989 4.32902 27.3897 4.46967 27.5303C4.61032 27.671 4.80109 27.75 5 27.75H27C27.1989 27.75 27.3897 27.671 27.5303 27.5303C27.671 27.3897 27.75 27.1989 27.75 27C27.75 26.8011 27.671 26.6103 27.5303 26.4696C27.3897 26.329 27.1989 26.25 27 26.25ZM10.75 9.99997C10.75 8.96162 11.0579 7.94659 11.6348 7.08323C12.2117 6.21987 13.0316 5.54696 13.9909 5.1496C14.9502 4.75224 16.0058 4.64828 17.0242 4.85085C18.0426 5.05342 18.9781 5.55344 19.7123 6.28766C20.4465 7.02189 20.9466 7.95735 21.1491 8.97575C21.3517 9.99415 21.2477 11.0497 20.8504 12.0091C20.453 12.9684 19.7801 13.7883 18.9167 14.3652C18.0534 14.9421 17.0384 15.25 16 15.25C14.6076 15.25 13.2723 14.6968 12.2877 13.7123C11.3031 12.7277 10.75 11.3924 10.75 9.99997Z" fill="white"/>
</svg>
