<svg width="32" height="32" viewBox="0 0 32 32" fill="none" xmlns="http://www.w3.org/2000/svg">
<path d="M20.75 13C20.75 13.1989 20.671 13.3897 20.5303 13.5303C20.3897 13.671 20.1989 13.75 20 13.75H16.75V17C16.75 17.1989 16.671 17.3897 16.5303 17.5303C16.3897 17.671 16.1989 17.75 16 17.75C15.8011 17.75 15.6103 17.671 15.4697 17.5303C15.329 17.3897 15.25 17.1989 15.25 17V13.75H12C11.8011 13.75 11.6103 13.671 11.4697 13.5303C11.329 13.3897 11.25 13.1989 11.25 13C11.25 12.8011 11.329 12.6103 11.4697 12.4697C11.6103 12.329 11.8011 12.25 12 12.25H15.25V9C15.25 8.80109 15.329 8.61032 15.4697 8.46967C15.6103 8.32902 15.8011 8.25 16 8.25C16.1989 8.25 16.3897 8.32902 16.5303 8.46967C16.671 8.61032 16.75 8.80109 16.75 9V12.25H20C20.1989 12.25 20.3897 12.329 20.5303 12.4697C20.671 12.6103 20.75 12.8011 20.75 13ZM26.75 13C26.75 16.8638 24.9575 20.9675 21.5662 24.8675C20.0356 26.6364 18.3129 28.2295 16.43 29.6175C16.304 29.7057 16.1538 29.753 16 29.753C15.8462 29.753 15.696 29.7057 15.57 29.6175C13.6871 28.2295 11.9644 26.6364 10.4338 24.8675C7.0425 20.9675 5.25 16.8638 5.25 13C5.25 10.1489 6.38259 7.41462 8.3986 5.3986C10.4146 3.38259 13.1489 2.25 16 2.25C18.8511 2.25 21.5854 3.38259 23.6014 5.3986C25.6174 7.41462 26.75 10.1489 26.75 13ZM25.25 13C25.25 10.5467 24.2754 8.19397 22.5407 6.45926C20.806 4.72455 18.4533 3.75 16 3.75C13.5467 3.75 11.194 4.72455 9.45926 6.45926C7.72455 8.19397 6.75 10.5467 6.75 13C6.75 20.4525 14.125 26.6162 16 28.0637C17.875 26.6162 25.25 20.4525 25.25 13Z" fill="white"/>
</svg>
