<svg width="32" height="32" viewBox="0 0 32 32" fill="none" xmlns="http://www.w3.org/2000/svg">
<path d="M25.0151 6.98376C23.8346 5.78402 22.4283 4.82987 20.8773 4.17635C19.3263 3.52283 17.6612 3.18286 15.9781 3.17607C14.295 3.16927 12.6273 3.49578 11.071 4.13676C9.51475 4.77774 8.1008 5.7205 6.91071 6.91067C5.72063 8.10083 4.77796 9.51485 4.13709 11.0712C3.49622 12.6275 3.16983 14.2952 3.17674 15.9783C3.18365 17.6614 3.52373 19.3265 4.17736 20.8774C4.83099 22.4284 5.78524 23.8347 6.98506 25.015C8.16549 26.2147 9.57179 27.1689 11.1228 27.8224C12.6739 28.4759 14.3389 28.8159 16.022 28.8227C17.7051 28.8295 19.3729 28.503 20.9291 27.862C22.4854 27.221 23.8993 26.2783 25.0894 25.0881C26.2795 23.8979 27.2222 22.4839 27.863 20.9276C28.5039 19.3713 28.8303 17.7035 28.8234 16.0204C28.8165 14.3374 28.4764 12.6723 27.8228 11.1213C27.1691 9.57033 26.2149 8.16411 25.0151 6.98376ZM10.7501 25.955V22C10.7501 21.9337 10.7764 21.8701 10.8233 21.8232C10.8702 21.7763 10.9338 21.75 11.0001 21.75H21.0001C21.0664 21.75 21.1299 21.7763 21.1768 21.8232C21.2237 21.8701 21.2501 21.9337 21.2501 22V25.955C19.6308 26.8055 17.8291 27.2499 16.0001 27.2499C14.171 27.2499 12.3693 26.8055 10.7501 25.955ZM13.0001 17.75H19.0001C19.0664 17.75 19.1299 17.7763 19.1768 17.8232C19.2237 17.8701 19.2501 17.9337 19.2501 18V20.25H12.7501V18C12.7501 17.9337 12.7764 17.8701 12.8233 17.8232C12.8702 17.7763 12.9338 17.75 13.0001 17.75ZM14.4426 16.25L15.7501 9.94876C15.7615 9.89224 15.7922 9.84143 15.8368 9.80494C15.8815 9.76844 15.9374 9.74851 15.9951 9.74851C16.0527 9.74851 16.1086 9.76844 16.1533 9.80494C16.1979 9.84143 16.2286 9.89224 16.2401 9.94876L17.5576 16.25H14.4426ZM23.9551 23.955C23.5779 24.3306 23.1752 24.6797 22.7501 25V22C22.7501 21.5359 22.5657 21.0908 22.2375 20.7626C21.9093 20.4344 21.4642 20.25 21.0001 20.25H20.7501V18C20.7507 17.5513 20.5789 17.1194 20.2702 16.7937C19.9615 16.4681 19.5394 16.2734 19.0913 16.25L17.7163 9.63751C17.6348 9.24324 17.4198 8.88914 17.1076 8.63491C16.7955 8.38067 16.4052 8.24185 16.0026 8.24185C15.6 8.24185 15.2097 8.38067 14.8975 8.63491C14.5853 8.88914 14.3703 9.24324 14.2888 9.63751L12.9138 16.25C12.4648 16.2722 12.0415 16.4663 11.7318 16.7921C11.422 17.1179 11.2495 17.5504 11.2501 18V20.25H11.0001C10.5359 20.25 10.0908 20.4344 9.76262 20.7626C9.43443 21.0908 9.25006 21.5359 9.25006 22V25C8.82484 24.6793 8.42222 24.3298 8.04506 23.9538C6.47173 22.3804 5.40029 20.3759 4.96621 18.1936C4.53214 16.0113 4.75494 13.7493 5.60643 11.6936C6.45792 9.63797 7.89986 7.88097 9.74991 6.64481C11.6 5.40865 13.775 4.74885 16.0001 4.74885C18.2251 4.74885 20.4002 5.40865 22.2502 6.64481C24.1003 7.88097 25.5422 9.63797 26.3937 11.6936C27.2452 13.7493 27.468 16.0113 27.0339 18.1936C26.5998 20.3759 25.5284 22.3804 23.9551 23.9538V23.955Z" fill="white"/>
</svg>
