<svg width="32" height="32" viewBox="0 0 32 32" fill="none" xmlns="http://www.w3.org/2000/svg">
<path d="M29 6.25H3C2.53587 6.25 2.09075 6.43437 1.76256 6.76256C1.43437 7.09075 1.25 7.53587 1.25 8V24C1.25 24.4641 1.43437 24.9092 1.76256 25.2374C2.09075 25.5656 2.53587 25.75 3 25.75H29C29.4641 25.75 29.9092 25.5656 30.2374 25.2374C30.5656 24.9092 30.75 24.4641 30.75 24V8C30.75 7.53587 30.5656 7.09075 30.2374 6.76256C29.9092 6.43437 29.4641 6.25 29 6.25ZM29.25 24C29.25 24.0663 29.2237 24.1299 29.1768 24.1768C29.1299 24.2237 29.0663 24.25 29 24.25H3C2.9337 24.25 2.87011 24.2237 2.82322 24.1768C2.77634 24.1299 2.75 24.0663 2.75 24V8C2.75 7.9337 2.77634 7.87011 2.82322 7.82322C2.87011 7.77634 2.9337 7.75 3 7.75H29C29.0663 7.75 29.1299 7.77634 29.1768 7.82322C29.2237 7.87011 29.25 7.9337 29.25 8V24ZM15.75 13V19C15.75 19.1989 15.671 19.3897 15.5303 19.5303C15.3897 19.671 15.1989 19.75 15 19.75C14.8011 19.75 14.6103 19.671 14.4697 19.5303C14.329 19.3897 14.25 19.1989 14.25 19V14.8112L11.53 17.53C11.3894 17.6705 11.1988 17.7493 11 17.7493C10.8012 17.7493 10.6106 17.6705 10.47 17.53L7.75 14.8112V19C7.75 19.1989 7.67098 19.3897 7.53033 19.5303C7.38968 19.671 7.19891 19.75 7 19.75C6.80109 19.75 6.61032 19.671 6.46967 19.5303C6.32902 19.3897 6.25 19.1989 6.25 19V13C6.25013 12.8518 6.29419 12.7069 6.37661 12.5837C6.45903 12.4605 6.57611 12.3644 6.71308 12.3077C6.85004 12.251 7.00074 12.2362 7.14614 12.265C7.29153 12.2939 7.42511 12.3652 7.53 12.47L11 15.9388L14.47 12.47C14.5749 12.3652 14.7085 12.2939 14.8539 12.265C14.9993 12.2362 15.15 12.251 15.2869 12.3077C15.4239 12.3644 15.541 12.4605 15.6234 12.5837C15.7058 12.7069 15.7499 12.8518 15.75 13ZM25.53 15.47C25.6705 15.6106 25.7493 15.8012 25.7493 16C25.7493 16.1988 25.6705 16.3894 25.53 16.53L22.53 19.53C22.3894 19.6705 22.1988 19.7493 22 19.7493C21.8012 19.7493 21.6106 19.6705 21.47 19.53L18.47 16.53C18.3963 16.4613 18.3372 16.3785 18.2962 16.2865C18.2552 16.1945 18.2332 16.0952 18.2314 15.9945C18.2296 15.8938 18.2482 15.7938 18.2859 15.7004C18.3236 15.607 18.3797 15.5222 18.451 15.451C18.5222 15.3797 18.607 15.3236 18.7004 15.2859C18.7938 15.2482 18.8938 15.2296 18.9945 15.2314C19.0952 15.2332 19.1945 15.2552 19.2865 15.2962C19.3785 15.3372 19.4613 15.3963 19.53 15.47L21.25 17.1887V13C21.25 12.8011 21.329 12.6103 21.4697 12.4697C21.6103 12.329 21.8011 12.25 22 12.25C22.1989 12.25 22.3897 12.329 22.5303 12.4697C22.671 12.6103 22.75 12.8011 22.75 13V17.1887L24.47 15.47C24.6106 15.3295 24.8012 15.2507 25 15.2507C25.1988 15.2507 25.3894 15.3295 25.53 15.47Z" fill="white"/>
</svg>
