<svg width="32" height="32" viewBox="0 0 32 32" fill="none" xmlns="http://www.w3.org/2000/svg">
<path d="M29.53 5.53C29.6347 5.42511 29.706 5.29154 29.7349 5.14614C29.7638 5.00074 29.7489 4.85004 29.6922 4.71308C29.6355 4.57611 29.5395 4.45903 29.4163 4.37661C29.2931 4.29419 29.1482 4.25013 29 4.25H2.99995C2.85171 4.25013 2.70683 4.29419 2.58362 4.37661C2.4604 4.45903 2.36438 4.57611 2.30766 4.71308C2.25095 4.85004 2.2361 5.00074 2.26499 5.14614C2.29387 5.29154 2.36519 5.42511 2.46995 5.53L15.25 18.3113V26.25H11C10.801 26.25 10.6103 26.329 10.4696 26.4697C10.329 26.6103 10.25 26.8011 10.25 27C10.25 27.1989 10.329 27.3897 10.4696 27.5303C10.6103 27.671 10.801 27.75 11 27.75H21C21.1989 27.75 21.3896 27.671 21.5303 27.5303C21.6709 27.3897 21.75 27.1989 21.75 27C21.75 26.8011 21.6709 26.6103 21.5303 26.4697C21.3896 26.329 21.1989 26.25 21 26.25H16.75V18.3113L29.53 5.53ZM8.8112 9.75H23.1862L16 16.9387L8.8112 9.75ZM27.1862 5.75L24.6862 8.25H7.3112L4.8112 5.75H27.1862Z" fill="white"/>
</svg>
