<svg width="32" height="32" viewBox="0 0 32 32" fill="none" xmlns="http://www.w3.org/2000/svg">
<path d="M23 4.25H9C7.74022 4.25 6.53204 4.75045 5.64124 5.64124C4.75045 6.53204 4.25 7.74022 4.25 9V24C4.25 25.2598 4.75045 26.468 5.64124 27.3588C6.53204 28.2496 7.74022 28.75 9 28.75H20C20.1989 28.75 20.3897 28.671 20.5303 28.5303C20.671 28.3897 20.75 28.1989 20.75 28C20.75 27.8011 20.671 27.6103 20.5303 27.4697C20.3897 27.329 20.1989 27.25 20 27.25H9C8.13805 27.25 7.3114 26.9076 6.7019 26.2981C6.09241 25.6886 5.75 24.862 5.75 24V22.75H23C24.2598 22.75 25.468 22.2496 26.3588 21.3588C27.2496 20.468 27.75 19.2598 27.75 18V9C27.75 7.74022 27.2496 6.53204 26.3588 5.64124C25.468 4.75045 24.2598 4.25 23 4.25ZM26.25 18C26.25 18.862 25.9076 19.6886 25.2981 20.2981C24.6886 20.9076 23.862 21.25 23 21.25H5.75V9C5.75 8.13805 6.09241 7.3114 6.7019 6.7019C7.3114 6.09241 8.13805 5.75 9 5.75H23C23.862 5.75 24.6886 6.09241 25.2981 6.7019C25.9076 7.3114 26.25 8.13805 26.25 9V18ZM22.75 13V17C22.75 17.1989 22.671 17.3897 22.5303 17.5303C22.3897 17.671 22.1989 17.75 22 17.75C21.8011 17.75 21.6103 17.671 21.4697 17.5303C21.329 17.3897 21.25 17.1989 21.25 17V13C21.25 12.4033 21.0129 11.831 20.591 11.409C20.169 10.9871 19.5967 10.75 19 10.75C18.4033 10.75 17.831 10.9871 17.409 11.409C16.9871 11.831 16.75 12.4033 16.75 13V17C16.75 17.1989 16.671 17.3897 16.5303 17.5303C16.3897 17.671 16.1989 17.75 16 17.75C15.8011 17.75 15.6103 17.671 15.4697 17.5303C15.329 17.3897 15.25 17.1989 15.25 17V13C15.25 12.4033 15.0129 11.831 14.591 11.409C14.169 10.9871 13.5967 10.75 13 10.75C12.4033 10.75 11.831 10.9871 11.409 11.409C10.9871 11.831 10.75 12.4033 10.75 13V17C10.75 17.1989 10.671 17.3897 10.5303 17.5303C10.3897 17.671 10.1989 17.75 10 17.75C9.80109 17.75 9.61032 17.671 9.46967 17.5303C9.32902 17.3897 9.25 17.1989 9.25 17V13C9.25 12.2129 9.49764 11.4458 9.95784 10.8073C10.418 10.1688 11.0675 9.69133 11.8141 9.44244C12.5608 9.19355 13.3669 9.1859 14.1181 9.42057C14.8694 9.65525 15.5278 10.1204 16 10.75C16.4722 10.1204 17.1306 9.65525 17.8819 9.42057C18.6331 9.1859 19.4392 9.19355 20.1859 9.44244C20.9325 9.69133 21.582 10.1688 22.0422 10.8073C22.5024 11.4458 22.75 12.2129 22.75 13Z" fill="white"/>
</svg>
