<svg width="32" height="32" viewBox="0 0 32 32" fill="none" xmlns="http://www.w3.org/2000/svg">
<path d="M13.75 9.00003C13.75 9.19894 13.671 9.38971 13.5303 9.53036C13.3897 9.67101 13.1989 9.75003 13 9.75003H5C4.80109 9.75003 4.61032 9.67101 4.46967 9.53036C4.32902 9.38971 4.25 9.19894 4.25 9.00003C4.25 8.80112 4.32902 8.61035 4.46967 8.4697C4.61032 8.32905 4.80109 8.25003 5 8.25003H13C13.1989 8.25003 13.3897 8.32905 13.5303 8.4697C13.671 8.61035 13.75 8.80112 13.75 9.00003ZM13 22.25H9.75V19C9.75 18.8011 9.67098 18.6104 9.53033 18.4697C9.38968 18.329 9.19891 18.25 9 18.25C8.80109 18.25 8.61032 18.329 8.46967 18.4697C8.32902 18.6104 8.25 18.8011 8.25 19V22.25H5C4.80109 22.25 4.61032 22.329 4.46967 22.4697C4.32902 22.6104 4.25 22.8011 4.25 23C4.25 23.1989 4.32902 23.3897 4.46967 23.5304C4.61032 23.671 4.80109 23.75 5 23.75H8.25V27C8.25 27.1989 8.32902 27.3897 8.46967 27.5304C8.61032 27.671 8.80109 27.75 9 27.75C9.19891 27.75 9.38968 27.671 9.53033 27.5304C9.67098 27.3897 9.75 27.1989 9.75 27V23.75H13C13.1989 23.75 13.3897 23.671 13.5303 23.5304C13.671 23.3897 13.75 23.1989 13.75 23C13.75 22.8011 13.671 22.6104 13.5303 22.4697C13.3897 22.329 13.1989 22.25 13 22.25ZM19 21.75H27C27.1989 21.75 27.3897 21.671 27.5303 21.5304C27.671 21.3897 27.75 21.1989 27.75 21C27.75 20.8011 27.671 20.6104 27.5303 20.4697C27.3897 20.329 27.1989 20.25 27 20.25H19C18.8011 20.25 18.6103 20.329 18.4697 20.4697C18.329 20.6104 18.25 20.8011 18.25 21C18.25 21.1989 18.329 21.3897 18.4697 21.5304C18.6103 21.671 18.8011 21.75 19 21.75ZM27 24.25H19C18.8011 24.25 18.6103 24.329 18.4697 24.4697C18.329 24.6104 18.25 24.8011 18.25 25C18.25 25.1989 18.329 25.3897 18.4697 25.5304C18.6103 25.671 18.8011 25.75 19 25.75H27C27.1989 25.75 27.3897 25.671 27.5303 25.5304C27.671 25.3897 27.75 25.1989 27.75 25C27.75 24.8011 27.671 24.6104 27.5303 24.4697C27.3897 24.329 27.1989 24.25 27 24.25ZM19.47 12.53C19.6106 12.6705 19.8012 12.7494 20 12.7494C20.1988 12.7494 20.3894 12.6705 20.53 12.53L23 10.0613L25.47 12.53C25.6122 12.6625 25.8002 12.7346 25.9945 12.7312C26.1888 12.7278 26.3742 12.6491 26.5116 12.5117C26.649 12.3742 26.7277 12.1889 26.7312 11.9946C26.7346 11.8003 26.6625 11.6122 26.53 11.47L24.0613 9.00003L26.53 6.53003C26.6625 6.38785 26.7346 6.19981 26.7312 6.00551C26.7277 5.81121 26.649 5.62582 26.5116 5.48841C26.3742 5.35099 26.1888 5.27228 25.9945 5.26885C25.8002 5.26543 25.6122 5.33755 25.47 5.47003L23 7.93878L20.53 5.47003C20.3878 5.33755 20.1998 5.26543 20.0055 5.26885C19.8112 5.27228 19.6258 5.35099 19.4884 5.48841C19.351 5.62582 19.2723 5.81121 19.2688 6.00551C19.2654 6.19981 19.3375 6.38785 19.47 6.53003L21.9387 9.00003L19.47 11.47C19.3295 11.6107 19.2507 11.8013 19.2507 12C19.2507 12.1988 19.3295 12.3894 19.47 12.53Z" fill="white"/>
</svg>
