<svg width="32" height="32" viewBox="0 0 32 32" fill="none" xmlns="http://www.w3.org/2000/svg">
<path d="M5.75 5.75V26.25H8C8.19891 26.25 8.38968 26.329 8.53033 26.4697C8.67098 26.6103 8.75 26.8011 8.75 27C8.75 27.1989 8.67098 27.3897 8.53033 27.5303C8.38968 27.671 8.19891 27.75 8 27.75H5C4.80109 27.75 4.61032 27.671 4.46967 27.5303C4.32902 27.3897 4.25 27.1989 4.25 27V5C4.25 4.80109 4.32902 4.61032 4.46967 4.46967C4.61032 4.32902 4.80109 4.25 5 4.25H8C8.19891 4.25 8.38968 4.32902 8.53033 4.46967C8.67098 4.61032 8.75 4.80109 8.75 5C8.75 5.19891 8.67098 5.38968 8.53033 5.53033C8.38968 5.67098 8.19891 5.75 8 5.75H5.75ZM27 4.25H24C23.8011 4.25 23.6103 4.32902 23.4697 4.46967C23.329 4.61032 23.25 4.80109 23.25 5C23.25 5.19891 23.329 5.38968 23.4697 5.53033C23.6103 5.67098 23.8011 5.75 24 5.75H26.25V26.25H24C23.8011 26.25 23.6103 26.329 23.4697 26.4697C23.329 26.6103 23.25 26.8011 23.25 27C23.25 27.1989 23.329 27.3897 23.4697 27.5303C23.6103 27.671 23.8011 27.75 24 27.75H27C27.1989 27.75 27.3897 27.671 27.5303 27.5303C27.671 27.3897 27.75 27.1989 27.75 27V5C27.75 4.80109 27.671 4.61032 27.5303 4.46967C27.3897 4.32902 27.1989 4.25 27 4.25ZM19 11.25C18.4178 11.25 17.8437 11.3855 17.3229 11.6459C16.8022 11.9063 16.3493 12.2843 16 12.75C15.4033 11.9544 14.5149 11.4283 13.5303 11.2877C12.5458 11.147 11.5456 11.4033 10.75 12C10.75 11.8011 10.671 11.6103 10.5303 11.4697C10.3897 11.329 10.1989 11.25 10 11.25C9.80109 11.25 9.61032 11.329 9.46967 11.4697C9.32902 11.6103 9.25 11.8011 9.25 12V20C9.25 20.1989 9.32902 20.3897 9.46967 20.5303C9.61032 20.671 9.80109 20.75 10 20.75C10.1989 20.75 10.3897 20.671 10.5303 20.5303C10.671 20.3897 10.75 20.1989 10.75 20V15C10.75 14.4033 10.9871 13.831 11.409 13.409C11.831 12.9871 12.4033 12.75 13 12.75C13.5967 12.75 14.169 12.9871 14.591 13.409C15.0129 13.831 15.25 14.4033 15.25 15V20C15.25 20.1989 15.329 20.3897 15.4697 20.5303C15.6103 20.671 15.8011 20.75 16 20.75C16.1989 20.75 16.3897 20.671 16.5303 20.5303C16.671 20.3897 16.75 20.1989 16.75 20V15C16.75 14.4033 16.9871 13.831 17.409 13.409C17.831 12.9871 18.4033 12.75 19 12.75C19.5967 12.75 20.169 12.9871 20.591 13.409C21.0129 13.831 21.25 14.4033 21.25 15V20C21.25 20.1989 21.329 20.3897 21.4697 20.5303C21.6103 20.671 21.8011 20.75 22 20.75C22.1989 20.75 22.3897 20.671 22.5303 20.5303C22.671 20.3897 22.75 20.1989 22.75 20V15C22.75 14.0054 22.3549 13.0516 21.6517 12.3483C20.9484 11.6451 19.9946 11.25 19 11.25Z" fill="white"/>
</svg>
