<svg width="32" height="32" viewBox="0 0 32 32" fill="none" xmlns="http://www.w3.org/2000/svg">
<path d="M25.875 5.25H6.125C5.62772 5.25 5.15081 5.44754 4.79917 5.79917C4.44754 6.15081 4.25 6.62772 4.25 7.125V13.2762C4.2501 13.6361 4.35375 13.9883 4.54858 14.2909C4.74341 14.5934 5.02118 14.8335 5.34875 14.9825L13.6488 18.75C12.4476 19.2882 11.4675 20.2222 10.8721 21.396C10.2766 22.5698 10.1019 23.9124 10.3771 25.1995C10.6523 26.4866 11.3607 27.6403 12.3841 28.468C13.4074 29.2957 14.6838 29.7473 16 29.7473C17.3162 29.7473 18.5926 29.2957 19.6159 28.468C20.6393 27.6403 21.3477 26.4866 21.6229 25.1995C21.8981 23.9124 21.7234 22.5698 21.1279 21.396C20.5325 20.2222 19.5524 19.2882 18.3512 18.75L26.6513 14.9775C26.978 14.8289 27.2553 14.5896 27.4501 14.288C27.6448 13.9864 27.7489 13.6353 27.75 13.2762V7.125C27.75 6.62772 27.5525 6.15081 27.2008 5.79917C26.8492 5.44754 26.3723 5.25 25.875 5.25ZM20.25 6.75V16.25L16 18.1812L11.75 16.25V6.75H20.25ZM5.75 13.2762V7.125C5.75 7.02554 5.78951 6.93016 5.85984 6.85984C5.93016 6.78951 6.02554 6.75 6.125 6.75H10.25V15.5625L5.97 13.6175C5.90444 13.5877 5.84883 13.5397 5.80982 13.4792C5.77081 13.4187 5.75004 13.3482 5.75 13.2762ZM20.25 24C20.25 24.8406 20.0007 25.6623 19.5337 26.3612C19.0668 27.0601 18.403 27.6048 17.6264 27.9265C16.8498 28.2482 15.9953 28.3323 15.1709 28.1683C14.3464 28.0043 13.5892 27.5996 12.9948 27.0052C12.4004 26.4108 11.9956 25.6536 11.8317 24.8291C11.6677 24.0047 11.7518 23.1502 12.0735 22.3736C12.3952 21.597 12.9399 20.9332 13.6388 20.4663C14.3377 19.9993 15.1594 19.75 16 19.75C17.1272 19.75 18.2082 20.1978 19.0052 20.9948C19.8022 21.7918 20.25 22.8728 20.25 24ZM26.25 13.2762C26.25 13.3482 26.2292 13.4187 26.1902 13.4792C26.1512 13.5397 26.0956 13.5877 26.03 13.6175L21.75 15.5625V6.75H25.875C25.9745 6.75 26.0698 6.78951 26.1402 6.85984C26.2105 6.93016 26.25 7.02554 26.25 7.125V13.2762Z" fill="white"/>
</svg>
