<svg width="32" height="32" viewBox="0 0 32 32" fill="none" xmlns="http://www.w3.org/2000/svg">
<path d="M26.75 12C26.7513 10.1833 26.2923 8.39598 25.4156 6.80483C24.539 5.21367 23.2735 3.87062 21.7372 2.90109C20.2009 1.93156 18.444 1.36717 16.6304 1.26063C14.8169 1.15409 13.006 1.50888 11.3667 2.29185C9.72748 3.07483 8.31339 4.26046 7.25651 5.73803C6.19963 7.21559 5.53443 8.9369 5.32303 10.7412C5.11164 12.5455 5.36094 14.374 6.04767 16.0558C6.73439 17.7377 7.83613 19.218 9.25 20.3587V30C9.25014 30.1278 9.28294 30.2534 9.34529 30.365C9.40764 30.4766 9.49747 30.5704 9.60625 30.6375C9.72433 30.7112 9.86079 30.7502 10 30.75C10.1163 30.75 10.2309 30.7231 10.335 30.6712L16 27.8387L21.6663 30.6712C21.7806 30.728 21.9075 30.7547 22.035 30.7488C22.1625 30.7428 22.2864 30.7044 22.3949 30.6372C22.5034 30.57 22.593 30.4762 22.6551 30.3647C22.7173 30.2532 22.7499 30.1276 22.75 30V20.3587C23.9988 19.3527 25.0063 18.0797 25.6985 16.6332C26.3907 15.1868 26.75 13.6036 26.75 12ZM6.75 12C6.75 10.1705 7.2925 8.38211 8.30891 6.86095C9.32531 5.3398 10.77 4.1542 12.4602 3.45409C14.1504 2.75398 16.0103 2.5708 17.8046 2.92771C19.5989 3.28463 21.2471 4.1656 22.5407 5.45924C23.8344 6.75287 24.7154 8.40107 25.0723 10.1954C25.4292 11.9897 25.246 13.8496 24.5459 15.5398C23.8458 17.23 22.6602 18.6747 21.139 19.6911C19.6179 20.7075 17.8295 21.25 16 21.25C13.5477 21.247 11.1966 20.2715 9.46255 18.5374C7.72848 16.8034 6.75298 14.4523 6.75 12ZM21.25 28.7862L16.3338 26.3287C16.2297 26.2768 16.115 26.2498 15.9988 26.2498C15.8825 26.2498 15.7678 26.2768 15.6638 26.3287L10.75 28.7862V21.375C12.3532 22.2756 14.1611 22.7487 16 22.7487C17.8389 22.7487 19.6468 22.2756 21.25 21.375V28.7862ZM16 18.75C17.335 18.75 18.6401 18.3541 19.7501 17.6124C20.8601 16.8707 21.7253 15.8165 22.2362 14.5831C22.7471 13.3497 22.8808 11.9925 22.6203 10.6831C22.3598 9.37374 21.717 8.17101 20.773 7.22701C19.829 6.283 18.6262 5.64013 17.3169 5.37968C16.0075 5.11923 14.6503 5.2529 13.4169 5.76379C12.1835 6.27468 11.1293 7.13985 10.3876 8.24988C9.64588 9.35991 9.25 10.665 9.25 12C9.25199 13.7896 9.96378 15.5053 11.2292 16.7708C12.4947 18.0362 14.2104 18.748 16 18.75ZM16 6.74998C17.0384 6.74998 18.0534 7.05788 18.9167 7.63476C19.7801 8.21164 20.453 9.03158 20.8504 9.99089C21.2477 10.9502 21.3517 12.0058 21.1491 13.0242C20.9466 14.0426 20.4465 14.9781 19.7123 15.7123C18.9781 16.4465 18.0426 16.9465 17.0242 17.1491C16.0058 17.3517 14.9502 17.2477 13.9909 16.8503C13.0316 16.453 12.2117 15.7801 11.6348 14.9167C11.0579 14.0534 10.75 13.0383 10.75 12C10.75 10.6076 11.3031 9.27223 12.2877 8.28767C13.2723 7.3031 14.6076 6.74998 16 6.74998Z" fill="white"/>
</svg>
