<svg width="32" height="32" viewBox="0 0 32 32" fill="none" xmlns="http://www.w3.org/2000/svg">
<path d="M30.75 15C30.7484 13.4755 30.1421 12.0139 29.0641 10.9359C27.9861 9.85797 26.5245 9.25164 25 9.24999H20.0188C19.6963 9.23124 13.2563 8.80374 7.12504 3.66124C6.86998 3.44717 6.55913 3.31032 6.22901 3.26675C5.89888 3.22319 5.56318 3.27471 5.26131 3.41527C4.95945 3.55584 4.70395 3.77961 4.52482 4.06031C4.34569 4.34101 4.25037 4.667 4.25004 4.99999V25C4.24779 25.3332 4.34177 25.6601 4.52071 25.9412C4.69965 26.2224 4.95593 26.4459 5.25879 26.585C5.49103 26.693 5.74393 26.7493 6.00004 26.75C6.41209 26.7502 6.81082 26.604 7.12504 26.3375C12.125 22.1475 17.3213 21.0875 19.25 20.8287V25.0787C19.25 25.3668 19.321 25.6505 19.4568 25.9045C19.5927 26.1585 19.7892 26.3751 20.0288 26.535L21.4038 27.4512C21.6364 27.6061 21.9026 27.703 22.1803 27.7339C22.458 27.7648 22.7391 27.7288 23 27.6288C23.2609 27.5288 23.4941 27.3678 23.68 27.1592C23.866 26.9507 23.9993 26.7006 24.0688 26.43L25.585 20.7162C26.9999 20.5696 28.3105 19.9044 29.2642 18.849C30.2178 17.7935 30.7471 16.4225 30.75 15ZM6.16129 25.19C6.12494 25.2207 6.0806 25.2403 6.03347 25.2467C5.98633 25.2531 5.93836 25.2458 5.89519 25.2259C5.85201 25.2059 5.81542 25.1741 5.78971 25.1341C5.764 25.0941 5.75024 25.0475 5.75004 25V4.99999C5.74869 4.95239 5.76167 4.90549 5.7873 4.86537C5.81294 4.82525 5.85004 4.79376 5.89379 4.77499C5.92704 4.75923 5.96325 4.75071 6.00004 4.74999C6.05809 4.75017 6.11408 4.7715 6.15754 4.80999C11.6575 9.42498 17.2825 10.4587 19.2463 10.685V19.31C17.2863 19.5412 11.6625 20.5762 6.16129 25.19ZM22.6163 26.065C22.6066 26.1039 22.5877 26.1399 22.5612 26.1699C22.5347 26.1999 22.5013 26.2232 22.4639 26.2376C22.4266 26.2521 22.3863 26.2574 22.3464 26.253C22.3066 26.2486 22.2684 26.2347 22.235 26.2125L20.86 25.2962C20.8257 25.2733 20.7976 25.2423 20.7782 25.2059C20.7588 25.1694 20.7487 25.1288 20.7488 25.0875V20.75H24.0238L22.6163 26.065ZM25 19.25H20.75V10.75H25C26.1272 10.75 27.2082 11.1978 28.0052 11.9948C28.8023 12.7918 29.25 13.8728 29.25 15C29.25 16.1272 28.8023 17.2082 28.0052 18.0052C27.2082 18.8022 26.1272 19.25 25 19.25Z" fill="white"/>
</svg>
