<svg width="32" height="32" viewBox="0 0 32 32" fill="none" xmlns="http://www.w3.org/2000/svg">
<path d="M28.5 11.0737L6.49 4.32366C6.22949 4.24768 5.95488 4.23332 5.68787 4.28172C5.42086 4.33012 5.16876 4.43995 4.9515 4.60254C4.73423 4.76512 4.55776 4.976 4.43601 5.21852C4.31426 5.46104 4.25058 5.72855 4.25 5.99991V23.9999C4.25 24.464 4.43437 24.9092 4.76256 25.2374C5.09075 25.5655 5.53587 25.7499 6 25.7499C6.16928 25.7487 6.33756 25.7238 6.5 25.6762L17.25 22.3749V23.9999C17.25 24.464 17.4344 24.9092 17.7626 25.2374C18.0908 25.5655 18.5359 25.7499 19 25.7499H23C23.4641 25.7499 23.9092 25.5655 24.2374 25.2374C24.5656 24.9092 24.75 24.464 24.75 23.9999V20.0774L28.5 18.9287C28.8607 18.8197 29.1769 18.5977 29.4019 18.2955C29.6269 17.9932 29.749 17.6267 29.75 17.2499V12.7499C29.7498 12.3732 29.6281 12.0066 29.4029 11.7046C29.1777 11.4026 28.861 11.1813 28.5 11.0737ZM6.07 24.2399C6.03274 24.2508 5.99346 24.2528 5.95528 24.2459C5.91709 24.2389 5.88105 24.2232 5.85 24.1999C5.81895 24.1766 5.79375 24.1464 5.77639 24.1117C5.75904 24.077 5.75 24.0387 5.75 23.9999V5.99991C5.75 5.9611 5.75904 5.92282 5.77639 5.88811C5.79375 5.8534 5.81895 5.8232 5.85 5.79991C5.89348 5.76785 5.94598 5.75035 6 5.74991C6.02078 5.75039 6.0414 5.75375 6.06125 5.75991L17.25 9.19116V20.8099L6.07 24.2399ZM23.25 23.9999C23.25 24.0662 23.2237 24.1298 23.1768 24.1767C23.1299 24.2236 23.0663 24.2499 23 24.2499H19C18.9337 24.2499 18.8701 24.2236 18.8232 24.1767C18.7763 24.1298 18.75 24.0662 18.75 23.9999V21.9187L23.25 20.5437V23.9999ZM28.25 17.2499C28.25 17.304 28.2325 17.3566 28.2 17.3999C28.1675 17.4432 28.1219 17.4748 28.07 17.4899H28.06L18.75 20.3499V9.65116L28.07 12.5099C28.1219 12.5251 28.1675 12.5566 28.2 12.5999C28.2325 12.6432 28.25 12.6958 28.25 12.7499V17.2499Z" fill="white"/>
</svg>
