<svg width="32" height="32" viewBox="0 0 32 32" fill="none" xmlns="http://www.w3.org/2000/svg">
<path d="M25 16.75H6.7825C6.97339 19.0645 8.02684 21.2227 9.73407 22.7971C11.4413 24.3714 13.6777 25.2469 16 25.25H25C25.1989 25.25 25.3897 25.329 25.5303 25.4697C25.671 25.6103 25.75 25.8011 25.75 26C25.75 26.1989 25.671 26.3897 25.5303 26.5303C25.3897 26.671 25.1989 26.75 25 26.75H16C13.1489 26.75 10.4146 25.6174 8.3986 23.6014C6.38259 21.5854 5.25 18.8511 5.25 16C5.25 13.1489 6.38259 10.4146 8.3986 8.3986C10.4146 6.38259 13.1489 5.25 16 5.25H25C25.1989 5.25 25.3897 5.32902 25.5303 5.46967C25.671 5.61032 25.75 5.80109 25.75 6C25.75 6.19891 25.671 6.38968 25.5303 6.53033C25.3897 6.67098 25.1989 6.75 25 6.75H16C13.6777 6.75311 11.4413 7.62859 9.73407 9.20293C8.02684 10.7773 6.97339 12.9355 6.7825 15.25H25C25.1989 15.25 25.3897 15.329 25.5303 15.4697C25.671 15.6103 25.75 15.8011 25.75 16C25.75 16.1989 25.671 16.3897 25.5303 16.5303C25.3897 16.671 25.1989 16.75 25 16.75Z" fill="white"/>
</svg>
