<svg width="32" height="32" viewBox="0 0 32 32" fill="none" xmlns="http://www.w3.org/2000/svg">
<path d="M29 7.25H3C2.53587 7.25 2.09075 7.43437 1.76256 7.76256C1.43437 8.09075 1.25 8.53587 1.25 9V25C1.25 25.1989 1.32902 25.3897 1.46967 25.5303C1.61032 25.671 1.80109 25.75 2 25.75C2.19891 25.75 2.38968 25.671 2.53033 25.5303C2.67098 25.3897 2.75 25.1989 2.75 25V22.75H5.25V25C5.25 25.1989 5.32902 25.3897 5.46967 25.5303C5.61032 25.671 5.80109 25.75 6 25.75C6.19891 25.75 6.38968 25.671 6.53033 25.5303C6.67098 25.3897 6.75 25.1989 6.75 25V22.75H9.25V25C9.25 25.1989 9.32902 25.3897 9.46967 25.5303C9.61032 25.671 9.80109 25.75 10 25.75C10.1989 25.75 10.3897 25.671 10.5303 25.5303C10.671 25.3897 10.75 25.1989 10.75 25V22.75H13.25V25C13.25 25.1989 13.329 25.3897 13.4697 25.5303C13.6103 25.671 13.8011 25.75 14 25.75C14.1989 25.75 14.3897 25.671 14.5303 25.5303C14.671 25.3897 14.75 25.1989 14.75 25V22.75H17.25V25C17.25 25.1989 17.329 25.3897 17.4697 25.5303C17.6103 25.671 17.8011 25.75 18 25.75C18.1989 25.75 18.3897 25.671 18.5303 25.5303C18.671 25.3897 18.75 25.1989 18.75 25V22.75H21.25V25C21.25 25.1989 21.329 25.3897 21.4697 25.5303C21.6103 25.671 21.8011 25.75 22 25.75C22.1989 25.75 22.3897 25.671 22.5303 25.5303C22.671 25.3897 22.75 25.1989 22.75 25V22.75H25.25V25C25.25 25.1989 25.329 25.3897 25.4697 25.5303C25.6103 25.671 25.8011 25.75 26 25.75C26.1989 25.75 26.3897 25.671 26.5303 25.5303C26.671 25.3897 26.75 25.1989 26.75 25V22.75H29.25V25C29.25 25.1989 29.329 25.3897 29.4697 25.5303C29.6103 25.671 29.8011 25.75 30 25.75C30.1989 25.75 30.3897 25.671 30.5303 25.5303C30.671 25.3897 30.75 25.1989 30.75 25V9C30.75 8.53587 30.5656 8.09075 30.2374 7.76256C29.9092 7.43437 29.4641 7.25 29 7.25ZM2.75 9C2.75 8.9337 2.77634 8.87011 2.82322 8.82322C2.87011 8.77634 2.9337 8.75 3 8.75H29C29.0663 8.75 29.1299 8.77634 29.1768 8.82322C29.2237 8.87011 29.25 8.9337 29.25 9V21.25H2.75V9ZM14 18.75C14.1989 18.75 14.3897 18.671 14.5303 18.5303C14.671 18.3897 14.75 18.1989 14.75 18V12C14.75 11.8011 14.671 11.6103 14.5303 11.4697C14.3897 11.329 14.1989 11.25 14 11.25H6C5.80109 11.25 5.61032 11.329 5.46967 11.4697C5.32902 11.6103 5.25 11.8011 5.25 12V18C5.25 18.1989 5.32902 18.3897 5.46967 18.5303C5.61032 18.671 5.80109 18.75 6 18.75H14ZM6.75 12.75H13.25V17.25H6.75V12.75ZM18 18.75H26C26.1989 18.75 26.3897 18.671 26.5303 18.5303C26.671 18.3897 26.75 18.1989 26.75 18V12C26.75 11.8011 26.671 11.6103 26.5303 11.4697C26.3897 11.329 26.1989 11.25 26 11.25H18C17.8011 11.25 17.6103 11.329 17.4697 11.4697C17.329 11.6103 17.25 11.8011 17.25 12V18C17.25 18.1989 17.329 18.3897 17.4697 18.5303C17.6103 18.671 17.8011 18.75 18 18.75ZM18.75 12.75H25.25V17.25H18.75V12.75Z" fill="white"/>
</svg>
