<svg width="32" height="32" viewBox="0 0 32 32" fill="none" xmlns="http://www.w3.org/2000/svg">
<path d="M12 15.2501C11.0605 15.2501 10.1421 15.5287 9.361 16.0506C8.57987 16.5725 7.97105 17.3144 7.61153 18.1823C7.25201 19.0503 7.15795 20.0054 7.34123 20.9268C7.52451 21.8482 7.9769 22.6945 8.6412 23.3588C9.3055 24.0231 10.1519 24.4755 11.0733 24.6588C11.9947 24.8421 12.9498 24.748 13.8177 24.3885C14.6857 24.029 15.4275 23.4202 15.9494 22.639C16.4714 21.8579 16.75 20.9396 16.75 20.0001C16.75 18.7403 16.2495 17.5321 15.3587 16.6413C14.4679 15.7505 13.2597 15.2501 12 15.2501ZM12 23.2501C11.3572 23.2501 10.7288 23.0595 10.1944 22.7024C9.6599 22.3453 9.24333 21.8377 8.99735 21.2438C8.75136 20.65 8.687 19.9965 8.81241 19.366C8.93781 18.7356 9.24734 18.1565 9.70186 17.702C10.1564 17.2475 10.7355 16.9379 11.3659 16.8125C11.9964 16.6871 12.6498 16.7515 13.2437 16.9975C13.8375 17.2435 14.3451 17.66 14.7022 18.1945C15.0593 18.7289 15.25 19.3573 15.25 20.0001C15.25 20.862 14.9075 21.6887 14.2981 22.2982C13.6886 22.9077 12.8619 23.2501 12 23.2501ZM27.53 15.4701C27.6704 15.6107 27.7493 15.8013 27.7493 16.0001C27.7493 16.1988 27.6704 16.3895 27.53 16.5301L21.53 22.5301C21.3878 22.6626 21.1997 22.7347 21.0054 22.7313C20.8111 22.7278 20.6257 22.6491 20.4883 22.5117C20.3509 22.3743 20.2722 22.1889 20.2688 21.9946C20.2654 21.8003 20.3375 21.6123 20.47 21.4701L26.47 15.4701C26.6106 15.3296 26.8012 15.2508 27 15.2508C27.1987 15.2508 27.3893 15.3296 27.53 15.4701ZM20.53 16.5301C20.3878 16.6626 20.1997 16.7347 20.0054 16.7313C19.8111 16.7278 19.6257 16.6491 19.4883 16.5117C19.3509 16.3743 19.2722 16.1889 19.2688 15.9946C19.2654 15.8003 19.3375 15.6123 19.47 15.4701L22.47 12.4701C22.6121 12.3376 22.8002 12.2655 22.9945 12.2689C23.1888 12.2723 23.3742 12.3511 23.5116 12.4885C23.649 12.6259 23.7277 12.8113 23.7311 13.0056C23.7346 13.1999 23.6624 13.3879 23.53 13.5301L20.53 16.5301ZM28.53 8.53009L26.53 10.5301C26.3878 10.6626 26.1997 10.7347 26.0054 10.7313C25.8111 10.7278 25.6257 10.6491 25.4883 10.5117C25.3509 10.3743 25.2722 10.1889 25.2688 9.99461C25.2654 9.80031 25.3375 9.61227 25.47 9.47009L27.47 7.47009C27.6121 7.33761 27.8002 7.26549 27.9945 7.26892C28.1888 7.27234 28.3742 7.35106 28.5116 7.48847C28.649 7.62588 28.7277 7.81127 28.7311 8.00557C28.7346 8.19987 28.6624 8.38792 28.53 8.53009ZM15.47 11.4701L24.47 2.47009C24.6121 2.33761 24.8002 2.26549 24.9945 2.26892C25.1888 2.27234 25.3742 2.35106 25.5116 2.48847C25.649 2.62588 25.7277 2.81127 25.7311 3.00557C25.7346 3.19987 25.6624 3.38792 25.53 3.53009L16.53 12.5301C16.4613 12.6038 16.3785 12.6629 16.2865 12.7039C16.1945 12.7449 16.0952 12.7669 15.9945 12.7687C15.8938 12.7705 15.7937 12.7519 15.7004 12.7142C15.607 12.6765 15.5221 12.6203 15.4509 12.5491C15.3797 12.4779 15.3236 12.3931 15.2858 12.2997C15.2481 12.2063 15.2296 12.1063 15.2314 12.0056C15.2331 11.9049 15.2552 11.8056 15.2962 11.7136C15.3372 11.6216 15.3963 11.5388 15.47 11.4701ZM18.1875 25.1251C18.2572 25.1947 18.3125 25.2775 18.3503 25.3685C18.388 25.4596 18.4074 25.5572 18.4074 25.6557C18.4074 25.7543 18.388 25.8519 18.3503 25.9429C18.3125 26.034 18.2572 26.1167 18.1875 26.1863C16.5464 27.8274 14.3207 28.7493 12 28.7493C9.6792 28.7493 7.45349 27.8274 5.81246 26.1863C4.17143 24.5453 3.24951 22.3196 3.24951 19.9988C3.24951 17.6781 4.17143 15.4524 5.81246 13.8113L16.1562 3.46884C16.2249 3.39515 16.3077 3.33605 16.3997 3.29506C16.4917 3.25407 16.591 3.23203 16.6917 3.23025C16.7924 3.22847 16.8924 3.247 16.9858 3.28472C17.0792 3.32244 17.164 3.37858 17.2352 3.4498C17.3065 3.52102 17.3626 3.60585 17.4003 3.69924C17.4381 3.79263 17.4566 3.89266 17.4548 3.99336C17.453 4.09407 17.431 4.19338 17.39 4.28538C17.349 4.37738 17.2899 4.46018 17.2162 4.52884L6.87496 14.8751C6.17474 15.542 5.61501 16.3422 5.22869 17.2286C4.84238 18.115 4.63729 19.0698 4.6255 20.0367C4.61371 21.0036 4.79545 21.9631 5.16004 22.8587C5.52463 23.7543 6.06469 24.5679 6.74843 25.2516C7.43218 25.9354 8.24579 26.4754 9.14139 26.84C10.037 27.2046 10.9965 27.3863 11.9634 27.3746C12.9302 27.3628 13.885 27.1577 14.7714 26.7714C15.6579 26.385 16.4581 25.8253 17.125 25.1251C17.1946 25.0552 17.2774 24.9997 17.3686 24.9618C17.4598 24.924 17.5575 24.9045 17.6562 24.9045C17.7549 24.9045 17.8527 24.924 17.9438 24.9618C18.035 24.9997 18.1178 25.0552 18.1875 25.1251Z" fill="white"/>
</svg>
