<svg width="32" height="32" viewBox="0 0 32 32" fill="none" xmlns="http://www.w3.org/2000/svg">
<path d="M26.5549 27.5L6.5549 5.50003C6.4176 5.37259 6.23758 5.30114 6.05025 5.29975C5.86292 5.29836 5.68186 5.36712 5.54268 5.49251C5.4035 5.6179 5.31628 5.79083 5.29819 5.97729C5.28009 6.16374 5.33243 6.35022 5.4449 6.50003L10.2499 11.79V16C10.2498 16.992 10.5063 17.9671 10.9945 18.8306C11.4827 19.6941 12.186 20.4166 13.036 20.9279C13.886 21.4393 14.8538 21.722 15.8454 21.7486C16.837 21.7753 17.8187 21.545 18.6949 21.08L20.4137 22.97C19.0955 23.8109 17.5634 24.2552 15.9999 24.25C13.8127 24.2474 11.7158 23.3773 10.1692 21.8307C8.62259 20.2841 7.75255 18.1873 7.7499 16C7.7499 15.8011 7.67089 15.6104 7.53023 15.4697C7.38958 15.329 7.19882 15.25 6.9999 15.25C6.80099 15.25 6.61023 15.329 6.46957 15.4697C6.32892 15.6104 6.2499 15.8011 6.2499 16C6.25312 18.4549 7.18118 20.8184 8.84915 22.6196C10.5171 24.4208 12.8025 25.5273 15.2499 25.7188V30C15.2499 30.1989 15.3289 30.3897 15.4696 30.5304C15.6102 30.671 15.801 30.75 15.9999 30.75C16.1988 30.75 16.3896 30.671 16.5302 30.5304C16.6709 30.3897 16.7499 30.1989 16.7499 30V25.7213C18.4268 25.5985 20.0422 25.0382 21.4349 24.0963L25.4449 28.5C25.5788 28.6472 25.7658 28.7352 25.9646 28.7446C26.1633 28.7539 26.3577 28.684 26.5049 28.55C26.6521 28.4161 26.7401 28.2292 26.7494 28.0304C26.7588 27.8316 26.6888 27.6372 26.5549 27.49V27.5ZM15.9999 20.25C14.8727 20.25 13.7917 19.8023 12.9947 19.0052C12.1977 18.2082 11.7499 17.1272 11.7499 16V13.44L17.6399 19.92C17.1207 20.1382 16.5631 20.2504 15.9999 20.25ZM23.4149 19.625C23.9682 18.497 24.2539 17.2565 24.2499 16C24.2499 15.8011 24.3289 15.6104 24.4696 15.4697C24.6102 15.329 24.801 15.25 24.9999 15.25C25.1988 15.25 25.3896 15.329 25.5302 15.4697C25.6709 15.6104 25.7499 15.8011 25.7499 16C25.7537 17.484 25.4158 18.9489 24.7624 20.2813C24.7218 20.3738 24.663 20.4571 24.5894 20.5263C24.5158 20.5956 24.429 20.6492 24.3342 20.684C24.2394 20.7189 24.1386 20.7342 24.0377 20.7291C23.9368 20.724 23.838 20.6986 23.7472 20.6543C23.6564 20.6101 23.5754 20.548 23.5092 20.4717C23.443 20.3954 23.3929 20.3066 23.3618 20.2104C23.3308 20.1143 23.3195 20.0129 23.3286 19.9123C23.3377 19.8117 23.3671 19.714 23.4149 19.625ZM10.7249 5.70878C11.2512 4.49568 12.1795 3.50105 13.3534 2.89243C14.5274 2.28382 15.8752 2.09843 17.1699 2.36749C18.4646 2.63655 19.6269 3.34362 20.4612 4.36959C21.2954 5.39555 21.7506 6.6777 21.7499 8.00003V16C21.7502 16.2009 21.7398 16.4016 21.7187 16.6013C21.6994 16.7865 21.612 16.9579 21.4734 17.0822C21.3347 17.2065 21.1548 17.2748 20.9687 17.2738C20.9428 17.2738 20.9166 17.2738 20.8899 17.2738C20.6922 17.253 20.5108 17.1545 20.3856 17.0001C20.2605 16.8456 20.2018 16.6478 20.2224 16.45C20.2392 16.3006 20.2484 16.1504 20.2499 16V8.00003C20.251 7.02218 19.9149 6.07387 19.2982 5.31499C18.6816 4.5561 17.8221 4.03308 16.8647 3.83412C15.9073 3.63515 14.9106 3.77241 14.0426 4.22275C13.1746 4.67309 12.4885 5.40896 12.0999 6.30628C12.0166 6.48224 11.868 6.61888 11.6858 6.68733C11.5035 6.75578 11.3018 6.75067 11.1232 6.67307C10.9446 6.59548 10.8032 6.45148 10.7289 6.27153C10.6546 6.09158 10.6531 5.88977 10.7249 5.70878Z" fill="white"/>
</svg>
