<svg width="32" height="32" viewBox="0 0 32 32" fill="none" xmlns="http://www.w3.org/2000/svg">
<path d="M30.3975 7.71499C30.2896 7.64765 30.1663 7.60889 30.0392 7.60233C29.9122 7.59577 29.7855 7.62163 29.6712 7.67749C24.2137 10.3425 20.335 9.10124 16.2288 7.78749C12.02 6.44124 7.66875 5.04999 1.67125 7.97999C1.54498 8.04157 1.43854 8.13737 1.36407 8.25649C1.28959 8.37561 1.25007 8.51325 1.25 8.65374V23.6537C1.25006 23.7809 1.28246 23.906 1.34416 24.0172C1.40586 24.1284 1.49483 24.2221 1.6027 24.2895C1.71057 24.3569 1.8338 24.3957 1.96081 24.4024C2.08782 24.409 2.21444 24.3832 2.32875 24.3275C7.78625 21.6625 11.665 22.9037 15.7712 24.2175C18.1462 24.9787 20.5788 25.755 23.3237 25.755C25.43 25.755 27.725 25.2975 30.3237 24.025C30.45 23.9634 30.5565 23.8676 30.6309 23.7485C30.7054 23.6294 30.7449 23.4917 30.745 23.3512V8.35124C30.7456 8.22446 30.714 8.0996 30.6532 7.98834C30.5925 7.87707 30.5045 7.78302 30.3975 7.71499ZM29.25 22.875C24.0125 25.2762 20.2288 24.0662 16.2288 22.7862C13.8475 22.0225 11.4213 21.25 8.67625 21.25C6.865 21.25 4.91625 21.5875 2.75 22.49V9.12499C7.9875 6.72374 11.7712 7.93374 15.7712 9.21374C19.7225 10.48 23.8013 11.785 29.25 9.51374V22.875ZM16 12.25C15.2583 12.25 14.5333 12.4699 13.9166 12.882C13.2999 13.294 12.8193 13.8797 12.5355 14.5649C12.2516 15.2501 12.1774 16.0041 12.3221 16.7316C12.4667 17.459 12.8239 18.1272 13.3483 18.6516C13.8728 19.1761 14.541 19.5332 15.2684 19.6779C15.9958 19.8226 16.7498 19.7484 17.4351 19.4645C18.1203 19.1807 18.706 18.7001 19.118 18.0834C19.5301 17.4667 19.75 16.7417 19.75 16C19.75 15.0054 19.3549 14.0516 18.6517 13.3483C17.9484 12.6451 16.9946 12.25 16 12.25ZM16 18.25C15.555 18.25 15.12 18.118 14.75 17.8708C14.38 17.6236 14.0916 17.2722 13.9213 16.861C13.751 16.4499 13.7064 15.9975 13.7932 15.561C13.88 15.1246 14.0943 14.7237 14.409 14.409C14.7237 14.0943 15.1246 13.88 15.561 13.7932C15.9975 13.7064 16.4499 13.751 16.861 13.9213C17.2722 14.0916 17.6236 14.3799 17.8708 14.75C18.118 15.12 18.25 15.555 18.25 16C18.25 16.5967 18.0129 17.169 17.591 17.591C17.169 18.0129 16.5967 18.25 16 18.25ZM6.75 12V18C6.75 18.1989 6.67098 18.3897 6.53033 18.5303C6.38968 18.671 6.19891 18.75 6 18.75C5.80109 18.75 5.61032 18.671 5.46967 18.5303C5.32902 18.3897 5.25 18.1989 5.25 18V12C5.25 11.8011 5.32902 11.6103 5.46967 11.4697C5.61032 11.329 5.80109 11.25 6 11.25C6.19891 11.25 6.38968 11.329 6.53033 11.4697C6.67098 11.6103 6.75 11.8011 6.75 12ZM25.25 20V14C25.25 13.8011 25.329 13.6103 25.4697 13.4697C25.6103 13.329 25.8011 13.25 26 13.25C26.1989 13.25 26.3897 13.329 26.5303 13.4697C26.671 13.6103 26.75 13.8011 26.75 14V20C26.75 20.1989 26.671 20.3897 26.5303 20.5303C26.3897 20.671 26.1989 20.75 26 20.75C25.8011 20.75 25.6103 20.671 25.4697 20.5303C25.329 20.3897 25.25 20.1989 25.25 20Z" fill="white"/>
</svg>
