<svg width="32" height="32" viewBox="0 0 32 32" fill="none" xmlns="http://www.w3.org/2000/svg">
<path d="M26 5.25H6C5.27065 5.25 4.57118 5.53973 4.05546 6.05546C3.53973 6.57118 3.25 7.27065 3.25 8V22C3.25 22.7293 3.53973 23.4288 4.05546 23.9445C4.57118 24.4603 5.27065 24.75 6 24.75H26C26.7293 24.75 27.4288 24.4603 27.9445 23.9445C28.4603 23.4288 28.75 22.7293 28.75 22V8C28.75 7.27065 28.4603 6.57118 27.9445 6.05546C27.4288 5.53973 26.7293 5.25 26 5.25ZM27.25 22C27.25 22.3315 27.1183 22.6495 26.8839 22.8839C26.6495 23.1183 26.3315 23.25 26 23.25H6C5.66848 23.25 5.35054 23.1183 5.11612 22.8839C4.8817 22.6495 4.75 22.3315 4.75 22V8C4.75 7.66848 4.8817 7.35054 5.11612 7.11612C5.35054 6.8817 5.66848 6.75 6 6.75H26C26.3315 6.75 26.6495 6.8817 26.8839 7.11612C27.1183 7.35054 27.25 7.66848 27.25 8V22ZM20.75 28C20.75 28.1989 20.671 28.3897 20.5303 28.5303C20.3897 28.671 20.1989 28.75 20 28.75H12C11.8011 28.75 11.6103 28.671 11.4697 28.5303C11.329 28.3897 11.25 28.1989 11.25 28C11.25 27.8011 11.329 27.6103 11.4697 27.4697C11.6103 27.329 11.8011 27.25 12 27.25H20C20.1989 27.25 20.3897 27.329 20.5303 27.4697C20.671 27.6103 20.75 27.8011 20.75 28ZM19.53 13.47C19.6037 13.5387 19.6628 13.6215 19.7038 13.7135C19.7448 13.8055 19.7668 13.9048 19.7686 14.0055C19.7704 14.1062 19.7518 14.2062 19.7141 14.2996C19.6764 14.393 19.6203 14.4778 19.549 14.549C19.4778 14.6203 19.393 14.6764 19.2996 14.7141C19.2062 14.7518 19.1062 14.7704 19.0055 14.7686C18.9048 14.7668 18.8055 14.7448 18.7135 14.7038C18.6215 14.6628 18.5387 14.6037 18.47 14.53L16.75 12.8112V19C16.75 19.1989 16.671 19.3897 16.5303 19.5303C16.3897 19.671 16.1989 19.75 16 19.75C15.8011 19.75 15.6103 19.671 15.4697 19.5303C15.329 19.3897 15.25 19.1989 15.25 19V12.8112L13.53 14.53C13.3878 14.6625 13.1998 14.7346 13.0055 14.7312C12.8112 14.7277 12.6258 14.649 12.4884 14.5116C12.351 14.3742 12.2723 14.1888 12.2688 13.9945C12.2654 13.8002 12.3375 13.6122 12.47 13.47L15.47 10.47C15.6106 10.3295 15.8012 10.2507 16 10.2507C16.1988 10.2507 16.3894 10.3295 16.53 10.47L19.53 13.47Z" fill="white"/>
</svg>
