<svg width="32" height="32" viewBox="0 0 32 32" fill="none" xmlns="http://www.w3.org/2000/svg">
<path d="M26.9999 15.25C26.6694 15.2503 26.3397 15.2846 26.0162 15.3525L25.1124 13C25.7278 12.8338 26.3625 12.7497 26.9999 12.75C27.1988 12.75 27.3896 12.671 27.5303 12.5303C27.6709 12.3897 27.7499 12.1989 27.7499 12C27.7499 11.8011 27.6709 11.6103 27.5303 11.4697C27.3896 11.329 27.1988 11.25 26.9999 11.25H24.4387L22.6999 6.73125C22.6456 6.58967 22.5496 6.46788 22.4246 6.38197C22.2997 6.29605 22.1516 6.25004 21.9999 6.25H17.9999C17.801 6.25 17.6102 6.32902 17.4696 6.46967C17.3289 6.61032 17.2499 6.80109 17.2499 7C17.2499 7.19891 17.3289 7.38968 17.4696 7.53033C17.6102 7.67098 17.801 7.75 17.9999 7.75H21.4849L22.8312 11.25H18.9999C16.7499 11.25 14.9274 11.7688 13.7374 12.75C13.4102 13.0143 13.0155 13.1819 12.5981 13.2338C12.1806 13.2857 11.757 13.2199 11.3749 13.0437C9.73743 12.2975 3.79993 9.89875 3.24993 9.6825L2.53493 9.4025C2.36539 9.32474 2.18498 9.27331 1.99993 9.25C1.82481 9.25012 1.65526 9.31151 1.52066 9.42353C1.38606 9.53555 1.29491 9.69114 1.26299 9.86332C1.23108 10.0355 1.26042 10.2134 1.34594 10.3662C1.43145 10.5191 1.56774 10.6371 1.73118 10.7C1.78868 10.7225 7.62243 12.9825 10.7599 14.4087C11.3972 14.6996 12.103 14.8069 12.798 14.7186C13.4929 14.6303 14.1494 14.3498 14.6937 13.9087C15.6112 13.1587 17.0999 12.7525 19.0012 12.7525H22.1124C20.3895 13.9113 19.1347 15.645 18.5724 17.6437C18.4365 18.1097 18.1523 18.5187 17.7629 18.8085C17.3736 19.0984 16.9003 19.2534 16.4149 19.25H9.68993C9.5013 18.0703 8.87507 17.0051 7.93607 16.2665C6.99706 15.5279 5.81424 15.1703 4.62333 15.2649C3.43242 15.3595 2.3209 15.8994 1.51029 16.777C0.699677 17.6545 0.249512 18.8053 0.249512 20C0.249512 21.1947 0.699677 22.3455 1.51029 23.223C2.3209 24.1006 3.43242 24.6405 4.62333 24.7351C5.81424 24.8297 6.99706 24.4721 7.93607 23.7335C8.87507 22.9949 9.5013 21.9297 9.68993 20.75H16.4149C17.2277 20.752 18.0189 20.489 18.6688 20.0009C19.3186 19.5128 19.7917 18.8261 20.0162 18.045C20.2879 17.08 20.7568 16.1819 21.3932 15.4074C22.0296 14.6328 22.8197 13.9987 23.7137 13.545L24.6174 15.895C23.6219 16.4746 22.8709 17.3962 22.5043 18.4883C22.1377 19.5804 22.1804 20.7684 22.6245 21.8314C23.0687 22.8943 23.884 23.7595 24.9186 24.2661C25.9532 24.7727 27.1366 24.886 28.2486 24.5849C29.3605 24.2839 30.3252 23.5891 30.9629 22.6297C31.6007 21.6704 31.8681 20.512 31.7154 19.3702C31.5627 18.2284 31.0002 17.1811 30.1327 16.4231C29.2653 15.6651 28.1519 15.2482 26.9999 15.25ZM4.99993 20.75H8.16118C7.97735 21.5251 7.51528 22.2056 6.86271 22.6625C6.21014 23.1193 5.41252 23.3205 4.62134 23.228C3.83016 23.1355 3.10052 22.7556 2.57098 22.1605C2.04145 21.5654 1.7489 20.7966 1.7489 20C1.7489 19.2034 2.04145 18.4346 2.57098 17.8395C3.10052 17.2444 3.83016 16.8645 4.62134 16.772C5.41252 16.6795 6.21014 16.8807 6.86271 17.3375C7.51528 17.7944 7.97735 18.4749 8.16118 19.25H4.99993C4.80102 19.25 4.61025 19.329 4.4696 19.4697C4.32895 19.6103 4.24993 19.8011 4.24993 20C4.24993 20.1989 4.32895 20.3897 4.4696 20.5303C4.61025 20.671 4.80102 20.75 4.99993 20.75ZM26.9999 23.25C26.306 23.2496 25.6305 23.0272 25.0721 22.6153C24.5137 22.2033 24.1019 21.6234 23.8968 20.9606C23.6917 20.2977 23.7042 19.5865 23.9324 18.9312C24.1605 18.276 24.5925 17.7109 25.1649 17.3188L26.2999 20.2687C26.3742 20.4502 26.5166 20.5953 26.6966 20.6731C26.8765 20.7508 27.0798 20.755 27.2628 20.6847C27.4458 20.6145 27.5941 20.4753 27.6758 20.2971C27.7575 20.1189 27.7661 19.9158 27.6999 19.7313L26.5649 16.78C26.7091 16.7605 26.8544 16.7505 26.9999 16.75C27.8619 16.75 28.6885 17.0924 29.298 17.7019C29.9075 18.3114 30.2499 19.138 30.2499 20C30.2499 20.862 29.9075 21.6886 29.298 22.2981C28.6885 22.9076 27.8619 23.25 26.9999 23.25Z" fill="white"/>
</svg>
