<svg width="32" height="32" viewBox="0 0 32 32" fill="none" xmlns="http://www.w3.org/2000/svg">
<path d="M18 2.25H14C11.9453 2.25232 9.97539 3.06958 8.52248 4.52248C7.06957 5.97539 6.25232 7.94528 6.25 10V22C6.25232 24.0547 7.06957 26.0246 8.52248 27.4775C9.97539 28.9304 11.9453 29.7477 14 29.75H18C20.0547 29.7477 22.0246 28.9304 23.4775 27.4775C24.9304 26.0246 25.7477 24.0547 25.75 22V10C25.7477 7.94528 24.9304 5.97539 23.4775 4.52248C22.0246 3.06958 20.0547 2.25232 18 2.25ZM24.25 22C24.248 23.657 23.5889 25.2456 22.4172 26.4172C21.2456 27.5889 19.657 28.248 18 28.25H14C12.343 28.248 10.7544 27.5889 9.58278 26.4172C8.4111 25.2456 7.75198 23.657 7.75 22V10C7.75198 8.34301 8.4111 6.75445 9.58278 5.58277C10.7544 4.4111 12.343 3.75198 14 3.75H18C19.657 3.75198 21.2456 4.4111 22.4172 5.58277C23.5889 6.75445 24.248 8.34301 24.25 10V22ZM16.75 9.81125V22.1863L18.47 20.4675C18.6122 20.335 18.8002 20.2629 18.9945 20.2663C19.1888 20.2698 19.3742 20.3485 19.5116 20.4859C19.649 20.6233 19.7277 20.8087 19.7312 21.003C19.7346 21.1973 19.6625 21.3853 19.53 21.5275L16.53 24.5275C16.3894 24.6679 16.1988 24.7468 16 24.7468C15.8012 24.7468 15.6106 24.6679 15.47 24.5275L12.47 21.5275C12.3375 21.3853 12.2654 21.1973 12.2688 21.003C12.2723 20.8087 12.351 20.6233 12.4884 20.4859C12.6258 20.3485 12.8112 20.2698 13.0055 20.2663C13.1998 20.2629 13.3878 20.335 13.53 20.4675L15.25 22.1887V9.81375L13.53 11.53C13.3878 11.6625 13.1998 11.7346 13.0055 11.7312C12.8112 11.7277 12.6258 11.649 12.4884 11.5116C12.351 11.3742 12.2723 11.1888 12.2688 10.9945C12.2654 10.8002 12.3375 10.6122 12.47 10.47L15.47 7.47C15.6106 7.32955 15.8012 7.25066 16 7.25066C16.1988 7.25066 16.3894 7.32955 16.53 7.47L19.53 10.47C19.6037 10.5387 19.6628 10.6215 19.7038 10.7135C19.7448 10.8055 19.7668 10.9048 19.7686 11.0055C19.7704 11.1062 19.7518 11.2062 19.7141 11.2996C19.6764 11.393 19.6203 11.4778 19.549 11.549C19.4778 11.6203 19.393 11.6764 19.2996 11.7141C19.2062 11.7518 19.1062 11.7704 19.0055 11.7686C18.9048 11.7668 18.8055 11.7448 18.7135 11.7038C18.6215 11.6628 18.5387 11.6037 18.47 11.53L16.75 9.81125Z" fill="white"/>
</svg>
