<svg width="32" height="32" viewBox="0 0 32 32" fill="none" xmlns="http://www.w3.org/2000/svg">
<path d="M18 2.25H14C11.9453 2.25232 9.97539 3.06958 8.52248 4.52248C7.06957 5.97539 6.25232 7.94528 6.25 10V22C6.25232 24.0547 7.06957 26.0246 8.52248 27.4775C9.97539 28.9304 11.9453 29.7477 14 29.75H18C20.0547 29.7477 22.0246 28.9304 23.4775 27.4775C24.9304 26.0246 25.7477 24.0547 25.75 22V10C25.7477 7.94528 24.9304 5.97539 23.4775 4.52248C22.0246 3.06958 20.0547 2.25232 18 2.25ZM24.25 10V13.25H18.75V11C18.75 10.5359 18.5656 10.0908 18.2374 9.76256C17.9092 9.43437 17.4641 9.25 17 9.25H16.75V3.75H18C19.657 3.75198 21.2456 4.4111 22.4172 5.58277C23.5889 6.75445 24.248 8.34301 24.25 10ZM14.75 11C14.75 10.9337 14.7763 10.8701 14.8232 10.8232C14.8701 10.7763 14.9337 10.75 15 10.75H17C17.0663 10.75 17.1299 10.7763 17.1768 10.8232C17.2237 10.8701 17.25 10.9337 17.25 11V17C17.25 17.0663 17.2237 17.1299 17.1768 17.1768C17.1299 17.2237 17.0663 17.25 17 17.25H15C14.9337 17.25 14.8701 17.2237 14.8232 17.1768C14.7763 17.1299 14.75 17.0663 14.75 17V11ZM14 3.75H15.25V9.25H15C14.5359 9.25 14.0908 9.43437 13.7626 9.76256C13.4344 10.0908 13.25 10.5359 13.25 11V13.25H7.75V10C7.75198 8.34301 8.4111 6.75445 9.58278 5.58277C10.7544 4.4111 12.343 3.75198 14 3.75ZM18 28.25H14C12.343 28.248 10.7544 27.5889 9.58278 26.4172C8.4111 25.2456 7.75198 23.657 7.75 22V14.75H13.25V17C13.25 17.4641 13.4344 17.9092 13.7626 18.2374C14.0908 18.5656 14.5359 18.75 15 18.75H17C17.4641 18.75 17.9092 18.5656 18.2374 18.2374C18.5656 17.9092 18.75 17.4641 18.75 17V14.75H24.25V22C24.248 23.657 23.5889 25.2456 22.4172 26.4172C21.2456 27.5889 19.657 28.248 18 28.25Z" fill="white"/>
</svg>
