<svg width="32" height="32" viewBox="0 0 32 32" fill="none" xmlns="http://www.w3.org/2000/svg">
<path d="M18 2.25H14C11.9453 2.25232 9.97539 3.06958 8.52248 4.52248C7.06957 5.97539 6.25232 7.94528 6.25 10V22C6.25232 24.0547 7.06957 26.0246 8.52248 27.4775C9.97539 28.9304 11.9453 29.7477 14 29.75H18C20.0547 29.7477 22.0246 28.9304 23.4775 27.4775C24.9304 26.0246 25.7477 24.0547 25.75 22V10C25.7477 7.94528 24.9304 5.97539 23.4775 4.52248C22.0246 3.06958 20.0547 2.25232 18 2.25ZM24.25 10V13.25H16.75V3.75H18C19.657 3.75198 21.2456 4.4111 22.4172 5.58277C23.5889 6.75445 24.248 8.34301 24.25 10ZM15.25 3.75V8.18875L11.3862 4.325C12.2054 3.94587 13.0973 3.74966 14 3.75H15.25ZM10.0775 5.13875L15.25 10.3112V13.25H14.3112L8.3625 7.3025C8.76679 6.46309 9.35258 5.72403 10.0775 5.13875ZM7.75 10C7.7506 9.6341 7.78323 9.26896 7.8475 8.90875L12.1888 13.25H7.75V10ZM18 28.25H14C12.343 28.248 10.7544 27.5889 9.58278 26.4172C8.4111 25.2456 7.75198 23.657 7.75 22V14.75H24.25V22C24.248 23.657 23.5889 25.2456 22.4172 26.4172C21.2456 27.5889 19.657 28.248 18 28.25Z" fill="white"/>
</svg>
