<svg width="32" height="32" viewBox="0 0 32 32" fill="none" xmlns="http://www.w3.org/2000/svg">
<path d="M28.7501 6C28.7501 6.19891 28.6711 6.38968 28.5304 6.53033C28.3898 6.67098 28.199 6.75 28.0001 6.75H25.7501V9C25.7501 9.19891 25.6711 9.38968 25.5304 9.53033C25.3898 9.67098 25.199 9.75 25.0001 9.75C24.8012 9.75 24.6104 9.67098 24.4698 9.53033C24.3291 9.38968 24.2501 9.19891 24.2501 9V6.75H22.0001C21.8012 6.75 21.6104 6.67098 21.4698 6.53033C21.3291 6.38968 21.2501 6.19891 21.2501 6C21.2501 5.80109 21.3291 5.61032 21.4698 5.46967C21.6104 5.32902 21.8012 5.25 22.0001 5.25H24.2501V3C24.2501 2.80109 24.3291 2.61032 24.4698 2.46967C24.6104 2.32902 24.8012 2.25 25.0001 2.25C25.199 2.25 25.3898 2.32902 25.5304 2.46967C25.6711 2.61032 25.7501 2.80109 25.7501 3V5.25H28.0001C28.199 5.25 28.3898 5.32902 28.5304 5.46967C28.6711 5.61032 28.7501 5.80109 28.7501 6ZM26.7501 14V20.5C26.7518 21.4705 26.4219 22.4126 25.815 23.1699C25.2081 23.9273 24.3606 24.4546 23.413 24.6644C22.4654 24.8742 21.4746 24.754 20.6047 24.3236C19.7348 23.8932 19.038 23.1785 18.6299 22.298C18.2217 21.4174 18.1267 20.4238 18.3605 19.4819C18.5943 18.5399 19.143 17.7061 19.9155 17.1186C20.6881 16.5312 21.6382 16.2253 22.6084 16.2517C23.5786 16.2781 24.5106 16.6351 25.2501 17.2638V14C25.2501 13.8011 25.3291 13.6103 25.4698 13.4697C25.6104 13.329 25.8012 13.25 26.0001 13.25C26.199 13.25 26.3898 13.329 26.5304 13.4697C26.6711 13.6103 26.7501 13.8011 26.7501 14ZM25.2501 20.5C25.2501 19.9561 25.0888 19.4244 24.7866 18.9722C24.4845 18.5199 24.055 18.1675 23.5525 17.9593C23.05 17.7512 22.4971 17.6967 21.9636 17.8028C21.4302 17.909 20.9402 18.1709 20.5556 18.5555C20.171 18.9401 19.9091 19.4301 19.8029 19.9635C19.6968 20.4969 19.7513 21.0499 19.9594 21.5524C20.1676 22.0549 20.5201 22.4844 20.9723 22.7865C21.4245 23.0887 21.9562 23.25 22.5001 23.25C23.2295 23.25 23.9289 22.9603 24.4446 22.4445C24.9604 21.9288 25.2501 21.2293 25.2501 20.5ZM10.7501 13.585V24.5C10.7518 25.4705 10.4219 26.4126 9.815 27.1699C9.20808 27.9273 8.36061 28.4546 7.41301 28.6644C6.46541 28.8742 5.47457 28.754 4.60466 28.3236C3.73475 27.8932 3.038 27.1785 2.62986 26.298C2.22172 25.4174 2.12669 24.4238 2.36052 23.4819C2.59434 22.5399 3.14299 21.7061 3.91555 21.1186C4.6881 20.5312 5.63819 20.2253 6.60838 20.2517C7.57857 20.2781 8.51063 20.6351 9.2501 21.2638V7C9.25009 6.83284 9.30593 6.67046 9.40875 6.53866C9.51156 6.40685 9.65547 6.31318 9.8176 6.2725L16.8176 4.5225C16.9131 4.49853 17.0125 4.49362 17.1099 4.50804C17.2073 4.52246 17.301 4.55593 17.3855 4.60653C17.47 4.65714 17.5437 4.7239 17.6024 4.80299C17.6611 4.88208 17.7036 4.97196 17.7276 5.0675C17.7516 5.16304 17.7565 5.26236 17.7421 5.35979C17.7276 5.45723 17.6942 5.55087 17.6436 5.63537C17.593 5.71987 17.5262 5.79358 17.4471 5.85228C17.368 5.91098 17.2781 5.95353 17.1826 5.9775L10.7501 7.585V12.04L19.8176 9.7725C19.9131 9.74853 20.0125 9.74362 20.1099 9.75804C20.2073 9.77246 20.301 9.80592 20.3855 9.85653C20.47 9.90714 20.5437 9.9739 20.6024 10.053C20.6611 10.1321 20.7036 10.222 20.7276 10.3175C20.7516 10.413 20.7565 10.5124 20.7421 10.6098C20.7276 10.7072 20.6942 10.8009 20.6436 10.8854C20.593 10.9699 20.5262 11.0436 20.4471 11.1023C20.368 11.161 20.2781 11.2035 20.1826 11.2275L10.7501 13.585ZM9.2501 24.5C9.2501 23.9561 9.08882 23.4244 8.78664 22.9722C8.48447 22.5199 8.05498 22.1675 7.55248 21.9593C7.04999 21.7512 6.49705 21.6967 5.96361 21.8028C5.43016 21.909 4.94015 22.1709 4.55556 22.5555C4.17097 22.9401 3.90905 23.4301 3.80294 23.9635C3.69684 24.4969 3.75129 25.0499 3.95944 25.5524C4.16758 26.0549 4.52005 26.4844 4.97229 26.7865C5.42452 27.0887 5.95621 27.25 6.5001 27.25C7.22945 27.25 7.92892 26.9603 8.44465 26.4445C8.96037 25.9288 9.2501 25.2293 9.2501 24.5Z" fill="white"/>
</svg>
