<svg width="32" height="32" viewBox="0 0 32 32" fill="none" xmlns="http://www.w3.org/2000/svg">
<path d="M28.7501 6.00004C28.7501 6.19895 28.6711 6.38972 28.5304 6.53037C28.3898 6.67102 28.199 6.75004 28.0001 6.75004H22.0001C21.8012 6.75004 21.6104 6.67102 21.4698 6.53037C21.3291 6.38972 21.2501 6.19895 21.2501 6.00004C21.2501 5.80113 21.3291 5.61036 21.4698 5.46971C21.6104 5.32906 21.8012 5.25004 22.0001 5.25004H28.0001C28.199 5.25004 28.3898 5.32906 28.5304 5.46971C28.6711 5.61036 28.7501 5.80113 28.7501 6.00004ZM26.7501 11V20.5C26.7518 21.4706 26.4219 22.4126 25.815 23.17C25.2081 23.9274 24.3606 24.4546 23.413 24.6645C22.4654 24.8743 21.4746 24.754 20.6047 24.3236C19.7348 23.8933 19.038 23.1786 18.6299 22.298C18.2217 21.4175 18.1267 20.4239 18.3605 19.4819C18.5943 18.54 19.143 17.7062 19.9155 17.1187C20.6881 16.5312 21.6382 16.2253 22.6084 16.2517C23.5786 16.2781 24.5106 16.6352 25.2501 17.2638V11C25.2501 10.8011 25.3291 10.6104 25.4698 10.4697C25.6104 10.3291 25.8012 10.25 26.0001 10.25C26.199 10.25 26.3898 10.3291 26.5304 10.4697C26.6711 10.6104 26.7501 10.8011 26.7501 11ZM25.2501 20.5C25.2501 19.9561 25.0888 19.4245 24.7866 18.9722C24.4845 18.52 24.055 18.1675 23.5525 17.9594C23.05 17.7512 22.4971 17.6968 21.9636 17.8029C21.4302 17.909 20.9402 18.1709 20.5556 18.5555C20.171 18.9401 19.9091 19.4301 19.8029 19.9635C19.6968 20.497 19.7513 21.0499 19.9594 21.5524C20.1676 22.0549 20.5201 22.4844 20.9723 22.7866C21.4245 23.0888 21.9562 23.25 22.5001 23.25C23.2295 23.25 23.9289 22.9603 24.4446 22.4446C24.9604 21.9289 25.2501 21.2294 25.2501 20.5ZM10.7501 13.5863V24.5C10.7518 25.4706 10.4219 26.4126 9.815 27.17C9.20808 27.9274 8.36061 28.4546 7.41301 28.6645C6.46541 28.8743 5.47457 28.754 4.60466 28.3236C3.73475 27.8933 3.038 27.1786 2.62986 26.298C2.22172 25.4175 2.12669 24.4239 2.36052 23.4819C2.59434 22.54 3.14299 21.7062 3.91555 21.1187C4.6881 20.5312 5.63819 20.2253 6.60838 20.2517C7.57857 20.2781 8.51063 20.6352 9.2501 21.2638V7.00004C9.25009 6.83288 9.30593 6.6705 9.40875 6.5387C9.51156 6.4069 9.65547 6.31322 9.8176 6.27254L16.8176 4.52254C16.9131 4.49858 17.0125 4.49366 17.1099 4.50808C17.2073 4.5225 17.301 4.55597 17.3855 4.60657C17.47 4.65718 17.5437 4.72394 17.6024 4.80303C17.6611 4.88212 17.7036 4.97201 17.7276 5.06754C17.7516 5.16308 17.7565 5.2624 17.7421 5.35984C17.7276 5.45727 17.6942 5.55091 17.6436 5.63541C17.593 5.71992 17.5262 5.79362 17.4471 5.85232C17.368 5.91103 17.2781 5.95358 17.1826 5.97754L10.7501 7.58504V12.0388L19.8176 9.77254C20.0105 9.72414 20.2148 9.75437 20.3855 9.85657C20.5561 9.95878 20.6792 10.1246 20.7276 10.3175C20.776 10.5105 20.7458 10.7148 20.6436 10.8854C20.5414 11.0561 20.3756 11.1791 20.1826 11.2275L10.7501 13.5863ZM9.2501 24.5C9.2501 23.9561 9.08882 23.4245 8.78664 22.9722C8.48447 22.52 8.05498 22.1675 7.55248 21.9594C7.04999 21.7512 6.49705 21.6968 5.96361 21.8029C5.43016 21.909 4.94015 22.1709 4.55556 22.5555C4.17097 22.9401 3.90905 23.4301 3.80294 23.9635C3.69684 24.497 3.75129 25.0499 3.95944 25.5524C4.16758 26.0549 4.52005 26.4844 4.97229 26.7866C5.42452 27.0888 5.95621 27.25 6.5001 27.25C7.22945 27.25 7.92892 26.9603 8.44465 26.4446C8.96037 25.9289 9.2501 25.2294 9.2501 24.5Z" fill="white"/>
</svg>
