<svg width="32" height="32" viewBox="0 0 32 32" fill="none" xmlns="http://www.w3.org/2000/svg">
<path d="M26.4613 2.40875C26.3714 2.3386 26.2667 2.28986 26.1551 2.26625C26.0436 2.24264 25.9281 2.24478 25.8175 2.2725L9.8175 6.2725C9.65536 6.31317 9.51146 6.40685 9.40864 6.53866C9.30583 6.67046 9.24999 6.83283 9.25 7V21.2637C8.51154 20.637 7.58118 20.2814 6.61298 20.2556C5.64477 20.2299 4.69682 20.5356 3.9261 21.1222C3.15538 21.7087 2.60813 22.541 2.37498 23.481C2.14183 24.4211 2.23676 25.4126 2.64406 26.2913C3.05135 27.1701 3.74658 27.8834 4.6146 28.313C5.48262 28.7427 6.47137 28.863 7.41709 28.654C8.36282 28.445 9.20879 27.9192 9.81491 27.1638C10.421 26.4084 10.7509 25.4685 10.75 24.5V7.585L25.25 3.96V17.2637C24.5115 16.637 23.5812 16.2814 22.613 16.2556C21.6448 16.2299 20.6968 16.5356 19.9261 17.1222C19.1554 17.7088 18.6081 18.541 18.375 19.481C18.1418 20.4211 18.2368 21.4126 18.6441 22.2913C19.0514 23.1701 19.7466 23.8834 20.6146 24.313C21.4826 24.7427 22.4714 24.863 23.4171 24.654C24.3628 24.445 25.2088 23.9192 25.8149 23.1638C26.421 22.4084 26.7509 21.4685 26.75 20.5V3C26.75 2.88598 26.724 2.77347 26.6739 2.67102C26.6239 2.56856 26.5512 2.47887 26.4613 2.40875ZM6.5 27.25C5.9561 27.25 5.42442 27.0887 4.97218 26.7865C4.51995 26.4844 4.16747 26.0549 3.95933 25.5524C3.75119 25.0499 3.69673 24.4969 3.80284 23.9635C3.90895 23.43 4.17086 22.94 4.55546 22.5555C4.94005 22.1709 5.43006 21.9089 5.9635 21.8028C6.49695 21.6967 7.04988 21.7512 7.55238 21.9593C8.05488 22.1675 8.48437 22.5199 8.78654 22.9722C9.08872 23.4244 9.25 23.9561 9.25 24.5C9.25 25.2293 8.96027 25.9288 8.44455 26.4445C7.92882 26.9603 7.22935 27.25 6.5 27.25ZM22.5 23.25C21.9561 23.25 21.4244 23.0887 20.9722 22.7865C20.5199 22.4844 20.1675 22.0549 19.9593 21.5524C19.7512 21.0499 19.6967 20.4969 19.8028 19.9635C19.909 19.43 20.1709 18.94 20.5555 18.5555C20.9401 18.1709 21.4301 17.9089 21.9635 17.8028C22.497 17.6967 23.0499 17.7512 23.5524 17.9593C24.0549 18.1675 24.4844 18.5199 24.7865 18.9722C25.0887 19.4244 25.25 19.9561 25.25 20.5C25.25 21.2293 24.9603 21.9288 24.4445 22.4445C23.9288 22.9603 23.2293 23.25 22.5 23.25Z" fill="white"/>
</svg>
