<svg width="32" height="32" viewBox="0 0 32 32" fill="none" xmlns="http://www.w3.org/2000/svg">
<path d="M29.5813 13.5125L7.59004 5.35378H7.57379C7.26408 5.24705 6.93064 5.2294 6.61139 5.30283C6.29215 5.37626 5.99993 5.53782 5.76797 5.76913C5.53601 6.00043 5.37363 6.2922 5.2993 6.61124C5.22498 6.93028 5.24169 7.26377 5.34754 7.57378C5.34754 7.57378 5.34754 7.58503 5.34754 7.59003L13.5125 29.5813C13.629 29.9248 13.851 30.2228 14.1468 30.4327C14.4427 30.6426 14.7973 30.7537 15.16 30.75H15.1925C15.5626 30.7476 15.922 30.6262 16.2178 30.4038C16.5135 30.1814 16.7299 29.8698 16.835 29.515V29.4963L19.6025 19.6088L29.5 16.8413H29.5188C29.8705 16.7328 30.179 16.5161 30.4005 16.2222C30.6219 15.9282 30.7451 15.5719 30.7524 15.204C30.7598 14.836 30.6509 14.4751 30.4413 14.1725C30.2318 13.87 29.9321 13.6412 29.585 13.5188L29.5813 13.5125ZM29.0813 15.4L18.7988 18.275C18.6748 18.3098 18.5618 18.3758 18.4707 18.4669C18.3796 18.558 18.3135 18.671 18.2788 18.795L15.4038 29.0775C15.39 29.128 15.3595 29.1723 15.3172 29.2031C15.275 29.234 15.2236 29.2497 15.1713 29.2475C15.1178 29.2522 15.0644 29.2379 15.0205 29.207C14.9765 29.1761 14.9449 29.1307 14.9313 29.0788C14.9318 29.0738 14.9318 29.0688 14.9313 29.0638L6.76379 7.07753C6.74999 7.03388 6.74843 6.98729 6.75929 6.94282C6.77015 6.89836 6.79301 6.85773 6.82538 6.82536C6.85774 6.793 6.89837 6.77014 6.94284 6.75928C6.98731 6.74842 7.0339 6.74997 7.07754 6.76378L29.0663 14.9213H29.0813C29.1309 14.938 29.1739 14.9699 29.2044 15.0124C29.2349 15.0548 29.2514 15.1058 29.2514 15.1582C29.2514 15.2105 29.2349 15.2615 29.2044 15.304C29.1739 15.3464 29.1309 15.3783 29.0813 15.395V15.4Z" fill="white"/>
</svg>
