<svg width="32" height="32" viewBox="0 0 32 32" fill="none" xmlns="http://www.w3.org/2000/svg">
<path d="M23.53 8.46999C23.6704 8.61061 23.7493 8.80124 23.7493 8.99999C23.7493 9.19874 23.6704 9.38936 23.53 9.52999L21.53 11.53C21.3878 11.6625 21.1997 11.7346 21.0054 11.7312C20.8111 11.7277 20.6257 11.649 20.4883 11.5116C20.3509 11.3742 20.2722 11.1888 20.2688 10.9945C20.2653 10.8002 20.3375 10.6122 20.4699 10.47L22.4699 8.46999C22.6106 8.32954 22.8012 8.25065 23 8.25065C23.1987 8.25065 23.3893 8.32954 23.53 8.46999ZM27.75 8.99999C27.7517 9.62403 27.6297 10.2422 27.3909 10.8188C27.1521 11.3953 26.8012 11.9187 26.3587 12.3587L23.3587 15.3587C23.2489 15.4684 23.1079 15.5413 22.955 15.5675C16.4375 16.6925 5.6387 27.4225 5.52995 27.53C5.4648 27.5961 5.38757 27.6492 5.30245 27.6862C5.20701 27.7279 5.10407 27.7495 4.99995 27.75C4.85171 27.7499 4.70683 27.7058 4.58362 27.6234C4.4604 27.541 4.36438 27.4239 4.30766 27.2869C4.25095 27.15 4.2361 26.9993 4.26499 26.8539C4.29387 26.7085 4.36519 26.5749 4.46995 26.47C4.64495 26.2937 15.3175 15.54 16.4312 9.04624C16.4573 8.8933 16.5303 8.75224 16.64 8.64249L19.64 5.64249C20.3041 4.97784 21.1505 4.5251 22.072 4.34153C22.9935 4.15796 23.9487 4.25182 24.8169 4.61124C25.685 4.97065 26.4271 5.57946 26.9492 6.36067C27.4713 7.14188 27.7499 8.06038 27.75 8.99999ZM26.25 8.99999C26.2497 8.35737 26.059 7.72925 25.7018 7.19501C25.3447 6.66077 24.8372 6.24439 24.2435 5.99851C23.6498 5.75262 22.9965 5.68826 22.3662 5.81356C21.736 5.93887 21.157 6.24821 20.7024 6.70249L17.8662 9.53749C17.3487 12.1362 15.5387 15.4887 12.475 19.525C16.5112 16.4612 19.8637 14.65 22.4625 14.1337L25.2975 11.2975C25.6004 10.9967 25.8407 10.6387 26.0042 10.2443C26.1677 9.84989 26.2512 9.42694 26.25 8.99999Z" fill="white"/>
</svg>
