<svg width="32" height="32" viewBox="0 0 32 32" fill="none" xmlns="http://www.w3.org/2000/svg">
<path d="M29 14.25H16.75V10.75H18C18.4641 10.75 18.9092 10.5656 19.2374 10.2374C19.5656 9.90925 19.75 9.46413 19.75 9V5C19.75 4.53587 19.5656 4.09075 19.2374 3.76256C18.9092 3.43437 18.4641 3.25 18 3.25H14C13.5359 3.25 13.0908 3.43437 12.7626 3.76256C12.4344 4.09075 12.25 4.53587 12.25 5V9C12.25 9.46413 12.4344 9.90925 12.7626 10.2374C13.0908 10.5656 13.5359 10.75 14 10.75H15.25V14.25H3C2.80109 14.25 2.61032 14.329 2.46967 14.4697C2.32902 14.6103 2.25 14.8011 2.25 15C2.25 15.1989 2.32902 15.3897 2.46967 15.5303C2.61032 15.671 2.80109 15.75 3 15.75H7.25V20.25H6C5.53587 20.25 5.09075 20.4344 4.76256 20.7626C4.43437 21.0908 4.25 21.5359 4.25 22V26C4.25 26.4641 4.43437 26.9092 4.76256 27.2374C5.09075 27.5656 5.53587 27.75 6 27.75H10C10.4641 27.75 10.9092 27.5656 11.2374 27.2374C11.5656 26.9092 11.75 26.4641 11.75 26V22C11.75 21.5359 11.5656 21.0908 11.2374 20.7626C10.9092 20.4344 10.4641 20.25 10 20.25H8.75V15.75H23.25V20.25H22C21.5359 20.25 21.0908 20.4344 20.7626 20.7626C20.4344 21.0908 20.25 21.5359 20.25 22V26C20.25 26.4641 20.4344 26.9092 20.7626 27.2374C21.0908 27.5656 21.5359 27.75 22 27.75H26C26.4641 27.75 26.9092 27.5656 27.2374 27.2374C27.5656 26.9092 27.75 26.4641 27.75 26V22C27.75 21.5359 27.5656 21.0908 27.2374 20.7626C26.9092 20.4344 26.4641 20.25 26 20.25H24.75V15.75H29C29.1989 15.75 29.3897 15.671 29.5303 15.5303C29.671 15.3897 29.75 15.1989 29.75 15C29.75 14.8011 29.671 14.6103 29.5303 14.4697C29.3897 14.329 29.1989 14.25 29 14.25ZM13.75 9V5C13.75 4.9337 13.7763 4.87011 13.8232 4.82322C13.8701 4.77634 13.9337 4.75 14 4.75H18C18.0663 4.75 18.1299 4.77634 18.1768 4.82322C18.2237 4.87011 18.25 4.9337 18.25 5V9C18.25 9.0663 18.2237 9.12989 18.1768 9.17678C18.1299 9.22366 18.0663 9.25 18 9.25H14C13.9337 9.25 13.8701 9.22366 13.8232 9.17678C13.7763 9.12989 13.75 9.0663 13.75 9ZM10.25 22V26C10.25 26.0663 10.2237 26.1299 10.1768 26.1768C10.1299 26.2237 10.0663 26.25 10 26.25H6C5.9337 26.25 5.87011 26.2237 5.82322 26.1768C5.77634 26.1299 5.75 26.0663 5.75 26V22C5.75 21.9337 5.77634 21.8701 5.82322 21.8232C5.87011 21.7763 5.9337 21.75 6 21.75H10C10.0663 21.75 10.1299 21.7763 10.1768 21.8232C10.2237 21.8701 10.25 21.9337 10.25 22ZM26.25 22V26C26.25 26.0663 26.2237 26.1299 26.1768 26.1768C26.1299 26.2237 26.0663 26.25 26 26.25H22C21.9337 26.25 21.8701 26.2237 21.8232 26.1768C21.7763 26.1299 21.75 26.0663 21.75 26V22C21.75 21.9337 21.7763 21.8701 21.8232 21.8232C21.8701 21.7763 21.9337 21.75 22 21.75H26C26.0663 21.75 26.1299 21.7763 26.1768 21.8232C26.2237 21.8701 26.25 21.9337 26.25 22Z" fill="white"/>
</svg>
