<svg width="32" height="32" viewBox="0 0 32 32" fill="none" xmlns="http://www.w3.org/2000/svg">
<path d="M12.25 6.75V5C12.25 4.53587 12.4344 4.09075 12.7626 3.76256C13.0908 3.43437 13.5359 3.25 14 3.25H18C18.4641 3.25 18.9092 3.43437 19.2374 3.76256C19.5656 4.09075 19.75 4.53587 19.75 5V9C19.75 9.46413 19.5656 9.90925 19.2374 10.2374C18.9092 10.5656 18.4641 10.75 18 10.75H15.9513C15.7523 10.75 15.5616 10.671 15.4209 10.5303C15.2803 10.3897 15.2013 10.1989 15.2013 10C15.2013 9.80109 15.2803 9.61032 15.4209 9.46967C15.5616 9.32902 15.7523 9.25 15.9513 9.25H18C18.0663 9.25 18.1299 9.22366 18.1768 9.17678C18.2237 9.12989 18.25 9.0663 18.25 9V5C18.25 4.9337 18.2237 4.87011 18.1768 4.82322C18.1299 4.77634 18.0663 4.75 18 4.75H14C13.9337 4.75 13.8701 4.77634 13.8232 4.82322C13.7763 4.87011 13.75 4.9337 13.75 5V6.75C13.75 6.94891 13.671 7.13968 13.5303 7.28033C13.3897 7.42098 13.1989 7.5 13 7.5C12.8011 7.5 12.6103 7.42098 12.4697 7.28033C12.329 7.13968 12.25 6.94891 12.25 6.75ZM26.555 26.5C26.6889 26.6472 26.7589 26.8416 26.7495 27.0404C26.7402 27.2391 26.6522 27.4261 26.505 27.56C26.3578 27.6939 26.1634 27.7639 25.9646 27.7545C25.7659 27.7452 25.5789 27.6572 25.445 27.51L14.7587 15.76H8.75V20.26H10C10.4641 20.26 10.9092 20.4444 11.2374 20.7726C11.5656 21.1008 11.75 21.5459 11.75 22.01V26.01C11.75 26.4741 11.5656 26.9192 11.2374 27.2474C10.9092 27.5756 10.4641 27.76 10 27.76H6C5.53587 27.76 5.09075 27.5756 4.76256 27.2474C4.43437 26.9192 4.25 26.4741 4.25 26.01V22C4.25 21.5359 4.43437 21.0908 4.76256 20.7626C5.09075 20.4344 5.53587 20.25 6 20.25H7.25V15.75H3C2.80109 15.75 2.61032 15.671 2.46967 15.5303C2.32902 15.3897 2.25 15.1989 2.25 15C2.25 14.8011 2.32902 14.6103 2.46967 14.4697C2.61032 14.329 2.80109 14.25 3 14.25H13.395L5.445 5.5C5.33253 5.35019 5.28019 5.16371 5.29828 4.97726C5.31638 4.7908 5.40359 4.61787 5.54277 4.49248C5.68195 4.36709 5.86302 4.29833 6.05035 4.29972C6.23767 4.30111 6.4177 4.37256 6.555 4.5L26.555 26.5ZM10 21.75H6C5.9337 21.75 5.87011 21.7763 5.82322 21.8232C5.77634 21.8701 5.75 21.9337 5.75 22V26C5.75 26.0663 5.77634 26.1299 5.82322 26.1768C5.87011 26.2237 5.9337 26.25 6 26.25H10C10.0663 26.25 10.1299 26.2237 10.1768 26.1768C10.2237 26.1299 10.25 26.0663 10.25 26V22C10.25 21.9337 10.2237 21.8701 10.1768 21.8232C10.1299 21.7763 10.0663 21.75 10 21.75ZM29 14.25H20.5C20.3011 14.25 20.1103 14.329 19.9697 14.4697C19.829 14.6103 19.75 14.8011 19.75 15C19.75 15.1989 19.829 15.3897 19.9697 15.5303C20.1103 15.671 20.3011 15.75 20.5 15.75H23.25V18.8538C23.25 19.0527 23.329 19.2434 23.4697 19.3841C23.6103 19.5247 23.8011 19.6038 24 19.6038C24.1989 19.6038 24.3897 19.5247 24.5303 19.3841C24.671 19.2434 24.75 19.0527 24.75 18.8538V15.75H29C29.1989 15.75 29.3897 15.671 29.5303 15.5303C29.671 15.3897 29.75 15.1989 29.75 15C29.75 14.8011 29.671 14.6103 29.5303 14.4697C29.3897 14.329 29.1989 14.25 29 14.25Z" fill="white"/>
</svg>
