<svg width="32" height="32" viewBox="0 0 32 32" fill="none" xmlns="http://www.w3.org/2000/svg">
<path d="M26.53 16.53L16.53 26.53C16.4614 26.6037 16.3786 26.6628 16.2866 26.7038C16.1946 26.7448 16.0953 26.7668 15.9946 26.7686C15.8939 26.7704 15.7938 26.7519 15.7004 26.7141C15.607 26.6764 15.5222 26.6203 15.451 26.549C15.3798 26.4778 15.3236 26.393 15.2859 26.2996C15.2482 26.2062 15.2297 26.1062 15.2314 26.0055C15.2332 25.9048 15.2553 25.8055 15.2963 25.7135C15.3372 25.6215 15.3963 25.5387 15.47 25.47L25.47 15.47C25.5387 15.3963 25.6215 15.3372 25.7135 15.2962C25.8055 15.2552 25.9048 15.2332 26.0055 15.2314C26.1062 15.2296 26.2062 15.2482 26.2996 15.2859C26.393 15.3236 26.4778 15.3798 26.5491 15.451C26.6203 15.5222 26.6764 15.607 26.7142 15.7004C26.7519 15.7938 26.7704 15.8938 26.7686 15.9945C26.7668 16.0952 26.7448 16.1946 26.7038 16.2866C26.6628 16.3785 26.6037 16.4614 26.53 16.53ZM24.53 4.47001C24.3894 4.32956 24.1988 4.25067 24 4.25067C23.8013 4.25067 23.6107 4.32956 23.47 4.47001L4.47003 23.47C4.39634 23.5387 4.33724 23.6215 4.29625 23.7135C4.25526 23.8055 4.23322 23.9048 4.23144 24.0055C4.22966 24.1062 4.24819 24.2062 4.28591 24.2996C4.32363 24.393 4.37977 24.4778 4.45099 24.549C4.52221 24.6203 4.60705 24.6764 4.70043 24.7141C4.79382 24.7519 4.89385 24.7704 4.99455 24.7686C5.09526 24.7668 5.19457 24.7448 5.28657 24.7038C5.37857 24.6628 5.46137 24.6037 5.53003 24.53L24.53 5.53001C24.6705 5.38939 24.7494 5.19876 24.7494 5.00001C24.7494 4.80126 24.6705 4.61064 24.53 4.47001Z" fill="white"/>
</svg>
