<svg width="32" height="32" viewBox="0 0 32 32" fill="none" xmlns="http://www.w3.org/2000/svg">
<path d="M27.75 20C27.75 20.1989 27.671 20.3897 27.5303 20.5303C27.3897 20.671 27.1989 20.75 27 20.75H12.695L6.555 27.5C6.49248 27.5833 6.4133 27.6526 6.32252 27.7036C6.23173 27.7546 6.13131 27.7862 6.02767 27.7962C5.92402 27.8063 5.81942 27.7946 5.72052 27.762C5.62162 27.7295 5.53059 27.6766 5.45322 27.6069C5.37586 27.5372 5.31385 27.4522 5.27116 27.3572C5.22847 27.2622 5.20602 27.1594 5.20525 27.0553C5.20447 26.9512 5.22539 26.848 5.26667 26.7524C5.30795 26.6568 5.36868 26.5709 5.445 26.5L10.6687 20.75H5C4.80109 20.75 4.61032 20.671 4.46967 20.5303C4.32902 20.3897 4.25 20.1989 4.25 20C4.25 19.8011 4.32902 19.6103 4.46967 19.4697C4.61032 19.329 4.80109 19.25 5 19.25H12.0312L17.9412 12.75H5C4.80109 12.75 4.61032 12.671 4.46967 12.5303C4.32902 12.3897 4.25 12.1989 4.25 12C4.25 11.8011 4.32902 11.6103 4.46967 11.4697C4.61032 11.329 4.80109 11.25 5 11.25H19.305L25.445 4.50002C25.5075 4.41674 25.5867 4.3474 25.6775 4.29641C25.7683 4.24541 25.8687 4.21388 25.9723 4.20382C26.076 4.19377 26.1806 4.2054 26.2795 4.23799C26.3784 4.27057 26.4694 4.3234 26.5468 4.3931C26.6241 4.46279 26.6861 4.54784 26.7288 4.64282C26.7715 4.73779 26.794 4.84062 26.7948 4.94475C26.7955 5.04887 26.7746 5.15202 26.7333 5.24762C26.6921 5.34322 26.6313 5.42918 26.555 5.50002L21.3312 11.25H27C27.1989 11.25 27.3897 11.329 27.5303 11.4697C27.671 11.6103 27.75 11.8011 27.75 12C27.75 12.1989 27.671 12.3897 27.5303 12.5303C27.3897 12.671 27.1989 12.75 27 12.75H19.9688L14.0588 19.25H27C27.1989 19.25 27.3897 19.329 27.5303 19.4697C27.671 19.6103 27.75 19.8011 27.75 20Z" fill="white"/>
</svg>
