<svg width="32" height="32" viewBox="0 0 32 32" fill="none" xmlns="http://www.w3.org/2000/svg">
<path d="M28.53 7.47001L24.53 3.47001C24.3894 3.32956 24.1988 3.25067 24 3.25067C23.8012 3.25067 23.6106 3.32956 23.47 3.47001L11.47 15.47C11.3293 15.6105 11.2502 15.8012 11.25 16V20C11.25 20.1989 11.329 20.3897 11.4697 20.5303C11.6103 20.671 11.8011 20.75 12 20.75H16C16.1988 20.7498 16.3895 20.6707 16.53 20.53L28.53 8.53001C28.6705 8.38939 28.7493 8.19876 28.7493 8.00001C28.7493 7.80126 28.6705 7.61064 28.53 7.47001ZM15.6888 19.25H12.75V16.3113L21 8.06126L23.9387 11L15.6888 19.25ZM25 9.93876L22.0613 7.00001L24 5.06126L26.9387 8.00001L25 9.93876ZM27.75 16V26C27.75 26.4641 27.5656 26.9093 27.2374 27.2374C26.9092 27.5656 26.4641 27.75 26 27.75H6C5.53587 27.75 5.09075 27.5656 4.76256 27.2374C4.43437 26.9093 4.25 26.4641 4.25 26V6.00001C4.25 5.53588 4.43437 5.09076 4.76256 4.76257C5.09075 4.43439 5.53587 4.25001 6 4.25001H16C16.1989 4.25001 16.3897 4.32903 16.5303 4.46968C16.671 4.61033 16.75 4.8011 16.75 5.00001C16.75 5.19892 16.671 5.38969 16.5303 5.53034C16.3897 5.67099 16.1989 5.75001 16 5.75001H6C5.9337 5.75001 5.87011 5.77635 5.82322 5.82323C5.77634 5.87012 5.75 5.93371 5.75 6.00001V26C5.75 26.0663 5.77634 26.1299 5.82322 26.1768C5.87011 26.2237 5.9337 26.25 6 26.25H26C26.0663 26.25 26.1299 26.2237 26.1768 26.1768C26.2237 26.1299 26.25 26.0663 26.25 26V16C26.25 15.8011 26.329 15.6103 26.4697 15.4697C26.6103 15.329 26.8011 15.25 27 15.25C27.1989 15.25 27.3897 15.329 27.5303 15.4697C27.671 15.6103 27.75 15.8011 27.75 16Z" fill="white"/>
</svg>
