<svg width="32" height="32" viewBox="0 0 32 32" fill="none" xmlns="http://www.w3.org/2000/svg">
<path d="M25.9999 24.25H9.51365L12.6949 20.75H18.9999C20.5162 20.7484 21.9988 20.302 23.2639 19.4661C24.529 18.6302 25.5211 17.4416 26.1174 16.0474C26.7136 14.6532 26.8877 13.1148 26.6182 11.6226C26.3487 10.1304 25.6474 8.75005 24.6012 7.65252L26.5549 5.50002C26.6312 5.42918 26.692 5.34322 26.7332 5.24762C26.7745 5.15202 26.7954 5.04887 26.7947 4.94475C26.7939 4.84062 26.7714 4.73779 26.7287 4.64282C26.686 4.54784 26.624 4.46279 26.5467 4.3931C26.4693 4.3234 26.3783 4.27057 26.2794 4.23799C26.1805 4.2054 26.0759 4.19377 25.9722 4.20382C25.8686 4.21388 25.7682 4.24541 25.6774 4.29641C25.5866 4.3474 25.5074 4.41674 25.4449 4.50002L23.4662 6.67252C22.1614 5.74581 20.6003 5.2486 18.9999 5.25002H6.9999C6.80099 5.25002 6.61023 5.32904 6.46957 5.46969C6.32892 5.61034 6.2499 5.80111 6.2499 6.00002C6.2499 6.19893 6.32892 6.3897 6.46957 6.53035C6.61023 6.671 6.80099 6.75002 6.9999 6.75002H18.9999C20.2271 6.74863 21.4272 7.11097 22.4487 7.79127L12.0312 19.25H6.9999C6.80099 19.25 6.61023 19.329 6.46957 19.4697C6.32892 19.6103 6.2499 19.8011 6.2499 20C6.2499 20.1989 6.32892 20.3897 6.46957 20.5303C6.61023 20.671 6.80099 20.75 6.9999 20.75H10.6687L5.4449 26.5C5.33243 26.6498 5.28009 26.8363 5.29819 27.0228C5.31628 27.2092 5.4035 27.3822 5.54268 27.5075C5.68186 27.6329 5.86292 27.7017 6.05025 27.7003C6.23758 27.6989 6.4176 27.6275 6.5549 27.5L8.1499 25.75H25.9999C26.1988 25.75 26.3896 25.671 26.5302 25.5303C26.6709 25.3897 26.7499 25.1989 26.7499 25C26.7499 24.8011 26.6709 24.6103 26.5302 24.4697C26.3896 24.329 26.1988 24.25 25.9999 24.25ZM23.5912 8.76502C24.4137 9.65778 24.9585 10.7708 25.1589 11.968C25.3594 13.1653 25.2068 14.395 24.7199 15.507C24.233 16.619 23.4327 17.5651 22.417 18.2298C21.4012 18.8945 20.2138 19.249 18.9999 19.25H14.0587L23.5912 8.76502Z" fill="white"/>
</svg>
