<svg width="32" height="32" viewBox="0 0 32 32" fill="none" xmlns="http://www.w3.org/2000/svg">
<path d="M26.4999 4.44503C26.427 4.37867 26.3418 4.32732 26.2491 4.29391C26.1564 4.26051 26.058 4.2457 25.9595 4.25034C25.8611 4.25499 25.7645 4.27899 25.6753 4.32097C25.5862 4.36296 25.5062 4.4221 25.4399 4.49503L24.7536 5.24503H15.9999C13.8929 5.24228 11.8317 5.85926 10.0727 7.01916C8.31378 8.17906 6.9348 9.83065 6.10744 11.7684C5.28007 13.7061 5.04086 15.8443 5.41958 17.917C5.7983 19.9896 6.77822 21.9051 8.23738 23.425L5.44488 26.5C5.33241 26.6498 5.28007 26.8363 5.29816 27.0228C5.31626 27.2092 5.40347 27.3822 5.54266 27.5075C5.68184 27.6329 5.8629 27.7017 6.05023 27.7003C6.23755 27.6989 6.41758 27.6275 6.55488 27.5L9.34613 24.4288C11.2379 25.9323 13.5834 26.7506 15.9999 26.75H24.9999C25.1988 26.75 25.3896 26.671 25.5302 26.5304C25.6709 26.3897 25.7499 26.1989 25.7499 26C25.7499 25.8011 25.6709 25.6103 25.5302 25.4697C25.3896 25.329 25.1988 25.25 24.9999 25.25H15.9999C13.9573 25.2513 11.9723 24.5732 10.3574 23.3225L26.5549 5.50003C26.6867 5.35249 26.755 5.15881 26.7446 4.9612C26.7343 4.76359 26.6464 4.57806 26.4999 4.44503ZM6.74988 16C6.75286 13.5477 7.72836 11.1966 9.46243 9.46258C11.1965 7.72851 13.5475 6.75301 15.9999 6.75003H23.3949L9.24988 22.3125C7.64329 20.6034 6.74917 18.3457 6.74988 16Z" fill="white"/>
</svg>
