<svg width="32" height="32" viewBox="0 0 32 32" fill="none" xmlns="http://www.w3.org/2000/svg">
<path d="M19 4.25H22C22.3315 4.25 22.6495 4.1183 22.8839 3.88388C23.1183 3.64946 23.25 3.33152 23.25 3C23.25 2.80109 23.329 2.61032 23.4697 2.46967C23.6103 2.32902 23.8011 2.25 24 2.25C24.1989 2.25 24.3897 2.32902 24.5303 2.46967C24.671 2.61032 24.75 2.80109 24.75 3C24.75 3.72935 24.4603 4.42882 23.9445 4.94454C23.4288 5.46027 22.7293 5.75 22 5.75H19C18.6685 5.75 18.3505 5.8817 18.1161 6.11612C17.8817 6.35054 17.75 6.66848 17.75 7C17.75 7.19891 17.671 7.38968 17.5303 7.53033C17.3897 7.67098 17.1989 7.75 17 7.75C16.8011 7.75 16.6103 7.67098 16.4697 7.53033C16.329 7.38968 16.25 7.19891 16.25 7C16.25 6.27065 16.5397 5.57118 17.0555 5.05546C17.5712 4.53973 18.2707 4.25 19 4.25ZM13 7.75C13.1989 7.75 13.3897 7.67098 13.5303 7.53033C13.671 7.38968 13.75 7.19891 13.75 7C13.75 5.60761 14.3031 4.27226 15.2877 3.28769C16.2723 2.30312 17.6076 1.75 19 1.75H20C20.1989 1.75 20.3897 1.67098 20.5303 1.53033C20.671 1.38968 20.75 1.19891 20.75 1C20.75 0.801088 20.671 0.610322 20.5303 0.46967C20.3897 0.329018 20.1989 0.25 20 0.25H19C17.2104 0.251985 15.4947 0.963781 14.2292 2.22922C12.9638 3.49466 12.252 5.2104 12.25 7C12.25 7.19891 12.329 7.38968 12.4697 7.53033C12.6103 7.67098 12.8011 7.75 13 7.75ZM30.75 27C30.75 27.1989 30.671 27.3897 30.5303 27.5303C30.3897 27.671 30.1989 27.75 30 27.75H2C1.80109 27.75 1.61032 27.671 1.46967 27.5303C1.32902 27.3897 1.25 27.1989 1.25 27C1.25 26.8011 1.32902 26.6103 1.46967 26.4697C1.61032 26.329 1.80109 26.25 2 26.25H4.25C6 22.75 8.025 17.54 8.235 11.9263C8.25155 11.4748 8.443 11.0475 8.76888 10.7347C9.09477 10.4219 9.52953 10.2481 9.98125 10.25H21.0225C21.4733 10.2495 21.9069 10.4231 22.2329 10.7344C22.5589 11.0458 22.7522 11.4709 22.7725 11.9213C23.04 18.0563 25.865 23.75 27.285 26.25H30C30.1989 26.25 30.3897 26.329 30.5303 26.4697C30.671 26.6103 30.75 26.8011 30.75 27ZM21.0225 11.75H18.75C18.7575 11.8075 18.7625 11.8675 18.765 11.9263C18.9775 17.54 21 22.75 22.75 26.25H25.5688C24.0138 23.3625 21.5287 17.8875 21.2687 11.9862C21.2653 11.923 21.2379 11.8634 21.1922 11.8196C21.1465 11.7757 21.0858 11.7509 21.0225 11.75ZM5.9175 26.25H21.0825C19.35 22.6325 17.475 17.51 17.2687 11.9825C17.2643 11.9193 17.236 11.8601 17.1896 11.8169C17.1432 11.7738 17.0821 11.7498 17.0187 11.75H9.98125C9.91787 11.7498 9.8568 11.7738 9.81038 11.8169C9.76397 11.8601 9.73569 11.9193 9.73125 11.9825C9.525 17.51 7.65 22.6325 5.9175 26.25Z" fill="white"/>
</svg>
