<svg width="32" height="32" viewBox="0 0 32 32" fill="none" xmlns="http://www.w3.org/2000/svg">
<path d="M21.75 26C21.75 26.1989 21.671 26.3897 21.5303 26.5303C21.3897 26.671 21.1989 26.75 21 26.75H11C10.8607 26.75 10.7242 26.7112 10.6057 26.638C10.4872 26.5647 10.3915 26.46 10.3292 26.3354C10.2669 26.2108 10.2405 26.0713 10.253 25.9326C10.2655 25.7939 10.3164 25.6614 10.4 25.55L19.4 13.56C19.9062 12.8887 20.2019 12.0824 20.2498 11.2431C20.2977 10.4037 20.0955 9.56904 19.6689 8.84459C19.2423 8.12015 18.6105 7.53849 17.8533 7.17321C17.0961 6.80793 16.2475 6.67543 15.415 6.79247C14.6949 6.89349 14.0126 7.17703 13.4331 7.61615C12.8535 8.05526 12.3959 8.63534 12.1038 9.30122C12.024 9.48356 11.8751 9.62675 11.6898 9.69931C11.5045 9.77186 11.298 9.76783 11.1156 9.6881C10.9333 9.60837 10.7901 9.45947 10.7175 9.27416C10.645 9.08885 10.649 8.88231 10.7288 8.69997C10.9094 8.28834 11.1371 7.89907 11.4075 7.53997C12.3253 6.32196 13.6894 5.51844 15.1996 5.30618C16.7099 5.09391 18.2426 5.49028 19.4606 6.4081C20.6786 7.32591 21.4822 8.68999 21.6944 10.2002C21.9067 11.7105 21.5103 13.2432 20.5925 14.4612L12.5 25.25H21C21.1989 25.25 21.3897 25.329 21.5303 25.4696C21.671 25.6103 21.75 25.8011 21.75 26Z" fill="white"/>
</svg>
