<svg width="32" height="32" viewBox="0 0 32 32" fill="none" xmlns="http://www.w3.org/2000/svg">
<path d="M21.7499 20C21.75 21.303 21.3728 22.5782 20.664 23.6717C19.9553 24.7651 18.9452 25.63 17.7557 26.162C16.5661 26.6939 15.2481 26.8702 13.9606 26.6696C12.6731 26.469 11.4712 25.8999 10.4999 25.0312C10.4239 24.9663 10.3617 24.8869 10.3168 24.7976C10.272 24.7083 10.2454 24.6109 10.2387 24.5112C10.2321 24.4114 10.2454 24.3114 10.2779 24.2169C10.3104 24.1224 10.3615 24.0353 10.4282 23.9608C10.4948 23.8864 10.5757 23.826 10.666 23.7832C10.7563 23.7404 10.8543 23.7161 10.9541 23.7117C11.054 23.7073 11.1537 23.7229 11.2474 23.7576C11.3412 23.7923 11.427 23.8454 11.4999 23.9137C12.1343 24.4809 12.897 24.8854 13.7224 25.0924C14.5478 25.2993 15.4111 25.3025 16.238 25.1018C17.0649 24.901 17.8306 24.5022 18.4692 23.9398C19.1078 23.3773 19.6001 22.6681 19.9037 21.8732C20.2073 21.0783 20.3131 20.2215 20.2121 19.3765C20.111 18.5316 19.8061 17.7239 19.3236 17.023C18.8411 16.3221 18.1954 15.749 17.4422 15.353C16.689 14.9571 15.8509 14.7501 14.9999 14.75C14.8607 14.75 14.7241 14.7112 14.6056 14.638C14.4872 14.5648 14.3914 14.46 14.3291 14.3354C14.2668 14.2108 14.2405 14.0714 14.253 13.9326C14.2655 13.7939 14.3164 13.6614 14.3999 13.55L19.4999 6.75H10.9999C10.801 6.75 10.6103 6.67098 10.4696 6.53033C10.329 6.38968 10.2499 6.19891 10.2499 6C10.2499 5.80109 10.329 5.61032 10.4696 5.46967C10.6103 5.32902 10.801 5.25 10.9999 5.25H20.9999C21.1392 5.25 21.2758 5.28879 21.3942 5.36201C21.5127 5.43524 21.6085 5.54001 21.6708 5.66459C21.733 5.78917 21.7594 5.92863 21.7469 6.06735C21.7344 6.20608 21.6835 6.33857 21.5999 6.45L16.3912 13.3938C17.9057 13.7151 19.264 14.5464 20.2393 15.7488C21.2147 16.9512 21.7479 18.4518 21.7499 20Z" fill="white"/>
</svg>
