<svg width="32" height="32" viewBox="0 0 32 32" fill="none" xmlns="http://www.w3.org/2000/svg">
<path d="M23 20.25H20.75V6C20.7503 5.84443 20.7021 5.69264 20.6122 5.56566C20.5223 5.43868 20.3951 5.3428 20.2483 5.29131C20.1015 5.23981 19.9423 5.23524 19.7928 5.27823C19.6433 5.32122 19.5108 5.40964 19.4138 5.53125L7.4138 20.5313C7.32545 20.6416 7.27008 20.7747 7.25408 20.9151C7.23809 21.0556 7.26212 21.1977 7.3234 21.3251C7.38468 21.4525 7.48071 21.56 7.60043 21.6352C7.72015 21.7103 7.85868 21.7501 8.00005 21.75H19.25V26C19.25 26.1989 19.3291 26.3897 19.4697 26.5303C19.6104 26.671 19.8011 26.75 20 26.75C20.199 26.75 20.3897 26.671 20.5304 26.5303C20.671 26.3897 20.75 26.1989 20.75 26V21.75H23C23.199 21.75 23.3897 21.671 23.5304 21.5303C23.671 21.3897 23.75 21.1989 23.75 21C23.75 20.8011 23.671 20.6103 23.5304 20.4697C23.3897 20.329 23.199 20.25 23 20.25ZM19.25 20.25H9.56005L19.25 8.1375V20.25Z" fill="white"/>
</svg>
