<svg width="32" height="32" viewBox="0 0 32 32" fill="none" xmlns="http://www.w3.org/2000/svg">
<path d="M21.7499 20C21.75 21.303 21.3728 22.5782 20.664 23.6717C19.9553 24.7651 18.9452 25.63 17.7557 26.162C16.5661 26.6939 15.2481 26.8702 13.9606 26.6696C12.6731 26.469 11.4712 25.8999 10.4999 25.0312C10.4239 24.9663 10.3617 24.8869 10.3168 24.7976C10.272 24.7083 10.2454 24.6109 10.2387 24.5112C10.2321 24.4114 10.2454 24.3114 10.2779 24.2169C10.3104 24.1224 10.3615 24.0353 10.4282 23.9608C10.4948 23.8864 10.5757 23.826 10.666 23.7832C10.7563 23.7404 10.8543 23.7161 10.9541 23.7117C11.054 23.7073 11.1537 23.7229 11.2474 23.7576C11.3412 23.7923 11.427 23.8454 11.4999 23.9137C12.2511 24.5856 13.1798 25.027 14.1751 25.1853C15.1704 25.3436 16.1903 25.2121 17.1128 24.8064C18.0354 24.4008 18.8217 23.7382 19.3779 22.8977C19.9341 22.0573 20.2366 21.0745 20.2493 20.0668C20.2621 19.0591 19.9845 18.069 19.4497 17.2147C18.915 16.3605 18.1456 15.6782 17.2336 15.2494C16.3216 14.8206 15.3054 14.6634 14.3064 14.7965C13.3074 14.9295 12.3679 15.3474 11.5999 16C11.4814 16.1025 11.3337 16.1652 11.1777 16.1795C11.0217 16.1937 10.8651 16.1587 10.73 16.0794C10.5948 16.0001 10.4879 15.8805 10.4242 15.7374C10.3606 15.5942 10.3433 15.4347 10.3749 15.2812L12.2649 5.8525C12.299 5.68263 12.3908 5.5298 12.5248 5.41997C12.6588 5.31014 12.8267 5.25008 12.9999 5.25H20.9999C21.1988 5.25 21.3896 5.32902 21.5303 5.46967C21.6709 5.61032 21.7499 5.80109 21.7499 6C21.7499 6.19891 21.6709 6.38968 21.5303 6.53033C21.3896 6.67098 21.1988 6.75 20.9999 6.75H13.6149L12.1924 13.8612C13.2208 13.3909 14.3508 13.1865 15.4787 13.2667C16.6066 13.3469 17.6964 13.7092 18.6478 14.3203C19.5992 14.9314 20.3819 15.7717 20.9239 16.7641C21.466 17.7565 21.75 18.8692 21.7499 20Z" fill="white"/>
</svg>
