<svg width="32" height="32" viewBox="0 0 32 32" fill="none" xmlns="http://www.w3.org/2000/svg">
<path d="M26 4.25H6C5.53587 4.25 5.09075 4.43437 4.76256 4.76256C4.43437 5.09075 4.25 5.53587 4.25 6V26C4.25 26.4641 4.43437 26.9092 4.76256 27.2374C5.09075 27.5656 5.53587 27.75 6 27.75H26C26.4641 27.75 26.9092 27.5656 27.2374 27.2374C27.5656 26.9092 27.75 26.4641 27.75 26V6C27.75 5.53587 27.5656 5.09075 27.2374 4.76256C26.9092 4.43437 26.4641 4.25 26 4.25ZM26.25 26C26.25 26.0663 26.2237 26.1299 26.1768 26.1768C26.1299 26.2237 26.0663 26.25 26 26.25H6C5.9337 26.25 5.87011 26.2237 5.82322 26.1768C5.77634 26.1299 5.75 26.0663 5.75 26V6C5.75 5.9337 5.77634 5.87011 5.82322 5.82322C5.87011 5.77634 5.9337 5.75 6 5.75H26C26.0663 5.75 26.1299 5.77634 26.1768 5.82322C26.2237 5.87011 26.25 5.9337 26.25 6V26ZM20 18.25H18.75V10C18.75 9.84363 18.7012 9.69116 18.6103 9.56391C18.5194 9.43667 18.391 9.34101 18.2431 9.29032C18.0952 9.23964 17.9351 9.23646 17.7853 9.28122C17.6355 9.32599 17.5034 9.41647 17.4075 9.54L10.4075 18.54C10.3214 18.6509 10.2682 18.7837 10.2538 18.9233C10.2394 19.0629 10.2646 19.2038 10.3263 19.3298C10.388 19.4559 10.4839 19.5621 10.603 19.6364C10.7221 19.7107 10.8596 19.75 11 19.75H17.25V22C17.25 22.1989 17.329 22.3897 17.4697 22.5303C17.6103 22.671 17.8011 22.75 18 22.75C18.1989 22.75 18.3897 22.671 18.5303 22.5303C18.671 22.3897 18.75 22.1989 18.75 22V19.75H20C20.1989 19.75 20.3897 19.671 20.5303 19.5303C20.671 19.3897 20.75 19.1989 20.75 19C20.75 18.8011 20.671 18.6103 20.5303 18.4697C20.3897 18.329 20.1989 18.25 20 18.25ZM17.25 18.25H12.5337L17.25 12.1862V18.25Z" fill="white"/>
</svg>
