<svg width="32" height="32" viewBox="0 0 32 32" fill="none" xmlns="http://www.w3.org/2000/svg">
<path d="M17.75 6V26C17.75 26.1989 17.6709 26.3897 17.5303 26.5303C17.3896 26.671 17.1989 26.75 17 26.75C16.801 26.75 16.6103 26.671 16.4696 26.5303C16.329 26.3897 16.25 26.1989 16.25 26V7.325L12.3862 9.6425C12.2156 9.74494 12.0114 9.77543 11.8183 9.72726C11.6253 9.67908 11.4593 9.5562 11.3568 9.38563C11.2544 9.21506 11.2239 9.01079 11.2721 8.81774C11.3203 8.62469 11.4431 8.45869 11.6137 8.35625L16.6137 5.35625C16.7276 5.28784 16.8576 5.2509 16.9904 5.24921C17.1232 5.24751 17.2541 5.28112 17.3697 5.3466C17.4852 5.41208 17.5813 5.50707 17.6482 5.62188C17.715 5.73668 17.7501 5.86717 17.75 6Z" fill="white"/>
</svg>
