<svg width="32" height="32" viewBox="0 0 32 32" fill="none" xmlns="http://www.w3.org/2000/svg">
<path d="M18.9525 14.9312C20.0321 14.2852 20.87 13.303 21.3378 12.1351C21.8055 10.9672 21.8774 9.67818 21.5423 8.46555C21.2072 7.25292 20.4836 6.18366 19.4825 5.4217C18.4814 4.65974 17.2581 4.24713 16 4.24713C14.7419 4.24713 13.5186 4.65974 12.5175 5.4217C11.5164 6.18366 10.7928 7.25292 10.4577 8.46555C10.1226 9.67818 10.1945 10.9672 10.6623 12.1351C11.13 13.303 11.9679 14.2852 13.0475 14.9312C11.6744 15.5991 10.5683 16.7128 9.90989 18.0904C9.25144 19.468 9.07952 21.0282 9.4222 22.5161C9.76488 24.0041 10.6019 25.3319 11.7966 26.2827C12.9913 27.2336 14.4731 27.7512 16 27.7512C17.5269 27.7512 19.0087 27.2336 20.2034 26.2827C21.3981 25.3319 22.2351 24.0041 22.5778 22.5161C22.9205 21.0282 22.7486 19.468 22.0901 18.0904C21.4317 16.7128 20.3256 15.5991 18.9525 14.9312ZM11.75 9.99997C11.75 9.1594 11.9993 8.33771 12.4663 7.6388C12.9333 6.93989 13.597 6.39516 14.3736 6.07348C15.1502 5.75181 16.0047 5.66765 16.8291 5.83163C17.6536 5.99562 18.4108 6.40039 19.0052 6.99477C19.5996 7.58914 20.0044 8.34642 20.1683 9.17084C20.3323 9.99526 20.2482 10.8498 19.9265 11.6264C19.6048 12.403 19.0601 13.0667 18.3612 13.5337C17.6623 14.0007 16.8406 14.25 16 14.25C14.8728 14.25 13.7918 13.8022 12.9948 13.0052C12.1978 12.2081 11.75 11.1271 11.75 9.99997ZM16 26.25C14.9617 26.25 13.9466 25.9421 13.0833 25.3652C12.2199 24.7883 11.547 23.9684 11.1496 23.0091C10.7523 22.0497 10.6483 20.9941 10.8509 19.9757C11.0535 18.9573 11.5535 18.0219 12.2877 17.2877C13.0219 16.5534 13.9574 16.0534 14.9758 15.8508C15.9942 15.6483 17.0498 15.7522 18.0091 16.1496C18.9684 16.547 19.7883 17.2199 20.3652 18.0832C20.9421 18.9466 21.25 19.9616 21.25 21C21.25 22.3924 20.6969 23.7277 19.7123 24.7123C18.7278 25.6968 17.3924 26.25 16 26.25Z" fill="white"/>
</svg>
