<svg width="32" height="32" viewBox="0 0 32 32" fill="none" xmlns="http://www.w3.org/2000/svg">
<path d="M16 10.25C14.8628 10.25 13.7511 10.5873 12.8055 11.2191C11.8599 11.8509 11.1229 12.7489 10.6877 13.7996C10.2525 14.8503 10.1386 16.0064 10.3605 17.1218C10.5824 18.2372 11.13 19.2618 11.9341 20.0659C12.7383 20.8701 13.7628 21.4177 14.8782 21.6396C15.9936 21.8614 17.1498 21.7476 18.2004 21.3124C19.2511 20.8772 20.1491 20.1402 20.781 19.1946C21.4128 18.249 21.75 17.1373 21.75 16C21.748 14.4757 21.1416 13.0143 20.0637 11.9364C18.9858 10.8585 17.5244 10.252 16 10.25ZM16 20.25C15.1594 20.25 14.3377 20.0008 13.6388 19.5338C12.9399 19.0668 12.3952 18.403 12.0735 17.6265C11.7518 16.8499 11.6677 15.9953 11.8317 15.1709C11.9956 14.3465 12.4004 13.5892 12.9948 12.9948C13.5892 12.4005 14.3464 11.9957 15.1709 11.8317C15.9953 11.6677 16.8498 11.7519 17.6264 12.0736C18.403 12.3952 19.0668 12.94 19.5337 13.6389C20.0007 14.3378 20.25 15.1595 20.25 16C20.25 17.1272 19.8022 18.2082 19.0052 19.0053C18.2082 19.8023 17.1272 20.25 16 20.25ZM27.84 8.4888L16.84 2.4663C16.5828 2.32426 16.2938 2.24976 16 2.24976C15.7062 2.24976 15.4172 2.32426 15.16 2.4663L4.16 8.4888C3.88476 8.6394 3.65506 8.86123 3.49497 9.13106C3.33487 9.40089 3.25026 9.7088 3.25 10.0226V21.9776C3.25026 22.2913 3.33487 22.5992 3.49497 22.869C3.65506 23.1389 3.88476 23.3607 4.16 23.5113L15.16 29.5338C15.4173 29.6756 15.7062 29.75 16 29.75C16.2938 29.75 16.5827 29.6756 16.84 29.5338L27.84 23.5113C28.1152 23.3607 28.3449 23.1389 28.505 22.869C28.6651 22.5992 28.7497 22.2913 28.75 21.9776V10.0226C28.7497 9.7088 28.6651 9.40089 28.505 9.13106C28.3449 8.86123 28.1152 8.6394 27.84 8.4888ZM27.25 21.9776C27.2504 22.0218 27.239 22.0654 27.2171 22.1038C27.1951 22.1423 27.1633 22.1742 27.125 22.1963L16.125 28.2188C16.0882 28.2389 16.0469 28.2495 16.005 28.2495C15.9631 28.2495 15.9218 28.2389 15.885 28.2188L4.875 22.1963C4.83666 22.1742 4.80489 22.1423 4.78293 22.1038C4.76097 22.0654 4.7496 22.0218 4.75 21.9776V10.0226C4.7496 9.97829 4.76097 9.93471 4.78293 9.89628C4.80489 9.85784 4.83666 9.82593 4.875 9.8038L15.875 3.7813C15.9118 3.76117 15.9531 3.75062 15.995 3.75062C16.0369 3.75062 16.0782 3.76117 16.115 3.7813L27.115 9.8038C27.1533 9.82593 27.1851 9.85784 27.2071 9.89628C27.229 9.93471 27.2404 9.97829 27.24 10.0226L27.25 21.9776Z" fill="white"/>
</svg>
