<svg width="32" height="32" viewBox="0 0 32 32" fill="none" xmlns="http://www.w3.org/2000/svg">
<path d="M21.5 17.25C21.7472 17.25 21.9889 17.3233 22.1945 17.4607C22.4 17.598 22.5602 17.7932 22.6549 18.0216C22.7495 18.2501 22.7742 18.5014 22.726 18.7439C22.6778 18.9863 22.5587 19.2091 22.3839 19.3839C22.2091 19.5587 21.9863 19.6778 21.7439 19.726C21.5014 19.7742 21.2501 19.7495 21.0217 19.6549C20.7932 19.5602 20.598 19.4 20.4607 19.1945C20.3233 18.9889 20.25 18.7472 20.25 18.5C20.25 18.1685 20.3817 17.8505 20.6161 17.6161C20.8505 17.3817 21.1685 17.25 21.5 17.25ZM23.1825 12.68L14.905 8.81625C12.6575 9.08419 10.5862 10.1669 9.08335 11.8594C7.58047 13.5518 6.7503 15.7366 6.75 18C6.75 18.0275 6.75 18.055 6.75 18.0825L15.645 13.3388C15.7593 13.2773 15.8876 13.2466 16.0173 13.2496C16.147 13.2526 16.2738 13.2892 16.3851 13.3558C16.4965 13.4225 16.5886 13.5169 16.6526 13.6298C16.7165 13.7427 16.7501 13.8702 16.75 14V27.22C18.5866 27.0773 20.3381 26.3868 21.7779 25.2378C23.2177 24.0888 24.2796 22.5341 24.8263 20.775C24.8859 20.5852 25.0186 20.4269 25.195 20.3349C25.3714 20.2429 25.5771 20.2247 25.7669 20.2844C25.9567 20.344 26.115 20.4767 26.207 20.6531C26.299 20.8295 26.3172 21.0352 26.2575 21.225C25.7999 22.6752 25.0398 24.0118 24.0274 25.1466C23.0151 26.2813 21.7735 27.1883 20.3847 27.8078C18.9959 28.4272 17.4914 28.745 15.9708 28.74C14.4501 28.735 12.9478 28.4075 11.563 27.779C10.1783 27.1506 8.94261 26.2354 7.93767 25.0941C6.93273 23.9528 6.18137 22.6113 5.73321 21.1581C5.28506 19.705 5.15031 18.1733 5.33787 16.6642C5.52542 15.1551 6.03102 13.703 6.82125 12.4038C5.92283 12.0171 5.18528 11.3323 4.73304 10.465C4.28081 9.59771 4.14157 8.60098 4.33881 7.64296C4.53606 6.68494 5.05771 5.82427 5.81577 5.20617C6.57383 4.58806 7.52189 4.25035 8.5 4.25C8.60968 4.24984 8.71806 4.27373 8.8175 4.32L23.6575 11.25C24.3868 11.2291 25.078 10.9194 25.579 10.3889C26.0799 9.85837 26.3496 9.1506 26.3288 8.42125C26.3079 7.69191 25.9981 7.00073 25.4676 6.49977C24.9371 5.99882 24.2293 5.72912 23.5 5.75C23.3011 5.75 23.1103 5.67098 22.9697 5.53033C22.829 5.38968 22.75 5.19891 22.75 5C22.75 4.80109 22.829 4.61032 22.9697 4.46967C23.1103 4.32902 23.3011 4.25 23.5 4.25C24.6272 4.25 25.7082 4.69777 26.5052 5.4948C27.3022 6.29183 27.75 7.37283 27.75 8.5C27.75 9.62717 27.3022 10.7082 26.5052 11.5052C25.7082 12.3022 24.6272 12.75 23.5 12.75C23.3903 12.7502 23.2819 12.7263 23.1825 12.68ZM12.75 26.6588C13.5531 26.9609 14.3947 27.149 15.25 27.2175V15.25L12.75 16.5838V26.6588ZM6.90875 19.6988C7.15137 20.9855 7.66364 22.2064 8.41188 23.281C9.16011 24.3556 10.1274 25.2597 11.25 25.9338V17.3838L6.90875 19.6988ZM12.6763 7.77625L8.3425 5.75C7.69717 5.78911 7.08624 6.05435 6.61702 6.49912C6.1478 6.94389 5.85029 7.53976 5.77673 8.18208C5.70317 8.82441 5.85827 9.47211 6.2148 10.0114C6.57132 10.5508 7.10647 10.9473 7.72625 11.1313C7.83375 11.0063 7.945 10.8738 8.06 10.7475C9.31566 9.37425 10.9063 8.35045 12.6763 7.77625Z" fill="white"/>
</svg>
