<svg width="32" height="32" viewBox="0 0 32 32" fill="none" xmlns="http://www.w3.org/2000/svg">
<path d="M28.7275 18.45L21.75 6.45875L21.7387 6.44C21.133 5.46487 20.2885 4.66034 19.2852 4.10247C18.2819 3.5446 17.1529 3.25183 16.005 3.25183C14.857 3.25183 13.728 3.5446 12.7247 4.10247C11.7214 4.66034 10.877 5.46487 10.2712 6.44L10.26 6.45875L3.27247 18.45C2.64033 19.4723 2.29263 20.6449 2.2653 21.8465C2.23797 23.0482 2.532 24.2353 3.11701 25.2853C3.70202 26.3353 4.55679 27.21 5.593 27.8191C6.6292 28.4282 7.80926 28.7496 9.01122 28.75H22.9887C24.1907 28.7496 25.3707 28.4282 26.4069 27.8191C27.4431 27.21 28.2979 26.3353 28.8829 25.2853C29.4679 24.2353 29.762 23.0482 29.7346 21.8465C29.7073 20.6449 29.3596 19.4723 28.7275 18.45ZM20.25 27.25H11.75V21C11.75 20.9337 11.7763 20.8701 11.8232 20.8232C11.8701 20.7763 11.9337 20.75 12 20.75H20C20.0663 20.75 20.1299 20.7763 20.1767 20.8232C20.2236 20.8701 20.25 20.9337 20.25 21V27.25ZM27.5762 24.5525C27.1268 25.3748 26.4629 26.0599 25.6551 26.5349C24.8473 27.0099 23.9258 27.257 22.9887 27.25H21.75V21C21.75 20.5359 21.5656 20.0908 21.2374 19.7626C20.9092 19.4344 20.4641 19.25 20 19.25H12C11.5358 19.25 11.0907 19.4344 10.7625 19.7626C10.4343 20.0908 10.25 20.5359 10.25 21V27.25H9.01122C8.0756 27.2497 7.15706 26.9993 6.35066 26.5249C5.54427 26.0504 4.87932 25.369 4.42464 24.5513C3.96996 23.7336 3.74206 22.8092 3.76454 21.8739C3.78701 20.9385 4.05904 20.0262 4.55247 19.2313L4.56247 19.2138L11.5462 7.2225C12.018 6.46665 12.6743 5.84329 13.4535 5.41111C14.2326 4.97894 15.109 4.75218 16 4.75218C16.891 4.75218 17.7673 4.97894 18.5465 5.41111C19.3256 5.84329 19.982 6.46665 20.4537 7.2225L27.4375 19.2138L27.4475 19.2313C27.9477 20.0239 28.2237 20.9373 28.2462 21.8743C28.2686 22.8113 28.0367 23.7368 27.575 24.5525H27.5762Z" fill="white"/>
</svg>
