<svg width="32" height="32" viewBox="0 0 32 32" fill="none" xmlns="http://www.w3.org/2000/svg">
<path d="M27.75 14.3199C28.2347 13.2036 28.4087 11.9771 28.2534 10.77C28.0981 9.56294 27.6193 8.42032 26.8678 7.46307C26.1163 6.50583 25.1199 5.76957 23.9842 5.33223C22.8485 4.89489 21.6157 4.77273 20.4162 4.97869C19.6914 4.00252 18.7163 3.24027 17.594 2.77249C16.4717 2.3047 15.2438 2.14874 14.0402 2.32109C12.8366 2.49343 11.7019 2.98768 10.756 3.75162C9.81008 4.51556 9.08807 5.52082 8.66625 6.66119C7.45825 6.80094 6.31044 7.26443 5.34412 8.00268C4.3778 8.74093 3.62886 9.72652 3.17646 10.8553C2.72405 11.9841 2.58499 13.2141 2.77395 14.4154C2.96292 15.6167 3.4729 16.7446 4.25 17.6799C3.86386 18.57 3.67415 19.5329 3.69379 20.503C3.71344 21.473 3.94198 22.4274 4.36384 23.3012C4.7857 24.1749 5.39097 24.9474 6.13839 25.5661C6.88581 26.1848 7.75782 26.635 8.695 26.8862C9.26672 27.0416 9.85627 27.1219 10.4487 27.1249C10.8283 27.125 11.2072 27.0924 11.5812 27.0274C12.3061 28.0036 13.2812 28.7659 14.4035 29.2336C15.5258 29.7014 16.7536 29.8574 17.9573 29.685C19.1609 29.5127 20.2956 29.0184 21.2415 28.2545C22.1874 27.4906 22.9094 26.4853 23.3312 25.3449C24.5406 25.2063 25.6899 24.7433 26.6576 24.0048C27.6253 23.2663 28.3752 22.2799 28.8281 21.15C29.2809 20.0201 29.4198 18.7888 29.23 17.5865C29.0402 16.3841 28.5288 15.2554 27.75 14.3199ZM22.9212 6.56244C23.6053 6.74562 24.2451 7.06529 24.8024 7.5022C25.3597 7.93911 25.8228 8.48424 26.1639 9.10479C26.505 9.72534 26.717 10.4085 26.7872 11.1131C26.8575 11.8177 26.7844 12.5293 26.5725 13.2049C26.3687 13.0546 26.1567 12.9156 25.9375 12.7887L20.375 9.57744C20.261 9.51161 20.1316 9.47696 20 9.47696C19.8683 9.47696 19.739 9.51161 19.625 9.57744L13.75 12.9687V10.0824L18.9375 7.08244C19.5342 6.73674 20.1935 6.51278 20.8773 6.42352C21.5611 6.33427 22.2558 6.38148 22.9212 6.56244ZM18.25 17.2987L16 18.5974L13.75 17.2987V14.7012L16 13.4024L18.25 14.7012V17.2987ZM9.75 8.99994C9.74986 7.94273 10.0689 6.91011 10.6654 6.03723C11.2618 5.16436 12.108 4.4919 13.0929 4.10787C14.0779 3.72384 15.1559 3.64614 16.1858 3.88493C17.2157 4.12372 18.1495 4.66788 18.865 5.44619C18.6332 5.54806 18.407 5.66239 18.1875 5.78869L12.625 8.99994C12.5111 9.0657 12.4165 9.16026 12.3507 9.27413C12.2848 9.38799 12.2501 9.51717 12.25 9.64869V16.4324L9.75 14.9899V8.99994ZM4.89125 10.7412C5.25294 10.1104 5.74245 9.56225 6.32838 9.13173C6.91431 8.70122 7.58374 8.39789 8.29375 8.24119C8.26521 8.49311 8.2506 8.74641 8.25 8.99994V15.4224C8.24991 15.5542 8.28453 15.6836 8.35036 15.7977C8.41619 15.9118 8.51091 16.0066 8.625 16.0724L14.5 19.4637L12 20.9074L6.8125 17.9074C5.60818 17.2112 4.72941 16.0655 4.36919 14.7218C4.00896 13.3782 4.19673 11.9465 4.89125 10.7412ZM9.07875 25.4374C8.39473 25.2543 7.75485 24.9346 7.19759 24.4977C6.64033 24.0608 6.17722 23.5156 5.83611 22.8951C5.49501 22.2745 5.28297 21.5914 5.21275 20.8868C5.14252 20.1822 5.21557 19.4706 5.4275 18.7949C5.63131 18.9453 5.8433 19.0843 6.0625 19.2112L11.625 22.4224C11.739 22.4883 11.8683 22.5229 12 22.5229C12.1316 22.5229 12.261 22.4883 12.375 22.4224L18.25 19.0312V21.9174L13.0625 24.9174C12.4658 25.2631 11.8065 25.4871 11.1227 25.5764C10.4389 25.6656 9.74418 25.6184 9.07875 25.4374ZM22.25 22.9999C22.2501 24.0571 21.9311 25.0898 21.3346 25.9626C20.7381 26.8355 19.892 27.508 18.907 27.892C17.9221 28.276 16.8441 28.3537 15.8142 28.115C14.7843 27.8762 13.8505 27.332 13.135 26.5537C13.3668 26.4518 13.593 26.3375 13.8125 26.2112L19.375 22.9999C19.4889 22.9342 19.5835 22.8396 19.6493 22.7258C19.7151 22.6119 19.7499 22.4827 19.75 22.3512V15.5674L22.25 17.0099V22.9999ZM27.1087 21.2587C26.747 21.8894 26.2575 22.4376 25.6716 22.8681C25.0857 23.2987 24.4163 23.602 23.7062 23.7587C23.7348 23.5068 23.7494 23.2535 23.75 22.9999V16.5774C23.7501 16.4457 23.7155 16.3163 23.6496 16.2022C23.5838 16.0881 23.4891 15.9933 23.375 15.9274L17.5 12.5362L20 11.0924L25.1875 14.0924C26.3918 14.7887 27.2706 15.9344 27.6308 17.2781C27.991 18.6217 27.8033 20.0534 27.1087 21.2587Z" fill="white"/>
</svg>
