<svg width="32" height="32" viewBox="0 0 32 32" fill="none" xmlns="http://www.w3.org/2000/svg">
<path d="M28.75 24C28.75 24.1989 28.671 24.3897 28.5303 24.5303C28.3897 24.671 28.1989 24.75 28 24.75H20.1175C19.7923 24.7511 19.4733 24.661 19.1967 24.49C18.92 24.319 18.6969 24.0739 18.5525 23.7825L12.105 10.8888C12.0844 10.8473 12.0527 10.8124 12.0134 10.7879C11.9741 10.7634 11.9288 10.7503 11.8825 10.75H4C3.80109 10.75 3.61032 10.671 3.46967 10.5303C3.32902 10.3897 3.25 10.1989 3.25 10C3.25 9.8011 3.32902 9.61033 3.46967 9.46968C3.61032 9.32903 3.80109 9.25001 4 9.25001H11.8825C12.2077 9.24891 12.5267 9.33897 12.8033 9.50998C13.08 9.68099 13.3031 9.9261 13.4475 10.2175L19.895 23.1113C19.9156 23.1527 19.9473 23.1876 19.9866 23.2121C20.0259 23.2366 20.0712 23.2498 20.1175 23.25H28C28.1989 23.25 28.3897 23.329 28.5303 23.4697C28.671 23.6103 28.75 23.8011 28.75 24ZM19 10.75H28C28.1989 10.75 28.3897 10.671 28.5303 10.5303C28.671 10.3897 28.75 10.1989 28.75 10C28.75 9.8011 28.671 9.61033 28.5303 9.46968C28.3897 9.32903 28.1989 9.25001 28 9.25001H19C18.8011 9.25001 18.6103 9.32903 18.4697 9.46968C18.329 9.61033 18.25 9.8011 18.25 10C18.25 10.1989 18.329 10.3897 18.4697 10.5303C18.6103 10.671 18.8011 10.75 19 10.75Z" fill="white"/>
</svg>
