<svg width="32" height="32" viewBox="0 0 32 32" fill="none" xmlns="http://www.w3.org/2000/svg">
<path d="M20.1437 9.08125C21.5135 8.47199 22.6774 7.479 23.4949 6.22234C24.3123 4.96568 24.7483 3.49914 24.75 2C24.75 1.80109 24.671 1.61032 24.5303 1.46967C24.3897 1.32902 24.1989 1.25 24 1.25H23C21.5342 1.25151 20.0987 1.66817 18.8599 2.45173C17.6211 3.23529 16.6295 4.35371 16 5.6775C15.3705 4.35371 14.3789 3.23529 13.1401 2.45173C11.9013 1.66817 10.4658 1.25151 8.99999 1.25H7.99999C7.80108 1.25 7.61031 1.32902 7.46966 1.46967C7.32901 1.61032 7.24999 1.80109 7.24999 2C7.24999 2.19891 7.32901 2.38968 7.46966 2.53033C7.61031 2.67098 7.80108 2.75 7.99999 2.75H8.99999C10.5327 2.75192 12.0114 3.3163 13.1556 4.33609C14.2998 5.35587 15.0299 6.76013 15.2075 8.2825C12.5833 8.47822 10.1223 9.63019 8.29105 11.5199C6.45984 13.4097 5.38584 15.9058 5.27275 18.5348C5.15966 21.1638 6.01536 23.7429 7.67753 25.7829C9.33971 27.8229 11.6928 29.182 14.2904 29.6023C16.8881 30.0226 19.5497 29.475 21.7704 28.0633C23.9911 26.6516 25.6165 24.474 26.3383 21.9435C27.06 19.4129 26.828 16.7055 25.6862 14.3347C24.5444 11.9639 22.5723 10.0946 20.1437 9.08125ZM23 2.75H23.205C23.0198 4.26595 22.2868 5.6619 21.1439 6.67493C20.001 7.68796 18.5272 8.24815 17 8.25H16.795C16.9801 6.73405 17.7132 5.3381 18.8561 4.32507C19.9989 3.31204 21.4728 2.75185 23 2.75ZM16 28.25C14.1705 28.25 12.3821 27.7075 10.861 26.6911C9.33981 25.6747 8.15422 24.23 7.4541 22.5398C6.75399 20.8496 6.57081 18.9897 6.92773 17.1954C7.28464 15.4011 8.16562 13.7529 9.45925 12.4593C10.7529 11.1656 12.4011 10.2846 14.1954 9.92774C15.9897 9.57082 17.8496 9.754 19.5398 10.4541C21.23 11.1542 22.6747 12.3398 23.6911 13.861C24.7075 15.3821 25.25 17.1705 25.25 19C25.247 21.4523 24.2715 23.8034 22.5374 25.5374C20.8034 27.2715 18.4523 28.247 16 28.25ZM22.74 20.125C22.4916 21.5232 21.8199 22.8115 20.8157 23.8157C19.8115 24.8199 18.5232 25.4916 17.125 25.74C17.0836 25.7464 17.0418 25.7498 17 25.75C16.8114 25.7507 16.6295 25.6804 16.4904 25.5531C16.3514 25.4257 16.2654 25.2506 16.2496 25.0627C16.2339 24.8748 16.2895 24.6878 16.4054 24.5391C16.5213 24.3903 16.6889 24.2907 16.875 24.26C17.9672 24.0666 18.9736 23.5423 19.7579 22.7579C20.5423 21.9736 21.0666 20.9672 21.26 19.875C21.2931 19.6787 21.4029 19.5037 21.5651 19.3884C21.6454 19.3312 21.7362 19.2905 21.8323 19.2685C21.9284 19.2465 22.0278 19.2436 22.125 19.26C22.2222 19.2764 22.3152 19.3118 22.3987 19.3642C22.4822 19.4165 22.5545 19.4848 22.6116 19.5651C22.6687 19.6455 22.7095 19.7362 22.7315 19.8323C22.7535 19.9284 22.7564 20.0278 22.74 20.125Z" fill="white"/>
</svg>
