<svg width="32" height="32" viewBox="0 0 32 32" fill="none" xmlns="http://www.w3.org/2000/svg">
<path d="M26 4.25H6C5.53587 4.25 5.09075 4.43437 4.76256 4.76256C4.43437 5.09075 4.25 5.53587 4.25 6V26C4.25 26.4641 4.43437 26.9092 4.76256 27.2374C5.09075 27.5656 5.53587 27.75 6 27.75H26C26.4641 27.75 26.9092 27.5656 27.2374 27.2374C27.5656 26.9092 27.75 26.4641 27.75 26V6C27.75 5.53587 27.5656 5.09075 27.2374 4.76256C26.9092 4.43437 26.4641 4.25 26 4.25ZM26.25 26C26.25 26.0663 26.2237 26.1299 26.1768 26.1768C26.1299 26.2237 26.0663 26.25 26 26.25H6C5.9337 26.25 5.87011 26.2237 5.82322 26.1768C5.77634 26.1299 5.75 26.0663 5.75 26V6C5.75 5.9337 5.77634 5.87011 5.82322 5.82322C5.87011 5.77634 5.9337 5.75 6 5.75H26C26.0663 5.75 26.1299 5.77634 26.1768 5.82322C26.2237 5.87011 26.25 5.9337 26.25 6V26ZM9.25 9.5C9.25 9.25277 9.32331 9.0111 9.46066 8.80554C9.59801 8.59998 9.79324 8.43976 10.0216 8.34515C10.2501 8.25054 10.5014 8.22579 10.7439 8.27402C10.9863 8.32225 11.2091 8.4413 11.3839 8.61612C11.5587 8.79093 11.6778 9.01366 11.726 9.25614C11.7742 9.49861 11.7495 9.74995 11.6548 9.97835C11.5602 10.2068 11.4 10.402 11.1945 10.5393C10.9889 10.6767 10.7472 10.75 10.5 10.75C10.1685 10.75 9.85054 10.6183 9.61612 10.3839C9.3817 10.1495 9.25 9.83152 9.25 9.5ZM14.75 9.5C14.75 9.25277 14.8233 9.0111 14.9607 8.80554C15.098 8.59998 15.2932 8.43976 15.5216 8.34515C15.7501 8.25054 16.0014 8.22579 16.2439 8.27402C16.4863 8.32225 16.7091 8.4413 16.8839 8.61612C17.0587 8.79093 17.1777 9.01366 17.226 9.25614C17.2742 9.49861 17.2495 9.74995 17.1549 9.97835C17.0602 10.2068 16.9 10.402 16.6945 10.5393C16.4889 10.6767 16.2472 10.75 16 10.75C15.6685 10.75 15.3505 10.6183 15.1161 10.3839C14.8817 10.1495 14.75 9.83152 14.75 9.5ZM20.25 9.5C20.25 9.25277 20.3233 9.0111 20.4607 8.80554C20.598 8.59998 20.7932 8.43976 21.0216 8.34515C21.2501 8.25054 21.5014 8.22579 21.7439 8.27402C21.9863 8.32225 22.2091 8.4413 22.3839 8.61612C22.5587 8.79093 22.6777 9.01366 22.726 9.25614C22.7742 9.49861 22.7495 9.74995 22.6549 9.97835C22.5602 10.2068 22.4 10.402 22.1945 10.5393C21.9889 10.6767 21.7472 10.75 21.5 10.75C21.1685 10.75 20.8505 10.6183 20.6161 10.3839C20.3817 10.1495 20.25 9.83152 20.25 9.5ZM23 13.25H9C8.80109 13.25 8.61032 13.329 8.46967 13.4697C8.32902 13.6103 8.25 13.8011 8.25 14V23C8.25 23.1989 8.32902 23.3897 8.46967 23.5303C8.61032 23.671 8.80109 23.75 9 23.75H23C23.1989 23.75 23.3897 23.671 23.5303 23.5303C23.671 23.3897 23.75 23.1989 23.75 23V14C23.75 13.8011 23.671 13.6103 23.5303 13.4697C23.3897 13.329 23.1989 13.25 23 13.25ZM22.25 22.25H9.75V14.75H22.25V22.25Z" fill="white"/>
</svg>
