<svg width="32" height="32" viewBox="0 0 32 32" fill="none" xmlns="http://www.w3.org/2000/svg">
<path d="M28.6537 3.34624C27.9496 2.64437 26.996 2.25024 26.0018 2.25024C25.0077 2.25024 24.0541 2.64437 23.35 3.34624L23.31 3.38874L16.4587 11.395L14.945 9.88249C14.4293 9.36686 13.7299 9.0772 13.0006 9.0772C12.2713 9.0772 11.5719 9.36686 11.0562 9.88249L1.46996 19.4687C1.40023 19.5384 1.34491 19.6211 1.30717 19.7122C1.26943 19.8032 1.25 19.9008 1.25 19.9994C1.25 20.0979 1.26943 20.1955 1.30717 20.2866C1.34491 20.3776 1.40023 20.4603 1.46996 20.53L11.47 30.53C11.5396 30.5997 11.6223 30.655 11.7134 30.6928C11.8044 30.7305 11.902 30.75 12.0006 30.75C12.0992 30.75 12.1967 30.7305 12.2878 30.6928C12.3788 30.655 12.4616 30.5997 12.5312 30.53L22.1175 20.9437C22.6331 20.428 22.9228 19.7286 22.9228 18.9994C22.9228 18.2701 22.6331 17.5707 22.1175 17.055L20.605 15.5412L28.605 8.68999L28.6475 8.64999C29.3502 7.94672 29.7454 6.99357 29.7466 5.9994C29.7478 5.00524 29.3548 4.05115 28.6537 3.34624ZM12 28.9387L9.56121 26.5L12.5312 23.53C12.6719 23.3893 12.751 23.1984 12.751 22.9994C12.751 22.8003 12.6719 22.6095 12.5312 22.4687C12.3905 22.328 12.1996 22.2489 12.0006 22.2489C11.8016 22.2489 11.6107 22.328 11.47 22.4687L8.49996 25.4387L6.56122 23.5L9.53121 20.53C9.67195 20.3893 9.75101 20.1984 9.75101 19.9994C9.75101 19.8003 9.67195 19.6095 9.53121 19.4687C9.39048 19.328 9.19961 19.2489 9.00059 19.2489C8.80157 19.2489 8.6107 19.328 8.46996 19.4687L5.49996 22.4387L3.06121 20L8.99996 14.06L17.94 23L12 28.9387ZM27.6112 7.56999L19.0137 14.9287C18.935 14.996 18.871 15.0787 18.8258 15.1719C18.7806 15.265 18.7552 15.3665 18.7512 15.47C18.7474 15.5733 18.765 15.6762 18.8029 15.7723C18.8407 15.8685 18.898 15.9558 18.9712 16.0287L21.0562 18.115C21.1724 18.2311 21.2646 18.3689 21.3275 18.5207C21.3904 18.6724 21.4228 18.8351 21.4228 18.9994C21.4228 19.1636 21.3904 19.3263 21.3275 19.478C21.2646 19.6298 21.1724 19.7676 21.0562 19.8837L19 21.9387L10.0612 13L12.1162 10.9437C12.2323 10.8275 12.3702 10.7353 12.5219 10.6724C12.6737 10.6095 12.8363 10.5771 13.0006 10.5771C13.1649 10.5771 13.3275 10.6095 13.4793 10.6724C13.631 10.7353 13.7689 10.8275 13.885 10.9437L15.9712 13.0287C16.0443 13.1018 16.1317 13.159 16.228 13.1967C16.3242 13.2344 16.4272 13.2518 16.5305 13.2478C16.6338 13.2439 16.7351 13.2186 16.8282 13.1735C16.9212 13.1285 17.004 13.0648 17.0712 12.9862L24.43 4.38874C24.8548 3.98169 25.4223 3.75728 26.0106 3.76358C26.599 3.76988 27.1614 4.00641 27.5775 4.42246C27.9935 4.83851 28.2301 5.40099 28.2364 5.98934C28.2427 6.5777 28.0183 7.14511 27.6112 7.56999Z" fill="white"/>
</svg>
