<svg width="32" height="32" viewBox="0 0 32 32" fill="none" xmlns="http://www.w3.org/2000/svg">
<path d="M29.625 20.5838C29.5566 20.4806 29.4638 20.396 29.3547 20.3375C29.2457 20.279 29.1238 20.2484 29 20.2484C28.8763 20.2484 28.7544 20.279 28.6454 20.3375C28.5363 20.396 28.4435 20.4806 28.375 20.5838C28.2875 20.7088 26.25 23.7988 26.25 26C26.25 26.7294 26.5398 27.4288 27.0555 27.9446C27.5712 28.4603 28.2707 28.75 29 28.75C29.7294 28.75 30.4289 28.4603 30.9446 27.9446C31.4603 27.4288 31.75 26.7294 31.75 26C31.75 23.7988 29.7113 20.7138 29.625 20.5838ZM29 27.25C28.6685 27.25 28.3506 27.1183 28.1162 26.8839C27.8817 26.6495 27.75 26.3315 27.75 26C27.75 24.9788 28.4213 23.51 29 22.4575C29.5788 23.5088 30.25 24.9763 30.25 26C30.25 26.3315 30.1183 26.6495 29.8839 26.8839C29.6495 27.1183 29.3316 27.25 29 27.25ZM29.2375 17.1475C29.3589 17.1071 29.4679 17.0363 29.5542 16.9418C29.6404 16.8473 29.7011 16.7324 29.7304 16.6079C29.7597 16.4834 29.7567 16.3534 29.7216 16.2304C29.6866 16.1074 29.6206 15.9954 29.53 15.905L15.095 1.47003C15.0254 1.40029 14.9427 1.34497 14.8516 1.30723C14.7606 1.26949 14.663 1.25006 14.5644 1.25006C14.4659 1.25006 14.3683 1.26949 14.2772 1.30723C14.1862 1.34497 14.1034 1.40029 14.0338 1.47003L8.78379 6.72003L5.53379 3.47003C5.39284 3.33118 5.20273 3.25365 5.00487 3.25434C4.80701 3.25503 4.61744 3.33387 4.47746 3.47369C4.33747 3.61352 4.2584 3.80299 4.25748 4.00085C4.25656 4.1987 4.33386 4.38891 4.47254 4.53003L7.72254 7.78003L2.05504 13.4488C1.53942 13.9645 1.24976 14.6639 1.24976 15.3932C1.24976 16.1224 1.53942 16.8218 2.05504 17.3375L12.6625 27.945C13.1783 28.4606 13.8777 28.7503 14.6069 28.7503C15.3362 28.7503 16.0356 28.4606 16.5513 27.945L26.405 18.0913L29.2375 17.1475ZM25.47 16.905L15.4913 26.8838C15.2569 27.1181 14.939 27.2498 14.6075 27.2498C14.2761 27.2498 13.9582 27.1181 13.7238 26.8838L3.11629 16.2763C2.88195 16.0419 2.75031 15.724 2.75031 15.3925C2.75031 15.0611 2.88195 14.7432 3.11629 14.5088L8.78129 8.84378L12.7338 12.795C12.3509 13.4174 12.1889 14.1506 12.2739 14.8764C12.359 15.6021 12.6861 16.2781 13.2025 16.795C13.812 17.4042 14.6384 17.7463 15.5 17.7463C16.3617 17.7463 17.1881 17.4042 17.7975 16.795C18.3573 16.2313 18.6913 15.4822 18.7363 14.689C18.7813 13.8959 18.5342 13.1137 18.0418 12.4903C17.5494 11.867 16.8457 11.4455 16.0637 11.3057C15.2817 11.1658 14.4755 11.3172 13.7975 11.7313L9.84254 7.78253L14.565 3.06128L27.6113 16.1075L25.7625 16.7238C25.6525 16.761 25.5524 16.823 25.47 16.905ZM14.2625 13.2638C14.5074 13.0194 14.8193 12.8531 15.1586 12.7859C15.498 12.7187 15.8497 12.7535 16.1692 12.8861C16.4888 13.0187 16.7619 13.243 16.954 13.5307C17.1461 13.8184 17.2487 14.1566 17.2487 14.5025C17.2487 14.8485 17.1461 15.1867 16.954 15.4744C16.7619 15.7621 16.4888 15.9864 16.1692 16.119C15.8497 16.2515 15.498 16.2864 15.1586 16.2192C14.8193 16.1519 14.5074 15.9856 14.2625 15.7413C14.0983 15.5795 13.9679 15.3867 13.8788 15.174C13.7898 14.9613 13.7439 14.7331 13.7439 14.5025C13.7439 14.272 13.7898 14.0437 13.8788 13.8311C13.9679 13.6184 14.0983 13.4256 14.2625 13.2638Z" fill="white"/>
</svg>
