<svg width="32" height="32" viewBox="0 0 32 32" fill="none" xmlns="http://www.w3.org/2000/svg">
<path d="M30.0663 6.61252C29.8543 6.4485 29.6071 6.33582 29.3443 6.28334C29.0814 6.23086 28.81 6.23999 28.5513 6.31002L28.1163 6.42752C25.75 7.06377 21.3588 8.25002 16 8.25002C10.6413 8.25002 6.25002 7.06377 3.88377 6.42752L3.44877 6.31002C3.18979 6.24131 2.91849 6.23299 2.65579 6.2857C2.39308 6.3384 2.14599 6.45072 1.93355 6.614C1.72112 6.77729 1.54901 6.98717 1.4305 7.22747C1.31199 7.46778 1.25024 7.73208 1.25002 8.00002V24C1.24888 24.2687 1.30983 24.5339 1.42811 24.7751C1.54638 25.0163 1.71878 25.2269 1.93186 25.3905C2.14493 25.5541 2.39293 25.6662 2.65649 25.7182C2.92004 25.7701 3.19204 25.7605 3.45127 25.69L3.84877 25.5838C6.21252 24.9413 10.6138 23.75 16 23.75C21.3863 23.75 25.7875 24.9413 28.1513 25.5825L28.5488 25.6888C28.8078 25.7579 29.0793 25.7666 29.3422 25.7142C29.6051 25.6617 29.8525 25.5496 30.0652 25.3864C30.2779 25.2232 30.4503 25.0133 30.569 24.773C30.6878 24.5326 30.7497 24.2681 30.75 24V8.00002C30.7507 7.7317 30.6893 7.46686 30.5707 7.22618C30.4521 6.98549 30.2794 6.77548 30.0663 6.61252ZM2.84752 7.80252C2.89115 7.76865 2.94478 7.75019 3.00002 7.75002C3.02202 7.75056 3.04387 7.75392 3.06502 7.76002L3.49502 7.87502C5.92127 8.53002 10.4425 9.75002 16 9.75002C21.5575 9.75002 26.0788 8.53002 28.5075 7.87502L28.9375 7.76002C28.9743 7.75052 29.0127 7.74953 29.05 7.75712C29.0872 7.76471 29.1222 7.78067 29.1523 7.80381C29.1824 7.82694 29.2069 7.85663 29.2238 7.89063C29.2407 7.92463 29.2497 7.96204 29.25 8.00002V23.4463L21.5663 15.7625C21.4038 15.6 21.2108 15.4711 20.9985 15.3831C20.7862 15.2952 20.5586 15.2499 20.3288 15.2499C20.0989 15.2499 19.8714 15.2952 19.659 15.3831C19.4467 15.4711 19.2538 15.6 19.0913 15.7625L16.4138 18.4388L10.7375 12.7625C10.575 12.6 10.3821 12.4711 10.1698 12.3831C9.95742 12.2952 9.72984 12.2499 9.50002 12.2499C9.27019 12.2499 9.04261 12.2952 8.83028 12.3831C8.61795 12.4711 8.42502 12.6 8.26252 12.7625L2.75002 18.275V8.00002C2.75011 7.96184 2.75894 7.92419 2.77584 7.88995C2.79274 7.85572 2.81726 7.82581 2.84752 7.80252ZM27.5513 23.875C25.2319 23.2536 22.8708 22.8 20.4863 22.5175L17.475 19.5L20.1513 16.8238C20.1745 16.8005 20.2021 16.7821 20.2324 16.7695C20.2628 16.7569 20.2953 16.7505 20.3281 16.7505C20.361 16.7505 20.3935 16.7569 20.4239 16.7695C20.4542 16.7821 20.4818 16.8005 20.505 16.8238L27.5513 23.875ZM3.45627 24.1338L3.06252 24.2413C3.02564 24.2508 2.98707 24.2518 2.94977 24.2441C2.91246 24.2365 2.87739 24.2204 2.84724 24.1971C2.81709 24.1738 2.79266 24.144 2.77581 24.1098C2.75896 24.0757 2.75014 24.0381 2.75002 24V20.3963L9.32252 13.8238C9.34576 13.8003 9.37341 13.7817 9.40387 13.769C9.43434 13.7564 9.46701 13.7498 9.50002 13.7498C9.53302 13.7498 9.56569 13.7564 9.59616 13.769C9.62662 13.7817 9.65427 13.8003 9.67752 13.8238L18.1663 22.3125C17.4625 22.2725 16.7388 22.25 16 22.25C10.4138 22.25 5.71502 23.5225 3.45627 24.1338ZM24.25 13.5C24.25 13.2528 24.3233 13.0111 24.4607 12.8056C24.598 12.6 24.7933 12.4398 25.0217 12.3452C25.2501 12.2506 25.5014 12.2258 25.7439 12.274C25.9864 12.3223 26.2091 12.4413 26.3839 12.6161C26.5587 12.791 26.6778 13.0137 26.726 13.2562C26.7742 13.4986 26.7495 13.75 26.6549 13.9784C26.5603 14.2068 26.4 14.402 26.1945 14.5394C25.9889 14.6767 25.7472 14.75 25.5 14.75C25.1685 14.75 24.8506 14.6183 24.6161 14.3839C24.3817 14.1495 24.25 13.8315 24.25 13.5Z" fill="white"/>
</svg>
