<svg width="32" height="32" viewBox="0 0 32 32" fill="none" xmlns="http://www.w3.org/2000/svg">
<path d="M27.7362 26.7825L24.9862 4.7825C24.9332 4.35938 24.7275 3.97017 24.4078 3.68798C24.0881 3.40579 23.6764 3.25004 23.2499 3.25H8.74994C8.32351 3.25004 7.91177 3.40579 7.59207 3.68798C7.27236 3.97017 7.06669 4.35938 7.01369 4.7825L4.26369 26.7825C4.23285 27.0287 4.25473 27.2787 4.32788 27.5159C4.40103 27.753 4.52378 27.9719 4.68798 28.1579C4.85218 28.344 5.05408 28.493 5.28027 28.5951C5.50646 28.6972 5.75178 28.75 5.99994 28.75H11.0862C11.4755 28.75 11.8536 28.6202 12.1608 28.3811C12.4681 28.142 12.6868 27.8073 12.7824 27.43L15.9999 15L19.2162 27.43C19.3119 27.8076 19.5308 28.1424 19.8383 28.3815C20.1458 28.6206 20.5242 28.7503 20.9137 28.75H25.9999C26.2481 28.75 26.4934 28.6972 26.7196 28.5951C26.9458 28.493 27.1477 28.344 27.3119 28.1579C27.4761 27.9719 27.5989 27.753 27.672 27.5159C27.7452 27.2787 27.767 27.0287 27.7362 26.7825ZM24.4024 12.2075C23.5176 12.0804 22.6952 11.678 22.0518 11.0575C21.4084 10.4369 20.9765 9.62964 20.8174 8.75H23.9712L24.4024 12.2075ZM8.74994 4.75H23.2499C23.3112 4.74952 23.3704 4.77153 23.4165 4.81185C23.4626 4.85217 23.4923 4.908 23.4999 4.96875L23.7837 7.25H8.21619L8.49994 4.96875C8.50759 4.908 8.53727 4.85217 8.58335 4.81185C8.62944 4.77153 8.68871 4.74952 8.74994 4.75ZM8.02869 8.75H11.1824C11.0233 9.62964 10.5915 10.4369 9.94807 11.0575C9.30464 11.678 8.48226 12.0804 7.59744 12.2075L8.02869 8.75ZM11.3287 27.0613C11.3151 27.1152 11.2838 27.1631 11.2399 27.1973C11.1959 27.2315 11.1419 27.25 11.0862 27.25H5.99994C5.96431 27.2503 5.92903 27.2429 5.89646 27.2285C5.8639 27.214 5.8348 27.1927 5.81113 27.1661C5.78745 27.1395 5.76975 27.1081 5.75919 27.074C5.74864 27.04 5.74549 27.0041 5.74994 26.9688L7.40619 13.7338C8.72708 13.6384 9.97475 13.0907 10.939 12.1829C11.9032 11.2751 12.5252 10.0627 12.6999 8.75H15.2499V11.905L11.3287 27.0613ZM26.1874 27.165C26.164 27.1917 26.1352 27.213 26.1028 27.2277C26.0705 27.2424 26.0354 27.25 25.9999 27.25H20.9137C20.857 27.25 20.8019 27.2307 20.7576 27.1952C20.7133 27.1598 20.6824 27.1103 20.6699 27.055L16.7499 11.905V8.75H19.2999C19.4747 10.0627 20.0966 11.2751 21.0609 12.1829C22.0251 13.0907 23.2728 13.6384 24.5937 13.7338L26.2499 26.9688C26.2541 27.004 26.2506 27.0398 26.2398 27.0736C26.2291 27.1074 26.2112 27.1386 26.1874 27.165Z" fill="white"/>
</svg>
