<svg width="32" height="32" viewBox="0 0 32 32" fill="none" xmlns="http://www.w3.org/2000/svg">
<path d="M28.2349 3.76497C28.0163 3.54298 27.7418 3.3842 27.4403 3.30543C27.1389 3.22666 26.8217 3.23082 26.5224 3.31747H26.5087L2.51744 10.5962C2.17671 10.6949 1.874 10.8948 1.64946 11.1695C1.42492 11.4441 1.28915 11.7805 1.26014 12.134C1.23112 12.4876 1.31025 12.8416 1.48702 13.1492C1.66378 13.4567 1.92985 13.7033 2.24995 13.8562L12.9449 19.0612L18.1399 29.75C18.2799 30.0496 18.5027 30.303 18.782 30.4802C19.0613 30.6574 19.3854 30.751 19.7162 30.75C19.7662 30.75 19.8174 30.75 19.8674 30.7437C20.2218 30.7159 20.559 30.58 20.8337 30.3545C21.1084 30.1289 21.3074 29.8246 21.4037 29.4825L28.6787 5.49122V5.47747C28.7658 5.17852 28.7706 4.86159 28.6925 4.56016C28.6144 4.25873 28.4563 3.98399 28.2349 3.76497ZM27.2349 5.06497L19.9662 29.0537V29.0675C19.9523 29.1172 19.9234 29.1614 19.8833 29.194C19.8433 29.2266 19.7942 29.246 19.7427 29.2496C19.6912 29.2532 19.6398 29.2407 19.5957 29.2139C19.5516 29.1871 19.5168 29.1473 19.4962 29.1L14.4112 18.6525L20.5362 12.5275C20.6059 12.4578 20.6612 12.3751 20.6989 12.284C20.7366 12.193 20.756 12.0954 20.756 11.9968C20.756 11.8983 20.7366 11.8007 20.6989 11.7097C20.6612 11.6186 20.6059 11.5359 20.5362 11.4662C20.4665 11.3965 20.3838 11.3413 20.2927 11.3036C20.2017 11.2658 20.1041 11.2464 20.0056 11.2464C19.907 11.2464 19.8094 11.2658 19.7184 11.3036C19.6274 11.3413 19.5446 11.3965 19.4749 11.4662L13.3499 17.5912L2.89369 12.5C2.84736 12.4784 2.80876 12.4431 2.78309 12.3989C2.75742 12.3547 2.74592 12.3037 2.75015 12.2527C2.75437 12.2018 2.77411 12.1533 2.80671 12.114C2.8393 12.0746 2.88319 12.0461 2.93244 12.0325H2.9462L26.9349 4.75997C26.9771 4.74813 27.0217 4.74793 27.0639 4.75937C27.1062 4.77081 27.1445 4.79348 27.1749 4.82497C27.2058 4.85583 27.228 4.89422 27.2394 4.93632C27.2508 4.97842 27.251 5.02277 27.2399 5.06497H27.2349Z" fill="white"/>
</svg>
