<svg width="32" height="32" viewBox="0 0 32 32" fill="none" xmlns="http://www.w3.org/2000/svg">
<path d="M29.5213 25.1361L17.5125 4.14489C17.3603 3.87408 17.1388 3.64865 16.8707 3.49177C16.6026 3.33489 16.2975 3.2522 15.9869 3.2522C15.6763 3.2522 15.3712 3.33489 15.1031 3.49177C14.835 3.64865 14.6135 3.87408 14.4613 4.14489L2.47627 25.1449C2.30223 25.4552 2.22692 25.8112 2.26038 26.1655C2.29384 26.5197 2.43449 26.8553 2.66356 27.1276C2.89264 27.3998 3.19926 27.5958 3.54255 27.6893C3.88585 27.7829 4.24949 27.7696 4.58502 27.6511L16 23.7924L27.4163 27.6486C27.6039 27.7146 27.8012 27.7488 28 27.7499C28.3056 27.7489 28.6056 27.6679 28.8702 27.5149C29.1348 27.362 29.3547 27.1424 29.508 26.878C29.6614 26.6137 29.7428 26.3138 29.7443 26.0082C29.7457 25.7026 29.6671 25.4019 29.5163 25.1361H29.5213ZM28.1888 26.1586C28.1576 26.1997 28.1138 26.2293 28.064 26.2429C28.0143 26.2565 27.9615 26.2532 27.9138 26.2336H27.9013L16.75 22.4624V14.9999C16.75 14.801 16.671 14.6102 16.5304 14.4696C16.3897 14.3289 16.1989 14.2499 16 14.2499C15.8011 14.2499 15.6103 14.3289 15.4697 14.4696C15.329 14.6102 15.25 14.801 15.25 14.9999V22.4624L4.10002 26.2286H4.08752C4.03983 26.2482 3.987 26.2515 3.93727 26.2379C3.88753 26.2243 3.84367 26.1947 3.81252 26.1536C3.77779 26.1171 3.75604 26.0701 3.75062 26.02C3.74519 25.9698 3.7564 25.9193 3.78252 25.8761L15.7675 4.87489C15.7888 4.83612 15.8204 4.80395 15.8587 4.7819C15.8971 4.75985 15.9408 4.74878 15.985 4.74989C16.0308 4.74968 16.0758 4.76204 16.115 4.78562C16.1542 4.80921 16.1862 4.84312 16.2075 4.88364L28.2163 25.8749C28.2438 25.9185 28.2561 25.9701 28.2511 26.0215C28.2461 26.0729 28.2242 26.1211 28.1888 26.1586Z" fill="white"/>
</svg>
