<svg width="32" height="32" viewBox="0 0 32 32" fill="none" xmlns="http://www.w3.org/2000/svg">
<path d="M28.86 14.4611L7.86002 2.47615C7.54981 2.30425 7.19469 2.23065 6.84171 2.26512C6.48873 2.29959 6.15456 2.44049 5.88346 2.66916C5.61237 2.89783 5.41715 3.20347 5.32367 3.54559C5.23019 3.88771 5.24287 4.25015 5.36002 4.5849L9.20752 15.9999L5.35127 27.4161C5.2579 27.68 5.22919 27.9625 5.26755 28.2397C5.30592 28.517 5.41023 28.781 5.57175 29.0097C5.73326 29.2383 5.94726 29.4248 6.19579 29.5536C6.44431 29.6824 6.7201 29.7497 7.00002 29.7499C7.30362 29.7493 7.60194 29.6705 7.86627 29.5211L28.855 17.5124C29.1258 17.3602 29.3513 17.1387 29.5081 16.8706C29.665 16.6025 29.7477 16.2974 29.7477 15.9868C29.7477 15.6761 29.665 15.3711 29.5081 15.103C29.3513 14.8349 29.1258 14.6133 28.855 14.4611H28.86ZM28.1163 16.2111L7.12502 28.2161C7.08059 28.241 7.02962 28.2518 6.97893 28.2469C6.92823 28.242 6.88024 28.2218 6.84136 28.1889C6.80249 28.156 6.77458 28.112 6.76139 28.0628C6.74819 28.0136 6.75033 27.9616 6.76752 27.9136C6.76802 27.9095 6.76802 27.9053 6.76752 27.9011L10.5375 16.7499H18C18.1989 16.7499 18.3897 16.6709 18.5304 16.5302C18.671 16.3896 18.75 16.1988 18.75 15.9999C18.75 15.801 18.671 15.6102 18.5304 15.4696C18.3897 15.3289 18.1989 15.2499 18 15.2499H10.5375L6.77127 4.0999C6.77197 4.09576 6.77197 4.09154 6.77127 4.0874C6.7517 4.03971 6.74844 3.98688 6.762 3.93714C6.77557 3.88741 6.80519 3.84355 6.84627 3.8124C6.88289 3.77737 6.93 3.75533 6.98037 3.74969C7.03073 3.74404 7.08155 3.75509 7.12502 3.78115L28.125 15.7674C28.1638 15.7887 28.196 15.8203 28.218 15.8586C28.2401 15.897 28.2511 15.9407 28.25 15.9849C28.2502 16.0307 28.2379 16.0756 28.2143 16.1149C28.1907 16.1541 28.1568 16.1861 28.1163 16.2074V16.2111Z" fill="white"/>
</svg>
