<svg width="32" height="32" viewBox="0 0 32 32" fill="none" xmlns="http://www.w3.org/2000/svg">
<path d="M23.3263 4.22995C21.02 3.28745 18.275 3.01245 15.5963 3.4587C12.7213 3.9362 10.23 5.1737 8.39876 7.0362C7.03876 8.41995 5.39126 11.1174 5.25751 16.1174C5.17126 19.3962 5.80001 22.9762 6.94001 25.6949C8.03626 28.3099 9.45626 29.7499 10.94 29.7499C13.655 29.7499 14.905 27.3087 16.1138 24.9487C16.9988 23.2212 17.9138 21.4349 19.39 20.4337C20.14 19.9199 21.1513 19.5324 22.2163 19.1212C25.125 17.9999 28.75 16.6012 28.75 11.6462C28.75 8.3437 26.7738 5.6412 23.3263 4.22995ZM21.6763 17.7224C20.53 18.1649 19.4463 18.5824 18.5513 19.1924C16.7563 20.4087 15.7075 22.4574 14.7825 24.2649C13.6838 26.4037 12.7375 28.2499 10.94 28.2499C10.315 28.2499 9.29251 27.4262 8.32251 25.1149C7.26126 22.5824 6.67626 19.2399 6.75751 16.1574C6.85126 12.6374 7.81376 9.7712 9.46876 8.0887C11.775 5.7412 15.04 4.75745 18.0763 4.75745C19.6782 4.74487 21.2677 5.03934 22.7588 5.62495C26.6663 7.21745 27.25 10.0812 27.25 11.6462C27.25 15.5724 24.5425 16.6162 21.6763 17.7224Z" fill="white"/>
</svg>
