<svg width="32" height="32" viewBox="0 0 32 32" fill="none" xmlns="http://www.w3.org/2000/svg">
<path d="M27.3175 11.8462C26.6398 10.9745 25.7581 10.283 24.75 9.8325C24.7063 8.07148 23.9759 6.39731 22.7147 5.16745C21.4536 3.93758 19.7616 3.24946 18 3.25H10.5C10.1099 3.25002 9.73089 3.38043 9.42334 3.6205C9.11578 3.86056 8.89727 4.19652 8.80251 4.575L4.30251 22.575C4.23792 22.833 4.23299 23.1024 4.2881 23.3626C4.3432 23.6228 4.4569 23.867 4.62055 24.0767C4.7842 24.2864 4.99349 24.456 5.23252 24.5727C5.47155 24.6893 5.73403 24.75 6.00001 24.75H9.75876L9.30251 26.575C9.23792 26.833 9.23299 27.1024 9.2881 27.3626C9.3432 27.6228 9.4569 27.867 9.62055 28.0767C9.7842 28.2864 9.99349 28.456 10.2325 28.5727C10.4716 28.6893 10.734 28.75 11 28.75H14.9375C15.3277 28.75 15.7066 28.6196 16.0142 28.3795C16.3217 28.1394 16.5403 27.8035 16.635 27.425L17.76 22.94C17.7733 22.8862 17.8041 22.8384 17.8475 22.804C17.891 22.7696 17.9446 22.7506 18 22.75H22C23.2646 22.7499 24.5038 22.3945 25.5762 21.7244C26.6487 21.0543 27.5113 20.0964 28.0659 18.9599C28.6204 17.8233 28.8445 16.5539 28.7126 15.2961C28.5807 14.0384 28.0982 12.8431 27.32 11.8462H27.3175ZM9.93876 23.25H6.00001C5.96196 23.25 5.9244 23.2413 5.8902 23.2247C5.85601 23.208 5.82607 23.1837 5.80268 23.1537C5.7793 23.1236 5.76307 23.0887 5.75524 23.0514C5.74741 23.0142 5.74819 22.9756 5.75751 22.9387L10.2575 4.93875C10.2712 4.88478 10.3024 4.83691 10.3463 4.80272C10.3903 4.76853 10.4443 4.74997 10.5 4.75H18C19.2814 4.74986 20.5187 5.2184 21.4786 6.06732C22.4385 6.91624 23.0547 8.08692 23.2113 9.35875C22.8116 9.28651 22.4062 9.25012 22 9.25H15C14.6096 9.24975 14.2304 9.38002 13.9226 9.62011C13.6148 9.8602 13.3961 10.1963 13.3013 10.575L10.1763 23.0613C10.1628 23.1144 10.1323 23.1617 10.0894 23.1958C10.0465 23.2299 9.99357 23.2489 9.93876 23.25ZM23.1713 10.8813C23.1488 11.0063 23.1225 11.1425 23.09 11.2738C22.8073 12.4096 22.1525 13.4182 21.2301 14.1388C20.3076 14.8594 19.1706 15.2506 18 15.25H13.68L14.7575 10.94C14.7709 10.8858 14.8021 10.8376 14.846 10.8032C14.89 10.7688 14.9442 10.75 15 10.75H22C22.3941 10.7501 22.7869 10.7941 23.1713 10.8813ZM27.09 17.2738C26.8073 18.4096 26.1525 19.4182 25.2301 20.1388C24.3076 20.8594 23.1706 21.2506 22 21.25H18C17.6099 21.25 17.2309 21.3804 16.9233 21.6205C16.6158 21.8606 16.3973 22.1965 16.3025 22.575L15.1775 27.0613C15.1639 27.1152 15.1326 27.1631 15.0887 27.1973C15.0448 27.2315 14.9907 27.25 14.935 27.25H11C10.962 27.25 10.9244 27.2413 10.8902 27.2247C10.856 27.208 10.8261 27.1837 10.8027 27.1537C10.7793 27.1236 10.7631 27.0887 10.7552 27.0514C10.7474 27.0142 10.7482 26.9756 10.7575 26.9387L13.2575 16.9387C13.2712 16.8833 13.3035 16.8342 13.349 16.7996C13.3944 16.765 13.4504 16.7471 13.5075 16.7488H18.0075C19.5131 16.7503 20.9758 16.2477 22.1625 15.3211C23.3492 14.3945 24.1915 13.0973 24.555 11.6362C24.5725 11.5675 24.5863 11.4987 24.6 11.4312C25.5969 11.9988 26.3808 12.8769 26.8322 13.9315C27.2836 14.9861 27.3776 16.1594 27.1 17.2725L27.09 17.2738Z" fill="white"/>
</svg>
