<svg width="32" height="32" viewBox="0 0 32 32" fill="none" xmlns="http://www.w3.org/2000/svg">
<path d="M28.2388 9.34875L22.6525 3.7625C22.49 3.59998 22.2971 3.47106 22.0847 3.38311C21.8724 3.29515 21.6448 3.24988 21.415 3.24988C21.1852 3.24988 20.9576 3.29515 20.7453 3.38311C20.5329 3.47106 20.34 3.59998 20.1775 3.7625L4.7625 19.1763C4.59967 19.3385 4.47056 19.5314 4.3826 19.7438C4.29464 19.9562 4.24958 20.1839 4.25 20.4138V26C4.25 26.4641 4.43438 26.9093 4.76257 27.2374C5.09075 27.5656 5.53587 27.75 6 27.75H11.5863C11.8161 27.7504 12.0438 27.7054 12.2562 27.6174C12.4686 27.5294 12.6615 27.4003 12.8238 27.2375L23.5938 16.4675L24.17 18.77L19.47 23.47C19.3995 23.5395 19.3434 23.6222 19.305 23.7135C19.2666 23.8048 19.2467 23.9027 19.2463 24.0017C19.246 24.1007 19.2652 24.1988 19.303 24.2903C19.3408 24.3818 19.3963 24.465 19.4663 24.535C19.5364 24.6049 19.6196 24.6603 19.7111 24.698C19.8027 24.7356 19.9008 24.7548 19.9998 24.7543C20.0988 24.7538 20.1967 24.7338 20.288 24.6953C20.3792 24.6568 20.4619 24.6006 20.5313 24.53L25.5313 19.53C25.6229 19.4384 25.6893 19.3246 25.7239 19.1998C25.7585 19.0749 25.7602 18.9432 25.7288 18.8175L24.8313 15.23L28.2388 11.8238C28.4013 11.6612 28.5302 11.4683 28.6182 11.256C28.7061 11.0437 28.7514 10.8161 28.7514 10.5863C28.7514 10.3564 28.7061 10.1288 28.6182 9.91652C28.5302 9.70419 28.4013 9.51126 28.2388 9.34875ZM5.75 26V21.8113L10.19 26.25H6C5.9337 26.25 5.87011 26.2237 5.82323 26.1768C5.77634 26.1299 5.75 26.0663 5.75 26ZM12 25.9388L6.06 20L17 9.06125L22.94 15L12 25.9388ZM27.1775 10.7625L24 13.94L18.0613 8L21.2375 4.82375C21.2607 4.80051 21.2883 4.78207 21.3186 4.76949C21.349 4.75691 21.3815 4.75043 21.4144 4.75043C21.4472 4.75043 21.4798 4.75691 21.5101 4.76949C21.5405 4.78207 21.568 4.80051 21.5913 4.82375L27.1775 10.4088C27.2007 10.432 27.2192 10.4595 27.2318 10.4899C27.2444 10.5202 27.2508 10.5528 27.2508 10.5856C27.2508 10.6185 27.2444 10.651 27.2318 10.6814C27.2192 10.7117 27.2007 10.7393 27.1775 10.7625Z" fill="white"/>
</svg>
