<svg width="32" height="32" viewBox="0 0 32 32" fill="none" xmlns="http://www.w3.org/2000/svg">
<path d="M6.555 4.5C6.4177 4.37256 6.23768 4.30112 6.05035 4.29973C5.86303 4.29833 5.68196 4.3671 5.54278 4.49248C5.4036 4.61787 5.31638 4.79081 5.29829 4.97726C5.28019 5.16372 5.33253 5.35019 5.445 5.5L11.6313 12.3088L4.7625 19.1775C4.5996 19.3395 4.47043 19.5321 4.38246 19.7443C4.29449 19.9565 4.24947 20.184 4.25 20.4138V26C4.25 26.4641 4.43438 26.9093 4.76257 27.2374C5.09076 27.5656 5.53588 27.75 6 27.75H11.5863C11.8161 27.7504 12.0438 27.7054 12.2562 27.6174C12.4686 27.5294 12.6615 27.4003 12.8238 27.2375L19.3075 20.75L25.4463 27.5C25.5802 27.6472 25.7671 27.7352 25.9659 27.7445C26.1647 27.7539 26.3591 27.6839 26.5063 27.55C26.6535 27.4161 26.7414 27.2291 26.7508 27.0304C26.7602 26.8316 26.6902 26.6372 26.5563 26.49L6.555 4.5ZM11.7625 26.1775C11.7156 26.224 11.6523 26.2501 11.5863 26.25H6C5.9337 26.25 5.87011 26.2237 5.82323 26.1768C5.77634 26.1299 5.75 26.0663 5.75 26V20.4138C5.75028 20.3476 5.77681 20.2842 5.82375 20.2375L12.6413 13.42L18.2975 19.6425L11.7625 26.1775ZM28.2388 9.34875L22.6525 3.7625C22.49 3.59998 22.2971 3.47106 22.0847 3.38311C21.8724 3.29515 21.6448 3.24988 21.415 3.24988C21.1852 3.24988 20.9576 3.29515 20.7453 3.38311C20.5329 3.47106 20.34 3.59998 20.1775 3.7625L14.9688 8.97125C14.8299 9.11221 14.7524 9.30232 14.7531 9.50018C14.7538 9.69803 14.8326 9.8876 14.9724 10.0276C15.1122 10.1676 15.3017 10.2466 15.4996 10.2476C15.6974 10.2485 15.8876 10.1712 16.0288 10.0325L17 9.06L22.94 15L21.635 16.305C21.5645 16.3745 21.5084 16.4572 21.47 16.5485C21.4316 16.6398 21.4117 16.7377 21.4113 16.8367C21.411 16.9357 21.4302 17.0338 21.468 17.1253C21.5058 17.2169 21.5613 17.3 21.6313 17.37C21.7014 17.4399 21.7846 17.4953 21.8761 17.533C21.9677 17.5706 22.0658 17.5898 22.1648 17.5893C22.2638 17.5888 22.3617 17.5688 22.453 17.5303C22.5442 17.4918 22.6269 17.4356 22.6963 17.365L28.2388 11.8238C28.4013 11.6612 28.5302 11.4683 28.6182 11.256C28.7061 11.0437 28.7514 10.8161 28.7514 10.5863C28.7514 10.3564 28.7061 10.1288 28.6182 9.91652C28.5302 9.70419 28.4013 9.51126 28.2388 9.34875ZM27.1775 10.7625L24 13.94L18.0613 8L21.2388 4.82375C21.2856 4.77719 21.349 4.75106 21.415 4.75106C21.4811 4.75106 21.5444 4.77719 21.5913 4.82375L27.1775 10.4088C27.2007 10.432 27.2192 10.4595 27.2318 10.4899C27.2444 10.5202 27.2508 10.5528 27.2508 10.5856C27.2508 10.6185 27.2444 10.651 27.2318 10.6814C27.2192 10.7117 27.2007 10.7393 27.1775 10.7625Z" fill="white"/>
</svg>
