<svg width="32" height="32" viewBox="0 0 32 32" fill="none" xmlns="http://www.w3.org/2000/svg">
<path d="M26 4.25001H20C19.5359 4.25001 19.0908 4.43439 18.7626 4.76257C18.4344 5.09076 18.25 5.53588 18.25 6.00001V26C18.25 26.4641 18.4344 26.9093 18.7626 27.2374C19.0908 27.5656 19.5359 27.75 20 27.75H26C26.4641 27.75 26.9092 27.5656 27.2374 27.2374C27.5656 26.9093 27.75 26.4641 27.75 26V6.00001C27.75 5.53588 27.5656 5.09076 27.2374 4.76257C26.9092 4.43439 26.4641 4.25001 26 4.25001ZM26.25 26C26.25 26.0663 26.2237 26.1299 26.1768 26.1768C26.1299 26.2237 26.0663 26.25 26 26.25H20C19.9337 26.25 19.8701 26.2237 19.8232 26.1768C19.7763 26.1299 19.75 26.0663 19.75 26V21.75H23C23.1989 21.75 23.3897 21.671 23.5303 21.5303C23.671 21.3897 23.75 21.1989 23.75 21C23.75 20.8011 23.671 20.6103 23.5303 20.4697C23.3897 20.329 23.1989 20.25 23 20.25H19.75V16.75H23C23.1989 16.75 23.3897 16.671 23.5303 16.5303C23.671 16.3897 23.75 16.1989 23.75 16C23.75 15.8011 23.671 15.6103 23.5303 15.4697C23.3897 15.329 23.1989 15.25 23 15.25H19.75V11.75H23C23.1989 11.75 23.3897 11.671 23.5303 11.5303C23.671 11.3897 23.75 11.1989 23.75 11C23.75 10.8011 23.671 10.6103 23.5303 10.4697C23.3897 10.329 23.1989 10.25 23 10.25H19.75V6.00001C19.75 5.93371 19.7763 5.87012 19.8232 5.82323C19.8701 5.77635 19.9337 5.75001 20 5.75001H26C26.0663 5.75001 26.1299 5.77635 26.1768 5.82323C26.2237 5.87012 26.25 5.93371 26.25 6.00001V26ZM9.53 3.47001C9.38937 3.32956 9.19875 3.25067 9 3.25067C8.80125 3.25067 8.61063 3.32956 8.47 3.47001L4.47 7.47001C4.32931 7.61053 4.25018 7.80117 4.25 8.00001V26C4.25 26.4641 4.43437 26.9093 4.76256 27.2374C5.09075 27.5656 5.53587 27.75 6 27.75H12C12.4641 27.75 12.9092 27.5656 13.2374 27.2374C13.5656 26.9093 13.75 26.4641 13.75 26V8.00001C13.7498 7.80117 13.6707 7.61053 13.53 7.47001L9.53 3.47001ZM5.75 22.25V9.75001H8.25V22.25H5.75ZM9.75 9.75001H12.25V22.25H9.75V9.75001ZM9 5.06126L12.1888 8.25001H5.81375L9 5.06126ZM12 26.25H6C5.9337 26.25 5.87011 26.2237 5.82322 26.1768C5.77634 26.1299 5.75 26.0663 5.75 26V23.75H12.25V26C12.25 26.0663 12.2237 26.1299 12.1768 26.1768C12.1299 26.2237 12.0663 26.25 12 26.25Z" fill="white"/>
</svg>
