<svg width="32" height="32" viewBox="0 0 32 32" fill="none" xmlns="http://www.w3.org/2000/svg">
<path d="M28.2388 9.34875L22.6525 3.7625C22.49 3.59998 22.2971 3.47106 22.0847 3.38311C21.8724 3.29515 21.6448 3.24988 21.415 3.24988C21.1852 3.24988 20.9576 3.29515 20.7453 3.38311C20.5329 3.47106 20.34 3.59998 20.1775 3.7625L4.7625 19.1763C4.59967 19.3385 4.47056 19.5314 4.3826 19.7438C4.29464 19.9562 4.24958 20.1839 4.25 20.4138V26C4.25 26.4641 4.43438 26.9093 4.76257 27.2374C5.09075 27.5656 5.53587 27.75 6 27.75H27C27.1989 27.75 27.3897 27.671 27.5303 27.5303C27.671 27.3897 27.75 27.1989 27.75 27C27.75 26.8011 27.671 26.6103 27.5303 26.4697C27.3897 26.329 27.1989 26.25 27 26.25H13.8113L28.2388 11.8238C28.4013 11.6612 28.5302 11.4683 28.6182 11.256C28.7061 11.0437 28.7514 10.8161 28.7514 10.5863C28.7514 10.3564 28.7061 10.1288 28.6182 9.91652C28.5302 9.70419 28.4013 9.51126 28.2388 9.34875ZM9.56125 23.5L20.5 12.56L22.94 15L12 25.9388L9.56125 23.5ZM8.5 22.44L6.06125 20L17 9.06125L19.44 11.5L8.5 22.44ZM5.75 26V21.81L10.19 26.25H6C5.9337 26.25 5.87011 26.2237 5.82323 26.1768C5.77634 26.1299 5.75 26.0663 5.75 26ZM27.1775 10.7625L24 13.94L18.0613 8L21.2375 4.82375C21.2607 4.80051 21.2883 4.78207 21.3186 4.76949C21.349 4.75691 21.3815 4.75043 21.4144 4.75043C21.4472 4.75043 21.4798 4.75691 21.5101 4.76949C21.5405 4.78207 21.568 4.80051 21.5913 4.82375L27.1775 10.4088C27.2007 10.432 27.2192 10.4595 27.2318 10.4899C27.2444 10.5202 27.2508 10.5528 27.2508 10.5856C27.2508 10.6185 27.2444 10.651 27.2318 10.6814C27.2192 10.7117 27.2007 10.7393 27.1775 10.7625Z" fill="white"/>
</svg>
