<svg width="32" height="32" viewBox="0 0 32 32" fill="none" xmlns="http://www.w3.org/2000/svg">
<path d="M25.0151 6.98376C23.8346 5.78402 22.4283 4.82987 20.8773 4.17635C19.3263 3.52283 17.6612 3.18286 15.9781 3.17607C14.295 3.16927 12.6273 3.49578 11.071 4.13676C9.51475 4.77774 8.1008 5.7205 6.91071 6.91067C5.72063 8.10083 4.77796 9.51485 4.13709 11.0712C3.49622 12.6275 3.16983 14.2952 3.17674 15.9783C3.18365 17.6614 3.52373 19.3265 4.17736 20.8774C4.83099 22.4284 5.78524 23.8347 6.98506 25.015C8.16549 26.2147 9.57179 27.1689 11.1228 27.8224C12.6739 28.4759 14.3389 28.8159 16.022 28.8227C17.7051 28.8295 19.3729 28.503 20.9291 27.862C22.4854 27.221 23.8993 26.2783 25.0894 25.0881C26.2795 23.8979 27.2222 22.4839 27.863 20.9276C28.5039 19.3713 28.8303 17.7035 28.8234 16.0204C28.8165 14.3374 28.4764 12.6723 27.8228 11.1213C27.1691 9.57033 26.2149 8.16411 25.0151 6.98376ZM13.2501 16.75H18.7501L20.5126 20.57C19.7377 20.2282 18.8699 20.1588 18.0505 20.3731C17.2312 20.5873 16.5085 21.0727 16.0001 21.75C15.4919 21.0719 14.7692 20.586 13.9495 20.3712C13.1298 20.1565 12.2616 20.2257 11.4863 20.5675L13.2501 16.75ZM13.9426 15.25L16.0001 10.79L18.0588 15.25H13.9426ZM16.7501 24C16.7501 23.4033 16.9871 22.831 17.4091 22.409C17.831 21.9871 18.4033 21.75 19.0001 21.75C19.5968 21.75 20.1691 21.9871 20.591 22.409C21.013 22.831 21.2501 23.4033 21.2501 24V25.955C19.8564 26.6905 18.3227 27.1225 16.7501 27.2225V24ZM10.7501 24C10.7501 23.4033 10.9871 22.831 11.4091 22.409C11.831 21.9871 12.4033 21.75 13.0001 21.75C13.5968 21.75 14.1691 21.9871 14.591 22.409C15.013 22.831 15.2501 23.4033 15.2501 24V27.2225C13.6774 27.1225 12.1437 26.6905 10.7501 25.955V24ZM23.9551 23.955C23.5779 24.3306 23.1752 24.6797 22.7501 25V22C22.7501 21.8917 22.7266 21.7846 22.6813 21.6863L16.6813 8.68626C16.6213 8.55602 16.5253 8.4457 16.4046 8.36837C16.2838 8.29104 16.1434 8.24994 16.0001 8.24994C15.8567 8.24994 15.7163 8.29104 15.5956 8.36837C15.4748 8.4457 15.3788 8.55602 15.3188 8.68626L9.31881 21.6863C9.2735 21.7846 9.25005 21.8917 9.25006 22V25C8.82484 24.6793 8.42222 24.3298 8.04506 23.9538C6.47173 22.3804 5.40029 20.3759 4.96621 18.1936C4.53214 16.0113 4.75494 13.7493 5.60643 11.6936C6.45792 9.63797 7.89986 7.88097 9.74991 6.64481C11.6 5.40865 13.775 4.74885 16.0001 4.74885C18.2251 4.74885 20.4002 5.40865 22.2502 6.64481C24.1003 7.88097 25.5422 9.63797 26.3937 11.6936C27.2452 13.7493 27.468 16.0113 27.0339 18.1936C26.5998 20.3759 25.5284 22.3804 23.9551 23.9538V23.955Z" fill="white"/>
</svg>
