<svg width="32" height="32" viewBox="0 0 32 32" fill="none" xmlns="http://www.w3.org/2000/svg">
<path d="M30.75 11.585C30.7504 11.3551 30.7054 11.1274 30.6174 10.915C30.5294 10.7027 30.4003 10.5098 30.2375 10.3475L21.6513 1.7625C21.4887 1.59998 21.2958 1.47106 21.0835 1.38311C20.8712 1.29515 20.6436 1.24988 20.4138 1.24988C20.1839 1.24988 19.9563 1.29515 19.744 1.38311C19.5317 1.47106 19.3388 1.59998 19.1763 1.7625L15.585 5.35375L8.2775 8.095C7.98993 8.20265 7.73574 8.38406 7.54047 8.62102C7.34519 8.85799 7.2157 9.14216 7.165 9.445L4.26 26.875C4.24182 26.9826 4.24732 27.0928 4.27614 27.1981C4.30496 27.3033 4.35639 27.401 4.42685 27.4843C4.49731 27.5676 4.58509 27.6346 4.68409 27.6805C4.78308 27.7263 4.89089 27.7501 5 27.75C5.04186 27.7498 5.08365 27.7465 5.125 27.74L22.555 24.835C22.8581 24.7845 23.1425 24.6551 23.3797 24.4598C23.6169 24.2645 23.7985 24.0102 23.9063 23.7225L26.6463 16.415L30.2388 12.8225C30.4015 12.6602 30.5304 12.4673 30.6182 12.2549C30.7059 12.0425 30.7507 11.8148 30.75 11.585ZM22.5 23.1963C22.4846 23.2373 22.4588 23.2735 22.425 23.3014C22.3912 23.3292 22.3507 23.3477 22.3075 23.355L7.18625 25.875L13.795 19.265C14.473 19.6832 15.281 19.8378 16.0655 19.6995C16.85 19.5611 17.5564 19.1395 18.0505 18.5146C18.5446 17.8897 18.792 17.1051 18.7456 16.3099C18.6993 15.5146 18.3625 14.7641 17.7992 14.2008C17.236 13.6375 16.4854 13.3007 15.6901 13.2544C14.8949 13.208 14.1103 13.4554 13.4854 13.9495C12.8605 14.4436 12.4389 15.15 12.3005 15.9345C12.1622 16.719 12.3168 17.527 12.735 18.205L6.125 24.8163L8.64625 9.69125C8.65362 9.64844 8.67203 9.60828 8.69964 9.57475C8.72726 9.54121 8.76314 9.51545 8.80375 9.5L15.8113 6.875L25.125 16.1888L22.5 23.1963ZM13.75 16.5C13.75 16.1539 13.8526 15.8155 14.0449 15.5278C14.2372 15.24 14.5105 15.0157 14.8303 14.8832C15.1501 14.7508 15.5019 14.7161 15.8414 14.7836C16.1809 14.8512 16.4927 15.0178 16.7374 15.2626C16.9822 15.5073 17.1489 15.8191 17.2164 16.1586C17.2839 16.4981 17.2492 16.8499 17.1168 17.1697C16.9843 17.4895 16.76 17.7628 16.4722 17.9551C16.1845 18.1474 15.8461 18.25 15.5 18.25C15.0359 18.25 14.5908 18.0656 14.2626 17.7374C13.9344 17.4093 13.75 16.9641 13.75 16.5ZM29.1763 11.7625L26 14.9388L17.06 6L20.2375 2.8225C20.2607 2.79926 20.2883 2.78082 20.3186 2.76824C20.349 2.75566 20.3815 2.74918 20.4144 2.74918C20.4472 2.74918 20.4798 2.75566 20.5101 2.76824C20.5405 2.78082 20.568 2.79926 20.5913 2.8225L29.1763 11.4088C29.1995 11.432 29.2179 11.4595 29.2305 11.4899C29.2431 11.5202 29.2496 11.5528 29.2496 11.5856C29.2496 11.6185 29.2431 11.651 29.2305 11.6814C29.2179 11.7117 29.1995 11.7393 29.1763 11.7625Z" fill="white"/>
</svg>
