<svg width="32" height="32" viewBox="0 0 32 32" fill="none" xmlns="http://www.w3.org/2000/svg">
<path d="M28.0438 11.1437L17.0513 2.60247L17.035 2.58997C16.7348 2.36981 16.3723 2.2511 16 2.2511C15.6277 2.2511 15.2652 2.36981 14.965 2.58997L14.9488 2.60247L3.95625 11.1437C3.66426 11.3607 3.44716 11.6633 3.33514 12.0095C3.22312 12.3556 3.22177 12.728 3.33125 13.075L7.33125 26.52C7.33125 26.5262 7.33125 26.5312 7.33125 26.5362C7.4449 26.8893 7.66777 27.1971 7.96771 27.4152C8.26764 27.6334 8.62913 27.7506 9 27.75H23C23.3705 27.7501 23.7314 27.6326 24.0308 27.4145C24.3302 27.1964 24.5527 26.8889 24.6663 26.5362C24.6663 26.5362 24.6663 26.5262 24.6663 26.52L28.6663 13.075C28.776 12.7283 28.775 12.356 28.6635 12.0099C28.5519 11.6638 28.3353 11.3611 28.0438 11.1437ZM27.2375 12.625C27.2375 12.625 27.2375 12.635 27.2375 12.64L23.2375 26.0825C23.2203 26.1317 23.1882 26.1742 23.1456 26.2043C23.103 26.2343 23.0521 26.2503 23 26.25H9C8.94811 26.25 8.89749 26.2339 8.85516 26.2039C8.81282 26.1739 8.78088 26.1315 8.76375 26.0825L4.76376 12.64C4.76376 12.64 4.76376 12.63 4.76376 12.625C4.74753 12.5749 4.7475 12.5211 4.76365 12.471C4.77981 12.421 4.81134 12.3773 4.85376 12.3462L4.87 12.3337L15.8588 3.79622C15.9006 3.76719 15.9503 3.75163 16.0013 3.75163C16.0522 3.75163 16.1019 3.76719 16.1438 3.79622L27.1325 12.3337L27.1488 12.3462C27.1909 12.3775 27.2222 12.4212 27.2382 12.4713C27.2541 12.5213 27.2539 12.5751 27.2375 12.625Z" fill="white"/>
</svg>
