<svg width="32" height="32" viewBox="0 0 32 32" fill="none" xmlns="http://www.w3.org/2000/svg">
<path d="M20.6963 5.2825C20.523 4.16072 19.9546 3.1378 19.0934 2.39835C18.2322 1.65889 17.1351 1.25161 16 1.25C15.8011 1.25 15.6103 1.32902 15.4697 1.46967C15.329 1.61032 15.25 1.80109 15.25 2C15.25 2.19891 15.329 2.38968 15.4697 2.53033C15.6103 2.67098 15.8011 2.75 16 2.75C16.7393 2.74996 17.4565 3.00196 18.0332 3.46442C18.61 3.92687 19.0119 4.57215 19.1725 5.29375C17.2721 5.50006 15.5146 6.40059 14.2372 7.82269C12.9597 9.24479 12.2521 11.0884 12.25 13C12.25 18.9688 8.97127 22.96 2.50002 24.8662C2.12004 24.9771 1.78884 25.2134 1.5605 25.5367C1.33216 25.86 1.22016 26.2512 1.24279 26.6463C1.26542 27.0415 1.42135 27.4173 1.6851 27.7124C1.94886 28.0076 2.30488 28.2045 2.69502 28.2712C4.56307 28.5939 6.45557 28.7541 8.35127 28.75C13.3963 28.75 19.005 27.625 22.875 24.375C26.11 21.6613 27.75 17.8337 27.75 13C27.748 11.0658 27.0235 9.20211 25.7186 7.7744C24.4137 6.34669 22.6225 5.45797 20.6963 5.2825ZM20 6.75C21.3382 6.75164 22.6406 7.18195 23.7164 7.97785C24.7921 8.77374 25.5845 9.89335 25.9775 11.1725L24 12.16L20.335 10.3275C20.231 10.2756 20.1163 10.2485 20 10.2485C19.8837 10.2485 19.7691 10.2756 19.665 10.3275L16 12.16L14.0238 11.1713C14.4166 9.89233 15.2088 8.77292 16.2844 7.97723C17.3599 7.18153 18.6621 6.75143 20 6.75ZM21.91 23.2275C18.7688 25.8613 11.92 28.375 2.95877 26.7913C2.90089 26.7847 2.84748 26.757 2.80891 26.7133C2.77033 26.6697 2.74935 26.6132 2.75002 26.555C2.74287 26.4985 2.7573 26.4413 2.79044 26.395C2.82357 26.3486 2.87298 26.3165 2.92877 26.305C10.0075 24.2163 13.75 19.615 13.75 13C13.75 12.905 13.75 12.8112 13.7575 12.7175L15.665 13.6713C15.7691 13.7232 15.8837 13.7502 16 13.7502C16.1163 13.7502 16.231 13.7232 16.335 13.6713L20 11.8363L23.665 13.6687C23.7691 13.7207 23.8837 13.7477 24 13.7477C24.1163 13.7477 24.231 13.7207 24.335 13.6687L26.2425 12.715C26.2425 12.8088 26.25 12.9025 26.25 12.9975C26.25 17.375 24.79 20.8112 21.91 23.2262V23.2275Z" fill="white"/>
</svg>
