<svg width="32" height="32" viewBox="0 0 32 32" fill="none" xmlns="http://www.w3.org/2000/svg">
<path d="M25.5301 7.52874L7.53009 25.5287C7.38792 25.6612 7.19987 25.7333 7.00557 25.7299C6.81127 25.7265 6.62588 25.6478 6.48847 25.5104C6.35106 25.3729 6.27235 25.1876 6.26892 24.9933C6.26549 24.799 6.33761 24.6109 6.47009 24.4687L24.4701 6.46874C24.5396 6.39821 24.6223 6.34213 24.7136 6.30374C24.8048 6.26535 24.9028 6.24541 25.0018 6.24506C25.1008 6.24472 25.1989 6.26398 25.2904 6.30174C25.3819 6.33949 25.4651 6.39499 25.535 6.46504C25.605 6.53509 25.6604 6.6183 25.6981 6.70986C25.7357 6.80143 25.7549 6.89954 25.7544 6.99855C25.7539 7.09755 25.7339 7.19548 25.6954 7.28669C25.6569 7.37791 25.6007 7.46059 25.5301 7.52999V7.52874ZM6.50009 12.5C5.80594 11.8034 5.37482 10.8877 5.28022 9.90886C5.18561 8.93003 5.43338 7.94868 5.98128 7.13207C6.52919 6.31546 7.34333 5.71412 8.28494 5.43054C9.22656 5.14696 10.2374 5.1987 11.1451 5.57692C12.0529 5.95515 12.8014 6.63646 13.263 7.50475C13.7247 8.37303 13.871 9.37454 13.6769 10.3386C13.4829 11.3027 12.9606 12.1696 12.1989 12.7917C11.4373 13.4137 10.4835 13.7524 9.50009 13.75C8.94226 13.7501 8.38993 13.6397 7.87501 13.4252C7.36009 13.2106 6.89279 12.8962 6.50009 12.5ZM6.75009 9.49999C6.7503 10.1362 6.9711 10.7527 7.37487 11.2443C7.77864 11.736 8.34039 12.0725 8.96442 12.1964C9.58845 12.3203 10.2361 12.2241 10.7972 11.924C11.3582 11.6239 11.7978 11.1386 12.0411 10.5507C12.2844 9.96288 12.3163 9.30885 12.1315 8.70008C11.9466 8.09131 11.5564 7.56546 11.0273 7.21214C10.4982 6.85881 9.86301 6.69987 9.22987 6.76238C8.59673 6.8249 8.00486 7.10501 7.55509 7.55499C7.29898 7.80986 7.09596 8.113 6.95778 8.44686C6.81961 8.78072 6.74901 9.13867 6.75009 9.49999ZM26.7501 22.5C26.7525 23.4834 26.4138 24.4372 25.7918 25.1988C25.1697 25.9604 24.3028 26.4828 23.3387 26.6768C22.3746 26.8709 21.3731 26.7246 20.5049 26.2629C19.6366 25.8013 18.9553 25.0528 18.577 24.145C18.1988 23.2373 18.1471 22.2265 18.4306 21.2848C18.7142 20.3432 19.3156 19.5291 20.1322 18.9812C20.9488 18.4333 21.9301 18.1855 22.909 18.2801C23.8878 18.3747 24.8035 18.8058 25.5001 19.5C25.8963 19.8927 26.2107 20.36 26.4253 20.8749C26.6398 21.3898 26.7502 21.9422 26.7501 22.5ZM25.2501 22.5C25.2511 22.1387 25.1805 21.7808 25.0423 21.4469C24.9041 21.1131 24.7011 20.8099 24.4451 20.555C23.9953 20.105 23.4035 19.8249 22.7703 19.7624C22.1372 19.6999 21.502 19.8588 20.9729 20.2121C20.4438 20.5655 20.0536 21.0913 19.8687 21.7001C19.6839 22.3088 19.7158 22.9629 19.9591 23.5507C20.2024 24.1386 20.642 24.6239 21.203 24.924C21.764 25.2241 22.4117 25.3203 23.0358 25.1964C23.6598 25.0725 24.2215 24.736 24.6253 24.2443C25.0291 23.7527 25.2499 23.1362 25.2501 22.5Z" fill="white"/>
</svg>
