<svg width="32" height="32" viewBox="0 0 32 32" fill="none" xmlns="http://www.w3.org/2000/svg">
<path d="M30 15.25H27.75V5.99999C27.7499 5.74376 27.6936 5.49068 27.5849 5.25862C27.4763 5.02657 27.318 4.8212 27.1213 4.65702C26.9246 4.49285 26.6942 4.37388 26.4464 4.30851C26.1987 4.24315 25.9396 4.23298 25.6875 4.27874L5.6875 7.91499C5.28427 7.98817 4.91951 8.20055 4.65681 8.5151C4.39412 8.82965 4.25015 9.22642 4.25 9.63624V15.25H2C1.80109 15.25 1.61032 15.329 1.46967 15.4697C1.32902 15.6103 1.25 15.8011 1.25 16C1.25 16.1989 1.32902 16.3897 1.46967 16.5303C1.61032 16.671 1.80109 16.75 2 16.75H4.25V22.3637C4.25015 22.7736 4.39412 23.1703 4.65681 23.4849C4.91951 23.7994 5.28427 24.0118 5.6875 24.085L25.6875 27.7212C25.7906 27.74 25.8952 27.7497 26 27.75C26.4641 27.75 26.9092 27.5656 27.2374 27.2374C27.5656 26.9092 27.75 26.4641 27.75 26V16.75H30C30.1989 16.75 30.3897 16.671 30.5303 16.5303C30.671 16.3897 30.75 16.1989 30.75 16C30.75 15.8011 30.671 15.6103 30.5303 15.4697C30.3897 15.329 30.1989 15.25 30 15.25ZM5.75 9.63624C5.74903 9.57704 5.76911 9.51942 5.80665 9.47364C5.84419 9.42786 5.89676 9.39689 5.955 9.38624L25.955 5.74874H26.0012C26.0676 5.74874 26.1311 5.77508 26.178 5.82196C26.2249 5.86885 26.2512 5.93243 26.2512 5.99874V15.2487H5.75V9.63624ZM26.25 26C26.2499 26.0365 26.2418 26.0726 26.2262 26.1056C26.2107 26.1386 26.1881 26.1679 26.16 26.1912C26.132 26.2149 26.0991 26.2321 26.0636 26.2416C26.0282 26.2511 25.9911 26.2527 25.955 26.2462L5.955 22.6087C5.89676 22.5981 5.84419 22.5671 5.80665 22.5213C5.76911 22.4756 5.74903 22.4179 5.75 22.3587V16.75H26.25V26Z" fill="white"/>
</svg>
