<svg width="32" height="32" viewBox="0 0 32 32" fill="none" xmlns="http://www.w3.org/2000/svg">
<path d="M21.5 10.75C22.1428 10.75 22.7711 10.5594 23.3056 10.2023C23.8401 9.84516 24.2566 9.33758 24.5026 8.74372C24.7486 8.14986 24.813 7.4964 24.6876 6.86596C24.5622 6.23552 24.2526 5.65642 23.7981 5.2019C23.3436 4.74738 22.7645 4.43785 22.134 4.31245C21.5036 4.18705 20.8501 4.25141 20.2563 4.49739C19.6624 4.74338 19.1548 5.15994 18.7977 5.6944C18.4406 6.22886 18.25 6.85721 18.25 7.5C18.25 8.36195 18.5924 9.1886 19.2019 9.7981C19.8114 10.4076 20.638 10.75 21.5 10.75ZM21.5 5.75C21.8461 5.75 22.1845 5.85264 22.4722 6.04493C22.76 6.23722 22.9843 6.51053 23.1168 6.83031C23.2492 7.15008 23.2839 7.50194 23.2164 7.84141C23.1489 8.18088 22.9822 8.4927 22.7374 8.73744C22.4927 8.98218 22.1809 9.14885 21.8414 9.21638C21.5019 9.2839 21.1501 9.24924 20.8303 9.11679C20.5105 8.98434 20.2372 8.76004 20.0449 8.47225C19.8526 8.18446 19.75 7.84612 19.75 7.5C19.75 7.03587 19.9344 6.59075 20.2626 6.26256C20.5908 5.93438 21.0359 5.75 21.5 5.75ZM4.79 10.72L18.7238 14.7838L19.4738 15.5338C19.614 15.6722 19.803 15.7498 20 15.75H25C25.1989 15.75 25.3897 15.671 25.5303 15.5303C25.671 15.3897 25.75 15.1989 25.75 15C25.75 14.8011 25.671 14.6103 25.5303 14.4697C25.3897 14.329 25.1989 14.25 25 14.25H20.3113L16.53 10.4688C16.3894 10.3283 16.1988 10.2494 16 10.2494C15.8013 10.2494 15.6106 10.3283 15.47 10.4688L14.0738 11.865L5.21 9.28C5.11545 9.25242 5.01639 9.24374 4.91848 9.25444C4.82058 9.26515 4.72574 9.29503 4.63938 9.34239C4.55302 9.38975 4.47683 9.45365 4.41517 9.53046C4.35351 9.60726 4.30758 9.69545 4.28 9.79C4.25242 9.88455 4.24374 9.98361 4.25444 10.0815C4.26515 10.1794 4.29503 10.2743 4.34239 10.3606C4.38975 10.447 4.45365 10.5232 4.53045 10.5848C4.60726 10.6465 4.69545 10.6924 4.79 10.72ZM16 12.06L16.5175 12.5775L15.7163 12.3438L16 12.06ZM29.4163 25.3225C28.3861 26.0106 27.2176 26.4645 25.9931 26.6522C24.7685 26.8399 23.5177 26.7568 22.3288 26.4088L2.79 20.7188C2.69545 20.6912 2.60726 20.6452 2.53045 20.5836C2.45365 20.5219 2.38975 20.4457 2.34239 20.3594C2.24675 20.185 2.22431 19.9797 2.28 19.7888C2.3357 19.5978 2.46497 19.4368 2.63938 19.3411C2.81379 19.2455 3.01905 19.2231 3.21 19.2788L12.8513 22.0863L16.5688 18.375L10.7938 16.725C10.699 16.6979 10.6106 16.6524 10.5334 16.5912C10.4563 16.5299 10.392 16.454 10.3442 16.3679C10.2476 16.194 10.2241 15.9888 10.2788 15.7975C10.3335 15.6062 10.4619 15.4445 10.6358 15.3479C10.8098 15.2513 11.015 15.2278 11.2063 15.2825L18.2063 17.2825C18.3315 17.3186 18.4452 17.3867 18.5361 17.4801C18.627 17.5735 18.692 17.689 18.7247 17.8152C18.7574 17.9413 18.7566 18.0738 18.7225 18.1996C18.6883 18.3254 18.622 18.4402 18.53 18.5325L14.5 22.565L22.75 24.9688C23.7288 25.2555 24.7586 25.3241 25.7667 25.1697C26.7749 25.0153 27.7369 24.6416 28.585 24.075C28.7508 23.9646 28.9536 23.9246 29.1489 23.9637C29.3441 24.0029 29.5159 24.118 29.6263 24.2838C29.7366 24.4495 29.7767 24.6523 29.7375 24.8476C29.6984 25.0429 29.5833 25.2146 29.4175 25.325L29.4163 25.3225Z" fill="white"/>
</svg>
