<svg width="32" height="32" viewBox="0 0 32 32" fill="none" xmlns="http://www.w3.org/2000/svg">
<path d="M16 9.75C16.7417 9.75 17.4667 9.53007 18.0834 9.11801C18.7001 8.70596 19.1807 8.12029 19.4645 7.43506C19.7484 6.74984 19.8226 5.99584 19.6779 5.26841C19.5332 4.54098 19.1761 3.8728 18.6516 3.34835C18.1272 2.8239 17.459 2.46675 16.7316 2.32206C16.0042 2.17736 15.2502 2.25162 14.5649 2.53545C13.8797 2.81928 13.294 3.29993 12.882 3.91661C12.4699 4.5333 12.25 5.25832 12.25 6C12.25 6.99456 12.6451 7.94839 13.3483 8.65165C14.0516 9.35491 15.0054 9.75 16 9.75ZM16 3.75C16.445 3.75 16.88 3.88196 17.25 4.1292C17.62 4.37643 17.9084 4.72783 18.0787 5.13896C18.249 5.5501 18.2936 6.0025 18.2068 6.43896C18.1199 6.87541 17.9057 7.27632 17.591 7.59099C17.2763 7.90566 16.8754 8.11995 16.4389 8.20677C16.0025 8.29359 15.5501 8.24903 15.139 8.07873C14.7278 7.90843 14.3764 7.62005 14.1292 7.25003C13.882 6.88002 13.75 6.44501 13.75 6C13.75 5.40326 13.987 4.83097 14.409 4.40901C14.831 3.98705 15.4033 3.75 16 3.75ZM28.6425 16.3863C28.539 16.5555 28.3726 16.6769 28.1798 16.7238C27.9869 16.7706 27.7834 16.7391 27.6137 16.6363C27.5675 16.61 23.0525 13.9575 16.75 13.7613V18.7125L24.56 27.5C24.6926 27.6492 24.7605 27.8449 24.7488 28.0442C24.7371 28.2435 24.6467 28.4299 24.4975 28.5625C24.3483 28.6951 24.1526 28.763 23.9533 28.7513C23.754 28.7396 23.5676 28.6492 23.435 28.5L16 20.125L8.55999 28.5C8.49433 28.5739 8.41476 28.6341 8.32583 28.6772C8.2369 28.7203 8.14035 28.7455 8.04169 28.7513C7.84243 28.763 7.64668 28.6951 7.49749 28.5625C7.34831 28.4299 7.25791 28.2435 7.24619 28.0442C7.23447 27.8449 7.30238 27.6492 7.43499 27.5L15.25 18.715V13.7638C8.94749 13.9638 4.43124 16.6163 4.38499 16.6388C4.21461 16.7368 4.01256 16.764 3.82231 16.7145C3.63207 16.6651 3.46884 16.5429 3.36776 16.3743C3.26667 16.2058 3.23581 16.0042 3.28182 15.8131C3.32782 15.622 3.44701 15.4566 3.61374 15.3525C3.82499 15.23 8.87499 12.25 16 12.25C23.125 12.25 28.1737 15.23 28.3862 15.3575C28.5566 15.46 28.6792 15.6259 28.7273 15.8188C28.7753 16.0117 28.7448 16.2158 28.6425 16.3863Z" fill="white"/>
</svg>
