<svg width="32" height="32" viewBox="0 0 32 32" fill="none" xmlns="http://www.w3.org/2000/svg">
<path d="M16 9.75C16.7417 9.75 17.4667 9.53007 18.0834 9.11801C18.7001 8.70596 19.1807 8.12029 19.4645 7.43506C19.7484 6.74984 19.8226 5.99584 19.6779 5.26841C19.5332 4.54098 19.1761 3.8728 18.6517 3.34835C18.1272 2.8239 17.459 2.46675 16.7316 2.32206C16.0042 2.17736 15.2502 2.25162 14.5649 2.53545C13.8797 2.81928 13.294 3.29993 12.882 3.91661C12.4699 4.5333 12.25 5.25832 12.25 6C12.25 6.99456 12.6451 7.94839 13.3483 8.65165C14.0516 9.35491 15.0054 9.75 16 9.75ZM16 3.75C16.445 3.75 16.88 3.88196 17.25 4.1292C17.62 4.37643 17.9084 4.72783 18.0787 5.13896C18.249 5.5501 18.2936 6.0025 18.2068 6.43896C18.1199 6.87541 17.9057 7.27632 17.591 7.59099C17.2763 7.90566 16.8754 8.11995 16.439 8.20677C16.0025 8.29359 15.5501 8.24903 15.139 8.07873C14.7278 7.90843 14.3764 7.62005 14.1292 7.25003C13.882 6.88002 13.75 6.44501 13.75 6C13.75 5.40326 13.9871 4.83097 14.409 4.40901C14.831 3.98705 15.4033 3.75 16 3.75ZM27.75 13C27.75 13.1989 27.671 13.3897 27.5303 13.5303C27.3897 13.671 27.1989 13.75 27 13.75H16.75V17.5L23.295 20.3063C23.4307 20.3643 23.5462 20.4611 23.6272 20.5845C23.7081 20.7079 23.7508 20.8524 23.75 21V27C23.75 27.1989 23.671 27.3897 23.5303 27.5303C23.3897 27.671 23.1989 27.75 23 27.75C22.8011 27.75 22.6103 27.671 22.4697 27.5303C22.329 27.3897 22.25 27.1989 22.25 27V21.5L16.145 18.875L6.5 27.5575C6.35041 27.6775 6.16053 27.7357 5.96938 27.72C5.77823 27.7044 5.60035 27.6161 5.4723 27.4733C5.34425 27.3305 5.27576 27.1441 5.28091 26.9524C5.28606 26.7607 5.36446 26.5782 5.5 26.4425L15.25 17.6663V13.75H5C4.80109 13.75 4.61032 13.671 4.46967 13.5303C4.32902 13.3897 4.25 13.1989 4.25 13C4.25 12.8011 4.32902 12.6103 4.46967 12.4697C4.61032 12.329 4.80109 12.25 5 12.25H27C27.1989 12.25 27.3897 12.329 27.5303 12.4697C27.671 12.6103 27.75 12.8011 27.75 13Z" fill="white"/>
</svg>
