<svg width="32" height="32" viewBox="0 0 32 32" fill="none" xmlns="http://www.w3.org/2000/svg">
<path d="M19 9.75C19.7417 9.75 20.4667 9.53007 21.0834 9.11801C21.7001 8.70596 22.1807 8.12029 22.4646 7.43506C22.7484 6.74984 22.8227 5.99584 22.678 5.26841C22.5333 4.54098 22.1761 3.8728 21.6517 3.34835C21.1272 2.8239 20.459 2.46675 19.7316 2.32206C19.0042 2.17736 18.2502 2.25162 17.565 2.53545C16.8797 2.81928 16.2941 3.29993 15.882 3.91661C15.4699 4.5333 15.25 5.25832 15.25 6C15.25 6.99456 15.6451 7.94839 16.3484 8.65165C17.0516 9.35491 18.0055 9.75 19 9.75ZM19 3.75C19.445 3.75 19.88 3.88196 20.25 4.1292C20.6201 4.37643 20.9084 4.72783 21.0787 5.13896C21.249 5.5501 21.2936 6.0025 21.2068 6.43896C21.12 6.87541 20.9057 7.27632 20.591 7.59099C20.2763 7.90566 19.8754 8.11995 19.439 8.20677C19.0025 8.29359 18.5501 8.24903 18.139 8.07873C17.7278 7.90843 17.3764 7.62005 17.1292 7.25003C16.882 6.88002 16.75 6.44501 16.75 6C16.75 5.40326 16.9871 4.83097 17.409 4.40901C17.831 3.98705 18.4033 3.75 19 3.75ZM24.75 18V29C24.75 29.1989 24.671 29.3897 24.5303 29.5303C24.3897 29.671 24.1989 29.75 24 29.75C23.8011 29.75 23.6103 29.671 23.4697 29.5303C23.329 29.3897 23.25 29.1989 23.25 29V18.7263C19.9713 18.51 18.905 16.865 17.9563 15.4025C17.5275 14.74 17.1213 14.1138 16.5188 13.5875L14.625 17.9513L19.44 21.39C19.5364 21.4598 19.6147 21.5515 19.6686 21.6576C19.7225 21.7637 19.7504 21.881 19.75 22V29C19.75 29.1989 19.671 29.3897 19.5303 29.5303C19.3897 29.671 19.1989 29.75 19 29.75C18.8011 29.75 18.6103 29.671 18.4697 29.5303C18.329 29.3897 18.25 29.1989 18.25 29V22.3863L14.01 19.3575L9.68751 29.2988C9.60417 29.4747 9.45566 29.6114 9.27339 29.6798C9.09112 29.7483 8.88937 29.7431 8.71081 29.6655C8.53224 29.5879 8.39084 29.444 8.31652 29.264C8.24219 29.084 8.24075 28.8822 8.31252 28.7013L15.5 12.1613C15.541 12.0672 15.6008 11.9825 15.6758 11.9124C15.7507 11.8423 15.8393 11.7884 15.936 11.754C16.0326 11.7195 16.1354 11.7053 16.2377 11.7121C16.3401 11.719 16.44 11.7467 16.5313 11.7938C16.8748 11.972 17.1958 12.1906 17.4875 12.445C18.2563 13.1125 18.7375 13.8613 19.2113 14.5863C20.18 16.0738 20.9425 17.25 24 17.25C24.1989 17.25 24.3897 17.329 24.5303 17.4697C24.671 17.6103 24.75 17.8011 24.75 18ZM9.00001 18.75C9.14695 18.7501 9.29068 18.707 9.41335 18.6261C9.53601 18.5452 9.63222 18.4301 9.69001 18.295L12.69 11.295C12.7288 11.2044 12.7494 11.107 12.7505 11.0085C12.7517 10.9099 12.7334 10.8121 12.6967 10.7206C12.66 10.6292 12.6056 10.5458 12.5367 10.4753C12.4678 10.4049 12.3857 10.3487 12.295 10.31L8.79501 8.81C8.61217 8.73204 8.40585 8.72985 8.2214 8.80392C8.03694 8.87798 7.88942 9.02224 7.81127 9.205L4.81127 16.205C4.73323 16.3877 4.73086 16.5939 4.80468 16.7783C4.8785 16.9627 5.02248 17.1104 5.20501 17.1888L8.70501 18.6888C8.79819 18.7289 8.89855 18.7498 9.00001 18.75ZM6.48502 16.1063L8.89376 10.4813L11.0188 11.39L8.61001 17.015L6.48502 16.1063Z" fill="white"/>
</svg>
