<svg width="32" height="32" viewBox="0 0 32 32" fill="none" xmlns="http://www.w3.org/2000/svg">
<path d="M20.5 9.75C21.1428 9.75 21.7712 9.55939 22.3056 9.20228C22.8401 8.84516 23.2566 8.33758 23.5026 7.74372C23.7486 7.14986 23.813 6.4964 23.6876 5.86596C23.5622 5.23552 23.2526 4.65642 22.7981 4.2019C22.3436 3.74738 21.7645 3.43785 21.1341 3.31245C20.5036 3.18705 19.8502 3.25141 19.2563 3.49739C18.6624 3.74338 18.1549 4.15994 17.7977 4.6944C17.4406 5.22886 17.25 5.85721 17.25 6.5C17.25 7.36196 17.5924 8.1886 18.2019 8.7981C18.8114 9.40759 19.6381 9.75 20.5 9.75ZM20.5 4.75C20.8461 4.75 21.1845 4.85264 21.4723 5.04493C21.76 5.23722 21.9843 5.51053 22.1168 5.83031C22.2493 6.15008 22.2839 6.50194 22.2164 6.84141C22.1489 7.18088 21.9822 7.4927 21.7374 7.73744C21.4927 7.98218 21.1809 8.14885 20.8414 8.21638C20.502 8.2839 20.1501 8.24924 19.8303 8.11679C19.5105 7.98434 19.2372 7.76004 19.0449 7.47225C18.8526 7.18446 18.75 6.84612 18.75 6.5C18.75 6.03587 18.9344 5.59075 19.2626 5.26256C19.5908 4.93438 20.0359 4.75 20.5 4.75ZM27.2113 14.28L10.2113 9.28C10.116 9.24933 10.0155 9.23805 9.91575 9.24682C9.81602 9.25559 9.71905 9.28425 9.63057 9.33109C9.54208 9.37793 9.46388 9.44202 9.40055 9.51957C9.33723 9.59711 9.29007 9.68655 9.26186 9.78261C9.23366 9.87867 9.22497 9.97941 9.23631 10.0789C9.24764 10.1784 9.27879 10.2746 9.32789 10.3618C9.377 10.449 9.44308 10.5256 9.52223 10.5869C9.60138 10.6482 9.69201 10.693 9.78876 10.7188L15.22 12.3163L10.74 19.0375L4.97376 17.3663C4.53895 17.2382 4.08017 17.2139 3.63427 17.2953C3.18837 17.3767 2.76777 17.5616 2.40626 17.835C2.04635 18.1034 1.75431 18.4524 1.55352 18.8539C1.35274 19.2555 1.24879 19.6985 1.25001 20.1475C1.25354 20.775 1.45945 21.3845 1.83711 21.8856C2.21478 22.3867 2.74405 22.7525 3.34626 22.9288L23.0263 28.6325C23.2935 28.7102 23.5704 28.7497 23.8488 28.75C24.5475 28.7514 25.2231 28.5001 25.7511 28.0425C26.2791 27.585 26.624 26.952 26.722 26.2602C26.82 25.5684 26.6647 24.8645 26.2846 24.2782C25.9045 23.6919 25.3253 23.2628 24.6538 23.07L17.9638 21.1313L20.625 17.1675C20.6909 17.0695 20.7327 16.9573 20.747 16.8401C20.7613 16.7229 20.7478 16.604 20.7075 16.493C20.6671 16.382 20.6012 16.2821 20.515 16.2015C20.4287 16.1208 20.3247 16.0616 20.2113 16.0288L15.4613 14.6538L16.725 12.7588L26.7863 15.7175C26.8555 15.7389 26.9275 15.7499 27 15.75C27.1807 15.7503 27.3553 15.6854 27.492 15.5672C27.6286 15.449 27.7179 15.2855 27.7436 15.1067C27.7693 14.9279 27.7296 14.7458 27.6318 14.5939C27.534 14.4421 27.3847 14.3306 27.2113 14.28ZM25.25 25.8513C25.2506 26.0674 25.2005 26.2806 25.1036 26.4738C25.0068 26.6671 24.866 26.8349 24.6925 26.9638C24.5166 27.097 24.3118 27.187 24.0946 27.2266C23.8775 27.2661 23.6541 27.254 23.4425 27.1913L3.76376 21.4875C3.47296 21.4032 3.21717 21.2272 3.0345 20.9857C2.85183 20.7443 2.75204 20.4503 2.75001 20.1475C2.74942 19.9314 2.79956 19.7181 2.89638 19.5249C2.99321 19.3317 3.13403 19.1639 3.30751 19.035C3.48344 18.9017 3.68824 18.8117 3.90538 18.7722C4.12252 18.7327 4.34591 18.7448 4.55751 18.8075L24.2375 24.5113C24.5281 24.5958 24.7836 24.7719 24.966 25.0133C25.1485 25.2548 25.2481 25.5486 25.25 25.8513ZM18.805 17.1838L16.4513 20.6925L12.25 19.475L14.5913 15.9638L18.805 17.1838Z" fill="white"/>
</svg>
