<svg width="32" height="32" viewBox="0 0 32 32" fill="none" xmlns="http://www.w3.org/2000/svg">
<path d="M16 3.25C13.4783 3.25 11.0132 3.99777 8.91648 5.39876C6.81976 6.79975 5.18556 8.79103 4.22054 11.1208C3.25552 13.4505 3.00303 16.0141 3.49499 18.4874C3.98696 20.9607 5.20127 23.2325 6.98439 25.0156C8.76751 26.7987 11.0393 28.0131 13.5126 28.505C15.9859 28.997 18.5495 28.7445 20.8792 27.7795C23.209 26.8144 25.2003 25.1802 26.6012 23.0835C28.0022 20.9868 28.75 18.5217 28.75 16C28.746 12.6197 27.4015 9.379 25.0112 6.98877C22.621 4.59854 19.3803 3.25397 16 3.25ZM16 27.25C13.775 27.25 11.5999 26.5902 9.74984 25.354C7.89979 24.1179 6.45785 22.3609 5.60636 20.3052C4.75488 18.2495 4.53209 15.9875 4.96617 13.8052C5.40025 11.6229 6.47171 9.61839 8.04505 8.04505C9.6184 6.47171 11.623 5.40025 13.8052 4.96617C15.9875 4.53208 18.2495 4.75487 20.3052 5.60636C22.3609 6.45784 24.1179 7.89978 25.354 9.74984C26.5902 11.5999 27.25 13.775 27.25 16C27.2467 18.9827 26.0604 21.8422 23.9513 23.9513C21.8422 26.0604 18.9827 27.2467 16 27.25ZM14.25 10C14.25 9.65388 14.3526 9.31554 14.5449 9.02775C14.7372 8.73997 15.0105 8.51566 15.3303 8.38321C15.6501 8.25076 16.0019 8.2161 16.3414 8.28363C16.6809 8.35115 16.9927 8.51782 17.2374 8.76256C17.4822 9.0073 17.6489 9.31913 17.7164 9.65859C17.7839 9.99806 17.7492 10.3499 17.6168 10.6697C17.4843 10.9895 17.26 11.2628 16.9723 11.4551C16.6845 11.6474 16.3461 11.75 16 11.75C15.5359 11.75 15.0908 11.5656 14.7626 11.2374C14.4344 10.9092 14.25 10.4641 14.25 10ZM22.75 14C22.75 14.1989 22.671 14.3897 22.5303 14.5303C22.3897 14.671 22.1989 14.75 22 14.75H16.75V16.7725L20.625 22.5837C20.7354 22.7495 20.7754 22.9523 20.7363 23.1476C20.6971 23.3429 20.582 23.5146 20.4163 23.625C20.2505 23.7354 20.0477 23.7754 19.8524 23.7363C19.6571 23.6971 19.4854 23.582 19.375 23.4163L16 18.3525L12.625 23.4163C12.5703 23.4983 12.5 23.5688 12.4181 23.6237C12.3362 23.6787 12.2443 23.7169 12.1476 23.7363C12.0509 23.7557 11.9514 23.7558 11.8546 23.7367C11.7579 23.7176 11.6658 23.6797 11.5838 23.625C11.5017 23.5703 11.4312 23.5 11.3763 23.4181C11.3214 23.3362 11.2831 23.2443 11.2637 23.1476C11.2443 23.0509 11.2442 22.9514 11.2633 22.8546C11.2824 22.7579 11.3203 22.6658 11.375 22.5837L15.25 16.7725V14.75H10C9.80109 14.75 9.61033 14.671 9.46968 14.5303C9.32902 14.3897 9.25001 14.1989 9.25001 14C9.25001 13.8011 9.32902 13.6103 9.46968 13.4697C9.61033 13.329 9.80109 13.25 10 13.25H22C22.1989 13.25 22.3897 13.329 22.5303 13.4697C22.671 13.6103 22.75 13.8011 22.75 14Z" fill="white"/>
</svg>
