<svg width="32" height="32" viewBox="0 0 32 32" fill="none" xmlns="http://www.w3.org/2000/svg">
<path d="M22.0001 12.75C22.7418 12.75 23.4668 12.5301 24.0835 12.118C24.7002 11.706 25.1808 11.1203 25.4646 10.4351C25.7485 9.74984 25.8227 8.99584 25.678 8.26841C25.5333 7.54098 25.1762 6.8728 24.6517 6.34835C24.1273 5.8239 23.4591 5.46675 22.7317 5.32206C22.0042 5.17736 21.2502 5.25162 20.565 5.53545C19.8798 5.81928 19.2941 6.29993 18.8821 6.91661C18.47 7.5333 18.2501 8.25832 18.2501 9C18.2501 9.99456 18.6452 10.9484 19.3484 11.6517C20.0517 12.3549 21.0055 12.75 22.0001 12.75ZM22.0001 6.75C22.4451 6.75 22.8801 6.88196 23.2501 7.12919C23.6201 7.37643 23.9085 7.72783 24.0788 8.13896C24.2491 8.5501 24.2937 9.0025 24.2069 9.43895C24.12 9.87541 23.9057 10.2763 23.5911 10.591C23.2764 10.9057 22.8755 11.12 22.439 11.2068C22.0026 11.2936 21.5502 11.249 21.139 11.0787C20.7279 10.9084 20.3765 10.62 20.1293 10.25C19.882 9.88002 19.7501 9.44501 19.7501 9C19.7501 8.40326 19.9871 7.83097 20.4091 7.40901C20.8311 6.98705 21.4033 6.75 22.0001 6.75ZM27.5776 23.3225C27.6405 23.3983 27.6878 23.4858 27.7169 23.5799C27.746 23.6741 27.7562 23.773 27.747 23.8711C27.7379 23.9692 27.7094 24.0645 27.6634 24.1516C27.6174 24.2387 27.5547 24.3159 27.4788 24.3788C25.3701 26.1288 23.4788 26.7538 21.7601 26.7538C19.4863 26.7538 17.4938 25.6725 15.6426 24.6663C12.3926 22.9025 9.58759 21.3775 5.47884 24.7913C5.40226 24.8541 5.31405 24.9013 5.21924 24.9301C5.12443 24.9589 5.02488 24.9687 4.92628 24.959C4.82768 24.9493 4.73195 24.9203 4.64456 24.8736C4.55717 24.8269 4.47983 24.7635 4.41696 24.6869C4.28999 24.5322 4.22965 24.3335 4.24923 24.1343C4.2688 23.9352 4.36668 23.752 4.52133 23.625C9.41258 19.5688 13.1026 21.5738 16.3576 23.3413C19.6126 25.1088 22.4126 26.63 26.5213 23.2163C26.5976 23.1538 26.6855 23.107 26.7799 23.0785C26.8743 23.0501 26.9734 23.0405 27.0715 23.0504C27.1696 23.0602 27.2648 23.0893 27.3516 23.136C27.4385 23.1827 27.5153 23.2461 27.5776 23.3225ZM4.52133 18.625C4.36817 18.752 4.27172 18.9346 4.2532 19.1327C4.23468 19.3308 4.29561 19.5281 4.42259 19.6813C4.54956 19.8344 4.73217 19.9309 4.93026 19.9494C5.12834 19.9679 5.32567 19.907 5.47884 19.78C9.58759 16.3725 12.3938 17.8963 15.6426 19.655C17.5001 20.6675 19.4863 21.75 21.7601 21.75C23.4838 21.75 25.3701 21.125 27.4788 19.375C27.5547 19.3121 27.6174 19.2349 27.6634 19.1478C27.7094 19.0607 27.7378 18.9654 27.747 18.8673C27.7561 18.7692 27.7459 18.6703 27.7168 18.5762C27.6878 18.4821 27.6405 18.3946 27.5776 18.3188C27.5147 18.2429 27.4375 18.1802 27.3504 18.1342C27.2633 18.0882 27.168 18.0598 27.0699 18.0506C26.9718 18.0415 26.8729 18.0517 26.7788 18.0808C26.6847 18.1098 26.5972 18.1571 26.5213 18.22C25.5863 18.995 24.7176 19.515 23.8963 19.835L17.0451 12.9825C15.8639 11.7951 14.4589 10.8539 12.9115 10.2132C11.3641 9.57248 9.7049 9.24511 8.03008 9.25H5.00009C4.80117 9.25 4.61041 9.32902 4.46975 9.46967C4.3291 9.61032 4.25009 9.80109 4.25009 10C4.25009 10.1989 4.3291 10.3897 4.46975 10.5303C4.61041 10.671 4.80117 10.75 5.00009 10.75H8.03008C10.0125 10.746 11.9603 11.2693 13.6738 12.2663L9.66133 16.2788C8.09633 16.4075 6.39758 17.0713 4.52133 18.625ZM15.9851 14.045L22.1776 20.2388C20.1401 20.3963 18.3301 19.4138 16.3576 18.3425C14.9038 17.5525 13.3576 16.7175 11.6688 16.3925L14.9376 13.125C15.3047 13.4111 15.6545 13.7187 15.9851 14.0463V14.045Z" fill="white"/>
</svg>
