<svg width="32" height="32" viewBox="0 0 32 32" fill="none" xmlns="http://www.w3.org/2000/svg">
<path d="M19.0001 9.75C19.7418 9.75 20.4668 9.53007 21.0835 9.11801C21.7002 8.70596 22.1808 8.12029 22.4646 7.43506C22.7485 6.74984 22.8227 5.99584 22.678 5.26841C22.5333 4.54098 22.1762 3.8728 21.6517 3.34835C21.1273 2.8239 20.4591 2.46675 19.7317 2.32206C19.0042 2.17736 18.2502 2.25162 17.565 2.53545C16.8798 2.81928 16.2941 3.29993 15.8821 3.91661C15.47 4.5333 15.2501 5.25832 15.2501 6C15.2501 6.99456 15.6452 7.94839 16.3484 8.65165C17.0517 9.35491 18.0055 9.75 19.0001 9.75ZM19.0001 3.75C19.4451 3.75 19.8801 3.88196 20.2501 4.1292C20.6201 4.37643 20.9085 4.72783 21.0788 5.13896C21.2491 5.5501 21.2937 6.0025 21.2069 6.43896C21.12 6.87541 20.9057 7.27632 20.5911 7.59099C20.2764 7.90566 19.8755 8.11995 19.439 8.20677C19.0026 8.29359 18.5502 8.24903 18.1391 8.07873C17.7279 7.90843 17.3765 7.62005 17.1293 7.25003C16.882 6.88002 16.7501 6.44501 16.7501 6C16.7501 5.40326 16.9871 4.83097 17.4091 4.40901C17.8311 3.98705 18.4034 3.75 19.0001 3.75ZM26.7501 18C26.7501 18.1989 26.6711 18.3897 26.5304 18.5303C26.3898 18.671 26.199 18.75 26.0001 18.75C21.6901 18.75 19.6176 16.6563 17.7876 14.81C17.3538 14.3713 16.9438 13.9575 16.5188 13.5875L14.6251 17.9513L19.4401 21.39C19.5364 21.4598 19.6148 21.5515 19.6687 21.6576C19.7226 21.7637 19.7505 21.881 19.7501 22V29C19.7501 29.1989 19.6711 29.3897 19.5304 29.5303C19.3898 29.671 19.199 29.75 19.0001 29.75C18.8012 29.75 18.6104 29.671 18.4698 29.5303C18.3291 29.3897 18.2501 29.1989 18.2501 29V22.3863L14.0101 19.3575L9.68759 29.2988C9.60424 29.4747 9.45573 29.6114 9.27346 29.6798C9.09119 29.7483 8.88945 29.7431 8.71088 29.6655C8.53231 29.5879 8.39092 29.444 8.31659 29.264C8.24226 29.084 8.24083 28.8822 8.31259 28.7013L15.1876 12.875C13.9151 12.5313 12.3038 12.875 10.3738 13.9113C8.98448 14.6769 7.68765 15.5996 6.50884 16.6613C6.36326 16.7934 6.17159 16.8632 5.9751 16.8554C5.77861 16.8477 5.59303 16.7631 5.45831 16.6198C5.32359 16.4766 5.25051 16.2862 5.25482 16.0896C5.25913 15.893 5.34047 15.706 5.48134 15.5688C6.74701 14.4196 8.14274 13.4224 9.64009 12.5975C12.8813 10.8475 15.5951 10.7988 17.4863 12.44C17.9576 12.8488 18.4113 13.3063 18.8488 13.7488C20.5513 15.4675 22.3101 17.2488 25.9951 17.2488C26.0941 17.2481 26.1923 17.267 26.2839 17.3045C26.3756 17.342 26.4589 17.3972 26.5291 17.4671C26.5993 17.5369 26.655 17.62 26.6929 17.7114C26.7308 17.8029 26.7503 17.901 26.7501 18Z" fill="white"/>
</svg>
