<svg width="32" height="32" viewBox="0 0 32 32" fill="none" xmlns="http://www.w3.org/2000/svg">
<path d="M19.0001 10.75C19.7418 10.75 20.4668 10.5301 21.0835 10.118C21.7002 9.70596 22.1808 9.12029 22.4646 8.43506C22.7485 7.74984 22.8227 6.99584 22.678 6.26841C22.5333 5.54098 22.1762 4.8728 21.6517 4.34835C21.1273 3.8239 20.4591 3.46675 19.7317 3.32206C19.0042 3.17736 18.2502 3.25162 17.565 3.53545C16.8798 3.81928 16.2941 4.29993 15.8821 4.91661C15.47 5.5333 15.2501 6.25832 15.2501 7C15.2501 7.99456 15.6452 8.94839 16.3484 9.65165C17.0517 10.3549 18.0055 10.75 19.0001 10.75ZM19.0001 4.75C19.4451 4.75 19.8801 4.88196 20.2501 5.1292C20.6201 5.37643 20.9085 5.72783 21.0788 6.13896C21.2491 6.5501 21.2937 7.0025 21.2068 7.43896C21.12 7.87541 20.9057 8.27632 20.5911 8.59099C20.2764 8.90566 19.8755 9.11995 19.439 9.20677C19.0026 9.29359 18.5502 9.24903 18.139 9.07873C17.7279 8.90843 17.3765 8.62005 17.1293 8.25004C16.882 7.88002 16.7501 7.44501 16.7501 7C16.7501 6.40326 16.9871 5.83097 17.4091 5.40901C17.831 4.98705 18.4033 4.75 19.0001 4.75ZM27.3113 17.3575C27.2376 17.3913 26.4151 17.7488 24.9513 17.7488C23.2188 17.7488 20.5888 17.2488 17.2351 15.1238C16.6977 16.7282 15.9661 18.2608 15.0563 19.6875C16.2351 20.035 17.8063 20.6525 19.2051 21.72C21.5576 23.5063 22.7501 25.9563 22.7501 29C22.7501 29.1989 22.6711 29.3897 22.5304 29.5303C22.3898 29.671 22.199 29.75 22.0001 29.75C21.8012 29.75 21.6104 29.671 21.4697 29.5303C21.3291 29.3897 21.2501 29.1989 21.2501 29C21.2501 23.5 16.5963 21.6025 14.1363 20.9863C14.0363 21.1154 13.9338 21.2442 13.8288 21.3725C11.4226 24.2863 8.41133 25.8038 5.06508 25.8038C4.68442 25.805 4.30394 25.787 3.92508 25.75C3.82659 25.7402 3.731 25.711 3.64378 25.6642C3.55655 25.6174 3.4794 25.5539 3.41672 25.4773C3.29013 25.3226 3.23019 25.1239 3.25008 24.925C3.26997 24.7261 3.36807 24.5432 3.52278 24.4166C3.6775 24.2901 3.87617 24.2301 4.07508 24.25C7.40383 24.5825 10.2963 23.2925 12.6713 20.4138C14.3163 18.4213 15.4138 15.975 15.9313 14.27C10.8676 11.205 7.60758 13.6725 7.46633 13.7838C7.31041 13.9028 7.11407 13.9559 6.9194 13.9319C6.72473 13.9079 6.54722 13.8085 6.42493 13.6552C6.30263 13.5018 6.24528 13.3066 6.26517 13.1115C6.28506 12.9164 6.38061 12.7368 6.53133 12.6113C6.57758 12.5738 7.70508 11.6825 9.62633 11.3613C11.3588 11.0725 14.1163 11.1988 17.4213 13.445C23.3138 17.445 26.6563 16.0038 26.6888 15.9888C26.7785 15.9477 26.8753 15.9247 26.9738 15.9211C27.0723 15.9175 27.1706 15.9333 27.263 15.9677C27.3554 16.002 27.4401 16.0543 27.5123 16.1214C27.5845 16.1885 27.6428 16.2691 27.6838 16.3588C27.7249 16.4484 27.7479 16.5452 27.7515 16.6437C27.7551 16.7422 27.7393 16.8405 27.7049 16.9329C27.6705 17.0253 27.6183 17.11 27.5512 17.1822C27.4841 17.2544 27.4035 17.3127 27.3138 17.3538L27.3113 17.3575Z" fill="white"/>
</svg>
