<svg width="32" height="32" viewBox="0 0 32 32" fill="none" xmlns="http://www.w3.org/2000/svg">
<path d="M17.25 9.00001C17.25 8.8011 17.329 8.61033 17.4697 8.46968C17.6103 8.32903 17.8011 8.25001 18 8.25001H25.1888L22.47 5.53001C22.3375 5.38783 22.2654 5.19979 22.2688 5.00549C22.2723 4.81119 22.351 4.6258 22.4884 4.48839C22.6258 4.35097 22.8112 4.27226 23.0055 4.26883C23.1998 4.26541 23.3878 4.33753 23.53 4.47001L27.53 8.47001C27.6705 8.61064 27.7494 8.80126 27.7494 9.00001C27.7494 9.19876 27.6705 9.38938 27.53 9.53001L23.53 13.53C23.3878 13.6625 23.1998 13.7346 23.0055 13.7312C22.8112 13.7278 22.6258 13.649 22.4884 13.5116C22.351 13.3742 22.2723 13.1888 22.2688 12.9945C22.2654 12.8002 22.3375 12.6122 22.47 12.47L25.1888 9.75001H18C17.8011 9.75001 17.6103 9.67099 17.4697 9.53034C17.329 9.38969 17.25 9.19892 17.25 9.00001ZM27.7363 22.8538C27.5213 24.4871 26.719 25.9864 25.4794 27.0714C24.2397 28.1565 22.6475 28.7532 21 28.75C11.2125 28.75 3.25001 20.7875 3.25001 11C3.24686 9.35256 3.84354 7.7603 4.9286 6.52066C6.01367 5.28101 7.5129 4.47876 9.14626 4.26376C9.52226 4.21807 9.90293 4.2956 10.2311 4.4847C10.5593 4.67381 10.8173 4.96429 10.9663 5.31251L13.6038 11.2013C13.72 11.4676 13.7681 11.7588 13.7436 12.0483C13.7192 12.3379 13.623 12.6169 13.4638 12.86C13.4477 12.8848 13.4302 12.9086 13.4113 12.9313L10.7775 16.0638C10.7615 16.0962 10.7532 16.1319 10.7532 16.1681C10.7532 16.2043 10.7615 16.24 10.7775 16.2725C11.735 18.2338 13.79 20.2725 15.7775 21.2288C15.8107 21.2439 15.8469 21.2511 15.8834 21.2498C15.9198 21.2485 15.9555 21.2387 15.9875 21.2213L19.0738 18.5963C19.0958 18.5771 19.1192 18.5595 19.1438 18.5438C19.3859 18.3823 19.6646 18.2838 19.9544 18.2572C20.2443 18.2305 20.5362 18.2766 20.8038 18.3913L26.7088 21.0375C27.0524 21.1898 27.3378 21.4486 27.5228 21.7757C27.7079 22.1028 27.7827 22.4808 27.7363 22.8538ZM26.25 22.665C26.2542 22.6127 26.2419 22.5605 26.2147 22.5156C26.1876 22.4707 26.147 22.4356 26.0988 22.415L20.1925 19.7688C20.1599 19.7568 20.1252 19.7517 20.0906 19.7538C20.0559 19.756 20.0221 19.7653 19.9913 19.7813L16.9075 22.4063C16.885 22.425 16.8613 22.4425 16.8375 22.4588C16.5859 22.6266 16.295 22.7263 15.9934 22.7482C15.6917 22.7701 15.3895 22.7134 15.1163 22.5838C12.8213 21.475 10.5338 19.2088 9.42501 16.935C9.29461 16.6634 9.23656 16.3626 9.25648 16.0619C9.27641 15.7613 9.37364 15.4708 9.53876 15.2188C9.55486 15.1937 9.57283 15.1699 9.59251 15.1475L12.2238 12.0113C12.2388 11.9785 12.2466 11.9429 12.2466 11.9069C12.2466 11.8709 12.2388 11.8352 12.2238 11.8025L9.59251 5.91376C9.57514 5.86647 9.54388 5.82553 9.50284 5.79631C9.4618 5.76709 9.41289 5.75095 9.36251 5.75001H9.33376C8.06244 5.91912 6.89613 6.54519 6.05263 7.51129C5.20913 8.4774 4.7461 9.71749 4.75001 11C4.75001 19.96 12.04 27.25 21 27.25C22.2827 27.2539 23.523 26.7907 24.4891 25.9469C25.4552 25.1032 26.0812 23.9366 26.25 22.665Z" fill="white"/>
</svg>
