<svg width="32" height="32" viewBox="0 0 32 32" fill="none" xmlns="http://www.w3.org/2000/svg">
<path d="M18.275 5.80626C18.3004 5.71102 18.3443 5.62172 18.4042 5.54347C18.4642 5.46521 18.5389 5.39954 18.6243 5.3502C18.7096 5.30086 18.8038 5.26882 18.9015 5.25592C18.9993 5.24302 19.0986 5.24951 19.1938 5.27501C21.0052 5.74753 22.658 6.69446 23.9818 8.01824C25.3056 9.34201 26.2525 10.9948 26.725 12.8063C26.7505 12.9015 26.757 13.0008 26.7441 13.0985C26.7312 13.1962 26.6992 13.2904 26.6498 13.3758C26.6005 13.4611 26.5348 13.5358 26.4566 13.5958C26.3783 13.6557 26.289 13.6996 26.1938 13.725C26.1306 13.7418 26.0654 13.7502 26 13.75C25.8348 13.7501 25.6741 13.6956 25.543 13.595C25.4119 13.4945 25.3177 13.3534 25.275 13.1938C24.8693 11.6377 24.0561 10.2181 22.919 9.08101C21.782 7.94396 20.3623 7.13069 18.8063 6.72501C18.711 6.69962 18.6217 6.6557 18.5435 6.59577C18.4652 6.53585 18.3995 6.46108 18.3502 6.37575C18.3009 6.29042 18.2688 6.19621 18.2559 6.09849C18.243 6.00077 18.2495 5.90147 18.275 5.80626ZM17.8063 10.725C19.625 11.21 20.79 12.375 21.275 14.1938C21.3177 14.3534 21.4119 14.4945 21.543 14.595C21.6741 14.6956 21.8348 14.7501 22 14.75C22.0654 14.7502 22.1306 14.7418 22.1938 14.725C22.289 14.6996 22.3783 14.6557 22.4566 14.5958C22.5348 14.5358 22.6005 14.4611 22.6498 14.3758C22.6992 14.2904 22.7312 14.1962 22.7441 14.0985C22.757 14.0008 22.7505 13.9015 22.725 13.8063C22.1 11.4675 20.5325 9.90001 18.1938 9.27501C18.0986 9.24957 17.9993 9.24312 17.9016 9.25605C17.8039 9.26898 17.7097 9.30102 17.6244 9.35036C17.539 9.39969 17.4643 9.46534 17.4043 9.54356C17.3444 9.62179 17.3005 9.71105 17.275 9.80626C17.2496 9.90147 17.2431 10.0008 17.2561 10.0985C17.269 10.1962 17.301 10.2903 17.3504 10.3757C17.3997 10.461 17.4653 10.5357 17.5436 10.5957C17.6218 10.6556 17.7111 10.6996 17.8063 10.725ZM27.7363 22.85C27.5221 24.4841 26.7202 25.9842 25.4805 27.07C24.2407 28.1558 22.648 28.753 21 28.75C11.2125 28.75 3.25001 20.7875 3.25001 11C3.24686 9.35256 3.84354 7.7603 4.9286 6.52066C6.01367 5.28101 7.5129 4.47876 9.14626 4.26376C9.52226 4.21807 9.90293 4.2956 10.2311 4.4847C10.5593 4.67381 10.8173 4.96429 10.9663 5.31251L13.6038 11.2C13.7202 11.4665 13.7684 11.7579 13.744 12.0477C13.7195 12.3376 13.6232 12.6167 13.4638 12.86C13.4477 12.8848 13.4302 12.9086 13.4113 12.9313L10.7775 16.0638C10.7615 16.0962 10.7532 16.1319 10.7532 16.1681C10.7532 16.2043 10.7615 16.24 10.7775 16.2725C11.735 18.2325 13.79 20.2725 15.7775 21.2288C15.8107 21.2439 15.8469 21.2511 15.8834 21.2498C15.9198 21.2485 15.9555 21.2387 15.9875 21.2213L19.0738 18.5963C19.0958 18.5771 19.1192 18.5595 19.1438 18.5438C19.3859 18.3823 19.6646 18.2838 19.9544 18.2572C20.2443 18.2305 20.5362 18.2766 20.8038 18.3913L26.7088 21.0375C27.0524 21.1898 27.3378 21.4486 27.5228 21.7757C27.7079 22.1028 27.7827 22.4808 27.7363 22.8538V22.85ZM26.25 22.665C26.2542 22.6127 26.2419 22.5605 26.2147 22.5156C26.1876 22.4707 26.147 22.4356 26.0988 22.415L20.1925 19.7688C20.1602 19.7563 20.1257 19.751 20.0911 19.7531C20.0566 19.7553 20.023 19.7649 19.9925 19.7813L16.9075 22.4063C16.885 22.425 16.8613 22.4425 16.8375 22.4588C16.5859 22.6266 16.295 22.7263 15.9934 22.7482C15.6917 22.7701 15.3895 22.7134 15.1163 22.5838C12.8213 21.475 10.5338 19.2088 9.42501 16.935C9.29461 16.6634 9.23656 16.3626 9.25648 16.0619C9.27641 15.7613 9.37364 15.4708 9.53876 15.2188C9.55486 15.1937 9.57283 15.1699 9.59251 15.1475L12.2238 12.0113C12.2388 11.9785 12.2466 11.9429 12.2466 11.9069C12.2466 11.8709 12.2388 11.8352 12.2238 11.8025L9.59251 5.91376C9.57514 5.86647 9.54388 5.82553 9.50284 5.79631C9.4618 5.76709 9.41289 5.75095 9.36251 5.75001H9.33376C8.06244 5.91912 6.89613 6.54519 6.05263 7.51129C5.20913 8.4774 4.7461 9.71749 4.75001 11C4.75001 19.96 12.04 27.25 21 27.25C22.2827 27.2539 23.523 26.7907 24.4891 25.9469C25.4552 25.1032 26.0812 23.9366 26.25 22.665Z" fill="white"/>
</svg>
