<svg width="32" height="32" viewBox="0 0 32 32" fill="none" xmlns="http://www.w3.org/2000/svg">
<path d="M6.55504 4.5001C6.41773 4.37266 6.23771 4.30122 6.05038 4.29983C5.86306 4.29843 5.68199 4.3672 5.54281 4.49258C5.40363 4.61797 5.31641 4.79091 5.29832 4.97736C5.28022 5.16382 5.33256 5.35029 5.44504 5.5001L9.13504 9.56385C6.92049 10.4411 4.90945 11.7634 3.22629 13.4489C0.820036 15.8564 0.587536 19.4051 2.66129 22.0739C2.89309 22.3696 3.21395 22.583 3.57639 22.6822C3.93883 22.7815 4.32361 22.7615 4.67379 22.6251L10.7988 20.4539L10.8263 20.4426C11.097 20.3352 11.3364 20.1617 11.5227 19.9379C11.709 19.714 11.8361 19.447 11.8925 19.1614L12.63 15.4726C12.638 15.4318 12.656 15.3937 12.6824 15.3616C12.7088 15.3295 12.7428 15.3045 12.7813 15.2889C13.1901 15.1474 13.6076 15.0326 14.0313 14.9451L25.445 27.5001C25.579 27.6473 25.7659 27.7353 25.9647 27.7446C26.1635 27.754 26.3578 27.684 26.505 27.5501C26.6522 27.4162 26.7402 27.2292 26.7496 27.0305C26.7589 26.8317 26.689 26.6373 26.555 26.4901L6.55504 4.5001ZM12.2863 13.8751C12.002 13.9772 11.7489 14.1512 11.5518 14.3801C11.3546 14.609 11.2201 14.885 11.1613 15.1814L10.4213 18.8751C10.4133 18.9142 10.3961 18.9508 10.3711 18.9819C10.3461 19.013 10.314 19.0377 10.2775 19.0539L4.16004 21.2214L4.13254 21.2314C4.08331 21.2512 4.02903 21.2549 3.97756 21.2419C3.9261 21.2288 3.88012 21.1998 3.84629 21.1589C2.22129 19.0676 2.40129 16.3951 4.28754 14.5101C5.96154 12.8327 7.98749 11.5484 10.2188 10.7501L12.8863 13.6851C12.6838 13.7501 12.4838 13.8089 12.2863 13.8751ZM29.3388 22.0764C29.107 22.3721 28.7861 22.5855 28.4237 22.6847C28.0612 22.784 27.6765 22.764 27.3263 22.6276L26.1663 22.2164C26.0712 22.1853 25.9833 22.1355 25.9078 22.07C25.8322 22.0045 25.7705 21.9245 25.7264 21.8347C25.6822 21.745 25.6564 21.6474 25.6505 21.5475C25.6446 21.4477 25.6588 21.3477 25.6921 21.2534C25.7255 21.1591 25.7774 21.0724 25.8447 20.9985C25.912 20.9245 25.9935 20.8648 26.0843 20.8228C26.175 20.7808 26.2733 20.7574 26.3732 20.7539C26.4732 20.7504 26.5728 20.767 26.6663 20.8026L27.8388 21.2189L27.8663 21.2289C27.9155 21.2487 27.9698 21.2524 28.0213 21.2394C28.0727 21.2263 28.1187 21.1973 28.1525 21.1564C29.7775 19.0651 29.5975 16.3926 27.7113 14.5076C24.455 11.2501 19.8575 9.5251 15.1038 9.77385C15.0053 9.77903 14.9067 9.76475 14.8138 9.73183C14.7208 9.69892 14.6352 9.64801 14.5619 9.58203C14.4139 9.44876 14.3249 9.26214 14.3144 9.06323C14.304 8.86432 14.373 8.6694 14.5062 8.52137C14.6395 8.37333 14.8261 8.2843 15.025 8.27385C20.205 8.0051 25.215 9.8901 28.775 13.4476C31.18 15.8564 31.4125 19.4051 29.3388 22.0789V22.0764Z" fill="white"/>
</svg>
