<svg width="32" height="32" viewBox="0 0 32 32" fill="none" xmlns="http://www.w3.org/2000/svg">
<path d="M18.47 13.5301C18.3296 13.3894 18.2507 13.1988 18.2507 13.0001C18.2507 12.8013 18.3296 12.6107 18.47 12.4701L23.19 7.75007H20C19.8011 7.75007 19.6103 7.67105 19.4697 7.5304C19.329 7.38975 19.25 7.19898 19.25 7.00007C19.25 6.80116 19.329 6.61039 19.4697 6.46974C19.6103 6.32909 19.8011 6.25007 20 6.25007H25C25.1989 6.25007 25.3897 6.32909 25.5303 6.46974C25.671 6.61039 25.75 6.80116 25.75 7.00007V12.0001C25.75 12.199 25.671 12.3897 25.5303 12.5304C25.3897 12.6711 25.1989 12.7501 25 12.7501C24.8011 12.7501 24.6103 12.6711 24.4697 12.5304C24.329 12.3897 24.25 12.199 24.25 12.0001V8.81007L19.53 13.5301C19.3894 13.6705 19.1988 13.7494 19 13.7494C18.8013 13.7494 18.6106 13.6705 18.47 13.5301ZM27.7363 22.8538C27.5213 24.4872 26.719 25.9864 25.4794 27.0715C24.2397 28.1565 22.6475 28.7532 21 28.7501C11.2125 28.7501 3.25001 20.7876 3.25001 11.0001C3.24659 9.35255 3.84318 7.76015 4.92829 6.52045C6.01341 5.28074 7.5128 4.47857 9.14626 4.26382C9.52212 4.21803 9.90268 4.29538 10.2308 4.48425C10.559 4.67312 10.8171 4.96333 10.9663 5.31132L13.6038 11.2001C13.72 11.4664 13.7681 11.7576 13.7436 12.0472C13.7192 12.3368 13.623 12.6157 13.4638 12.8588C13.4477 12.884 13.4302 12.9082 13.4113 12.9313L10.7775 16.0563C10.7615 16.089 10.7532 16.1249 10.7532 16.1613C10.7532 16.1977 10.7615 16.2336 10.7775 16.2663C11.735 18.2263 13.79 20.2663 15.7775 21.2226C15.8107 21.2377 15.847 21.2449 15.8834 21.2436C15.9198 21.2423 15.9555 21.2325 15.9875 21.2151L19.0738 18.5901C19.0958 18.5709 19.1192 18.5533 19.1438 18.5376C19.3859 18.3761 19.6646 18.2776 19.9544 18.251C20.2443 18.2243 20.5362 18.2704 20.8038 18.3851L26.7088 21.0313C27.0535 21.1839 27.3397 21.4437 27.5249 21.7721C27.71 22.1005 27.7841 22.4799 27.7363 22.8538ZM26.25 22.6651C26.2542 22.6128 26.2419 22.5605 26.2147 22.5157C26.1876 22.4708 26.147 22.4356 26.0988 22.4151L20.1925 19.7688C20.1602 19.7564 20.1257 19.751 20.0911 19.7532C20.0566 19.7554 20.023 19.7649 19.9925 19.7813L16.9075 22.4063C16.885 22.4251 16.8613 22.4426 16.8375 22.4588C16.5859 22.6266 16.295 22.7263 15.9934 22.7483C15.6917 22.7702 15.3895 22.7135 15.1163 22.5838C12.8213 21.4751 10.5338 19.2088 9.42501 16.9351C9.29461 16.6634 9.23656 16.3627 9.25649 16.062C9.27641 15.7613 9.37365 15.4709 9.53876 15.2188C9.55486 15.1938 9.57283 15.1699 9.59251 15.1476L12.2238 12.0113C12.2388 11.9786 12.2466 11.943 12.2466 11.9069C12.2466 11.8709 12.2388 11.8353 12.2238 11.8026L9.59251 5.91382C9.57514 5.86653 9.54389 5.82559 9.50284 5.79637C9.4618 5.76715 9.41289 5.75101 9.36251 5.75007H9.33376C8.06233 5.91893 6.89587 6.54492 6.05232 7.51108C5.20877 8.47725 4.74584 9.71748 4.75001 11.0001C4.75001 19.9601 12.04 27.2501 21 27.2501C22.2827 27.2539 23.523 26.7907 24.4891 25.947C25.4552 25.1032 26.0812 23.9366 26.25 22.6651Z" fill="white"/>
</svg>
