<svg width="32" height="32" viewBox="0 0 32 32" fill="none" xmlns="http://www.w3.org/2000/svg">
<path d="M26.6988 21.0376L20.7938 18.3913C20.5262 18.2767 20.2343 18.2306 19.9444 18.2572C19.6546 18.2838 19.3759 18.3824 19.1338 18.5438C19.1092 18.5596 19.0858 18.5771 19.0638 18.5963L15.9775 21.2213C15.9455 21.2388 15.9098 21.2485 15.8734 21.2498C15.8369 21.2512 15.8007 21.244 15.7675 21.2288C13.7838 20.2713 11.7288 18.2288 10.7675 16.2726C10.7515 16.2401 10.7432 16.2044 10.7432 16.1682C10.7432 16.132 10.7515 16.0963 10.7675 16.0638L13.4013 12.9313C13.4202 12.9082 13.4377 12.884 13.4538 12.8588C13.613 12.6157 13.7092 12.3368 13.7336 12.0472C13.7581 11.7576 13.71 11.4664 13.5938 11.2001L10.9663 5.31132C10.817 4.96333 10.559 4.67312 10.2308 4.48425C9.90268 4.29538 9.52211 4.21803 9.14626 4.26382C7.5129 4.47882 6.01367 5.28107 4.9286 6.52072C3.84354 7.76037 3.24686 9.35262 3.25001 11.0001C3.25001 20.7876 11.2125 28.7501 21 28.7501C22.6475 28.7532 24.2397 28.1565 25.4794 27.0715C26.719 25.9864 27.5213 24.4872 27.7363 22.8538C27.782 22.4797 27.7057 22.1009 27.5187 21.7736C27.3318 21.4464 27.0442 21.1882 26.6988 21.0376ZM21 27.2501C12.04 27.2501 4.75001 19.9601 4.75001 11.0001C4.74583 9.71748 5.20877 8.47725 6.05232 7.51108C6.89587 6.54492 8.06233 5.91893 9.33376 5.75007H9.36251C9.41289 5.75101 9.4618 5.76715 9.50284 5.79637C9.54388 5.82559 9.57514 5.86653 9.59251 5.91382L12.23 11.8026C12.2451 11.8353 12.2528 11.8709 12.2528 11.9069C12.2528 11.943 12.2451 11.9786 12.23 12.0113L9.59126 15.1438C9.57158 15.1662 9.55361 15.19 9.53751 15.2151C9.37239 15.4671 9.27516 15.7576 9.25523 16.0583C9.23531 16.3589 9.29336 16.6597 9.42376 16.9313C10.5325 19.2013 12.82 21.4713 15.115 22.5801C15.3883 22.7098 15.6905 22.7664 15.9921 22.7445C16.2938 22.7226 16.5846 22.6229 16.8363 22.4551C16.86 22.4388 16.8838 22.4213 16.9063 22.4026L19.9913 19.7776C20.0217 19.7612 20.0554 19.7516 20.0899 19.7494C20.1244 19.7473 20.159 19.7526 20.1913 19.7651L26.0975 22.4113C26.1458 22.4319 26.1863 22.4671 26.2135 22.5119C26.2406 22.5568 26.253 22.6091 26.2488 22.6613C26.0808 23.9333 25.4554 25.1007 24.4894 25.9452C23.5235 26.7897 22.2831 27.2535 21 27.2501ZM17.25 8.00007C17.25 7.80116 17.329 7.61039 17.4697 7.46974C17.6103 7.32909 17.8011 7.25007 18 7.25007H26C26.1989 7.25007 26.3897 7.32909 26.5303 7.46974C26.671 7.61039 26.75 7.80116 26.75 8.00007C26.75 8.19898 26.671 8.38975 26.5303 8.5304C26.3897 8.67105 26.1989 8.75007 26 8.75007H18C17.8011 8.75007 17.6103 8.67105 17.4697 8.5304C17.329 8.38975 17.25 8.19898 17.25 8.00007ZM17.25 13.0001C17.25 12.8012 17.329 12.6104 17.4697 12.4697C17.6103 12.3291 17.8011 12.2501 18 12.2501H26C26.1989 12.2501 26.3897 12.3291 26.5303 12.4697C26.671 12.6104 26.75 12.8012 26.75 13.0001C26.75 13.199 26.671 13.3897 26.5303 13.5304C26.3897 13.6711 26.1989 13.7501 26 13.7501H18C17.8011 13.7501 17.6103 13.6711 17.4697 13.5304C17.329 13.3897 17.25 13.199 17.25 13.0001Z" fill="white"/>
</svg>
