<svg width="32" height="32" viewBox="0 0 32 32" fill="none" xmlns="http://www.w3.org/2000/svg">
<path d="M18.47 12.4701L20.94 10.0001L18.47 7.53007C18.3375 7.3879 18.2654 7.19985 18.2688 7.00555C18.2723 6.81125 18.351 6.62586 18.4884 6.48845C18.6258 6.35104 18.8112 6.27232 19.0055 6.2689C19.1998 6.26547 19.3878 6.33759 19.53 6.47007L22 8.93882L24.47 6.47007C24.6122 6.33759 24.8002 6.26547 24.9945 6.2689C25.1888 6.27232 25.3742 6.35104 25.5116 6.48845C25.649 6.62586 25.7278 6.81125 25.7312 7.00555C25.7346 7.19985 25.6625 7.3879 25.53 7.53007L23.06 10.0001L25.53 12.4701C25.6037 12.5387 25.6628 12.6215 25.7038 12.7135C25.7448 12.8055 25.7668 12.9048 25.7686 13.0055C25.7704 13.1063 25.7519 13.2063 25.7141 13.2997C25.6764 13.3931 25.6203 13.4779 25.5491 13.5491C25.4778 13.6203 25.393 13.6765 25.2996 13.7142C25.2062 13.7519 25.1062 13.7704 25.0055 13.7687C24.9048 13.7669 24.8055 13.7448 24.7135 13.7039C24.6215 13.6629 24.5387 13.6038 24.47 13.5301L22 11.0601L19.53 13.5301C19.3878 13.6626 19.1998 13.7347 19.0055 13.7312C18.8112 13.7278 18.6258 13.6491 18.4884 13.5117C18.351 13.3743 18.2723 13.1889 18.2688 12.9946C18.2654 12.8003 18.3375 12.6122 18.47 12.4701ZM27.7363 22.8538C27.5213 24.4872 26.719 25.9864 25.4794 27.0715C24.2397 28.1565 22.6475 28.7532 21 28.7501C11.2125 28.7501 3.25001 20.7876 3.25001 11.0001C3.24686 9.35262 3.84354 7.76037 4.9286 6.52072C6.01367 5.28107 7.5129 4.47882 9.14626 4.26382C9.52211 4.21803 9.90268 4.29538 10.2308 4.48425C10.559 4.67312 10.817 4.96333 10.9663 5.31132L13.6038 11.2001C13.7202 11.4666 13.7684 11.758 13.744 12.0478C13.7195 12.3376 13.6232 12.6168 13.4638 12.8601C13.4477 12.8848 13.4302 12.9086 13.4113 12.9313L10.7775 16.0638C10.7615 16.0963 10.7532 16.132 10.7532 16.1682C10.7532 16.2044 10.7615 16.2401 10.7775 16.2726C11.735 18.2326 13.79 20.2726 15.7775 21.2288C15.8107 21.244 15.8469 21.2512 15.8834 21.2498C15.9198 21.2485 15.9555 21.2388 15.9875 21.2213L19.0738 18.5963C19.0958 18.5771 19.1192 18.5596 19.1438 18.5438C19.3859 18.3824 19.6646 18.2838 19.9544 18.2572C20.2443 18.2306 20.5362 18.2767 20.8038 18.3913L26.7088 21.0376C27.0524 21.1898 27.3378 21.4487 27.5228 21.7758C27.7079 22.1029 27.7827 22.4809 27.7363 22.8538ZM26.25 22.6651C26.2542 22.6128 26.2419 22.5605 26.2147 22.5157C26.1876 22.4708 26.147 22.4356 26.0988 22.4151L20.1925 19.7688C20.1602 19.7564 20.1257 19.751 20.0911 19.7532C20.0566 19.7554 20.023 19.7649 19.9925 19.7813L16.9075 22.4063C16.885 22.4251 16.8613 22.4426 16.8375 22.4588C16.5859 22.6266 16.295 22.7263 15.9934 22.7483C15.6917 22.7702 15.3895 22.7135 15.1163 22.5838C12.8213 21.4751 10.5338 19.2088 9.42501 16.9351C9.29461 16.6634 9.23656 16.3627 9.25648 16.062C9.27641 15.7613 9.37364 15.4709 9.53876 15.2188C9.55486 15.1938 9.57283 15.1699 9.59251 15.1476L12.2238 12.0113C12.2388 11.9786 12.2466 11.943 12.2466 11.9069C12.2466 11.8709 12.2388 11.8353 12.2238 11.8026L9.59251 5.91382C9.57514 5.86653 9.54388 5.82559 9.50284 5.79637C9.4618 5.76715 9.41289 5.75101 9.36251 5.75007H9.33376C8.06244 5.91919 6.89613 6.54525 6.05263 7.51136C5.20913 8.47746 4.7461 9.71756 4.75001 11.0001C4.75001 19.9601 12.04 27.2501 21 27.2501C22.2827 27.2539 23.523 26.7907 24.4891 25.947C25.4552 25.1032 26.0812 23.9366 26.25 22.6651Z" fill="white"/>
</svg>
