<svg width="32" height="32" viewBox="0 0 32 32" fill="none" xmlns="http://www.w3.org/2000/svg">
<path d="M19 4.25H9C8.80109 4.25 8.61032 4.32902 8.46967 4.46967C8.32902 4.61032 8.25 4.80109 8.25 5V21C8.25298 23.5849 9.28116 26.0632 11.109 27.891C12.9368 29.7188 15.4151 30.747 18 30.75C18.1989 30.75 18.3897 30.671 18.5303 30.5303C18.671 30.3897 18.75 30.1989 18.75 30V21.75H19C21.3206 21.75 23.5462 20.8281 25.1872 19.1872C26.8281 17.5462 27.75 15.3206 27.75 13C27.75 10.6794 26.8281 8.45376 25.1872 6.81282C23.5462 5.17187 21.3206 4.25 19 4.25ZM9.75 7.86375L16.7175 20.25H9.75V7.86375ZM17.25 18.1375L10.2825 5.75H17.25V18.1375ZM9.785 21.75H17.25V29.2162C15.33 29.0383 13.5327 28.1945 12.1694 26.831C10.8061 25.4674 9.96259 23.67 9.785 21.75ZM19 20.25H18.75V5.75H19C20.9228 5.75 22.7669 6.51384 24.1265 7.87348C25.4862 9.23311 26.25 11.0772 26.25 13C26.25 14.9228 25.4862 16.7669 24.1265 18.1265C22.7669 19.4862 20.9228 20.25 19 20.25Z" fill="white"/>
</svg>
