<svg width="32" height="32" viewBox="0 0 32 32" fill="none" xmlns="http://www.w3.org/2000/svg">
<path d="M31 16.25H24.9638L21.2138 8.75H24C24.1989 8.75 24.3897 8.67098 24.5303 8.53033C24.671 8.38968 24.75 8.19891 24.75 8C24.75 7.80109 24.671 7.61032 24.5303 7.46967C24.3897 7.32902 24.1989 7.25 24 7.25H8C7.80109 7.25 7.61032 7.32902 7.46967 7.46967C7.32902 7.61032 7.25 7.80109 7.25 8C7.25 8.19891 7.32902 8.38968 7.46967 8.53033C7.61032 8.67098 7.80109 8.75 8 8.75H10.7863L7.03625 16.25H1C0.801088 16.25 0.610322 16.329 0.46967 16.4697C0.329018 16.6103 0.25 16.8011 0.25 17C0.25 17.1989 0.329018 17.3897 0.46967 17.5303C0.610322 17.671 0.801088 17.75 1 17.75H6.28625L3.32875 23.665C3.2399 23.843 3.22541 24.0491 3.28847 24.2378C3.35153 24.4265 3.48697 24.5824 3.665 24.6712C3.84303 24.7601 4.04906 24.7746 4.23776 24.7115C4.42647 24.6485 4.5824 24.513 4.67125 24.335L7.96375 17.75H24.0362L27.3288 24.335C27.3727 24.4231 27.4337 24.5018 27.508 24.5664C27.5824 24.631 27.6688 24.6803 27.7622 24.7115C27.8557 24.7428 27.9543 24.7553 28.0526 24.7484C28.1509 24.7414 28.2468 24.7152 28.335 24.6712C28.4231 24.6273 28.5018 24.5663 28.5664 24.492C28.631 24.4176 28.6803 24.3312 28.7115 24.2378C28.7428 24.1443 28.7553 24.0457 28.7484 23.9474C28.7414 23.8491 28.7152 23.7532 28.6712 23.665L25.7138 17.75H31C31.1989 17.75 31.3897 17.671 31.5303 17.5303C31.671 17.3897 31.75 17.1989 31.75 17C31.75 16.8011 31.671 16.6103 31.5303 16.4697C31.3897 16.329 31.1989 16.25 31 16.25ZM8.71375 16.25L12.4637 8.75H19.5362L23.2862 16.25H8.71375Z" fill="white"/>
</svg>
