<svg width="32" height="32" viewBox="0 0 32 32" fill="none" xmlns="http://www.w3.org/2000/svg">
<path d="M26.8749 5.12504C25.6729 3.92373 24.043 3.2489 22.3436 3.2489C20.6442 3.2489 19.0144 3.92373 17.8124 5.12504L5.12489 17.8125C3.92313 19.0141 3.24792 20.6439 3.2478 22.3433C3.24769 24.0428 3.92267 25.6727 5.12427 26.8744C6.32586 28.0762 7.95564 28.7514 9.65507 28.7515C11.3545 28.7516 12.9844 28.0766 14.1861 26.875L26.8749 14.1875C28.0753 12.9851 28.7495 11.3554 28.7495 9.65629C28.7495 7.9572 28.0753 6.32753 26.8749 5.12504ZM13.1249 25.8125C12.1985 26.7014 10.9607 27.1919 9.67691 27.1788C8.39311 27.1657 7.16558 26.65 6.25759 25.7423C5.3496 24.8347 4.83346 23.6073 4.81987 22.3235C4.80628 21.0397 5.29632 19.8017 6.18489 18.875L11.9999 13.0613L18.9399 20L13.1249 25.8125ZM25.8149 13.125L19.9999 18.9388L13.0599 12L18.8749 6.18754C19.8013 5.29864 21.0391 4.80815 22.3229 4.82128C23.6067 4.8344 24.8342 5.3501 25.7422 6.25777C26.6502 7.16543 27.1663 8.39278 27.1799 9.67657C27.1935 10.9604 26.7035 12.1984 25.8149 13.125ZM23.5324 10.47C23.6728 10.6107 23.7517 10.8013 23.7517 11C23.7517 11.1988 23.6728 11.3894 23.5324 11.53L20.5324 14.53C20.3914 14.6689 20.2013 14.7464 20.0035 14.7457C19.8056 14.745 19.616 14.6662 19.4761 14.5264C19.3361 14.3866 19.257 14.1971 19.2561 13.9992C19.2552 13.8014 19.3325 13.6112 19.4711 13.47L22.4711 10.47C22.5408 10.4003 22.6235 10.345 22.7146 10.3072C22.8056 10.2695 22.9032 10.2501 23.0018 10.2501C23.1003 10.2501 23.1979 10.2695 23.289 10.3072C23.38 10.345 23.4627 10.4003 23.5324 10.47Z" fill="white"/>
</svg>
