<svg width="32" height="32" viewBox="0 0 32 32" fill="none" xmlns="http://www.w3.org/2000/svg">
<path d="M29.75 24.525C29.7277 24.2721 29.6506 24.027 29.5242 23.8068C29.3977 23.5867 29.2248 23.3966 29.0175 23.25L24.0262 19.685L26.3537 17.3575C26.9051 16.8117 27.313 16.1381 27.5411 15.3966C27.7692 14.6552 27.8105 13.8688 27.6612 13.1075C27.0924 10.3079 25.5575 7.79741 23.325 6.01499C21.0618 4.18981 18.2322 3.21228 15.325 3.25124C12.1395 3.30556 9.0996 4.59518 6.84676 6.84802C4.59393 9.10085 3.30431 12.1407 3.24999 15.3262C3.21386 18.233 4.19107 21.0616 6.01374 23.3262C7.79531 25.5585 10.305 27.0934 13.1037 27.6625C13.865 27.8117 14.6514 27.7704 15.3929 27.5423C16.1344 27.3142 16.808 26.9063 17.3537 26.355L19.6812 24.0275L23.25 29.0175C23.3966 29.2248 23.5867 29.3977 23.8068 29.5242C24.027 29.6506 24.2721 29.7277 24.525 29.75C24.5737 29.75 24.6225 29.7562 24.67 29.7562C25.1337 29.7559 25.5783 29.5716 25.9062 29.2437L29.2375 25.9137C29.4192 25.7338 29.5593 25.5162 29.6478 25.2762C29.7364 25.0363 29.7712 24.7799 29.75 24.525ZM7.18374 22.385C5.57985 20.3925 4.71938 17.9039 4.74999 15.3462C4.79881 12.5512 5.93087 9.88427 7.90757 7.90757C9.88426 5.93087 12.5512 4.79881 15.3462 4.74999C17.9036 4.71997 20.3919 5.57988 22.385 7.18249C23.3797 7.9842 24.2259 8.95435 24.885 10.0487L10.05 24.89C8.95494 24.2297 7.98471 23.3818 7.18374 22.385ZM28.1762 24.8462L24.8462 28.1762C24.8206 28.201 24.79 28.22 24.7565 28.232C24.7229 28.244 24.6872 28.2487 24.6516 28.2457C24.6161 28.2427 24.5817 28.2322 24.5506 28.2149C24.5194 28.1975 24.4924 28.1737 24.4712 28.145L20.3912 22.4337C20.3271 22.345 20.2443 22.2713 20.1486 22.218C20.0529 22.1646 19.9467 22.1329 19.8375 22.125H19.7762C19.5774 22.1252 19.3868 22.2043 19.2462 22.345L16.2925 25.2975C15.9209 25.6738 15.4621 25.9526 14.9568 26.1089C14.4515 26.2653 13.9155 26.2944 13.3962 26.1937C12.7329 26.0614 12.0844 25.8638 11.46 25.6037L25.6 11.46C25.8599 12.0844 26.0575 12.733 26.19 13.3962C26.2907 13.9156 26.2615 14.4518 26.1049 14.9571C25.9483 15.4624 25.6692 15.9211 25.2925 16.2925L22.34 19.25C22.263 19.327 22.2038 19.4198 22.1663 19.5219C22.1288 19.6241 22.114 19.7332 22.1229 19.8417C22.1319 19.9502 22.1643 20.0554 22.218 20.1501C22.2716 20.2448 22.3453 20.3266 22.4337 20.39L28.145 24.47C28.1737 24.4911 28.1975 24.5182 28.2149 24.5493C28.2322 24.5804 28.2427 24.6149 28.2457 24.6504C28.2487 24.6859 28.244 24.7216 28.232 24.7552C28.22 24.7888 28.201 24.8194 28.1762 24.845V24.8462Z" fill="white"/>
</svg>
