<svg width="32" height="32" viewBox="0 0 32 32" fill="none" xmlns="http://www.w3.org/2000/svg">
<path d="M27.75 14C27.75 16.7563 26.7875 19.2738 25.04 21.0913C23.415 22.7813 21.2138 23.75 19 23.75C16.5725 23.75 15.0563 22.8663 14.1713 22.045L12.73 28.17C12.6916 28.3349 12.5986 28.4819 12.4661 28.5872C12.3335 28.6925 12.1693 28.7499 12 28.75C11.9423 28.7501 11.8849 28.7434 11.8288 28.73C11.6352 28.6845 11.4676 28.5641 11.3628 28.3951C11.258 28.2261 11.2246 28.0224 11.27 27.8288L15.27 10.8288C15.2907 10.731 15.3306 10.6384 15.3876 10.5564C15.4445 10.4743 15.5173 10.4044 15.6016 10.3509C15.6859 10.2973 15.78 10.2611 15.8785 10.2444C15.977 10.2278 16.0778 10.2309 16.1751 10.2537C16.2723 10.2765 16.364 10.3185 16.4448 10.3773C16.5256 10.436 16.5938 10.5103 16.6455 10.5958C16.6972 10.6812 16.7313 10.7762 16.7458 10.875C16.7603 10.9738 16.755 11.0745 16.73 11.1713L14.5938 20.25C14.9438 20.7913 16.1513 22.25 19 22.25C22.5638 22.25 26.25 19.1638 26.25 14C26.2495 12.5814 25.9228 11.182 25.2951 9.90989C24.6674 8.63777 23.7555 7.52708 22.6299 6.66369C21.5044 5.80029 20.1953 5.20734 18.804 4.93069C17.4127 4.65403 15.9764 4.70107 14.6062 5.06819C13.2359 5.4353 11.9685 6.11265 10.9018 7.04785C9.83521 7.98304 8.99796 9.15104 8.45484 10.4615C7.91171 11.772 7.67727 13.1898 7.76963 14.6053C7.86199 16.0209 8.27869 17.3962 8.9875 18.625C9.0389 18.7104 9.07277 18.8051 9.08713 18.9037C9.1015 19.0023 9.09607 19.1028 9.07117 19.1993C9.04627 19.2958 9.00239 19.3863 8.9421 19.4656C8.88181 19.545 8.80632 19.6115 8.72003 19.6613C8.63374 19.7112 8.53839 19.7433 8.43954 19.7559C8.34069 19.7684 8.24033 19.7612 8.14432 19.7345C8.04831 19.7079 7.95858 19.6623 7.88036 19.6006C7.80213 19.5389 7.737 19.4622 7.68875 19.375C6.8648 17.947 6.38035 16.3486 6.27287 14.7034C6.16539 13.0582 6.43775 11.4104 7.0689 9.88726C7.70005 8.36417 8.67306 7.00665 9.9127 5.9197C11.1523 4.83275 12.6254 4.04549 14.2179 3.61881C15.8104 3.19213 17.4797 3.13746 19.0967 3.45903C20.7138 3.78059 22.2352 4.46978 23.5433 5.4733C24.8514 6.47681 25.9111 7.76775 26.6406 9.24628C27.37 10.7248 27.7496 12.3513 27.75 14Z" fill="white"/>
</svg>
