<svg width="32" height="32" viewBox="0 0 32 32" fill="none" xmlns="http://www.w3.org/2000/svg">
<path d="M25.5613 3.50002C25.4907 3.42109 25.4042 3.358 25.3074 3.31491C25.2107 3.27182 25.1059 3.2497 25 3.25002H7.00002C6.8936 3.24927 6.78823 3.27118 6.69093 3.3143C6.59362 3.35741 6.50661 3.42074 6.43567 3.50007C6.36473 3.57941 6.31148 3.67294 6.27947 3.77444C6.24747 3.87594 6.23743 3.98309 6.25002 4.08877L9.14502 28.2138C9.19731 28.6386 9.40351 29.0296 9.72461 29.3127C10.0457 29.5958 10.4594 29.7514 10.8875 29.75H21.1125C21.5405 29.75 21.9536 29.5932 22.2738 29.3092C22.594 29.0252 22.799 28.6337 22.85 28.2088L25.75 4.08877C25.7622 3.98286 25.7517 3.87556 25.7191 3.77404C25.6866 3.67252 25.6328 3.5791 25.5613 3.50002ZM24.155 4.75002L23.735 8.25002H8.26502L7.84502 4.75002H24.155ZM21.3613 28.03C21.3539 28.091 21.3243 28.1471 21.2782 28.1877C21.2321 28.2283 21.1727 28.2505 21.1113 28.25H10.8875C10.8261 28.2505 10.7667 28.2283 10.7206 28.1877C10.6745 28.1471 10.6449 28.091 10.6375 28.03L8.44502 9.75002H23.555L21.3613 28.03Z" fill="white"/>
</svg>
