<svg width="32" height="32" viewBox="0 0 32 32" fill="none" xmlns="http://www.w3.org/2000/svg">
<path d="M28.5301 27.47L22.1726 21.1125C22.4456 21.0476 22.7148 20.9675 22.9788 20.8725C24.7856 20.2147 26.2571 18.8662 27.0696 17.1235C27.882 15.3808 27.969 13.3868 27.3113 11.58C27.2431 11.3932 27.1036 11.2412 26.9233 11.1573C26.7431 11.0734 26.5369 11.0644 26.3501 11.1325L20.1876 13.375C20.3514 13.1151 20.4992 12.8455 20.6301 12.5675C21.2355 11.268 21.442 9.81826 21.2237 8.40142C21.0053 6.98458 20.3718 5.66428 19.4032 4.60741C18.4346 3.55054 17.1745 2.80453 15.782 2.46369C14.3895 2.12285 12.9273 2.20248 11.5801 2.6925C11.3933 2.76069 11.2412 2.90024 11.1573 3.08049C11.0734 3.26074 11.0645 3.46694 11.1326 3.65375L13.3751 9.815C13.1151 9.652 12.8455 9.50506 12.5676 9.375C11.2681 8.7696 9.81832 8.56303 8.40148 8.7814C6.98464 8.99978 5.66434 9.63329 4.60747 10.6019C3.5506 11.5704 2.80459 12.8306 2.46375 14.2231C2.12291 15.6155 2.20254 17.0778 2.69257 18.425C2.76069 18.6116 2.90005 18.7635 3.08007 18.8475C3.16937 18.8892 3.26601 18.9128 3.36445 18.9171C3.4629 18.9214 3.56123 18.9062 3.65382 18.8725L9.81506 16.625C9.65145 16.8854 9.50449 17.156 9.37507 17.435C8.86204 18.5394 8.63515 19.7552 8.71532 20.9703C8.79548 22.1854 9.1801 23.3608 9.83377 24.3882C10.4874 25.4157 11.3891 26.2621 12.4558 26.8496C13.5225 27.4371 14.7198 27.7467 15.9376 27.75C16.7853 27.7487 17.6262 27.5994 18.4226 27.3088C18.6097 27.2415 18.7624 27.1028 18.8472 26.923C18.9321 26.7433 18.9421 26.5372 18.8751 26.35L16.6251 20.1875C17.7122 20.8767 18.9636 21.2629 20.2501 21.3063L27.4738 28.53C27.616 28.6625 27.804 28.7346 27.9983 28.7312C28.1926 28.7278 28.378 28.649 28.5154 28.5116C28.6528 28.3742 28.7316 28.1888 28.735 27.9945C28.7384 27.8002 28.6663 27.6122 28.5338 27.47H28.5301ZM12.8151 3.88875C14.1775 3.58569 15.6036 3.78851 16.8275 4.45938C18.0514 5.13026 18.9895 6.22339 19.4669 7.53492C19.9442 8.84645 19.9283 10.2868 19.4219 11.5875C18.9156 12.8881 17.9535 13.9602 16.7151 14.6038L12.8151 3.88875ZM3.88882 17.1875C3.58575 15.8251 3.78857 14.399 4.45944 13.1751C5.13032 11.9512 6.22345 11.0131 7.53498 10.5357C8.84651 10.0584 10.2869 10.0743 11.5875 10.5806C12.8882 11.0869 13.9602 12.049 14.6038 13.2875L3.88882 17.1875ZM17.1876 26.1125C15.8252 26.4156 14.399 26.2128 13.1751 25.5419C11.9512 24.871 11.0131 23.7779 10.5358 22.4663C10.0584 21.1548 10.0744 19.7144 10.5807 18.4138C11.087 17.1132 12.0491 16.0411 13.2876 15.3975L17.1876 26.1125ZM20.5563 19.8113C19.4946 19.8209 18.4508 19.5368 17.5404 18.9904C16.63 18.444 15.8884 17.6565 15.3976 16.715L26.1126 12.815C26.2973 13.6503 26.2935 14.5163 26.1015 15.35C25.9095 16.1836 25.5342 16.9641 25.0028 17.6345C24.4713 18.3049 23.7972 18.8484 23.0293 19.2256C22.2615 19.6028 21.4192 19.8042 20.5638 19.815L20.5563 19.8113Z" fill="white"/>
</svg>
