<svg width="32" height="32" viewBox="0 0 32 32" fill="none" xmlns="http://www.w3.org/2000/svg">
<path d="M27.3588 7.05499C27.353 7.04989 27.3476 7.04447 27.3425 7.03874L21.7288 1.74999C21.4001 1.42619 20.9568 1.24531 20.4954 1.24671C20.0339 1.24812 19.5918 1.43169 19.265 1.75749L13.515 7.45999L13.14 7.08499C12.5908 6.60323 11.8787 6.34865 11.1485 6.37298C10.4183 6.39731 9.72478 6.69872 9.20881 7.21596C8.69283 7.73321 8.39314 8.42749 8.37061 9.15774C8.34808 9.88799 8.60442 10.5994 9.08753 11.1475L9.44378 11.5087L6.76253 14.1762C6.6 14.3387 6.47108 14.5317 6.38313 14.744C6.29517 14.9563 6.2499 15.1839 6.2499 15.4137C6.2499 15.6436 6.29517 15.8711 6.38313 16.0835C6.47108 16.2958 6.6 16.4887 6.76253 16.6512L8.34878 18.2375C8.67676 18.5642 9.12084 18.7476 9.58378 18.7476C10.0467 18.7476 10.4908 18.5642 10.8188 18.2375L13.4875 15.6062L15.1763 17.3187C15.1995 17.342 15.218 17.3695 15.2305 17.3999C15.2431 17.4302 15.2496 17.4628 15.2496 17.4956C15.2496 17.5285 15.2431 17.561 15.2305 17.5914C15.218 17.6217 15.1995 17.6493 15.1763 17.6725L7.09128 25.8487C6.80211 26.1102 6.56913 26.4277 6.40651 26.782C6.24389 27.1363 6.15502 27.52 6.1453 27.9097C6.13559 28.2994 6.20523 28.687 6.35 29.049C6.49477 29.4109 6.71163 29.7397 6.98742 30.0152C7.2632 30.2907 7.59214 30.5073 7.95423 30.6517C8.31632 30.7962 8.704 30.8654 9.09371 30.8554C9.48341 30.8453 9.867 30.7561 10.2211 30.5931C10.5753 30.4302 10.8926 30.1969 11.1538 29.9075L22.2375 18.7375C22.565 18.4094 22.7489 17.9648 22.7489 17.5012C22.7489 17.0377 22.565 16.5931 22.2375 16.265L17.5988 11.58L19.3925 9.82249C19.4394 9.77593 19.5027 9.74979 19.5688 9.74979C19.6348 9.74979 19.6982 9.77593 19.745 9.82249L19.7538 9.83124L24.4275 14.25C24.7566 14.5748 25.2008 14.7561 25.6631 14.7545C26.1254 14.7529 26.5683 14.5683 26.895 14.2412L27.3588 13.7762C28.2496 12.8854 28.75 11.6773 28.75 10.4175C28.75 9.15772 28.2496 7.94954 27.3588 7.05874V7.05499ZM9.76253 17.18C9.73931 17.2032 9.71174 17.2217 9.68139 17.2343C9.65104 17.2468 9.6185 17.2533 9.58565 17.2533C9.5528 17.2533 9.52027 17.2468 9.48992 17.2343C9.45957 17.2217 9.43199 17.2032 9.40878 17.18L7.82253 15.5912C7.79936 15.5679 7.78102 15.5402 7.76858 15.5097C7.75614 15.4793 7.74984 15.4466 7.75003 15.4137C7.74997 15.3483 7.77555 15.2855 7.82128 15.2387L10.5 12.5775L12.4375 14.5425L9.76253 17.18ZM21.175 17.68L10.0913 28.8487C9.96749 28.9916 9.81558 29.1073 9.64505 29.1888C9.47451 29.2703 9.289 29.3158 9.10011 29.3224C8.91122 29.329 8.723 29.2965 8.5472 29.2271C8.3714 29.1577 8.21181 29.0528 8.07837 28.9189C7.94494 28.785 7.84054 28.6251 7.77169 28.4491C7.70284 28.2731 7.67101 28.0847 7.67821 27.8959C7.6854 27.707 7.73145 27.5216 7.81349 27.3514C7.89553 27.1811 8.0118 27.0296 8.15503 26.9062L16.2388 18.735C16.5651 18.4071 16.7483 17.9632 16.7483 17.5006C16.7483 17.038 16.5651 16.5942 16.2388 16.2662L10.1513 10.0912C9.92198 9.82892 9.80081 9.48933 9.81227 9.1411C9.82373 8.79288 9.96695 8.46199 10.213 8.2153C10.4591 7.96862 10.7896 7.82454 11.1378 7.81219C11.486 7.79983 11.8259 7.92012 12.0888 8.14874L21.1763 17.3225C21.1998 17.3458 21.2185 17.3736 21.2312 17.4043C21.2439 17.4349 21.2503 17.4677 21.2502 17.5009C21.2501 17.534 21.2434 17.5668 21.2305 17.5974C21.2176 17.6279 21.1987 17.6556 21.175 17.6787V17.68ZM26.3 12.7137L25.8363 13.1775C25.8131 13.2007 25.7855 13.2192 25.7551 13.2318C25.7248 13.2443 25.6923 13.2508 25.6594 13.2508C25.6265 13.2508 25.594 13.2443 25.5637 13.2318C25.5333 13.2192 25.5057 13.2007 25.4825 13.1775L25.4675 13.1625L20.7888 8.74999C20.46 8.43063 20.019 8.25303 19.5606 8.25537C19.1022 8.25771 18.6631 8.4398 18.3375 8.76249L16.5438 10.515L14.575 8.52749L20.325 2.82249C20.3483 2.79906 20.3759 2.78046 20.4064 2.76777C20.4368 2.75508 20.4695 2.74854 20.5025 2.74854C20.5355 2.74854 20.5682 2.75508 20.5987 2.76777C20.6291 2.78046 20.6568 2.79906 20.68 2.82249L20.695 2.83874L26.3063 8.12499C26.9123 8.73534 27.2517 9.56104 27.2501 10.4212C27.2484 11.2813 26.9059 12.1057 26.2975 12.7137H26.3Z" fill="white"/>
</svg>
