<svg width="32" height="32" viewBox="0 0 32 32" fill="none" xmlns="http://www.w3.org/2000/svg">
<path d="M29 13.25H25.75V6.75H29C29.1989 6.75 29.3897 6.67098 29.5303 6.53033C29.671 6.38968 29.75 6.19891 29.75 6C29.75 5.80109 29.671 5.61032 29.5303 5.46967C29.3897 5.32902 29.1989 5.25 29 5.25H25.5788C25.437 4.95116 25.2135 4.69861 24.934 4.52162C24.6546 4.34463 24.3308 4.25045 24 4.25H22C21.6692 4.25045 21.3454 4.34463 21.066 4.52162C20.7865 4.69861 20.563 4.95116 20.4212 5.25H18C14.6197 5.25397 11.379 6.59854 8.98877 8.98877C6.59854 11.379 5.25397 14.6197 5.25 18V20.4212C4.95116 20.563 4.69861 20.7865 4.52162 21.066C4.34463 21.3454 4.25045 21.6692 4.25 22V24C4.25045 24.3308 4.34463 24.6546 4.52162 24.934C4.69861 25.2135 4.95116 25.437 5.25 25.5788V29C5.25 29.1989 5.32902 29.3897 5.46967 29.5303C5.61032 29.671 5.80109 29.75 6 29.75C6.19891 29.75 6.38968 29.671 6.53033 29.5303C6.67098 29.3897 6.75 29.1989 6.75 29V25.75H13.25V29C13.25 29.1989 13.329 29.3897 13.4697 29.5303C13.6103 29.671 13.8011 29.75 14 29.75C14.1989 29.75 14.3897 29.671 14.5303 29.5303C14.671 29.3897 14.75 29.1989 14.75 29V25.5788C15.0488 25.437 15.3014 25.2135 15.4784 24.934C15.6554 24.6546 15.7495 24.3308 15.75 24V22C15.7495 21.6692 15.6554 21.3454 15.4784 21.066C15.3014 20.7865 15.0488 20.563 14.75 20.4212V18C14.75 17.138 15.0924 16.3114 15.7019 15.7019C16.3114 15.0924 17.138 14.75 18 14.75H20.4212C20.563 15.0488 20.7865 15.3014 21.066 15.4784C21.3454 15.6554 21.6692 15.7495 22 15.75H24C24.3308 15.7495 24.6546 15.6554 24.934 15.4784C25.2135 15.3014 25.437 15.0488 25.5788 14.75H29C29.1989 14.75 29.3897 14.671 29.5303 14.5303C29.671 14.3897 29.75 14.1989 29.75 14C29.75 13.8011 29.671 13.6103 29.5303 13.4697C29.3897 13.329 29.1989 13.25 29 13.25ZM14 21.75C14.0663 21.75 14.1299 21.7763 14.1768 21.8232C14.2237 21.8701 14.25 21.9337 14.25 22V24C14.25 24.0663 14.2237 24.1299 14.1768 24.1768C14.1299 24.2237 14.0663 24.25 14 24.25H6C5.9337 24.25 5.87011 24.2237 5.82322 24.1768C5.77634 24.1299 5.75 24.0663 5.75 24V22C5.75 21.9337 5.77634 21.8701 5.82322 21.8232C5.87011 21.7763 5.9337 21.75 6 21.75H14ZM13.25 18V20.25H6.75V18C6.75331 15.0173 7.93964 12.1578 10.0487 10.0487C12.1578 7.93964 15.0173 6.75331 18 6.75H20.25V13.25H18C16.7402 13.25 15.532 13.7504 14.6412 14.6412C13.7504 15.532 13.25 16.7402 13.25 18ZM24 14.25H22C21.9337 14.25 21.8701 14.2237 21.8232 14.1768C21.7763 14.1299 21.75 14.0663 21.75 14V6C21.75 5.9337 21.7763 5.87011 21.8232 5.82322C21.8701 5.77634 21.9337 5.75 22 5.75H24C24.0663 5.75 24.1299 5.77634 24.1768 5.82322C24.2237 5.87011 24.25 5.9337 24.25 6V14C24.25 14.0663 24.2237 14.1299 24.1768 14.1768C24.1299 14.2237 24.0663 14.25 24 14.25Z" fill="white"/>
</svg>
