<svg width="32" height="32" viewBox="0 0 32 32" fill="none" xmlns="http://www.w3.org/2000/svg">
<path d="M29.2387 14.7675L17.2387 2.76748C17.077 2.60541 16.8849 2.47684 16.6734 2.38911C16.4619 2.30138 16.2352 2.25623 16.0062 2.25623C15.7772 2.25623 15.5505 2.30138 15.339 2.38911C15.1276 2.47684 14.9354 2.60541 14.7737 2.76748L2.7737 14.7737C2.61164 14.9355 2.48306 15.1276 2.39533 15.3391C2.30761 15.5506 2.26245 15.7773 2.26245 16.0062C2.26245 16.2352 2.30761 16.4619 2.39533 16.6734C2.48306 16.8849 2.61164 17.077 2.7737 17.2387L14.78 29.2387C14.9417 29.4008 15.1338 29.5294 15.3453 29.6171C15.5568 29.7048 15.7835 29.75 16.0125 29.75C16.2414 29.75 16.4681 29.7048 16.6796 29.6171C16.8911 29.5294 17.0832 29.4008 17.245 29.2387L29.245 17.2387C29.407 17.077 29.5356 16.8849 29.6233 16.6734C29.711 16.4619 29.7562 16.2352 29.7562 16.0062C29.7562 15.7773 29.711 15.5506 29.6233 15.3391C29.5356 15.1276 29.407 14.9355 29.245 14.7737L29.2387 14.7675ZM15.8275 3.82123C15.8739 3.77691 15.9357 3.75218 16 3.75218C16.0642 3.75218 16.126 3.77691 16.1725 3.82123L23.6012 11.25H20C19.8011 11.2502 19.6105 11.3293 19.47 11.47L16 14.94L12.53 11.47C12.3894 11.3293 12.1988 11.2502 12 11.25H8.3987L15.8275 3.82123ZM3.74995 16C3.74985 15.9679 3.75609 15.9362 3.76832 15.9066C3.78055 15.877 3.79852 15.8501 3.8212 15.8275L6.8987 12.75H11.6887L14.9387 16L11.6887 19.25H6.8987L3.8212 16.1725C3.79852 16.1499 3.78055 16.123 3.76832 16.0934C3.75609 16.0637 3.74985 16.032 3.74995 16ZM16.1725 28.1787C16.126 28.223 16.0642 28.2478 16 28.2478C15.9357 28.2478 15.8739 28.223 15.8275 28.1787L8.3987 20.75H12C12.1988 20.7498 12.3894 20.6707 12.53 20.53L16 17.06L19.47 20.53C19.6105 20.6707 19.8011 20.7498 20 20.75H23.6012L16.1725 28.1787ZM28.1787 16.1725L25.1012 19.25H20.3112L17.0612 16L20.3112 12.75H25.1012L28.1787 15.8275C28.223 15.874 28.2477 15.9357 28.2477 16C28.2477 16.0642 28.223 16.126 28.1787 16.1725Z" fill="white"/>
</svg>
