<svg width="32" height="32" viewBox="0 0 32 32" fill="none" xmlns="http://www.w3.org/2000/svg">
<path d="M30.7037 5.9999C30.6928 5.81684 30.6151 5.64415 30.4854 5.51447C30.3557 5.3848 30.183 5.30713 30 5.29615C23.625 4.92115 18.515 6.84865 16.3312 10.4536C14.8775 12.8549 14.9087 15.7887 16.3975 18.5787C15.4429 19.6714 14.7777 20.9861 14.4625 22.4024L11.9875 19.9262C13.0062 17.9137 13 15.8074 11.9475 14.0699C10.3462 11.4261 6.62499 10.0086 1.98749 10.2836C1.80423 10.2947 1.63137 10.3725 1.50166 10.5024C1.37196 10.6324 1.29442 10.8054 1.28374 10.9886C1.01124 15.6249 2.42624 19.3462 5.06999 20.9474C5.93102 21.4736 6.92087 21.7514 7.92999 21.7499C8.97505 21.7392 10.0029 21.4823 10.93 20.9999L14.25 24.3099V27.9999C14.25 28.1988 14.329 28.3896 14.4697 28.5302C14.6103 28.6709 14.8011 28.7499 15 28.7499C15.1989 28.7499 15.3897 28.6709 15.5303 28.5302C15.671 28.3896 15.75 28.1988 15.75 27.9999V24.3136C15.745 22.5955 16.3551 20.9323 17.47 19.6249C18.8712 20.3661 20.31 20.7387 21.6975 20.7387C23.0546 20.7431 24.3866 20.3724 25.5462 19.6674C29.1512 17.4861 31.0787 12.3749 30.7037 5.9999ZM5.84749 19.6636C3.80874 18.4299 2.67374 15.4999 2.74999 11.7499C6.49999 11.6686 9.42624 12.8049 10.66 14.8436C11.37 16.0149 11.43 17.3911 10.8525 18.7924L7.52999 15.4686C7.38926 15.3279 7.19838 15.2489 6.99936 15.2489C6.80034 15.2489 6.60947 15.3279 6.46874 15.4686C6.32801 15.6094 6.24894 15.8003 6.24894 15.9993C6.24894 16.1983 6.32801 16.3892 6.46874 16.5299L9.79624 19.8562C8.39499 20.4337 7.01874 20.3749 5.84749 19.6636ZM24.77 18.3861C22.9275 19.5011 20.7525 19.5337 18.5612 18.4987L25.5312 11.5299C25.6009 11.4602 25.6562 11.3775 25.6939 11.2864C25.7316 11.1954 25.751 11.0978 25.751 10.9993C25.751 10.9007 25.7316 10.8031 25.6939 10.7121C25.6562 10.6211 25.6009 10.5383 25.5312 10.4686C25.4616 10.399 25.3788 10.3437 25.2878 10.306C25.1967 10.2683 25.0992 10.2489 25.0006 10.2489C24.9021 10.2489 24.8045 10.2683 24.7134 10.306C24.6224 10.3437 24.5397 10.399 24.47 10.4686L17.5 17.4386C16.465 15.2474 16.5 13.0724 17.6125 11.2311C19.4275 8.23115 23.745 6.58365 29.2375 6.7624C29.4162 12.2499 27.7675 16.5699 24.77 18.3861Z" fill="white"/>
</svg>
