<svg width="32" height="32" viewBox="0 0 32 32" fill="none" xmlns="http://www.w3.org/2000/svg">
<path d="M16 3.25C13.4783 3.25 11.0132 3.99777 8.91648 5.39876C6.81976 6.79975 5.18556 8.79103 4.22054 11.1208C3.25552 13.4505 3.00303 16.0141 3.49499 18.4874C3.98696 20.9607 5.20127 23.2325 6.98439 25.0156C8.76751 26.7987 11.0393 28.0131 13.5126 28.505C15.9859 28.997 18.5495 28.7445 20.8792 27.7795C23.209 26.8144 25.2003 25.1802 26.6012 23.0835C28.0022 20.9868 28.75 18.5217 28.75 16C28.746 12.6197 27.4015 9.379 25.0112 6.98877C22.621 4.59854 19.3803 3.25397 16 3.25ZM16 27.25C13.775 27.25 11.5999 26.5902 9.74984 25.354C7.89979 24.1179 6.45785 22.3609 5.60636 20.3052C4.75488 18.2495 4.53209 15.9875 4.96617 13.8052C5.40025 11.6229 6.47171 9.61839 8.04505 8.04505C9.6184 6.47171 11.623 5.40025 13.8052 4.96617C15.9875 4.53208 18.2495 4.75487 20.3052 5.60636C22.3609 6.45784 24.1179 7.89978 25.354 9.74984C26.5902 11.5999 27.25 13.775 27.25 16C27.2467 18.9827 26.0604 21.8422 23.9513 23.9513C21.8422 26.0604 18.9827 27.2467 16 27.25ZM21.8975 15.3638L13.8975 10.3638C13.784 10.2928 13.6535 10.2535 13.5196 10.25C13.3858 10.2465 13.2534 10.2789 13.1363 10.3438C13.0192 10.4088 12.9216 10.5039 12.8537 10.6192C12.7858 10.7346 12.75 10.8661 12.75 11V21C12.75 21.1339 12.7858 21.2654 12.8537 21.3808C12.9216 21.4961 13.0192 21.5912 13.1363 21.6562C13.2534 21.7211 13.3858 21.7535 13.5196 21.75C13.6535 21.7465 13.784 21.7072 13.8975 21.6362L21.8975 16.6362C22.0055 16.5689 22.0945 16.4751 22.1563 16.3638C22.218 16.2525 22.2504 16.1273 22.2504 16C22.2504 15.8727 22.218 15.7475 22.1563 15.6362C22.0945 15.5249 22.0055 15.4311 21.8975 15.3638ZM14.25 19.6462V12.3538L20.085 16L14.25 19.6462Z" fill="white"/>
</svg>
