<svg width="32" height="32" viewBox="0 0 32 32" fill="none" xmlns="http://www.w3.org/2000/svg">
<path d="M18.5302 17.4699C18.3895 17.3295 18.1989 17.2506 18.0002 17.2506C17.8014 17.2506 17.6108 17.3295 17.4702 17.4699L15.0002 19.9387L12.0614 17L14.5302 14.53C14.6626 14.3878 14.7348 14.1997 14.7313 14.0054C14.7279 13.8111 14.6492 13.6257 14.5118 13.4883C14.3744 13.3509 14.189 13.2722 13.9947 13.2688C13.8004 13.2653 13.6123 13.3375 13.4702 13.47L11.0002 15.9387L8.53015 13.47C8.38798 13.3375 8.19993 13.2653 8.00563 13.2688C7.81133 13.2722 7.62594 13.3509 7.48853 13.4883C7.35112 13.6257 7.27241 13.8111 7.26898 14.0054C7.26555 14.1997 7.33767 14.3878 7.47015 14.53L8.4389 15.5L5.3489 18.5912C4.64589 19.2944 4.25095 20.2481 4.25095 21.2425C4.25095 22.2368 4.64589 23.1905 5.3489 23.8937L6.1964 24.7425L2.47015 28.4699C2.39647 28.5386 2.33736 28.6214 2.29637 28.7134C2.25538 28.8054 2.23334 28.9047 2.23156 29.0054C2.22979 29.1061 2.24831 29.2062 2.28603 29.2995C2.32375 29.3929 2.3799 29.4778 2.45112 29.549C2.52233 29.6202 2.60717 29.6764 2.70056 29.7141C2.79394 29.7518 2.89397 29.7703 2.99468 29.7685C3.09538 29.7668 3.19469 29.7447 3.28669 29.7037C3.37869 29.6627 3.46149 29.6036 3.53015 29.53L7.25765 25.8037L8.1064 26.6512C8.80963 27.3542 9.76329 27.7491 10.7577 27.7491C11.752 27.7491 12.7057 27.3542 13.4089 26.6512L16.5002 23.5612L17.4702 24.53C17.6123 24.6624 17.8004 24.7346 17.9947 24.7311C18.189 24.7277 18.3744 24.649 18.5118 24.5116C18.6492 24.3742 18.7279 24.1888 18.7313 23.9945C18.7348 23.8002 18.6626 23.6121 18.5302 23.4699L16.0614 21L18.5302 18.53C18.6706 18.3893 18.7495 18.1987 18.7495 18C18.7495 17.8012 18.6706 17.6106 18.5302 17.4699ZM12.3489 25.5949C12.14 25.804 11.8919 25.9698 11.6189 26.0829C11.3458 26.196 11.0532 26.2542 10.7577 26.2542C10.4621 26.2542 10.1695 26.196 9.89645 26.0829C9.62342 25.9698 9.37535 25.804 9.1664 25.5949L6.4089 22.8337C6.19989 22.6248 6.03409 22.3767 5.92098 22.1037C5.80786 21.8306 5.74963 21.538 5.74963 21.2425C5.74963 20.9469 5.80786 20.6543 5.92098 20.3812C6.03409 20.1082 6.19989 19.8601 6.4089 19.6512L9.50015 16.5612L15.4389 22.5L12.3489 25.5949ZM29.5302 2.46995C29.3895 2.3295 29.1989 2.25061 29.0002 2.25061C28.8014 2.25061 28.6108 2.3295 28.4702 2.46995L24.7427 6.1962L23.8939 5.3487C23.1907 4.64568 22.237 4.25075 21.2427 4.25075C20.2483 4.25075 19.2946 4.64568 18.5914 5.3487L15.5002 8.4387L14.5302 7.46995C14.388 7.33747 14.1999 7.26535 14.0056 7.26878C13.8113 7.2722 13.6259 7.35092 13.4885 7.48833C13.3511 7.62574 13.2724 7.81113 13.269 8.00543C13.2655 8.19973 13.3377 8.38778 13.4702 8.52995L23.4702 18.53C23.6123 18.6624 23.8004 18.7346 23.9947 18.7311C24.189 18.7277 24.3744 18.649 24.5118 18.5116C24.6492 18.3742 24.7279 18.1888 24.7313 17.9945C24.7348 17.8002 24.6626 17.6121 24.5302 17.4699L23.5614 16.5L26.6514 13.4087C27.3544 12.7055 27.7494 11.7518 27.7494 10.7575C27.7494 9.76308 27.3544 8.80943 26.6514 8.1062L25.8039 7.25745L29.5302 3.52995C29.6706 3.38933 29.7495 3.1987 29.7495 2.99995C29.7495 2.8012 29.6706 2.61058 29.5302 2.46995ZM25.5914 12.345L22.5002 15.4387L16.5614 9.49995L19.6514 6.4087C19.8603 6.19969 20.1084 6.03389 20.3814 5.92077C20.6545 5.80765 20.9471 5.74943 21.2427 5.74943C21.5382 5.74943 21.8308 5.80765 22.1039 5.92077C22.3769 6.03389 22.625 6.19969 22.8339 6.4087L25.5914 9.1662C25.8004 9.37514 25.9662 9.62321 26.0793 9.89624C26.1925 10.1693 26.2507 10.4619 26.2507 10.7575C26.2507 11.053 26.1925 11.3456 26.0793 11.6187C25.9662 11.8917 25.8004 12.1398 25.5914 12.3487V12.345Z" fill="white"/>
</svg>
