<svg width="32" height="32" viewBox="0 0 32 32" fill="none" xmlns="http://www.w3.org/2000/svg">
<path d="M29.5302 2.46995C29.3895 2.3295 29.1989 2.25061 29.0002 2.25061C28.8014 2.25061 28.6108 2.3295 28.4702 2.46995L21.7427 9.1962L20.8939 8.3487C20.1907 7.64568 19.237 7.25075 18.2427 7.25075C17.2483 7.25075 16.2946 7.64568 15.5914 8.3487L12.5002 11.4387L11.5302 10.47C11.388 10.3375 11.1999 10.2653 11.0056 10.2688C10.8113 10.2722 10.6259 10.3509 10.4885 10.4883C10.3511 10.6257 10.2724 10.8111 10.269 11.0054C10.2655 11.1997 10.3377 11.3878 10.4702 11.53L11.4389 12.5L8.3489 15.5912C7.64589 16.2944 7.25095 17.2481 7.25095 18.2425C7.25095 19.2368 7.64589 20.1905 8.3489 20.8937L9.1964 21.7425L2.47015 28.4699C2.39647 28.5386 2.33736 28.6214 2.29637 28.7134C2.25538 28.8054 2.23334 28.9047 2.23156 29.0054C2.22979 29.1061 2.24831 29.2062 2.28603 29.2995C2.32375 29.3929 2.3799 29.4778 2.45112 29.549C2.52233 29.6202 2.60717 29.6764 2.70056 29.7141C2.79394 29.7518 2.89397 29.7703 2.99468 29.7685C3.09538 29.7668 3.19469 29.7447 3.28669 29.7037C3.37869 29.6627 3.46149 29.6036 3.53015 29.53L10.2577 22.8037L11.1064 23.6512C11.8096 24.3542 12.7633 24.7491 13.7577 24.7491C14.752 24.7491 15.7057 24.3542 16.4089 23.6512L19.5002 20.5612L20.4702 21.53C20.6123 21.6624 20.8004 21.7346 20.9947 21.7311C21.189 21.7277 21.3744 21.649 21.5118 21.5116C21.6492 21.3742 21.7279 21.1888 21.7313 20.9945C21.7348 20.8002 21.6626 20.6121 21.5302 20.4699L20.5614 19.5L23.6514 16.4087C24.3544 15.7055 24.7494 14.7518 24.7494 13.7575C24.7494 12.7631 24.3544 11.8094 23.6514 11.1062L22.8039 10.2575L29.5302 3.52995C29.6706 3.38933 29.7495 3.1987 29.7495 2.99995C29.7495 2.8012 29.6706 2.61058 29.5302 2.46995ZM15.3489 22.5949C15.14 22.804 14.8919 22.9698 14.6189 23.0829C14.3458 23.196 14.0532 23.2542 13.7577 23.2542C13.4621 23.2542 13.1695 23.196 12.8964 23.0829C12.6234 22.9698 12.3753 22.804 12.1664 22.5949L9.4089 19.8337C9.19989 19.6248 9.03409 19.3767 8.92098 19.1037C8.80786 18.8306 8.74963 18.538 8.74963 18.2425C8.74963 17.9469 8.80786 17.6543 8.92098 17.3812C9.03409 17.1082 9.19989 16.8601 9.4089 16.6512L12.5002 13.5612L18.4389 19.5L15.3489 22.5949ZM22.5914 15.3525L19.5002 18.4387L13.5614 12.5L16.6514 9.4087C16.8603 9.19969 17.1084 9.03389 17.3814 8.92077C17.6545 8.80765 17.9471 8.74943 18.2427 8.74943C18.5382 8.74943 18.8308 8.80765 19.1039 8.92077C19.3769 9.03389 19.625 9.19969 19.8339 9.4087L22.5914 12.1662C22.8004 12.3751 22.9662 12.6232 23.0793 12.8962C23.1925 13.1693 23.2507 13.4619 23.2507 13.7575C23.2507 14.053 23.1925 14.3456 23.0793 14.6187C22.9662 14.8917 22.8004 15.1398 22.5914 15.3487V15.3525ZM11.3039 4.2787C11.2318 4.09441 11.2354 3.88909 11.314 3.70747C11.3927 3.52586 11.5399 3.38268 11.7236 3.30912C11.9073 3.23557 12.1126 3.23761 12.2949 3.31479C12.4771 3.39198 12.6214 3.53806 12.6964 3.7212L13.6964 6.2212C13.7339 6.3128 13.7529 6.41093 13.7523 6.50991C13.7517 6.60889 13.7315 6.70678 13.6929 6.79792C13.6543 6.88907 13.5981 6.97167 13.5274 7.04096C13.4567 7.11026 13.373 7.16487 13.2811 7.20166C13.1892 7.23846 13.0909 7.25669 12.992 7.25532C12.893 7.25395 12.7953 7.233 12.7044 7.19368C12.6136 7.15437 12.5314 7.09745 12.4627 7.02623C12.3939 6.95501 12.34 6.87088 12.3039 6.7787L11.3039 4.2787ZM3.3039 11.7212C3.37784 11.5365 3.52209 11.3888 3.70494 11.3105C3.88779 11.2322 4.09425 11.2298 4.2789 11.3037L6.7789 12.3037C6.87108 12.3398 6.95521 12.3937 7.02643 12.4625C7.09766 12.5312 7.15457 12.6134 7.19389 12.7042C7.23321 12.7951 7.25416 12.8928 7.25552 12.9918C7.25689 13.0907 7.23866 13.189 7.20187 13.2809C7.16508 13.3728 7.11046 13.4565 7.04117 13.5272C6.97187 13.5979 6.88927 13.6541 6.79813 13.6927C6.70698 13.7313 6.60909 13.7515 6.51011 13.7521C6.41113 13.7527 6.31301 13.7337 6.2214 13.6962L3.7214 12.6962C3.53675 12.6223 3.38903 12.478 3.31073 12.2952C3.23244 12.1123 3.22998 11.9059 3.3039 11.7212ZM28.6964 20.2787C28.6225 20.4634 28.4782 20.6111 28.2954 20.6894C28.1125 20.7677 27.9061 20.7701 27.7214 20.6962L25.2214 19.6962C25.0383 19.6212 24.8922 19.4769 24.815 19.2947C24.7378 19.1124 24.7358 18.9071 24.8093 18.7234C24.8829 18.5397 25.0261 18.3924 25.2077 18.3138C25.3893 18.2352 25.5946 18.2316 25.7789 18.3037L28.2789 19.3037C28.4636 19.3776 28.6113 19.5219 28.6896 19.7047C28.7679 19.8876 28.7703 20.094 28.6964 20.2787ZM20.6964 27.7212C20.7339 27.8128 20.7529 27.9109 20.7523 28.0099C20.7517 28.1089 20.7315 28.2068 20.6929 28.2979C20.6543 28.3891 20.5981 28.4717 20.5274 28.541C20.4567 28.6103 20.373 28.6649 20.2811 28.7017C20.1892 28.7385 20.0909 28.7567 19.992 28.7553C19.893 28.754 19.7953 28.733 19.7044 28.6937C19.6136 28.6544 19.5314 28.5975 19.4627 28.5262C19.3939 28.455 19.34 28.3709 19.3039 28.2787L18.3039 25.7787C18.2318 25.5944 18.2354 25.3891 18.314 25.2075C18.3927 25.0259 18.5399 24.8827 18.7236 24.8091C18.9073 24.7356 19.1126 24.7376 19.2949 24.8148C19.4771 24.892 19.6214 25.0381 19.6964 25.2212L20.6964 27.7212Z" fill="white"/>
</svg>
