<svg width="32" height="32" viewBox="0 0 32 32" fill="none" xmlns="http://www.w3.org/2000/svg">
<path d="M29.5302 8.46997C29.3895 8.32952 29.1989 8.25063 29.0002 8.25063C28.8014 8.25063 28.6108 8.32952 28.4702 8.46997L24.0002 12.9387L19.0614 7.99997L23.5302 3.52997C23.6626 3.38779 23.7348 3.19975 23.7313 3.00545C23.7279 2.81114 23.6492 2.62576 23.5118 2.48835C23.3744 2.35093 23.189 2.27222 22.9947 2.26879C22.8004 2.26537 22.6123 2.33749 22.4702 2.46997L18.0002 6.93872L14.5302 3.46997C14.4615 3.39628 14.3787 3.33718 14.2867 3.29619C14.1947 3.2552 14.0954 3.23315 13.9947 3.23138C13.894 3.2296 13.7939 3.24812 13.7006 3.28585C13.6072 3.32357 13.5223 3.37971 13.4511 3.45093C13.3799 3.52215 13.3238 3.60698 13.286 3.70037C13.2483 3.79376 13.2298 3.89379 13.2316 3.99449C13.2333 4.09519 13.2554 4.19451 13.2964 4.28651C13.3374 4.37851 13.3965 4.46131 13.4702 4.52997L14.4389 5.49997L7.6414 12.2975C7.20014 12.7386 6.8501 13.2623 6.61128 13.8387C6.37246 14.4151 6.24954 15.0329 6.24954 15.6568C6.24954 16.2808 6.37246 16.8986 6.61128 17.475C6.8501 18.0514 7.20014 18.5751 7.6414 19.0162L9.78265 21.1562L3.47015 27.47C3.39647 27.5386 3.33736 27.6214 3.29637 27.7134C3.25538 27.8054 3.23334 27.9047 3.23156 28.0054C3.22979 28.1061 3.24831 28.2062 3.28603 28.2996C3.32375 28.393 3.3799 28.4778 3.45112 28.549C3.52233 28.6202 3.60717 28.6764 3.70056 28.7141C3.79394 28.7518 3.89397 28.7703 3.99468 28.7686C4.09538 28.7668 4.19469 28.7447 4.28669 28.7038C4.37869 28.6628 4.46149 28.6037 4.53015 28.53L10.8439 22.2175L12.9852 24.3587C13.876 25.2495 15.0841 25.75 16.3439 25.75C17.6037 25.75 18.8119 25.2495 19.7027 24.3587L26.5002 17.5612L27.4702 18.53C27.6123 18.6625 27.8004 18.7346 27.9947 18.7311C28.189 18.7277 28.3744 18.649 28.5118 18.5116C28.6492 18.3742 28.7279 18.1888 28.7313 17.9945C28.7348 17.8002 28.6626 17.6121 28.5302 17.47L25.0614 14L29.5302 9.52997C29.6706 9.38934 29.7495 9.19872 29.7495 8.99997C29.7495 8.80122 29.6706 8.61059 29.5302 8.46997ZM18.6414 23.2975C18.3396 23.5993 17.9813 23.8387 17.587 24.002C17.1927 24.1653 16.7701 24.2494 16.3433 24.2494C15.9165 24.2494 15.4939 24.1653 15.0995 24.002C14.7052 23.8387 14.3469 23.5993 14.0452 23.2975L8.70265 17.955C8.40086 17.6532 8.16145 17.2949 7.99812 16.9006C7.83479 16.5063 7.75072 16.0836 7.75072 15.6568C7.75072 15.23 7.83479 14.8074 7.99812 14.4131C8.16145 14.0188 8.40086 13.6605 8.70265 13.3587L15.5002 6.56122L25.4389 16.5L18.6414 23.2975Z" fill="white"/>
</svg>
