<svg width="32" height="32" viewBox="0 0 32 32" fill="none" xmlns="http://www.w3.org/2000/svg">
<path d="M30 13.25H28.435L24.935 7.13125C24.7811 6.86475 24.5597 6.64353 24.2931 6.4899C24.0264 6.33628 23.724 6.25569 23.4163 6.25625H8.58C8.27227 6.25569 7.96983 6.33628 7.70318 6.4899C7.43654 6.64353 7.21512 6.86475 7.06125 7.13125L3.56125 13.2563H2C1.80109 13.2563 1.61032 13.3353 1.46967 13.4759C1.32902 13.6166 1.25 13.8073 1.25 14.0063C1.25 14.2052 1.32902 14.3959 1.46967 14.5366C1.61032 14.6772 1.80109 14.7563 2 14.7563H3.25V25.0063C3.25 25.4704 3.43437 25.9155 3.76256 26.2437C4.09075 26.5719 4.53587 26.7563 5 26.7563H8C8.46413 26.7563 8.90925 26.5719 9.23744 26.2437C9.56563 25.9155 9.75 25.4704 9.75 25.0063V22.75H22.25V25C22.25 25.4641 22.4344 25.9092 22.7626 26.2374C23.0908 26.5656 23.5359 26.75 24 26.75H27C27.4641 26.75 27.9092 26.5656 28.2374 26.2374C28.5656 25.9092 28.75 25.4641 28.75 25V14.75H30C30.1989 14.75 30.3897 14.671 30.5303 14.5303C30.671 14.3897 30.75 14.1989 30.75 14C30.75 13.8011 30.671 13.6103 30.5303 13.4697C30.3897 13.329 30.1989 13.25 30 13.25ZM8.36375 7.875C8.38567 7.83703 8.41719 7.8055 8.45514 7.78356C8.4931 7.76162 8.53616 7.75004 8.58 7.75H23.42C23.4638 7.75004 23.5069 7.76162 23.5449 7.78356C23.5828 7.8055 23.6143 7.83703 23.6362 7.875L26.7075 13.25H5.2925L8.36375 7.875ZM8.25 25C8.25 25.0663 8.22366 25.1299 8.17678 25.1768C8.12989 25.2237 8.0663 25.25 8 25.25H5C4.9337 25.25 4.87011 25.2237 4.82322 25.1768C4.77634 25.1299 4.75 25.0663 4.75 25V22.75H8.25V25ZM27 25.25H24C23.9337 25.25 23.8701 25.2237 23.8232 25.1768C23.7763 25.1299 23.75 25.0663 23.75 25V22.75H27.25V25C27.25 25.0663 27.2237 25.1299 27.1768 25.1768C27.1299 25.2237 27.0663 25.25 27 25.25ZM27.25 21.25H4.75V14.75H27.25V21.25ZM7.25 18C7.25 17.8011 7.32902 17.6103 7.46967 17.4697C7.61032 17.329 7.80109 17.25 8 17.25H10C10.1989 17.25 10.3897 17.329 10.5303 17.4697C10.671 17.6103 10.75 17.8011 10.75 18C10.75 18.1989 10.671 18.3897 10.5303 18.5303C10.3897 18.671 10.1989 18.75 10 18.75H8C7.80109 18.75 7.61032 18.671 7.46967 18.5303C7.32902 18.3897 7.25 18.1989 7.25 18ZM21.25 18C21.25 17.8011 21.329 17.6103 21.4697 17.4697C21.6103 17.329 21.8011 17.25 22 17.25H24C24.1989 17.25 24.3897 17.329 24.5303 17.4697C24.671 17.6103 24.75 17.8011 24.75 18C24.75 18.1989 24.671 18.3897 24.5303 18.5303C24.3897 18.671 24.1989 18.75 24 18.75H22C21.8011 18.75 21.6103 18.671 21.4697 18.5303C21.329 18.3897 21.25 18.1989 21.25 18ZM12.25 3C12.25 2.80109 12.329 2.61032 12.4697 2.46967C12.6103 2.32902 12.8011 2.25 13 2.25H19C19.1989 2.25 19.3897 2.32902 19.5303 2.46967C19.671 2.61032 19.75 2.80109 19.75 3C19.75 3.19891 19.671 3.38968 19.5303 3.53033C19.3897 3.67098 19.1989 3.75 19 3.75H13C12.8011 3.75 12.6103 3.67098 12.4697 3.53033C12.329 3.38968 12.25 3.19891 12.25 3Z" fill="white"/>
</svg>
