<svg width="32" height="32" viewBox="0 0 32 32" fill="none" xmlns="http://www.w3.org/2000/svg">
<path d="M28.5175 9.45746C28.4229 9.36716 28.3064 9.30315 28.1794 9.27179C28.0525 9.24044 27.9195 9.24282 27.7938 9.27871L27.6175 9.32871C27.4545 8.61667 27.1446 7.94649 26.7078 7.36103C26.271 6.77556 25.7168 6.2877 25.0806 5.92864C24.4445 5.56957 23.7405 5.34721 23.0135 5.27576C22.2865 5.20431 21.5526 5.28536 20.8588 5.51371C20.464 4.54927 19.7912 3.72413 18.9259 3.14335C18.0607 2.56257 17.0421 2.25244 16 2.25244C14.9579 2.25244 13.9394 2.56257 13.0741 3.14335C12.2089 3.72413 11.536 4.54927 11.1413 5.51371C10.4474 5.28536 9.71354 5.20431 8.98657 5.27576C8.2596 5.34721 7.55554 5.56957 6.91941 5.92864C6.28328 6.2877 5.72908 6.77556 5.29225 7.36103C4.85542 7.94649 4.54558 8.61667 4.38252 9.32871L4.20627 9.27871C4.08059 9.24279 3.9477 9.24034 3.82077 9.27161C3.69385 9.30288 3.5773 9.36678 3.48269 9.45698C3.38807 9.54717 3.31867 9.66053 3.28137 9.78581C3.24407 9.91109 3.24016 10.044 3.27002 10.1712L7.08877 26.4012C7.17921 26.7851 7.39669 27.1272 7.70595 27.3721C8.0152 27.6169 8.39809 27.75 8.79252 27.75H23.2075C23.602 27.75 23.9848 27.6169 24.2941 27.3721C24.6034 27.1272 24.8208 26.7851 24.9113 26.4012L28.73 10.1712C28.7598 10.044 28.7559 9.91129 28.7186 9.7861C28.6814 9.66091 28.612 9.54763 28.5175 9.45746ZM9.50002 6.74996C10.1104 6.74849 10.7117 6.89838 11.25 7.18621C11.3521 7.24061 11.4654 7.27066 11.5811 7.274C11.6967 7.27734 11.8115 7.25388 11.9166 7.20546C12.0217 7.15704 12.1141 7.08498 12.1867 6.9949C12.2593 6.90482 12.3101 6.79917 12.335 6.68621C12.5207 5.85401 12.9845 5.10993 13.6498 4.57668C14.3152 4.04343 15.1424 3.75285 15.995 3.75285C16.8477 3.75285 17.6749 4.04343 18.3402 4.57668C19.0056 5.10993 19.4693 5.85401 19.655 6.68621C19.6801 6.799 19.7308 6.90447 19.8033 6.99441C19.8758 7.08436 19.9681 7.15633 20.073 7.20473C20.1779 7.25313 20.2926 7.27664 20.4081 7.27342C20.5235 7.27021 20.6367 7.24037 20.7388 7.18621C21.2806 6.89687 21.8858 6.74694 22.5 6.74996C23.3633 6.74972 24.2001 7.0473 24.8694 7.59247C25.5387 8.13765 25.9994 8.89703 26.1738 9.74246L21.04 11.2087L16.65 9.45871C16.2328 9.29179 15.7673 9.29179 15.35 9.45871L10.96 11.2087L5.82627 9.74246C6.00065 8.89703 6.46135 8.13765 7.13064 7.59247C7.79992 7.0473 8.6368 6.74972 9.50002 6.74996ZM20.18 12.48L18.3438 26.25H13.6563L11.82 12.48L15.9075 10.845C15.9669 10.8213 16.0331 10.8213 16.0925 10.845L20.18 12.48ZM8.55502 26.0575L5.02252 11.0725L10.3213 12.5862L12.1438 26.25H8.79252C8.73614 26.2501 8.68138 26.2311 8.63713 26.1962C8.59288 26.1612 8.56174 26.1123 8.54877 26.0575H8.55502ZM23.4575 26.0575C23.4443 26.1134 23.4123 26.1631 23.3667 26.1981C23.3212 26.2332 23.265 26.2515 23.2075 26.25H19.8563L21.6788 12.5862L26.9775 11.0725L23.4575 26.0575Z" fill="white"/>
</svg>
