<svg width="32" height="32" viewBox="0 0 32 32" fill="none" xmlns="http://www.w3.org/2000/svg">
<path d="M16 1.25C13.6802 1.25265 11.4561 2.17537 9.81574 3.81574C8.17537 5.45611 7.25265 7.68017 7.25 10V22C7.25 22.4641 7.43437 22.9092 7.76256 23.2374C8.09075 23.5656 8.53587 23.75 9 23.75H13.25V29C13.25 29.7293 13.5397 30.4288 14.0555 30.9445C14.5712 31.4603 15.2707 31.75 16 31.75C16.7293 31.75 17.4288 31.4603 17.9445 30.9445C18.4603 30.4288 18.75 29.7293 18.75 29V23.75H23C23.4641 23.75 23.9092 23.5656 24.2374 23.2374C24.5656 22.9092 24.75 22.4641 24.75 22V10C24.7474 7.68017 23.8246 5.45611 22.1843 3.81574C20.5439 2.17537 18.3198 1.25265 16 1.25ZM17.25 29C17.25 29.3315 17.1183 29.6495 16.8839 29.8839C16.6495 30.1183 16.3315 30.25 16 30.25C15.6685 30.25 15.3505 30.1183 15.1161 29.8839C14.8817 29.6495 14.75 29.3315 14.75 29V23.75H17.25V29ZM23.25 22C23.25 22.0663 23.2237 22.1299 23.1768 22.1768C23.1299 22.2237 23.0663 22.25 23 22.25H9C8.9337 22.25 8.87011 22.2237 8.82322 22.1768C8.77634 22.1299 8.75 22.0663 8.75 22V10C8.75 8.07718 9.51384 6.23311 10.8735 4.87348C12.2331 3.51384 14.0772 2.75 16 2.75C17.9228 2.75 19.7669 3.51384 21.1265 4.87348C22.4862 6.23311 23.25 8.07718 23.25 10V22ZM14.75 9V19C14.75 19.1989 14.671 19.3897 14.5303 19.5303C14.3897 19.671 14.1989 19.75 14 19.75C13.8011 19.75 13.6103 19.671 13.4697 19.5303C13.329 19.3897 13.25 19.1989 13.25 19V9C13.25 8.80109 13.329 8.61032 13.4697 8.46967C13.6103 8.32902 13.8011 8.25 14 8.25C14.1989 8.25 14.3897 8.32902 14.5303 8.46967C14.671 8.61032 14.75 8.80109 14.75 9ZM18.75 9V19C18.75 19.1989 18.671 19.3897 18.5303 19.5303C18.3897 19.671 18.1989 19.75 18 19.75C17.8011 19.75 17.6103 19.671 17.4697 19.5303C17.329 19.3897 17.25 19.1989 17.25 19V9C17.25 8.80109 17.329 8.61032 17.4697 8.46967C17.6103 8.32902 17.8011 8.25 18 8.25C18.1989 8.25 18.3897 8.32902 18.5303 8.46967C18.671 8.61032 18.75 8.80109 18.75 9Z" fill="white"/>
</svg>
