<svg width="32" height="32" viewBox="0 0 32 32" fill="none" xmlns="http://www.w3.org/2000/svg">
<path d="M15.53 17.5299L18.1662 14.8937C19.1866 15.4365 20.3219 15.7275 21.4775 15.7424C22.5731 15.7451 23.6481 15.4449 24.5837 14.8749C27.4675 13.1249 29.0112 9.05869 28.7087 3.98869C28.698 3.80521 28.6203 3.63205 28.4903 3.50208C28.3604 3.37212 28.1872 3.29441 28.0037 3.28369C22.9337 2.98619 18.8637 4.53369 17.1175 7.40869C15.965 9.31119 15.9675 11.6224 17.1 13.8274L15 15.9387L13.17 14.1099C13.96 12.4849 13.9387 10.7849 13.0862 9.37744C11.7762 7.21494 8.74998 6.05494 4.98123 6.27619C4.79775 6.28691 4.62459 6.36462 4.49462 6.49458C4.36466 6.62455 4.28695 6.79771 4.27623 6.98119C4.05498 10.7499 5.21498 13.7749 7.37498 15.0862C8.09001 15.5229 8.91216 15.7526 9.74998 15.7499C10.5721 15.7401 11.3812 15.5434 12.1162 15.1749L13.9387 16.9999L12.6887 18.2499H6.99998C6.80107 18.2499 6.6103 18.329 6.46965 18.4696C6.329 18.6103 6.24998 18.801 6.24998 18.9999C6.24998 19.1989 6.329 19.3896 6.46965 19.5303C6.6103 19.6709 6.80107 19.7499 6.99998 19.7499H8.39748L10.0937 27.3749C10.1773 27.7655 10.3928 28.1154 10.704 28.3658C11.0151 28.6163 11.4031 28.7519 11.8025 28.7499H20.1987C20.5979 28.7516 20.9856 28.6158 21.2965 28.3655C21.6074 28.1151 21.8227 27.7653 21.9062 27.3749L23.6025 19.7499H25C25.1989 19.7499 25.3897 19.6709 25.5303 19.5303C25.671 19.3896 25.75 19.1989 25.75 18.9999C25.75 18.801 25.671 18.6103 25.5303 18.4696C25.3897 18.329 25.1989 18.2499 25 18.2499H14.81L15.53 17.5299ZM18.405 8.19244C19.78 5.91494 23.06 4.65119 27.245 4.75494C27.3487 8.93869 26.085 12.2149 23.8075 13.5949C22.27 14.5249 20.4212 14.4599 18.5837 13.4162C17.5387 11.5787 17.4737 9.72994 18.405 8.19244ZM11.6975 13.6924C10.4475 14.3874 9.19748 14.4262 8.15498 13.7974C6.59748 12.8587 5.71873 10.6249 5.74998 7.74994C8.62498 7.71369 10.86 8.59744 11.8025 10.1549C12.4312 11.1924 12.3925 12.4449 11.6975 13.6974V13.6924ZM22.065 19.7499L20.44 27.0537C20.4277 27.1093 20.3969 27.159 20.3526 27.1947C20.3083 27.2304 20.2531 27.2498 20.1962 27.2499H11.8025C11.7445 27.2513 11.6879 27.2325 11.6423 27.1967C11.5967 27.1609 11.5649 27.1103 11.5525 27.0537L9.93498 19.7499H22.065Z" fill="white"/>
</svg>
