<svg width="32" height="32" viewBox="0 0 32 32" fill="none" xmlns="http://www.w3.org/2000/svg">
<path d="M29.2387 10.3488L21.6524 2.76252C21.4899 2.59981 21.2969 2.47073 21.0844 2.38266C20.872 2.2946 20.6443 2.24927 20.4143 2.24927C20.1843 2.24927 19.9566 2.2946 19.7441 2.38266C19.5317 2.47073 19.3387 2.59981 19.1762 2.76252L12.3662 9.59627C11.1762 9.19002 8.11616 8.55377 4.90241 11.1475C4.71075 11.3016 4.5537 11.4943 4.44151 11.7131C4.32933 11.9319 4.26452 12.172 4.25131 12.4175C4.2381 12.6631 4.27679 12.9086 4.36485 13.1382C4.45292 13.3678 4.58838 13.5763 4.76241 13.75L10.9762 19.9638L5.46991 25.4638C5.39623 25.5324 5.33712 25.6152 5.29613 25.7072C5.25514 25.7992 5.2331 25.8985 5.23132 25.9992C5.22954 26.0999 5.24807 26.2 5.28579 26.2934C5.32351 26.3868 5.37966 26.4716 5.45087 26.5428C5.52209 26.614 5.60693 26.6702 5.70031 26.7079C5.7937 26.7456 5.89373 26.7641 5.99444 26.7624C6.09514 26.7606 6.19445 26.7385 6.28645 26.6975C6.37845 26.6566 6.46125 26.5975 6.52991 26.5238L12.0362 21.0175L18.2499 27.2363C18.4123 27.399 18.6052 27.5281 18.8175 27.6163C19.0299 27.7044 19.2575 27.7499 19.4874 27.75C19.5282 27.75 19.5699 27.75 19.6124 27.75C19.8619 27.7323 20.1047 27.6613 20.3244 27.5419C20.5441 27.4224 20.7357 27.2573 20.8862 27.0575C23.3512 23.7813 23.0299 21.1538 22.4437 19.645L29.2399 12.8263C29.4027 12.6636 29.5319 12.4705 29.6199 12.2579C29.708 12.0453 29.7533 11.8174 29.7532 11.5873C29.753 11.3571 29.7075 11.1293 29.6193 10.9168C29.531 10.7043 29.4016 10.5112 29.2387 10.3488ZM28.1774 11.7625L21.0187 18.945C20.9078 19.0565 20.8348 19.1999 20.8099 19.3552C20.785 19.5104 20.8095 19.6695 20.8799 19.81C22.1224 22.295 20.6662 24.85 19.6874 26.15C19.6658 26.1783 19.6384 26.2016 19.607 26.2184C19.5757 26.2352 19.5411 26.2451 19.5056 26.2474C19.4701 26.2498 19.4345 26.2446 19.4012 26.2321C19.3679 26.2196 19.3376 26.2001 19.3124 26.175L5.82241 12.6888C5.79715 12.6637 5.77752 12.6336 5.76482 12.6004C5.75213 12.5672 5.74666 12.5317 5.74879 12.4962C5.75092 12.4607 5.7606 12.4261 5.77717 12.3946C5.79375 12.3631 5.81684 12.3356 5.84491 12.3138C7.40741 11.0525 8.90741 10.7188 10.0574 10.7188C10.7981 10.7076 11.5329 10.8529 12.2137 11.145C12.355 11.215 12.5147 11.2386 12.6702 11.2126C12.8257 11.1866 12.9691 11.1122 13.0799 11L20.2374 3.82377C20.2606 3.80053 20.2882 3.78209 20.3186 3.7695C20.3489 3.75692 20.3814 3.75045 20.4143 3.75045C20.4471 3.75045 20.4797 3.75692 20.51 3.7695C20.5404 3.78209 20.5679 3.80053 20.5912 3.82377L28.1774 11.4088C28.2007 11.432 28.2191 11.4596 28.2317 11.4899C28.2443 11.5203 28.2507 11.5528 28.2507 11.5856C28.2507 11.6185 28.2443 11.651 28.2317 11.6814C28.2191 11.7117 28.2007 11.7393 28.1774 11.7625Z" fill="white"/>
</svg>
