<svg width="32" height="32" viewBox="0 0 32 32" fill="none" xmlns="http://www.w3.org/2000/svg">
<path d="M27.4012 20.03C27.2942 19.9624 27.1719 19.9229 27.0455 19.9152C26.9192 19.9076 26.793 19.932 26.6787 19.9863C26.3138 20.1586 25.9154 20.2486 25.5119 20.2497C25.1084 20.2509 24.7095 20.1632 24.3437 19.9929C23.9778 19.8227 23.6539 19.5739 23.3949 19.2645C23.136 18.955 22.9483 18.5923 22.8453 18.2021C22.7422 17.8119 22.7263 17.4039 22.7986 17.0069C22.8709 16.6099 23.0297 16.2337 23.2637 15.9049C23.4978 15.5762 23.8013 15.3029 24.1528 15.1047C24.5042 14.9064 24.895 14.7878 25.2974 14.7575C25.7723 14.7232 26.248 14.8119 26.6787 15.015C26.793 15.0692 26.9191 15.0936 27.0454 15.0859C27.1716 15.0783 27.2939 15.0388 27.4008 14.9712C27.5077 14.9036 27.5958 14.81 27.6568 14.6992C27.7178 14.5884 27.7499 14.464 27.7499 14.3375V9.00002C27.7499 8.53589 27.5655 8.09078 27.2373 7.76259C26.9092 7.4344 26.464 7.25002 25.9999 7.25002H21.1849C21.2281 7.00236 21.2498 6.75143 21.2499 6.50002C21.249 5.9196 21.1296 5.34548 20.899 4.81285C20.6683 4.28022 20.3313 3.80031 19.9087 3.40252C19.4864 3.00214 18.9856 2.69375 18.438 2.49688C17.8904 2.3 17.3079 2.21892 16.7274 2.25877C16.1301 2.29726 15.5476 2.4615 15.0181 2.74073C14.4887 3.01996 14.0242 3.40788 13.655 3.87909C13.2859 4.35029 13.0205 4.89416 12.8761 5.47508C12.7318 6.05599 12.7118 6.66084 12.8174 7.25002H7.99991C7.53578 7.25002 7.09066 7.4344 6.76247 7.76259C6.43428 8.09078 6.24991 8.53589 6.24991 9.00002V13.3163C5.55295 13.1914 4.83583 13.2426 4.16369 13.4652C3.49155 13.6879 2.8857 14.075 2.40116 14.5913C1.85173 15.1766 1.47929 15.9055 1.32697 16.6937C1.17465 17.4818 1.24866 18.297 1.54046 19.0449C1.83225 19.7927 2.32988 20.4427 2.97574 20.9194C3.6216 21.3962 4.38928 21.6802 5.18991 21.7388C5.54416 21.7644 5.90021 21.7459 6.24991 21.6838V26C6.24991 26.4642 6.43428 26.9093 6.76247 27.2375C7.09066 27.5656 7.53578 27.75 7.99991 27.75H25.9999C26.464 27.75 26.9092 27.5656 27.2373 27.2375C27.5655 26.9093 27.7499 26.4642 27.7499 26V20.6638C27.7499 20.5373 27.718 20.4129 27.657 20.3021C27.596 20.1913 27.508 20.0977 27.4012 20.03ZM26.2499 26C26.2499 26.0663 26.2236 26.1299 26.1767 26.1768C26.1298 26.2237 26.0662 26.25 25.9999 26.25H7.99991C7.9336 26.25 7.87001 26.2237 7.82313 26.1768C7.77625 26.1299 7.74991 26.0663 7.74991 26V20.6638C7.74991 20.4649 7.67089 20.2741 7.53024 20.1334C7.38959 19.9928 7.19882 19.9138 6.99991 19.9138C6.88874 19.9135 6.77893 19.9383 6.67866 19.9863C6.27306 20.1786 5.82656 20.2687 5.37813 20.2487C4.92969 20.2288 4.49296 20.0993 4.10606 19.8717C3.71917 19.6441 3.39386 19.3253 3.15856 18.943C2.92325 18.5608 2.7851 18.1267 2.75616 17.6788C2.72498 17.2007 2.81922 16.7228 3.02957 16.2924C3.23991 15.8619 3.55905 15.4939 3.95538 15.2248C4.35171 14.9556 4.81147 14.7947 5.28914 14.7579C5.7668 14.7211 6.24579 14.8097 6.67866 15.015C6.79296 15.0692 6.9191 15.0936 7.04536 15.0859C7.17162 15.0783 7.29389 15.0388 7.40079 14.9712C7.5077 14.9036 7.59576 14.81 7.6568 14.6992C7.71784 14.5884 7.74987 14.464 7.74991 14.3375V9.00002C7.74991 8.93372 7.77625 8.87013 7.82313 8.82325C7.87001 8.77636 7.9336 8.75002 7.99991 8.75002H13.8362C13.9626 8.74999 14.0871 8.71796 14.1979 8.65692C14.3087 8.59588 14.4022 8.50781 14.4698 8.40091C14.5374 8.294 14.5769 8.17173 14.5846 8.04548C14.5922 7.91922 14.5678 7.79307 14.5137 7.67877C14.3147 7.24919 14.2286 6.77591 14.2637 6.30377C14.2929 5.90093 14.4106 5.50947 14.6082 5.15723C14.8059 4.805 15.0787 4.50062 15.4073 4.26575C15.7359 4.03088 16.1122 3.87128 16.5095 3.79829C16.9067 3.72529 17.3152 3.74071 17.7058 3.84343C18.0964 3.94615 18.4596 4.13366 18.7696 4.39263C19.0796 4.6516 19.3287 4.97567 19.4992 5.3418C19.6698 5.70794 19.7576 6.10714 19.7564 6.51105C19.7552 6.91496 19.6651 7.31364 19.4924 7.67877C19.4385 7.7925 19.4141 7.91797 19.4214 8.04362C19.4287 8.16927 19.4675 8.29105 19.5342 8.39776C19.601 8.50447 19.6935 8.59267 19.8033 8.65423C19.913 8.71579 20.0366 8.74873 20.1624 8.75002H25.9999C26.0662 8.75002 26.1298 8.77636 26.1767 8.82325C26.2236 8.87013 26.2499 8.93372 26.2499 9.00002V13.3175C25.6607 13.2119 25.0559 13.2319 24.475 13.3762C23.894 13.5206 23.3502 13.786 22.879 14.1552C22.4078 14.5243 22.0198 14.9888 21.7406 15.5183C21.4614 16.0477 21.2971 16.6302 21.2587 17.2275C21.2192 17.8079 21.3003 18.3902 21.4969 18.9377C21.6936 19.4852 22.0014 19.9861 22.4012 20.4088C22.8866 20.9239 23.4925 21.3103 24.1643 21.533C24.8362 21.7558 25.5529 21.8081 26.2499 21.685V26Z" fill="white"/>
</svg>
