<svg width="32" height="32" viewBox="0 0 32 32" fill="none" xmlns="http://www.w3.org/2000/svg">
<path d="M23.75 12C23.75 15.5 20.6725 18.3888 16.75 18.7188V20C16.75 20.1989 16.671 20.3897 16.5303 20.5303C16.3897 20.671 16.1989 20.75 16 20.75C15.8011 20.75 15.6103 20.671 15.4697 20.5303C15.329 20.3897 15.25 20.1989 15.25 20V18C15.25 17.8011 15.329 17.6103 15.4697 17.4697C15.6103 17.329 15.8011 17.25 16 17.25C19.4462 17.25 22.25 14.895 22.25 12C22.25 9.105 19.4462 6.75 16 6.75C12.5538 6.75 9.75 9.105 9.75 12C9.75 12.1989 9.67098 12.3897 9.53033 12.5303C9.38968 12.671 9.19891 12.75 9 12.75C8.80109 12.75 8.61032 12.671 8.46967 12.5303C8.32902 12.3897 8.25 12.1989 8.25 12C8.25 8.2775 11.7263 5.25 16 5.25C20.2738 5.25 23.75 8.2775 23.75 12ZM16 24.25C15.6539 24.25 15.3155 24.3526 15.0278 24.5449C14.74 24.7372 14.5157 25.0105 14.3832 25.3303C14.2508 25.6501 14.2161 26.0019 14.2836 26.3414C14.3511 26.6809 14.5178 26.9927 14.7626 27.2374C15.0073 27.4822 15.3191 27.6488 15.6586 27.7164C15.9981 27.7839 16.3499 27.7492 16.6697 27.6168C16.9895 27.4843 17.2628 27.26 17.4551 26.9722C17.6474 26.6845 17.75 26.3461 17.75 26C17.75 25.5359 17.5656 25.0908 17.2374 24.7626C16.9092 24.4344 16.4641 24.25 16 24.25Z" fill="white"/>
</svg>
