<svg width="32" height="32" viewBox="0 0 32 32" fill="none" xmlns="http://www.w3.org/2000/svg">
<path d="M13.7502 20.5001C13.7502 20.7473 13.6768 20.989 13.5395 21.1946C13.4021 21.4001 13.2069 21.5603 12.9785 21.655C12.7501 21.7496 12.4988 21.7743 12.2563 21.7261C12.0138 21.6779 11.7911 21.5588 11.6163 21.384C11.4415 21.2092 11.3224 20.9864 11.2742 20.744C11.2259 20.5015 11.2507 20.2502 11.3453 20.0218C11.4399 19.7933 11.6001 19.5981 11.8057 19.4608C12.0113 19.3234 12.2529 19.2501 12.5002 19.2501C12.8317 19.2501 13.1496 19.3818 13.384 19.6162C13.6185 19.8506 13.7502 20.1686 13.7502 20.5001ZM19.5002 19.2501C19.2529 19.2501 19.0113 19.3234 18.8057 19.4608C18.6001 19.5981 18.4399 19.7933 18.3453 20.0218C18.2507 20.2502 18.2259 20.5015 18.2742 20.744C18.3224 20.9864 18.4415 21.2092 18.6163 21.384C18.7911 21.5588 19.0138 21.6779 19.2563 21.7261C19.4988 21.7743 19.7501 21.7496 19.9785 21.655C20.2069 21.5603 20.4021 21.4001 20.5395 21.1946C20.6768 20.989 20.7502 20.7473 20.7502 20.5001C20.7502 20.1686 20.6185 19.8506 20.384 19.6162C20.1496 19.3818 19.8317 19.2501 19.5002 19.2501ZM26.7502 23.5001C26.7502 24.746 26.3778 25.9636 25.6809 26.9964C24.9839 28.0291 23.9942 28.83 22.8388 29.2962C21.6833 29.7625 20.4149 29.8727 19.1964 29.6128C17.9778 29.3529 16.8648 28.7347 16.0002 27.8376C15.4176 28.4434 14.7189 28.9255 13.9458 29.255C13.1726 29.5845 12.341 29.7548 11.5005 29.7555C10.6601 29.7562 9.82815 29.5874 9.05445 29.2592C8.28075 28.9311 7.58118 28.4502 6.9976 27.8454C6.41401 27.2406 5.9584 26.5244 5.658 25.7394C5.3576 24.9545 5.21859 24.1171 5.24929 23.2772C5.27998 22.4374 5.47975 21.6123 5.83665 20.8514C6.19354 20.0905 6.70023 19.4094 7.3264 18.8489C7.45171 17.9019 7.73124 16.9818 8.1539 16.1251C6.96982 13.7802 6.10545 11.2872 5.5839 8.7126C5.2089 6.76011 4.9589 4.09886 5.92015 2.51011C6.14071 2.11952 6.46307 1.79606 6.8529 1.57418C7.24274 1.35229 7.68545 1.24029 8.1339 1.25011C11.2389 1.25011 13.1539 6.61511 14.2502 11.4289C15.4047 11.1912 16.5956 11.1912 17.7502 11.4289C18.8464 6.61511 20.7614 1.25011 23.8664 1.25011C24.3152 1.24066 24.7582 1.35323 25.1481 1.57579C25.5379 1.79835 25.8601 2.12257 26.0802 2.51386C27.0402 4.10261 26.7927 6.76386 26.4164 8.71636C25.8945 11.2897 25.0302 13.7814 23.8464 16.1251C24.2687 16.9806 24.5482 17.8994 24.6739 18.8451C25.3289 19.4305 25.8526 20.148 26.2104 20.9503C26.5683 21.7526 26.7522 22.6216 26.7502 23.5001ZM19.1952 11.8539C20.1923 12.2453 21.1091 12.8165 21.9002 13.5389C22.2653 13.8735 22.6019 14.2381 22.9064 14.6289C24.9839 10.1501 25.8752 5.06761 24.7964 3.29011C24.7089 3.12086 24.5749 2.98012 24.4102 2.88445C24.2454 2.78878 24.0568 2.74217 23.8664 2.75011C22.2627 2.75011 20.4514 6.30011 19.1952 11.8539ZM9.0939 14.6251C9.3964 14.2346 9.73089 13.87 10.0939 13.5351C10.8849 12.8127 11.8018 12.2416 12.7989 11.8501C11.5489 6.30011 9.73765 2.75011 8.1339 2.75011C7.94355 2.74217 7.75489 2.78878 7.59013 2.88445C7.42538 2.98012 7.29138 3.12086 7.2039 3.29011C6.12515 5.06761 7.0164 10.1501 9.0939 14.6251ZM25.2502 23.5001C25.2513 22.7927 25.094 22.0941 24.7896 21.4555C24.4852 20.8169 24.0416 20.2547 23.4914 19.8101C23.4141 19.7472 23.3501 19.6697 23.3029 19.5819C23.2557 19.4942 23.2263 19.398 23.2164 19.2989C23.0398 17.5079 22.2034 15.8467 20.8699 14.6382C19.5363 13.4297 17.801 12.7604 16.0014 12.7604C14.2018 12.7604 12.4665 13.4297 11.1329 14.6382C9.79942 15.8467 8.96302 17.5079 8.7864 19.2989C8.77683 19.3978 8.7477 19.4938 8.70071 19.5813C8.65372 19.6689 8.58979 19.7462 8.51265 19.8089C8.00482 20.2171 7.58642 20.7256 7.28349 21.3025C6.98055 21.8794 6.79955 22.5125 6.75175 23.1623C6.70395 23.8122 6.79037 24.4649 7.00563 25.0799C7.22089 25.695 7.56039 26.2591 8.00301 26.7373C8.44564 27.2155 8.98192 27.5976 9.5785 27.8596C10.1751 28.1217 10.8192 28.2582 11.4708 28.2607C12.1224 28.2632 12.7676 28.1316 13.3661 27.8741C13.9647 27.6166 14.5039 27.2387 14.9502 26.7639L13.5227 25.5764C13.4432 25.5146 13.3769 25.4376 13.3279 25.3497C13.2788 25.2619 13.2479 25.1651 13.237 25.0651C13.2262 24.965 13.2355 24.8639 13.2646 24.7675C13.2936 24.6712 13.3417 24.5817 13.4061 24.5043C13.4704 24.427 13.5497 24.3634 13.6391 24.3173C13.7285 24.2712 13.8263 24.2436 13.9267 24.2361C14.027 24.2286 14.1278 24.2413 14.2231 24.2736C14.3184 24.3058 14.4063 24.3569 14.4814 24.4239L16.0002 25.6876L17.5202 24.4239C17.5953 24.3569 17.6831 24.3058 17.7784 24.2736C17.8737 24.2413 17.9746 24.2286 18.0749 24.2361C18.1752 24.2436 18.273 24.2712 18.3625 24.3173C18.4519 24.3634 18.5311 24.427 18.5955 24.5043C18.6598 24.5817 18.708 24.6712 18.737 24.7675C18.766 24.8639 18.7754 24.965 18.7645 25.0651C18.7536 25.1651 18.7227 25.2619 18.6737 25.3497C18.6246 25.4376 18.5584 25.5146 18.4789 25.5764L17.0514 26.7639C17.7048 27.4538 18.5502 27.9319 19.4781 28.1363C20.4061 28.3408 21.3741 28.2622 22.2569 27.9108C23.1398 27.5593 23.897 26.9511 24.4306 26.1649C24.9641 25.3786 25.2496 24.4503 25.2502 23.5001Z" fill="white"/>
</svg>
