<svg width="32" height="32" viewBox="0 0 32 32" fill="none" xmlns="http://www.w3.org/2000/svg">
<path d="M28.5661 3.43373C25.1724 0.0412281 19.0199 0.671228 14.8511 4.83998C10.9024 8.78873 10.1311 14.5162 12.9449 18L8.91613 22.0237L8.65363 21.76C8.49113 21.5975 8.2982 21.4685 8.08587 21.3806C7.87354 21.2926 7.64596 21.2474 7.41613 21.2474C7.1863 21.2474 6.95873 21.2926 6.7464 21.3806C6.53406 21.4685 6.34114 21.5975 6.17863 21.76L2.76238 25.1762C2.59986 25.3387 2.47094 25.5317 2.38298 25.744C2.29503 25.9563 2.24976 26.1839 2.24976 26.4137C2.24976 26.6436 2.29503 26.8711 2.38298 27.0835C2.47094 27.2958 2.59986 27.4887 2.76238 27.6512L4.34863 29.2387C4.51116 29.4014 4.70416 29.5305 4.91661 29.6186C5.12906 29.7067 5.35678 29.752 5.58676 29.752C5.81673 29.752 6.04446 29.7067 6.2569 29.6186C6.46935 29.5305 6.66235 29.4014 6.82488 29.2387L10.2399 25.8237C10.4026 25.6612 10.5317 25.4682 10.6197 25.2557C10.7078 25.0433 10.7531 24.8156 10.7531 24.5856C10.7531 24.3556 10.7078 24.1279 10.6197 23.9155C10.5317 23.703 10.4026 23.51 10.2399 23.3475L9.97738 23.085L13.9999 19.0575C15.3961 20.1825 17.1549 20.7387 19.0161 20.7387C21.7911 20.7387 24.7924 19.5125 27.1561 17.1487C31.3286 12.98 31.9586 6.82748 28.5661 3.43373ZM9.17863 24.7612L5.76363 28.1775C5.74041 28.2007 5.71284 28.2192 5.68249 28.2317C5.65214 28.2443 5.61961 28.2508 5.58676 28.2508C5.5539 28.2508 5.52137 28.2443 5.49102 28.2317C5.46067 28.2192 5.4331 28.2007 5.40988 28.1775L3.82363 26.5912C3.80039 26.568 3.78195 26.5404 3.76937 26.5101C3.75679 26.4797 3.75031 26.4472 3.75031 26.4144C3.75031 26.3815 3.75679 26.349 3.76937 26.3186C3.78195 26.2883 3.80039 26.2607 3.82363 26.2375L7.23863 22.8212C7.26199 22.7981 7.2897 22.7797 7.32016 22.7673C7.35062 22.7548 7.38323 22.7485 7.41613 22.7487C7.48215 22.7487 7.54551 22.7747 7.59238 22.8212L8.38613 23.6137L9.17863 24.4062C9.20188 24.4294 9.22032 24.457 9.2329 24.4874C9.24548 24.5177 9.25195 24.5502 9.25195 24.5831C9.25195 24.616 9.24548 24.6485 9.2329 24.6788C9.22032 24.7092 9.20188 24.7368 9.17863 24.76V24.7612ZM29.0424 7.24998H24.7574V2.95748C25.7986 3.20693 26.7503 3.74015 27.5068 4.49791C28.2632 5.25568 28.7948 6.20831 29.0424 7.24998ZM22.9874 2.74998C23.0774 2.74998 23.1674 2.74998 23.2561 2.74998V7.24998H18.7499V3.82123C20.0571 3.13108 21.5093 2.76054 22.9874 2.73998V2.74998ZM23.2561 8.74998V13.25H18.7499V8.74998H23.2561ZM15.9124 5.90123C16.3285 5.48421 16.7756 5.09936 17.2499 4.74998V7.24998H14.7499C15.1024 6.77143 15.4911 6.32053 15.9124 5.90123ZM13.8311 8.74998H17.2499V13.25H12.7499C12.7074 11.785 13.0724 10.2237 13.8311 8.74998ZM12.9686 14.75H17.2499V19.035C16.2103 18.7855 15.26 18.2531 14.5044 17.4968C13.7487 16.7405 13.2172 15.7898 12.9686 14.75ZM18.7549 19.25V14.75H23.2549V18.1725C21.7761 18.9275 20.2149 19.2925 18.7499 19.2412L18.7549 19.25ZM26.0986 16.0962C25.6814 16.5139 25.2331 16.8991 24.7574 17.2487V14.75H27.2499C26.9002 15.224 26.5153 15.6711 26.0986 16.0875V16.0962ZM28.1799 13.25H24.7574V8.74998H29.2574C29.3036 10.2037 28.9386 11.765 28.1799 13.25Z" fill="white"/>
</svg>
