<svg width="32" height="32" viewBox="0 0 32 32" fill="none" xmlns="http://www.w3.org/2000/svg">
<path d="M16 3.25C13.4783 3.25 11.0132 3.99777 8.91648 5.39876C6.81976 6.79975 5.18556 8.79103 4.22054 11.1208C3.25552 13.4505 3.00303 16.0141 3.49499 18.4874C3.98696 20.9607 5.20127 23.2325 6.98439 25.0156C8.76751 26.7987 11.0393 28.0131 13.5126 28.505C15.9859 28.997 18.5495 28.7445 20.8792 27.7795C23.209 26.8144 25.2003 25.1802 26.6012 23.0835C28.0022 20.9868 28.75 18.5217 28.75 16C28.746 12.6197 27.4015 9.379 25.0112 6.98877C22.621 4.59854 19.3803 3.25397 16 3.25ZM16 27.25C13.775 27.25 11.5999 26.5902 9.74984 25.354C7.89979 24.1179 6.45785 22.3609 5.60636 20.3052C4.75488 18.2495 4.53209 15.9875 4.96617 13.8052C5.40025 11.6229 6.47171 9.61839 8.04505 8.04505C9.6184 6.47171 11.623 5.40025 13.8052 4.96617C15.9875 4.53208 18.2495 4.75487 20.3052 5.60636C22.3609 6.45784 24.1179 7.89978 25.354 9.74984C26.5902 11.5999 27.25 13.775 27.25 16C27.2467 18.9827 26.0604 21.8422 23.9513 23.9513C21.8422 26.0604 18.9827 27.2467 16 27.25ZM16 9.25C14.665 9.25 13.3599 9.64588 12.2499 10.3876C11.1399 11.1293 10.2747 12.1835 9.76382 13.4169C9.25293 14.6503 9.11926 16.0075 9.37971 17.3169C9.64016 18.6262 10.283 19.829 11.227 20.773C12.171 21.717 13.3738 22.3598 14.6831 22.6203C15.9925 22.8808 17.3497 22.7471 18.5831 22.2362C19.8165 21.7253 20.8707 20.8601 21.6124 19.7501C22.3541 18.6401 22.75 17.335 22.75 16C22.748 14.2104 22.0362 12.4947 20.7708 11.2292C19.5053 9.96378 17.7896 9.25199 16 9.25ZM16 21.25C14.9617 21.25 13.9466 20.9421 13.0833 20.3652C12.2199 19.7883 11.547 18.9684 11.1496 18.0091C10.7523 17.0498 10.6483 15.9942 10.8509 14.9758C11.0535 13.9574 11.5535 13.0219 12.2877 12.2877C13.0219 11.5535 13.9574 11.0534 14.9758 10.8509C15.9942 10.6483 17.0498 10.7523 18.0091 11.1496C18.9684 11.547 19.7883 12.2199 20.3652 13.0833C20.9421 13.9466 21.25 14.9616 21.25 16C21.25 17.3924 20.6969 18.7277 19.7123 19.7123C18.7278 20.6969 17.3924 21.25 16 21.25Z" fill="white"/>
</svg>
