<svg width="32" height="32" viewBox="0 0 32 32" fill="none" xmlns="http://www.w3.org/2000/svg">
<path d="M30.7499 10V13C30.7499 13.1989 30.6709 13.3897 30.5302 13.5303C30.3896 13.671 30.1988 13.75 29.9999 13.75C29.801 13.75 29.6102 13.671 29.4696 13.5303C29.3289 13.3897 29.2499 13.1989 29.2499 13V10.75H16.5199L10.7024 26.2638C10.6489 26.4069 10.5529 26.5302 10.4274 26.6173C10.3018 26.7044 10.1527 26.7511 9.99989 26.7511C9.8471 26.7511 9.69794 26.7044 9.5724 26.6173C9.44685 26.5302 9.3509 26.4069 9.29739 26.2638L3.29739 10.2638C3.22744 10.0774 3.23437 9.87098 3.31665 9.68977C3.39893 9.50856 3.54983 9.36746 3.73614 9.29751C3.92246 9.22756 4.12893 9.23449 4.31014 9.31677C4.49134 9.39905 4.63244 9.54995 4.70239 9.73626L9.99989 23.8638L15.2974 9.73876C15.3507 9.59538 15.4465 9.47172 15.5721 9.38436C15.6977 9.297 15.8469 9.25012 15.9999 9.25001H29.9999C30.1988 9.25001 30.3896 9.32903 30.5302 9.46968C30.6709 9.61034 30.7499 9.8011 30.7499 10Z" fill="white"/>
</svg>
