<svg width="32" height="32" viewBox="0 0 32 32" fill="none" xmlns="http://www.w3.org/2000/svg">
<path d="M11.4999 16.7501H4.99991C4.75788 16.7495 4.51862 16.6985 4.29737 16.6004C4.07613 16.5023 3.87776 16.3591 3.71491 16.1801C3.54865 15.9984 3.42209 15.7841 3.34332 15.5508C3.26455 15.3175 3.23528 15.0703 3.25741 14.8251C3.42455 12.9881 3.98902 11.2094 4.91173 9.61223C5.83443 8.01504 7.0933 6.63752 8.60115 5.57508C8.79954 5.43478 9.02498 5.33734 9.26309 5.28895C9.50121 5.24057 9.7468 5.2423 9.98421 5.29404C10.2216 5.34578 10.4457 5.44639 10.642 5.58947C10.8384 5.73255 11.0029 5.91496 11.1249 6.12508L14.3749 11.7501C14.4744 11.9225 14.5013 12.1273 14.4497 12.3195C14.3981 12.5118 14.2723 12.6756 14.0999 12.7751C13.9275 12.8745 13.7227 12.9014 13.5305 12.8499C13.3382 12.7983 13.1744 12.6725 13.0749 12.5001L9.82741 6.87508C9.8102 6.84492 9.7869 6.81868 9.75899 6.79803C9.73108 6.77738 9.69918 6.76276 9.66531 6.75512C9.63144 6.74748 9.59636 6.74697 9.56228 6.75363C9.52821 6.7603 9.4959 6.77399 9.4674 6.79383C8.13594 7.73149 7.02436 8.94755 6.20976 10.3577C5.39516 11.7678 4.89702 13.3382 4.74991 14.9601C4.74618 14.9979 4.75061 15.0362 4.7629 15.0722C4.77519 15.1082 4.79505 15.1411 4.82116 15.1688C4.84333 15.1945 4.87078 15.215 4.90164 15.229C4.93249 15.243 4.96601 15.2502 4.99991 15.2501H11.4999C11.6988 15.2501 11.8896 15.3291 12.0302 15.4697C12.1709 15.6104 12.2499 15.8012 12.2499 16.0001C12.2499 16.199 12.1709 16.3898 12.0302 16.5304C11.8896 16.6711 11.6988 16.7501 11.4999 16.7501ZM28.7424 14.8251C28.5753 12.9881 28.0108 11.2094 27.0881 9.61223C26.1654 8.01504 24.9065 6.63752 23.3987 5.57508C23.2003 5.43478 22.9748 5.33734 22.7367 5.28895C22.4986 5.24057 22.253 5.2423 22.0156 5.29404C21.7782 5.34578 21.5542 5.44639 21.3578 5.58947C21.1614 5.73255 20.9969 5.91496 20.8749 6.12508L17.6249 11.7501C17.5254 11.9225 17.4985 12.1273 17.5501 12.3195C17.6017 12.5118 17.7275 12.6756 17.8999 12.7751C18.0723 12.8745 18.2771 12.9014 18.4694 12.8499C18.6616 12.7983 18.8254 12.6725 18.9249 12.5001L22.1724 6.87508C22.1896 6.84492 22.2129 6.81868 22.2408 6.79803C22.2687 6.77738 22.3006 6.76276 22.3345 6.75512C22.3684 6.74748 22.4035 6.74697 22.4375 6.75363C22.4716 6.7603 22.5039 6.77399 22.5324 6.79383C23.8639 7.73149 24.9754 8.94755 25.7901 10.3577C26.6047 11.7678 27.1028 13.3382 27.2499 14.9601C27.2536 14.9979 27.2492 15.0362 27.2369 15.0722C27.2246 15.1082 27.2048 15.1411 27.1787 15.1688C27.1565 15.1945 27.129 15.215 27.0982 15.229C27.0673 15.243 27.0338 15.2502 26.9999 15.2501H20.4999C20.301 15.2501 20.1102 15.3291 19.9696 15.4697C19.8289 15.6104 19.7499 15.8012 19.7499 16.0001C19.7499 16.199 19.8289 16.3898 19.9696 16.5304C20.1102 16.6711 20.301 16.7501 20.4999 16.7501H26.9999C27.2419 16.7495 27.4812 16.6985 27.7024 16.6004C27.9237 16.5023 28.122 16.3591 28.2849 16.1801C28.4512 15.9984 28.5777 15.7841 28.6565 15.5508C28.7353 15.3175 28.7645 15.0703 28.7424 14.8251ZM18.8999 19.5226C18.8517 19.4354 18.7865 19.3587 18.7083 19.297C18.6301 19.2352 18.5403 19.1897 18.4443 19.1631C18.3483 19.1364 18.248 19.1292 18.1491 19.1417C18.0503 19.1543 17.9549 19.1864 17.8686 19.2363C17.7823 19.2861 17.7068 19.3526 17.6466 19.4319C17.5863 19.5113 17.5424 19.6018 17.5175 19.6983C17.4926 19.7948 17.4872 19.8953 17.5015 19.9939C17.5159 20.0925 17.5498 20.1872 17.6012 20.2726L20.8287 25.8638C20.8462 25.8938 20.8572 25.9272 20.8612 25.9617C20.8651 25.9962 20.8618 26.0312 20.8514 26.0643C20.8411 26.0975 20.8239 26.1282 20.801 26.1543C20.7782 26.1805 20.7501 26.2016 20.7187 26.2163C19.2388 26.8974 17.629 27.2501 15.9999 27.2501C14.3708 27.2501 12.761 26.8974 11.2812 26.2163C11.2497 26.2016 11.2216 26.1805 11.1988 26.1543C11.1759 26.1282 11.1588 26.0975 11.1484 26.0643C11.1381 26.0312 11.1347 25.9962 11.1387 25.9617C11.1426 25.9272 11.1536 25.8938 11.1712 25.8638L14.3987 20.2726C14.4501 20.1872 14.4839 20.0925 14.4983 19.9939C14.5127 19.8953 14.5072 19.7948 14.4823 19.6983C14.4574 19.6018 14.4135 19.5113 14.3533 19.4319C14.293 19.3526 14.2175 19.2861 14.1312 19.2363C14.0449 19.1864 13.9495 19.1543 13.8507 19.1417C13.7518 19.1292 13.6515 19.1364 13.5555 19.1631C13.4595 19.1897 13.3697 19.2352 13.2915 19.297C13.2133 19.3587 13.1482 19.4354 13.0999 19.5226L9.87491 25.1138C9.7532 25.3243 9.67668 25.5578 9.65021 25.7994C9.62374 26.0411 9.64791 26.2856 9.72118 26.5174C9.79444 26.7492 9.9152 26.9632 10.0757 27.1457C10.2363 27.3282 10.4331 27.4753 10.6537 27.5776C12.331 28.3501 14.1557 28.7501 16.0024 28.7501C17.8491 28.7501 19.6738 28.3501 21.3512 27.5776C21.5713 27.4748 21.7676 27.3274 21.9276 27.1447C22.0877 26.9619 22.2079 26.7479 22.2807 26.5161C22.3534 26.2844 22.3772 26.04 22.3504 25.7986C22.3236 25.5572 22.2468 25.324 22.1249 25.1138L18.8999 19.5226ZM15.9999 17.2501C16.2471 17.2501 16.4888 17.1768 16.6944 17.0394C16.8999 16.9021 17.0601 16.7068 17.1548 16.4784C17.2494 16.25 17.2741 15.9987 17.2259 15.7562C17.1777 15.5137 17.0586 15.291 16.8838 15.1162C16.709 14.9414 16.4862 14.8223 16.2438 14.7741C16.0013 14.7259 15.75 14.7506 15.5216 14.8452C15.2931 14.9398 15.0979 15.1001 14.9606 15.3056C14.8232 15.5112 14.7499 15.7529 14.7499 16.0001C14.7499 16.3316 14.8816 16.6495 15.116 16.884C15.3504 17.1184 15.6684 17.2501 15.9999 17.2501Z" fill="white"/>
</svg>
