<svg width="32" height="32" viewBox="0 0 32 32" fill="none" xmlns="http://www.w3.org/2000/svg">
<path d="M12.75 13C12.75 13.1989 12.671 13.3897 12.5303 13.5303C12.3897 13.671 12.1989 13.75 12 13.75H8C7.80109 13.75 7.61032 13.671 7.46967 13.5303C7.32902 13.3897 7.25 13.1989 7.25 13C7.25 12.8011 7.32902 12.6103 7.46967 12.4696C7.61032 12.329 7.80109 12.25 8 12.25H12C12.1989 12.25 12.3897 12.329 12.5303 12.4696C12.671 12.6103 12.75 12.8011 12.75 13ZM12 16.25H8C7.80109 16.25 7.61032 16.329 7.46967 16.4696C7.32902 16.6103 7.25 16.8011 7.25 17C7.25 17.1989 7.32902 17.3897 7.46967 17.5303C7.61032 17.671 7.80109 17.75 8 17.75H12C12.1989 17.75 12.3897 17.671 12.5303 17.5303C12.671 17.3897 12.75 17.1989 12.75 17C12.75 16.8011 12.671 16.6103 12.5303 16.4696C12.3897 16.329 12.1989 16.25 12 16.25ZM12 20.25H8C7.80109 20.25 7.61032 20.329 7.46967 20.4696C7.32902 20.6103 7.25 20.8011 7.25 21C7.25 21.1989 7.32902 21.3897 7.46967 21.5303C7.61032 21.671 7.80109 21.75 8 21.75H12C12.1989 21.75 12.3897 21.671 12.5303 21.5303C12.671 21.3897 12.75 21.1989 12.75 21C12.75 20.8011 12.671 20.6103 12.5303 20.4696C12.3897 20.329 12.1989 20.25 12 20.25ZM28.75 9.99997V24C28.75 24.4641 28.5656 24.9092 28.2374 25.2374C27.9092 25.5656 27.4641 25.75 27 25.75H5C4.53587 25.75 4.09075 25.5656 3.76256 25.2374C3.43437 24.9092 3.25 24.4641 3.25 24V8.99997C3.24995 8.83855 3.30199 8.68142 3.39837 8.55193C3.49476 8.42244 3.63035 8.3275 3.785 8.28122L23.785 2.28122C23.9756 2.2242 24.1811 2.24524 24.3562 2.33971C24.5313 2.43419 24.6617 2.59435 24.7188 2.78497C24.7758 2.9756 24.7547 3.18107 24.6603 3.35618C24.5658 3.53129 24.4056 3.6617 24.215 3.71872L9.11 8.24997H27C27.4641 8.24997 27.9092 8.43435 28.2374 8.76254C28.5656 9.09073 28.75 9.53585 28.75 9.99997ZM27.25 9.99997C27.25 9.93367 27.2237 9.87008 27.1768 9.8232C27.1299 9.77631 27.0663 9.74997 27 9.74997H4.75V24C4.75 24.0663 4.77634 24.1299 4.82322 24.1768C4.87011 24.2236 4.9337 24.25 5 24.25H27C27.0663 24.25 27.1299 24.2236 27.1768 24.1768C27.2237 24.1299 27.25 24.0663 27.25 24V9.99997ZM24.75 17C24.75 17.9394 24.4714 18.8578 23.9495 19.6389C23.4275 20.4201 22.6857 21.0289 21.8177 21.3884C20.9498 21.7479 19.9947 21.842 19.0733 21.6587C18.1519 21.4754 17.3055 21.023 16.6412 20.3587C15.9769 19.6944 15.5245 18.8481 15.3413 17.9267C15.158 17.0052 15.2521 16.0502 15.6116 15.1822C15.9711 14.3143 16.5799 13.5724 17.361 13.0505C18.1422 12.5286 19.0605 12.25 20 12.25C21.2598 12.25 22.468 12.7504 23.3588 13.6412C24.2496 14.532 24.75 15.7402 24.75 17ZM23.25 17C23.25 16.3572 23.0594 15.7288 22.7023 15.1944C22.3452 14.6599 21.8376 14.2434 21.2437 13.9974C20.6499 13.7514 19.9964 13.687 19.366 13.8124C18.7355 13.9378 18.1564 14.2474 17.7019 14.7019C17.2474 15.1564 16.9379 15.7355 16.8124 16.3659C16.687 16.9964 16.7514 17.6498 16.9974 18.2437C17.2434 18.8376 17.6599 19.3451 18.1944 19.7023C18.7289 20.0594 19.3572 20.25 20 20.25C20.862 20.25 21.6886 19.9076 22.2981 19.2981C22.9076 18.6886 23.25 17.8619 23.25 17Z" fill="white"/>
</svg>
