<svg width="32" height="32" viewBox="0 0 32 32" fill="none" xmlns="http://www.w3.org/2000/svg">
<path d="M14.2887 12.7375C14.2258 12.5489 14.2403 12.3429 14.3292 12.165C14.418 11.9871 14.5739 11.8518 14.7625 11.7887L16.2625 11.2887C16.3752 11.2511 16.4953 11.2408 16.6128 11.2587C16.7303 11.2766 16.8419 11.3221 16.9383 11.3916C17.0348 11.461 17.1133 11.5524 17.1675 11.6582C17.2217 11.764 17.25 11.8811 17.25 12V17C17.25 17.1989 17.171 17.3897 17.0303 17.5303C16.8897 17.671 16.6989 17.75 16.5 17.75C16.3011 17.75 16.1103 17.671 15.9697 17.5303C15.829 17.3897 15.75 17.1989 15.75 17V13.04L15.2375 13.2113C15.0489 13.2742 14.8429 13.2597 14.665 13.1708C14.4871 13.082 14.3518 12.9261 14.2887 12.7375ZM30.75 26C30.75 26.1989 30.671 26.3897 30.5303 26.5303C30.3897 26.671 30.1989 26.75 30 26.75H2C1.80109 26.75 1.61032 26.671 1.46967 26.5303C1.32902 26.3897 1.25 26.1989 1.25 26C1.25 25.8011 1.32902 25.6103 1.46967 25.4697C1.61032 25.329 1.80109 25.25 2 25.25H3.25V13C3.25 12.5359 3.43437 12.0908 3.76256 11.7626C4.09075 11.4344 4.53587 11.25 5 11.25H10.25V7C10.25 6.53587 10.4344 6.09075 10.7626 5.76256C11.0908 5.43437 11.5359 5.25 12 5.25H20C20.4641 5.25 20.9092 5.43437 21.2374 5.76256C21.5656 6.09075 21.75 6.53587 21.75 7V16.25H27C27.4641 16.25 27.9092 16.4344 28.2374 16.7626C28.5656 17.0908 28.75 17.5359 28.75 18V25.25H30C30.1989 25.25 30.3897 25.329 30.5303 25.4697C30.671 25.6103 30.75 25.8011 30.75 26ZM21.75 17.75V25.25H27.25V18C27.25 17.9337 27.2237 17.8701 27.1768 17.8232C27.1299 17.7763 27.0663 17.75 27 17.75H21.75ZM11.75 25.25H20.25V7C20.25 6.9337 20.2237 6.87011 20.1768 6.82322C20.1299 6.77634 20.0663 6.75 20 6.75H12C11.9337 6.75 11.8701 6.77634 11.8232 6.82322C11.7763 6.87011 11.75 6.9337 11.75 7V25.25ZM4.75 25.25H10.25V12.75H5C4.9337 12.75 4.87011 12.7763 4.82322 12.8232C4.77634 12.8701 4.75 12.9337 4.75 13V25.25Z" fill="white"/>
</svg>
