<svg width="32" height="32" viewBox="0 0 32 32" fill="none" xmlns="http://www.w3.org/2000/svg">
<path d="M9.75 6C9.75 6.19891 9.67098 6.38968 9.53033 6.53033C9.38968 6.67098 9.19891 6.75 9 6.75H5C4.9337 6.75 4.87011 6.77634 4.82322 6.82322C4.77634 6.87011 4.75 6.9337 4.75 7V9C4.75 9.19891 4.67098 9.38968 4.53033 9.53033C4.38968 9.67098 4.19891 9.75 4 9.75C3.80109 9.75 3.61032 9.67098 3.46967 9.53033C3.32902 9.38968 3.25 9.19891 3.25 9V7C3.25 6.53587 3.43437 6.09075 3.76256 5.76256C4.09075 5.43437 4.53587 5.25 5 5.25H9C9.19891 5.25 9.38968 5.32902 9.53033 5.46967C9.67098 5.61032 9.75 5.80109 9.75 6ZM4 18.75C4.19891 18.75 4.38968 18.671 4.53033 18.5303C4.67098 18.3897 4.75 18.1989 4.75 18V14C4.75 13.8011 4.67098 13.6103 4.53033 13.4697C4.38968 13.329 4.19891 13.25 4 13.25C3.80109 13.25 3.61032 13.329 3.46967 13.4697C3.32902 13.6103 3.25 13.8011 3.25 14V18C3.25 18.1989 3.32902 18.3897 3.46967 18.5303C3.61032 18.671 3.80109 18.75 4 18.75ZM9 25.25H5C4.9337 25.25 4.87011 25.2237 4.82322 25.1768C4.77634 25.1299 4.75 25.0663 4.75 25V23C4.75 22.8011 4.67098 22.6103 4.53033 22.4697C4.38968 22.329 4.19891 22.25 4 22.25C3.80109 22.25 3.61032 22.329 3.46967 22.4697C3.32902 22.6103 3.25 22.8011 3.25 23V25C3.25 25.4641 3.43437 25.9092 3.76256 26.2374C4.09075 26.5656 4.53587 26.75 5 26.75H9C9.19891 26.75 9.38968 26.671 9.53033 26.5303C9.67098 26.3897 9.75 26.1989 9.75 26C9.75 25.8011 9.67098 25.6103 9.53033 25.4697C9.38968 25.329 9.19891 25.25 9 25.25ZM18 25.25H14C13.8011 25.25 13.6103 25.329 13.4697 25.4697C13.329 25.6103 13.25 25.8011 13.25 26C13.25 26.1989 13.329 26.3897 13.4697 26.5303C13.6103 26.671 13.8011 26.75 14 26.75H18C18.1989 26.75 18.3897 26.671 18.5303 26.5303C18.671 26.3897 18.75 26.1989 18.75 26C18.75 25.8011 18.671 25.6103 18.5303 25.4697C18.3897 25.329 18.1989 25.25 18 25.25ZM28 22.25C27.8011 22.25 27.6103 22.329 27.4697 22.4697C27.329 22.6103 27.25 22.8011 27.25 23V25C27.25 25.0663 27.2237 25.1299 27.1768 25.1768C27.1299 25.2237 27.0663 25.25 27 25.25H23C22.8011 25.25 22.6103 25.329 22.4697 25.4697C22.329 25.6103 22.25 25.8011 22.25 26C22.25 26.1989 22.329 26.3897 22.4697 26.5303C22.6103 26.671 22.8011 26.75 23 26.75H27C27.4641 26.75 27.9092 26.5656 28.2374 26.2374C28.5656 25.9092 28.75 25.4641 28.75 25V23C28.75 22.8011 28.671 22.6103 28.5303 22.4697C28.3897 22.329 28.1989 22.25 28 22.25ZM28 13.25C27.8011 13.25 27.6103 13.329 27.4697 13.4697C27.329 13.6103 27.25 13.8011 27.25 14V18C27.25 18.1989 27.329 18.3897 27.4697 18.5303C27.6103 18.671 27.8011 18.75 28 18.75C28.1989 18.75 28.3897 18.671 28.5303 18.5303C28.671 18.3897 28.75 18.1989 28.75 18V14C28.75 13.8011 28.671 13.6103 28.5303 13.4697C28.3897 13.329 28.1989 13.25 28 13.25ZM27 5.25H23C22.8011 5.25 22.6103 5.32902 22.4697 5.46967C22.329 5.61032 22.25 5.80109 22.25 6C22.25 6.19891 22.329 6.38968 22.4697 6.53033C22.6103 6.67098 22.8011 6.75 23 6.75H27C27.0663 6.75 27.1299 6.77634 27.1768 6.82322C27.2237 6.87011 27.25 6.9337 27.25 7V9C27.25 9.19891 27.329 9.38968 27.4697 9.53033C27.6103 9.67098 27.8011 9.75 28 9.75C28.1989 9.75 28.3897 9.67098 28.5303 9.53033C28.671 9.38968 28.75 9.19891 28.75 9V7C28.75 6.53587 28.5656 6.09075 28.2374 5.76256C27.9092 5.43437 27.4641 5.25 27 5.25ZM18 5.25H14C13.8011 5.25 13.6103 5.32902 13.4697 5.46967C13.329 5.61032 13.25 5.80109 13.25 6C13.25 6.19891 13.329 6.38968 13.4697 6.53033C13.6103 6.67098 13.8011 6.75 14 6.75H18C18.1989 6.75 18.3897 6.67098 18.5303 6.53033C18.671 6.38968 18.75 6.19891 18.75 6C18.75 5.80109 18.671 5.61032 18.5303 5.46967C18.3897 5.32902 18.1989 5.25 18 5.25Z" fill="white"/>
</svg>
