<svg width="32" height="32" viewBox="0 0 32 32" fill="none" xmlns="http://www.w3.org/2000/svg">
<path d="M11.75 26C11.75 26.1989 11.671 26.3897 11.5303 26.5304C11.3897 26.671 11.1989 26.75 11 26.75H5C4.51783 26.7489 4.04444 26.621 3.6273 26.3791C3.21016 26.1373 2.86394 25.7901 2.62335 25.3722C2.38276 24.9543 2.25627 24.4806 2.25656 23.9984C2.25685 23.5162 2.38391 23.0426 2.625 22.625L7.21375 14.695L4.86875 15.32C4.67646 15.3714 4.47164 15.3443 4.29935 15.2447C4.12705 15.1451 4.00138 14.9811 3.95 14.7888C3.89861 14.5965 3.92571 14.3917 4.02534 14.2194C4.12497 14.0471 4.28896 13.9214 4.48125 13.87L8.5775 12.7738C8.67304 12.7477 8.77279 12.7409 8.871 12.7536C8.96921 12.7663 9.06393 12.7983 9.14969 12.8478C9.23546 12.8973 9.31057 12.9633 9.37069 13.042C9.43082 13.1207 9.47476 13.2105 9.5 13.3063L10.6 17.4013C10.6255 17.4964 10.6321 17.5956 10.6192 17.6933C10.6064 17.7909 10.5745 17.8851 10.5253 17.9704C10.4761 18.0557 10.4105 18.1305 10.3324 18.1905C10.2543 18.2505 10.1651 18.2945 10.07 18.32C10.0064 18.3372 9.94086 18.346 9.875 18.3463C9.70997 18.3461 9.5496 18.2915 9.41875 18.1909C9.28791 18.0904 9.19388 17.9495 9.15125 17.79L8.52625 15.44L3.9225 23.375C3.813 23.5647 3.75524 23.7798 3.75502 23.9988C3.7548 24.2178 3.81212 24.433 3.92123 24.6229C4.03035 24.8127 4.18743 24.9706 4.37676 25.0807C4.56608 25.1908 4.781 25.2492 5 25.25H11C11.1989 25.25 11.3897 25.3291 11.5303 25.4697C11.671 25.6104 11.75 25.8011 11.75 26ZM29.375 22.625L26.4825 17.625C26.3787 17.4618 26.2159 17.3449 26.028 17.2989C25.8401 17.2529 25.6417 17.2813 25.4742 17.3781C25.3067 17.4749 25.1832 17.6326 25.1293 17.8184C25.0754 18.0042 25.0953 18.2036 25.185 18.375L28.0775 23.375C28.187 23.5647 28.2447 23.7798 28.245 23.9988C28.2452 24.2178 28.1879 24.433 28.0788 24.6229C27.9696 24.8127 27.8126 24.9706 27.6232 25.0807C27.4339 25.1908 27.219 25.2492 27 25.25H17.81L19.53 23.53C19.6625 23.3879 19.7346 23.1998 19.7312 23.0055C19.7277 22.8112 19.649 22.6258 19.5116 22.4884C19.3742 22.351 19.1888 22.2723 18.9945 22.2689C18.8002 22.2654 18.6122 22.3376 18.47 22.47L15.47 25.47C15.3295 25.6107 15.2507 25.8013 15.2507 26C15.2507 26.1988 15.3295 26.3894 15.47 26.53L18.47 29.53C18.6122 29.6625 18.8002 29.7346 18.9945 29.7312C19.1888 29.7278 19.3742 29.6491 19.5116 29.5117C19.649 29.3742 19.7277 29.1889 19.7312 28.9946C19.7346 28.8003 19.6625 28.6122 19.53 28.47L17.81 26.75H27C27.4822 26.7489 27.9556 26.621 28.3727 26.3791C28.7898 26.1373 29.1361 25.7901 29.3766 25.3722C29.6172 24.9543 29.7437 24.4806 29.7434 23.9984C29.7431 23.5162 29.6161 23.0426 29.375 22.625ZM17.0812 4.37504L21.6712 12.305L19.3262 11.68C19.1399 11.6436 18.9466 11.6791 18.7855 11.7796C18.6243 11.88 18.5072 12.0378 18.4579 12.2212C18.4086 12.4046 18.4306 12.5999 18.5197 12.7676C18.6087 12.9354 18.758 13.0631 18.9375 13.125L23.035 14.2238C23.2271 14.2749 23.4317 14.2477 23.6037 14.1481C23.7757 14.0485 23.9012 13.8846 23.9525 13.6925L25.0512 9.59504C25.0813 9.4986 25.0916 9.39708 25.0815 9.29656C25.0714 9.19604 25.0411 9.09861 24.9924 9.0101C24.9437 8.92158 24.8776 8.84382 24.7981 8.78148C24.7187 8.71913 24.6274 8.67349 24.5298 8.64729C24.4323 8.62108 24.3304 8.61486 24.2304 8.62899C24.1304 8.64313 24.0342 8.67732 23.9477 8.72953C23.8612 8.78173 23.7862 8.85087 23.7271 8.9328C23.668 9.01472 23.626 9.10775 23.6037 9.20629L22.9725 11.5588L18.375 3.62504C18.1328 3.21005 17.786 2.86578 17.3693 2.62652C16.9526 2.38726 16.4805 2.26135 16 2.26135C15.5195 2.26135 15.0474 2.38726 14.6307 2.62652C14.214 2.86578 13.8672 3.21005 13.625 3.62504L10.725 8.62504C10.6298 8.797 10.606 8.99945 10.6585 9.18883C10.7111 9.37821 10.8359 9.53938 11.0061 9.63767C11.1764 9.73596 11.3783 9.76351 11.5686 9.71439C11.7589 9.66528 11.9224 9.54342 12.0237 9.37504L14.9187 4.37504C15.0286 4.18561 15.1863 4.02838 15.3761 3.91908C15.5659 3.80978 15.781 3.75225 16 3.75225C16.219 3.75225 16.4341 3.80978 16.6239 3.91908C16.8136 4.02838 16.9714 4.18561 17.0812 4.37504Z" fill="white"/>
</svg>
