<svg width="32" height="32" viewBox="0 0 32 32" fill="none" xmlns="http://www.w3.org/2000/svg">
<path d="M30.75 13C30.7497 12.2669 30.5346 11.5501 30.1313 10.938C29.7279 10.3259 29.154 9.84542 28.4805 9.55602C27.807 9.26662 27.0634 9.18095 26.3418 9.30962C25.6201 9.43829 24.952 9.77565 24.42 10.28C22.25 9.09374 19.625 8.39624 16.8813 8.27249L17.6175 3.85374L20.2625 4.26124C20.3253 4.92198 20.6249 5.53773 21.106 5.99489C21.5872 6.45204 22.2175 6.71975 22.8806 6.74862C23.5437 6.77749 24.1948 6.56557 24.7139 6.15197C25.233 5.73836 25.585 5.15098 25.7049 4.49819C25.8249 3.84541 25.7047 3.17127 25.3665 2.60015C25.0284 2.02904 24.4951 1.59949 23.865 1.39075C23.235 1.18202 22.5507 1.20819 21.9385 1.46444C21.3262 1.72068 20.8273 2.18971 20.5338 2.78499L17.1138 2.25874C16.919 2.22873 16.7203 2.27655 16.5606 2.39186C16.4008 2.50717 16.2928 2.68072 16.26 2.87499L15.3625 8.26124C12.5325 8.35374 9.81126 9.05874 7.58001 10.28C7.21743 9.92879 6.78768 9.65441 6.31651 9.47329C5.84535 9.29218 5.34246 9.20804 4.838 9.22594C4.33354 9.24384 3.83789 9.3634 3.38074 9.57746C2.9236 9.79152 2.51438 10.0957 2.1776 10.4717C1.84082 10.8477 1.58343 11.2878 1.42084 11.7657C1.25825 12.2436 1.19381 12.7494 1.23138 13.2527C1.26896 13.7561 1.40777 14.2467 1.63951 14.6952C1.87125 15.1436 2.19114 15.5406 2.58001 15.8625C2.36201 16.5541 2.25073 17.2749 2.25001 18C2.25001 20.6575 3.71751 23.1362 6.38126 24.98C8.96001 26.7662 12.375 27.75 16 27.75C19.625 27.75 23.04 26.7662 25.6188 24.98C28.2825 23.1362 29.75 20.6575 29.75 18C29.7497 17.2749 29.6388 16.5541 29.4213 15.8625C29.8364 15.5097 30.1702 15.0711 30.3996 14.577C30.629 14.0828 30.7485 13.5448 30.75 13ZM23 2.74999C23.2472 2.74999 23.4889 2.8233 23.6945 2.96065C23.9 3.098 24.0602 3.29323 24.1549 3.52163C24.2495 3.75004 24.2742 4.00137 24.226 4.24385C24.1778 4.48633 24.0587 4.70906 23.8839 4.88387C23.7091 5.05869 23.4863 5.17774 23.2439 5.22597C23.0014 5.2742 22.7501 5.24945 22.5217 5.15484C22.2932 5.06023 22.098 4.90001 21.9607 4.69445C21.8233 4.48889 21.75 4.24721 21.75 3.99999C21.75 3.66847 21.8817 3.35052 22.1161 3.1161C22.3505 2.88168 22.6685 2.74999 23 2.74999ZM28.1438 14.9387C27.9875 15.0314 27.8702 15.1777 27.8136 15.3503C27.7571 15.523 27.7651 15.7103 27.8363 15.8775C28.1082 16.5521 28.2486 17.2726 28.25 18C28.25 22.5487 22.75 26.25 16 26.25C9.25001 26.25 3.75001 22.5487 3.75001 18C3.75156 17.2743 3.89156 16.5557 4.16251 15.8825C4.23516 15.7149 4.24413 15.5265 4.18774 15.3527C4.13136 15.179 4.01349 15.0318 3.85626 14.9387C3.56891 14.7686 3.32303 14.5367 3.13645 14.2597C2.94988 13.9827 2.8273 13.6677 2.7776 13.3375C2.72789 13.0073 2.75232 12.6702 2.8491 12.3505C2.94587 12.0309 3.11258 11.7369 3.33712 11.4897C3.56166 11.2425 3.83841 11.0484 4.14728 10.9215C4.45615 10.7946 4.7894 10.738 5.12286 10.7558C5.45632 10.7737 5.78162 10.8656 6.07517 11.0248C6.36872 11.184 6.62315 11.4065 6.82001 11.6762C6.92812 11.8248 7.08699 11.9285 7.26648 11.9676C7.44597 12.0068 7.63359 11.9787 7.79376 11.8887C7.80835 11.8811 7.82253 11.8728 7.83626 11.8637C10.0875 10.5 12.9863 9.74999 16 9.74999C19.0125 9.74999 21.91 10.5 24.1613 11.8625L24.1813 11.8762C24.3425 11.9751 24.535 12.0094 24.7205 11.9724C24.9059 11.9353 25.0705 11.8295 25.1813 11.6762C25.3781 11.4065 25.6325 11.184 25.9261 11.0248C26.2196 10.8656 26.5449 10.7737 26.8784 10.7558C27.2119 10.738 27.5451 10.7946 27.854 10.9215C28.1629 11.0484 28.4396 11.2425 28.6641 11.4897C28.8887 11.7369 29.0554 12.0309 29.1522 12.3505C29.2489 12.6702 29.2734 13.0073 29.2237 13.3375C29.174 13.6677 29.0514 13.9827 28.8648 14.2597C28.6782 14.5367 28.4324 14.7686 28.145 14.9387H28.1438ZM20.6625 21.6487C20.7556 21.8245 20.7751 22.03 20.7168 22.2201C20.6584 22.4102 20.5269 22.5693 20.3513 22.6625C19.0113 23.3741 17.5172 23.7462 16 23.7462C14.4828 23.7462 12.9887 23.3741 11.6488 22.6625C11.4771 22.5671 11.3497 22.4082 11.2939 22.22C11.2381 22.0317 11.2584 21.8291 11.3504 21.6556C11.4424 21.4821 11.5987 21.3516 11.7859 21.2921C11.973 21.2326 12.176 21.2489 12.3513 21.3375C13.4748 21.9346 14.7277 22.2468 16 22.2468C17.2723 22.2468 18.5252 21.9346 19.6488 21.3375C19.8245 21.2444 20.03 21.2248 20.2201 21.2832C20.4102 21.3416 20.5693 21.4731 20.6625 21.6487ZM11 17.75C10.6539 17.75 10.3155 17.6474 10.0278 17.4551C9.73997 17.2628 9.51567 16.9895 9.38322 16.6697C9.25077 16.3499 9.21611 15.998 9.28363 15.6586C9.35116 15.3191 9.51783 15.0073 9.76257 14.7626C10.0073 14.5178 10.3191 14.3511 10.6586 14.2836C10.9981 14.2161 11.3499 14.2507 11.6697 14.3832C11.9895 14.5157 12.2628 14.74 12.4551 15.0277C12.6474 15.3155 12.75 15.6539 12.75 16C12.75 16.4641 12.5656 16.9092 12.2374 17.2374C11.9093 17.5656 11.4641 17.75 11 17.75ZM22.75 16C22.75 16.3461 22.6474 16.6845 22.4551 16.9722C22.2628 17.26 21.9895 17.4843 21.6697 17.6168C21.3499 17.7492 20.9981 17.7839 20.6586 17.7164C20.3191 17.6488 20.0073 17.4822 19.7626 17.2374C19.5178 16.9927 19.3512 16.6809 19.2836 16.3414C19.2161 16.0019 19.2508 15.6501 19.3832 15.3303C19.5157 15.0105 19.74 14.7372 20.0278 14.5449C20.3155 14.3526 20.6539 14.25 21 14.25C21.4641 14.25 21.9093 14.4344 22.2374 14.7626C22.5656 15.0907 22.75 15.5359 22.75 16Z" fill="white"/>
</svg>
