<svg width="32" height="32" viewBox="0 0 32 32" fill="none" xmlns="http://www.w3.org/2000/svg">
<path d="M3.25 16C3.25265 13.6801 4.17537 11.4561 5.81574 9.81571C7.45611 8.17534 9.68017 7.25262 12 7.24997H26.1887L24.47 5.52997C24.3375 5.38779 24.2654 5.19975 24.2688 5.00545C24.2723 4.81114 24.351 4.62576 24.4884 4.48835C24.6258 4.35093 24.8112 4.27222 25.0055 4.26879C25.1998 4.26537 25.3878 4.33749 25.53 4.46997L28.53 7.46997C28.6705 7.61059 28.7493 7.80122 28.7493 7.99997C28.7493 8.19872 28.6705 8.38934 28.53 8.52997L25.53 11.53C25.3878 11.6624 25.1998 11.7346 25.0055 11.7311C24.8112 11.7277 24.6258 11.649 24.4884 11.5116C24.351 11.3742 24.2723 11.1888 24.2688 10.9945C24.2654 10.8002 24.3375 10.6121 24.47 10.47L26.1887 8.74997H12C10.0779 8.75228 8.23517 9.51687 6.87603 10.876C5.5169 12.2351 4.75232 14.0779 4.75 16C4.75 16.1989 4.67098 16.3896 4.53033 16.5303C4.38968 16.671 4.19891 16.75 4 16.75C3.80109 16.75 3.61032 16.671 3.46967 16.5303C3.32902 16.3896 3.25 16.1989 3.25 16ZM28 15.25C27.8011 15.25 27.6103 15.329 27.4697 15.4696C27.329 15.6103 27.25 15.8011 27.25 16C27.2477 17.9221 26.4831 19.7648 25.124 21.1239C23.7648 22.4831 21.9221 23.2477 20 23.25H5.81125L7.53 21.53C7.66248 21.3878 7.7346 21.1997 7.73117 21.0054C7.72775 20.8111 7.64903 20.6258 7.51162 20.4883C7.37421 20.3509 7.18882 20.2722 6.99452 20.2688C6.80022 20.2654 6.61217 20.3375 6.47 20.47L3.47 23.47C3.32955 23.6106 3.25066 23.8012 3.25066 24C3.25066 24.1987 3.32955 24.3893 3.47 24.53L6.47 27.53C6.61217 27.6625 6.80022 27.7346 6.99452 27.7311C7.18882 27.7277 7.37421 27.649 7.51162 27.5116C7.64903 27.3742 7.72775 27.1888 7.73117 26.9945C7.7346 26.8002 7.66248 26.6121 7.53 26.47L5.81125 24.75H20C22.3198 24.7473 24.5439 23.8246 26.1843 22.1842C27.8246 20.5439 28.7474 18.3198 28.75 16C28.75 15.8011 28.671 15.6103 28.5303 15.4696C28.3897 15.329 28.1989 15.25 28 15.25Z" fill="white"/>
</svg>
