<svg width="32" height="32" viewBox="0 0 32 32" fill="none" xmlns="http://www.w3.org/2000/svg">
<path d="M27 11.25H18.75V5C18.75 4.53587 18.5656 4.09075 18.2374 3.76256C17.9092 3.43437 17.4641 3.25 17 3.25H9C8.53587 3.25 8.09075 3.43437 7.76256 3.76256C7.43437 4.09075 7.25 4.53587 7.25 5V11C7.25 11.4641 7.43437 11.9092 7.76256 12.2374C8.09075 12.5656 8.53587 12.75 9 12.75H17.25V19.25H9C8.53587 19.25 8.09075 19.4344 7.76256 19.7626C7.43437 20.0908 7.25 20.5359 7.25 21V27C7.25 27.4641 7.43437 27.9092 7.76256 28.2374C8.09075 28.5656 8.53587 28.75 9 28.75H17C17.4641 28.75 17.9092 28.5656 18.2374 28.2374C18.5656 27.9092 18.75 27.4641 18.75 27V20.75H27C27.4641 20.75 27.9092 20.5656 28.2374 20.2374C28.5656 19.9092 28.75 19.4641 28.75 19V13C28.75 12.5359 28.5656 12.0908 28.2374 11.7626C27.9092 11.4344 27.4641 11.25 27 11.25ZM17.25 27C17.25 27.0663 17.2237 27.1299 17.1768 27.1768C17.1299 27.2237 17.0663 27.25 17 27.25H9C8.9337 27.25 8.87011 27.2237 8.82322 27.1768C8.77634 27.1299 8.75 27.0663 8.75 27V21C8.75 20.9337 8.77634 20.8701 8.82322 20.8232C8.87011 20.7763 8.9337 20.75 9 20.75H17.25V27ZM17.25 11.25H9C8.9337 11.25 8.87011 11.2237 8.82322 11.1768C8.77634 11.1299 8.75 11.0663 8.75 11V5C8.75 4.9337 8.77634 4.87011 8.82322 4.82322C8.87011 4.77634 8.9337 4.75 9 4.75H17C17.0663 4.75 17.1299 4.77634 17.1768 4.82322C17.2237 4.87011 17.25 4.9337 17.25 5V11.25ZM27.25 19C27.25 19.0663 27.2237 19.1299 27.1768 19.1768C27.1299 19.2237 27.0663 19.25 27 19.25H18.75V12.75H27C27.0663 12.75 27.1299 12.7763 27.1768 12.8232C27.2237 12.8701 27.25 12.9337 27.25 13V19Z" fill="white"/>
</svg>
