<svg width="32" height="32" viewBox="0 0 32 32" fill="none" xmlns="http://www.w3.org/2000/svg">
<path d="M17 14.25H6C5.80109 14.25 5.61032 14.329 5.46967 14.4697C5.32902 14.6103 5.25 14.8011 5.25 15V26C5.25 26.1989 5.32902 26.3897 5.46967 26.5303C5.61032 26.671 5.80109 26.75 6 26.75H17C17.1989 26.75 17.3897 26.671 17.5303 26.5303C17.671 26.3897 17.75 26.1989 17.75 26V15C17.75 14.8011 17.671 14.6103 17.5303 14.4697C17.3897 14.329 17.1989 14.25 17 14.25ZM16.25 25.25H6.75V15.75H16.25V25.25ZM26.75 23V25C26.75 25.4641 26.5656 25.9092 26.2374 26.2374C25.9092 26.5656 25.4641 26.75 25 26.75H22C21.8011 26.75 21.6103 26.671 21.4697 26.5303C21.329 26.3897 21.25 26.1989 21.25 26C21.25 25.8011 21.329 25.6103 21.4697 25.4697C21.6103 25.329 21.8011 25.25 22 25.25H25C25.0663 25.25 25.1299 25.2237 25.1768 25.1768C25.2237 25.1299 25.25 25.0663 25.25 25V23C25.25 22.8011 25.329 22.6103 25.4697 22.4697C25.6103 22.329 25.8011 22.25 26 22.25C26.1989 22.25 26.3897 22.329 26.5303 22.4697C26.671 22.6103 26.75 22.8011 26.75 23ZM26.75 14V18C26.75 18.1989 26.671 18.3897 26.5303 18.5303C26.3897 18.671 26.1989 18.75 26 18.75C25.8011 18.75 25.6103 18.671 25.4697 18.5303C25.329 18.3897 25.25 18.1989 25.25 18V14C25.25 13.8011 25.329 13.6103 25.4697 13.4697C25.6103 13.329 25.8011 13.25 26 13.25C26.1989 13.25 26.3897 13.329 26.5303 13.4697C26.671 13.6103 26.75 13.8011 26.75 14ZM26.75 7V9C26.75 9.19891 26.671 9.38968 26.5303 9.53033C26.3897 9.67098 26.1989 9.75 26 9.75C25.8011 9.75 25.6103 9.67098 25.4697 9.53033C25.329 9.38968 25.25 9.19891 25.25 9V7C25.25 6.9337 25.2237 6.87011 25.1768 6.82322C25.1299 6.77634 25.0663 6.75 25 6.75H23C22.8011 6.75 22.6103 6.67098 22.4697 6.53033C22.329 6.38968 22.25 6.19891 22.25 6C22.25 5.80109 22.329 5.61032 22.4697 5.46967C22.6103 5.32902 22.8011 5.25 23 5.25H25C25.4641 5.25 25.9092 5.43437 26.2374 5.76256C26.5656 6.09075 26.75 6.53587 26.75 7ZM18.75 6C18.75 6.19891 18.671 6.38968 18.5303 6.53033C18.3897 6.67098 18.1989 6.75 18 6.75H14C13.8011 6.75 13.6103 6.67098 13.4697 6.53033C13.329 6.38968 13.25 6.19891 13.25 6C13.25 5.80109 13.329 5.61032 13.4697 5.46967C13.6103 5.32902 13.8011 5.25 14 5.25H18C18.1989 5.25 18.3897 5.32902 18.5303 5.46967C18.671 5.61032 18.75 5.80109 18.75 6ZM5.25 10V7C5.25 6.53587 5.43437 6.09075 5.76256 5.76256C6.09075 5.43437 6.53587 5.25 7 5.25H9C9.19891 5.25 9.38968 5.32902 9.53033 5.46967C9.67098 5.61032 9.75 5.80109 9.75 6C9.75 6.19891 9.67098 6.38968 9.53033 6.53033C9.38968 6.67098 9.19891 6.75 9 6.75H7C6.9337 6.75 6.87011 6.77634 6.82322 6.82322C6.77634 6.87011 6.75 6.9337 6.75 7V10C6.75 10.1989 6.67098 10.3897 6.53033 10.5303C6.38968 10.671 6.19891 10.75 6 10.75C5.80109 10.75 5.61032 10.671 5.46967 10.5303C5.32902 10.3897 5.25 10.1989 5.25 10Z" fill="white"/>
</svg>
