<svg width="32" height="32" viewBox="0 0 32 32" fill="none" xmlns="http://www.w3.org/2000/svg">
<path d="M16 3.25C13.4783 3.25 11.0132 3.99777 8.91648 5.39876C6.81976 6.79975 5.18556 8.79103 4.22054 11.1208C3.25552 13.4505 3.00303 16.0141 3.49499 18.4874C3.98696 20.9607 5.20127 23.2325 6.98439 25.0156C8.76751 26.7987 11.0393 28.0131 13.5126 28.505C15.9859 28.997 18.5495 28.7445 20.8792 27.7795C23.209 26.8144 25.2003 25.1802 26.6012 23.0835C28.0022 20.9868 28.75 18.5217 28.75 16C28.746 12.6197 27.4015 9.379 25.0112 6.98877C22.621 4.59854 19.3803 3.25397 16 3.25ZM16 27.25C13.775 27.25 11.5999 26.5902 9.74984 25.354C7.89979 24.1179 6.45785 22.3609 5.60636 20.3052C4.75488 18.2495 4.53209 15.9875 4.96617 13.8052C5.40025 11.6229 6.47171 9.61839 8.04505 8.04505C9.6184 6.47171 11.623 5.40025 13.8052 4.96617C15.9875 4.53208 18.2495 4.75487 20.3052 5.60636C22.3609 6.45784 24.1179 7.89978 25.354 9.74984C26.5902 11.5999 27.25 13.775 27.25 16C27.2467 18.9827 26.0604 21.8422 23.9513 23.9513C21.8422 26.0604 18.9827 27.2467 16 27.25ZM21.835 10.8287C21.7104 10.7666 21.571 10.7404 21.4324 10.7529C21.2938 10.7655 21.1613 10.8164 21.05 10.9L15.25 15.25V11.5C15.25 11.3607 15.2112 11.2242 15.138 11.1057C15.0648 10.9872 14.96 10.8915 14.8354 10.8292C14.7108 10.7669 14.5714 10.7405 14.4327 10.753C14.2939 10.7655 14.1614 10.8164 14.05 10.9L8.05001 15.4C7.95686 15.4699 7.88126 15.5604 7.82919 15.6646C7.77711 15.7687 7.75001 15.8836 7.75001 16C7.75001 16.1164 7.77711 16.2313 7.82919 16.3354C7.88126 16.4396 7.95686 16.5301 8.05001 16.6L14.05 21.1C14.1614 21.1836 14.2939 21.2345 14.4327 21.247C14.5714 21.2595 14.7108 21.2331 14.8354 21.1708C14.96 21.1085 15.0648 21.0128 15.138 20.8943C15.2112 20.7758 15.25 20.6393 15.25 20.5V16.75L21.05 21.1C21.1614 21.1836 21.2939 21.2345 21.4327 21.247C21.5714 21.2595 21.7108 21.2331 21.8354 21.1708C21.96 21.1085 22.0648 21.0128 22.138 20.8943C22.2112 20.7758 22.25 20.6393 22.25 20.5V11.5C22.25 11.3606 22.2112 11.2239 22.1379 11.1054C22.0646 10.9868 21.9597 10.891 21.835 10.8287ZM13.75 19L9.75001 16L13.75 13V19ZM20.75 19L16.75 16L20.75 13V19Z" fill="white"/>
</svg>
