<svg width="32" height="32" viewBox="0 0 32 32" fill="none" xmlns="http://www.w3.org/2000/svg">
<path d="M27.8512 7.46503C27.5768 7.3149 27.2672 7.24105 26.9546 7.25116C26.642 7.26127 26.3378 7.35498 26.0737 7.52253L15.7499 14.0988V8.98003C15.7497 8.67014 15.6661 8.366 15.508 8.09948C15.3499 7.83295 15.123 7.61382 14.8512 7.46503C14.5768 7.3149 14.2672 7.24105 13.9546 7.25116C13.642 7.26127 13.3378 7.35498 13.0737 7.52253L2.0512 14.5438C1.80569 14.6993 1.60347 14.9143 1.46335 15.1689C1.32323 15.4235 1.24976 15.7094 1.24976 16C1.24976 16.2906 1.32323 16.5765 1.46335 16.8311C1.60347 17.0857 1.80569 17.3008 2.0512 17.4563L13.0737 24.4775C13.3378 24.6451 13.642 24.7388 13.9546 24.7489C14.2672 24.759 14.5768 24.6852 14.8512 24.535C15.123 24.3862 15.3499 24.1671 15.508 23.9006C15.6661 23.6341 15.7497 23.3299 15.7499 23.02V17.9013L26.0737 24.4775C26.3378 24.6451 26.642 24.7388 26.9546 24.7489C27.2672 24.759 27.5768 24.6852 27.8512 24.535C28.123 24.3862 28.3499 24.1671 28.508 23.9006C28.6661 23.6341 28.7497 23.3299 28.7499 23.02V8.98003C28.7497 8.67014 28.6661 8.366 28.508 8.09948C28.3499 7.83295 28.123 7.61382 27.8512 7.46503ZM14.2499 23.02C14.2505 23.0617 14.2389 23.1026 14.2168 23.1379C14.1946 23.1731 14.1627 23.2012 14.1249 23.2188C14.0867 23.2409 14.043 23.2519 13.9989 23.2506C13.9547 23.2493 13.9118 23.2357 13.8749 23.2113L2.8562 16.1913C2.82364 16.1711 2.79677 16.1429 2.77814 16.1095C2.7595 16.076 2.74973 16.0383 2.74973 16C2.74973 15.9617 2.7595 15.9241 2.77814 15.8906C2.79677 15.8571 2.82364 15.829 2.8562 15.8088L13.8749 8.78878C13.9119 8.76379 13.9553 8.74991 13.9999 8.74878C14.0437 8.74848 14.0868 8.75969 14.1249 8.78128C14.1627 8.79886 14.1946 8.82696 14.2168 8.86222C14.2389 8.89748 14.2505 8.93839 14.2499 8.98003V23.02ZM27.2499 23.02C27.2505 23.0617 27.2389 23.1026 27.2168 23.1379C27.1946 23.1731 27.1627 23.2012 27.1249 23.2188C27.0867 23.2409 27.043 23.2519 26.9989 23.2506C26.9547 23.2493 26.9118 23.2357 26.8749 23.2113L15.8512 16.1913C15.8186 16.1711 15.7918 16.1429 15.7731 16.1095C15.7545 16.076 15.7447 16.0383 15.7447 16C15.7447 15.9617 15.7545 15.9241 15.7731 15.8906C15.7918 15.8571 15.8186 15.829 15.8512 15.8088L26.8749 8.78878C26.9119 8.76379 26.9553 8.74991 26.9999 8.74878C27.0437 8.74848 27.0868 8.75969 27.1249 8.78128C27.1627 8.79886 27.1946 8.82696 27.2168 8.86222C27.2389 8.89748 27.2505 8.93839 27.2499 8.98003V23.02Z" fill="white"/>
</svg>
