<svg width="32" height="32" viewBox="0 0 32 32" fill="none" xmlns="http://www.w3.org/2000/svg">
<path d="M29.3675 24.6537C29.1941 24.7512 28.9891 24.7758 28.7976 24.7221C28.606 24.6684 28.4437 24.5409 28.3462 24.3675L19.5612 8.75H16.75V10C16.75 10.1989 16.6709 10.3897 16.5303 10.5303C16.3896 10.671 16.1989 10.75 16 10.75C15.801 10.75 15.6103 10.671 15.4696 10.5303C15.329 10.3897 15.25 10.1989 15.25 10V8.75H12.4387L3.65371 24.3675C3.606 24.4544 3.54154 24.5309 3.46406 24.5927C3.38658 24.6545 3.29762 24.7004 3.20231 24.7276C3.10701 24.7548 3.00726 24.7629 2.90882 24.7513C2.81039 24.7398 2.71522 24.7088 2.62882 24.6602C2.54242 24.6117 2.46651 24.5464 2.40546 24.4684C2.34442 24.3903 2.29946 24.3009 2.27318 24.2053C2.2469 24.1097 2.23983 24.0099 2.25236 23.9116C2.2649 23.8133 2.29679 23.7184 2.34621 23.6325L10.7175 8.75H2.99996C2.80105 8.75 2.61028 8.67098 2.46963 8.53033C2.32898 8.38968 2.24996 8.19891 2.24996 8C2.24996 7.80109 2.32898 7.61032 2.46963 7.46967C2.61028 7.32902 2.80105 7.25 2.99996 7.25H29C29.1989 7.25 29.3896 7.32902 29.5303 7.46967C29.6709 7.61032 29.75 7.80109 29.75 8C29.75 8.19891 29.6709 8.38968 29.5303 8.53033C29.3896 8.67098 29.1989 8.75 29 8.75H21.2825L29.6575 23.6325C29.7056 23.7186 29.7362 23.8133 29.7477 23.9112C29.7591 24.0092 29.7512 24.1084 29.7242 24.2033C29.6973 24.2981 29.6519 24.3867 29.5907 24.464C29.5295 24.5413 29.4536 24.6058 29.3675 24.6537ZM16 14.25C15.801 14.25 15.6103 14.329 15.4696 14.4697C15.329 14.6103 15.25 14.8011 15.25 15V17C15.25 17.1989 15.329 17.3897 15.4696 17.5303C15.6103 17.671 15.801 17.75 16 17.75C16.1989 17.75 16.3896 17.671 16.5303 17.5303C16.6709 17.3897 16.75 17.1989 16.75 17V15C16.75 14.8011 16.6709 14.6103 16.5303 14.4697C16.3896 14.329 16.1989 14.25 16 14.25ZM16 21.25C15.801 21.25 15.6103 21.329 15.4696 21.4697C15.329 21.6103 15.25 21.8011 15.25 22V24C15.25 24.1989 15.329 24.3897 15.4696 24.5303C15.6103 24.671 15.801 24.75 16 24.75C16.1989 24.75 16.3896 24.671 16.5303 24.5303C16.6709 24.3897 16.75 24.1989 16.75 24V22C16.75 21.8011 16.6709 21.6103 16.5303 21.4697C16.3896 21.329 16.1989 21.25 16 21.25Z" fill="white"/>
</svg>
