<svg width="32" height="32" viewBox="0 0 32 32" fill="none" xmlns="http://www.w3.org/2000/svg">
<path d="M27.7326 5.90492C27.706 5.47913 27.5247 5.07773 27.223 4.77618C26.9212 4.47464 26.5196 4.29371 26.0938 4.26742C24.5551 4.17617 20.6226 4.31617 17.3588 7.57992L16.6901 8.24992H9.29384C9.06413 8.24938 8.8366 8.2944 8.6244 8.38237C8.4122 8.47034 8.21955 8.59951 8.05759 8.76242L3.76384 13.0549C3.53394 13.2849 3.37266 13.5744 3.2981 13.8909C3.22353 14.2074 3.23863 14.5384 3.34169 14.8468C3.44475 15.1552 3.63171 15.4288 3.88158 15.6369C4.13146 15.845 4.43437 15.9794 4.75634 16.0249L9.64759 16.7074L15.2926 22.3524L15.9751 27.2499C16.021 27.5717 16.1557 27.8743 16.3639 28.1238C16.5722 28.3734 16.8458 28.56 17.1541 28.6628C17.4625 28.7656 17.7934 28.7805 18.1097 28.7058C18.426 28.6311 18.7153 28.4698 18.9451 28.2399L23.2388 23.9462C23.4017 23.7842 23.5308 23.5915 23.6188 23.3793C23.7068 23.1671 23.7518 22.9396 23.7513 22.7099V15.3099L24.4201 14.6412C27.6826 11.3749 27.8238 7.44492 27.7326 5.90492ZM4.76384 14.3749C4.75042 14.3316 4.74903 14.2855 4.75982 14.2414C4.77061 14.1974 4.79317 14.1571 4.82509 14.1249L9.11759 9.82242C9.16447 9.77593 9.22783 9.74987 9.29384 9.74992H15.1901L9.73384 15.2049L4.96634 14.5399C4.92031 14.5348 4.87674 14.5165 4.84083 14.4872C4.80492 14.4579 4.7782 14.419 4.76384 14.3749ZM22.2501 22.7062C22.2498 22.7724 22.2233 22.8358 22.1763 22.8824L17.8851 27.1749C17.8525 27.2079 17.8113 27.2312 17.7662 27.2421C17.7211 27.253 17.6739 27.2512 17.6297 27.2368C17.5856 27.2224 17.5464 27.196 17.5164 27.1606C17.4865 27.1251 17.467 27.0821 17.4601 27.0362L16.7951 22.2662L22.2501 16.8099V22.7062ZM23.3588 13.5812L16.0001 20.9387L11.0613 15.9999L18.4201 8.63992C19.4064 7.64732 20.5936 6.87723 21.9021 6.38135C23.2105 5.88548 24.6099 5.67529 26.0063 5.76492C26.0664 5.76994 26.1226 5.79649 26.1646 5.83967C26.2067 5.88285 26.2317 5.93976 26.2351 5.99992C26.3238 7.3953 26.1132 8.79352 25.6173 10.1008C25.1215 11.4082 24.3519 12.5944 23.3601 13.5799L23.3588 13.5812ZM12.5001 23.7887C11.9601 24.9799 10.1413 27.7499 5.00009 27.7499C4.80118 27.7499 4.61042 27.6709 4.46976 27.5303C4.32911 27.3896 4.25009 27.1988 4.25009 26.9999C4.25009 21.8587 7.02009 20.0399 8.21134 19.4999C8.30097 19.4589 8.3978 19.4359 8.49631 19.4323C8.59482 19.4287 8.69308 19.4445 8.78547 19.4788C8.87787 19.5132 8.96259 19.5654 9.0348 19.6325C9.10702 19.6996 9.16531 19.7803 9.20634 19.8699C9.24738 19.9595 9.27036 20.0564 9.27398 20.1549C9.2776 20.2534 9.26177 20.3517 9.22742 20.444C9.19306 20.5364 9.14084 20.6212 9.07374 20.6934C9.00664 20.7656 8.92597 20.8239 8.83634 20.8649C7.96134 21.2612 6.02009 22.5549 5.77759 26.2287C9.45134 25.9862 10.7451 24.0387 11.1413 23.1699C11.1824 23.0803 11.2407 22.9996 11.3129 22.9325C11.3851 22.8654 11.4698 22.8132 11.5622 22.7788C11.6546 22.7445 11.7529 22.7287 11.8514 22.7323C11.9499 22.7359 12.0467 22.7589 12.1363 22.7999C12.226 22.841 12.3066 22.8992 12.3737 22.9715C12.4408 23.0437 12.4931 23.1284 12.5274 23.2208C12.5618 23.3132 12.5776 23.4114 12.574 23.51C12.5704 23.6085 12.5474 23.7053 12.5063 23.7949L12.5001 23.7887Z" fill="white"/>
</svg>
