<svg width="32" height="32" viewBox="0 0 32 32" fill="none" xmlns="http://www.w3.org/2000/svg">
<path d="M26 14.25H6C5.53587 14.25 5.09075 14.4344 4.76256 14.7626C4.43437 15.0908 4.25 15.5359 4.25 16V19C4.25 19.4641 4.43437 19.9092 4.76256 20.2374C5.09075 20.5656 5.53587 20.75 6 20.75H26C26.4641 20.75 26.9092 20.5656 27.2374 20.2374C27.5656 19.9092 27.75 19.4641 27.75 19V16C27.75 15.5359 27.5656 15.0908 27.2374 14.7626C26.9092 14.4344 26.4641 14.25 26 14.25ZM26.25 19C26.25 19.0663 26.2237 19.1299 26.1768 19.1768C26.1299 19.2237 26.0663 19.25 26 19.25H6C5.9337 19.25 5.87011 19.2237 5.82322 19.1768C5.77634 19.1299 5.75 19.0663 5.75 19V16C5.75 15.9337 5.77634 15.8701 5.82322 15.8232C5.87011 15.7763 5.9337 15.75 6 15.75H26C26.0663 15.75 26.1299 15.7763 26.1768 15.8232C26.2237 15.8701 26.25 15.9337 26.25 16V19ZM26 5.25H6C5.53587 5.25 5.09075 5.43437 4.76256 5.76256C4.43437 6.09075 4.25 6.53587 4.25 7V10C4.25 10.4641 4.43437 10.9092 4.76256 11.2374C5.09075 11.5656 5.53587 11.75 6 11.75H26C26.4641 11.75 26.9092 11.5656 27.2374 11.2374C27.5656 10.9092 27.75 10.4641 27.75 10V7C27.75 6.53587 27.5656 6.09075 27.2374 5.76256C26.9092 5.43437 26.4641 5.25 26 5.25ZM26.25 10C26.25 10.0663 26.2237 10.1299 26.1768 10.1768C26.1299 10.2237 26.0663 10.25 26 10.25H6C5.9337 10.25 5.87011 10.2237 5.82322 10.1768C5.77634 10.1299 5.75 10.0663 5.75 10V7C5.75 6.9337 5.77634 6.87011 5.82322 6.82322C5.87011 6.77634 5.9337 6.75 6 6.75H26C26.0663 6.75 26.1299 6.77634 26.1768 6.82322C26.2237 6.87011 26.25 6.9337 26.25 7V10ZM19.75 27C19.75 27.1989 19.671 27.3897 19.5303 27.5303C19.3897 27.671 19.1989 27.75 19 27.75H16.75V30C16.75 30.1989 16.671 30.3897 16.5303 30.5303C16.3897 30.671 16.1989 30.75 16 30.75C15.8011 30.75 15.6103 30.671 15.4697 30.5303C15.329 30.3897 15.25 30.1989 15.25 30V27.75H13C12.8011 27.75 12.6103 27.671 12.4697 27.5303C12.329 27.3897 12.25 27.1989 12.25 27C12.25 26.8011 12.329 26.6103 12.4697 26.4697C12.6103 26.329 12.8011 26.25 13 26.25H15.25V24C15.25 23.8011 15.329 23.6103 15.4697 23.4697C15.6103 23.329 15.8011 23.25 16 23.25C16.1989 23.25 16.3897 23.329 16.5303 23.4697C16.671 23.6103 16.75 23.8011 16.75 24V26.25H19C19.1989 26.25 19.3897 26.329 19.5303 26.4697C19.671 26.6103 19.75 26.8011 19.75 27Z" fill="white"/>
</svg>
