<svg width="32" height="32" viewBox="0 0 32 32" fill="none" xmlns="http://www.w3.org/2000/svg">
<path d="M26 20.25H6C5.53587 20.25 5.09075 20.4344 4.76256 20.7626C4.43437 21.0908 4.25 21.5359 4.25 22V25C4.25 25.4641 4.43437 25.9092 4.76256 26.2374C5.09075 26.5656 5.53587 26.75 6 26.75H26C26.4641 26.75 26.9092 26.5656 27.2374 26.2374C27.5656 25.9092 27.75 25.4641 27.75 25V22C27.75 21.5359 27.5656 21.0908 27.2374 20.7626C26.9092 20.4344 26.4641 20.25 26 20.25ZM26.25 25C26.25 25.0663 26.2237 25.1299 26.1768 25.1768C26.1299 25.2237 26.0663 25.25 26 25.25H6C5.9337 25.25 5.87011 25.2237 5.82322 25.1768C5.77634 25.1299 5.75 25.0663 5.75 25V22C5.75 21.9337 5.77634 21.8701 5.82322 21.8232C5.87011 21.7763 5.9337 21.75 6 21.75H26C26.0663 21.75 26.1299 21.7763 26.1768 21.8232C26.2237 21.8701 26.25 21.9337 26.25 22V25ZM26 11.25H6C5.53587 11.25 5.09075 11.4344 4.76256 11.7626C4.43437 12.0908 4.25 12.5359 4.25 13V16C4.25 16.4641 4.43437 16.9092 4.76256 17.2374C5.09075 17.5656 5.53587 17.75 6 17.75H26C26.4641 17.75 26.9092 17.5656 27.2374 17.2374C27.5656 16.9092 27.75 16.4641 27.75 16V13C27.75 12.5359 27.5656 12.0908 27.2374 11.7626C26.9092 11.4344 26.4641 11.25 26 11.25ZM26.25 16C26.25 16.0663 26.2237 16.1299 26.1768 16.1768C26.1299 16.2237 26.0663 16.25 26 16.25H6C5.9337 16.25 5.87011 16.2237 5.82322 16.1768C5.77634 16.1299 5.75 16.0663 5.75 16V13C5.75 12.9337 5.77634 12.8701 5.82322 12.8232C5.87011 12.7763 5.9337 12.75 6 12.75H26C26.0663 12.75 26.1299 12.7763 26.1768 12.8232C26.2237 12.8701 26.25 12.9337 26.25 13V16ZM12.25 5C12.25 4.80109 12.329 4.61032 12.4697 4.46967C12.6103 4.32902 12.8011 4.25 13 4.25H15.25V2C15.25 1.80109 15.329 1.61032 15.4697 1.46967C15.6103 1.32902 15.8011 1.25 16 1.25C16.1989 1.25 16.3897 1.32902 16.5303 1.46967C16.671 1.61032 16.75 1.80109 16.75 2V4.25H19C19.1989 4.25 19.3897 4.32902 19.5303 4.46967C19.671 4.61032 19.75 4.80109 19.75 5C19.75 5.19891 19.671 5.38968 19.5303 5.53033C19.3897 5.67098 19.1989 5.75 19 5.75H16.75V8C16.75 8.19891 16.671 8.38968 16.5303 8.53033C16.3897 8.67098 16.1989 8.75 16 8.75C15.8011 8.75 15.6103 8.67098 15.4697 8.53033C15.329 8.38968 15.25 8.19891 15.25 8V5.75H13C12.8011 5.75 12.6103 5.67098 12.4697 5.53033C12.329 5.38968 12.25 5.19891 12.25 5Z" fill="white"/>
</svg>
