<svg width="32" height="32" viewBox="0 0 32 32" fill="none" xmlns="http://www.w3.org/2000/svg">
<path d="M13.1875 18.8126C14.0026 19.6233 14.6487 20.5875 15.0886 21.6496C15.5284 22.7117 15.7532 23.8505 15.75 25.0001C15.75 25.199 15.671 25.3898 15.5303 25.5304C15.3897 25.6711 15.1989 25.7501 15 25.7501C14.8011 25.7501 14.6103 25.6711 14.4697 25.5304C14.329 25.3898 14.25 25.199 14.25 25.0001C14.25 23.0773 13.4862 21.2332 12.1265 19.8736C10.7669 18.5139 8.92282 17.7501 7 17.7501C6.80109 17.7501 6.61032 17.6711 6.46967 17.5304C6.32902 17.3898 6.25 17.199 6.25 17.0001C6.25 16.8012 6.32902 16.6104 6.46967 16.4697C6.61032 16.3291 6.80109 16.2501 7 16.2501C8.14956 16.2468 9.28835 16.4717 10.3504 16.9115C11.4125 17.3514 12.3768 17.9975 13.1875 18.8126ZM7 10.2501C6.80109 10.2501 6.61032 10.3291 6.46967 10.4697C6.32902 10.6104 6.25 10.8012 6.25 11.0001C6.25 11.199 6.32902 11.3898 6.46967 11.5304C6.61032 11.6711 6.80109 11.7501 7 11.7501C10.5141 11.7501 13.8843 13.1461 16.3692 15.6309C18.854 18.1158 20.25 21.486 20.25 25.0001C20.25 25.199 20.329 25.3898 20.4697 25.5304C20.6103 25.6711 20.8011 25.7501 21 25.7501C21.1989 25.7501 21.3897 25.6711 21.5303 25.5304C21.671 25.3898 21.75 25.199 21.75 25.0001C21.75 23.0631 21.3685 21.145 20.6272 19.3555C19.886 17.5659 18.7995 15.9399 17.4298 14.5703C16.0602 13.2006 14.4341 12.1141 12.6446 11.3729C10.855 10.6316 8.937 10.2501 7 10.2501ZM21.6725 10.3276C19.7501 8.39476 17.4635 6.8624 14.945 5.8192C12.4265 4.776 9.72603 4.24267 7 4.25008C6.80109 4.25008 6.61032 4.32909 6.46967 4.46975C6.32902 4.6104 6.25 4.80116 6.25 5.00008C6.25 5.19899 6.32902 5.38975 6.46967 5.53041C6.61032 5.67106 6.80109 5.75008 7 5.75008C9.52891 5.74337 12.034 6.23828 14.3704 7.20617C16.7068 8.17406 18.828 9.5957 20.6113 11.3888C22.4044 13.1721 23.826 15.2933 24.7939 17.6297C25.7618 19.966 26.2567 22.4712 26.25 25.0001C26.25 25.199 26.329 25.3898 26.4697 25.5304C26.6103 25.6711 26.8011 25.7501 27 25.7501C27.1989 25.7501 27.3897 25.6711 27.5303 25.5304C27.671 25.3898 27.75 25.199 27.75 25.0001C27.7574 22.274 27.2241 19.5736 26.1809 17.0551C25.1377 14.5366 23.6053 12.2499 21.6725 10.3276ZM7.5 23.2501C7.25277 23.2501 7.0111 23.3234 6.80554 23.4607C6.59998 23.5981 6.43976 23.7933 6.34515 24.0217C6.25054 24.2501 6.22579 24.5015 6.27402 24.7439C6.32225 24.9864 6.4413 25.2091 6.61612 25.384C6.79093 25.5588 7.01366 25.6778 7.25614 25.7261C7.49861 25.7743 7.74995 25.7495 7.97836 25.6549C8.20676 25.5603 8.40199 25.4001 8.53934 25.1945C8.67669 24.989 8.75 24.7473 8.75 24.5001C8.75 24.1686 8.6183 23.8506 8.38388 23.6162C8.14946 23.3818 7.83152 23.2501 7.5 23.2501Z" fill="white"/>
</svg>
