<svg width="32" height="32" viewBox="0 0 32 32" fill="none" xmlns="http://www.w3.org/2000/svg">
<path d="M27.75 24C27.75 24.1989 27.671 24.3897 27.5303 24.5303C27.3897 24.671 27.1989 24.75 27 24.75C26.8011 24.75 26.6103 24.671 26.4697 24.5303C26.329 24.3897 26.25 24.1989 26.25 24C26.25 13.9375 18.0625 5.75 8 5.75C7.80109 5.75 7.61032 5.67098 7.46967 5.53033C7.32902 5.38968 7.25 5.19891 7.25 5C7.25 4.80109 7.32902 4.61032 7.46967 4.46967C7.61032 4.32902 7.80109 4.25 8 4.25C18.89 4.25 27.75 13.11 27.75 24ZM8 13.25C7.80109 13.25 7.61032 13.329 7.46967 13.4697C7.32902 13.6103 7.25 13.8011 7.25 14C7.25 14.1989 7.32902 14.3897 7.46967 14.5303C7.61032 14.671 7.80109 14.75 8 14.75C10.4523 14.753 12.8034 15.7285 14.5375 17.4626C16.2715 19.1966 17.247 21.5477 17.25 24C17.25 24.1989 17.329 24.3897 17.4697 24.5303C17.6103 24.671 17.8011 24.75 18 24.75C18.1989 24.75 18.3897 24.671 18.5303 24.5303C18.671 24.3897 18.75 24.1989 18.75 24C18.7467 21.1499 17.613 18.4176 15.5977 16.4023C13.5824 14.387 10.8501 13.2533 8 13.25ZM8.5 22.25C8.25277 22.25 8.0111 22.3233 7.80554 22.4607C7.59998 22.598 7.43976 22.7932 7.34515 23.0216C7.25054 23.2501 7.22579 23.5014 7.27402 23.7439C7.32225 23.9863 7.4413 24.2091 7.61612 24.3839C7.79093 24.5587 8.01366 24.6777 8.25614 24.726C8.49861 24.7742 8.74995 24.7495 8.97836 24.6549C9.20676 24.5602 9.40199 24.4 9.53934 24.1945C9.67669 23.9889 9.75 23.7472 9.75 23.5C9.75 23.1685 9.6183 22.8505 9.38388 22.6161C9.14946 22.3817 8.83152 22.25 8.5 22.25Z" fill="white"/>
</svg>
