<svg width="32" height="32" viewBox="0 0 32 32" fill="none" xmlns="http://www.w3.org/2000/svg">
<path d="M29.2388 9.34875L22.6525 2.7625C22.49 2.59998 22.2971 2.47106 22.0848 2.38311C21.8724 2.29515 21.6449 2.24988 21.415 2.24988C21.1852 2.24988 20.9576 2.29515 20.7453 2.38311C20.533 2.47106 20.34 2.59998 20.1775 2.7625L2.76128 20.1763C2.59876 20.3388 2.46984 20.5317 2.38189 20.744C2.29393 20.9563 2.24866 21.1839 2.24866 21.4138C2.24866 21.6436 2.29393 21.8712 2.38189 22.0835C2.46984 22.2958 2.59876 22.4888 2.76128 22.6513L9.34753 29.2375C9.51004 29.4 9.70297 29.5289 9.9153 29.6169C10.1276 29.7049 10.3552 29.7501 10.585 29.7501C10.8149 29.7501 11.0424 29.7049 11.2548 29.6169C11.4671 29.5289 11.66 29.4 11.8225 29.2375L29.2388 11.8238C29.4013 11.6612 29.5302 11.4683 29.6182 11.256C29.7061 11.0437 29.7514 10.8161 29.7514 10.5863C29.7514 10.3564 29.7061 10.1288 29.6182 9.91652C29.5302 9.70419 29.4013 9.51126 29.2388 9.34875ZM28.1775 10.7625L10.7625 28.1763C10.7393 28.1995 10.7117 28.2179 10.6814 28.2305C10.651 28.2431 10.6185 28.2496 10.5857 28.2496C10.5528 28.2496 10.5203 28.2431 10.4899 28.2305C10.4596 28.2179 10.432 28.1995 10.4088 28.1763L3.82253 21.5913C3.79929 21.568 3.78085 21.5405 3.76827 21.5101C3.75569 21.4798 3.74921 21.4472 3.74921 21.4144C3.74921 21.3815 3.75569 21.349 3.76827 21.3186C3.78085 21.2883 3.79929 21.2607 3.82253 21.2375L8.00003 17.06L11.47 20.53C11.5387 20.6037 11.6215 20.6628 11.7135 20.7038C11.8055 20.7448 11.9048 20.7668 12.0055 20.7686C12.1062 20.7704 12.2062 20.7518 12.2996 20.7141C12.393 20.6764 12.4779 20.6203 12.5491 20.549C12.6203 20.4778 12.6764 20.393 12.7142 20.2996C12.7519 20.2062 12.7704 20.1062 12.7686 20.0055C12.7668 19.9048 12.7448 19.8055 12.7038 19.7135C12.6628 19.6215 12.6037 19.5387 12.53 19.47L9.06003 16L12 13.06L15.47 16.53C15.6122 16.6625 15.8003 16.7346 15.9946 16.7312C16.1889 16.7277 16.3742 16.649 16.5117 16.5116C16.6491 16.3742 16.7278 16.1888 16.7312 15.9945C16.7346 15.8002 16.6625 15.6122 16.53 15.47L13.06 12L16 9.06125L19.47 12.53C19.6122 12.6625 19.8003 12.7346 19.9946 12.7312C20.1889 12.7278 20.3742 12.649 20.5117 12.5116C20.6491 12.3742 20.7278 12.1888 20.7312 11.9945C20.7346 11.8002 20.6625 11.6122 20.53 11.47L17.0613 8L21.2375 3.82375C21.2608 3.80051 21.2883 3.78207 21.3187 3.76949C21.349 3.75691 21.3816 3.75043 21.4144 3.75043C21.4473 3.75043 21.4798 3.75691 21.5101 3.76949C21.5405 3.78207 21.5681 3.80051 21.5913 3.82375L28.1775 10.4088C28.2008 10.432 28.2192 10.4595 28.2318 10.4899C28.2444 10.5202 28.2509 10.5528 28.2509 10.5856C28.2509 10.6185 28.2444 10.651 28.2318 10.6814C28.2192 10.7117 28.2008 10.7393 28.1775 10.7625Z" fill="white"/>
</svg>
