<svg width="32" height="32" viewBox="0 0 32 32" fill="none" xmlns="http://www.w3.org/2000/svg">
<path d="M30.6763 21.6751C30.6151 21.5477 30.5191 21.4403 30.3995 21.3651C30.2798 21.2899 30.1414 21.25 30 21.2501H17.75V17.7501H27C27.1445 17.7493 27.2856 17.7068 27.4065 17.6278C27.5274 17.5487 27.6229 17.4364 27.6815 17.3044C27.7401 17.1724 27.7594 17.0263 27.7369 16.8836C27.7145 16.7409 27.6513 16.6077 27.555 16.5001L17.75 5.71007V1.00007C17.7501 0.845078 17.7021 0.693891 17.6126 0.567298C17.5232 0.440705 17.3968 0.344924 17.2507 0.293125C17.1046 0.241327 16.9461 0.236056 16.7969 0.278038C16.6477 0.32002 16.5152 0.407192 16.4175 0.527566L3.41755 16.5276C3.32827 16.6376 3.272 16.7707 3.25525 16.9114C3.2385 17.0522 3.26197 17.1947 3.32293 17.3227C3.38389 17.4506 3.47984 17.5587 3.59968 17.6343C3.71952 17.7099 3.85834 17.7501 4.00005 17.7501H16.25V21.2501H2.00005C1.85868 21.2499 1.72015 21.2897 1.60043 21.3649C1.48071 21.4401 1.38468 21.5476 1.3234 21.675C1.26212 21.8023 1.23809 21.9445 1.25408 22.0849C1.27008 22.2254 1.32545 22.3585 1.4138 22.4688L5.1138 27.0938C5.27777 27.2986 5.4857 27.4639 5.72219 27.5775C5.95868 27.6911 6.21769 27.7501 6.48005 27.7501H25.5201C25.7824 27.7501 26.0414 27.6911 26.2779 27.5775C26.5144 27.4639 26.7223 27.2986 26.8863 27.0938L30.5863 22.4688C30.6746 22.3584 30.7298 22.2254 30.7458 22.0849C30.7617 21.9445 30.7376 21.8024 30.6763 21.6751ZM25.3013 16.2501H17.75V7.94007L25.3013 16.2501ZM5.5763 16.2501L16.25 3.11257V16.2501H5.5763ZM25.715 26.1563C25.6916 26.1856 25.662 26.2092 25.6282 26.2254C25.5945 26.2416 25.5575 26.25 25.5201 26.2501H6.48005C6.4426 26.25 6.40563 26.2416 6.37188 26.2254C6.33813 26.2092 6.30846 26.1856 6.28505 26.1563L3.56005 22.7501H28.435L25.715 26.1563Z" fill="white"/>
</svg>
