<svg width="32" height="32" viewBox="0 0 32 32" fill="none" xmlns="http://www.w3.org/2000/svg">
<path d="M27.75 5V9.5C27.75 9.69891 27.671 9.88968 27.5303 10.0303C27.3897 10.171 27.1989 10.25 27 10.25C26.8011 10.25 26.6103 10.171 26.4697 10.0303C26.329 9.88968 26.25 9.69891 26.25 9.5V5.75H22.5C22.3011 5.75 22.1103 5.67098 21.9697 5.53033C21.829 5.38968 21.75 5.19891 21.75 5C21.75 4.80109 21.829 4.61032 21.9697 4.46967C22.1103 4.32902 22.3011 4.25 22.5 4.25H27C27.1989 4.25 27.3897 4.32902 27.5303 4.46967C27.671 4.61032 27.75 4.80109 27.75 5ZM27 21.75C26.8011 21.75 26.6103 21.829 26.4697 21.9697C26.329 22.1103 26.25 22.3011 26.25 22.5V26.25H22.5C22.3011 26.25 22.1103 26.329 21.9697 26.4697C21.829 26.6103 21.75 26.8011 21.75 27C21.75 27.1989 21.829 27.3897 21.9697 27.5303C22.1103 27.671 22.3011 27.75 22.5 27.75H27C27.1989 27.75 27.3897 27.671 27.5303 27.5303C27.671 27.3897 27.75 27.1989 27.75 27V22.5C27.75 22.3011 27.671 22.1103 27.5303 21.9697C27.3897 21.829 27.1989 21.75 27 21.75ZM9.5 26.25H5.75V22.5C5.75 22.3011 5.67098 22.1103 5.53033 21.9697C5.38968 21.829 5.19891 21.75 5 21.75C4.80109 21.75 4.61032 21.829 4.46967 21.9697C4.32902 22.1103 4.25 22.3011 4.25 22.5V27C4.25 27.1989 4.32902 27.3897 4.46967 27.5303C4.61032 27.671 4.80109 27.75 5 27.75H9.5C9.69891 27.75 9.88968 27.671 10.0303 27.5303C10.171 27.3897 10.25 27.1989 10.25 27C10.25 26.8011 10.171 26.6103 10.0303 26.4697C9.88968 26.329 9.69891 26.25 9.5 26.25ZM5 10.25C5.19891 10.25 5.38968 10.171 5.53033 10.0303C5.67098 9.88968 5.75 9.69891 5.75 9.5V5.75H9.5C9.69891 5.75 9.88968 5.67098 10.0303 5.53033C10.171 5.38968 10.25 5.19891 10.25 5C10.25 4.80109 10.171 4.61032 10.0303 4.46967C9.88968 4.32902 9.69891 4.25 9.5 4.25H5C4.80109 4.25 4.61032 4.32902 4.46967 4.46967C4.32902 4.61032 4.25 4.80109 4.25 5V9.5C4.25 9.69891 4.32902 9.88968 4.46967 10.0303C4.61032 10.171 4.80109 10.25 5 10.25ZM16 24.75C14.2694 24.75 12.5777 24.2368 11.1388 23.2754C9.69983 22.3139 8.57832 20.9473 7.91605 19.3485C7.25379 17.7496 7.08051 15.9903 7.41813 14.293C7.75575 12.5956 8.58911 11.0365 9.81282 9.81282C11.0365 8.58911 12.5956 7.75575 14.293 7.41813C15.9903 7.08051 17.7496 7.25379 19.3485 7.91605C20.9473 8.57832 22.3139 9.69983 23.2754 11.1388C24.2368 12.5777 24.75 14.2694 24.75 16C24.7474 18.3198 23.8246 20.5439 22.1843 22.1843C20.5439 23.8246 18.3198 24.7474 16 24.75ZM23.25 16C23.25 14.5661 22.8248 13.1644 22.0282 11.9721C21.2315 10.7799 20.0992 9.85061 18.7745 9.30187C17.4497 8.75314 15.992 8.60956 14.5856 8.88931C13.1792 9.16905 11.8874 9.85955 10.8735 10.8735C9.85955 11.8874 9.16905 13.1792 8.88931 14.5856C8.60956 15.992 8.75314 17.4497 9.30187 18.7745C9.85061 20.0992 10.7799 21.2315 11.9721 22.0282C13.1644 22.8248 14.5661 23.25 16 23.25C17.9221 23.2477 19.7648 22.4831 21.124 21.124C22.4831 19.7648 23.2477 17.9221 23.25 16ZM14.25 14.5C14.25 14.2528 14.1767 14.0111 14.0393 13.8055C13.902 13.6 13.7068 13.4398 13.4784 13.3452C13.2499 13.2505 12.9986 13.2258 12.7561 13.274C12.5137 13.3222 12.2909 13.4413 12.1161 13.6161C11.9413 13.7909 11.8222 14.0137 11.774 14.2561C11.7258 14.4986 11.7505 14.7499 11.8452 14.9784C11.9398 15.2068 12.1 15.402 12.3055 15.5393C12.5111 15.6767 12.7528 15.75 13 15.75C13.3315 15.75 13.6495 15.6183 13.8839 15.3839C14.1183 15.1495 14.25 14.8315 14.25 14.5ZM19 13.25C18.7528 13.25 18.5111 13.3233 18.3055 13.4607C18.1 13.598 17.9398 13.7932 17.8451 14.0216C17.7505 14.2501 17.7258 14.5014 17.774 14.7439C17.8223 14.9863 17.9413 15.2091 18.1161 15.3839C18.2909 15.5587 18.5137 15.6778 18.7561 15.726C18.9986 15.7742 19.2499 15.7495 19.4784 15.6548C19.7068 15.5602 19.902 15.4 20.0393 15.1945C20.1767 14.9889 20.25 14.7472 20.25 14.5C20.25 14.1685 20.1183 13.8505 19.8839 13.6161C19.6495 13.3817 19.3315 13.25 19 13.25ZM18.5 18.4375C17.975 18.9012 16.8988 19.25 16 19.25C15.1012 19.25 14.0212 18.9012 13.5 18.4375C13.4261 18.3723 13.3401 18.3224 13.247 18.2904C13.1538 18.2585 13.0552 18.2452 12.9569 18.2514C12.8586 18.2575 12.7625 18.283 12.674 18.3263C12.5855 18.3696 12.5064 18.4299 12.4412 18.5037C12.3761 18.5776 12.3261 18.6636 12.2942 18.7568C12.2622 18.85 12.2489 18.9485 12.2551 19.0468C12.2613 19.1452 12.2867 19.2413 12.33 19.3298C12.3733 19.4183 12.4336 19.4973 12.5075 19.5625C13.4375 20.3825 14.9338 20.75 16.0075 20.75C17.0812 20.75 18.5737 20.3825 19.5075 19.5625C19.6567 19.4309 19.7475 19.2454 19.7599 19.0468C19.7723 18.8483 19.7054 18.6529 19.5737 18.5037C19.4421 18.3546 19.2566 18.2638 19.0581 18.2514C18.8595 18.2389 18.6642 18.3059 18.515 18.4375H18.5Z" fill="white"/>
</svg>
