<svg width="32" height="32" viewBox="0 0 32 32" fill="none" xmlns="http://www.w3.org/2000/svg">
<path d="M19.9225 14C19.8669 13.9187 19.8279 13.8272 19.8077 13.7308C19.7875 13.6344 19.7865 13.5349 19.8047 13.4381C19.8229 13.3413 19.86 13.249 19.9139 13.1666C19.9678 13.0841 20.0374 13.0131 20.1188 12.9575L28.5763 7.16876C28.7405 7.05638 28.9427 7.01385 29.1384 7.05054C29.334 7.08722 29.507 7.20012 29.6194 7.36439C29.7318 7.52865 29.7743 7.73084 29.7376 7.92646C29.7009 8.12209 29.588 8.29513 29.4238 8.40751L20.965 14.195C20.8009 14.3074 20.5989 14.35 20.4034 14.3134C20.2079 14.2768 20.0349 14.1641 19.9225 14ZM29.625 24.6363C29.5126 24.8004 29.3397 24.9131 29.1442 24.9496C28.9487 24.9862 28.7466 24.9436 28.5825 24.8313L17 16.9088L11.375 20.7575C11.814 21.723 11.8761 22.8177 11.5491 23.8267C11.2221 24.8356 10.5297 25.6858 9.60789 26.2103C8.68607 26.7349 7.60145 26.8957 6.56706 26.6614C5.53268 26.4271 4.62329 25.8144 4.01752 24.9439C3.41175 24.0733 3.15338 23.0077 3.29316 21.9563C3.43293 20.905 3.96075 19.9439 4.77295 19.2618C5.58514 18.5798 6.623 18.226 7.68268 18.2701C8.74236 18.3142 9.74727 18.7529 10.5 19.5C10.5073 19.5089 10.5152 19.5173 10.5238 19.525L15.6713 16L10.5288 12.48L10.5 12.5C9.74842 13.2481 8.74432 13.6881 7.68489 13.7337C6.62546 13.7794 5.58723 13.4273 4.77408 12.7467C3.96092 12.0661 3.43159 11.106 3.29001 10.0551C3.14844 9.00418 3.40485 7.93829 4.00889 7.06674C4.61294 6.19519 5.52099 5.58093 6.55473 5.34458C7.58847 5.10824 8.67322 5.26688 9.59599 5.78936C10.5188 6.31184 11.2129 7.16041 11.542 8.16844C11.8712 9.17647 11.8116 10.2711 11.375 11.2375L29.4225 23.5875C29.5052 23.6426 29.5762 23.7136 29.6312 23.7963C29.6863 23.8791 29.7243 23.9719 29.7431 24.0695C29.762 24.1671 29.7613 24.2675 29.741 24.3648C29.7207 24.462 29.6813 24.5543 29.625 24.6363ZM9.44502 11.4438C9.82949 11.0591 10.0913 10.5691 10.1973 10.0357C10.3033 9.50229 10.2487 8.94942 10.0406 8.447C9.83239 7.94457 9.47992 7.51516 9.02771 7.21304C8.5755 6.91093 8.04387 6.74967 7.50002 6.74967C6.95618 6.74967 6.42455 6.91093 5.97234 7.21304C5.52013 7.51516 5.16766 7.94457 4.95948 8.447C4.7513 8.94942 4.69677 9.50229 4.80277 10.0357C4.90878 10.5691 5.17056 11.0591 5.55502 11.4438C5.80939 11.7011 6.11228 11.9053 6.44614 12.0447C6.78001 12.1842 7.13822 12.256 7.50002 12.256C7.86183 12.256 8.22004 12.1842 8.55391 12.0447C8.88777 11.9053 9.19066 11.7011 9.44502 11.4438ZM10.25 22.5C10.2498 21.8638 10.029 21.2473 9.62525 20.7557C9.22148 20.264 8.65972 19.9275 8.03569 19.8036C7.41166 19.6797 6.76397 19.7759 6.20297 20.076C5.64196 20.3761 5.20236 20.8614 4.95906 21.4493C4.71576 22.0371 4.68381 22.6912 4.86866 23.2999C5.0535 23.9087 5.44371 24.4345 5.9728 24.7879C6.50188 25.1412 7.13711 25.3001 7.77025 25.2376C8.40338 25.1751 8.99526 24.895 9.44502 24.445C9.70102 24.1901 9.90397 23.8869 10.0421 23.5531C10.1803 23.2192 10.251 22.8613 10.25 22.5Z" fill="white"/>
</svg>
