<svg width="32" height="32" viewBox="0 0 32 32" fill="none" xmlns="http://www.w3.org/2000/svg">
<path d="M26.5001 17.25C26.2955 17.2504 26.0912 17.2654 25.8888 17.295L21.7113 4.7625C21.6615 4.61327 21.566 4.48349 21.4384 4.39151C21.3107 4.29954 21.1574 4.25003 21.0001 4.25H17.0001C16.8011 4.25 16.6104 4.32902 16.4697 4.46967C16.3291 4.61032 16.2501 4.80109 16.2501 5C16.2501 5.19891 16.3291 5.38968 16.4697 5.53033C16.6104 5.67098 16.8011 5.75 17.0001 5.75H20.4601L22.7401 12.5913L15.6451 21.25H9.74255C9.67969 20.1903 9.22254 19.1926 8.46106 18.453C7.69959 17.7134 6.6889 17.2856 5.62786 17.2536C4.56681 17.2217 3.53223 17.588 2.72765 18.2804C1.92308 18.9729 1.40676 19.9414 1.28028 20.9953C1.15381 22.0493 1.42633 23.1124 2.04424 23.9756C2.66214 24.8387 3.58069 25.4394 4.61916 25.6594C5.65764 25.8794 6.74085 25.7028 7.65569 25.1644C8.57053 24.626 9.25076 23.7647 9.56255 22.75H16.0001C16.1111 22.7499 16.2207 22.7252 16.321 22.6777C16.4213 22.6301 16.5098 22.5609 16.5801 22.475L23.3001 14.2725L24.4663 17.7725C23.5581 18.27 22.8627 19.0819 22.5108 20.0558C22.159 21.0298 22.1748 22.0986 22.5553 23.0617C22.9358 24.0248 23.6549 24.8158 24.5774 25.2862C25.5 25.7566 26.5625 25.874 27.5655 25.6163C28.5685 25.3586 29.4428 24.7436 30.0244 23.8868C30.606 23.03 30.8547 21.9903 30.7239 20.9631C30.5931 19.9359 30.0917 18.9917 29.314 18.308C28.5362 17.6243 27.5356 17.2481 26.5001 17.25ZM5.50005 24.25C4.95615 24.25 4.42447 24.0887 3.97223 23.7865C3.52 23.4844 3.16752 23.0549 2.95938 22.5524C2.75124 22.0499 2.69678 21.4969 2.80289 20.9635C2.909 20.4301 3.17091 19.9401 3.55551 19.5555C3.9401 19.1709 4.43011 18.909 4.96355 18.8028C5.497 18.6967 6.04993 18.7512 6.55243 18.9593C7.05493 19.1675 7.48442 19.5199 7.78659 19.9722C8.08877 20.4244 8.25005 20.9561 8.25005 21.5C8.25005 22.2293 7.96032 22.9288 7.4446 23.4445C6.92887 23.9603 6.2294 24.25 5.50005 24.25ZM26.5001 24.25C25.9562 24.25 25.4245 24.0887 24.9722 23.7865C24.52 23.4844 24.1675 23.0549 23.9594 22.5524C23.7512 22.0499 23.6968 21.4969 23.8029 20.9635C23.909 20.4301 24.1709 19.9401 24.5555 19.5555C24.9401 19.1709 25.4301 18.909 25.9636 18.8028C26.497 18.6967 27.0499 18.7512 27.5524 18.9593C28.0549 19.1675 28.4844 19.5199 28.7866 19.9722C29.0888 20.4244 29.2501 20.9561 29.2501 21.5C29.2501 22.2293 28.9603 22.9288 28.4446 23.4445C27.9289 23.9603 27.2294 24.25 26.5001 24.25Z" fill="white"/>
</svg>
