<svg width="32" height="32" viewBox="0 0 32 32" fill="none" xmlns="http://www.w3.org/2000/svg">
<path d="M25.53 6.46752C25.6704 6.60814 25.7493 6.79877 25.7493 6.99752C25.7493 7.19627 25.6704 7.38689 25.53 7.52752L18.53 14.5275C18.3889 14.6662 18.1986 14.7435 18.0008 14.7426C17.8029 14.7417 17.6135 14.6626 17.4736 14.5226C17.3338 14.3826 17.255 14.193 17.2543 13.9952C17.2536 13.7973 17.3311 13.6072 17.47 13.4663L24.47 6.46627C24.6108 6.32598 24.8015 6.24732 25.0002 6.24755C25.199 6.24779 25.3895 6.3269 25.53 6.46752ZM30.75 7.30127C30.7521 8.09642 30.5965 8.8841 30.2923 9.61875C29.988 10.3534 29.5412 11.0204 28.9775 11.5813L22.3225 18.2363C22.1605 18.3992 21.9679 18.5283 21.7557 18.6163C21.5435 18.7043 21.3159 18.7493 21.0862 18.7488H19C18.9337 18.7488 18.8701 18.7751 18.8232 18.822C18.7763 18.8689 18.75 18.9325 18.75 18.9988V21.1025C18.7492 21.4838 18.6247 21.8545 18.395 22.1588C18.3741 22.186 18.3516 22.2119 18.3275 22.2363L17.3275 23.2363C17.165 23.3988 16.972 23.5277 16.7597 23.6157C16.5474 23.7036 16.3198 23.7489 16.09 23.7489C15.8601 23.7489 15.6326 23.7036 15.4202 23.6157C15.2079 23.5277 15.015 23.3988 14.8525 23.2363L12.3375 20.7213L2.52997 30.53C2.38779 30.6625 2.19975 30.7346 2.00545 30.7312C1.81114 30.7278 1.62576 30.649 1.48835 30.5116C1.35093 30.3742 1.27222 30.1888 1.26879 29.9945C1.26537 29.8002 1.33749 29.6122 1.46997 29.47L11.2775 19.6613L8.76247 17.1463C8.59995 16.9838 8.47103 16.7908 8.38307 16.5785C8.29511 16.3662 8.24984 16.1386 8.24984 15.9088C8.24984 15.6789 8.29511 15.4514 8.38307 15.239C8.47103 15.0267 8.59995 14.8338 8.76247 14.6713L9.76247 13.6713C9.7862 13.6465 9.81214 13.6239 9.83997 13.6038C10.1441 13.374 10.515 13.2497 10.8962 13.25H13C13.0663 13.25 13.1299 13.2237 13.1767 13.1768C13.2236 13.1299 13.25 13.0663 13.25 13V10.9125C13.2494 10.6826 13.2944 10.4549 13.3824 10.2425C13.4703 10.0301 13.5995 9.8372 13.7625 9.67502L20.4162 3.02002C21.2629 2.17357 22.3416 1.59719 23.5159 1.36375C24.6901 1.13031 25.9072 1.2503 27.0133 1.70854C28.1194 2.16678 29.0647 2.9427 29.7298 3.93819C30.395 4.93368 30.75 6.10403 30.75 7.30127ZM29.25 7.30127C29.2497 6.40087 28.9826 5.52076 28.4823 4.77216C27.9819 4.02357 27.2709 3.44009 26.4391 3.09547C25.6073 2.75086 24.6919 2.66058 23.8088 2.83604C22.9257 3.01151 22.1144 3.44484 21.4775 4.08127L14.8225 10.735C14.7993 10.7584 14.781 10.7861 14.7685 10.8165C14.7561 10.847 14.7498 10.8796 14.75 10.9125V13C14.75 13.2298 14.7047 13.4574 14.6168 13.6697C14.5288 13.882 14.3999 14.075 14.2374 14.2375C14.0749 14.4 13.882 14.5289 13.6697 14.6168C13.4573 14.7048 13.2298 14.75 13 14.75H10.8962C10.8526 14.7499 10.8096 14.7606 10.7712 14.7813L9.81997 15.7325C9.79672 15.7557 9.77828 15.7833 9.7657 15.8137C9.75312 15.844 9.74665 15.8765 9.74665 15.9094C9.74665 15.9422 9.75312 15.9748 9.7657 16.0051C9.77828 16.0355 9.79672 16.063 9.81997 16.0863L15.9112 22.1775C15.9581 22.2241 16.0214 22.2502 16.0875 22.2502C16.1535 22.2502 16.2169 22.2241 16.2637 22.1775L17.2162 21.2263C17.2369 21.1878 17.2476 21.1449 17.2475 21.1013V19C17.2475 18.5359 17.4318 18.0908 17.76 17.7626C18.0882 17.4344 18.5333 17.25 18.9975 17.25H21.0837C21.1499 17.2497 21.2133 17.2232 21.26 17.1763L27.9137 10.5225C28.3385 10.1007 28.6754 9.59878 28.9047 9.04583C29.1341 8.49288 29.2515 7.8999 29.25 7.30127Z" fill="white"/>
</svg>
