<svg width="32" height="32" viewBox="0 0 32 32" fill="none" xmlns="http://www.w3.org/2000/svg">
<path d="M31.5563 19.5C31.3913 19.3175 28.5226 16.1975 23.8851 14.4375C23.6976 12.1263 22.8688 10.0237 21.5101 8.4375C19.7176 6.35 17.1251 5.25 14.0001 5.25C7.68631 5.25 3.56256 10.9225 3.39006 11.1637C3.33261 11.2439 3.29149 11.3345 3.26907 11.4305C3.24665 11.5265 3.24335 11.626 3.25937 11.7232C3.27538 11.8205 3.3104 11.9137 3.36243 11.9974C3.41445 12.0811 3.48245 12.1538 3.56256 12.2113C3.64267 12.2687 3.7333 12.3098 3.8293 12.3322C3.92529 12.3547 4.02477 12.358 4.12204 12.3419C4.21931 12.3259 4.31247 12.2909 4.3962 12.2389C4.47994 12.1869 4.55261 12.1189 4.61006 12.0387C4.64756 11.9837 8.46881 6.75 14.0001 6.75C16.6713 6.75 18.8751 7.66875 20.3663 9.40875C21.3988 10.6112 22.0713 12.1763 22.3188 13.9163C20.7739 13.4756 19.1753 13.2514 17.5688 13.25C14.3713 13.25 11.6938 14.0813 9.81881 15.6525C8.18131 17.0275 7.24131 18.945 7.24131 20.9025C7.23387 21.6586 7.37679 22.4087 7.66176 23.1091C7.94674 23.8095 8.36808 24.4463 8.90131 24.9825C10.0701 26.14 11.6838 26.75 13.5751 26.75C20.0413 26.75 23.6438 21.3638 23.9101 16.0775C27.9163 17.7637 30.4101 20.4638 30.4438 20.5025C30.5804 20.6335 30.7616 20.708 30.9508 20.7111C31.1401 20.7141 31.3235 20.6455 31.4643 20.519C31.6051 20.3924 31.6928 20.2173 31.7099 20.0288C31.7269 19.8403 31.6721 19.6523 31.5563 19.5025V19.5ZM20.1251 22.1912C18.9901 23.5863 16.9301 25.25 13.5751 25.25C11.2501 25.25 8.75006 23.89 8.75006 20.9062C8.75006 17.9412 11.5113 14.75 17.5751 14.75C19.2223 14.7554 20.8586 15.0178 22.4251 15.5275C22.4076 17.9925 21.5726 20.4175 20.1251 22.1912Z" fill="white"/>
</svg>
