<svg width="32" height="32" viewBox="0 0 32 32" fill="none" xmlns="http://www.w3.org/2000/svg">
<path d="M25.5313 23.53C25.3382 23.7231 25.1851 23.9522 25.0806 24.2045C24.9761 24.4567 24.9223 24.727 24.9223 25C24.9223 25.273 24.9761 25.5434 25.0806 25.7956C25.1851 26.0478 25.3382 26.277 25.5313 26.47C25.605 26.5387 25.6641 26.6215 25.705 26.7135C25.746 26.8055 25.7681 26.9048 25.7699 27.0055C25.7716 27.1062 25.7531 27.2062 25.7154 27.2996C25.6777 27.393 25.6215 27.4779 25.5503 27.5491C25.4791 27.6203 25.3943 27.6764 25.3009 27.7142C25.2075 27.7519 25.1074 27.7704 25.0067 27.7686C24.906 27.7669 24.8067 27.7448 24.7147 27.7038C24.6227 27.6628 24.5399 27.6037 24.4713 27.53C24.1388 27.1979 23.8751 26.8035 23.6951 26.3694C23.5152 25.9353 23.4226 25.47 23.4226 25C23.4226 24.5301 23.5152 24.0648 23.6951 23.6307C23.8751 23.1966 24.1388 22.8022 24.4713 22.47L25.6425 21.2975C26.0214 20.9055 26.231 20.3802 26.2263 19.835C26.2216 19.2898 26.0028 18.7683 25.6172 18.3828C25.2316 17.9974 24.71 17.7789 24.1648 17.7744C23.6196 17.7699 23.0944 17.9798 22.7025 18.3588L14.3588 26.7025C13.6876 27.3737 12.7773 27.7508 11.8281 27.7508C10.879 27.7508 9.96868 27.3737 9.29752 26.7025C8.62635 26.0314 8.2493 25.1211 8.2493 24.1719C8.2493 23.2227 8.62635 22.3125 9.29752 21.6413L21.6425 9.29754C22.0214 8.90545 22.231 8.38022 22.2263 7.83501C22.2216 7.28981 22.0028 6.76829 21.6172 6.38284C21.2316 5.99739 20.71 5.77888 20.1648 5.77438C19.6196 5.76988 19.0944 5.97976 18.7025 6.35879L10.3575 14.7025C9.68635 15.3737 8.77606 15.7508 7.82689 15.7508C6.87772 15.7508 5.96743 15.3737 5.29627 14.7025C4.6251 14.0314 4.24805 13.1211 4.24805 12.1719C4.24805 11.2227 4.6251 10.3125 5.29627 9.64129L10.4688 4.47004C10.5382 4.39942 10.6208 4.34325 10.7121 4.30475C10.8033 4.26625 10.9012 4.2462 11.0002 4.24574C11.0992 4.24528 11.1973 4.26442 11.2889 4.30207C11.3805 4.33972 11.4637 4.39512 11.5337 4.46509C11.6038 4.53505 11.6593 4.61819 11.697 4.70971C11.7348 4.80124 11.754 4.89933 11.7537 4.99833C11.7533 5.09733 11.7334 5.19529 11.695 5.28655C11.6566 5.37781 11.6005 5.46056 11.53 5.53004L6.35752 10.7025C5.97865 11.0946 5.76899 11.6199 5.77373 12.1651C5.77846 12.7103 5.9972 13.2318 6.38281 13.6172C6.76842 14.0027 7.29004 14.2212 7.83524 14.2257C8.38045 14.2302 8.90559 14.0203 9.29752 13.6413L17.6413 5.29754C18.3124 4.62637 19.2227 4.24932 20.1719 4.24932C21.1211 4.24932 22.0314 4.62637 22.7025 5.29754C23.3737 5.9687 23.7507 6.87899 23.7507 7.82816C23.7507 8.77733 23.3737 9.68762 22.7025 10.3588L10.3575 22.7025C9.97865 23.0946 9.76899 23.6199 9.77373 24.1651C9.77846 24.7103 9.9972 25.2318 10.3828 25.6172C10.7684 26.0027 11.29 26.2212 11.8352 26.2257C12.3804 26.2302 12.9056 26.0203 13.2975 25.6413L21.6425 17.2975C22.3137 16.6264 23.224 16.2493 24.1731 16.2493C25.1223 16.2493 26.0326 16.6264 26.7038 17.2975C27.3749 17.9687 27.752 18.879 27.752 19.8282C27.752 20.7773 27.3749 21.6876 26.7038 22.3588L25.5313 23.53Z" fill="white"/>
</svg>
