<svg width="32" height="32" viewBox="0 0 32 32" fill="none" xmlns="http://www.w3.org/2000/svg">
<path d="M28.0525 13.025C27.565 12.5162 27.0612 11.9913 26.8587 11.5025C26.6712 11.0487 26.6612 10.3775 26.65 9.6675C26.6325 8.495 26.6125 7.1675 25.7225 6.2775C24.8325 5.3875 23.5 5.3675 22.3325 5.35C21.6225 5.33875 20.9575 5.32875 20.4975 5.14125C20.0087 4.93875 19.4838 4.435 18.975 3.9475C18.145 3.1525 17.205 2.25 16 2.25C14.795 2.25 13.855 3.1525 13.025 3.9475C12.5162 4.435 11.9913 4.93875 11.5025 5.14125C11.0487 5.32875 10.3775 5.33875 9.6675 5.35C8.495 5.3675 7.1675 5.3875 6.2775 6.2775C5.3875 7.1675 5.3675 8.5 5.35 9.6675C5.33875 10.3775 5.32875 11.0425 5.14125 11.5025C4.93875 11.9913 4.435 12.5162 3.9475 13.025C3.1525 13.855 2.25 14.795 2.25 16C2.25 17.205 3.1525 18.145 3.9475 18.975C4.435 19.4838 4.93875 20.0087 5.14125 20.4975C5.32875 20.9513 5.33875 21.6225 5.35 22.3325C5.3675 23.505 5.3875 24.8325 6.2775 25.7225C7.1675 26.6125 8.5 26.6325 9.6675 26.65C10.3775 26.6612 11.0425 26.6712 11.5025 26.8587C11.9913 27.0612 12.5162 27.565 13.025 28.0525C13.855 28.8475 14.795 29.75 16 29.75C17.205 29.75 18.145 28.8475 18.975 28.0525C19.4838 27.565 20.0087 27.0612 20.4975 26.8587C20.9513 26.6712 21.6225 26.6612 22.3325 26.65C23.505 26.6325 24.8325 26.6125 25.7225 25.7225C26.6125 24.8325 26.6325 23.505 26.65 22.3325C26.6612 21.6225 26.6712 20.9575 26.8587 20.4975C27.0612 20.0087 27.565 19.4838 28.0525 18.975C28.8475 18.145 29.75 17.205 29.75 16C29.75 14.795 28.8475 13.855 28.0525 13.025ZM26.97 17.9363C26.3862 18.545 25.7825 19.175 25.47 19.925C25.1725 20.6425 25.16 21.49 25.1475 22.31C25.1337 23.24 25.1187 24.2025 24.66 24.6625C24.2013 25.1225 23.2375 25.1362 22.3075 25.15C21.4875 25.1625 20.64 25.175 19.9225 25.4725C19.1725 25.7825 18.5475 26.3862 17.9338 26.9725C17.2775 27.5975 16.5988 28.2525 15.9975 28.2525C15.3963 28.2525 14.7175 27.6012 14.06 26.9725C13.4525 26.3888 12.8225 25.785 12.0725 25.4725C11.355 25.175 10.5075 25.1625 9.6875 25.15C8.7575 25.1362 7.795 25.1213 7.335 24.6625C6.875 24.2038 6.86125 23.24 6.8475 22.31C6.835 21.49 6.8225 20.6425 6.525 19.925C6.215 19.175 5.61125 18.55 5.025 17.9363C4.40125 17.28 3.75 16.6012 3.75 16C3.75 15.3988 4.40125 14.72 5.03 14.0638C5.61375 13.455 6.2175 12.825 6.53 12.075C6.8275 11.3575 6.84 10.51 6.8525 9.69C6.86625 8.76 6.88125 7.7975 7.34 7.3375C7.79875 6.8775 8.7625 6.86375 9.6925 6.85C10.5125 6.8375 11.36 6.825 12.0775 6.5275C12.8275 6.2175 13.4525 5.61375 14.0662 5.0275C14.72 4.40125 15.3988 3.75 16 3.75C16.6012 3.75 17.28 4.40125 17.9375 5.03C18.545 5.61375 19.175 6.2175 19.925 6.53C20.6425 6.8275 21.49 6.84 22.31 6.8525C23.24 6.86625 24.2025 6.88125 24.6625 7.34C25.1225 7.79875 25.1362 8.7625 25.15 9.6925C25.1625 10.5125 25.175 11.36 25.4725 12.0775C25.7825 12.8275 26.3862 13.4525 26.9725 14.0662C27.5975 14.7225 28.2525 15.4013 28.2525 16.0025C28.2525 16.6038 27.5987 17.28 26.97 17.9363ZM14.75 12C14.75 11.4561 14.5887 10.9244 14.2865 10.4722C13.9844 10.0199 13.5549 9.66747 13.0524 9.45933C12.5499 9.25119 11.997 9.19673 11.4635 9.30284C10.9301 9.40895 10.4401 9.67086 10.0555 10.0555C9.67086 10.4401 9.40895 10.9301 9.30284 11.4635C9.19673 11.997 9.25119 12.5499 9.45933 13.0524C9.66747 13.5549 10.0199 13.9844 10.4722 14.2865C10.9244 14.5887 11.4561 14.75 12 14.75C12.7293 14.75 13.4288 14.4603 13.9445 13.9445C14.4603 13.4288 14.75 12.7293 14.75 12ZM10.75 12C10.75 11.7528 10.8233 11.5111 10.9607 11.3055C11.098 11.1 11.2932 10.9398 11.5216 10.8452C11.7501 10.7505 12.0014 10.7258 12.2439 10.774C12.4863 10.8222 12.7091 10.9413 12.8839 11.1161C13.0587 11.2909 13.1778 11.5137 13.226 11.7561C13.2742 11.9986 13.2495 12.2499 13.1548 12.4784C13.0602 12.7068 12.9 12.902 12.6945 13.0393C12.4889 13.1767 12.2472 13.25 12 13.25C11.6685 13.25 11.3505 13.1183 11.1161 12.8839C10.8817 12.6495 10.75 12.3315 10.75 12ZM20 17.25C19.4561 17.25 18.9244 17.4113 18.4722 17.7135C18.0199 18.0156 17.6675 18.4451 17.4593 18.9476C17.2512 19.4501 17.1967 20.0031 17.3028 20.5365C17.409 21.0699 17.6709 21.5599 18.0555 21.9445C18.4401 22.3291 18.9301 22.591 19.4635 22.6972C19.9969 22.8033 20.5499 22.7488 21.0524 22.5407C21.5549 22.3325 21.9844 21.9801 22.2865 21.5278C22.5887 21.0756 22.75 20.5439 22.75 20C22.75 19.2707 22.4603 18.5712 21.9445 18.0555C21.4288 17.5397 20.7293 17.25 20 17.25ZM20 21.25C19.7528 21.25 19.5111 21.1767 19.3055 21.0393C19.1 20.902 18.9398 20.7068 18.8451 20.4784C18.7505 20.2499 18.7258 19.9986 18.774 19.7561C18.8223 19.5137 18.9413 19.2909 19.1161 19.1161C19.2909 18.9413 19.5137 18.8223 19.7561 18.774C19.9986 18.7258 20.2499 18.7505 20.4784 18.8451C20.7068 18.9398 20.902 19.1 21.0393 19.3055C21.1767 19.5111 21.25 19.7528 21.25 20C21.25 20.3315 21.1183 20.6495 20.8839 20.8839C20.6495 21.1183 20.3315 21.25 20 21.25ZM21.53 11.53L11.53 21.53C11.3878 21.6625 11.1998 21.7346 11.0055 21.7312C10.8112 21.7277 10.6258 21.649 10.4884 21.5116C10.351 21.3742 10.2723 21.1888 10.2688 20.9945C10.2654 20.8002 10.3375 20.6122 10.47 20.47L20.47 10.47C20.6122 10.3375 20.8002 10.2654 20.9945 10.2688C21.1888 10.2723 21.3742 10.351 21.5116 10.4884C21.649 10.6258 21.7277 10.8112 21.7312 11.0055C21.7346 11.1998 21.6625 11.3878 21.53 11.53Z" fill="white"/>
</svg>
