<svg width="32" height="32" viewBox="0 0 32 32" fill="none" xmlns="http://www.w3.org/2000/svg">
<path d="M27.7501 29C27.7501 29.199 27.671 29.3897 27.5304 29.5304C27.3897 29.671 27.199 29.75 27.0001 29.75H14.0001C13.8011 29.75 13.6104 29.671 13.4697 29.5304C13.3291 29.3897 13.2501 29.199 13.2501 29C13.2501 28.8011 13.3291 28.6104 13.4697 28.4697C13.6104 28.3291 13.8011 28.25 14.0001 28.25H27.0001C27.199 28.25 27.3897 28.3291 27.5304 28.4697C27.671 28.6104 27.7501 28.8011 27.7501 29ZM27.7501 20V24C27.7501 24.4642 27.5657 24.9093 27.2375 25.2375C26.9093 25.5657 26.4642 25.75 26.0001 25.75H14.2638C13.9384 25.7511 13.6193 25.661 13.3425 25.49C13.0657 25.319 12.8423 25.074 12.6976 24.7825L5.43381 10.2825C5.31292 10.0394 5.25 9.77158 5.25 9.50005C5.25 9.22852 5.31292 8.96068 5.43381 8.71755L8.19881 3.21755C8.40442 2.80702 8.76312 2.49375 9.19758 2.34526C9.63204 2.19678 10.1075 2.22498 10.5213 2.4238L14.7388 4.2038L14.7813 4.22505C14.9869 4.32772 15.1703 4.46989 15.3209 4.64343C15.4716 4.81697 15.5866 5.01849 15.6594 5.23648C15.7321 5.45446 15.7613 5.68465 15.7451 5.91389C15.7289 6.14313 15.6677 6.36695 15.5651 6.57255L15.5538 6.59255L13.7726 9.89505C13.7564 9.92879 13.748 9.96574 13.748 10.0032C13.748 10.0406 13.7564 10.0775 13.7726 10.1113L17.7451 18.1113C17.766 18.1523 17.7979 18.1867 17.8371 18.2107C17.8764 18.2348 17.9215 18.2475 17.9676 18.2475H26.0001C26.2301 18.2475 26.4579 18.2929 26.6703 18.381C26.8828 18.4691 27.0758 18.5982 27.2384 18.761C27.4009 18.9238 27.5298 19.117 27.6176 19.3296C27.7054 19.5422 27.7504 19.77 27.7501 20ZM26.2501 20C26.2501 19.9337 26.2237 19.8702 26.1768 19.8233C26.13 19.7764 26.0664 19.75 26.0001 19.75H17.9713C17.6462 19.7509 17.3273 19.6607 17.0507 19.4897C16.7741 19.3187 16.5509 19.0738 16.4063 18.7825L12.4338 10.7825C12.3128 10.5399 12.2497 10.2725 12.2497 10.0013C12.2497 9.73014 12.3128 9.46269 12.4338 9.22005L12.4451 9.1988L14.2263 5.8963C14.2529 5.83855 14.2565 5.77284 14.2363 5.71255C14.2172 5.65469 14.1777 5.60579 14.1251 5.57505L9.91881 3.7963L9.87506 3.7763C9.8405 3.75907 9.80242 3.75009 9.76381 3.75005C9.71743 3.74995 9.67194 3.76277 9.63243 3.78705C9.59291 3.81133 9.56093 3.84613 9.54006 3.88755L6.77506 9.38755C6.75788 9.42212 6.74894 9.46019 6.74894 9.4988C6.74894 9.5374 6.75788 9.57548 6.77506 9.61005L14.0401 24.11C14.0608 24.1517 14.0927 24.1868 14.1322 24.2113C14.1717 24.2358 14.2173 24.2488 14.2638 24.2488H26.0001C26.0664 24.2488 26.13 24.2225 26.1768 24.1756C26.2237 24.1287 26.2501 24.0651 26.2501 23.9988V20Z" fill="white"/>
</svg>
