<svg width="32" height="32" viewBox="0 0 32 32" fill="none" xmlns="http://www.w3.org/2000/svg">
<path d="M16 13.75C17.0384 13.75 18.0534 13.4421 18.9168 12.8652C19.7801 12.2883 20.453 11.4684 20.8504 10.5091C21.2478 9.54978 21.3517 8.49418 21.1491 7.47578C20.9466 6.45738 20.4466 5.52192 19.7123 4.78769C18.9781 4.05347 18.0427 3.55345 17.0243 3.35088C16.0059 3.14831 14.9503 3.25227 13.9909 3.64963C13.0316 4.04699 12.2117 4.7199 11.6348 5.58326C11.0579 6.44662 10.75 7.46165 10.75 8.5C10.75 9.89239 11.3032 11.2277 12.2877 12.2123C13.2723 13.1969 14.6076 13.75 16 13.75ZM16 4.75C16.7417 4.75 17.4667 4.96994 18.0834 5.38199C18.7001 5.79405 19.1807 6.37972 19.4646 7.06494C19.7484 7.75016 19.8227 8.50416 19.678 9.23159C19.5333 9.95902 19.1761 10.6272 18.6517 11.1517C18.1272 11.6761 17.459 12.0333 16.7316 12.1779C16.0042 12.3226 15.2502 12.2484 14.565 11.9646C13.8797 11.6807 13.2941 11.2001 12.882 10.5834C12.47 9.96671 12.25 9.24168 12.25 8.5C12.25 7.50544 12.6451 6.55161 13.3484 5.84835C14.0516 5.14509 15.0055 4.75 16 4.75ZM25.75 28C25.75 28.1989 25.671 28.3897 25.5304 28.5303C25.3897 28.671 25.1989 28.75 25 28.75H7.00003C6.84735 28.7508 6.69807 28.705 6.57213 28.6187C6.44618 28.5324 6.34958 28.4097 6.29523 28.267C6.24088 28.1243 6.23136 27.9685 6.26796 27.8202C6.30455 27.672 6.38552 27.5385 6.50003 27.4375L19.0725 16.3438C17.924 15.8819 16.6862 15.6845 15.4509 15.766C14.2156 15.8476 13.0146 16.2062 11.9367 16.8151C10.8589 17.424 9.93187 18.2677 9.22443 19.2836C8.51699 20.2995 8.04725 21.4616 7.85003 22.6838C7.82184 22.8595 7.73205 23.0195 7.59671 23.1352C7.46136 23.2508 7.2893 23.3146 7.11128 23.315C7.06944 23.3155 7.02764 23.3125 6.98628 23.3063C6.88867 23.291 6.79503 23.2567 6.71074 23.2052C6.62644 23.1537 6.55315 23.086 6.49508 23.0061C6.43701 22.9262 6.39529 22.8356 6.37233 22.7395C6.34937 22.6435 6.34561 22.5438 6.36128 22.4463C6.603 20.9382 7.19563 19.5079 8.09142 18.2709C8.98721 17.0338 10.1611 16.0245 11.5185 15.3243C12.8758 14.6241 14.3787 14.2525 15.906 14.2396C17.4333 14.2267 18.9423 14.5728 20.3113 15.25L23.5 12.4375C23.6492 12.3059 23.8446 12.2389 24.0431 12.2514C24.2417 12.2638 24.4272 12.3546 24.5588 12.5038C24.6904 12.6529 24.7574 12.8483 24.7449 13.0468C24.7325 13.2454 24.6417 13.4309 24.4925 13.5625L8.98378 27.25H25C25.1989 27.25 25.3897 27.329 25.5304 27.4697C25.671 27.6103 25.75 27.8011 25.75 28ZM24.01 18.44C25.1466 20.071 25.754 22.0121 25.75 24C25.75 24.1989 25.671 24.3897 25.5304 24.5303C25.3897 24.671 25.1989 24.75 25 24.75C24.8011 24.75 24.6103 24.671 24.4697 24.5303C24.329 24.3897 24.25 24.1989 24.25 24C24.2534 22.3183 23.7398 20.6763 22.7788 19.2963C22.6698 19.1329 22.6293 18.9333 22.6659 18.7403C22.7025 18.5474 22.8133 18.3765 22.9746 18.2644C23.1358 18.1523 23.3345 18.1079 23.5282 18.1407C23.7218 18.1735 23.8948 18.281 24.01 18.44Z" fill="white"/>
</svg>
