<svg width="32" height="32" viewBox="0 0 32 32" fill="none" xmlns="http://www.w3.org/2000/svg">
<path d="M31 17.25C30.8011 17.25 30.6103 17.329 30.4697 17.4697C30.329 17.6103 30.25 17.8011 30.25 18V20.25H24.4138C24.3476 20.2497 24.2842 20.2232 24.2375 20.1763L21.7675 17.7075L28.2375 11.2375C28.4 11.075 28.529 10.8821 28.6169 10.6698C28.7049 10.4574 28.7502 10.2298 28.7502 10C28.7502 9.77019 28.7049 9.54261 28.6169 9.33028C28.529 9.11795 28.4 8.92502 28.2375 8.76252L21.2375 1.76252C21.075 1.59981 20.882 1.47073 20.6695 1.38266C20.4571 1.2946 20.2294 1.24927 19.9994 1.24927C19.7694 1.24927 19.5417 1.2946 19.3293 1.38266C19.1168 1.47073 18.9238 1.59981 18.7613 1.76252L0.542526 20.0438C0.402944 20.1837 0.307953 20.3618 0.269549 20.5557C0.231145 20.7496 0.251051 20.9505 0.326752 21.133C0.402454 21.3156 0.530556 21.4717 0.694882 21.5815C0.859208 21.6913 1.05239 21.7499 1.25003 21.75H6.27503L10.7625 26.2375C10.925 26.4 11.118 26.529 11.3303 26.6169C11.5426 26.7049 11.7702 26.7501 12 26.7501C12.2299 26.7501 12.4574 26.7049 12.6698 26.6169C12.8821 26.529 13.075 26.4 13.2375 26.2375L20.7075 18.7675L23.1763 21.2375C23.3385 21.4004 23.5314 21.5295 23.7438 21.6174C23.9562 21.7054 24.1839 21.7504 24.4138 21.75H30.25V24C30.25 24.1989 30.329 24.3897 30.4697 24.5303C30.6103 24.671 30.8011 24.75 31 24.75C31.1989 24.75 31.3897 24.671 31.5304 24.5303C31.671 24.3897 31.75 24.1989 31.75 24V18C31.75 17.8011 31.671 17.6103 31.5304 17.4697C31.3897 17.329 31.1989 17.25 31 17.25ZM19.8238 2.82377C19.8706 2.77721 19.934 2.75107 20 2.75107C20.0661 2.75107 20.1294 2.77721 20.1763 2.82377L21.9388 4.58627L6.27503 20.25H2.45503L19.8238 2.82377ZM12.1763 25.1763C12.1294 25.2228 12.0661 25.249 12 25.249C11.934 25.249 11.8706 25.2228 11.8238 25.1763L7.64628 21L23 5.64627L27.1763 9.82377C27.2228 9.87061 27.249 9.93397 27.249 10C27.249 10.0661 27.2228 10.1294 27.1763 10.1763L12.1763 25.1763Z" fill="white"/>
</svg>
