<svg width="32" height="32" viewBox="0 0 32 32" fill="none" xmlns="http://www.w3.org/2000/svg">
<path d="M22 20.2501C21.3321 20.2499 20.6716 20.3908 20.0619 20.6638C19.4523 20.9367 18.9072 21.3355 18.4625 21.8339L12.35 17.9051C12.6138 17.3046 12.75 16.656 12.75 16.0001C12.75 15.3443 12.6138 14.6956 12.35 14.0951L18.4625 10.1664C19.26 11.0559 20.3633 11.6122 21.5527 11.7246C22.742 11.8369 23.93 11.4969 24.8799 10.7725C25.8298 10.048 26.4718 8.99215 26.678 7.81543C26.8842 6.63871 26.6394 5.42751 25.9925 4.42322C25.3455 3.41892 24.3438 2.69529 23.1872 2.39654C22.0305 2.09779 20.8037 2.24586 19.7513 2.81124C18.6989 3.37663 17.8982 4.3178 17.5088 5.44719C17.1193 6.57658 17.1698 7.81124 17.65 8.90511L11.5375 12.8339C10.8962 12.1167 10.0523 11.6112 9.11744 11.3842C8.18256 11.1572 7.20079 11.2195 6.30206 11.5627C5.40333 11.9059 4.63 12.5139 4.08441 13.3063C3.53883 14.0987 3.2467 15.0381 3.2467 16.0001C3.2467 16.9621 3.53883 17.9015 4.08441 18.6939C4.63 19.4863 5.40333 20.0943 6.30206 20.4375C7.20079 20.7807 8.18256 20.843 9.11744 20.616C10.0523 20.389 10.8962 19.8835 11.5375 19.1664L17.65 23.0951C17.2397 24.0324 17.1429 25.0771 17.3742 26.0737C17.6055 27.0704 18.1524 27.9658 18.9335 28.6266C19.7146 29.2874 20.6883 29.6783 21.7095 29.7411C22.7307 29.804 23.7449 29.5354 24.6012 28.9754C25.4575 28.4154 26.11 27.5938 26.4618 26.633C26.8135 25.6722 26.8456 24.6236 26.5533 23.6431C26.261 22.6625 25.6599 21.8026 24.8395 21.1913C24.0191 20.5799 23.0232 20.2498 22 20.2501ZM22 3.75011C22.6428 3.75011 23.2712 3.94071 23.8056 4.29783C24.3401 4.65494 24.7566 5.16252 25.0026 5.75638C25.2486 6.35024 25.313 7.00371 25.1876 7.63415C25.0622 8.26459 24.7526 8.84368 24.2981 9.2982C23.8436 9.75272 23.2645 10.0623 22.6341 10.1877C22.0036 10.3131 21.3502 10.2487 20.7563 10.0027C20.1624 9.75673 19.6549 9.34017 19.2977 8.80571C18.9406 8.27125 18.75 7.64289 18.75 7.00011C18.75 6.13815 19.0924 5.3115 19.7019 4.70201C20.3114 4.09251 21.1381 3.75011 22 3.75011ZM8.00002 19.2501C7.35723 19.2501 6.72887 19.0595 6.19441 18.7024C5.65995 18.3453 5.24339 17.8377 4.99741 17.2438C4.75142 16.65 4.68706 15.9965 4.81247 15.3661C4.93787 14.7356 5.2474 14.1565 5.70192 13.702C6.15644 13.2475 6.73554 12.938 7.36597 12.8126C7.99641 12.6872 8.64988 12.7515 9.24374 12.9975C9.8376 13.2435 10.3452 13.66 10.7023 14.1945C11.0594 14.729 11.25 15.3573 11.25 16.0001C11.25 16.8621 10.9076 17.6887 10.2981 18.2982C9.68862 18.9077 8.86197 19.2501 8.00002 19.2501ZM22 28.2501C21.3572 28.2501 20.7289 28.0595 20.1944 27.7024C19.66 27.3453 19.2434 26.8377 18.9974 26.2438C18.7514 25.65 18.6871 24.9965 18.8125 24.3661C18.9379 23.7356 19.2474 23.1565 19.7019 22.702C20.1564 22.2475 20.7355 21.938 21.366 21.8126C21.9964 21.6872 22.6499 21.7515 23.2437 21.9975C23.8376 22.2435 24.3452 22.66 24.7023 23.1945C25.0594 23.729 25.25 24.3573 25.25 25.0001C25.25 25.4269 25.166 25.8495 25.0026 26.2438C24.8393 26.6381 24.5999 26.9964 24.2981 27.2982C23.9963 27.6 23.638 27.8394 23.2437 28.0027C22.8494 28.166 22.4268 28.2501 22 28.2501Z" fill="white"/>
</svg>
