<svg width="32" height="32" viewBox="0 0 32 32" fill="none" xmlns="http://www.w3.org/2000/svg">
<path d="M26 5.25H6C5.53587 5.25 5.09075 5.43437 4.76256 5.76256C4.43437 6.09075 4.25 6.53587 4.25 7V14C4.25 20.4925 7.39 24.425 10.025 26.58C12.8662 28.905 15.6838 29.6912 15.8025 29.7237C15.9318 29.759 16.0682 29.759 16.1975 29.7237C16.3162 29.6912 19.1338 28.905 21.975 26.58C24.61 24.425 27.75 20.4925 27.75 14V7C27.75 6.53587 27.5656 6.09075 27.2374 5.76256C26.9092 5.43437 26.4641 5.25 26 5.25ZM26.25 7V14C26.25 14.4237 26.235 14.84 26.2075 15.25H16.75V6.75H26C26.0663 6.75 26.1299 6.77634 26.1768 6.82322C26.2237 6.87011 26.25 6.9337 26.25 7ZM5.75 7C5.75 6.9337 5.77634 6.87011 5.82322 6.82322C5.87011 6.77634 5.9337 6.75 6 6.75H15.25V15.25H5.7925C5.765 14.84 5.75 14.4237 5.75 14V7ZM5.96375 16.75H15.25V27.94C13.689 27.3109 12.2324 26.4486 10.93 25.3825C8.1875 23.125 6.525 20.225 5.96375 16.75ZM21.07 25.3825C19.7676 26.4486 18.311 27.3109 16.75 27.94V16.75H26.0362C25.475 20.225 23.8125 23.125 21.07 25.3825Z" fill="white"/>
</svg>
