<svg width="32" height="32" viewBox="0 0 32 32" fill="none" xmlns="http://www.w3.org/2000/svg">
<path d="M20.75 16C20.75 16.1989 20.671 16.3897 20.5303 16.5303C20.3897 16.671 20.1989 16.75 20 16.75H16.75V20C16.75 20.1989 16.671 20.3897 16.5303 20.5303C16.3897 20.671 16.1989 20.75 16 20.75C15.8011 20.75 15.6103 20.671 15.4697 20.5303C15.329 20.3897 15.25 20.1989 15.25 20V16.75H12C11.8011 16.75 11.6103 16.671 11.4697 16.5303C11.329 16.3897 11.25 16.1989 11.25 16C11.25 15.8011 11.329 15.6103 11.4697 15.4697C11.6103 15.329 11.8011 15.25 12 15.25H15.25V12C15.25 11.8011 15.329 11.6103 15.4697 11.4697C15.6103 11.329 15.8011 11.25 16 11.25C16.1989 11.25 16.3897 11.329 16.5303 11.4697C16.671 11.6103 16.75 11.8011 16.75 12V15.25H20C20.1989 15.25 20.3897 15.329 20.5303 15.4697C20.671 15.6103 20.75 15.8011 20.75 16ZM27.75 7V14C27.75 20.4925 24.61 24.425 21.975 26.58C19.1338 28.905 16.3162 29.6912 16.1975 29.7237C16.0682 29.759 15.9318 29.759 15.8025 29.7237C15.6775 29.6912 12.8662 28.905 10.025 26.58C7.39 24.425 4.25 20.4925 4.25 14V7C4.25 6.53587 4.43437 6.09075 4.76256 5.76256C5.09075 5.43437 5.53587 5.25 6 5.25H26C26.4641 5.25 26.9092 5.43437 27.2374 5.76256C27.5656 6.09075 27.75 6.53587 27.75 7ZM26.25 7C26.25 6.9337 26.2237 6.87011 26.1768 6.82322C26.1299 6.77634 26.0663 6.75 26 6.75H6C5.9337 6.75 5.87011 6.77634 5.82322 6.82322C5.77634 6.87011 5.75 6.9337 5.75 7V14C5.75 18.7188 7.4925 22.5487 10.93 25.3825C12.4375 26.6216 14.1545 27.5809 16 28.215C17.8452 27.5803 19.5622 26.6211 21.07 25.3825C24.5075 22.5487 26.25 18.7188 26.25 14V7Z" fill="white"/>
</svg>
