<svg width="32" height="32" viewBox="0 0 32 32" fill="none" xmlns="http://www.w3.org/2000/svg">
<path d="M26 5.25H6C5.53587 5.25 5.09075 5.43437 4.76256 5.76256C4.43437 6.09075 4.25 6.53587 4.25 7V14C4.25 20.4925 7.39 24.425 10.025 26.58C12.8662 28.905 15.6838 29.6912 15.8025 29.7237C15.9318 29.759 16.0682 29.759 16.1975 29.7237C16.3162 29.6912 19.1338 28.905 21.975 26.58C24.61 24.425 27.75 20.4925 27.75 14V7C27.75 6.53587 27.5656 6.09075 27.2374 5.76256C26.9092 5.43437 26.4641 5.25 26 5.25ZM26.25 14C26.25 18.72 24.5075 22.5487 21.07 25.3825C19.562 26.6208 17.8451 27.58 16 28.215C14.1547 27.5806 12.4376 26.6213 10.93 25.3825C7.4925 22.5487 5.75 18.72 5.75 14V7C5.75 6.9337 5.77634 6.87011 5.82322 6.82322C5.87011 6.77634 5.9337 6.75 6 6.75H26C26.0663 6.75 26.1299 6.77634 26.1768 6.82322C26.2237 6.87011 26.25 6.9337 26.25 7V14Z" fill="white"/>
</svg>
