<svg width="32" height="32" viewBox="0 0 32 32" fill="none" xmlns="http://www.w3.org/2000/svg">
<path d="M15.25 17V12C15.25 11.8011 15.329 11.6103 15.4697 11.4697C15.6103 11.329 15.8011 11.25 16 11.25C16.1989 11.25 16.3897 11.329 16.5303 11.4697C16.671 11.6103 16.75 11.8011 16.75 12V17C16.75 17.1989 16.671 17.3897 16.5303 17.5303C16.3897 17.671 16.1989 17.75 16 17.75C15.8011 17.75 15.6103 17.671 15.4697 17.5303C15.329 17.3897 15.25 17.1989 15.25 17ZM16 20.25C15.7528 20.25 15.5111 20.3233 15.3055 20.4607C15.1 20.598 14.9398 20.7932 14.8452 21.0216C14.7505 21.2501 14.7258 21.5014 14.774 21.7439C14.8222 21.9863 14.9413 22.2091 15.1161 22.3839C15.2909 22.5587 15.5137 22.6777 15.7561 22.726C15.9986 22.7742 16.2499 22.7495 16.4784 22.6549C16.7068 22.5602 16.902 22.4 17.0393 22.1945C17.1767 21.9889 17.25 21.7472 17.25 21.5C17.25 21.1685 17.1183 20.8505 16.8839 20.6161C16.6495 20.3817 16.3315 20.25 16 20.25ZM27.75 7V14C27.75 20.4925 24.61 24.425 21.975 26.58C19.1338 28.905 16.3162 29.6912 16.1975 29.7237C16.0682 29.759 15.9318 29.759 15.8025 29.7237C15.6775 29.6912 12.8662 28.905 10.025 26.58C7.39 24.425 4.25 20.4925 4.25 14V7C4.25 6.53587 4.43437 6.09075 4.76256 5.76256C5.09075 5.43437 5.53587 5.25 6 5.25H26C26.4641 5.25 26.9092 5.43437 27.2374 5.76256C27.5656 6.09075 27.75 6.53587 27.75 7ZM26.25 7C26.25 6.9337 26.2237 6.87011 26.1768 6.82322C26.1299 6.77634 26.0663 6.75 26 6.75H6C5.9337 6.75 5.87011 6.77634 5.82322 6.82322C5.77634 6.87011 5.75 6.9337 5.75 7V14C5.75 18.7188 7.4925 22.5487 10.93 25.3825C12.4376 26.6213 14.1547 27.5806 16 28.215C17.8451 27.58 19.562 26.6208 21.07 25.3825C24.5075 22.5487 26.25 18.7188 26.25 14V7Z" fill="white"/>
</svg>
