<svg width="32" height="32" viewBox="0 0 32 32" fill="none" xmlns="http://www.w3.org/2000/svg">
<path d="M29.4813 9.07135L16.2062 5.27885C16.1047 5.24985 15.9983 5.24261 15.8938 5.2576L2.75 7.1351C2.33418 7.19694 1.95427 7.40569 1.6791 7.72351C1.40393 8.04133 1.2517 8.44721 1.25 8.8676V23.1326C1.2517 23.553 1.40393 23.9589 1.6791 24.2767C1.95427 24.5945 2.33418 24.8033 2.75 24.8651L15.8912 26.7401C15.9264 26.7451 15.962 26.7476 15.9975 26.7476C16.0672 26.7474 16.1366 26.7378 16.2038 26.7188L29.4788 22.9263C29.8431 22.8215 30.1638 22.6015 30.3929 22.2994C30.622 21.9973 30.7473 21.6292 30.75 21.2501V10.7501C30.748 10.3708 30.6233 10.0024 30.3946 9.69986C30.166 9.39729 29.8456 9.17681 29.4813 9.07135ZM12 15.2501H9.75V7.6501L15.25 6.8651V25.1351L9.75 24.3501V16.7501H12C12.1989 16.7501 12.3897 16.6711 12.5303 16.5304C12.671 16.3898 12.75 16.199 12.75 16.0001C12.75 15.8012 12.671 15.6104 12.5303 15.4698C12.3897 15.3291 12.1989 15.2501 12 15.2501ZM2.75 23.1326V8.8676C2.7494 8.80694 2.77088 8.74812 2.81044 8.70213C2.85 8.65613 2.90493 8.62609 2.965 8.6176L8.25 7.8676V15.2501H6C5.80109 15.2501 5.61032 15.3291 5.46967 15.4698C5.32902 15.6104 5.25 15.8012 5.25 16.0001C5.25 16.199 5.32902 16.3898 5.46967 16.5304C5.61032 16.6711 5.80109 16.7501 6 16.7501H8.25V24.1351L2.965 23.3851C2.9045 23.3766 2.84922 23.3462 2.80961 23.2996C2.76999 23.2531 2.74879 23.1937 2.75 23.1326ZM29.25 21.2501C29.2499 21.3044 29.2322 21.3571 29.1995 21.4004C29.1668 21.4437 29.1209 21.4752 29.0688 21.4901L16.75 25.0063V7.0001L29.0688 10.5201C29.1193 10.5345 29.164 10.5645 29.1966 10.6058C29.2291 10.6471 29.2478 10.6976 29.25 10.7501V21.2501Z" fill="white"/>
</svg>
