<svg width="32" height="32" viewBox="0 0 32 32" fill="none" xmlns="http://www.w3.org/2000/svg">
<path d="M25 5.25H22.31L20.5312 3.47C20.4615 3.40019 20.3787 3.34482 20.2875 3.30707C20.1964 3.26932 20.0987 3.24992 20 3.25H12C11.9013 3.24992 11.8036 3.26932 11.7125 3.30707C11.6213 3.34482 11.5385 3.40019 11.4688 3.47L9.69 5.25H7C6.53587 5.25 6.09075 5.43437 5.76256 5.76256C5.43437 6.09075 5.25 6.53587 5.25 7V26C5.25 26.4641 5.43437 26.9092 5.76256 27.2374C6.09075 27.5656 6.53587 27.75 7 27.75H25C25.4641 27.75 25.9092 27.5656 26.2374 27.2374C26.5656 26.9092 26.75 26.4641 26.75 26V7C26.75 6.53587 26.5656 6.09075 26.2374 5.76256C25.9092 5.43437 25.4641 5.25 25 5.25ZM16 8.6475L13.4012 4.75H18.5987L16 8.6475ZM20.1162 5.1775L21.25 6.31125V13C21.25 13.0471 21.2366 13.0932 21.2116 13.1331C21.1865 13.1729 21.1506 13.2048 21.1082 13.2252C21.0657 13.2456 21.0184 13.2536 20.9716 13.2482C20.9248 13.2429 20.8805 13.2244 20.8438 13.195L16.9912 9.865L20.1162 5.1775ZM10.75 6.31125L11.8837 5.1775L15.0087 9.865L11.1562 13.1925C11.1197 13.2218 11.0756 13.2402 11.029 13.2457C10.9824 13.2511 10.9353 13.2433 10.8929 13.2233C10.8506 13.2032 10.8147 13.1716 10.7894 13.1321C10.7642 13.0927 10.7505 13.0469 10.75 13V6.31125ZM6.75 26V7C6.75 6.9337 6.77634 6.87011 6.82322 6.82322C6.87011 6.77634 6.9337 6.75 7 6.75H9.25V13C9.24795 13.3331 9.34187 13.6597 9.52054 13.9407C9.69921 14.2218 9.95506 14.4455 10.2575 14.585C10.4901 14.6933 10.7434 14.7497 11 14.75C11.4115 14.752 11.8102 14.6075 12.125 14.3425L12.135 14.3337L15.26 11.6388V26.25H7C6.9337 26.25 6.87011 26.2237 6.82322 26.1768C6.77634 26.1299 6.75 26.0663 6.75 26ZM25.25 26C25.25 26.0663 25.2237 26.1299 25.1768 26.1768C25.1299 26.2237 25.0663 26.25 25 26.25H16.75V11.6388L19.875 14.3337L19.885 14.3425C20.1971 14.6053 20.592 14.7496 21 14.75C21.2594 14.7497 21.5155 14.6921 21.75 14.5813C22.0505 14.4409 22.3044 14.2174 22.4816 13.9371C22.6588 13.6568 22.752 13.3316 22.75 13V6.75H25C25.0663 6.75 25.1299 6.77634 25.1768 6.82322C25.2237 6.87011 25.25 6.9337 25.25 7V26Z" fill="white"/>
</svg>
