<svg width="32" height="32" viewBox="0 0 32 32" fill="none" xmlns="http://www.w3.org/2000/svg">
<path d="M29.6811 8.83636C29.5945 8.56617 29.4293 8.32792 29.2067 8.15203C28.984 7.97615 28.714 7.8706 28.4311 7.84886L23.6611 7.47386L21.8236 3.12511C21.7131 2.86552 21.5286 2.64415 21.2933 2.48856C21.0579 2.33296 20.782 2.25 20.4998 2.25C20.2177 2.25 19.9418 2.33296 19.7064 2.48856C19.4711 2.64415 19.2866 2.86552 19.1761 3.12511L17.3411 7.47261L12.5723 7.84761C12.2901 7.86803 12.0203 7.9721 11.7975 8.14653C11.5746 8.32097 11.4088 8.55785 11.3212 8.82695C11.2336 9.09605 11.2282 9.38514 11.3057 9.65733C11.3831 9.92952 11.5399 10.1725 11.7561 10.3551L15.3811 13.4151L14.2736 17.9889C14.2078 18.2614 14.2242 18.5473 14.3208 18.8104C14.4173 19.0736 14.5897 19.3023 14.8161 19.4676C15.0453 19.6364 15.3195 19.7333 15.6038 19.7463C15.8882 19.7592 16.17 19.6874 16.4136 19.5401L20.4998 17.0826L24.5861 19.5414C24.8295 19.6886 25.1111 19.7602 25.3952 19.7473C25.6794 19.7344 25.9533 19.6375 26.1823 19.4689C26.409 19.3038 26.5816 19.0751 26.6781 18.8119C26.7747 18.5486 26.791 18.2626 26.7248 17.9901L25.6248 13.4164L29.2498 10.3564C29.4647 10.1746 29.6206 9.93292 29.6974 9.66216C29.7742 9.3914 29.7685 9.10388 29.6811 8.83636ZM24.2961 12.5701C24.1887 12.6594 24.1084 12.777 24.0643 12.9095C24.0201 13.042 24.0138 13.1842 24.0461 13.3201L25.2223 18.1776L20.8873 15.5651C20.7706 15.4948 20.6368 15.4576 20.5005 15.4576C20.3641 15.4576 20.2304 15.4948 20.1136 15.5651L15.7736 18.1764L16.9498 13.3189C16.9821 13.183 16.9759 13.0408 16.9317 12.9082C16.8875 12.7757 16.8072 12.6582 16.6998 12.5689L12.8673 9.33136L17.9136 8.93261C18.0507 8.92187 18.1823 8.87363 18.2938 8.79316C18.4054 8.7127 18.4926 8.6031 18.5461 8.47636L20.4998 3.85136L22.4536 8.47636C22.5071 8.6031 22.5943 8.7127 22.7059 8.79316C22.8174 8.87363 22.949 8.92187 23.0861 8.93261L28.1323 9.33136L24.2961 12.5701ZM10.8361 15.2239L3.52985 22.5301C3.38767 22.6626 3.19963 22.7347 3.00532 22.7313C2.81102 22.7279 2.62564 22.6491 2.48822 22.5117C2.35081 22.3743 2.2721 22.1889 2.26867 21.9946C2.26524 21.8003 2.33737 21.6123 2.46985 21.4701L9.7761 14.1639C9.91827 14.0314 10.1063 13.9593 10.3006 13.9627C10.4949 13.9661 10.6803 14.0448 10.8177 14.1822C10.9551 14.3197 11.0338 14.505 11.0373 14.6993C11.0407 14.8936 10.9686 15.0817 10.8361 15.2239ZM12.1886 21.8114C12.2583 21.881 12.3136 21.9637 12.3514 22.0548C12.3891 22.1458 12.4086 22.2434 12.4086 22.342C12.4086 22.4405 12.3891 22.5381 12.3514 22.6292C12.3136 22.7202 12.2583 22.803 12.1886 22.8726L5.52985 29.5301C5.38767 29.6626 5.19963 29.7347 5.00532 29.7313C4.81102 29.7279 4.62564 29.6491 4.48822 29.5117C4.35081 29.3743 4.2721 29.1889 4.26867 28.9946C4.26524 28.8003 4.33737 28.6123 4.46985 28.4701L11.1248 21.8114C11.1945 21.7413 11.2774 21.6856 11.3687 21.6477C11.46 21.6097 11.5579 21.5901 11.6567 21.5901C11.7556 21.5901 11.8535 21.6097 11.9447 21.6477C12.036 21.6856 12.1189 21.7413 12.1886 21.8114ZM21.3136 21.6864C21.454 21.827 21.5329 22.0176 21.5329 22.2164C21.5329 22.4151 21.454 22.6057 21.3136 22.7464L14.5273 29.5314C14.3852 29.6638 14.1971 29.736 14.0028 29.7325C13.8085 29.7291 13.6231 29.6504 13.4857 29.513C13.3483 29.3756 13.2696 29.1902 13.2662 28.9959C13.2627 28.8016 13.3349 28.6135 13.4673 28.4714L20.2498 21.6851C20.3196 21.6146 20.4026 21.5587 20.4941 21.5205C20.5856 21.4823 20.6838 21.4626 20.783 21.4626C20.8821 21.4626 20.9803 21.4823 21.0718 21.5205C21.1633 21.5587 21.2464 21.6146 21.3161 21.6851L21.3136 21.6864Z" fill="white"/>
</svg>
