<svg width="32" height="32" viewBox="0 0 32 32" fill="none" xmlns="http://www.w3.org/2000/svg">
<path d="M28.5763 7.52C28.5059 7.4355 28.4178 7.36751 28.3182 7.32085C28.2186 7.27419 28.11 7.25 28 7.25H7.625L6.82875 2.86625C6.79743 2.69343 6.70645 2.53709 6.57168 2.42447C6.4369 2.31186 6.26688 2.25011 6.09125 2.25H3C2.80109 2.25 2.61032 2.32902 2.46967 2.46967C2.32902 2.61032 2.25 2.80109 2.25 3C2.25 3.19891 2.32902 3.38968 2.46967 3.53033C2.61032 3.67098 2.80109 3.75 3 3.75H5.465L8.69125 21.4925C8.7924 22.0519 9.06498 22.5661 9.47125 22.9638C8.98028 23.3559 8.61353 23.882 8.4154 24.4783C8.21727 25.0746 8.19625 25.7156 8.3549 26.3236C8.51354 26.9316 8.84504 27.4806 9.30926 27.9041C9.77348 28.3276 10.3505 28.6074 10.9705 28.7097C11.5905 28.812 12.2268 28.7324 12.8025 28.4805C13.3782 28.2286 13.8685 27.8152 14.214 27.2904C14.5596 26.7656 14.7456 26.1518 14.7495 25.5235C14.7535 24.8951 14.5752 24.2791 14.2362 23.75H20.7638C20.3751 24.3582 20.2 25.0785 20.266 25.7973C20.332 26.5161 20.6354 27.1924 21.1284 27.7197C21.6214 28.2469 22.2758 28.595 22.9886 28.7091C23.7013 28.8232 24.4317 28.6968 25.0646 28.3499C25.6976 28.0029 26.197 27.4551 26.4841 26.7929C26.7713 26.1306 26.8298 25.3917 26.6504 24.6925C26.4711 23.9933 26.0641 23.3738 25.4937 22.9315C24.9232 22.4892 24.2218 22.2495 23.5 22.25H11.3962C11.1035 22.25 10.82 22.1473 10.5953 21.9598C10.3705 21.7723 10.2187 21.5118 10.1663 21.2237L9.71625 18.75H24.5125C25.1565 18.7502 25.7802 18.5243 26.2748 18.1117C26.7693 17.6992 27.1034 17.1261 27.2188 16.4925L28.7375 8.13375C28.7571 8.02588 28.7528 7.91502 28.725 7.80898C28.6971 7.70294 28.6464 7.6043 28.5763 7.52ZM13.25 25.5C13.25 25.8461 13.1474 26.1845 12.9551 26.4722C12.7628 26.76 12.4895 26.9843 12.1697 27.1168C11.8499 27.2492 11.4981 27.2839 11.1586 27.2164C10.8191 27.1488 10.5073 26.9822 10.2626 26.7374C10.0178 26.4927 9.85115 26.1809 9.78363 25.8414C9.7161 25.5019 9.75076 25.1501 9.88321 24.8303C10.0157 24.5105 10.24 24.2372 10.5278 24.0449C10.8155 23.8526 11.1539 23.75 11.5 23.75C11.9641 23.75 12.4092 23.9344 12.7374 24.2626C13.0656 24.5908 13.25 25.0359 13.25 25.5ZM25.25 25.5C25.25 25.8461 25.1474 26.1845 24.9551 26.4722C24.7628 26.76 24.4895 26.9843 24.1697 27.1168C23.8499 27.2492 23.4981 27.2839 23.1586 27.2164C22.8191 27.1488 22.5073 26.9822 22.2626 26.7374C22.0178 26.4927 21.8512 26.1809 21.7836 25.8414C21.7161 25.5019 21.7508 25.1501 21.8832 24.8303C22.0157 24.5105 22.24 24.2372 22.5278 24.0449C22.8155 23.8526 23.1539 23.75 23.5 23.75C23.9641 23.75 24.4092 23.9344 24.7374 24.2626C25.0656 24.5908 25.25 25.0359 25.25 25.5ZM25.7425 16.2237C25.6901 16.5118 25.5383 16.7723 25.3135 16.9598C25.0887 17.1473 24.8052 17.25 24.5125 17.25H9.44375L7.89875 8.75H27.1012L25.7425 16.2237Z" fill="white"/>
</svg>
