<svg width="32" height="32" viewBox="0 0 32 32" fill="none" xmlns="http://www.w3.org/2000/svg">
<path d="M30.53 7.46997L24.53 1.46997C24.3878 1.33749 24.1998 1.26537 24.0055 1.26879C23.8112 1.27222 23.6258 1.35093 23.4884 1.48835C23.351 1.62576 23.2723 1.81114 23.2688 2.00545C23.2654 2.19975 23.3375 2.38779 23.47 2.52997L25.94 4.99997L16.7075 14.2325L12.2375 9.76247C12.075 9.59995 11.8821 9.47103 11.6697 9.38307C11.4574 9.29511 11.2298 9.24984 11 9.24984C10.7702 9.24984 10.5426 9.29511 10.3303 9.38307C10.1179 9.47103 9.92501 9.59995 9.7625 9.76247L2.7625 16.7625C2.59967 16.9247 2.47056 17.1176 2.3826 17.33C2.29464 17.5424 2.24958 17.7701 2.25 18V28C2.25 28.4641 2.43438 28.9092 2.76257 29.2374C3.09075 29.5656 3.53587 29.75 4 29.75H14C14.2299 29.7504 14.4576 29.7053 14.67 29.6174C14.8823 29.5294 15.0752 29.4003 15.2375 29.2375L22.2375 22.2375C22.4 22.075 22.5289 21.882 22.6169 21.6697C22.7049 21.4574 22.7501 21.2298 22.7501 21C22.7501 20.7701 22.7049 20.5426 22.6169 20.3302C22.5289 20.1179 22.4 19.925 22.2375 19.7625L17.7675 15.2925L27 6.05997L29.47 8.52997C29.5387 8.60365 29.6215 8.66276 29.7135 8.70375C29.8055 8.74474 29.9048 8.76678 30.0055 8.76856C30.1062 8.77034 30.2062 8.75181 30.2996 8.71409C30.393 8.67637 30.4778 8.62023 30.549 8.54901C30.6203 8.47779 30.6764 8.39295 30.7141 8.29957C30.7518 8.20618 30.7704 8.10615 30.7686 8.00545C30.7668 7.90474 30.7448 7.80543 30.7038 7.71343C30.6628 7.62143 30.6037 7.53863 30.53 7.46997ZM21.1763 20.8225C21.1997 20.8457 21.2183 20.8734 21.231 20.9038C21.2437 20.9343 21.2502 20.967 21.2502 21C21.2502 21.033 21.2437 21.0656 21.231 21.0961C21.2183 21.1266 21.1997 21.1542 21.1763 21.1775L14.1763 28.1775C14.1294 28.224 14.066 28.25 14 28.25H4C3.9337 28.25 3.87011 28.2236 3.82323 28.1767C3.77634 28.1299 3.75 28.0663 3.75 28V18C3.74981 17.9671 3.75612 17.9345 3.76856 17.904C3.781 17.8735 3.79933 17.8458 3.8225 17.8225L10.8225 10.8225C10.8459 10.7993 10.8736 10.781 10.904 10.7685C10.9345 10.7561 10.9671 10.7498 11 10.75C11.0663 10.7505 11.1298 10.7765 11.1775 10.8225L15.6463 15.2925L10.47 20.47C10.3963 20.5386 10.3372 20.6214 10.2962 20.7134C10.2552 20.8054 10.2332 20.9047 10.2314 21.0054C10.2296 21.1061 10.2482 21.2062 10.2859 21.2996C10.3236 21.393 10.3797 21.4778 10.451 21.549C10.5222 21.6202 10.607 21.6764 10.7004 21.7141C10.7938 21.7518 10.8938 21.7703 10.9945 21.7686C11.0952 21.7668 11.1945 21.7447 11.2865 21.7038C11.3785 21.6628 11.4613 21.6037 11.53 21.53L16.7075 16.3537L21.1763 20.8225Z" fill="white"/>
</svg>
