<svg width="32" height="32" viewBox="0 0 32 32" fill="none" xmlns="http://www.w3.org/2000/svg">
<path d="M7.75 29.5C7.75 29.7472 7.67669 29.9889 7.53934 30.1945C7.40199 30.4 7.20676 30.5602 6.97835 30.6549C6.74995 30.7495 6.49861 30.7742 6.25614 30.726C6.01366 30.6777 5.79093 30.5587 5.61612 30.3839C5.4413 30.2091 5.32225 29.9863 5.27402 29.7439C5.22579 29.5014 5.25054 29.2501 5.34515 29.0216C5.43976 28.7932 5.59998 28.598 5.80554 28.4607C6.0111 28.3233 6.25277 28.25 6.5 28.25C6.83152 28.25 7.14946 28.3817 7.38388 28.6161C7.6183 28.8505 7.75 29.1685 7.75 29.5ZM10.5 24.25C10.2528 24.25 10.0111 24.3233 9.80554 24.4607C9.59998 24.598 9.43976 24.7932 9.34515 25.0216C9.25054 25.2501 9.22579 25.5014 9.27402 25.7439C9.32225 25.9863 9.4413 26.2091 9.61612 26.3839C9.79093 26.5587 10.0137 26.6777 10.2561 26.726C10.4986 26.7742 10.7499 26.7495 10.9784 26.6549C11.2068 26.5602 11.402 26.4 11.5393 26.1945C11.6767 25.9889 11.75 25.7472 11.75 25.5C11.75 25.1685 11.6183 24.8505 11.3839 24.6161C11.1495 24.3817 10.8315 24.25 10.5 24.25ZM2.5 24.25C2.25277 24.25 2.0111 24.3233 1.80554 24.4607C1.59998 24.598 1.43976 24.7932 1.34515 25.0216C1.25054 25.2501 1.22579 25.5014 1.27402 25.7439C1.32225 25.9863 1.4413 26.2091 1.61612 26.3839C1.79093 26.5587 2.01366 26.6777 2.25614 26.726C2.49861 26.7742 2.74995 26.7495 2.97835 26.6549C3.20676 26.5602 3.40199 26.4 3.53934 26.1945C3.67669 25.9889 3.75 25.7472 3.75 25.5C3.75 25.1685 3.6183 24.8505 3.38388 24.6161C3.14946 24.3817 2.83152 24.25 2.5 24.25ZM6.5 20.25C6.25277 20.25 6.0111 20.3233 5.80554 20.4607C5.59998 20.598 5.43976 20.7932 5.34515 21.0216C5.25054 21.2501 5.22579 21.5014 5.27402 21.7439C5.32225 21.9863 5.4413 22.2091 5.61612 22.3839C5.79093 22.5587 6.01366 22.6777 6.25614 22.726C6.49861 22.7742 6.74995 22.7495 6.97835 22.6549C7.20676 22.5602 7.40199 22.4 7.53934 22.1945C7.67669 21.9889 7.75 21.7472 7.75 21.5C7.75 21.1685 7.6183 20.8505 7.38388 20.6161C7.14946 20.3817 6.83152 20.25 6.5 20.25ZM31.75 5C31.75 5.19891 31.671 5.38968 31.5303 5.53033C31.3897 5.67098 31.1989 5.75 31 5.75H27.3113L23.6987 9.36125L20.9788 25.29C20.9254 25.6069 20.7858 25.903 20.5753 26.1458C20.3648 26.3886 20.0914 26.5688 19.7853 26.6665C19.4792 26.7643 19.152 26.7758 18.8397 26.6999C18.5275 26.624 18.2421 26.4636 18.015 26.2362L5.765 13.9862C5.5376 13.7589 5.37725 13.4732 5.30155 13.1607C5.22585 12.8482 5.23773 12.5208 5.33589 12.2146C5.43405 11.9083 5.61469 11.6351 5.85797 11.4248C6.10126 11.2145 6.39779 11.0753 6.715 11.0225L22.64 8.3025L26.4713 4.47125C26.6113 4.3304 26.8014 4.25084 27 4.25H31C31.1989 4.25 31.3897 4.32902 31.5303 4.46967C31.671 4.61032 31.75 4.80109 31.75 5ZM22.0825 9.9175L6.9625 12.5C6.91686 12.507 6.87407 12.5266 6.83886 12.5565C6.80365 12.5863 6.77741 12.6254 6.76304 12.6693C6.74867 12.7132 6.74674 12.7602 6.75745 12.8051C6.76817 12.85 6.79112 12.8911 6.82375 12.9237L19.0737 25.1737C19.1063 25.2063 19.1471 25.2293 19.1919 25.2402C19.2366 25.251 19.2835 25.2493 19.3273 25.2352C19.3711 25.2211 19.4102 25.1952 19.4402 25.1603C19.4703 25.1254 19.4901 25.0829 19.4975 25.0375L22.0825 9.9175Z" fill="white"/>
</svg>
