<svg width="32" height="32" viewBox="0 0 32 32" fill="none" xmlns="http://www.w3.org/2000/svg">
<path d="M29.53 22.47C29.6705 22.6106 29.7493 22.8012 29.7493 23C29.7493 23.1987 29.6705 23.3893 29.53 23.53L26.53 26.53C26.3878 26.6625 26.1998 26.7346 26.0055 26.7311C25.8112 26.7277 25.6258 26.649 25.4884 26.5116C25.351 26.3742 25.2723 26.1888 25.2688 25.9945C25.2654 25.8002 25.3375 25.6121 25.47 25.47L27.19 23.75H21C20.8807 23.75 20.7631 23.7215 20.657 23.6669C20.5509 23.6124 20.4594 23.5333 20.39 23.4362L10.6138 9.74997H4C3.80109 9.74997 3.61032 9.67095 3.46967 9.5303C3.32902 9.38965 3.25 9.19888 3.25 8.99997C3.25 8.80106 3.32902 8.61029 3.46967 8.46964C3.61032 8.32899 3.80109 8.24997 4 8.24997H11C11.1193 8.24998 11.2369 8.27845 11.343 8.33302C11.4491 8.38759 11.5406 8.46668 11.61 8.56372L21.3862 22.25H27.19L25.47 20.53C25.3375 20.3878 25.2654 20.1997 25.2688 20.0054C25.2723 19.8111 25.351 19.6258 25.4884 19.4883C25.6258 19.3509 25.8112 19.2722 26.0055 19.2688C26.1998 19.2654 26.3878 19.3375 26.53 19.47L29.53 22.47ZM18.0212 13.17C18.1014 13.2272 18.1921 13.268 18.2881 13.2902C18.3841 13.3124 18.4835 13.3154 18.5806 13.2992C18.6778 13.2829 18.7708 13.2477 18.8543 13.1955C18.9379 13.1433 19.0103 13.0752 19.0675 12.995L21.3862 9.74497H27.19L25.47 11.47C25.3963 11.5386 25.3372 11.6214 25.2962 11.7134C25.2552 11.8054 25.2332 11.9047 25.2314 12.0054C25.2296 12.1061 25.2482 12.2062 25.2859 12.2996C25.3236 12.393 25.3797 12.4778 25.451 12.549C25.5222 12.6202 25.607 12.6764 25.7004 12.7141C25.7938 12.7518 25.8938 12.7703 25.9945 12.7686C26.0952 12.7668 26.1945 12.7447 26.2865 12.7037C26.3785 12.6628 26.4613 12.6037 26.53 12.53L29.53 9.52997C29.6705 9.38934 29.7493 9.19872 29.7493 8.99997C29.7493 8.80122 29.6705 8.61059 29.53 8.46997L26.53 5.46997C26.3878 5.33749 26.1998 5.26537 26.0055 5.26879C25.8112 5.27222 25.6258 5.35093 25.4884 5.48835C25.351 5.62576 25.2723 5.81114 25.2688 6.00545C25.2654 6.19975 25.3375 6.38779 25.47 6.52997L27.19 8.24997H21C20.8807 8.24998 20.7631 8.27845 20.657 8.33302C20.5509 8.38759 20.4594 8.46668 20.39 8.56372L17.8475 12.125C17.7322 12.2867 17.6858 12.4875 17.7183 12.6834C17.7509 12.8793 17.8598 13.0543 18.0212 13.17ZM13.9788 18.83C13.8986 18.7727 13.8079 18.7319 13.7119 18.7097C13.6159 18.6875 13.5165 18.6845 13.4194 18.7007C13.3222 18.717 13.2292 18.7522 13.1457 18.8044C13.0621 18.8566 12.9897 18.9248 12.9325 19.005L10.6138 22.25H4C3.80109 22.25 3.61032 22.329 3.46967 22.4696C3.32902 22.6103 3.25 22.8011 3.25 23C3.25 23.1989 3.32902 23.3896 3.46967 23.5303C3.61032 23.671 3.80109 23.75 4 23.75H11C11.1193 23.75 11.2369 23.7215 11.343 23.6669C11.4491 23.6124 11.5406 23.5333 11.61 23.4362L14.1525 19.875C14.2678 19.7133 14.3142 19.5124 14.2817 19.3165C14.2491 19.1206 14.1402 18.9457 13.9788 18.83Z" fill="white"/>
</svg>
