<svg width="32" height="32" viewBox="0 0 32 32" fill="none" xmlns="http://www.w3.org/2000/svg">
<path d="M29.53 22.47C29.6705 22.6106 29.7493 22.8012 29.7493 23C29.7493 23.1987 29.6705 23.3893 29.53 23.53L26.53 26.53C26.3878 26.6625 26.1998 26.7346 26.0055 26.7311C25.8112 26.7277 25.6258 26.649 25.4884 26.5116C25.351 26.3742 25.2723 26.1888 25.2688 25.9945C25.2654 25.8002 25.3375 25.6121 25.47 25.47L27.19 23.75H25.1175C23.7242 23.7492 22.3512 23.4164 21.1122 22.7793C19.8731 22.1421 18.8037 21.219 17.9925 20.0862L12.7788 12.7862C12.1075 11.8484 11.2227 11.0839 10.1974 10.5559C9.17206 10.0279 8.03577 9.75164 6.8825 9.74997H4C3.80109 9.74997 3.61032 9.67095 3.46967 9.5303C3.32902 9.38965 3.25 9.19888 3.25 8.99997C3.25 8.80106 3.32902 8.61029 3.46967 8.46964C3.61032 8.32899 3.80109 8.24997 4 8.24997H6.8825C8.27576 8.25079 9.64878 8.58354 10.8878 9.22067C12.1269 9.85781 13.1963 10.781 14.0075 11.9137L19.2213 19.2137C19.8925 20.1515 20.7773 20.9161 21.8026 21.4441C22.8279 21.972 23.9642 22.2483 25.1175 22.25H27.19L25.47 20.53C25.3375 20.3878 25.2654 20.1997 25.2688 20.0054C25.2723 19.8111 25.351 19.6258 25.4884 19.4883C25.6258 19.3509 25.8112 19.2722 26.0055 19.2688C26.1998 19.2654 26.3878 19.3375 26.53 19.47L29.53 22.47ZM18.0225 13.1687C18.1491 13.2602 18.3013 13.3092 18.4575 13.3087C18.577 13.3089 18.6948 13.2805 18.8012 13.226C18.9075 13.1714 18.9992 13.0922 19.0688 12.995L19.2175 12.7862C19.8891 11.8479 20.7745 11.083 21.8005 10.555C22.8266 10.027 23.9636 9.75105 25.1175 9.74997H27.19L25.47 11.47C25.3963 11.5386 25.3372 11.6214 25.2962 11.7134C25.2552 11.8054 25.2332 11.9047 25.2314 12.0054C25.2296 12.1061 25.2482 12.2062 25.2859 12.2996C25.3236 12.393 25.3797 12.4778 25.451 12.549C25.5222 12.6202 25.607 12.6764 25.7004 12.7141C25.7938 12.7518 25.8938 12.7703 25.9945 12.7686C26.0952 12.7668 26.1945 12.7447 26.2865 12.7037C26.3785 12.6628 26.4613 12.6037 26.53 12.53L29.53 9.52997C29.6705 9.38934 29.7493 9.19872 29.7493 8.99997C29.7493 8.80122 29.6705 8.61059 29.53 8.46997L26.53 5.46997C26.3878 5.33749 26.1998 5.26537 26.0055 5.26879C25.8112 5.27222 25.6258 5.35093 25.4884 5.48835C25.351 5.62576 25.2723 5.81114 25.2688 6.00545C25.2654 6.19975 25.3375 6.38779 25.47 6.52997L27.19 8.24997H25.1175C23.7242 8.25079 22.3512 8.58354 21.1122 9.22067C19.8731 9.85781 18.8037 10.781 17.9925 11.9137L17.8475 12.125C17.7327 12.2867 17.6867 12.4874 17.7195 12.683C17.7523 12.8786 17.8612 13.0532 18.0225 13.1687ZM13.9775 18.8312C13.8157 18.7155 13.6146 18.6688 13.4184 18.7014C13.2222 18.734 13.047 18.8432 12.9312 19.005L12.7825 19.2137C12.1109 20.1521 11.2255 20.9169 10.1995 21.4449C9.17345 21.9729 8.0364 22.2489 6.8825 22.25H4C3.80109 22.25 3.61032 22.329 3.46967 22.4696C3.32902 22.6103 3.25 22.8011 3.25 23C3.25 23.1989 3.32902 23.3896 3.46967 23.5303C3.61032 23.671 3.80109 23.75 4 23.75H6.8825C8.27576 23.7492 9.64878 23.4164 10.8878 22.7793C12.1269 22.1421 13.1963 21.219 14.0075 20.0862L14.1562 19.8775C14.2133 19.7971 14.2539 19.7062 14.2758 19.6101C14.2977 19.514 14.3004 19.4145 14.2838 19.3173C14.2672 19.2201 14.2316 19.1272 14.179 19.0438C14.1265 18.9604 14.058 18.8881 13.9775 18.8312Z" fill="white"/>
</svg>
