<svg width="32" height="32" viewBox="0 0 32 32" fill="none" xmlns="http://www.w3.org/2000/svg">
<path d="M26.7499 6V11C26.7499 11.1989 26.6709 11.3897 26.5302 11.5303C26.3896 11.671 26.1988 11.75 25.9999 11.75C25.801 11.75 25.6102 11.671 25.4696 11.5303C25.3289 11.3897 25.2499 11.1989 25.2499 11V7.81L19.3587 13.7025C19.2179 13.8432 19.0271 13.9223 18.828 13.9223C18.629 13.9223 18.4381 13.8432 18.2974 13.7025C18.1567 13.5618 18.0776 13.3709 18.0776 13.1719C18.0776 12.9729 18.1567 12.782 18.2974 12.6412L24.1899 6.75H20.9999C20.801 6.75 20.6102 6.67098 20.4696 6.53033C20.3289 6.38968 20.2499 6.19891 20.2499 6C20.2499 5.80109 20.3289 5.61032 20.4696 5.46967C20.6102 5.32902 20.801 5.25 20.9999 5.25H25.9999C26.1988 5.25 26.3896 5.32902 26.5302 5.46967C26.6709 5.61032 26.7499 5.80109 26.7499 6ZM25.9999 20.25C25.801 20.25 25.6102 20.329 25.4696 20.4697C25.3289 20.6103 25.2499 20.8011 25.2499 21V24.19L6.52991 5.47C6.38773 5.33752 6.19969 5.2654 6.00539 5.26883C5.81109 5.27225 5.6257 5.35097 5.48829 5.48838C5.35087 5.62579 5.27216 5.81118 5.26873 6.00548C5.26531 6.19978 5.33743 6.38783 5.46991 6.53L24.1899 25.25H20.9999C20.801 25.25 20.6102 25.329 20.4696 25.4697C20.3289 25.6103 20.2499 25.8011 20.2499 26C20.2499 26.1989 20.3289 26.3897 20.4696 26.5303C20.6102 26.671 20.801 26.75 20.9999 26.75H25.9999C26.1988 26.75 26.3896 26.671 26.5302 26.5303C26.6709 26.3897 26.7499 26.1989 26.7499 26V21C26.7499 20.8011 26.6709 20.6103 26.5302 20.4697C26.3896 20.329 26.1988 20.25 25.9999 20.25ZM12.6412 18.2975L5.46991 25.47C5.39622 25.5387 5.33712 25.6215 5.29613 25.7135C5.25514 25.8055 5.23309 25.9048 5.23132 26.0055C5.22954 26.1062 5.24807 26.2062 5.28579 26.2996C5.32351 26.393 5.37965 26.4778 5.45087 26.549C5.52209 26.6203 5.60692 26.6764 5.70031 26.7141C5.7937 26.7518 5.89373 26.7704 5.99443 26.7686C6.09513 26.7668 6.19445 26.7448 6.28645 26.7038C6.37845 26.6628 6.46125 26.6037 6.52991 26.53L13.7024 19.3587C13.8431 19.218 13.9222 19.0271 13.9222 18.8281C13.9222 18.6291 13.8431 18.4382 13.7024 18.2975C13.5617 18.1568 13.3708 18.0777 13.1718 18.0777C12.9728 18.0777 12.7819 18.1568 12.6412 18.2975Z" fill="white"/>
</svg>
