<svg width="32" height="32" viewBox="0 0 32 32" fill="none" xmlns="http://www.w3.org/2000/svg">
<path d="M23.25 9V6.75H9.56005L16.5863 15.5312C16.6928 15.6643 16.7508 15.8296 16.7508 16C16.7508 16.1704 16.6928 16.3357 16.5863 16.4688L9.56005 25.25H23.25V23C23.25 22.8011 23.3291 22.6103 23.4697 22.4697C23.6104 22.329 23.8011 22.25 24 22.25C24.199 22.25 24.3897 22.329 24.5304 22.4697C24.671 22.6103 24.75 22.8011 24.75 23V26C24.75 26.1989 24.671 26.3897 24.5304 26.5303C24.3897 26.671 24.199 26.75 24 26.75H8.00005C7.85868 26.7501 7.72015 26.7103 7.60043 26.6352C7.48071 26.56 7.38468 26.4525 7.3234 26.3251C7.26212 26.1977 7.23809 26.0556 7.25408 25.9151C7.27008 25.7747 7.32545 25.6416 7.4138 25.5312L15.0388 16L7.4138 6.46875C7.32545 6.3584 7.27008 6.22532 7.25408 6.08486C7.23809 5.9444 7.26212 5.80228 7.3234 5.67489C7.38468 5.54749 7.48071 5.44001 7.60043 5.36484C7.72015 5.28966 7.85868 5.24985 8.00005 5.25H24C24.199 5.25 24.3897 5.32902 24.5304 5.46967C24.671 5.61032 24.75 5.80109 24.75 6V9C24.75 9.19891 24.671 9.38968 24.5304 9.53033C24.3897 9.67098 24.199 9.75 24 9.75C23.8011 9.75 23.6104 9.67098 23.4697 9.53033C23.3291 9.38968 23.25 9.19891 23.25 9Z" fill="white"/>
</svg>
