<svg width="32" height="32" viewBox="0 0 32 32" fill="none" xmlns="http://www.w3.org/2000/svg">
<path d="M17.53 16.53L12.53 21.53C12.3878 21.6625 12.1998 21.7346 12.0055 21.7312C11.8112 21.7277 11.6258 21.649 11.4884 21.5116C11.351 21.3742 11.2723 21.1888 11.2688 20.9945C11.2654 20.8002 11.3375 20.6122 11.47 20.47L15.1888 16.75H3C2.80109 16.75 2.61032 16.671 2.46967 16.5303C2.32902 16.3897 2.25 16.1989 2.25 16C2.25 15.8011 2.32902 15.6103 2.46967 15.4697C2.61032 15.329 2.80109 15.25 3 15.25H15.1888L11.47 11.53C11.3375 11.3878 11.2654 11.1998 11.2688 11.0055C11.2723 10.8112 11.351 10.6258 11.4884 10.4884C11.6258 10.351 11.8112 10.2723 12.0055 10.2688C12.1998 10.2654 12.3878 10.3375 12.53 10.47L17.53 15.47C17.6705 15.6106 17.7493 15.8012 17.7493 16C17.7493 16.1988 17.6705 16.3894 17.53 16.53ZM25 4.25H17C16.8011 4.25 16.6103 4.32902 16.4697 4.46967C16.329 4.61032 16.25 4.80109 16.25 5C16.25 5.19891 16.329 5.38968 16.4697 5.53033C16.6103 5.67098 16.8011 5.75 17 5.75H24.25V26.25H17C16.8011 26.25 16.6103 26.329 16.4697 26.4697C16.329 26.6103 16.25 26.8011 16.25 27C16.25 27.1989 16.329 27.3897 16.4697 27.5303C16.6103 27.671 16.8011 27.75 17 27.75H25C25.1989 27.75 25.3897 27.671 25.5303 27.5303C25.671 27.3897 25.75 27.1989 25.75 27V5C25.75 4.80109 25.671 4.61032 25.5303 4.46967C25.3897 4.32902 25.1989 4.25 25 4.25Z" fill="white"/>
</svg>
