<svg width="32" height="32" viewBox="0 0 32 32" fill="none" xmlns="http://www.w3.org/2000/svg">
<path d="M14.75 27C14.75 27.1989 14.671 27.3897 14.5303 27.5303C14.3897 27.671 14.1989 27.75 14 27.75H6C5.80109 27.75 5.61032 27.671 5.46967 27.5303C5.32902 27.3897 5.25 27.1989 5.25 27V5C5.25 4.80109 5.32902 4.61032 5.46967 4.46967C5.61032 4.32902 5.80109 4.25 6 4.25H14C14.1989 4.25 14.3897 4.32902 14.5303 4.46967C14.671 4.61032 14.75 4.80109 14.75 5C14.75 5.19891 14.671 5.38968 14.5303 5.53033C14.3897 5.67098 14.1989 5.75 14 5.75H6.75V26.25H14C14.1989 26.25 14.3897 26.329 14.5303 26.4697C14.671 26.6103 14.75 26.8011 14.75 27ZM28.53 15.47L23.53 10.47C23.3878 10.3375 23.1998 10.2654 23.0055 10.2688C22.8112 10.2723 22.6258 10.351 22.4884 10.4884C22.351 10.6258 22.2723 10.8112 22.2688 11.0055C22.2654 11.1998 22.3375 11.3878 22.47 11.53L26.1887 15.25H14C13.8011 15.25 13.6103 15.329 13.4697 15.4697C13.329 15.6103 13.25 15.8011 13.25 16C13.25 16.1989 13.329 16.3897 13.4697 16.5303C13.6103 16.671 13.8011 16.75 14 16.75H26.1887L22.47 20.47C22.3963 20.5387 22.3372 20.6215 22.2962 20.7135C22.2552 20.8055 22.2332 20.9048 22.2314 21.0055C22.2296 21.1062 22.2482 21.2062 22.2859 21.2996C22.3236 21.393 22.3797 21.4778 22.451 21.549C22.5222 21.6203 22.607 21.6764 22.7004 21.7141C22.7938 21.7518 22.8938 21.7704 22.9945 21.7686C23.0952 21.7668 23.1945 21.7448 23.2865 21.7038C23.3785 21.6628 23.4613 21.6037 23.53 21.53L28.53 16.53C28.6705 16.3894 28.7493 16.1988 28.7493 16C28.7493 15.8012 28.6705 15.6106 28.53 15.47Z" fill="white"/>
</svg>
