<svg width="32" height="32" viewBox="0 0 32 32" fill="none" xmlns="http://www.w3.org/2000/svg">
<path d="M30.5575 13.5L26.355 8.82875C26.1909 8.64661 25.9904 8.50097 25.7665 8.40127C25.5425 8.30157 25.3001 8.25004 25.055 8.25H16.75V4C16.75 3.80109 16.671 3.61032 16.5303 3.46967C16.3897 3.32902 16.1989 3.25 16 3.25C15.8011 3.25 15.6103 3.32902 15.4697 3.46967C15.329 3.61032 15.25 3.80109 15.25 4V8.25H5C4.53587 8.25 4.09075 8.43437 3.76256 8.76256C3.43437 9.09075 3.25 9.53587 3.25 10V18C3.25 18.4641 3.43437 18.9092 3.76256 19.2374C4.09075 19.5656 4.53587 19.75 5 19.75H15.25V28C15.25 28.1989 15.329 28.3897 15.4697 28.5303C15.6103 28.671 15.8011 28.75 16 28.75C16.1989 28.75 16.3897 28.671 16.5303 28.5303C16.671 28.3897 16.75 28.1989 16.75 28V19.75H25.055C25.3001 19.75 25.5425 19.6984 25.7665 19.5987C25.9904 19.499 26.1909 19.3534 26.355 19.1712L30.5575 14.5C30.6805 14.3625 30.7485 14.1845 30.7485 14C30.7485 13.8155 30.6805 13.6375 30.5575 13.5ZM25.24 18.1688C25.2166 18.1946 25.1881 18.2154 25.1562 18.2296C25.1244 18.2438 25.0899 18.2512 25.055 18.2512H5C4.9337 18.2512 4.87011 18.2249 4.82322 18.178C4.77634 18.1311 4.75 18.0676 4.75 18.0012V10C4.75 9.9337 4.77634 9.87011 4.82322 9.82322C4.87011 9.77634 4.9337 9.75 5 9.75H25.055C25.0899 9.75008 25.1244 9.75747 25.1562 9.77167C25.1881 9.78588 25.2166 9.8066 25.24 9.8325L28.99 14L25.24 18.1688Z" fill="white"/>
</svg>
