<svg width="32" height="32" viewBox="0 0 32 32" fill="none" xmlns="http://www.w3.org/2000/svg">
<path d="M29 21.25H7.57498C7.99248 20.4325 8.41623 19.5813 8.83248 18.7138C9.01017 18.7428 9.18992 18.7575 9.36998 18.7575C11.1487 18.7575 13.2562 17.3675 15.6612 14.605C15.7862 14.98 15.9362 15.3863 16.1212 15.8C16.9825 17.7312 18.0812 18.7238 19.3887 18.75H19.4375C20.5387 18.75 21.6512 18.0287 22.8125 16.5525C23.5412 17.585 25.2025 18.75 29 18.75C29.1989 18.75 29.3897 18.671 29.5303 18.5303C29.671 18.3897 29.75 18.1989 29.75 18C29.75 17.8011 29.671 17.6103 29.5303 17.4697C29.3897 17.329 29.1989 17.25 29 17.25C24.0387 17.25 23.765 15.1737 23.75 14.9925C23.756 14.8313 23.7083 14.6726 23.6144 14.5414C23.5205 14.4102 23.3858 14.3139 23.2312 14.2675C23.0722 14.2204 22.9021 14.2265 22.7469 14.285C22.5916 14.3434 22.4597 14.451 22.3712 14.5913C20.8512 16.925 19.8625 17.2575 19.4175 17.25C18.07 17.2238 17.0287 14.29 16.735 12.875C16.7063 12.7353 16.6383 12.6067 16.5391 12.5043C16.4399 12.4019 16.3136 12.3299 16.1749 12.2967C16.0363 12.2635 15.891 12.2705 15.7562 12.3169C15.6214 12.3633 15.5026 12.4472 15.4137 12.5588C13.08 15.4825 11 17.125 9.52248 17.24C12.5 10.73 13.4037 6.5875 12.2787 4.5975C11.93 3.9825 11.2075 3.25 9.73873 3.25C7.86373 3.25 6.36373 5.0775 5.63623 8.2625C4.78498 11.9925 5.26498 16.5 7.45248 18.125C6.93373 19.205 6.40248 20.26 5.88748 21.25H2.99998C2.80107 21.25 2.6103 21.329 2.46965 21.4697C2.329 21.6103 2.24998 21.8011 2.24998 22C2.24998 22.1989 2.329 22.3897 2.46965 22.5303C2.6103 22.671 2.80107 22.75 2.99998 22.75H5.09498C3.58123 25.5725 2.37498 27.5825 2.35748 27.6138C2.3032 27.6982 2.26643 27.7927 2.24935 27.8916C2.23226 27.9905 2.23521 28.0919 2.25801 28.1896C2.28081 28.2874 2.323 28.3796 2.38209 28.4607C2.44117 28.5419 2.51595 28.6103 2.60198 28.662C2.68801 28.7138 2.78355 28.7477 2.88294 28.7618C2.98232 28.7759 3.08353 28.7699 3.18056 28.7442C3.27759 28.7185 3.36847 28.6736 3.44782 28.6121C3.52716 28.5506 3.59336 28.4738 3.64248 28.3862C3.66248 28.3538 5.08748 25.9775 6.79373 22.75H29C29.1989 22.75 29.3897 22.671 29.5303 22.5303C29.671 22.3897 29.75 22.1989 29.75 22C29.75 21.8011 29.671 21.6103 29.5303 21.4697C29.3897 21.329 29.1989 21.25 29 21.25ZM7.09873 8.59625C7.63123 6.26 8.66748 4.75 9.73873 4.75C10.5387 4.75 10.8187 5.06375 10.9725 5.33625C11.4725 6.21125 11.7225 8.855 8.11248 16.7113C6.82373 15.4237 6.34123 11.9125 7.09873 8.59625Z" fill="white"/>
</svg>
