<svg width="32" height="32" viewBox="0 0 32 32" fill="none" xmlns="http://www.w3.org/2000/svg">
<path d="M30.565 12.5063L23.565 4.50627C23.4946 4.42573 23.4077 4.36119 23.3102 4.31699C23.2128 4.27279 23.107 4.24996 23 4.25002H9.00001C8.89348 4.24918 8.78799 4.27103 8.69057 4.31414C8.59314 4.35725 8.50602 4.42062 8.43501 4.50002L1.435 12.5C1.31423 12.6395 1.24912 12.8186 1.25211 13.0031C1.25511 13.1876 1.32601 13.3645 1.45125 13.5L15.4513 28.5C15.5214 28.5754 15.6064 28.6354 15.7008 28.6765C15.7952 28.7176 15.897 28.7388 16 28.7388C16.103 28.7388 16.2048 28.7176 16.2992 28.6765C16.3936 28.6354 16.4786 28.5754 16.5488 28.5L30.5488 13.5C30.6723 13.3649 30.7421 13.1893 30.7451 13.0062C30.7481 12.8232 30.684 12.6454 30.565 12.5063ZM9.49251 13.75L13.8175 24.5613L3.72625 13.75H9.49251ZM20.8925 13.75L16 25.98L11.1075 13.75H20.8925ZM11.5 12.25L16 6.25002L20.5 12.25H11.5ZM22.5075 13.75H28.2738L18.1825 24.5613L22.5075 13.75ZM28.3475 12.25H22.375L17.5 5.75002H22.66L28.3475 12.25ZM9.34 5.75002H14.5L9.625 12.25H3.6525L9.34 5.75002Z" fill="white"/>
</svg>
