<svg width="32" height="32" viewBox="0 0 32 32" fill="none" xmlns="http://www.w3.org/2000/svg">
<path d="M20.75 19C20.75 21.0675 18.6188 22.75 16 22.75C13.3813 22.75 11.25 21.0675 11.25 19C11.25 18.8011 11.329 18.6104 11.4697 18.4697C11.6103 18.3291 11.8011 18.25 12 18.25C12.1989 18.25 12.3897 18.3291 12.5303 18.4697C12.671 18.6104 12.75 18.8011 12.75 19C12.75 20.22 14.2388 21.25 16 21.25C17.7613 21.25 19.25 20.22 19.25 19C19.25 17.5988 17.9125 17.1125 15.7088 16.4775C13.7225 15.905 11.4725 15.2563 11.4725 13C11.4725 10.8625 13.4188 9.25004 16 9.25004C17.875 9.25004 19.4675 10.11 20.1675 11.5C20.2573 11.6776 20.273 11.8835 20.211 12.0726C20.149 12.2616 20.0144 12.4183 19.8369 12.5082C19.6594 12.598 19.4534 12.6136 19.2643 12.5516C19.0753 12.4896 18.9186 12.3551 18.8288 12.1775C18.385 11.295 17.3013 10.75 16 10.75C14.2738 10.75 12.9725 11.7175 12.9725 13C12.9725 14.0513 14.1625 14.47 16.1238 15.0363C18.185 15.625 20.75 16.375 20.75 19ZM28.75 22C28.748 23.7896 28.0362 25.5054 26.7708 26.7708C25.5053 28.0363 23.7896 28.7481 22 28.75C20.6272 28.7546 19.2864 28.336 18.16 27.5513C16.2831 27.9008 14.3493 27.788 12.5257 27.2226C10.7022 26.6572 9.04374 25.6563 7.69374 24.3063C6.34374 22.9563 5.3428 21.2979 4.77742 19.4743C4.21205 17.6508 4.09924 15.717 4.44876 13.84C3.66402 12.7137 3.24545 11.3728 3.25001 10C3.25199 8.21043 3.96379 6.4947 5.22923 5.22926C6.49467 3.96382 8.2104 3.25202 10 3.25004C11.3728 3.24548 12.7136 3.66405 13.84 4.44879C15.7169 4.09927 17.6507 4.21208 19.4743 4.77745C21.2978 5.34283 22.9563 6.34378 24.3063 7.69377C25.6563 9.04377 26.6572 10.7022 27.2226 12.5258C27.788 14.3493 27.9008 16.2831 27.5513 18.16C28.336 19.2864 28.7546 20.6273 28.75 22ZM27.25 22C27.2542 20.8393 26.8696 19.7105 26.1575 18.7938C26.0909 18.7073 26.0441 18.6074 26.0201 18.501C25.9961 18.3945 25.9957 18.2842 26.0188 18.1775C26.381 16.5003 26.3169 14.759 25.8322 13.113C25.3476 11.467 24.4579 9.96879 23.2446 8.75547C22.0313 7.54215 20.533 6.65247 18.887 6.16782C17.241 5.68318 15.4997 5.61904 13.8225 5.98129C13.7159 6.00437 13.6055 6.00392 13.4991 5.97995C13.3926 5.95599 13.2927 5.90909 13.2063 5.84254C12.2895 5.13047 11.1608 4.74586 10 4.75004C8.60762 4.75004 7.27226 5.30316 6.2877 6.28773C5.30313 7.27229 4.75001 8.60765 4.75001 10C4.74583 11.1608 5.13044 12.2896 5.84251 13.2063C5.90906 13.2927 5.95596 13.3927 5.97992 13.4991C6.00389 13.6055 6.00434 13.7159 5.98126 13.8225C5.61901 15.4998 5.68315 17.241 6.16779 18.8871C6.65244 20.5331 7.54212 22.0313 8.75544 23.2446C9.96875 24.4579 11.467 25.3476 13.113 25.8322C14.759 26.3169 16.5003 26.381 18.1775 26.0188C18.2841 25.9953 18.3946 25.9955 18.5011 26.0195C18.6076 26.0435 18.7075 26.0906 18.7938 26.1575C19.7105 26.8696 20.8392 27.2542 22 27.25C23.3924 27.25 24.7278 26.6969 25.7123 25.7123C26.6969 24.7278 27.25 23.3924 27.25 22Z" fill="white"/>
</svg>
