<svg width="32" height="32" viewBox="0 0 32 32" fill="none" xmlns="http://www.w3.org/2000/svg">
<path d="M5 10.75H9.325C9.49714 11.5977 9.95705 12.3598 10.6268 12.9073C11.2966 13.4547 12.135 13.7537 13 13.7537C13.865 13.7537 14.7034 13.4547 15.3732 12.9073C16.043 12.3598 16.5029 11.5977 16.675 10.75H27C27.1989 10.75 27.3897 10.671 27.5303 10.5303C27.671 10.3897 27.75 10.1989 27.75 9.99998C27.75 9.80106 27.671 9.6103 27.5303 9.46965C27.3897 9.32899 27.1989 9.24998 27 9.24998H16.675C16.5029 8.40226 16.043 7.64012 15.3732 7.09269C14.7034 6.54526 13.865 6.24622 13 6.24622C12.135 6.24622 11.2966 6.54526 10.6268 7.09269C9.95705 7.64012 9.49714 8.40226 9.325 9.24998H5C4.80109 9.24998 4.61032 9.32899 4.46967 9.46965C4.32902 9.6103 4.25 9.80106 4.25 9.99998C4.25 10.1989 4.32902 10.3897 4.46967 10.5303C4.61032 10.671 4.80109 10.75 5 10.75ZM13 7.74998C13.445 7.74998 13.88 7.88194 14.25 8.12917C14.62 8.3764 14.9084 8.7278 15.0787 9.13894C15.249 9.55007 15.2936 10.0025 15.2068 10.4389C15.12 10.8754 14.9057 11.2763 14.591 11.591C14.2763 11.9056 13.8754 12.1199 13.439 12.2067C13.0025 12.2936 12.5501 12.249 12.139 12.0787C11.7278 11.9084 11.3764 11.62 11.1292 11.25C10.882 10.88 10.75 10.445 10.75 9.99998C10.75 9.40324 10.9871 8.83094 11.409 8.40899C11.831 7.98703 12.4033 7.74998 13 7.74998ZM27 21.25H24.675C24.5029 20.4023 24.043 19.6401 23.3732 19.0927C22.7034 18.5453 21.865 18.2462 21 18.2462C20.135 18.2462 19.2966 18.5453 18.6268 19.0927C17.957 19.6401 17.4971 20.4023 17.325 21.25H5C4.80109 21.25 4.61032 21.329 4.46967 21.4696C4.32902 21.6103 4.25 21.8011 4.25 22C4.25 22.1989 4.32902 22.3897 4.46967 22.5303C4.61032 22.671 4.80109 22.75 5 22.75H17.325C17.4971 23.5977 17.957 24.3598 18.6268 24.9073C19.2966 25.4547 20.135 25.7537 21 25.7537C21.865 25.7537 22.7034 25.4547 23.3732 24.9073C24.043 24.3598 24.5029 23.5977 24.675 22.75H27C27.1989 22.75 27.3897 22.671 27.5303 22.5303C27.671 22.3897 27.75 22.1989 27.75 22C27.75 21.8011 27.671 21.6103 27.5303 21.4696C27.3897 21.329 27.1989 21.25 27 21.25ZM21 24.25C20.555 24.25 20.12 24.118 19.75 23.8708C19.38 23.6235 19.0916 23.2721 18.9213 22.861C18.751 22.4499 18.7064 21.9975 18.7932 21.561C18.8801 21.1246 19.0943 20.7237 19.409 20.409C19.7237 20.0943 20.1246 19.88 20.561 19.7932C20.9975 19.7064 21.4499 19.7509 21.861 19.9212C22.2722 20.0915 22.6236 20.3799 22.8708 20.7499C23.118 21.12 23.25 21.555 23.25 22C23.25 22.5967 23.0129 23.169 22.591 23.591C22.169 24.0129 21.5967 24.25 21 24.25Z" fill="white"/>
</svg>
