<svg width="32" height="32" viewBox="0 0 32 32" fill="none" xmlns="http://www.w3.org/2000/svg">
<path d="M7.7501 13.325V5C7.7501 4.80109 7.67108 4.61032 7.53043 4.46967C7.38978 4.32902 7.19901 4.25 7.0001 4.25C6.80118 4.25 6.61042 4.32902 6.46977 4.46967C6.32911 4.61032 6.2501 4.80109 6.2501 5V13.325C5.40238 13.4971 4.64024 13.957 4.09281 14.6268C3.54539 15.2966 3.24634 16.135 3.24634 17C3.24634 17.865 3.54539 18.7034 4.09281 19.3732C4.64024 20.043 5.40238 20.5029 6.2501 20.675V27C6.2501 27.1989 6.32911 27.3897 6.46977 27.5303C6.61042 27.671 6.80118 27.75 7.0001 27.75C7.19901 27.75 7.38978 27.671 7.53043 27.5303C7.67108 27.3897 7.7501 27.1989 7.7501 27V20.675C8.59781 20.5029 9.35995 20.043 9.90738 19.3732C10.4548 18.7034 10.7539 17.865 10.7539 17C10.7539 16.135 10.4548 15.2966 9.90738 14.6268C9.35995 13.957 8.59781 13.4971 7.7501 13.325ZM7.0001 19.25C6.55509 19.25 6.12007 19.118 5.75006 18.8708C5.38005 18.6236 5.09167 18.2722 4.92137 17.861C4.75107 17.4499 4.70651 16.9975 4.79333 16.561C4.88015 16.1246 5.09444 15.7237 5.40911 15.409C5.72378 15.0943 6.12469 14.88 6.56114 14.7932C6.9976 14.7064 7.45 14.751 7.86114 14.9213C8.27227 15.0916 8.62367 15.38 8.8709 15.75C9.11814 16.12 9.2501 16.555 9.2501 17C9.2501 17.5967 9.01304 18.169 8.59109 18.591C8.16913 19.0129 7.59683 19.25 7.0001 19.25ZM16.7501 7.325V5C16.7501 4.80109 16.6711 4.61032 16.5304 4.46967C16.3898 4.32902 16.199 4.25 16.0001 4.25C15.8012 4.25 15.6104 4.32902 15.4698 4.46967C15.3291 4.61032 15.2501 4.80109 15.2501 5V7.325C14.4024 7.49714 13.6402 7.95705 13.0928 8.62681C12.5454 9.29657 12.2463 10.135 12.2463 11C12.2463 11.865 12.5454 12.7034 13.0928 13.3732C13.6402 14.043 14.4024 14.5029 15.2501 14.675V27C15.2501 27.1989 15.3291 27.3897 15.4698 27.5303C15.6104 27.671 15.8012 27.75 16.0001 27.75C16.199 27.75 16.3898 27.671 16.5304 27.5303C16.6711 27.3897 16.7501 27.1989 16.7501 27V14.675C17.5978 14.5029 18.36 14.043 18.9074 13.3732C19.4548 12.7034 19.7539 11.865 19.7539 11C19.7539 10.135 19.4548 9.29657 18.9074 8.62681C18.36 7.95705 17.5978 7.49714 16.7501 7.325ZM16.0001 13.25C15.5551 13.25 15.1201 13.118 14.7501 12.8708C14.3801 12.6236 14.0917 12.2722 13.9214 11.861C13.7511 11.4499 13.7065 10.9975 13.7933 10.561C13.8801 10.1246 14.0944 9.72368 14.4091 9.40901C14.7238 9.09434 15.1247 8.88005 15.5611 8.79323C15.9976 8.70642 16.45 8.75097 16.8611 8.92127C17.2723 9.09157 17.6237 9.37996 17.8709 9.74997C18.1181 10.12 18.2501 10.555 18.2501 11C18.2501 11.5967 18.013 12.169 17.5911 12.591C17.1691 13.0129 16.5968 13.25 16.0001 13.25ZM28.7501 21C28.7491 20.1358 28.4502 19.2984 27.9037 18.629C27.3572 17.9595 26.5966 17.499 25.7501 17.325V5C25.7501 4.80109 25.6711 4.61032 25.5304 4.46967C25.3898 4.32902 25.199 4.25 25.0001 4.25C24.8012 4.25 24.6104 4.32902 24.4698 4.46967C24.3291 4.61032 24.2501 4.80109 24.2501 5V17.325C23.4024 17.4971 22.6402 17.957 22.0928 18.6268C21.5454 19.2966 21.2463 20.135 21.2463 21C21.2463 21.865 21.5454 22.7034 22.0928 23.3732C22.6402 24.043 23.4024 24.5029 24.2501 24.675V27C24.2501 27.1989 24.3291 27.3897 24.4698 27.5303C24.6104 27.671 24.8012 27.75 25.0001 27.75C25.199 27.75 25.3898 27.671 25.5304 27.5303C25.6711 27.3897 25.7501 27.1989 25.7501 27V24.675C26.5966 24.501 27.3572 24.0405 27.9037 23.371C28.4502 22.7016 28.7491 21.8642 28.7501 21ZM25.0001 23.25C24.5551 23.25 24.1201 23.118 23.7501 22.8708C23.3801 22.6236 23.0917 22.2722 22.9214 21.861C22.7511 21.4499 22.7065 20.9975 22.7933 20.561C22.8801 20.1246 23.0944 19.7237 23.4091 19.409C23.7238 19.0943 24.1247 18.8801 24.5611 18.7932C24.9976 18.7064 25.45 18.751 25.8611 18.9213C26.2723 19.0916 26.6237 19.38 26.8709 19.75C27.1181 20.12 27.2501 20.555 27.2501 21C27.2501 21.5967 27.013 22.169 26.5911 22.591C26.1691 23.0129 25.5968 23.25 25.0001 23.25Z" fill="white"/>
</svg>
