<svg width="32" height="32" viewBox="0 0 32 32" fill="none" xmlns="http://www.w3.org/2000/svg">
<path d="M16 3.25C13.4783 3.25 11.0132 3.99777 8.91648 5.39876C6.81976 6.79975 5.18556 8.79103 4.22054 11.1208C3.25552 13.4505 3.00303 16.0141 3.49499 18.4874C3.98696 20.9607 5.20127 23.2325 6.98439 25.0156C8.76751 26.7987 11.0393 28.0131 13.5126 28.505C15.9859 28.997 18.5495 28.7445 20.8792 27.7795C23.209 26.8144 25.2003 25.1802 26.6012 23.0835C28.0022 20.9868 28.75 18.5217 28.75 16C28.746 12.6197 27.4015 9.379 25.0112 6.98877C22.621 4.59854 19.3803 3.25397 16 3.25ZM16 27.25C13.775 27.25 11.5999 26.5902 9.74984 25.354C7.89979 24.1179 6.45785 22.3609 5.60636 20.3052C4.75488 18.2495 4.53209 15.9875 4.96617 13.8052C5.40025 11.6229 6.47171 9.61839 8.04505 8.04505C9.6184 6.47171 11.623 5.40025 13.8052 4.96617C15.9875 4.53208 18.2495 4.75487 20.3052 5.60636C22.3609 6.45784 24.1179 7.89978 25.354 9.74984C26.5902 11.5999 27.25 13.775 27.25 16C27.2467 18.9827 26.0604 21.8422 23.9513 23.9513C21.8422 26.0604 18.9827 27.2467 16 27.25ZM10.25 13.5C10.25 13.2528 10.3233 13.0111 10.4607 12.8055C10.598 12.6 10.7932 12.4398 11.0217 12.3452C11.2501 12.2505 11.5014 12.2258 11.7439 12.274C11.9863 12.3222 12.2091 12.4413 12.3839 12.6161C12.5587 12.7909 12.6778 13.0137 12.726 13.2561C12.7742 13.4986 12.7495 13.7499 12.6549 13.9784C12.5602 14.2068 12.4 14.402 12.1945 14.5393C11.9889 14.6767 11.7472 14.75 11.5 14.75C11.1685 14.75 10.8505 14.6183 10.6161 14.3839C10.3817 14.1495 10.25 13.8315 10.25 13.5ZM19.25 13.5C19.25 13.2528 19.3233 13.0111 19.4607 12.8055C19.598 12.6 19.7932 12.4398 20.0217 12.3452C20.2501 12.2505 20.5014 12.2258 20.7439 12.274C20.9863 12.3222 21.2091 12.4413 21.3839 12.6161C21.5587 12.7909 21.6778 13.0137 21.726 13.2561C21.7742 13.4986 21.7495 13.7499 21.6549 13.9784C21.5602 14.2068 21.4 14.402 21.1945 14.5393C20.9889 14.6767 20.7472 14.75 20.5 14.75C20.1685 14.75 19.8505 14.6183 19.6161 14.3839C19.3817 14.1495 19.25 13.8315 19.25 13.5ZM22.75 21C22.75 21.1989 22.671 21.3897 22.5303 21.5303C22.3897 21.671 22.1989 21.75 22 21.75C20.875 21.75 20.3113 21 19.9 20.45C19.525 19.9425 19.3425 19.75 19 19.75C18.6575 19.75 18.4813 19.9425 18.1 20.45C17.6888 21 17.125 21.75 16 21.75C14.875 21.75 14.3113 21 13.9 20.45C13.525 19.9425 13.3425 19.75 13 19.75C12.6575 19.75 12.4813 19.9425 12.1 20.45C11.6888 21 11.125 21.75 10 21.75C9.80109 21.75 9.61033 21.671 9.46968 21.5303C9.32902 21.3897 9.25001 21.1989 9.25001 21C9.25001 20.8011 9.32902 20.6103 9.46968 20.4697C9.61033 20.329 9.80109 20.25 10 20.25C10.3425 20.25 10.5188 20.0575 10.9 19.55C11.3113 19 11.875 18.25 13 18.25C14.125 18.25 14.6888 19 15.1 19.55C15.475 20.0575 15.6575 20.25 16 20.25C16.3425 20.25 16.5188 20.0575 16.9 19.55C17.3113 19 17.875 18.25 19 18.25C20.125 18.25 20.6888 19 21.1 19.55C21.475 20.0575 21.6575 20.25 22 20.25C22.1989 20.25 22.3897 20.329 22.5303 20.4697C22.671 20.6103 22.75 20.8011 22.75 21Z" fill="white"/>
</svg>
