<svg width="32" height="32" viewBox="0 0 32 32" fill="none" xmlns="http://www.w3.org/2000/svg">
<path d="M21.75 17.4999C21.75 17.7472 21.6767 17.9889 21.5393 18.1944C21.4019 18.4 21.2067 18.5602 20.9783 18.6548C20.7499 18.7494 20.4986 18.7742 20.2561 18.7259C20.0136 18.6777 19.7909 18.5586 19.6161 18.3838C19.4413 18.209 19.3222 17.9863 19.274 17.7438C19.2258 17.5013 19.2505 17.25 19.3451 17.0216C19.4397 16.7932 19.5999 16.598 19.8055 16.4606C20.0111 16.3233 20.2527 16.2499 20.5 16.2499C20.8315 16.2499 21.1494 16.3816 21.3838 16.6161C21.6183 16.8505 21.75 17.1684 21.75 17.4999ZM15.75 11.4999C15.75 11.2527 15.6767 11.011 15.5393 10.8055C15.4019 10.5999 15.2067 10.4397 14.9783 10.3451C14.7499 10.2505 14.4986 10.2257 14.2561 10.274C14.0136 10.3222 13.7909 10.4413 13.6161 10.6161C13.4413 10.7909 13.3222 11.0136 13.274 11.2561C13.2257 11.4986 13.2505 11.7499 13.3451 11.9783C13.4397 12.2067 13.5999 12.4019 13.8055 12.5393C14.0111 12.6766 14.2527 12.7499 14.5 12.7499C14.8315 12.7499 15.1494 12.6183 15.3838 12.3838C15.6183 12.1494 15.75 11.8315 15.75 11.4999ZM24.9525 6.9212C22.5919 4.60533 19.4239 3.29721 16.1171 3.27293C12.8103 3.24865 9.62338 4.51011 7.22905 6.79106C4.83472 9.07201 3.42027 12.194 3.28424 15.4981C3.14821 18.8022 4.30124 22.0299 6.49996 24.5C6.56488 24.5759 6.64433 24.6382 6.73364 24.6831C6.82296 24.7279 6.92034 24.7545 7.02006 24.7611C7.11978 24.7678 7.21983 24.7545 7.31433 24.722C7.40884 24.6895 7.49589 24.6384 7.57037 24.5717C7.64485 24.5051 7.70525 24.4242 7.74804 24.3339C7.79082 24.2436 7.81512 24.1456 7.81951 24.0457C7.8239 23.9459 7.80828 23.8462 7.77359 23.7525C7.73889 23.6587 7.68581 23.5729 7.61746 23.5C6.18338 21.89 5.24161 19.9021 4.90407 17.7727C4.56653 15.6432 4.84739 13.4615 5.7133 11.487C6.57921 9.51244 7.99375 7.82797 9.78886 6.63372C11.584 5.43948 13.6842 4.78566 15.84 4.74995H16C18.1716 4.75024 20.2967 5.37904 22.1188 6.56045C23.9409 7.74186 25.3821 9.42539 26.2686 11.4078C27.155 13.3903 27.4487 15.5869 27.1142 17.7326C26.7798 19.8783 25.8314 21.8813 24.3837 23.5C24.2511 23.6483 24.1829 23.8433 24.194 24.0419C24.2051 24.2406 24.2947 24.4267 24.4431 24.5593C24.5914 24.6919 24.7864 24.7602 24.9851 24.749C25.1837 24.7379 25.3699 24.6483 25.5025 24.5C27.6853 22.0595 28.8455 18.8729 28.7429 15.6003C28.6403 12.3277 27.2826 9.22007 24.9512 6.9212H24.9525ZM19 21.25H17C14.1687 21.25 10.75 18.9087 10.75 15.9999C10.7503 15.7068 10.7746 15.4142 10.8225 15.1249C10.8409 15.027 10.8397 14.9263 10.8188 14.8289C10.7979 14.7314 10.7578 14.6391 10.7008 14.5573C10.6438 14.4755 10.5711 14.4059 10.4869 14.3525C10.4027 14.2992 10.3088 14.2631 10.2105 14.2465C10.1122 14.2299 10.0116 14.233 9.91451 14.2558C9.81745 14.2785 9.7259 14.3203 9.6452 14.3788C9.5645 14.4373 9.49627 14.5113 9.44451 14.5965C9.39274 14.6817 9.35848 14.7764 9.34371 14.8749C9.2811 15.2467 9.24974 15.623 9.24996 15.9999C9.24996 17.7824 10.15 19.5 11.7837 20.825C13.2837 22.0487 15.1912 22.75 17 22.75H19C19.3315 22.75 19.6494 22.8816 19.8838 23.1161C20.1183 23.3505 20.25 23.6684 20.25 24C20.25 24.3315 20.1183 24.6494 19.8838 24.8838C19.6494 25.1183 19.3315 25.25 19 25.25H12C11.2706 25.25 10.5711 25.5397 10.0554 26.0554C9.53969 26.5711 9.24996 27.2706 9.24996 28C9.24996 28.7293 9.53969 29.4288 10.0554 29.9445C10.5711 30.4602 11.2706 30.75 12 30.75C12.1989 30.75 12.3896 30.6709 12.5303 30.5303C12.6709 30.3896 12.75 30.1989 12.75 30C12.75 29.801 12.6709 29.6103 12.5303 29.4696C12.3896 29.329 12.1989 29.25 12 29.25C11.6684 29.25 11.3505 29.1183 11.1161 28.8838C10.8817 28.6494 10.75 28.3315 10.75 28C10.75 27.6684 10.8817 27.3505 11.1161 27.1161C11.3505 26.8816 11.6684 26.75 12 26.75H19C19.7293 26.75 20.4288 26.4602 20.9445 25.9445C21.4602 25.4288 21.75 24.7293 21.75 24C21.75 23.2706 21.4602 22.5711 20.9445 22.0554C20.4288 21.5397 19.7293 21.25 19 21.25Z" fill="white"/>
</svg>
