<svg width="32" height="32" viewBox="0 0 32 32" fill="none" xmlns="http://www.w3.org/2000/svg">
<path d="M16.0001 3.25C14.1666 3.25185 12.355 3.64913 10.689 4.41476C9.02293 5.18038 7.54163 6.29632 6.34609 7.68648C5.15056 9.07663 4.26891 10.7083 3.7613 12.4702C3.25369 14.232 3.13204 16.0826 3.40467 17.8958C3.6773 19.7089 4.33778 21.442 5.34106 22.9766C6.34435 24.5113 7.66683 25.8116 9.21831 26.7887C10.7698 27.7658 12.5138 28.3968 14.3313 28.6386C16.1488 28.8804 17.9971 28.7274 19.7501 28.19C19.8671 28.1541 19.9735 28.0902 20.0601 28.0037L28.0001 20.0575C28.0867 19.9706 28.1507 19.8637 28.1863 19.7463C28.7708 17.8395 28.9001 15.8223 28.5638 13.8566C28.2276 11.8908 27.4352 10.0313 26.2502 8.42722C25.0653 6.82315 23.5207 5.51922 21.7406 4.62011C19.9605 3.72099 17.9944 3.25174 16.0001 3.25ZM26.8088 19.125L19.1313 26.8037C16.7366 27.4958 14.1797 27.372 11.863 26.4519C9.54632 25.5318 7.60124 23.8676 6.33379 21.7212C5.06635 19.5747 4.54846 17.0678 4.86162 14.5948C5.17478 12.1219 6.30121 9.82317 8.06369 8.06041C9.82617 6.29764 12.1247 5.17084 14.5976 4.85728C17.0705 4.54372 19.5775 5.06119 21.7242 6.32829C23.8708 7.59538 25.5353 9.54019 26.4558 11.8568C27.3763 14.1733 27.5005 16.7301 26.8088 19.125ZM10.2501 13.5C10.2501 13.2528 10.3234 13.0111 10.4607 12.8055C10.5981 12.6 10.7933 12.4398 11.0217 12.3452C11.2501 12.2505 11.5015 12.2258 11.7439 12.274C11.9864 12.3222 12.2092 12.4413 12.384 12.6161C12.5588 12.7909 12.6778 13.0137 12.7261 13.2561C12.7743 13.4986 12.7495 13.7499 12.6549 13.9784C12.5603 14.2068 12.4001 14.402 12.1945 14.5393C11.989 14.6767 11.7473 14.75 11.5001 14.75C11.1686 14.75 10.8506 14.6183 10.6162 14.3839C10.3818 14.1495 10.2501 13.8315 10.2501 13.5ZM21.7501 13.5C21.7501 13.7472 21.6768 13.9889 21.5394 14.1945C21.4021 14.4 21.2068 14.5602 20.9784 14.6548C20.75 14.7495 20.4987 14.7742 20.2562 14.726C20.0137 14.6778 19.791 14.5587 19.6162 14.3839C19.4414 14.2091 19.3223 13.9863 19.2741 13.7439C19.2259 13.5014 19.2506 13.2501 19.3452 13.0216C19.4398 12.7932 19.6001 12.598 19.8056 12.4607C20.0112 12.3233 20.2529 12.25 20.5001 12.25C20.8316 12.25 21.1495 12.3817 21.384 12.6161C21.6184 12.8505 21.7501 13.1685 21.7501 13.5ZM21.6488 19.375C20.4088 21.52 18.3501 22.75 16.0001 22.75C13.6501 22.75 11.5913 21.52 10.3513 19.375C10.2617 19.2036 10.2417 19.0042 10.2956 18.8184C10.3495 18.6326 10.4731 18.4748 10.6406 18.378C10.808 18.2812 11.0064 18.2529 11.1943 18.2989C11.3822 18.3449 11.5451 18.4618 11.6488 18.625C12.6288 20.3175 14.1738 21.25 16.0001 21.25C17.8263 21.25 19.3751 20.3175 20.3513 18.625C20.3982 18.5354 20.4628 18.4562 20.541 18.3921C20.6193 18.3281 20.7098 18.2805 20.8069 18.2523C20.9041 18.2242 21.0059 18.2159 21.1063 18.2281C21.2067 18.2403 21.3037 18.2727 21.3912 18.3233C21.4788 18.3739 21.5552 18.4418 21.6159 18.5227C21.6766 18.6036 21.7203 18.696 21.7444 18.7942C21.7684 18.8925 21.7724 18.9946 21.756 19.0944C21.7395 19.1942 21.7031 19.2896 21.6488 19.375Z" fill="white"/>
</svg>
