<svg width="32" height="32" viewBox="0 0 32 32" fill="none" xmlns="http://www.w3.org/2000/svg">
<path d="M28.5 16.375L20.9088 13.845C20.4821 13.7032 20.0896 13.4745 19.7558 13.1733C19.4221 12.8721 19.1546 12.5049 18.97 12.095L16.0637 5.28871C15.8838 4.88404 15.5571 4.56267 15.1495 4.38939C14.7419 4.21611 14.2838 4.2038 13.8675 4.35496L4.4025 7.79621C4.06525 7.91967 3.77395 8.14355 3.56788 8.43769C3.36181 8.73182 3.25086 9.08207 3.25 9.44121V24C3.25 24.4641 3.43437 24.9092 3.76256 25.2374C4.09075 25.5656 4.53587 25.75 5 25.75H30C30.4641 25.75 30.9092 25.5656 31.2374 25.2374C31.5656 24.9092 31.75 24.4641 31.75 24V20.8825C31.7501 19.885 31.4363 18.9129 30.8529 18.1039C30.2696 17.2948 29.4464 16.6899 28.5 16.375ZM4.915 9.20621L14.375 5.76496C14.4021 5.75455 14.431 5.74946 14.46 5.74996C14.5065 5.74998 14.5521 5.76298 14.5916 5.78749C14.6311 5.812 14.6631 5.84705 14.6838 5.88871L15.6838 8.22371L12.75 9.29496C12.5847 9.35495 12.4457 9.47115 12.3573 9.62324C12.269 9.77533 12.2369 9.95363 12.2667 10.127C12.2964 10.3003 12.3862 10.4577 12.5203 10.5716C12.6543 10.6855 12.8241 10.7486 13 10.75C13.0854 10.7491 13.17 10.7334 13.25 10.7037L16.2725 9.60496L17.0613 11.45L14.75 12.295C14.5847 12.355 14.4457 12.4711 14.3573 12.6232C14.269 12.7753 14.2369 12.9536 14.2667 13.127C14.2964 13.3003 14.3862 13.4577 14.5203 13.5716C14.6543 13.6855 14.8241 13.7486 15 13.75C15.0853 13.7489 15.1697 13.7337 15.25 13.705L17.6575 12.83C17.9682 13.4727 18.4198 14.0371 18.9788 14.4812L16.75 15.295C16.5847 15.355 16.4457 15.4711 16.3573 15.6232C16.269 15.7753 16.2369 15.9536 16.2667 16.127C16.2964 16.3003 16.3862 16.4577 16.5203 16.5716C16.6543 16.6855 16.8241 16.7486 17 16.75C17.0874 16.7496 17.174 16.7344 17.2563 16.705L20.8363 15.4025L28.0275 17.8C28.5719 17.9809 29.0585 18.303 29.4378 18.7334C29.817 19.1638 30.0753 19.6871 30.1863 20.25H4.75V9.44121C4.75002 9.38983 4.76587 9.3397 4.7954 9.29766C4.82492 9.25561 4.86668 9.22367 4.915 9.20621ZM30 24.25H5C4.9337 24.25 4.87011 24.2236 4.82322 24.1767C4.77634 24.1298 4.75 24.0663 4.75 24V21.75H30.25V24C30.25 24.0663 30.2237 24.1298 30.1768 24.1767C30.1299 24.2236 30.0663 24.25 30 24.25Z" fill="white"/>
</svg>
