<svg width="32" height="32" viewBox="0 0 32 32" fill="none" xmlns="http://www.w3.org/2000/svg">
<path d="M28.7825 21.0525L25.205 19.2637C24.1643 18.7479 23.2889 17.9508 22.6782 16.9627C22.0676 15.9747 21.746 14.8353 21.75 13.6737V9.99999C21.75 9.80108 21.671 9.61032 21.5303 9.46966C21.3897 9.32901 21.1989 9.24999 21 9.24999C19.343 9.24801 17.7544 8.58889 16.5828 7.41722C15.4111 6.24555 14.752 4.65699 14.75 2.99999C14.7499 2.8605 14.7109 2.7238 14.6373 2.60525C14.5638 2.48671 14.4587 2.39103 14.3337 2.32895C14.2088 2.26688 14.069 2.24088 13.9302 2.25387C13.7913 2.26686 13.6587 2.31833 13.5475 2.40249L3.9225 9.70374L3.90375 9.71749C3.7126 9.87146 3.55598 10.0639 3.44405 10.2823C3.33213 10.5008 3.2674 10.7403 3.25408 10.9854C3.24076 11.2305 3.27914 11.4756 3.36673 11.7049C3.45432 11.9342 3.58917 12.1425 3.7625 12.3162L17.9775 26.53C18.118 26.6707 18.3087 26.7498 18.5075 26.75H28C28.4641 26.75 28.9092 26.5656 29.2374 26.2374C29.5656 25.9092 29.75 25.4641 29.75 25V22.6175C29.7508 22.2923 29.6606 21.9735 29.4896 21.6969C29.3187 21.4203 29.0737 21.1971 28.7825 21.0525ZM28.25 25C28.25 25.0663 28.2237 25.1299 28.1768 25.1768C28.1299 25.2237 28.0663 25.25 28 25.25H18.8175L4.82375 11.25C4.79944 11.2259 4.78034 11.197 4.76766 11.1652C4.75497 11.1333 4.74896 11.0992 4.75 11.065C4.75175 11.0313 4.76029 10.9983 4.77511 10.9681C4.78993 10.9378 4.81073 10.9108 4.83625 10.8887L6.63125 9.52749L11.6313 14.5275C11.7722 14.6663 11.9623 14.7439 12.1602 14.7432C12.358 14.7425 12.5476 14.6637 12.6876 14.5238C12.8276 14.384 12.9066 14.1945 12.9076 13.9967C12.9085 13.7988 12.8312 13.6086 12.6925 13.4675L7.83875 8.61374L13.375 4.41249C13.6842 6.06557 14.5216 7.57361 15.7614 8.70993C17.0012 9.84624 18.5763 10.5494 20.25 10.7137V13.6737C20.245 15.1139 20.6437 16.5267 21.4009 17.7518C22.158 18.977 23.2434 19.9654 24.5338 20.605L28.1112 22.395C28.1527 22.4156 28.1876 22.4473 28.2121 22.4866C28.2366 22.5259 28.2497 22.5712 28.25 22.6175V25ZM8.85 22.75H4C3.80109 22.75 3.61032 22.671 3.46967 22.5303C3.32902 22.3897 3.25 22.1989 3.25 22C3.25 21.8011 3.32902 21.6103 3.46967 21.4697C3.61032 21.329 3.80109 21.25 4 21.25H8.85C9.04891 21.25 9.23968 21.329 9.38033 21.4697C9.52098 21.6103 9.6 21.8011 9.6 22C9.6 22.1989 9.52098 22.3897 9.38033 22.5303C9.23968 22.671 9.04891 22.75 8.85 22.75ZM13.6 26C13.6 26.1989 13.521 26.3897 13.3803 26.5303C13.2397 26.671 13.0489 26.75 12.85 26.75H6C5.80109 26.75 5.61032 26.671 5.46967 26.5303C5.32902 26.3897 5.25 26.1989 5.25 26C5.25 25.8011 5.32902 25.6103 5.46967 25.4697C5.61032 25.329 5.80109 25.25 6 25.25H12.85C13.0489 25.25 13.2397 25.329 13.3803 25.4697C13.521 25.6103 13.6 25.8011 13.6 26Z" fill="white"/>
</svg>
