<svg width="32" height="32" viewBox="0 0 32 32" fill="none" xmlns="http://www.w3.org/2000/svg">
<path d="M24 2.25H13C12.5359 2.25 12.0907 2.43437 11.7626 2.76256C11.4344 3.09075 11.25 3.53587 11.25 4V13.6888L6.33374 18.6063C5.66397 19.2648 5.13124 20.0494 4.76629 20.9148C4.40133 21.7803 4.21138 22.7095 4.2074 23.6487C4.20342 24.588 4.38548 25.5188 4.74308 26.3873C5.10068 27.2558 5.62674 28.0449 6.29091 28.7091C6.95507 29.3732 7.74418 29.8993 8.61271 30.2569C9.48124 30.6145 10.412 30.7966 11.3512 30.7926C12.2905 30.7886 13.2197 30.5987 14.0851 30.2337C14.9506 29.8688 15.7352 29.336 16.3937 28.6663L24.945 20.1162C25.201 19.8613 25.4039 19.5581 25.5421 19.2243C25.6803 18.8905 25.7509 18.5326 25.75 18.1712V4C25.75 3.53587 25.5656 3.09075 25.2374 2.76256C24.9092 2.43437 24.4641 2.25 24 2.25ZM13 3.75H24C24.0663 3.75 24.1299 3.77634 24.1768 3.82322C24.2237 3.87011 24.25 3.9337 24.25 4V6.25H12.75V4C12.75 3.9337 12.7763 3.87011 12.8232 3.82322C12.8701 3.77634 12.9337 3.75 13 3.75ZM15.3337 27.6063C14.2758 28.6345 12.8556 29.205 11.3803 29.1944C9.90507 29.1839 8.49322 28.5932 7.45002 27.55C6.40682 26.5068 5.81609 25.0949 5.80556 23.6196C5.79503 22.1444 6.36554 20.7242 7.39374 19.6663L12.53 14.53C12.6707 14.3895 12.7498 14.1988 12.75 14V7.75H24.25V13.2925C22.6008 13.4788 21.0778 14.2654 19.9713 15.5024C18.8648 16.7394 18.2521 18.3403 18.25 20C18.2465 21.2851 18.6142 22.5438 19.3087 23.625L15.3337 27.6063ZM23.8837 19.055L20.4025 22.5375C19.9717 21.7613 19.747 20.8877 19.75 20C19.7516 18.7381 20.2071 17.5189 21.0333 16.5651C21.8595 15.6113 23.0012 14.9866 24.25 14.805V18.1712C24.2504 18.3355 24.2183 18.4981 24.1554 18.6498C24.0926 18.8015 24.0002 18.9392 23.8837 19.055Z" fill="white"/>
</svg>
