<svg width="32" height="32" viewBox="0 0 32 32" fill="none" xmlns="http://www.w3.org/2000/svg">
<path d="M4.25002 13C4.25002 12.8011 4.32904 12.6103 4.46969 12.4697C4.61034 12.329 4.80111 12.25 5.00002 12.25H7.00002C7.19894 12.25 7.3897 12.329 7.53035 12.4697C7.67101 12.6103 7.75002 12.8011 7.75002 13C7.75002 13.1989 7.67101 13.3897 7.53035 13.5303C7.3897 13.671 7.19894 13.75 7.00002 13.75H5.00002C4.80111 13.75 4.61034 13.671 4.46969 13.5303C4.32904 13.3897 4.25002 13.1989 4.25002 13ZM9.10502 7.16625C9.17442 7.23686 9.2571 7.29304 9.34832 7.33154C9.43953 7.37003 9.53746 7.39009 9.63647 7.39055C9.73547 7.39101 9.83358 7.37187 9.92515 7.33422C10.0167 7.29657 10.0999 7.24117 10.17 7.1712C10.24 7.10124 10.2955 7.0181 10.3333 6.92657C10.371 6.83505 10.3903 6.73696 10.3899 6.63796C10.3896 6.53895 10.3697 6.441 10.3313 6.34974C10.2929 6.25848 10.2368 6.17573 10.1663 6.10625L8.75002 4.69125C8.60701 4.56446 8.42099 4.49704 8.22996 4.50278C8.03892 4.50851 7.85728 4.58696 7.72213 4.72211C7.58699 4.85725 7.50853 5.03889 7.5028 5.22993C7.49706 5.42097 7.56448 5.60699 7.69127 5.75L9.10502 7.16625ZM16 4.75C16.1989 4.75 16.3897 4.67098 16.5304 4.53033C16.671 4.38968 16.75 4.19891 16.75 4V2C16.75 1.80109 16.671 1.61032 16.5304 1.46967C16.3897 1.32902 16.1989 1.25 16 1.25C15.8011 1.25 15.6103 1.32902 15.4697 1.46967C15.329 1.61032 15.25 1.80109 15.25 2V4C15.25 4.19891 15.329 4.38968 15.4697 4.53033C15.6103 4.67098 15.8011 4.75 16 4.75ZM22.3638 7.38625C22.4624 7.38633 22.5602 7.36694 22.6513 7.32918C22.7425 7.29143 22.8253 7.23606 22.895 7.16625L24.3088 5.75C24.4356 5.60699 24.503 5.42097 24.4972 5.22993C24.4915 5.03889 24.4131 4.85725 24.2779 4.72211C24.1428 4.58696 23.9611 4.50851 23.7701 4.50278C23.5791 4.49704 23.393 4.56446 23.25 4.69125L21.8338 6.10625C21.729 6.21114 21.6577 6.34472 21.6288 6.49011C21.5999 6.63551 21.6148 6.78621 21.6715 6.92317C21.7282 7.06014 21.8242 7.17722 21.9474 7.25964C22.0707 7.34206 22.2155 7.38612 22.3638 7.38625ZM24.25 13C24.25 13.1989 24.329 13.3897 24.4697 13.5303C24.6103 13.671 24.8011 13.75 25 13.75H27C27.1989 13.75 27.3897 13.671 27.5304 13.5303C27.671 13.3897 27.75 13.1989 27.75 13C27.75 12.8011 27.671 12.6103 27.5304 12.4697C27.3897 12.329 27.1989 12.25 27 12.25H25C24.8011 12.25 24.6103 12.329 24.4697 12.4697C24.329 12.6103 24.25 12.8011 24.25 13ZM11 13.75C11.1989 13.75 11.3897 13.671 11.5304 13.5303C11.671 13.3897 11.75 13.1989 11.75 13C11.75 11.8728 12.1978 10.7918 12.9948 9.9948C13.7918 9.19777 14.8729 8.75 16 8.75C17.1272 8.75 18.2082 9.19777 19.0052 9.9948C19.8023 10.7918 20.25 11.8728 20.25 13C20.25 13.1989 20.329 13.3897 20.4697 13.5303C20.6103 13.671 20.8011 13.75 21 13.75C21.1989 13.75 21.3897 13.671 21.5304 13.5303C21.671 13.3897 21.75 13.1989 21.75 13C21.75 11.475 21.1442 10.0125 20.0659 8.93414C18.9876 7.8558 17.525 7.25 16 7.25C14.475 7.25 13.0125 7.8558 11.9342 8.93414C10.8558 10.0125 10.25 11.475 10.25 13C10.25 13.1989 10.329 13.3897 10.4697 13.5303C10.6103 13.671 10.8011 13.75 11 13.75ZM29.6475 27.375C29.5819 27.4887 29.4875 27.5832 29.3739 27.649C29.2602 27.7148 29.1313 27.7496 29 27.75H3.00002C2.86903 27.7499 2.74035 27.7155 2.62679 27.6502C2.51323 27.5849 2.41875 27.491 2.35275 27.3779C2.28675 27.2647 2.25155 27.1362 2.25063 27.0053C2.24971 26.8743 2.28312 26.7453 2.34752 26.6313L7.43377 17.6313C7.49916 17.5154 7.59416 17.4191 7.70903 17.3521C7.82391 17.2851 7.95454 17.2499 8.08752 17.25H23.9125C24.0455 17.2499 24.1761 17.2851 24.291 17.3521C24.4059 17.4191 24.5009 17.5154 24.5663 17.6313L29.6525 26.6313C29.7164 26.745 29.7496 26.8734 29.7487 27.0038C29.7478 27.1342 29.713 27.2622 29.6475 27.375ZM23.475 18.75H19.975L20.5188 21.25H24.8938L23.475 18.75ZM18.9825 21.25L18.4388 18.75H13.5638L13.02 21.25H18.9825ZM12.6913 22.75L11.93 26.25H20.07L19.3088 22.75H12.6913ZM7.11127 21.25H11.4863L12.03 18.75H8.53002L7.11127 21.25ZM4.28502 26.25H10.395L11.1563 22.75H6.26377L4.28502 26.25ZM27.715 26.25L25.7363 22.75H20.8438L21.605 26.25H27.715Z" fill="white"/>
</svg>
