<svg width="32" height="32" viewBox="0 0 32 32" fill="none" xmlns="http://www.w3.org/2000/svg">
<path d="M30.6712 15.665L25.6712 5.665C25.609 5.54028 25.5132 5.43538 25.3946 5.36207C25.2761 5.28877 25.1394 5.24996 25 5.25H7C6.8606 5.24996 6.72395 5.28877 6.60538 5.36207C6.48681 5.43538 6.39102 5.54028 6.32875 5.665L1.32875 15.665C1.27719 15.7692 1.25025 15.8838 1.25 16V23C1.25 23.4641 1.43437 23.9092 1.76256 24.2374C2.09075 24.5656 2.53587 24.75 3 24.75H29C29.4641 24.75 29.9092 24.5656 30.2374 24.2374C30.5656 23.9092 30.75 23.4641 30.75 23V16C30.7498 15.8838 30.7228 15.7692 30.6712 15.665ZM12.4637 15.25L10.7137 11.75H15.0363L16.7862 15.25H12.4637ZM12.5363 6.75L14.2863 10.25H9.96375L8.21375 6.75H12.5363ZM18.5362 6.75L20.2862 10.25H15.9637L14.2137 6.75H18.5362ZM18.4638 15.25L16.7138 11.75H21.0362L22.7862 15.25H18.4638ZM24.4638 15.25L22.7138 11.75H27.0362L28.7862 15.25H24.4638ZM26.2862 10.25H21.9638L20.2138 6.75H24.5362L26.2862 10.25ZM2.75 23V16.1775L7 7.6775L11.25 16.1775V23.25H3C2.9337 23.25 2.87011 23.2237 2.82322 23.1768C2.77634 23.1299 2.75 23.0663 2.75 23ZM29 23.25H12.75V16.75H29.25V23C29.25 23.0663 29.2237 23.1299 29.1768 23.1768C29.1299 23.2237 29.0663 23.25 29 23.25Z" fill="white"/>
</svg>
