<svg width="32" height="32" viewBox="0 0 32 32" fill="none" xmlns="http://www.w3.org/2000/svg">
<path d="M5.25 16C5.25 15.801 5.32902 15.6103 5.46967 15.4696C5.61032 15.329 5.80109 15.25 6 15.25H15C15.1989 15.25 15.3897 15.329 15.5303 15.4696C15.671 15.6103 15.75 15.801 15.75 16C15.75 16.1989 15.671 16.3896 15.5303 16.5303C15.3897 16.6709 15.1989 16.75 15 16.75H6C5.80109 16.75 5.61032 16.6709 5.46967 16.5303C5.32902 16.3896 5.25 16.1989 5.25 16ZM6 8.74995H13C13.1989 8.74995 13.3897 8.67093 13.5303 8.53028C13.671 8.38963 13.75 8.19886 13.75 7.99995C13.75 7.80104 13.671 7.61027 13.5303 7.46962C13.3897 7.32897 13.1989 7.24995 13 7.24995H6C5.80109 7.24995 5.61032 7.32897 5.46967 7.46962C5.32902 7.61027 5.25 7.80104 5.25 7.99995C5.25 8.19886 5.32902 8.38963 5.46967 8.53028C5.61032 8.67093 5.80109 8.74995 6 8.74995ZM23 23.25H6C5.80109 23.25 5.61032 23.329 5.46967 23.4696C5.32902 23.6103 5.25 23.801 5.25 24C5.25 24.1989 5.32902 24.3896 5.46967 24.5303C5.61032 24.6709 5.80109 24.75 6 24.75H23C23.1989 24.75 23.3897 24.6709 23.5303 24.5303C23.671 24.3896 23.75 24.1989 23.75 24C23.75 23.801 23.671 23.6103 23.5303 23.4696C23.3897 23.329 23.1989 23.25 23 23.25ZM28.53 10.47L23.53 5.46995C23.3894 5.3295 23.1988 5.25061 23 5.25061C22.8012 5.25061 22.6106 5.3295 22.47 5.46995L17.47 10.47C17.3375 10.6121 17.2654 10.8002 17.2688 10.9945C17.2723 11.1888 17.351 11.3742 17.4884 11.5116C17.6258 11.649 17.8112 11.7277 18.0055 11.7311C18.1998 11.7346 18.3878 11.6624 18.53 11.53L22.25 7.8112V18C22.25 18.1989 22.329 18.3896 22.4697 18.5303C22.6103 18.6709 22.8011 18.75 23 18.75C23.1989 18.75 23.3897 18.6709 23.5303 18.5303C23.671 18.3896 23.75 18.1989 23.75 18V7.8112L27.47 11.53C27.6122 11.6624 27.8002 11.7346 27.9945 11.7311C28.1888 11.7277 28.3742 11.649 28.5116 11.5116C28.649 11.3742 28.7277 11.1888 28.7312 10.9945C28.7346 10.8002 28.6625 10.6121 28.53 10.47Z" fill="white"/>
</svg>
