<svg width="32" height="32" viewBox="0 0 32 32" fill="none" xmlns="http://www.w3.org/2000/svg">
<path d="M24.25 19V13C24.25 12.8011 24.329 12.6103 24.4697 12.4697C24.6103 12.329 24.8011 12.25 25 12.25C25.1989 12.25 25.3897 12.329 25.5303 12.4697C25.671 12.6103 25.75 12.8011 25.75 13V19C25.75 19.1989 25.671 19.3897 25.5303 19.5303C25.3897 19.671 25.1989 19.75 25 19.75C24.8011 19.75 24.6103 19.671 24.4697 19.5303C24.329 19.3897 24.25 19.1989 24.25 19ZM29 10.25C28.8011 10.25 28.6103 10.329 28.4697 10.4697C28.329 10.6103 28.25 10.8011 28.25 11V21C28.25 21.1989 28.329 21.3897 28.4697 21.5303C28.6103 21.671 28.8011 21.75 29 21.75C29.1989 21.75 29.3897 21.671 29.5303 21.5303C29.671 21.3897 29.75 21.1989 29.75 21V11C29.75 10.8011 29.671 10.6103 29.5303 10.4697C29.3897 10.329 29.1989 10.25 29 10.25ZM27.555 26.5C27.6213 26.5729 27.6726 26.6581 27.706 26.7508C27.7394 26.8436 27.7542 26.9419 27.7495 27.0404C27.7449 27.1388 27.7209 27.2353 27.6789 27.3245C27.637 27.4137 27.5779 27.4937 27.505 27.56C27.4321 27.6263 27.3469 27.6776 27.2542 27.711C27.1615 27.7444 27.0631 27.7592 26.9646 27.7545C26.8662 27.7499 26.7697 27.7259 26.6805 27.684C26.5913 27.642 26.5113 27.5829 26.445 27.51L20.75 21.24V28C20.75 28.1404 20.7107 28.2779 20.6364 28.397C20.5621 28.5161 20.4559 28.612 20.3298 28.6737C20.2038 28.7355 20.0629 28.7606 19.9233 28.7462C19.7837 28.7319 19.6509 28.6786 19.54 28.5925L10.7425 21.75H5C4.53587 21.75 4.09075 21.5656 3.76256 21.2374C3.43437 20.9093 3.25 20.4641 3.25 20V12C3.25 11.5359 3.43437 11.0908 3.76256 10.7626C4.09075 10.4344 4.53587 10.25 5 10.25H10.7587L6.445 5.50001C6.33253 5.3502 6.28019 5.16372 6.29828 4.97727C6.31638 4.79081 6.40359 4.61788 6.54277 4.49249C6.68195 4.3671 6.86302 4.29834 7.05035 4.29973C7.23767 4.30112 7.4177 4.37257 7.555 4.50001L27.555 26.5ZM19.25 19.59L12.125 11.75H5C4.9337 11.75 4.87011 11.7763 4.82322 11.8232C4.77634 11.8701 4.75 11.9337 4.75 12V20C4.75 20.0663 4.77634 20.1299 4.82322 20.1768C4.87011 20.2237 4.9337 20.25 5 20.25H11C11.1666 20.25 11.3284 20.3054 11.46 20.4075L19.25 26.4663V19.59ZM15.4788 8.46501L19.25 5.53376V13.3538C19.25 13.5527 19.329 13.7434 19.4697 13.8841C19.6103 14.0247 19.8011 14.1038 20 14.1038C20.1989 14.1038 20.3897 14.0247 20.5303 13.8841C20.671 13.7434 20.75 13.5527 20.75 13.3538V4.00001C20.75 3.85965 20.7107 3.72209 20.6364 3.60299C20.5621 3.48389 20.4559 3.38803 20.3298 3.3263C20.2038 3.26457 20.0629 3.23945 19.9233 3.25381C19.7837 3.26817 19.6509 3.32142 19.54 3.40751L14.5588 7.28251C14.4774 7.34161 14.4088 7.41645 14.357 7.50259C14.3052 7.58873 14.2712 7.68441 14.2571 7.78394C14.243 7.88347 14.249 7.98482 14.2749 8.08197C14.3007 8.17912 14.3458 8.27008 14.4075 8.34945C14.4692 8.42883 14.5462 8.49499 14.634 8.54401C14.7217 8.59302 14.8184 8.6239 14.9184 8.6348C15.0183 8.64569 15.1194 8.63639 15.2157 8.60743C15.3119 8.57848 15.4014 8.53047 15.4788 8.46626V8.46501Z" fill="white"/>
</svg>
