<svg width="32" height="32" viewBox="0 0 32 32" fill="none" xmlns="http://www.w3.org/2000/svg">
<path d="M6.555 4.50001C6.4177 4.37257 6.23767 4.30112 6.05035 4.29973C5.86302 4.29834 5.68195 4.3671 5.54277 4.49249C5.40359 4.61788 5.31638 4.79081 5.29828 4.97727C5.28019 5.16372 5.33253 5.3502 5.445 5.50001L9.75 10.2425L9.74 10.25H4C3.53587 10.25 3.09075 10.4344 2.76256 10.7626C2.43437 11.0908 2.25 11.5359 2.25 12V20C2.25 20.4641 2.43437 20.9093 2.76256 21.2374C3.09075 21.5656 3.53587 21.75 4 21.75H9.7425L18.54 28.5925C18.6509 28.6786 18.7837 28.7319 18.9233 28.7462C19.0629 28.7606 19.2038 28.7355 19.3298 28.6737C19.4559 28.612 19.5621 28.5161 19.6364 28.397C19.7107 28.2779 19.75 28.1404 19.75 28V21.24L25.445 27.5C25.5789 27.6472 25.7659 27.7352 25.9646 27.7445C26.1634 27.7539 26.3578 27.6839 26.505 27.55C26.6522 27.4161 26.7402 27.2292 26.7495 27.0304C26.7589 26.8316 26.6889 26.6372 26.555 26.49L6.555 4.50001ZM3.75 20V12C3.75 11.9337 3.77634 11.8701 3.82322 11.8232C3.87011 11.7763 3.9337 11.75 4 11.75H9.25V20.25H4C3.9337 20.25 3.87011 20.2237 3.82322 20.1768C3.77634 20.1299 3.75 20.0663 3.75 20ZM18.25 26.4663L10.75 20.6338V11.3663L10.7638 11.3563L18.25 19.59V26.4663ZM23.4375 18.15C23.9602 17.5565 24.2486 16.7928 24.2486 16.0019C24.2486 15.211 23.9602 14.4473 23.4375 13.8538C23.3691 13.7804 23.3161 13.6941 23.2817 13.6C23.2472 13.5058 23.232 13.4057 23.2369 13.3055C23.2418 13.2053 23.2667 13.1072 23.3102 13.0168C23.3537 12.9265 23.4149 12.8458 23.4902 12.7795C23.5654 12.7132 23.6532 12.6627 23.7483 12.6309C23.8434 12.5991 23.9439 12.5867 24.0439 12.5945C24.1438 12.6022 24.2413 12.6299 24.3303 12.676C24.4194 12.722 24.4984 12.7854 24.5625 12.8625C25.3267 13.73 25.7484 14.8464 25.7484 16.0025C25.7484 17.1586 25.3267 18.275 24.5625 19.1425C24.4309 19.2917 24.2454 19.3825 24.0468 19.3949C23.8483 19.4073 23.6529 19.3404 23.5037 19.2088C23.3546 19.0771 23.2638 18.8917 23.2514 18.6931C23.2389 18.4946 23.3059 18.2992 23.4375 18.15ZM13.4263 8.33501C13.3658 8.25721 13.3213 8.16826 13.2953 8.07326C13.2692 7.97825 13.2622 7.87905 13.2745 7.78131C13.2868 7.68358 13.3182 7.58922 13.367 7.50363C13.4158 7.41805 13.4809 7.34291 13.5588 7.28251L18.54 3.40751C18.6509 3.32142 18.7837 3.26817 18.9233 3.25381C19.0629 3.23945 19.2038 3.26457 19.3298 3.3263C19.4559 3.38803 19.5621 3.48389 19.6364 3.60299C19.7107 3.72209 19.75 3.85965 19.75 4.00001V13.3538C19.75 13.5527 19.671 13.7434 19.5303 13.8841C19.3897 14.0247 19.1989 14.1038 19 14.1038C18.8011 14.1038 18.6103 14.0247 18.4697 13.8841C18.329 13.7434 18.25 13.5527 18.25 13.3538V5.53376L14.4788 8.46626C14.3218 8.58842 14.1227 8.64323 13.9253 8.61861C13.7279 8.594 13.5484 8.49198 13.4263 8.33501ZM30.75 16C30.7517 18.3986 29.8677 20.7133 28.2675 22.5C28.2026 22.576 28.1231 22.6383 28.0338 22.6831C27.9445 22.728 27.8471 22.7545 27.7474 22.7612C27.6477 22.7679 27.5476 22.7546 27.4531 22.722C27.3586 22.6895 27.2716 22.6384 27.1971 22.5718C27.1226 22.5051 27.0622 22.4243 27.0194 22.3339C26.9766 22.2436 26.9523 22.1457 26.948 22.0458C26.9436 21.946 26.9592 21.8462 26.9939 21.7525C27.0286 21.6588 27.0817 21.5729 27.15 21.5C28.5029 19.9874 29.2508 18.0293 29.2508 16C29.2508 13.9707 28.5029 12.0126 27.15 10.5C27.0817 10.4271 27.0286 10.3412 26.9939 10.2475C26.9592 10.1538 26.9436 10.0541 26.948 9.95421C26.9523 9.85436 26.9766 9.7564 27.0194 9.66607C27.0622 9.57575 27.1226 9.49489 27.1971 9.42824C27.2716 9.36159 27.3586 9.3105 27.4531 9.27797C27.5476 9.24544 27.6477 9.23213 27.7474 9.23882C27.8471 9.2455 27.9445 9.27205 28.0338 9.31691C28.1231 9.36176 28.2026 9.42402 28.2675 9.50001C29.8677 11.2868 30.7517 13.6015 30.75 16Z" fill="white"/>
</svg>
