<svg width="32" height="32" viewBox="0 0 32 32" fill="none" xmlns="http://www.w3.org/2000/svg">
<path d="M20.33 3.32621C20.2039 3.26445 20.063 3.23933 19.9234 3.25369C19.7837 3.26806 19.6509 3.32133 19.54 3.40746L10.7425 10.25H5C4.53587 10.25 4.09075 10.4343 3.76256 10.7625C3.43437 11.0907 3.25 11.5358 3.25 12V20C3.25 20.4641 3.43437 20.9092 3.76256 21.2374C4.09075 21.5656 4.53587 21.75 5 21.75H10.7425L19.54 28.5925C19.6509 28.6786 19.7837 28.7318 19.9233 28.7462C20.0629 28.7605 20.2038 28.7354 20.3298 28.6737C20.4559 28.6119 20.5621 28.5161 20.6364 28.397C20.7107 28.2779 20.75 28.1403 20.75 28V3.99996C20.75 3.85961 20.7107 3.72206 20.6365 3.60295C20.5622 3.48385 20.456 3.38797 20.33 3.32621ZM19.25 26.4662L11.46 20.4075C11.3284 20.3053 11.1666 20.2499 11 20.25H5C4.9337 20.25 4.87011 20.2236 4.82322 20.1767C4.77634 20.1299 4.75 20.0663 4.75 20V12C4.75 11.9337 4.77634 11.8701 4.82322 11.8232C4.87011 11.7763 4.9337 11.75 5 11.75H11C11.1666 11.75 11.3284 11.6946 11.46 11.5925L19.25 5.53371V26.4662ZM25.75 13V19C25.75 19.1989 25.671 19.3896 25.5303 19.5303C25.3897 19.6709 25.1989 19.75 25 19.75C24.8011 19.75 24.6103 19.6709 24.4697 19.5303C24.329 19.3896 24.25 19.1989 24.25 19V13C24.25 12.801 24.329 12.6103 24.4697 12.4696C24.6103 12.329 24.8011 12.25 25 12.25C25.1989 12.25 25.3897 12.329 25.5303 12.4696C25.671 12.6103 25.75 12.801 25.75 13Z" fill="white"/>
</svg>
