<svg width="32" height="32" viewBox="0 0 32 32" fill="none" xmlns="http://www.w3.org/2000/svg">
<path d="M20.33 3.32621C20.2039 3.26445 20.063 3.23933 19.9234 3.25369C19.7837 3.26806 19.6509 3.32133 19.54 3.40746L10.7425 10.25H5C4.53587 10.25 4.09075 10.4343 3.76256 10.7625C3.43437 11.0907 3.25 11.5358 3.25 12V20C3.25 20.4641 3.43437 20.9092 3.76256 21.2374C4.09075 21.5656 4.53587 21.75 5 21.75H10.7425L19.54 28.5925C19.6509 28.6786 19.7837 28.7318 19.9233 28.7462C20.0629 28.7605 20.2038 28.7354 20.3298 28.6737C20.4559 28.6119 20.5621 28.5161 20.6364 28.397C20.7107 28.2779 20.75 28.1403 20.75 28V3.99996C20.75 3.85961 20.7107 3.72206 20.6365 3.60295C20.5622 3.48385 20.456 3.38797 20.33 3.32621ZM19.25 26.4662L11.46 20.4075C11.3284 20.3053 11.1666 20.2499 11 20.25H5C4.9337 20.25 4.87011 20.2236 4.82322 20.1767C4.77634 20.1299 4.75 20.0663 4.75 20V12C4.75 11.9337 4.77634 11.8701 4.82322 11.8232C4.87011 11.7763 4.9337 11.75 5 11.75H11C11.1666 11.75 11.3284 11.6946 11.46 11.5925L19.25 5.53371V26.4662ZM31.53 18.4662C31.6037 18.5349 31.6628 18.6177 31.7038 18.7097C31.7448 18.8017 31.7668 18.901 31.7686 19.0017C31.7704 19.1024 31.7518 19.2024 31.7141 19.2958C31.6764 19.3892 31.6203 19.474 31.549 19.5452C31.4778 19.6165 31.393 19.6726 31.2996 19.7103C31.2062 19.7481 31.1062 19.7666 31.0055 19.7648C30.9048 19.763 30.8055 19.741 30.7135 19.7C30.6215 19.659 30.5387 19.5999 30.47 19.5262L28 17.06L25.53 19.53C25.3878 19.6624 25.1998 19.7346 25.0055 19.7311C24.8112 19.7277 24.6258 19.649 24.4884 19.5116C24.351 19.3742 24.2723 19.1888 24.2688 18.9945C24.2654 18.8002 24.3375 18.6121 24.47 18.47L26.94 16L24.47 13.53C24.3375 13.3878 24.2654 13.1997 24.2688 13.0054C24.2723 12.8111 24.351 12.6258 24.4884 12.4883C24.6258 12.3509 24.8112 12.2722 25.0055 12.2688C25.1998 12.2654 25.3878 12.3375 25.53 12.47L28 14.94L30.47 12.47C30.6122 12.3375 30.8002 12.2654 30.9945 12.2688C31.1888 12.2722 31.3742 12.3509 31.5116 12.4883C31.649 12.6258 31.7277 12.8111 31.7312 13.0054C31.7346 13.1997 31.6625 13.3878 31.53 13.53L29.06 16L31.53 18.4662Z" fill="white"/>
</svg>
