<svg width="32" height="32" viewBox="0 0 32 32" fill="none" xmlns="http://www.w3.org/2000/svg">
<path d="M14.4702 19.47L26.4702 7.47C26.6124 7.33752 26.8004 7.2654 26.9947 7.26883C27.189 7.27225 27.3744 7.35097 27.5118 7.48838C27.6493 7.62579 27.728 7.81118 27.7314 8.00548C27.7348 8.19978 27.6627 8.38782 27.5302 8.53L15.5302 20.53C15.388 20.6625 15.2 20.7346 15.0057 20.7312C14.8114 20.7277 14.626 20.649 14.4886 20.5116C14.3512 20.3742 14.2725 20.1888 14.269 19.9945C14.2656 19.8002 14.3377 19.6122 14.4702 19.47ZM16.0002 10.75C16.8961 10.7491 17.7861 10.8943 18.6352 11.18C18.8239 11.2435 19.03 11.2294 19.2083 11.1409C19.3865 11.0524 19.5224 10.8968 19.5858 10.7081C19.6493 10.5195 19.6353 10.3134 19.5468 10.1351C19.4583 9.95681 19.3026 9.82099 19.114 9.7575C17.5602 9.23373 15.8993 9.1103 14.2852 9.39862C12.671 9.68694 11.1556 10.3777 9.87921 11.407C8.6028 12.4363 7.6066 13.7709 6.98277 15.2873C6.35893 16.8037 6.12762 18.453 6.31022 20.0825C6.33061 20.2668 6.41855 20.437 6.55705 20.5603C6.69556 20.6835 6.87481 20.7511 7.06022 20.75C7.08811 20.7518 7.11609 20.7518 7.14397 20.75C7.34151 20.728 7.52224 20.6285 7.64646 20.4733C7.77068 20.3182 7.82823 20.1201 7.80647 19.9225C7.77125 19.6162 7.75247 19.3083 7.75022 19C7.75287 16.8128 8.62291 14.7159 10.1695 13.1693C11.7161 11.6227 13.813 10.7526 16.0002 10.75ZM28.2502 12.7375C28.2052 12.6498 28.1434 12.5719 28.0683 12.5081C27.9932 12.4444 27.9063 12.396 27.8125 12.3658C27.7187 12.3356 27.6199 12.3242 27.5217 12.3322C27.4235 12.3403 27.3279 12.3675 27.2402 12.4125C27.1526 12.4575 27.0746 12.5193 27.0109 12.5944C26.9471 12.6695 26.8987 12.7564 26.8685 12.8502C26.8384 12.944 26.827 13.0428 26.835 13.141C26.843 13.2392 26.8702 13.3348 26.9152 13.4225C27.6704 14.9047 28.117 16.5247 28.2279 18.1845C28.3387 19.8443 28.1116 21.5093 27.5602 23.0788C27.5436 23.1288 27.5115 23.1724 27.4687 23.2031C27.4258 23.2339 27.3743 23.2503 27.3215 23.25H4.68272C4.62965 23.2487 4.57828 23.231 4.53557 23.1995C4.49286 23.168 4.46088 23.1241 4.44397 23.0737C3.79929 21.226 3.60557 19.251 3.87897 17.3133C4.15236 15.3755 4.88496 13.5312 6.01568 11.934C7.14641 10.3368 8.64252 9.03297 10.3793 8.13122C12.1161 7.22947 14.0433 6.75591 16.0002 6.75H16.1127C18.0138 6.76214 19.8855 7.22116 21.5765 8.09C21.6645 8.13506 21.7605 8.16235 21.859 8.17031C21.9575 8.17827 22.0567 8.16674 22.1507 8.13639C22.2448 8.10603 22.332 8.05745 22.4073 7.9934C22.4826 7.92936 22.5445 7.85111 22.5896 7.76312C22.6347 7.67514 22.6619 7.57914 22.6699 7.48061C22.6779 7.38208 22.6663 7.28294 22.636 7.18886C22.6056 7.09479 22.557 7.00761 22.493 6.93231C22.429 6.85701 22.3507 6.79506 22.2627 6.75C20.3628 5.77566 18.2604 5.26182 16.1252 5.25H16.0002C13.8017 5.25109 11.6355 5.77904 9.68306 6.78963C7.73061 7.80021 6.04878 9.264 4.77848 11.0584C3.50818 12.8527 2.68641 14.9254 2.38202 17.1027C2.07762 19.28 2.29947 21.4986 3.02897 23.5725C3.14928 23.9155 3.37285 24.2129 3.66896 24.4237C3.96508 24.6346 4.31922 24.7485 4.68272 24.75H27.3165C27.6791 24.7491 28.0326 24.6361 28.3284 24.4264C28.6243 24.2167 28.848 23.9206 28.969 23.5788C29.5894 21.8172 29.8456 19.9479 29.7221 18.0844C29.5985 16.2208 29.0978 14.4018 28.2502 12.7375Z" fill="white"/>
</svg>
