<svg width="32" height="32" viewBox="0 0 32 32" fill="none" xmlns="http://www.w3.org/2000/svg">
<path d="M16 3.25C13.4783 3.25 11.0132 3.99777 8.91648 5.39876C6.81976 6.79975 5.18556 8.79103 4.22054 11.1208C3.25552 13.4505 3.00303 16.0141 3.49499 18.4874C3.98696 20.9607 5.20127 23.2325 6.98439 25.0156C8.76751 26.7987 11.0393 28.0131 13.5126 28.505C15.9859 28.997 18.5495 28.7445 20.8792 27.7795C23.209 26.8144 25.2003 25.1802 26.6012 23.0835C28.0022 20.9868 28.75 18.5217 28.75 16C28.746 12.6197 27.4015 9.379 25.0112 6.98877C22.621 4.59854 19.3803 3.25397 16 3.25ZM27.25 16C27.25 16.8237 25.6325 17.655 24.25 18.1175C23.0714 18.4956 21.8617 18.7688 20.635 18.9338C20.7125 17.9838 20.7525 17.0013 20.7525 16C20.7525 12.7162 20.3225 9.625 19.5425 7.2775C19.2961 6.49539 18.9606 5.7442 18.5425 5.03875C21.0171 5.61655 23.2239 7.01372 24.8045 9.00348C26.3852 10.9932 27.2469 13.4588 27.25 16ZM16 4.75C16.8238 4.75 17.655 6.3675 18.1175 7.75C18.8475 9.94125 19.25 12.875 19.25 16C19.25 17.1038 19.2 18.1438 19.1113 19.1112C18.1113 19.2025 17.0675 19.25 16 19.25C9.13251 19.25 4.75001 17.325 4.75001 16C4.75331 13.0173 5.93964 10.1578 8.04871 8.0487C10.1578 5.93964 13.0173 4.75331 16 4.75ZM5.03876 18.5375C5.74421 18.9555 6.49539 19.2911 7.27751 19.5375C9.62501 20.32 12.7163 20.75 16 20.75C17 20.75 17.9825 20.71 18.9313 20.6325C18.33 24.775 17 27.25 16 27.25C13.4581 27.2467 10.992 26.3842 9.00219 24.8025C7.01233 23.2209 5.61558 21.0131 5.03876 18.5375ZM18.5388 26.9613C18.9568 26.2558 19.2923 25.5046 19.5388 24.7225C19.9819 23.3384 20.2929 21.9153 20.4675 20.4725C21.9103 20.2979 23.3334 19.9869 24.7175 19.5438C25.4996 19.2973 26.2508 18.9618 26.9563 18.5438C26.4767 20.5919 25.4344 22.4653 23.9468 23.9526C22.4593 25.44 20.5857 26.482 18.5375 26.9613H18.5388Z" fill="white"/>
</svg>
