<svg width="32" height="32" viewBox="0 0 32 32" fill="none" xmlns="http://www.w3.org/2000/svg">
<path d="M16 3.25C13.4783 3.25 11.0132 3.99777 8.91648 5.39876C6.81976 6.79975 5.18556 8.79103 4.22054 11.1208C3.25552 13.4505 3.00303 16.0141 3.49499 18.4874C3.98696 20.9607 5.20127 23.2325 6.98439 25.0156C8.76751 26.7987 11.0393 28.0131 13.5126 28.505C15.9859 28.997 18.5495 28.7445 20.8792 27.7795C23.209 26.8144 25.2003 25.1802 26.6012 23.0835C28.0022 20.9868 28.75 18.5217 28.75 16C28.746 12.6197 27.4015 9.379 25.0112 6.98877C22.621 4.59854 19.3803 3.25397 16 3.25ZM27.2363 15.43C23.3613 18.2263 20.5288 17.35 17.495 15.8988C20.1738 14.055 22.7788 11.7475 22.6838 6.95625C24.0218 7.9443 25.1241 9.21677 25.9113 10.682C26.6985 12.1473 27.151 13.7689 27.2363 15.43ZM21.125 5.98625C21.605 10.7362 19.4338 12.7525 16.6613 14.6538C16.4025 11.4113 15.7088 8 11.5075 5.6875C13.0327 5.02195 14.6866 4.70351 16.3499 4.75517C18.0131 4.80684 19.6441 5.22732 21.125 5.98625ZM9.89251 6.55625C14.25 8.51875 14.9038 11.4037 15.165 14.75C12.2275 13.3525 8.92501 12.25 4.82126 14.7288C5.01094 13.0767 5.56403 11.4871 6.44084 10.0741C7.31764 8.66107 8.4964 7.45972 9.89251 6.55625ZM4.76751 16.57C8.64876 13.7737 11.475 14.65 14.5088 16.1012C11.8263 17.945 9.22126 20.25 9.31626 25.0438C7.97819 24.0557 6.87587 22.7832 6.08867 21.318C5.30146 19.8527 4.84896 18.2311 4.76376 16.57H4.76751ZM10.875 26.0138C10.395 21.2638 12.5663 19.2475 15.3388 17.3463C15.5963 20.5888 16.29 24.0012 20.4913 26.3125C18.9663 26.9779 17.3125 27.2962 15.6495 27.2445C13.9865 27.1929 12.3557 26.7725 10.875 26.0138ZM22.1063 25.4438C17.75 23.4813 17.0963 20.5963 16.835 17.25C18.505 18.045 20.2938 18.75 22.28 18.75C23.7875 18.75 25.405 18.3463 27.1788 17.2763C26.9881 18.9274 26.4346 20.5159 25.5578 21.9279C24.6811 23.34 23.5028 24.5406 22.1075 25.4438H22.1063Z" fill="white"/>
</svg>
