<svg width="32" height="32" viewBox="0 0 32 32" fill="none" xmlns="http://www.w3.org/2000/svg">
<path d="M26.75 19C26.75 19.1989 26.671 19.3896 26.5303 19.5303C26.3897 19.6709 26.1989 19.75 26 19.75H16.75V27.1887L19.47 24.4699C19.6122 24.3375 19.8002 24.2653 19.9945 24.2688C20.1888 24.2722 20.3742 24.3509 20.5116 24.4883C20.649 24.6257 20.7277 24.8111 20.7312 25.0054C20.7346 25.1997 20.6625 25.3878 20.53 25.53L16.53 29.53C16.3894 29.6704 16.1988 29.7493 16 29.7493C15.8012 29.7493 15.6106 29.6704 15.47 29.53L11.47 25.53C11.3375 25.3878 11.2654 25.1997 11.2688 25.0054C11.2723 24.8111 11.351 24.6257 11.4884 24.4883C11.6258 24.3509 11.8112 24.2722 12.0055 24.2688C12.1998 24.2653 12.3878 24.3375 12.53 24.4699L15.25 27.1887V19.75H6C5.80109 19.75 5.61032 19.6709 5.46967 19.5303C5.32902 19.3896 5.25 19.1989 5.25 19C5.25 18.801 5.32902 18.6103 5.46967 18.4696C5.61032 18.329 5.80109 18.25 6 18.25H26C26.1989 18.25 26.3897 18.329 26.5303 18.4696C26.671 18.6103 26.75 18.801 26.75 19ZM6 13.75H26C26.1989 13.75 26.3897 13.6709 26.5303 13.5303C26.671 13.3896 26.75 13.1989 26.75 13C26.75 12.801 26.671 12.6103 26.5303 12.4696C26.3897 12.329 26.1989 12.25 26 12.25H16.75V4.8112L19.47 7.52995C19.6122 7.66243 19.8002 7.73455 19.9945 7.73113C20.1888 7.7277 20.3742 7.64899 20.5116 7.51157C20.649 7.37416 20.7277 7.18877 20.7312 6.99447C20.7346 6.80017 20.6625 6.61213 20.53 6.46995L16.53 2.46995C16.3894 2.3295 16.1988 2.25061 16 2.25061C15.8012 2.25061 15.6106 2.3295 15.47 2.46995L11.47 6.46995C11.3375 6.61213 11.2654 6.80017 11.2688 6.99447C11.2723 7.18877 11.351 7.37416 11.4884 7.51157C11.6258 7.64899 11.8112 7.7277 12.0055 7.73113C12.1998 7.73455 12.3878 7.66243 12.53 7.52995L15.25 4.8112V12.25H6C5.80109 12.25 5.61032 12.329 5.46967 12.4696C5.32902 12.6103 5.25 12.801 5.25 13C5.25 13.1989 5.32902 13.3896 5.46967 13.5303C5.61032 13.6709 5.80109 13.75 6 13.75Z" fill="white"/>
</svg>
