<svg width="32" height="32" viewBox="0 0 32 32" fill="none" xmlns="http://www.w3.org/2000/svg">
<path d="M25 9.75C25.1989 9.75 25.3897 9.67098 25.5303 9.53033C25.671 9.38968 25.75 9.19891 25.75 9C25.748 7.2104 25.0362 5.49466 23.7708 4.22922C22.5053 2.96378 20.7896 2.25199 19 2.25H10C9.53587 2.25 9.09075 2.43437 8.76256 2.76256C8.43437 3.09075 8.25 3.53587 8.25 4V10C8.25 10.4268 8.16594 10.8494 8.00261 11.2437C7.83928 11.638 7.59989 11.9963 7.2981 12.2981C6.99631 12.5999 6.63803 12.8393 6.24372 13.0026C5.84941 13.1659 5.4268 13.25 5 13.25C4.80109 13.25 4.61032 13.329 4.46967 13.4697C4.32902 13.6103 4.25 13.8011 4.25 14C4.25 14.1989 4.32902 14.3897 4.46967 14.5303C4.61032 14.671 4.80109 14.75 5 14.75C6.25978 14.75 7.46796 14.2496 8.35876 13.3588C9.24955 12.468 9.75 11.2598 9.75 10V9.75H14.25V13.0775C14.2511 13.5651 14.1419 14.0466 13.9307 14.486C13.7194 14.9254 13.4115 15.3114 13.03 15.615L11.03 17.2138C10.473 17.6578 10.0236 18.2221 9.71532 18.8643C9.40708 19.5065 9.24801 20.2101 9.25 20.9225V28C9.25 28.4641 9.43437 28.9092 9.76256 29.2374C10.0908 29.5656 10.5359 29.75 11 29.75H24C24.4641 29.75 24.9092 29.5656 25.2374 29.2374C25.5656 28.9092 25.75 28.4641 25.75 28V26.4338C25.7511 20.5818 24.2245 14.831 21.3213 9.75H25ZM9.75 4C9.75 3.9337 9.77634 3.87011 9.82322 3.82322C9.87011 3.77634 9.9337 3.75 10 3.75H19C20.262 3.75153 21.4814 4.20698 22.4354 5.03317C23.3894 5.85935 24.0144 7.00114 24.1963 8.25H9.75V4ZM24.25 26.4338V28C24.25 28.0663 24.2237 28.1299 24.1768 28.1768C24.1299 28.2237 24.0663 28.25 24 28.25H11C10.9337 28.25 10.8701 28.2237 10.8232 28.1768C10.7763 28.1299 10.75 28.0663 10.75 28V20.9225C10.7489 20.4349 10.8581 19.9534 11.0693 19.514C11.2806 19.0746 11.5885 18.6886 11.97 18.385L13.97 16.7862C14.527 16.3422 14.9764 15.7779 15.2847 15.1357C15.5929 14.4935 15.752 13.7899 15.75 13.0775V9.75H19.58C22.6361 14.7782 24.2516 20.5496 24.25 26.4338Z" fill="white"/>
</svg>
