<svg width="32" height="32" viewBox="0 0 32 32" fill="none" xmlns="http://www.w3.org/2000/svg">
<path d="M1.62497 13.6513L15.625 21.6513C15.739 21.7171 15.8683 21.7518 16 21.7518C16.1316 21.7518 16.261 21.7171 16.375 21.6513L30.375 13.6513C30.4898 13.5857 30.5853 13.4909 30.6516 13.3765C30.718 13.2622 30.753 13.1323 30.753 13C30.753 12.8678 30.718 12.7379 30.6516 12.6235C30.5853 12.5091 30.4898 12.4144 30.375 12.3488L16.375 4.34877C16.261 4.28295 16.1316 4.24829 16 4.24829C15.8683 4.24829 15.739 4.28295 15.625 4.34877L1.62497 12.3488C1.51014 12.4144 1.4147 12.5091 1.34831 12.6235C1.28192 12.7379 1.24696 12.8678 1.24696 13C1.24696 13.1323 1.28192 13.2622 1.34831 13.3765C1.4147 13.4909 1.51014 13.5857 1.62497 13.6513ZM16 5.86377L28.4887 13L16 20.1363L3.51122 13L16 5.86377ZM30.6512 17.625C30.7002 17.7105 30.7318 17.8049 30.7443 17.9026C30.7568 18.0003 30.7499 18.0996 30.724 18.1947C30.6981 18.2897 30.6537 18.3788 30.5934 18.4567C30.5331 18.5346 30.458 18.5999 30.3725 18.6488L16.3725 26.6488C16.2585 26.7146 16.1291 26.7493 15.9975 26.7493C15.8658 26.7493 15.7365 26.7146 15.6225 26.6488L1.62247 18.6488C1.44975 18.5493 1.32361 18.3853 1.2718 18.1929C1.22 18.0004 1.24677 17.7952 1.34622 17.6225C1.44568 17.4498 1.60968 17.3237 1.80213 17.2719C1.99459 17.22 2.19975 17.2468 2.37247 17.3463L15.9975 25.1338L29.6225 17.3463C29.7082 17.2965 29.8029 17.2643 29.9012 17.2514C29.9995 17.2385 30.0993 17.2452 30.195 17.2711C30.2906 17.297 30.3802 17.3417 30.4585 17.4024C30.5368 17.4631 30.6023 17.5388 30.6512 17.625Z" fill="white"/>
</svg>
