<svg width="32" height="32" viewBox="0 0 32 32" fill="none" xmlns="http://www.w3.org/2000/svg">
<path d="M26.75 19.0113V27C26.75 27.1989 26.671 27.3897 26.5303 27.5303C26.3897 27.671 26.1989 27.75 26 27.75H6C5.80109 27.75 5.61032 27.671 5.46967 27.5303C5.32902 27.3897 5.25 27.1989 5.25 27V19.0113C5.25 18.8123 5.32902 18.6216 5.46967 18.4809C5.61032 18.3403 5.80109 18.2613 6 18.2613C6.19891 18.2613 6.38968 18.3403 6.53033 18.4809C6.67098 18.6216 6.75 18.8123 6.75 19.0113V26.25H25.25V19.0113C25.25 18.8123 25.329 18.6216 25.4697 18.4809C25.6103 18.3403 25.8011 18.2613 26 18.2613C26.1989 18.2613 26.3897 18.3403 26.5303 18.4809C26.671 18.6216 26.75 18.8123 26.75 19.0113ZM11 22.7613H21C21.1989 22.7613 21.3897 22.6822 21.5303 22.5416C21.671 22.4009 21.75 22.2102 21.75 22.0113C21.75 21.8123 21.671 21.6216 21.5303 21.4809C21.3897 21.3403 21.1989 21.2613 21 21.2613H11C10.8011 21.2613 10.6103 21.3403 10.4697 21.4809C10.329 21.6216 10.25 21.8123 10.25 22.0113C10.25 22.2102 10.329 22.4009 10.4697 22.5416C10.6103 22.6822 10.8011 22.7613 11 22.7613ZM11.675 16.145L21.3337 18.7288C21.4307 18.7608 21.5331 18.7727 21.6348 18.7638C21.7365 18.7549 21.8353 18.7253 21.9251 18.6768C22.0149 18.6284 22.094 18.5621 22.1573 18.4821C22.2206 18.4021 22.267 18.3099 22.2935 18.2114C22.32 18.1128 22.3261 18.0098 22.3114 17.9088C22.2967 17.8078 22.2616 17.7109 22.2081 17.6239C22.1547 17.5369 22.084 17.4618 22.0005 17.4031C21.917 17.3444 21.8224 17.3034 21.7225 17.2825L12.0625 14.6925C11.9659 14.6619 11.8641 14.6512 11.7632 14.661C11.6623 14.6709 11.5645 14.7011 11.4756 14.7498C11.3868 14.7985 11.3087 14.8647 11.2461 14.9444C11.1835 15.0241 11.1378 15.1157 11.1115 15.2135C11.0853 15.3114 11.0792 15.4136 11.0936 15.514C11.108 15.6143 11.1426 15.7106 11.1952 15.7972C11.2479 15.8838 11.3176 15.9588 11.4 16.0177C11.4825 16.0767 11.576 16.1182 11.675 16.14V16.145ZM14.0413 9.9275L22.7013 14.9275C22.8154 14.9929 22.9447 15.0274 23.0763 15.0275C23.2407 15.0267 23.4004 14.9719 23.5306 14.8716C23.6609 14.7712 23.7545 14.6307 23.7972 14.4719C23.8398 14.313 23.829 14.1446 23.7665 13.9925C23.704 13.8404 23.5932 13.713 23.4513 13.63L14.7913 8.625C14.7059 8.57074 14.6104 8.5343 14.5106 8.51788C14.4108 8.50147 14.3087 8.50541 14.2105 8.52948C14.1122 8.55354 14.0198 8.59723 13.9389 8.65792C13.858 8.71861 13.7902 8.79503 13.7396 8.88261C13.6889 8.97018 13.6566 9.06709 13.6444 9.1675C13.6322 9.26792 13.6404 9.36976 13.6686 9.46691C13.6968 9.56405 13.7443 9.65449 13.8084 9.73279C13.8724 9.81109 13.9516 9.87562 14.0413 9.9225V9.9275ZM25.01 11.5963C25.1522 11.7287 25.3402 11.8009 25.5345 11.7974C25.7288 11.794 25.9142 11.7153 26.0516 11.5779C26.189 11.4405 26.2677 11.2551 26.2712 11.0608C26.2746 10.8665 26.2025 10.6784 26.07 10.5363L19 3.47C18.9318 3.39467 18.8491 3.33398 18.7567 3.29161C18.6644 3.24924 18.5644 3.22607 18.4628 3.2235C18.3613 3.22094 18.2602 3.23905 18.1659 3.27671C18.0715 3.31438 17.9858 3.37082 17.9139 3.44262C17.842 3.51442 17.7855 3.60008 17.7477 3.69439C17.7099 3.78871 17.6917 3.88971 17.6941 3.99128C17.6966 4.09285 17.7196 4.19287 17.7619 4.28526C17.8042 4.37765 17.8648 4.46049 17.94 4.52875L25.01 11.5963Z" fill="white"/>
</svg>
