<svg width="32" height="32" viewBox="0 0 32 32" fill="none" xmlns="http://www.w3.org/2000/svg">
<path d="M29.75 25.0001C29.75 25.199 29.671 25.3897 29.5303 25.5304C29.3897 25.671 29.1989 25.7501 29 25.7501H23C22.8011 25.7501 22.6103 25.671 22.4697 25.5304C22.329 25.3897 22.25 25.199 22.25 25.0001C22.25 24.8011 22.329 24.6104 22.4697 24.4697C22.6103 24.3291 22.8011 24.2501 23 24.2501H29C29.1989 24.2501 29.3897 24.3291 29.5303 24.4697C29.671 24.6104 29.75 24.8011 29.75 25.0001ZM27.625 15.3526L16 22.1313L4.375 15.3526C4.20442 15.2688 4.00839 15.2528 3.82652 15.308C3.64465 15.3632 3.49052 15.4854 3.39527 15.6498C3.30002 15.8143 3.27076 16.0088 3.31341 16.194C3.35605 16.3792 3.46742 16.5413 3.625 16.6476L15.625 23.6476C15.739 23.7134 15.8683 23.748 16 23.748C16.1317 23.748 16.261 23.7134 16.375 23.6476L28.375 16.6476C28.5326 16.5413 28.6439 16.3792 28.6866 16.194C28.7292 16.0088 28.7 15.8143 28.6047 15.6498C28.5095 15.4854 28.3553 15.3632 28.1735 15.308C27.9916 15.2528 27.7956 15.2688 27.625 15.3526ZM3.25 10.0001C3.25035 9.86875 3.28518 9.73983 3.35098 9.6262C3.41679 9.51257 3.51128 9.41821 3.625 9.35256L15.625 2.35256C15.739 2.28673 15.8683 2.25208 16 2.25208C16.1317 2.25208 16.261 2.28673 16.375 2.35256L28.375 9.35256C28.4881 9.41865 28.5819 9.5132 28.647 9.6268C28.7122 9.7404 28.7465 9.86909 28.7465 10.0001C28.7465 10.131 28.7122 10.2597 28.647 10.3733C28.5819 10.4869 28.4881 10.5815 28.375 10.6476L16.375 17.6476C16.261 17.7134 16.1317 17.748 16 17.748C15.8683 17.748 15.739 17.7134 15.625 17.6476L3.625 10.6476C3.51128 10.5819 3.41679 10.4875 3.35098 10.3739C3.28518 10.2603 3.25035 10.1314 3.25 10.0001ZM5.48875 10.0001L16 16.1313L26.5112 10.0001L16 3.87506L5.48875 10.0001ZM17.625 27.1851L16 28.1313L4.375 21.3526C4.20442 21.2688 4.00839 21.2528 3.82652 21.308C3.64465 21.3632 3.49052 21.4854 3.39527 21.6498C3.30002 21.8143 3.27076 22.0088 3.31341 22.194C3.35605 22.3792 3.46742 22.5413 3.625 22.6476L15.625 29.6476C15.739 29.7134 15.8683 29.748 16 29.748C16.1317 29.748 16.261 29.7134 16.375 29.6476L18.375 28.4813C18.5351 28.3761 18.6489 28.2137 18.693 28.0273C18.7371 27.8409 18.7083 27.6447 18.6124 27.4789C18.5164 27.3131 18.3607 27.1903 18.1771 27.1356C17.9935 27.081 17.796 27.0987 17.625 27.1851Z" fill="white"/>
</svg>
