<svg width="32" height="32" viewBox="0 0 32 32" fill="none" xmlns="http://www.w3.org/2000/svg">
<path d="M28.6475 21.6251C28.7475 21.7968 28.7752 22.0012 28.7246 22.1934C28.674 22.3856 28.5491 22.5498 28.3775 22.6501L16.3775 29.6501C16.2635 29.7159 16.1342 29.7505 16.0025 29.7505C15.8708 29.7505 15.7415 29.7159 15.6275 29.6501L3.6275 22.6501C3.46992 22.5438 3.35855 22.3817 3.31591 22.1965C3.27326 22.0113 3.30252 21.8168 3.39777 21.6523C3.49302 21.4879 3.64715 21.3657 3.82902 21.3105C4.01089 21.2553 4.20692 21.2712 4.3775 21.3551L16.0025 28.1338L27.6275 21.3551C27.7988 21.2566 28.002 21.2298 28.193 21.2804C28.384 21.3309 28.5473 21.4548 28.6475 21.6251ZM27.625 15.3526L16 22.1313L4.375 15.3526C4.20442 15.2688 4.00839 15.2528 3.82652 15.308C3.64465 15.3632 3.49052 15.4854 3.39527 15.6498C3.30002 15.8143 3.27076 16.0088 3.31341 16.194C3.35605 16.3792 3.46742 16.5413 3.625 16.6476L15.625 23.6476C15.739 23.7134 15.8683 23.748 16 23.748C16.1317 23.748 16.261 23.7134 16.375 23.6476L28.375 16.6476C28.5326 16.5413 28.6439 16.3792 28.6866 16.194C28.7292 16.0088 28.7 15.8143 28.6047 15.6498C28.5095 15.4854 28.3553 15.3632 28.1735 15.308C27.9916 15.2528 27.7956 15.2688 27.625 15.3526ZM3.25 10.0001C3.25035 9.86875 3.28518 9.73983 3.35098 9.6262C3.41679 9.51257 3.51128 9.41821 3.625 9.35256L15.625 2.35256C15.739 2.28673 15.8683 2.25208 16 2.25208C16.1317 2.25208 16.261 2.28673 16.375 2.35256L28.375 9.35256C28.4881 9.41865 28.5819 9.5132 28.647 9.6268C28.7122 9.7404 28.7465 9.86909 28.7465 10.0001C28.7465 10.131 28.7122 10.2597 28.647 10.3733C28.5819 10.4869 28.4881 10.5815 28.375 10.6476L16.375 17.6476C16.261 17.7134 16.1317 17.748 16 17.748C15.8683 17.748 15.739 17.7134 15.625 17.6476L3.625 10.6476C3.51128 10.5819 3.41679 10.4875 3.35098 10.3739C3.28518 10.2603 3.25035 10.1314 3.25 10.0001ZM5.48875 10.0001L16 16.1313L26.5112 10.0001L16 3.87506L5.48875 10.0001Z" fill="white"/>
</svg>
