<svg width="32" height="32" viewBox="0 0 32 32" fill="none" xmlns="http://www.w3.org/2000/svg">
<path d="M18 9.25C17.8011 9.25 17.6103 9.32902 17.4697 9.46967C17.329 9.61032 17.25 9.80109 17.25 10V22C17.25 22.1989 17.329 22.3897 17.4697 22.5303C17.6103 22.671 17.8011 22.75 18 22.75H21C22.7902 22.75 24.5071 22.0388 25.773 20.773C27.0388 19.5071 27.75 17.7902 27.75 16C27.75 14.2098 27.0388 12.4929 25.773 11.227C24.5071 9.96116 22.7902 9.25 21 9.25H18ZM26.25 16C26.25 17.3924 25.6969 18.7277 24.7123 19.7123C23.7277 20.6969 22.3924 21.25 21 21.25H18.75V10.75H21C22.3924 10.75 23.7277 11.3031 24.7123 12.2877C25.6969 13.2723 26.25 14.6076 26.25 16ZM3.25 6C3.25 5.80109 3.32902 5.61032 3.46967 5.46967C3.61032 5.32902 3.80109 5.25 4 5.25H28C28.1989 5.25 28.3897 5.32902 28.5303 5.46967C28.671 5.61032 28.75 5.80109 28.75 6C28.75 6.19891 28.671 6.38968 28.5303 6.53033C28.3897 6.67098 28.1989 6.75 28 6.75H4C3.80109 6.75 3.61032 6.67098 3.46967 6.53033C3.32902 6.38968 3.25 6.19891 3.25 6ZM28.75 26C28.75 26.1989 28.671 26.3897 28.5303 26.5303C28.3897 26.671 28.1989 26.75 28 26.75H4C3.80109 26.75 3.61032 26.671 3.46967 26.5303C3.32902 26.3897 3.25 26.1989 3.25 26C3.25 25.8011 3.32902 25.6103 3.46967 25.4697C3.61032 25.329 3.80109 25.25 4 25.25H28C28.1989 25.25 28.3897 25.329 28.5303 25.4697C28.671 25.6103 28.75 25.8011 28.75 26ZM13.25 19C13.25 17.5988 11.9125 17.1125 9.70875 16.4775C7.7225 15.905 5.4725 15.2563 5.4725 13C5.4725 10.8625 7.41875 9.25 10 9.25C11.875 9.25 13.4675 10.11 14.1675 11.5C14.2573 11.6775 14.273 11.8835 14.211 12.0725C14.149 12.2616 14.0144 12.4183 13.8369 12.5081C13.6593 12.598 13.4534 12.6136 13.2643 12.5516C13.0753 12.4896 12.9186 12.355 12.8287 12.1775C12.385 11.295 11.3013 10.75 10 10.75C8.27375 10.75 6.9725 11.7175 6.9725 13C6.9725 14.0513 8.1625 14.47 10.1237 15.0363C12.185 15.625 14.75 16.375 14.75 19C14.75 21.0675 12.625 22.75 10 22.75C7.375 22.75 5.25 21.0675 5.25 19C5.25 18.8011 5.32902 18.6103 5.46967 18.4697C5.61032 18.329 5.80109 18.25 6 18.25C6.19891 18.25 6.38968 18.329 6.53033 18.4697C6.67098 18.6103 6.75 18.8011 6.75 19C6.75 20.22 8.23875 21.25 10 21.25C11.7612 21.25 13.25 20.22 13.25 19Z" fill="white"/>
</svg>
