<svg width="32" height="32" viewBox="0 0 32 32" fill="none" xmlns="http://www.w3.org/2000/svg">
<path d="M29.66 12.2337C29.5529 11.8949 29.3464 11.5961 29.0673 11.3761C28.7882 11.1561 28.4495 11.025 28.095 11L20.5638 10.3912L17.6613 3.36622C17.5259 3.03694 17.2956 2.75534 16.9998 2.55716C16.7041 2.35898 16.3561 2.25317 16 2.25317C15.644 2.25317 15.296 2.35898 15.0002 2.55716C14.7044 2.75534 14.4742 3.03694 14.3388 3.36622L11.4363 10.3887L3.90502 11C3.55024 11.0252 3.21126 11.1566 2.93215 11.3771C2.65305 11.5976 2.44673 11.8969 2.34002 12.2362C2.22879 12.5746 2.22023 12.9384 2.31544 13.2816C2.41065 13.6249 2.60536 13.9322 2.87502 14.165L8.62502 19.1162L6.87502 26.5225C6.7929 26.8691 6.81547 27.2322 6.93985 27.566C7.06424 27.8998 7.28485 28.1891 7.57377 28.3975C7.85912 28.6089 8.20167 28.7291 8.55655 28.7425C8.91142 28.7559 9.26206 28.6618 9.56252 28.4725L16 24.515L22.4475 28.4787C22.748 28.668 23.0986 28.7622 23.4535 28.7488C23.8084 28.7354 24.1509 28.6151 24.4363 28.4037C24.7252 28.1954 24.9458 27.906 25.0702 27.5723C25.1946 27.2385 25.2171 26.8753 25.135 26.5287L23.385 19.1225L29.125 14.165C29.3952 13.932 29.5902 13.6242 29.6854 13.2805C29.7806 12.9367 29.7718 12.5725 29.66 12.2337ZM28.1425 13.03L22.0563 18.28C21.9524 18.3696 21.8751 18.486 21.8328 18.6164C21.7905 18.7469 21.7848 18.8865 21.8163 19.02L23.6763 26.8687C23.6926 26.928 23.6899 26.9908 23.6686 27.0484C23.6473 27.1061 23.6084 27.1556 23.5575 27.19C23.5114 27.2256 23.4553 27.246 23.397 27.2482C23.3388 27.2505 23.2812 27.2345 23.2325 27.2025L16.3925 23C16.2744 22.9275 16.1386 22.8891 16 22.8891C15.8615 22.8891 15.7256 22.9275 15.6075 23L8.76752 27.2012C8.71879 27.2332 8.66128 27.2492 8.60302 27.247C8.54476 27.2448 8.48865 27.2244 8.44252 27.1887C8.39049 27.1552 8.35039 27.1061 8.32794 27.0484C8.3055 26.9907 8.30185 26.9274 8.31752 26.8675L10.1775 19.0187C10.209 18.8852 10.2033 18.7456 10.161 18.6152C10.1187 18.4847 10.0414 18.3683 9.93752 18.2787L3.85127 13.0287C3.80352 12.9898 3.76907 12.937 3.75272 12.8777C3.73636 12.8183 3.73892 12.7553 3.76002 12.6975C3.77632 12.6404 3.81002 12.5899 3.8564 12.553C3.90278 12.516 3.95954 12.4944 4.01877 12.4912L12.0088 11.8462C12.1464 11.835 12.2784 11.7861 12.39 11.7047C12.5016 11.6233 12.5885 11.5126 12.6413 11.385L15.72 3.93497C15.7415 3.87983 15.7791 3.83244 15.8279 3.79904C15.8768 3.76563 15.9346 3.74776 15.9938 3.74776C16.0529 3.74776 16.1107 3.76563 16.1596 3.79904C16.2084 3.83244 16.2461 3.87983 16.2675 3.93497L19.3463 11.385C19.399 11.5126 19.486 11.6233 19.5976 11.7047C19.7092 11.7861 19.8411 11.835 19.9788 11.8462L27.9688 12.4912C28.028 12.4944 28.0848 12.516 28.1311 12.553C28.1775 12.5899 28.2112 12.6404 28.2275 12.6975C28.2496 12.7549 28.2533 12.8177 28.2381 12.8773C28.2228 12.9369 28.1894 12.9902 28.1425 13.03Z" fill="white"/>
</svg>
