<svg width="32" height="32" viewBox="0 0 32 32" fill="none" xmlns="http://www.w3.org/2000/svg">
<path d="M28.6013 14.3613L20.5625 11.4375L17.6388 3.39877C17.5164 3.06239 17.2936 2.77181 17.0004 2.56647C16.7072 2.36112 16.358 2.25098 16 2.25098C15.6421 2.25098 15.2928 2.36112 14.9997 2.56647C14.7065 2.77181 14.4836 3.06239 14.3613 3.39877L11.4375 11.4375L3.39877 14.3613C3.06239 14.4836 2.77181 14.7065 2.56647 14.9997C2.36112 15.2928 2.25098 15.6421 2.25098 16C2.25098 16.358 2.36112 16.7072 2.56647 17.0004C2.77181 17.2936 3.06239 17.5164 3.39877 17.6388L11.4375 20.5625L14.3613 28.6013C14.4836 28.9377 14.7065 29.2282 14.9997 29.4336C15.2928 29.6389 15.6421 29.7491 16 29.7491C16.358 29.7491 16.7072 29.6389 17.0004 29.4336C17.2936 29.2282 17.5164 28.9377 17.6388 28.6013L20.5625 20.5625L28.6013 17.6388C28.9377 17.5164 29.2282 17.2936 29.4336 17.0004C29.6389 16.7072 29.7491 16.358 29.7491 16C29.7491 15.6421 29.6389 15.2928 29.4336 14.9997C29.2282 14.7065 28.9377 14.4836 28.6013 14.3613ZM28.0888 16.2363L19.7213 19.2788C19.6182 19.3162 19.5246 19.3758 19.4471 19.4533C19.3696 19.5309 19.31 19.6245 19.2725 19.7275L16.23 28.095C16.2108 28.1401 16.1788 28.1786 16.1379 28.2056C16.097 28.2326 16.049 28.247 16 28.247C15.951 28.247 15.9031 28.2326 15.8622 28.2056C15.8213 28.1786 15.7892 28.1401 15.77 28.095L12.7275 19.7275C12.6901 19.6245 12.6305 19.5309 12.5529 19.4533C12.4754 19.3758 12.3818 19.3162 12.2788 19.2788L3.91127 16.23C3.86617 16.2108 3.82772 16.1788 3.80069 16.1379C3.77366 16.097 3.75925 16.049 3.75925 16C3.75925 15.951 3.77366 15.9031 3.80069 15.8622C3.82772 15.8213 3.86617 15.7892 3.91127 15.77L12.2788 12.7275C12.3818 12.6901 12.4754 12.6305 12.5529 12.5529C12.6305 12.4754 12.6901 12.3818 12.7275 12.2788L15.77 3.91127C15.7892 3.86617 15.8213 3.82772 15.8622 3.80069C15.9031 3.77366 15.951 3.75925 16 3.75925C16.049 3.75925 16.097 3.77366 16.1379 3.80069C16.1788 3.82772 16.2108 3.86617 16.23 3.91127L19.2725 12.2788C19.31 12.3818 19.3696 12.4754 19.4471 12.5529C19.5246 12.6305 19.6182 12.6901 19.7213 12.7275L28.0888 15.77C28.1339 15.7892 28.1723 15.8213 28.1994 15.8622C28.2264 15.9031 28.2408 15.951 28.2408 16C28.2408 16.049 28.2264 16.097 28.1994 16.1379C28.1723 16.1788 28.1339 16.2108 28.0888 16.23V16.2363Z" fill="white"/>
</svg>
