<svg width="32" height="32" viewBox="0 0 32 32" fill="none" xmlns="http://www.w3.org/2000/svg">
<path d="M24.8638 16.0001L28.6513 9.37508C28.7172 9.26094 28.7518 9.13145 28.7518 8.99965C28.7517 8.86785 28.7169 8.7384 28.6508 8.62433C28.5848 8.51027 28.4899 8.41562 28.3756 8.34992C28.2614 8.28421 28.1318 8.24978 28 8.25008H20.4363L16.6513 1.62508C16.5857 1.51025 16.4909 1.41481 16.3765 1.34842C16.2622 1.28204 16.1323 1.24707 16 1.24707C15.8678 1.24707 15.7379 1.28204 15.6235 1.34842C15.5091 1.41481 15.4144 1.51025 15.3488 1.62508L11.5625 8.25008H4.00002C3.86822 8.24978 3.73867 8.28421 3.62442 8.34992C3.51016 8.41562 3.41524 8.51027 3.3492 8.62433C3.28317 8.7384 3.24837 8.86785 3.24829 8.99965C3.24822 9.13145 3.28287 9.26094 3.34877 9.37508L7.13377 16.0001L3.34877 22.6251C3.28287 22.7392 3.24822 22.8687 3.24829 23.0005C3.24837 23.1323 3.28317 23.2618 3.3492 23.3758C3.41524 23.4899 3.51016 23.5846 3.62442 23.6503C3.73867 23.716 3.86822 23.7504 4.00002 23.7501H11.5625L15.3488 30.3751C15.4144 30.4899 15.5091 30.5854 15.6235 30.6517C15.7379 30.7181 15.8678 30.7531 16 30.7531C16.1323 30.7531 16.2622 30.7181 16.3765 30.6517C16.4909 30.5854 16.5857 30.4899 16.6513 30.3751L20.4363 23.7501H28C28.1318 23.7504 28.2614 23.716 28.3756 23.6503C28.4899 23.5846 28.5848 23.4899 28.6508 23.3758C28.7169 23.2618 28.7517 23.1323 28.7518 23.0005C28.7518 22.8687 28.7172 22.7392 28.6513 22.6251L24.8638 16.0001ZM26.7075 9.75008L24 14.4888L21.2925 9.75008H26.7075ZM23.1363 16.0001L19.5663 22.2501H12.4325L8.86252 16.0001L12.4325 9.75008H19.5663L23.1363 16.0001ZM16 3.51133L18.7088 8.25008H13.29L16 3.51133ZM5.29252 9.75008H10.705L8.00002 14.4888L5.29252 9.75008ZM5.29252 22.2401L8.00002 17.5113L10.705 22.2501L5.29252 22.2401ZM16 28.4888L13.29 23.7501H18.7088L16 28.4888ZM21.2925 22.2501L24 17.5113L26.7075 22.2501H21.2925Z" fill="white"/>
</svg>
