<svg width="32" height="32" viewBox="0 0 32 32" fill="none" xmlns="http://www.w3.org/2000/svg">
<path d="M29.125 14.165L28.4925 14.71C28.4187 14.7791 28.3317 14.8326 28.2368 14.8672C28.1418 14.9019 28.0408 14.917 27.9398 14.9116C27.8389 14.9062 27.7401 14.8805 27.6493 14.836C27.5585 14.7914 27.4777 14.729 27.4117 14.6525C27.3457 14.5759 27.2958 14.4868 27.2651 14.3905C27.2344 14.2941 27.2235 14.1926 27.233 14.092C27.2426 13.9913 27.2723 13.8936 27.3206 13.8048C27.3688 13.716 27.4345 13.6378 27.5137 13.575L28.1462 13.03C28.1936 12.9908 28.2277 12.938 28.2438 12.8786C28.2599 12.8193 28.2573 12.7565 28.2362 12.6987C28.2199 12.6417 28.1862 12.5912 28.1399 12.5542C28.0935 12.5172 28.0367 12.4957 27.9775 12.4925L26.9425 12.4087C26.7436 12.3921 26.5594 12.2972 26.4305 12.1449C26.3015 11.9925 26.2384 11.7951 26.255 11.5962C26.2716 11.3973 26.3665 11.2131 26.5188 11.0842C26.6712 10.9553 26.8686 10.8921 27.0675 10.9087L28.1012 10.9925C28.4561 11.0176 28.7951 11.1489 29.0743 11.3694C29.3534 11.5899 29.5597 11.8893 29.6662 12.2287C29.7784 12.5687 29.7868 12.9344 29.6904 13.2793C29.594 13.6241 29.3972 13.9324 29.125 14.165ZM21.8187 19.0187L22.3287 21.1712C22.3675 21.3354 22.4606 21.4817 22.5928 21.5865C22.7251 21.6913 22.8888 21.7485 23.0575 21.7487C23.1161 21.7491 23.1745 21.7419 23.2312 21.7275C23.3271 21.7048 23.4176 21.6635 23.4975 21.6059C23.5774 21.5483 23.6452 21.4755 23.6969 21.3917C23.7487 21.3079 23.7835 21.2147 23.7992 21.1175C23.815 21.0202 23.8114 20.9208 23.7887 20.825L23.3837 19.1162L24.4925 18.16C24.5671 18.0956 24.6283 18.0172 24.6726 17.9292C24.7169 17.8412 24.7434 17.7453 24.7507 17.6471C24.7579 17.5488 24.7458 17.4501 24.7149 17.3566C24.684 17.263 24.635 17.1765 24.5706 17.1018C24.5063 17.0272 24.4279 16.966 24.3398 16.9217C24.2518 16.8774 24.156 16.8509 24.0577 16.8436C23.9595 16.8364 23.8608 16.8486 23.7672 16.8795C23.6736 16.9104 23.5871 16.9594 23.5125 17.0237L22.0587 18.2737C21.9536 18.3635 21.8753 18.4806 21.8325 18.612C21.7897 18.7435 21.7841 18.8843 21.8162 19.0187H21.8187ZM24.9725 25.825C24.9523 25.7266 24.9126 25.6332 24.8557 25.5505C24.7988 25.4677 24.7258 25.3972 24.6411 25.3432C24.5564 25.2892 24.4618 25.2527 24.3627 25.236C24.2637 25.2192 24.1623 25.2226 24.0645 25.2458C23.9668 25.269 23.8747 25.3116 23.7938 25.371C23.7128 25.4305 23.6446 25.5056 23.5933 25.5919C23.5419 25.6782 23.5084 25.774 23.4947 25.8735C23.4811 25.973 23.4875 26.0743 23.5137 26.1712L23.6787 26.8675C23.695 26.9267 23.6923 26.9896 23.671 27.0472C23.6497 27.1048 23.6109 27.1543 23.56 27.1887C23.5139 27.2244 23.4577 27.2448 23.3995 27.247C23.3412 27.2492 23.2837 27.2332 23.235 27.2012L22.3962 26.685C22.3124 26.6333 22.2191 26.5987 22.1219 26.5832C22.0246 26.5676 21.9252 26.5713 21.8294 26.5941C21.7336 26.6169 21.6432 26.6583 21.5634 26.7161C21.4836 26.7738 21.416 26.8467 21.3644 26.9306C21.3127 27.0145 21.2781 27.1077 21.2625 27.205C21.2469 27.3022 21.2507 27.4016 21.2735 27.4974C21.2963 27.5932 21.3377 27.6836 21.3955 27.7634C21.4532 27.8432 21.5261 27.9108 21.61 27.9625L22.45 28.4787C22.7535 28.6645 23.1053 28.756 23.4609 28.7418C23.8165 28.7276 24.1598 28.6082 24.4475 28.3988C24.7352 28.1893 24.9543 27.8993 25.0772 27.5653C25.2 27.2313 25.221 26.8684 25.1375 26.5225L24.9725 25.825ZM21.94 12L19.985 11.8425C19.8473 11.8313 19.7154 11.7823 19.6038 11.7009C19.4922 11.6195 19.4052 11.5089 19.3525 11.3812L16.75 5.08747V23.2125L17.7987 23.8562C17.8827 23.9079 17.9557 23.9755 18.0135 24.0553C18.0713 24.1352 18.1128 24.2256 18.1357 24.3215C18.1586 24.4174 18.1623 24.5168 18.1468 24.6141C18.1312 24.7114 18.0966 24.8048 18.045 24.8887C17.9934 24.9727 17.9257 25.0457 17.8459 25.1035C17.766 25.1613 17.6756 25.2028 17.5797 25.2257C17.4839 25.2486 17.3844 25.2523 17.2871 25.2367C17.1898 25.2212 17.0964 25.1866 17.0125 25.135L16 24.51L9.55248 28.4787C9.24896 28.6645 8.89716 28.756 8.54159 28.7418C8.18602 28.7276 7.84266 28.6082 7.55495 28.3988C7.26724 28.1893 7.04812 27.8993 6.9253 27.5653C6.80249 27.2313 6.78149 26.8684 6.86498 26.5225L8.61498 19.1162L2.87498 14.165C2.60441 13.9323 2.40892 13.6247 2.31324 13.2809C2.21756 12.9371 2.226 12.5727 2.33748 12.2337C2.44462 11.8944 2.65145 11.5953 2.93104 11.3752C3.21063 11.1551 3.55002 11.0244 3.90498 11L11.4362 10.3912L14.3387 3.36622C14.4742 3.03694 14.7044 2.75534 15.0002 2.55716C15.2959 2.35898 15.6439 2.25317 16 2.25317C16.356 2.25317 16.704 2.35898 16.9998 2.55716C17.2956 2.75534 17.5258 3.03694 17.6612 3.36622L20.5637 10.3912L22.0637 10.5162C22.2626 10.5328 22.4468 10.6277 22.5758 10.7801C22.7047 10.9325 22.7678 11.1298 22.7512 11.3287C22.7347 11.5276 22.6397 11.7118 22.4874 11.8407C22.335 11.9697 22.1376 12.0328 21.9387 12.0162L21.94 12ZM15.25 23.215V5.08747L12.6475 11.3862C12.5948 11.5139 12.5078 11.6245 12.3962 11.7059C12.2846 11.7873 12.1527 11.8363 12.015 11.8475L4.02498 12.4925C3.96576 12.4957 3.90899 12.5172 3.86261 12.5542C3.81623 12.5912 3.78254 12.6417 3.76623 12.6987C3.74518 12.7565 3.74253 12.8193 3.75864 12.8786C3.77476 12.938 3.80885 12.9908 3.85623 13.03L9.94373 18.28C10.0476 18.3696 10.1249 18.486 10.1672 18.6164C10.2095 18.7469 10.2152 18.8865 10.1837 19.02L8.32373 26.8675C8.30806 26.9274 8.31171 26.9907 8.33416 27.0484C8.35661 27.1061 8.39671 27.1552 8.44873 27.1887C8.49486 27.2244 8.55097 27.2448 8.60923 27.247C8.6675 27.2492 8.725 27.2332 8.77373 27.2012L15.25 23.215Z" fill="white"/>
</svg>
