<svg width="32" height="32" viewBox="0 0 32 32" fill="none" xmlns="http://www.w3.org/2000/svg">
<path d="M16 3.25C13.4783 3.25 11.0132 3.99777 8.91648 5.39876C6.81976 6.79975 5.18556 8.79103 4.22054 11.1208C3.25552 13.4505 3.00303 16.0141 3.49499 18.4874C3.98696 20.9607 5.20127 23.2325 6.98439 25.0156C8.76751 26.7987 11.0393 28.0131 13.5126 28.505C15.9859 28.997 18.5495 28.7445 20.8792 27.7795C23.209 26.8144 25.2003 25.1802 26.6012 23.0835C28.0022 20.9868 28.75 18.5217 28.75 16C28.746 12.6197 27.4015 9.379 25.0112 6.98877C22.621 4.59854 19.3803 3.25397 16 3.25ZM14.5475 23.0212L22.1988 16.78C22.6603 16.4047 23.0379 15.9367 23.3071 15.4063C23.5764 14.8758 23.7313 14.2948 23.7618 13.7007C23.7923 13.1066 23.6978 12.5127 23.4844 11.9575C23.2709 11.4023 22.9433 10.898 22.5226 10.4774C22.102 10.0568 21.5977 9.72911 21.0425 9.51565C20.4873 9.30219 19.8934 9.20766 19.2993 9.23819C18.7052 9.26871 18.1242 9.42361 17.5938 9.69287C17.0633 9.96212 16.5953 10.3397 16.22 10.8013L10.6663 17.6063L5.37501 12.3112C6.32603 9.57561 8.29947 7.31454 10.8814 6.00233C13.4633 4.69012 16.453 4.42874 19.2235 5.27301C21.9939 6.11728 24.3298 8.0016 25.7411 10.5307C27.1524 13.0598 27.5295 16.0372 26.7932 18.8383C26.057 21.6394 24.2646 24.0465 21.7921 25.5548C19.3196 27.063 16.3591 27.5552 13.5316 26.9281C10.704 26.301 8.22923 24.6033 6.62625 22.1911C5.02328 19.7789 4.4167 16.8397 4.93376 13.99L9.73876 18.795C9.33894 19.4482 9.18264 20.2216 9.29743 20.9788C9.41222 21.736 9.79072 22.4284 10.3662 22.9337C10.9416 23.4391 11.6771 23.725 12.4427 23.741C13.2084 23.757 13.9552 23.5021 14.5513 23.0212H14.5475ZM15.3213 14.2712C15.4793 15.1163 15.8892 15.8938 16.4971 16.5017C17.105 17.1096 17.8825 17.5195 18.7275 17.6775L15.7275 20.125C15.6429 19.3977 15.3151 18.7203 14.7974 18.2026C14.2797 17.6849 13.6023 17.3571 12.875 17.2725L15.3213 14.2712ZM19.5 16.25C18.9561 16.25 18.4244 16.0887 17.9722 15.7865C17.52 15.4844 17.1675 15.0549 16.9593 14.5524C16.7512 14.0499 16.6967 13.497 16.8028 12.9635C16.909 12.4301 17.1709 11.9401 17.5555 11.5555C17.9401 11.1709 18.4301 10.9089 18.9635 10.8028C19.497 10.6967 20.0499 10.7512 20.5524 10.9593C21.0549 11.1675 21.4844 11.5199 21.7865 11.9722C22.0887 12.4244 22.25 12.9561 22.25 13.5C22.25 13.8611 22.1789 14.2187 22.0407 14.5524C21.9025 14.886 21.6999 15.1892 21.4445 15.4445C21.1892 15.6999 20.886 15.9025 20.5524 16.0407C20.2187 16.1789 19.8611 16.25 19.5 16.25ZM12.5 18.75C12.8461 18.75 13.1845 18.8526 13.4723 19.0449C13.76 19.2372 13.9843 19.5105 14.1168 19.8303C14.2492 20.1501 14.2839 20.5019 14.2164 20.8414C14.1489 21.1809 13.9822 21.4927 13.7374 21.7374C13.4927 21.9822 13.1809 22.1488 12.8414 22.2164C12.5019 22.2839 12.1501 22.2492 11.8303 22.1168C11.5105 21.9843 11.2372 21.76 11.0449 21.4722C10.8526 21.1845 10.75 20.8461 10.75 20.5C10.75 20.0359 10.9344 19.5908 11.2626 19.2626C11.5908 18.9344 12.0359 18.75 12.5 18.75Z" fill="white"/>
</svg>
