<svg width="32" height="32" viewBox="0 0 32 32" fill="none" xmlns="http://www.w3.org/2000/svg">
<path d="M28.2375 7.28884L16.2375 3.28884C16.0833 3.23738 15.9167 3.23738 15.7625 3.28884L3.7625 7.28884C3.61327 7.33866 3.48349 7.43415 3.39151 7.56179C3.29954 7.68943 3.25003 7.84276 3.25 8.00009V18.0001C3.25 18.199 3.32902 18.3898 3.46967 18.5304C3.61032 18.6711 3.80109 18.7501 4 18.7501C4.19891 18.7501 4.38968 18.6711 4.53033 18.5304C4.67098 18.3898 4.75 18.199 4.75 18.0001V9.04009L9.585 10.6526C8.97528 11.5537 8.56212 12.573 8.37239 13.6443C8.18266 14.7156 8.22062 15.8149 8.4838 16.8705C8.74698 17.9262 9.22948 18.9146 9.8999 19.7715C10.5703 20.6283 11.4136 21.3344 12.375 21.8438C9.96875 22.6601 7.875 24.2926 6.375 26.5938C6.28878 26.759 6.2671 26.9503 6.3142 27.1306C6.36129 27.3108 6.47379 27.4671 6.62977 27.5689C6.78576 27.6708 6.97407 27.7109 7.15804 27.6816C7.34201 27.6522 7.50847 27.5554 7.625 27.4101C9.55875 24.4488 12.61 22.7501 16 22.7501C19.39 22.7501 22.4412 24.4488 24.375 27.4101C24.4908 27.5585 24.6582 27.658 24.844 27.6887C25.0297 27.7194 25.2203 27.6791 25.3777 27.5758C25.5351 27.4726 25.6479 27.3139 25.6938 27.1312C25.7396 26.9486 25.715 26.7554 25.625 26.5901C24.125 24.2926 22.0338 22.6601 19.625 21.8401C20.5858 21.3301 21.4286 20.6236 22.0984 19.7665C22.7682 18.9094 23.25 17.9209 23.5126 16.8653C23.7752 15.8096 23.8126 14.7106 23.6224 13.6395C23.4322 12.5685 23.0187 11.5495 22.4088 10.6488L28.2375 8.71134C28.3866 8.66144 28.5163 8.56592 28.6082 8.43829C28.7001 8.31065 28.7495 8.15736 28.7495 8.00009C28.7495 7.84282 28.7001 7.68953 28.6082 7.56189C28.5163 7.43426 28.3866 7.33874 28.2375 7.28884ZM22.25 15.0001C22.2504 15.996 22.0129 16.9776 21.5571 17.8631C21.1013 18.7486 20.4406 19.5124 19.6298 20.0908C18.8191 20.6692 17.8819 21.0455 16.8962 21.1883C15.9106 21.3311 14.9051 21.2363 13.9636 20.9118C13.022 20.5873 12.1716 20.0425 11.4833 19.3228C10.7949 18.603 10.2885 17.7292 10.0063 16.7742C9.72401 15.8191 9.67408 14.8104 9.86063 13.8321C10.0472 12.8538 10.4648 11.9343 11.0787 11.1501L15.7625 12.7113C15.9167 12.7628 16.0833 12.7628 16.2375 12.7113L20.9212 11.1501C21.7835 12.248 22.2515 13.604 22.25 15.0001ZM16 11.2101L6.375 8.00009L16 4.79009L25.625 8.00009L16 11.2101Z" fill="white"/>
</svg>
