<svg width="32" height="32" viewBox="0 0 32 32" fill="none" xmlns="http://www.w3.org/2000/svg">
<path d="M25.75 26C25.75 26.1989 25.671 26.3897 25.5303 26.5303C25.3897 26.671 25.1989 26.75 25 26.75H16C13.1489 26.75 10.4146 25.6174 8.3986 23.6014C6.38259 21.5854 5.25 18.8511 5.25 16C5.25 13.1489 6.38259 10.4146 8.3986 8.3986C10.4146 6.38259 13.1489 5.25 16 5.25H25C25.1989 5.25 25.3897 5.32902 25.5303 5.46967C25.671 5.61032 25.75 5.80109 25.75 6C25.75 6.19891 25.671 6.38968 25.5303 6.53033C25.3897 6.67098 25.1989 6.75 25 6.75H16C13.5467 6.75 11.194 7.72455 9.45926 9.45926C7.72455 11.194 6.75 13.5467 6.75 16C6.75 18.4533 7.72455 20.806 9.45926 22.5407C11.194 24.2754 13.5467 25.25 16 25.25H25C25.1989 25.25 25.3897 25.329 25.5303 25.4697C25.671 25.6103 25.75 25.8011 25.75 26Z" fill="white"/>
</svg>
