<svg width="32" height="32" viewBox="0 0 32 32" fill="none" xmlns="http://www.w3.org/2000/svg">
<path d="M25.75 26C25.75 26.1989 25.671 26.3897 25.5303 26.5303C25.3897 26.671 25.1989 26.75 25 26.75H6C5.80109 26.75 5.61032 26.671 5.46967 26.5303C5.32902 26.3897 5.25 26.1989 5.25 26C5.25 25.8011 5.32902 25.6103 5.46967 25.4697C5.61032 25.329 5.80109 25.25 6 25.25H25C25.1989 25.25 25.3897 25.329 25.5303 25.4697C25.671 25.6103 25.75 25.8011 25.75 26ZM25 20.25H13C11.3424 20.25 9.75269 19.5915 8.58058 18.4194C7.40848 17.2473 6.75 15.6576 6.75 14C6.75 12.3424 7.40848 10.7527 8.58058 9.58058C9.75269 8.40848 11.3424 7.75 13 7.75H25C25.1989 7.75 25.3897 7.67098 25.5303 7.53033C25.671 7.38968 25.75 7.19891 25.75 7C25.75 6.80109 25.671 6.61032 25.5303 6.46967C25.3897 6.32902 25.1989 6.25 25 6.25H13C10.9446 6.25 8.97333 7.06652 7.51992 8.51992C6.06652 9.97333 5.25 11.9446 5.25 14C5.25 16.0554 6.06652 18.0267 7.51992 19.4801C8.97333 20.9335 10.9446 21.75 13 21.75H25C25.1989 21.75 25.3897 21.671 25.5303 21.5303C25.671 21.3897 25.75 21.1989 25.75 21C25.75 20.8011 25.671 20.6103 25.5303 20.4697C25.3897 20.329 25.1989 20.25 25 20.25Z" fill="white"/>
</svg>
