<svg width="32" height="32" viewBox="0 0 32 32" fill="none" xmlns="http://www.w3.org/2000/svg">
<path d="M6.555 4.49998C6.4177 4.37254 6.23767 4.3011 6.05035 4.2997C5.86302 4.29831 5.68195 4.36707 5.54277 4.49246C5.40359 4.61785 5.31638 4.79078 5.29828 4.97724C5.28019 5.1637 5.33253 5.35017 5.445 5.49998L6.125 6.24998H4C3.53587 6.24998 3.09075 6.43436 2.76256 6.76255C2.43437 7.09073 2.25 7.53585 2.25 7.99998V24C2.25 24.4641 2.43437 24.9092 2.76256 25.2374C3.09075 25.5656 3.53587 25.75 4 25.75H23.85L25.445 27.5C25.5789 27.6472 25.7659 27.7351 25.9646 27.7445C26.1634 27.7539 26.3578 27.6839 26.505 27.55C26.6522 27.416 26.7402 27.2291 26.7495 27.0303C26.7589 26.8316 26.6889 26.6372 26.555 26.49L6.555 4.49998ZM4 24.25C3.9337 24.25 3.87011 24.2236 3.82322 24.1768C3.77634 24.1299 3.75 24.0663 3.75 24V7.99998C3.75 7.93368 3.77634 7.87009 3.82322 7.82321C3.87011 7.77632 3.9337 7.74998 4 7.74998H7.48625L15.2137 16.25H13C12.8011 16.25 12.6103 16.329 12.4697 16.4697C12.329 16.6103 12.25 16.8011 12.25 17C12.25 17.1989 12.329 17.3897 12.4697 17.5303C12.6103 17.671 12.8011 17.75 13 17.75H16.5775L18.85 20.25H7C6.80109 20.25 6.61032 20.329 6.46967 20.4697C6.32902 20.6103 6.25 20.8011 6.25 21C6.25 21.1989 6.32902 21.3897 6.46967 21.5303C6.61032 21.671 6.80109 21.75 7 21.75H20.2138L22.4862 24.25H4ZM6.25 17C6.25 16.8011 6.32902 16.6103 6.46967 16.4697C6.61032 16.329 6.80109 16.25 7 16.25H9C9.19891 16.25 9.38968 16.329 9.53033 16.4697C9.67098 16.6103 9.75 16.8011 9.75 17C9.75 17.1989 9.67098 17.3897 9.53033 17.5303C9.38968 17.671 9.19891 17.75 9 17.75H7C6.80109 17.75 6.61032 17.671 6.46967 17.5303C6.32902 17.3897 6.25 17.1989 6.25 17ZM29.75 7.99998V24.3537C29.75 24.5526 29.671 24.7434 29.5303 24.8841C29.3897 25.0247 29.1989 25.1037 29 25.1037C28.8011 25.1037 28.6103 25.0247 28.4697 24.8841C28.329 24.7434 28.25 24.5526 28.25 24.3537V7.99998C28.25 7.93368 28.2237 7.87009 28.1768 7.82321C28.1299 7.77632 28.0663 7.74998 28 7.74998H13.2238C13.0248 7.74998 12.8341 7.67096 12.6934 7.53031C12.5528 7.38966 12.4738 7.19889 12.4738 6.99998C12.4738 6.80107 12.5528 6.6103 12.6934 6.46965C12.8341 6.329 13.0248 6.24998 13.2238 6.24998H28C28.4641 6.24998 28.9092 6.43436 29.2374 6.76255C29.5656 7.09073 29.75 7.53585 29.75 7.99998ZM22.315 17.75C22.1161 17.75 21.9253 17.671 21.7847 17.5303C21.644 17.3897 21.565 17.1989 21.565 17C21.565 16.8011 21.644 16.6103 21.7847 16.4697C21.9253 16.329 22.1161 16.25 22.315 16.25H25C25.1989 16.25 25.3897 16.329 25.5303 16.4697C25.671 16.6103 25.75 16.8011 25.75 17C25.75 17.1989 25.671 17.3897 25.5303 17.5303C25.3897 17.671 25.1989 17.75 25 17.75H22.315Z" fill="white"/>
</svg>
