<svg width="32" height="32" viewBox="0 0 32 32" fill="none" xmlns="http://www.w3.org/2000/svg">
<path d="M21.6138 10.385C21.3176 8.61917 20.5408 6.96897 19.3686 5.61542C18.1964 4.26186 16.6741 3.25724 14.9687 2.71171C13.2633 2.16618 11.4406 2.10081 9.70044 2.52278C7.96031 2.94476 6.36999 3.83776 5.10388 5.10388C3.83776 6.36999 2.94476 7.96031 2.52278 9.70044C2.10081 11.4406 2.16618 13.2633 2.71171 14.9687C3.25724 16.6741 4.26186 18.1964 5.61542 19.3686C6.96897 20.5408 8.61917 21.3176 10.385 21.6138C10.6813 23.3797 11.4581 25.0299 12.6303 26.3834C13.8024 27.737 15.3247 28.7416 17.0301 29.2871C18.7356 29.8327 20.5583 29.898 22.2984 29.4761C24.0385 29.0541 25.6289 28.1611 26.895 26.895C28.1611 25.6289 29.0541 24.0385 29.4761 22.2984C29.898 20.5583 29.8327 18.7356 29.2871 17.0301C28.7416 15.3247 27.737 13.8024 26.3834 12.6303C25.0299 11.4581 23.3797 10.6813 21.6138 10.385ZM28.25 20C28.2496 20.3722 28.2237 20.7439 28.1726 21.1125L21.4525 14.3913C21.6504 13.6096 21.7503 12.8064 21.75 12C21.75 11.9788 21.75 11.9575 21.75 11.9363C23.5936 12.3317 25.2454 13.3486 26.4287 14.8166C27.612 16.2846 28.255 18.1145 28.25 20ZM18.3388 19.3988L25.2763 26.3363C24.5437 26.9462 23.711 27.4245 22.8151 27.75L15.965 20.8988C16.8246 20.5162 17.6242 20.0109 18.3388 19.3988ZM19.3988 18.3388C20.011 17.6238 20.5163 16.8238 20.8988 15.9638L27.75 22.8151C27.423 23.7113 26.943 24.5441 26.3313 25.2763L19.3988 18.3388ZM3.75005 12C3.75005 10.3684 4.2339 8.7733 5.14043 7.41659C6.04695 6.05989 7.33542 5.00247 8.84291 4.37804C10.3504 3.75362 12.0092 3.59024 13.6095 3.90857C15.2099 4.2269 16.6799 5.01264 17.8337 6.16642C18.9875 7.3202 19.7732 8.79021 20.0915 10.3906C20.4099 11.9909 20.2465 13.6497 19.6221 15.1572C18.9976 16.6647 17.9402 17.9532 16.5835 18.8597C15.2268 19.7662 13.6317 20.25 12 20.25C9.81283 20.2474 7.71594 19.3774 6.16934 17.8308C4.62274 16.2842 3.7527 14.1873 3.75005 12ZM11.9363 21.75H12C12.8064 21.7503 13.6096 21.6504 14.3913 21.4525L21.1125 28.1726C19.0549 28.4569 16.9659 27.953 15.2641 26.762C13.5624 25.5709 12.3737 23.7806 11.9363 21.75Z" fill="white"/>
</svg>
