<svg width="32" height="32" viewBox="0 0 32 32" fill="none" xmlns="http://www.w3.org/2000/svg">
<path d="M27.75 12V26C27.75 26.1989 27.671 26.3897 27.5303 26.5303C27.3897 26.671 27.1989 26.75 27 26.75C26.8011 26.75 26.6103 26.671 26.4697 26.5303C26.329 26.3897 26.25 26.1989 26.25 26V12C26.2477 10.0779 25.4831 8.23517 24.124 6.87603C22.7648 5.5169 20.9221 4.75232 19 4.75H13C11.0779 4.75232 9.23517 5.5169 7.87603 6.87603C6.5169 8.23517 5.75232 10.0779 5.75 12V26C5.75 26.1989 5.67098 26.3897 5.53033 26.5303C5.38968 26.671 5.19891 26.75 5 26.75C4.80109 26.75 4.61032 26.671 4.46967 26.5303C4.32902 26.3897 4.25 26.1989 4.25 26V12C4.25265 9.68017 5.17537 7.45611 6.81574 5.81574C8.45611 4.17537 10.6802 3.25265 13 3.25H19C21.3198 3.25265 23.5439 4.17537 25.1843 5.81574C26.8246 7.45611 27.7474 9.68017 27.75 12ZM22.75 12V21C22.7498 21.6931 22.4879 22.3605 22.0167 22.8688C21.5455 23.377 20.8998 23.6886 20.2087 23.7412L20.6712 24.665C20.7601 24.843 20.7746 25.0491 20.7115 25.2378C20.6485 25.4265 20.513 25.5824 20.335 25.6712C20.157 25.7601 19.9509 25.7746 19.7622 25.7115C19.5735 25.6485 19.4176 25.513 19.3288 25.335L18.5362 23.75H13.4637L12.6713 25.335C12.6273 25.4231 12.5663 25.5018 12.492 25.5664C12.4176 25.631 12.3312 25.6803 12.2378 25.7115C12.1443 25.7428 12.0457 25.7553 11.9474 25.7484C11.8491 25.7414 11.7531 25.7152 11.665 25.6712C11.5768 25.6273 11.4982 25.5663 11.4336 25.492C11.369 25.4176 11.3197 25.3312 11.2885 25.2378C11.2573 25.1443 11.2447 25.0457 11.2516 24.9474C11.2586 24.8491 11.2848 24.7532 11.3287 24.665L11.7913 23.7412C11.1002 23.6886 10.4545 23.377 9.98328 22.8688C9.5121 22.3605 9.25021 21.6931 9.25 21V12C9.25 11.2707 9.53973 10.5712 10.0555 10.0555C10.5712 9.53973 11.2707 9.25 12 9.25H20C20.7293 9.25 21.4288 9.53973 21.9445 10.0555C22.4603 10.5712 22.75 11.2707 22.75 12ZM10.75 12V18.25H21.25V12C21.25 11.6685 21.1183 11.3505 20.8839 11.1161C20.6495 10.8817 20.3315 10.75 20 10.75H12C11.6685 10.75 11.3505 10.8817 11.1161 11.1161C10.8817 11.3505 10.75 11.6685 10.75 12ZM14.75 19.75V22.25H17.25V19.75H14.75ZM12 22.25H13.25V19.75H10.75V21C10.75 21.3315 10.8817 21.6495 11.1161 21.8839C11.3505 22.1183 11.6685 22.25 12 22.25ZM21.25 21V19.75H18.75V22.25H20C20.3315 22.25 20.6495 22.1183 20.8839 21.8839C21.1183 21.6495 21.25 21.3315 21.25 21Z" fill="white"/>
</svg>
