<svg width="32" height="32" viewBox="0 0 32 32" fill="none" xmlns="http://www.w3.org/2000/svg">
<path d="M26.75 25C26.75 25.1989 26.671 25.3897 26.5303 25.5303C26.3897 25.671 26.1989 25.75 26 25.75H7C6.80109 25.75 6.61032 25.671 6.46967 25.5303C6.32902 25.3897 6.25 25.1989 6.25 25C6.25 24.8011 6.32902 24.6103 6.46967 24.4697C6.61032 24.329 6.80109 24.25 7 24.25H26C26.1989 24.25 26.3897 24.329 26.5303 24.4697C26.671 24.6103 26.75 24.8011 26.75 25ZM19 19.25H7C6.80109 19.25 6.61032 19.329 6.46967 19.4697C6.32902 19.6103 6.25 19.8011 6.25 20C6.25 20.1989 6.32902 20.3897 6.46967 20.5303C6.61032 20.671 6.80109 20.75 7 20.75H19C21.0554 20.75 23.0267 19.9335 24.4801 18.4801C25.9335 17.0267 26.75 15.0554 26.75 13C26.75 10.9446 25.9335 8.97333 24.4801 7.51992C23.0267 6.06652 21.0554 5.25 19 5.25H7C6.80109 5.25 6.61032 5.32902 6.46967 5.46967C6.32902 5.61032 6.25 5.80109 6.25 6C6.25 6.19891 6.32902 6.38968 6.46967 6.53033C6.61032 6.67098 6.80109 6.75 7 6.75H19C20.6576 6.75 22.2473 7.40848 23.4194 8.58058C24.5915 9.75269 25.25 11.3424 25.25 13C25.25 14.6576 24.5915 16.2473 23.4194 17.4194C22.2473 18.5915 20.6576 19.25 19 19.25Z" fill="white"/>
</svg>
