<svg width="32" height="32" viewBox="0 0 32 32" fill="none" xmlns="http://www.w3.org/2000/svg">
<path d="M27.75 16C27.7467 18.8501 26.613 21.5824 24.5977 23.5977C22.5824 25.613 19.8501 26.7467 17 26.75H8C7.80109 26.75 7.61032 26.671 7.46967 26.5303C7.32902 26.3897 7.25 26.1989 7.25 26C7.25 25.8011 7.32902 25.6103 7.46967 25.4697C7.61032 25.329 7.80109 25.25 8 25.25H17C19.4533 25.25 21.806 24.2754 23.5407 22.5407C25.2754 20.806 26.25 18.4533 26.25 16C26.25 13.5467 25.2754 11.194 23.5407 9.45926C21.806 7.72455 19.4533 6.75 17 6.75H8C7.80109 6.75 7.61032 6.67098 7.46967 6.53033C7.32902 6.38968 7.25 6.19891 7.25 6C7.25 5.80109 7.32902 5.61032 7.46967 5.46967C7.61032 5.32902 7.80109 5.25 8 5.25H17C19.8501 5.25331 22.5824 6.38696 24.5977 8.40226C26.613 10.4176 27.7467 13.1499 27.75 16Z" fill="white"/>
</svg>
