<svg width="32" height="32" viewBox="0 0 32 32" fill="none" xmlns="http://www.w3.org/2000/svg">
<path d="M10.7501 22.5C10.7501 22.7472 10.6767 22.9889 10.5394 23.1944C10.402 23.4 10.2068 23.5602 9.9784 23.6548C9.75 23.7494 9.49866 23.7742 9.25619 23.726C9.01371 23.6777 8.79098 23.5587 8.61617 23.3839C8.44135 23.209 8.3223 22.9863 8.27407 22.7438C8.22584 22.5014 8.25059 22.25 8.3452 22.0216C8.43981 21.7932 8.60003 21.598 8.80559 21.4606C9.01115 21.3233 9.25282 21.25 9.50005 21.25C9.83157 21.25 10.1495 21.3817 10.3839 21.6161C10.6184 21.8505 10.7501 22.1685 10.7501 22.5ZM29.75 19.5237V26C29.75 26.4641 29.5657 26.9092 29.2375 27.2374C28.9093 27.5656 28.4642 27.75 28 27.75H9.50005C9.18247 27.7502 8.86546 27.723 8.55255 27.6687C7.18765 27.4194 5.97694 26.64 5.18502 25.5007C4.3931 24.3614 4.08437 22.9549 4.3263 21.5887L7.4513 3.69747C7.49023 3.47077 7.57366 3.25402 7.69678 3.05972C7.8199 2.86542 7.98027 2.69742 8.16864 2.5654C8.35701 2.43339 8.56965 2.33998 8.79431 2.29057C9.01896 2.24115 9.25117 2.2367 9.47755 2.27747L16.3113 3.49247C16.7669 3.57471 17.1713 3.83411 17.436 4.21388C17.7008 4.59364 17.8042 5.06283 17.7238 5.51872L16.14 14.5737L25.015 11.355C25.4496 11.198 25.9286 11.2193 26.3475 11.4141C26.7664 11.6089 27.0913 11.9615 27.2513 12.395L29.6376 18.9225C29.7063 19.1158 29.7443 19.3186 29.75 19.5237ZM13.1163 23.1487L16.2501 5.25997C16.2618 5.19539 16.2477 5.12877 16.2107 5.07451C16.1738 5.02025 16.117 4.9827 16.0526 4.96997L9.21505 3.74997H9.17255C9.12449 3.75023 9.07772 3.76552 9.0388 3.79372C9.01184 3.81271 8.98891 3.83685 8.97132 3.86473C8.95373 3.89262 8.94182 3.92372 8.9363 3.95622L5.8113 21.8475C5.6377 22.8226 5.85691 23.8268 6.42108 24.6408C6.98525 25.4549 7.84856 26.0127 8.82255 26.1925C9.29858 26.2775 9.78674 26.2673 10.2588 26.1623C10.7308 26.0574 11.1774 25.8599 11.5726 25.5812C11.9777 25.2986 12.3226 24.9382 12.5872 24.521C12.8518 24.1038 13.0308 23.6382 13.1138 23.1512L13.1163 23.1487ZM14.1476 24.795L28.0888 19.75C28.1495 19.7278 28.1992 19.683 28.2276 19.625C28.2411 19.5966 28.2487 19.5659 28.25 19.5345C28.2513 19.5031 28.2462 19.4718 28.2351 19.4425L25.8488 12.9162C25.8255 12.8555 25.7794 12.8062 25.7204 12.7789C25.6613 12.7516 25.5939 12.7484 25.5325 12.77L15.8413 16.2812L14.5913 23.415C14.5083 23.8942 14.3589 24.3595 14.1476 24.7975V24.795ZM28.25 21.2837L14.5438 26.25H28C28.0664 26.25 28.1299 26.2236 28.1768 26.1768C28.2237 26.1299 28.25 26.0663 28.25 26V21.2837Z" fill="white"/>
</svg>
