<svg width="32" height="32" viewBox="0 0 32 32" fill="none" xmlns="http://www.w3.org/2000/svg">
<path d="M26.9999 4.25H18.9999C18.8849 4.24989 18.7715 4.27621 18.6683 4.32693C18.5651 4.37765 18.475 4.45141 18.4049 4.5425L10.2311 15.1675L8.82488 13.7625C8.66238 13.6 8.46945 13.4711 8.25712 13.3831C8.04479 13.2951 7.81721 13.2499 7.58738 13.2499C7.35755 13.2499 7.12998 13.2951 6.91764 13.3831C6.70531 13.4711 6.51239 13.6 6.34988 13.7625L4.76238 15.35C4.59967 15.5125 4.4706 15.7055 4.38253 15.918C4.29446 16.1304 4.24913 16.3581 4.24913 16.5881C4.24913 16.8181 4.29446 17.0458 4.38253 17.2583C4.4706 17.4707 4.59967 17.6637 4.76238 17.8263L7.43863 20.5L3.76238 24.1775C3.59986 24.34 3.47094 24.5329 3.38298 24.7453C3.29503 24.9576 3.24976 25.1852 3.24976 25.415C3.24976 25.6448 3.29503 25.8724 3.38298 26.0847C3.47094 26.2971 3.59986 26.49 3.76238 26.6525L5.34863 28.2388C5.51114 28.4013 5.70406 28.5302 5.9164 28.6181C6.12873 28.7061 6.3563 28.7514 6.58613 28.7514C6.81596 28.7514 7.04354 28.7061 7.25587 28.6181C7.4682 28.5302 7.66113 28.4013 7.82363 28.2388L11.4999 24.5625L14.1749 27.2375C14.3374 27.4 14.5303 27.5289 14.7426 27.6169C14.955 27.7049 15.1826 27.7501 15.4124 27.7501C15.6422 27.7501 15.8698 27.7049 16.0821 27.6169C16.2945 27.5289 16.4874 27.4 16.6499 27.2375L18.2374 25.6513C18.4001 25.4887 18.5292 25.2957 18.6172 25.0833C18.7053 24.8708 18.7506 24.6431 18.7506 24.4131C18.7506 24.1831 18.7053 23.9554 18.6172 23.743C18.5292 23.5305 18.4001 23.3375 18.2374 23.175L16.8311 21.7687L27.4561 13.595C27.5475 13.525 27.6215 13.4349 27.6724 13.3318C27.7233 13.2286 27.7498 13.1151 27.7499 13V5C27.7499 4.80109 27.6709 4.61032 27.5302 4.46967C27.3896 4.32902 27.1988 4.25 26.9999 4.25ZM6.76238 27.1775C6.73916 27.2007 6.71159 27.2192 6.68124 27.2318C6.65089 27.2443 6.61836 27.2508 6.58551 27.2508C6.55265 27.2508 6.52012 27.2443 6.48977 27.2318C6.45942 27.2192 6.43185 27.2007 6.40863 27.1775L4.82363 25.5912C4.77707 25.5444 4.75093 25.481 4.75093 25.415C4.75093 25.349 4.77707 25.2856 4.82363 25.2388L8.49988 21.5625L10.4386 23.5L6.76238 27.1775ZM17.1761 24.59L15.5899 26.1775C15.5666 26.2009 15.539 26.2195 15.5085 26.2322C15.4781 26.2449 15.4454 26.2514 15.4124 26.2514C15.3794 26.2514 15.3467 26.2449 15.3162 26.2322C15.2858 26.2195 15.2581 26.2009 15.2349 26.1775L5.82363 16.765C5.80039 16.7418 5.78195 16.7142 5.76937 16.6839C5.75679 16.6535 5.75031 16.621 5.75031 16.5881C5.75031 16.5553 5.75679 16.5227 5.76937 16.4924C5.78195 16.462 5.80039 16.4345 5.82363 16.4112L7.40988 14.8237C7.43312 14.8003 7.46077 14.7817 7.49124 14.769C7.5217 14.7563 7.55438 14.7498 7.58738 14.7498C7.62039 14.7498 7.65306 14.7563 7.68353 14.769C7.71399 14.7817 7.74164 14.8003 7.76488 14.8237L17.1761 24.2362C17.1994 24.2595 17.2178 24.287 17.2304 24.3174C17.243 24.3477 17.2495 24.3803 17.2495 24.4131C17.2495 24.446 17.243 24.4785 17.2304 24.5089C17.2178 24.5392 17.1994 24.5668 17.1761 24.59ZM26.2499 12.6313L15.7611 20.7L14.0611 19L20.5299 12.53C20.6624 12.3878 20.7345 12.1998 20.7311 12.0055C20.7276 11.8112 20.6489 11.6258 20.5115 11.4884C20.3741 11.351 20.1887 11.2723 19.9944 11.2688C19.8001 11.2654 19.6121 11.3375 19.4699 11.47L12.9999 17.9387L11.2999 16.2388L19.3749 5.75H26.2499V12.6313Z" fill="white"/>
</svg>
