<svg width="32" height="32" viewBox="0 0 32 32" fill="none" xmlns="http://www.w3.org/2000/svg">
<path d="M29.5299 8.46997L23.5299 2.46997C23.3877 2.33749 23.1997 2.26537 23.0054 2.26879C22.8111 2.27222 22.6257 2.35093 22.4883 2.48835C22.3509 2.62576 22.2722 2.81114 22.2687 3.00545C22.2653 3.19975 22.3374 3.38779 22.4699 3.52997L24.9387 5.99997L20.9999 9.93872L16.5299 5.46997C16.4612 5.39628 16.3784 5.33718 16.2864 5.29619C16.1944 5.2552 16.0951 5.23315 15.9944 5.23138C15.8937 5.2296 15.7937 5.24812 15.7003 5.28585C15.6069 5.32357 15.5221 5.37971 15.4509 5.45093C15.3797 5.52215 15.3235 5.60698 15.2858 5.70037C15.2481 5.79376 15.2295 5.89379 15.2313 5.99449C15.2331 6.09519 15.2551 6.19451 15.2961 6.28651C15.3371 6.37851 15.3962 6.46131 15.4699 6.52997L16.4387 7.49997L5.76241 18.1762C5.59958 18.3385 5.47046 18.5314 5.38251 18.7438C5.29455 18.9561 5.24948 19.1838 5.24991 19.4137V25.6887L2.46991 28.47C2.39622 28.5386 2.33712 28.6214 2.29613 28.7134C2.25514 28.8054 2.23309 28.9047 2.23132 29.0054C2.22954 29.1061 2.24807 29.2062 2.28579 29.2996C2.32351 29.393 2.37965 29.4778 2.45087 29.549C2.52209 29.6202 2.60692 29.6764 2.70031 29.7141C2.7937 29.7518 2.89373 29.7703 2.99443 29.7686C3.09513 29.7668 3.19445 29.7447 3.28645 29.7038C3.37845 29.6628 3.46125 29.6037 3.52991 29.53L6.31116 26.75H12.5862C12.816 26.7504 13.0437 26.7053 13.2561 26.6174C13.4685 26.5294 13.6614 26.4003 13.8237 26.2375L24.4999 15.5612L25.4699 16.53C25.6121 16.6624 25.8001 16.7346 25.9944 16.7311C26.1887 16.7277 26.3741 16.649 26.5115 16.5116C26.6489 16.3742 26.7277 16.1888 26.7311 15.9945C26.7345 15.8002 26.6624 15.6121 26.5299 15.47L22.0612 11L25.9999 7.06122L28.4699 9.52997C28.6121 9.66245 28.8001 9.73457 28.9944 9.73114C29.1887 9.72772 29.3741 9.649 29.5115 9.51159C29.6489 9.37418 29.7277 9.18879 29.7311 8.99449C29.7345 8.80019 29.6624 8.61214 29.5299 8.46997ZM12.7624 25.1762C12.7157 25.2232 12.6524 25.2497 12.5862 25.25H6.74991V19.4137C6.75019 19.3475 6.77671 19.2841 6.82366 19.2375L9.24991 16.8112L11.9699 19.53C12.0386 19.6037 12.1214 19.6628 12.2134 19.7038C12.3054 19.7447 12.4047 19.7668 12.5054 19.7686C12.6061 19.7703 12.7061 19.7518 12.7995 19.7141C12.8929 19.6764 12.9777 19.6202 13.0489 19.549C13.1202 19.4778 13.1763 19.393 13.214 19.2996C13.2518 19.2062 13.2703 19.1061 13.2685 19.0054C13.2667 18.9047 13.2447 18.8054 13.2037 18.7134C13.1627 18.6214 13.1036 18.5386 13.0299 18.47L10.3112 15.75L12.2499 13.8112L14.9699 16.53C15.1121 16.6624 15.3001 16.7346 15.4944 16.7311C15.6887 16.7277 15.8741 16.649 16.0115 16.5116C16.1489 16.3742 16.2277 16.1888 16.2311 15.9945C16.2345 15.8002 16.1624 15.6121 16.0299 15.47L13.3112 12.75L17.4999 8.56122L23.4387 14.5L12.7624 25.1762Z" fill="white"/>
</svg>
