<svg width="32" height="32" viewBox="0 0 32 32" fill="none" xmlns="http://www.w3.org/2000/svg">
<path d="M30.625 15.5838L24.9213 7.02875C24.7614 6.78911 24.5448 6.59265 24.2908 6.4568C24.0367 6.32095 23.7531 6.24992 23.465 6.25H4.00001C3.86415 6.2498 3.73078 6.28651 3.61415 6.35621C3.49752 6.42591 3.40202 6.52598 3.33784 6.64574C3.27367 6.76549 3.24323 6.90043 3.24977 7.03614C3.25632 7.17185 3.29961 7.30323 3.37501 7.41625L9.09876 16L3.37501 24.5837C3.29961 24.6968 3.25632 24.8282 3.24977 24.9639C3.24323 25.0996 3.27367 25.2345 3.33784 25.3543C3.40202 25.474 3.49752 25.5741 3.61415 25.6438C3.73078 25.7135 3.86415 25.7502 4.00001 25.75H23.465C23.7531 25.7501 24.0367 25.679 24.2908 25.5432C24.5448 25.4074 24.7614 25.2109 24.9213 24.9713L30.625 16.4163C30.7072 16.293 30.7511 16.1482 30.7511 16C30.7511 15.8518 30.7072 15.707 30.625 15.5838ZM23.6738 24.1388C23.651 24.1729 23.6201 24.2009 23.5839 24.2203C23.5477 24.2397 23.5073 24.2499 23.4663 24.25H5.40126L10.625 16.4163C10.7072 16.293 10.7511 16.1482 10.7511 16C10.7511 15.8518 10.7072 15.707 10.625 15.5838L5.40126 7.75H23.465C23.5061 7.75008 23.5465 7.76027 23.5827 7.77967C23.6189 7.79907 23.6497 7.82709 23.6725 7.86125L29.0988 16L23.6738 24.1388Z" fill="white"/>
</svg>
