<svg width="32" height="32" viewBox="0 0 32 32" fill="none" xmlns="http://www.w3.org/2000/svg">
<path d="M27.5074 10.5C28.8733 13.3538 29.1299 16.6133 28.2276 19.6458C27.3254 22.6782 25.3285 25.2672 22.6246 26.9101C19.9208 28.553 16.703 29.1326 13.5958 28.5364C10.4887 27.9402 7.71395 26.2107 5.81027 23.6836C3.9066 21.1566 3.00982 18.0124 3.29404 14.8614C3.57826 11.7103 5.02321 8.77733 7.34835 6.63175C9.67349 4.48618 12.7129 3.28112 15.8766 3.25054C19.0403 3.21995 22.1025 4.36601 24.4687 6.46623L27.4687 3.46623C27.6098 3.32754 27.8 3.25024 27.9978 3.25117C28.1957 3.25209 28.3852 3.33115 28.525 3.47114C28.6648 3.61113 28.7437 3.8007 28.7444 3.99855C28.745 4.19641 28.6675 4.38652 28.5287 4.52748L16.5287 16.5275C16.4592 16.598 16.3764 16.6541 16.2852 16.6925C16.1939 16.7309 16.096 16.7508 15.997 16.7512C15.898 16.7515 15.7999 16.7322 15.7083 16.6945C15.6168 16.6567 15.5337 16.6012 15.4637 16.5312C15.3938 16.4611 15.3383 16.3779 15.3007 16.2864C15.2631 16.1948 15.2439 16.0967 15.2444 15.9977C15.2448 15.8987 15.2649 15.8007 15.3034 15.7095C15.3419 15.6183 15.3981 15.5356 15.4687 15.4662L19.1424 11.7912C18.1852 11.0755 17.0125 10.7078 15.818 10.7489C14.6235 10.7899 13.4788 11.2374 12.5731 12.0172C11.6673 12.797 11.0548 13.8625 10.8366 15.0376C10.6185 16.2127 10.8079 17.4271 11.3734 18.48C11.939 19.5329 12.8469 20.3614 13.947 20.8284C15.0472 21.2954 16.2738 21.373 17.4241 21.0485C18.5744 20.7239 19.5795 20.0166 20.2733 19.0434C20.9671 18.0703 21.3081 16.8895 21.2399 15.6962C21.2286 15.4973 21.2969 15.3021 21.4295 15.1534C21.5622 15.0048 21.7485 14.915 21.9474 14.9037C22.1463 14.8925 22.3416 14.9607 22.4902 15.0933C22.6388 15.226 22.7286 15.4123 22.7399 15.6112C22.8299 17.1548 22.3873 18.6824 21.486 19.9387C20.5847 21.195 19.2795 22.1038 17.7885 22.5132C16.2975 22.9226 14.7112 22.8077 13.2948 22.1877C11.8784 21.5677 10.7177 20.4803 10.0069 19.1072C9.29613 17.7341 9.07827 16.1586 9.38977 14.6442C9.70127 13.1297 10.5233 11.7681 11.7183 10.787C12.9133 9.80595 14.4089 9.26487 15.955 9.25425C17.5011 9.24364 19.004 9.76414 20.2124 10.7287L23.4049 7.53498C21.3073 5.70592 18.6057 4.72019 15.8231 4.76862C13.0405 4.81704 10.3748 5.89618 8.34211 7.79712C6.30944 9.69805 5.05436 12.2856 4.81987 15.0587C4.58537 17.8318 5.38814 20.5934 7.07275 22.8086C8.75736 25.0239 11.204 26.5353 13.939 27.0503C16.6739 27.5653 19.5027 27.0472 21.8777 25.5964C24.2526 24.1455 26.0047 21.8651 26.7949 19.1966C27.5851 16.528 27.357 13.6613 26.1549 11.1512C26.1122 11.0624 26.0873 10.9661 26.0818 10.8677C26.0763 10.7692 26.0902 10.6707 26.1227 10.5777C26.1553 10.4846 26.2059 10.3989 26.2715 10.3254C26.3372 10.2519 26.4167 10.1921 26.5055 10.1494C26.5943 10.1066 26.6907 10.0817 26.7891 10.0762C26.8875 10.0707 26.9861 10.0846 27.0791 10.1172C27.1721 10.1497 27.2578 10.2003 27.3313 10.266C27.4048 10.3317 27.4647 10.4112 27.5074 10.5Z" fill="white"/>
</svg>
