<svg width="32" height="32" viewBox="0 0 32 32" fill="none" xmlns="http://www.w3.org/2000/svg">
<path d="M30 13.25H28.435L24.935 7.13126C24.7811 6.86476 24.5597 6.64354 24.2931 6.48991C24.0264 6.33629 23.724 6.2557 23.4163 6.25626H20.5037L18.9475 2.35001C18.8186 2.02457 18.5946 1.74553 18.3047 1.5493C18.0148 1.35308 17.6725 1.24878 17.3225 1.25001H14.6775C14.3275 1.24878 13.9852 1.35308 13.6953 1.5493C13.4054 1.74553 13.1814 2.02457 13.0525 2.35001L11.4925 6.25001H8.58C8.27227 6.24945 7.96983 6.33004 7.70318 6.48366C7.43654 6.63729 7.21512 6.85851 7.06125 7.12501L3.56125 13.25H2C1.80109 13.25 1.61032 13.329 1.46967 13.4697C1.32902 13.6103 1.25 13.8011 1.25 14C1.25 14.1989 1.32902 14.3897 1.46967 14.5303C1.61032 14.671 1.80109 14.75 2 14.75H3.25V25C3.25 25.4641 3.43437 25.9093 3.76256 26.2374C4.09075 26.5656 4.53587 26.75 5 26.75H8C8.46413 26.75 8.90925 26.5656 9.23744 26.2374C9.56563 25.9093 9.75 25.4641 9.75 25V22.75H22.25V25C22.25 25.4641 22.4344 25.9093 22.7626 26.2374C23.0908 26.5656 23.5359 26.75 24 26.75H27C27.4641 26.75 27.9092 26.5656 28.2374 26.2374C28.5656 25.9093 28.75 25.4641 28.75 25V14.75H30C30.1989 14.75 30.3897 14.671 30.5303 14.5303C30.671 14.3897 30.75 14.1989 30.75 14C30.75 13.8011 30.671 13.6103 30.5303 13.4697C30.3897 13.329 30.1989 13.25 30 13.25ZM14.445 2.90751C14.4635 2.86099 14.4956 2.82111 14.537 2.79303C14.5785 2.76495 14.6274 2.74996 14.6775 2.75001H17.3225C17.3726 2.74996 17.4215 2.76495 17.463 2.79303C17.5044 2.82111 17.5365 2.86099 17.555 2.90751L18.8925 6.25001H13.1075L14.445 2.90751ZM8.36375 7.87501C8.38567 7.83704 8.41719 7.80551 8.45514 7.78357C8.4931 7.76163 8.53616 7.75006 8.58 7.75001H23.42C23.4638 7.75006 23.5069 7.76163 23.5449 7.78357C23.5828 7.80551 23.6143 7.83704 23.6362 7.87501L26.7075 13.25H5.2925L8.36375 7.87501ZM8.25 25C8.25 25.0663 8.22366 25.1299 8.17678 25.1768C8.12989 25.2237 8.0663 25.25 8 25.25H5C4.9337 25.25 4.87011 25.2237 4.82322 25.1768C4.77634 25.1299 4.75 25.0663 4.75 25V22.75H8.25V25ZM27 25.25H24C23.9337 25.25 23.8701 25.2237 23.8232 25.1768C23.7763 25.1299 23.75 25.0663 23.75 25V22.75H27.25V25C27.25 25.0663 27.2237 25.1299 27.1768 25.1768C27.1299 25.2237 27.0663 25.25 27 25.25ZM27.25 21.25H4.75V14.75H27.25V21.25ZM7.25 18C7.25 17.8011 7.32902 17.6103 7.46967 17.4697C7.61032 17.329 7.80109 17.25 8 17.25H10C10.1989 17.25 10.3897 17.329 10.5303 17.4697C10.671 17.6103 10.75 17.8011 10.75 18C10.75 18.1989 10.671 18.3897 10.5303 18.5303C10.3897 18.671 10.1989 18.75 10 18.75H8C7.80109 18.75 7.61032 18.671 7.46967 18.5303C7.32902 18.3897 7.25 18.1989 7.25 18ZM21.25 18C21.25 17.8011 21.329 17.6103 21.4697 17.4697C21.6103 17.329 21.8011 17.25 22 17.25H24C24.1989 17.25 24.3897 17.329 24.5303 17.4697C24.671 17.6103 24.75 17.8011 24.75 18C24.75 18.1989 24.671 18.3897 24.5303 18.5303C24.3897 18.671 24.1989 18.75 24 18.75H22C21.8011 18.75 21.6103 18.671 21.4697 18.5303C21.329 18.3897 21.25 18.1989 21.25 18Z" fill="white"/>
</svg>
