<svg width="32" height="32" viewBox="0 0 32 32" fill="none" xmlns="http://www.w3.org/2000/svg">
<path d="M28 20.25C27.4033 20.25 26.831 20.0129 26.409 19.591C25.9871 19.169 25.75 18.5967 25.75 18V8C25.75 6.20979 25.0388 4.4929 23.773 3.22703C22.5071 1.96116 20.7902 1.25 19 1.25C17.2098 1.25 15.4929 1.96116 14.227 3.22703C12.9612 4.4929 12.25 6.20979 12.25 8V9.25H9.56625C9.26429 9.25099 8.96767 9.32972 8.70495 9.47859C8.44223 9.62746 8.22227 9.84147 8.06625 10.1L5.5 14.375C5.33644 14.6472 5.25003 14.9587 5.25 15.2762V27C5.25 27.4641 5.43437 27.9092 5.76256 28.2374C6.09075 28.5656 6.53587 28.75 7 28.75H19C19.4641 28.75 19.9092 28.5656 20.2374 28.2374C20.5656 27.9092 20.75 27.4641 20.75 27V15.2775C20.75 14.96 20.6636 14.6484 20.5 14.3763L17.935 10.1C17.779 9.84147 17.559 9.62746 17.2963 9.47859C17.0336 9.32972 16.737 9.25099 16.435 9.25H13.75V8C13.75 6.60761 14.3031 5.27226 15.2877 4.28769C16.2723 3.30312 17.6076 2.75 19 2.75C20.3924 2.75 21.7277 3.30312 22.7123 4.28769C23.6969 5.27226 24.25 6.60761 24.25 8V18C24.25 18.9946 24.6451 19.9484 25.3483 20.6517C26.0516 21.3549 27.0054 21.75 28 21.75C28.1989 21.75 28.3897 21.671 28.5303 21.5303C28.671 21.3897 28.75 21.1989 28.75 21C28.75 20.8011 28.671 20.6103 28.5303 20.4697C28.3897 20.329 28.1989 20.25 28 20.25ZM16.4338 10.75C16.4774 10.7503 16.5202 10.7619 16.5579 10.7839C16.5956 10.8058 16.6269 10.8372 16.6488 10.875L19.215 15.1525C19.2375 15.1904 19.2495 15.2335 19.25 15.2775V27C19.25 27.0663 19.2237 27.1299 19.1768 27.1768C19.1299 27.2237 19.0663 27.25 19 27.25H7C6.9337 27.25 6.87011 27.2237 6.82322 27.1768C6.77634 27.1299 6.75 27.0663 6.75 27V15.2775C6.75084 15.2334 6.76334 15.1902 6.78625 15.1525L9.35125 10.875C9.37306 10.8372 9.40439 10.8058 9.4421 10.7839C9.47982 10.7619 9.52262 10.7503 9.56625 10.75H12.25V17C12.25 17.1989 12.329 17.3897 12.4697 17.5303C12.6103 17.671 12.8011 17.75 13 17.75C13.1989 17.75 13.3897 17.671 13.5303 17.5303C13.671 17.3897 13.75 17.1989 13.75 17V10.75H16.4338Z" fill="white"/>
</svg>
