<svg width="32" height="32" viewBox="0 0 32 32" fill="none" xmlns="http://www.w3.org/2000/svg">
<path d="M27 8.25003H17.81L22.53 3.53003C22.6625 3.38786 22.7346 3.19981 22.7312 3.00551C22.7277 2.81121 22.649 2.62582 22.5116 2.48841C22.3742 2.351 22.1888 2.27228 21.9945 2.26886C21.8002 2.26543 21.6122 2.33755 21.47 2.47003L16 7.93878L10.53 2.47003C10.4613 2.39634 10.3785 2.33724 10.2865 2.29625C10.1945 2.25526 10.0952 2.23322 9.99452 2.23144C9.89382 2.22966 9.79379 2.24819 9.7004 2.28591C9.60701 2.32363 9.52218 2.37977 9.45096 2.45099C9.37974 2.52221 9.3236 2.60705 9.28588 2.70043C9.24816 2.79382 9.22963 2.89385 9.23141 2.99455C9.23318 3.09526 9.25523 3.19457 9.29622 3.28657C9.33721 3.37857 9.39631 3.46137 9.47 3.53003L14.19 8.25003H5C4.53587 8.25003 4.09075 8.43441 3.76256 8.76259C3.43437 9.09078 3.25 9.5359 3.25 10V25C3.25 25.4642 3.43437 25.9093 3.76256 26.2375C4.09075 26.5657 4.53587 26.75 5 26.75H27C27.4641 26.75 27.9092 26.5657 28.2374 26.2375C28.5656 25.9093 28.75 25.4642 28.75 25V10C28.75 9.5359 28.5656 9.09078 28.2374 8.76259C27.9092 8.43441 27.4641 8.25003 27 8.25003ZM4.75 25V10C4.75 9.93373 4.77634 9.87014 4.82322 9.82325C4.87011 9.77637 4.9337 9.75003 5 9.75003H18.25V25.25H5C4.9337 25.25 4.87011 25.2237 4.82322 25.1768C4.77634 25.1299 4.75 25.0663 4.75 25ZM27.25 25C27.25 25.0663 27.2237 25.1299 27.1768 25.1768C27.1299 25.2237 27.0663 25.25 27 25.25H19.75V9.75003H27C27.0663 9.75003 27.1299 9.77637 27.1768 9.82325C27.2237 9.87014 27.25 9.93373 27.25 10V25ZM24.75 14.5C24.75 14.7473 24.6767 14.9889 24.5393 15.1945C24.402 15.4001 24.2068 15.5603 23.9784 15.6549C23.7499 15.7495 23.4986 15.7742 23.2561 15.726C23.0137 15.6778 22.7909 15.5587 22.6161 15.3839C22.4413 15.2091 22.3223 14.9864 22.274 14.7439C22.2258 14.5014 22.2505 14.2501 22.3451 14.0217C22.4398 13.7933 22.6 13.598 22.8055 13.4607C23.0111 13.3233 23.2528 13.25 23.5 13.25C23.8315 13.25 24.1495 13.3817 24.3839 13.6161C24.6183 13.8506 24.75 14.1685 24.75 14.5ZM24.75 20.5C24.75 20.7473 24.6767 20.9889 24.5393 21.1945C24.402 21.4001 24.2068 21.5603 23.9784 21.6549C23.7499 21.7495 23.4986 21.7742 23.2561 21.726C23.0137 21.6778 22.7909 21.5587 22.6161 21.3839C22.4413 21.2091 22.3223 20.9864 22.274 20.7439C22.2258 20.5014 22.2505 20.2501 22.3451 20.0217C22.4398 19.7933 22.6 19.598 22.8055 19.4607C23.0111 19.3233 23.2528 19.25 23.5 19.25C23.8315 19.25 24.1495 19.3817 24.3839 19.6161C24.6183 19.8506 24.75 20.1685 24.75 20.5Z" fill="white"/>
</svg>
