<svg width="32" height="32" viewBox="0 0 32 32" fill="none" xmlns="http://www.w3.org/2000/svg">
<path d="M27 8.25003H17.81L22.53 3.53003C22.6625 3.38786 22.7346 3.19981 22.7312 3.00551C22.7277 2.81121 22.649 2.62582 22.5116 2.48841C22.3742 2.351 22.1888 2.27228 21.9945 2.26886C21.8002 2.26543 21.6122 2.33755 21.47 2.47003L16 7.93878L10.53 2.47003C10.4613 2.39634 10.3785 2.33724 10.2865 2.29625C10.1945 2.25526 10.0952 2.23322 9.99452 2.23144C9.89382 2.22966 9.79379 2.24819 9.7004 2.28591C9.60701 2.32363 9.52218 2.37977 9.45096 2.45099C9.37974 2.52221 9.3236 2.60705 9.28588 2.70043C9.24816 2.79382 9.22963 2.89385 9.23141 2.99455C9.23318 3.09526 9.25523 3.19457 9.29622 3.28657C9.33721 3.37857 9.39631 3.46137 9.47 3.53003L14.19 8.25003H5C4.53587 8.25003 4.09075 8.43441 3.76256 8.76259C3.43437 9.09078 3.25 9.5359 3.25 10V25C3.25 25.4642 3.43437 25.9093 3.76256 26.2375C4.09075 26.5657 4.53587 26.75 5 26.75H27C27.4641 26.75 27.9092 26.5657 28.2374 26.2375C28.5656 25.9093 28.75 25.4642 28.75 25V10C28.75 9.5359 28.5656 9.09078 28.2374 8.76259C27.9092 8.43441 27.4641 8.25003 27 8.25003ZM27.25 25C27.25 25.0663 27.2237 25.1299 27.1768 25.1768C27.1299 25.2237 27.0663 25.25 27 25.25H5C4.9337 25.25 4.87011 25.2237 4.82322 25.1768C4.77634 25.1299 4.75 25.0663 4.75 25V10C4.75 9.93373 4.77634 9.87014 4.82322 9.82325C4.87011 9.77637 4.9337 9.75003 5 9.75003H27C27.0663 9.75003 27.1299 9.77637 27.1768 9.82325C27.2237 9.87014 27.25 9.93373 27.25 10V25Z" fill="white"/>
</svg>
