<svg width="32" height="32" viewBox="0 0 32 32" fill="none" xmlns="http://www.w3.org/2000/svg">
<path d="M28.4462 3.46246C28.3257 3.3583 28.1789 3.28904 28.0218 3.26217C27.8648 3.23529 27.7034 3.25182 27.555 3.30996L2.22249 13.2237C1.91437 13.3443 1.65368 13.5616 1.47957 13.8429C1.30546 14.1243 1.22733 14.4545 1.25692 14.7841C1.28651 15.1136 1.42221 15.4247 1.64365 15.6705C1.86509 15.9163 2.16032 16.0837 2.48499 16.1475L9.24999 17.4762V25C9.25013 25.3488 9.3545 25.6896 9.5497 25.9786C9.74491 26.2677 10.022 26.4918 10.3455 26.6223C10.669 26.7527 11.0241 26.7835 11.3652 26.7107C11.7063 26.6379 12.0179 26.4649 12.26 26.2137L15.59 22.76L20.7875 27.3162C21.1048 27.597 21.5138 27.7521 21.9375 27.7525C22.1225 27.752 22.3064 27.7229 22.4825 27.6662C22.7712 27.5748 23.031 27.4094 23.2358 27.1863C23.4407 26.9633 23.5835 26.6904 23.65 26.395L28.7275 4.32121C28.7632 4.16603 28.7559 4.00405 28.7063 3.85272C28.6567 3.7014 28.5668 3.56646 28.4462 3.46246ZM2.75624 14.6712C2.75145 14.6583 2.75145 14.6441 2.75624 14.6312C2.76189 14.6269 2.76822 14.6235 2.77499 14.6212L22.7387 6.80621L9.82624 16.0562L2.77499 14.6762L2.75624 14.6712ZM11.18 25.1712C11.1455 25.207 11.1012 25.2316 11.0527 25.2421C11.0042 25.2526 10.9536 25.2484 10.9075 25.23C10.8614 25.2116 10.8217 25.1799 10.7937 25.139C10.7656 25.098 10.7504 25.0496 10.75 25V18.5137L14.4612 21.7637L11.18 25.1712ZM22.1887 26.0562C22.1795 26.0985 22.1591 26.1375 22.1296 26.1692C22.1002 26.2008 22.0627 26.224 22.0212 26.2362C21.9789 26.2511 21.9334 26.2543 21.8894 26.2455C21.8454 26.2367 21.8046 26.2162 21.7712 26.1862L11.205 16.9175L26.875 5.68746L22.1887 26.0562Z" fill="white"/>
</svg>
