<svg width="32" height="32" viewBox="0 0 32 32" fill="none" xmlns="http://www.w3.org/2000/svg">
<path d="M25.0199 6.98501C23.2368 5.20171 20.965 3.98722 18.4917 3.49512C16.0184 3.00302 13.4547 3.25541 11.1248 4.22038C8.79499 5.18534 6.80361 6.81954 5.40254 8.91631C4.00148 11.0131 3.25366 13.4782 3.25366 16C3.25366 18.5218 4.00148 20.9869 5.40254 23.0837C6.80361 25.1805 8.79499 26.8147 11.1248 27.7796C13.4547 28.7446 16.0184 28.997 18.4917 28.5049C20.965 28.0128 23.2368 26.7983 25.0199 25.015C26.2127 23.8362 27.1596 22.4323 27.8059 20.8848C28.4522 19.3374 28.785 17.677 28.785 16C28.785 14.323 28.4522 12.6626 27.8059 11.1152C27.1596 9.56769 26.2127 8.16386 25.0199 6.98501ZM8.04114 8.04501C9.95444 6.12975 12.4966 4.97213 15.1974 4.78626C15.0111 7.48568 13.8509 10.0256 11.9324 11.9338C10.0227 13.852 7.48154 15.0118 4.78114 15.1975C4.96812 12.4978 6.12614 9.9571 8.04114 8.04501ZM4.77489 16.7038C7.87808 16.52 10.8054 15.2018 12.9999 13C15.2029 10.8098 16.5234 7.88588 16.7099 4.78501C19.4453 4.95059 22.0256 6.11156 23.9638 8.04888C25.9021 9.9862 27.0643 12.5659 27.2311 15.3013C24.1318 15.4951 21.2098 16.8135 19.0135 19.0089C16.8171 21.2043 15.4976 24.1257 15.3024 27.225C12.565 27.0608 9.98261 25.8997 8.04296 23.9612C6.10331 22.0227 4.94074 19.441 4.77489 16.7038ZM23.9586 23.9538C22.0451 25.8685 19.503 27.0256 16.8024 27.2113C16.9959 24.5133 18.1556 21.9755 20.0688 20.0634C21.9821 18.1513 24.5205 16.9931 27.2186 16.8013C27.0319 19.5014 25.8739 22.0426 23.9586 23.955V23.9538Z" fill="white"/>
</svg>
