<svg width="32" height="32" viewBox="0 0 32 32" fill="none" xmlns="http://www.w3.org/2000/svg">
<path d="M31.6851 23.695L23.6851 5.695C23.6261 5.56256 23.53 5.45004 23.4085 5.37106C23.2869 5.29209 23.145 5.25004 23.0001 5.25H9.00006C8.85642 5.25021 8.71585 5.29168 8.59508 5.36945C8.47432 5.44723 8.37843 5.55806 8.31881 5.68875V5.695V5.70625L0.315062 23.695C0.264237 23.8092 0.242751 23.9342 0.252556 24.0588C0.262361 24.1834 0.303147 24.3036 0.371207 24.4084C0.439267 24.5132 0.532443 24.5994 0.642268 24.6591C0.752092 24.7187 0.875082 24.75 1.00006 24.75H31.0001C31.125 24.75 31.248 24.7187 31.3579 24.6591C31.4677 24.5994 31.5609 24.5132 31.6289 24.4084C31.697 24.3036 31.7378 24.1834 31.7476 24.0588C31.7574 23.9342 31.7359 23.8092 31.6851 23.695ZM8.25006 9.53375V23.25H2.15381L8.25006 9.53375ZM9.75006 23.25V9.53375L15.8463 23.25H9.75006ZM17.4876 23.25L10.1538 6.75H22.5126L29.8463 23.25H17.4876Z" fill="white"/>
</svg>
