<svg width="32" height="32" viewBox="0 0 32 32" fill="none" xmlns="http://www.w3.org/2000/svg">
<path d="M14.5 16.5599L5.50004 24.5599C5.35085 24.6926 5.1551 24.7605 4.95584 24.7487C4.75659 24.737 4.57015 24.6466 4.43754 24.4974C4.30493 24.3483 4.23702 24.1525 4.24874 23.9533C4.26046 23.754 4.35085 23.5676 4.50004 23.4349L12.875 15.9999L4.50004 8.56119C4.35085 8.42859 4.26046 8.24215 4.24874 8.04289C4.23702 7.84363 4.30493 7.64788 4.43754 7.49869C4.57015 7.34951 4.75659 7.25911 4.95584 7.24739C5.1551 7.23567 5.35085 7.30359 5.50004 7.43619L14.5 15.4362C14.5798 15.5066 14.6438 15.5931 14.6875 15.6901C14.7313 15.7871 14.754 15.8923 14.754 15.9987C14.754 16.1051 14.7313 16.2103 14.6875 16.3073C14.6438 16.4043 14.5798 16.4908 14.5 16.5612V16.5599ZM27 23.2499H15C14.8011 23.2499 14.6104 23.329 14.4697 23.4696C14.3291 23.6103 14.25 23.801 14.25 23.9999C14.25 24.1989 14.3291 24.3896 14.4697 24.5303C14.6104 24.6709 14.8011 24.7499 15 24.7499H27C27.1989 24.7499 27.3897 24.6709 27.5304 24.5303C27.671 24.3896 27.75 24.1989 27.75 23.9999C27.75 23.801 27.671 23.6103 27.5304 23.4696C27.3897 23.329 27.1989 23.2499 27 23.2499Z" fill="white"/>
</svg>
