<svg width="32" height="32" viewBox="0 0 32 32" fill="none" xmlns="http://www.w3.org/2000/svg">
<path d="M30.75 18C30.75 18.1989 30.671 18.3897 30.5303 18.5303C30.3897 18.671 30.1989 18.75 30 18.75H24C23.8607 18.75 23.7242 18.7112 23.6057 18.638C23.4872 18.5647 23.3915 18.46 23.3292 18.3354C23.2669 18.2108 23.2405 18.0713 23.253 17.9326C23.2656 17.7939 23.3164 17.6614 23.4 17.55L28.7963 10.3562C28.9895 10.0969 29.1246 9.79894 29.1923 9.48267C29.26 9.16641 29.2587 8.83927 29.1885 8.52354C29.1183 8.20782 28.9809 7.91094 28.7856 7.65313C28.5903 7.39532 28.3417 7.18264 28.0568 7.0296C27.7719 6.87655 27.4573 6.78674 27.1345 6.76626C26.8118 6.74579 26.4884 6.79515 26.1864 6.91098C25.8844 7.0268 25.6109 7.20637 25.3846 7.43744C25.1583 7.66851 24.9845 7.94565 24.875 8.24998C24.8053 8.43293 24.6668 8.58136 24.4891 8.66357C24.3115 8.74579 24.1087 8.75527 23.9241 8.69C23.7395 8.62472 23.5878 8.48985 23.5013 8.31421C23.4148 8.13857 23.4005 7.93608 23.4613 7.74998C23.5892 7.39132 23.7709 7.05415 24 6.74998C24.5977 5.95433 25.4871 5.42872 26.4723 5.28877C27.4576 5.14882 28.4581 5.406 29.2538 6.00373C30.0494 6.60146 30.575 7.49078 30.715 8.47605C30.8549 9.46132 30.5977 10.4618 30 11.2575L25.5 17.25H30C30.1989 17.25 30.3897 17.329 30.5303 17.4697C30.671 17.6103 30.75 17.8011 30.75 18ZM18.4913 9.43373C18.341 9.30353 18.1453 9.2383 17.947 9.25236C17.7487 9.26643 17.5641 9.35864 17.4338 9.50873L11.5 16.355L5.56626 9.50873C5.50281 9.43087 5.42437 9.36655 5.3356 9.31958C5.24682 9.27261 5.14951 9.24395 5.04945 9.23531C4.94938 9.22666 4.8486 9.23819 4.75308 9.26923C4.65756 9.30027 4.56925 9.35018 4.49338 9.416C4.41751 9.48182 4.35564 9.5622 4.31143 9.65239C4.26722 9.74257 4.24157 9.84072 4.23601 9.941C4.23045 10.0413 4.24509 10.1417 4.27906 10.2362C4.31303 10.3307 4.36564 10.4174 4.43376 10.4912L10.5075 17.5L4.43376 24.5087C4.36564 24.5825 4.31303 24.6693 4.27906 24.7638C4.24509 24.8583 4.23045 24.9587 4.23601 25.059C4.24157 25.1592 4.26722 25.2574 4.31143 25.3476C4.35564 25.4378 4.41751 25.5181 4.49338 25.584C4.56925 25.6498 4.65756 25.6997 4.75308 25.7307C4.8486 25.7618 4.94938 25.7733 5.04945 25.7647C5.14951 25.756 5.24682 25.7273 5.3356 25.6804C5.42437 25.6334 5.50281 25.5691 5.56626 25.4912L11.5 18.645L17.4338 25.4912C17.566 25.6344 17.7487 25.7206 17.9433 25.7314C18.138 25.7422 18.3291 25.6768 18.4763 25.549C18.6236 25.4213 18.7153 25.2413 18.7321 25.0471C18.7489 24.8529 18.6894 24.6598 18.5663 24.5087L12.4925 17.5L18.5663 10.4912C18.6965 10.341 18.7617 10.1452 18.7476 9.94696C18.7336 9.74867 18.6414 9.56407 18.4913 9.43373Z" fill="white"/>
</svg>
