<svg width="32" height="32" viewBox="0 0 32 32" fill="none" xmlns="http://www.w3.org/2000/svg">
<path d="M18.75 7V22C18.75 22.1989 18.671 22.3897 18.5303 22.5303C18.3897 22.671 18.1989 22.75 18 22.75C17.8011 22.75 17.6103 22.671 17.4697 22.5303C17.329 22.3897 17.25 22.1989 17.25 22V15.25H5.75V22C5.75 22.1989 5.67098 22.3897 5.53033 22.5303C5.38968 22.671 5.19891 22.75 5 22.75C4.80109 22.75 4.61032 22.671 4.46967 22.5303C4.32902 22.3897 4.25 22.1989 4.25 22V7C4.25 6.80109 4.32902 6.61032 4.46967 6.46967C4.61032 6.32902 4.80109 6.25 5 6.25C5.19891 6.25 5.38968 6.32902 5.53033 6.46967C5.67098 6.61032 5.75 6.80109 5.75 7V13.75H17.25V7C17.25 6.80109 17.329 6.61032 17.4697 6.46967C17.6103 6.32902 17.8011 6.25 18 6.25C18.1989 6.25 18.3897 6.32902 18.5303 6.46967C18.671 6.61032 18.75 6.80109 18.75 7ZM31.75 23C31.75 23.1989 31.671 23.3897 31.5303 23.5303C31.3897 23.671 31.1989 23.75 31 23.75H29.75V26C29.75 26.1989 29.671 26.3897 29.5303 26.5303C29.3897 26.671 29.1989 26.75 29 26.75C28.8011 26.75 28.6103 26.671 28.4697 26.5303C28.329 26.3897 28.25 26.1989 28.25 26V23.75H22C21.8596 23.75 21.7221 23.7107 21.603 23.6364C21.4839 23.5621 21.388 23.4559 21.3263 23.3298C21.2646 23.2038 21.2394 23.0629 21.2538 22.9233C21.2682 22.7837 21.3214 22.6509 21.4075 22.54L28.4075 13.54C28.5034 13.4165 28.6355 13.326 28.7853 13.2812C28.9351 13.2365 29.0952 13.2396 29.2431 13.2903C29.391 13.341 29.5194 13.4367 29.6103 13.5639C29.7012 13.6912 29.75 13.8436 29.75 14V22.25H31C31.1989 22.25 31.3897 22.329 31.5303 22.4697C31.671 22.6103 31.75 22.8011 31.75 23ZM28.25 16.1863L23.5338 22.25H28.25V16.1863Z" fill="white"/>
</svg>
