<svg width="32" height="32" viewBox="0 0 32 32" fill="none" xmlns="http://www.w3.org/2000/svg">
<path d="M27.75 16C27.75 16.1989 27.671 16.3896 27.5303 16.5303C27.3897 16.671 27.1989 16.75 27 16.75H14C13.8011 16.75 13.6103 16.671 13.4697 16.5303C13.329 16.3896 13.25 16.1989 13.25 16C13.25 15.8011 13.329 15.6103 13.4697 15.4696C13.6103 15.329 13.8011 15.25 14 15.25H27C27.1989 15.25 27.3897 15.329 27.5303 15.4696C27.671 15.6103 27.75 15.8011 27.75 16ZM14 8.74997H27C27.1989 8.74997 27.3897 8.67095 27.5303 8.5303C27.671 8.38965 27.75 8.19888 27.75 7.99997C27.75 7.80106 27.671 7.61029 27.5303 7.46964C27.3897 7.32899 27.1989 7.24997 27 7.24997H14C13.8011 7.24997 13.6103 7.32899 13.4697 7.46964C13.329 7.61029 13.25 7.80106 13.25 7.99997C13.25 8.19888 13.329 8.38965 13.4697 8.5303C13.6103 8.67095 13.8011 8.74997 14 8.74997ZM27 23.25H5C4.80109 23.25 4.61032 23.329 4.46967 23.4696C4.32902 23.6103 4.25 23.8011 4.25 24C4.25 24.1989 4.32902 24.3896 4.46967 24.5303C4.61032 24.671 4.80109 24.75 5 24.75H27C27.1989 24.75 27.3897 24.671 27.5303 24.5303C27.671 24.3896 27.75 24.1989 27.75 24C27.75 23.8011 27.671 23.6103 27.5303 23.4696C27.3897 23.329 27.1989 23.25 27 23.25ZM4.47 17.53C4.61063 17.6704 4.80125 17.7493 5 17.7493C5.19875 17.7493 5.38937 17.6704 5.53 17.53L10.53 12.53C10.6705 12.3893 10.7493 12.1987 10.7493 12C10.7493 11.8012 10.6705 11.6106 10.53 11.47L5.53 6.46997C5.38783 6.33749 5.19978 6.26537 5.00548 6.26879C4.81118 6.27222 4.62579 6.35093 4.48838 6.48835C4.35097 6.62576 4.27225 6.81114 4.26883 7.00545C4.2654 7.19975 4.33752 7.38779 4.47 7.52997L8.93875 12L4.47 16.47C4.32955 16.6106 4.25066 16.8012 4.25066 17C4.25066 17.1987 4.32955 17.3893 4.47 17.53Z" fill="white"/>
</svg>
