<svg width="32" height="32" viewBox="0 0 32 32" fill="none" xmlns="http://www.w3.org/2000/svg">
<path d="M27.7501 16C27.7501 16.1989 27.6711 16.3896 27.5304 16.5303C27.3898 16.671 27.199 16.75 27.0001 16.75H14.0001C13.8012 16.75 13.6104 16.671 13.4697 16.5303C13.3291 16.3896 13.2501 16.1989 13.2501 16C13.2501 15.8011 13.3291 15.6103 13.4697 15.4696C13.6104 15.329 13.8012 15.25 14.0001 15.25H27.0001C27.199 15.25 27.3898 15.329 27.5304 15.4696C27.6711 15.6103 27.7501 15.8011 27.7501 16ZM14.0001 8.74997H27.0001C27.199 8.74997 27.3898 8.67095 27.5304 8.5303C27.6711 8.38965 27.7501 8.19888 27.7501 7.99997C27.7501 7.80106 27.6711 7.61029 27.5304 7.46964C27.3898 7.32899 27.199 7.24997 27.0001 7.24997H14.0001C13.8012 7.24997 13.6104 7.32899 13.4697 7.46964C13.3291 7.61029 13.2501 7.80106 13.2501 7.99997C13.2501 8.19888 13.3291 8.38965 13.4697 8.5303C13.6104 8.67095 13.8012 8.74997 14.0001 8.74997ZM27.0001 23.25H5.00007C4.80116 23.25 4.61039 23.329 4.46974 23.4696C4.32909 23.6103 4.25007 23.8011 4.25007 24C4.25007 24.1989 4.32909 24.3896 4.46974 24.5303C4.61039 24.671 4.80116 24.75 5.00007 24.75H27.0001C27.199 24.75 27.3898 24.671 27.5304 24.5303C27.6711 24.3896 27.7501 24.1989 27.7501 24C27.7501 23.8011 27.6711 23.6103 27.5304 23.4696C27.3898 23.329 27.199 23.25 27.0001 23.25ZM9.00007 17.75C9.14831 17.7498 9.29319 17.7058 9.4164 17.6234C9.53962 17.5409 9.63565 17.4239 9.69236 17.2869C9.74907 17.1499 9.76392 16.9992 9.73504 16.8538C9.70615 16.7084 9.63483 16.5749 9.53007 16.47L5.06132 12L9.53007 7.52997C9.66255 7.38779 9.73468 7.19975 9.73125 7.00545C9.72782 6.81114 9.64911 6.62576 9.51169 6.48835C9.37428 6.35093 9.1889 6.27222 8.99459 6.26879C8.80029 6.26537 8.61225 6.33749 8.47007 6.46997L3.47007 11.47C3.32962 11.6106 3.25073 11.8012 3.25073 12C3.25073 12.1987 3.32962 12.3893 3.47007 12.53L8.47007 17.53C8.61059 17.6707 8.80123 17.7498 9.00007 17.75Z" fill="white"/>
</svg>
