<svg width="32" height="32" viewBox="0 0 32 32" fill="none" xmlns="http://www.w3.org/2000/svg">
<path d="M10.6786 6.68131C10.6181 6.55246 10.5221 6.44351 10.4019 6.3672C10.2817 6.29089 10.1423 6.25037 9.99989 6.25037C9.85752 6.25037 9.71809 6.29089 9.59789 6.3672C9.4777 6.44351 9.38171 6.55246 9.32114 6.68131L1.32114 23.6813C1.23644 23.8613 1.22671 24.0676 1.29411 24.2548C1.36151 24.442 1.5005 24.5947 1.68052 24.6794C1.86053 24.7641 2.06682 24.7739 2.25401 24.7065C2.44119 24.6391 2.59394 24.5001 2.67864 24.3201L4.82864 19.7501H15.1711L17.3211 24.3188C17.3631 24.4079 17.4222 24.4879 17.495 24.5542C17.5679 24.6205 17.6531 24.6718 17.7458 24.7052C17.8385 24.7386 17.9368 24.7534 18.0352 24.7487C18.1336 24.7441 18.2301 24.7201 18.3193 24.6782C18.4084 24.6362 18.4884 24.5772 18.5547 24.5043C18.621 24.4314 18.6723 24.3462 18.7057 24.2535C18.739 24.1609 18.7538 24.0625 18.7492 23.9641C18.7446 23.8657 18.7206 23.7692 18.6786 23.6801L10.6786 6.68131ZM5.53489 18.2501L9.99989 8.76131L14.4649 18.2501H5.53489ZM24.9999 12.2501C23.4736 12.2501 22.2861 12.6601 21.4711 13.4676C21.4012 13.537 21.3456 13.6195 21.3076 13.7104C21.2696 13.8013 21.2498 13.8989 21.2495 13.9974C21.2491 14.096 21.2682 14.1936 21.3056 14.2848C21.343 14.376 21.398 14.4589 21.4674 14.5288C21.6076 14.67 21.7982 14.7498 21.9972 14.7505C22.0958 14.7508 22.1934 14.7318 22.2846 14.6944C22.3758 14.657 22.4587 14.602 22.5286 14.5326C23.0511 14.0138 23.8836 13.7501 24.9999 13.7501C26.7924 13.7501 28.2499 14.9838 28.2499 16.5001V17.4051C27.3359 16.6502 26.1853 16.2413 24.9999 16.2501C22.3811 16.2501 20.2499 18.1563 20.2499 20.5001C20.2499 22.8438 22.3811 24.7501 24.9999 24.7501C26.1853 24.7588 27.3359 24.3499 28.2499 23.5951V24.0001C28.2499 24.199 28.3289 24.3897 28.4696 24.5304C28.6102 24.671 28.801 24.7501 28.9999 24.7501C29.1988 24.7501 29.3896 24.671 29.5302 24.5304C29.6709 24.3897 29.7499 24.199 29.7499 24.0001V16.5001C29.7499 14.1563 27.6249 12.2501 24.9999 12.2501ZM24.9999 23.2501C23.2074 23.2501 21.7499 22.0163 21.7499 20.5001C21.7499 18.9838 23.2074 17.7501 24.9999 17.7501C26.7924 17.7501 28.2499 18.9838 28.2499 20.5001C28.2499 22.0163 26.7924 23.2501 24.9999 23.2501Z" fill="white"/>
</svg>
