<svg width="32" height="32" viewBox="0 0 32 32" fill="none" xmlns="http://www.w3.org/2000/svg">
<path d="M26.4999 27.555C26.427 27.6213 26.3418 27.6727 26.2491 27.7061C26.1564 27.7395 26.058 27.7543 25.9595 27.7497C25.8611 27.745 25.7645 27.721 25.6754 27.679C25.5862 27.6371 25.5062 27.5779 25.4399 27.505L16.7499 17.94V24.25H19.9999C20.1988 24.25 20.3896 24.329 20.5302 24.4697C20.6709 24.6103 20.7499 24.8011 20.7499 25C20.7499 25.1989 20.6709 25.3897 20.5302 25.5303C20.3896 25.671 20.1988 25.75 19.9999 25.75H11.9999C11.801 25.75 11.6102 25.671 11.4696 25.5303C11.3289 25.3897 11.2499 25.1989 11.2499 25C11.2499 24.8011 11.3289 24.6103 11.4696 24.4697C11.6102 24.329 11.801 24.25 11.9999 24.25H15.2499V16.29L7.7499 8.03998V11C7.7499 11.1989 7.67089 11.3897 7.53023 11.5303C7.38958 11.671 7.19882 11.75 6.9999 11.75C6.80099 11.75 6.61023 11.671 6.46957 11.5303C6.32892 11.3897 6.2499 11.1989 6.2499 11V6.99998C6.25035 6.83913 6.3025 6.68268 6.39865 6.55373L5.4449 5.49998C5.33243 5.35017 5.28009 5.1637 5.29819 4.97724C5.31628 4.79078 5.4035 4.61785 5.54268 4.49246C5.68186 4.36707 5.86292 4.29831 6.05025 4.2997C6.23758 4.3011 6.4176 4.37254 6.5549 4.49998L26.5549 26.5C26.6868 26.6475 26.755 26.8412 26.7447 27.0388C26.7344 27.2364 26.6464 27.422 26.4999 27.555ZM13.2237 7.74998H15.2499V10.0537C15.2499 10.2526 15.3289 10.4434 15.4696 10.5841C15.6102 10.7247 15.801 10.8037 15.9999 10.8037C16.1988 10.8037 16.3896 10.7247 16.5302 10.5841C16.6709 10.4434 16.7499 10.2526 16.7499 10.0537V7.74998H24.2499V11C24.2499 11.1989 24.3289 11.3897 24.4696 11.5303C24.6102 11.671 24.801 11.75 24.9999 11.75C25.1988 11.75 25.3896 11.671 25.5302 11.5303C25.6709 11.3897 25.7499 11.1989 25.7499 11V6.99998C25.7499 6.80107 25.6709 6.6103 25.5302 6.46965C25.3896 6.329 25.1988 6.24998 24.9999 6.24998H13.2237C13.0247 6.24998 12.834 6.329 12.6933 6.46965C12.5527 6.6103 12.4737 6.80107 12.4737 6.99998C12.4737 7.19889 12.5527 7.38966 12.6933 7.53031C12.834 7.67096 13.0247 7.74998 13.2237 7.74998Z" fill="white"/>
</svg>
