<svg width="32" height="32" viewBox="0 0 32 32" fill="none" xmlns="http://www.w3.org/2000/svg">
<path d="M7.68125 21.6787C7.77051 21.721 7.86724 21.7452 7.96587 21.7499C8.06451 21.7547 8.16311 21.7399 8.25602 21.7064C8.34894 21.673 8.43433 21.6215 8.5073 21.555C8.58027 21.4885 8.63939 21.4082 8.68125 21.3187L10.8287 16.75H21.1712L23.3213 21.3187C23.3818 21.4476 23.4777 21.5567 23.5979 21.633C23.7181 21.7094 23.8576 21.75 24 21.75C24.1102 21.7503 24.2191 21.7259 24.3188 21.6787C24.4082 21.6369 24.4885 21.5778 24.555 21.5048C24.6215 21.4318 24.673 21.3464 24.7065 21.2535C24.7399 21.1606 24.7547 21.062 24.7499 20.9634C24.7452 20.8647 24.721 20.768 24.6787 20.6787L16.6787 3.67874C16.6182 3.5499 16.5222 3.44095 16.402 3.36464C16.2818 3.28833 16.1424 3.2478 16 3.2478C15.8576 3.2478 15.7182 3.28833 15.598 3.36464C15.4778 3.44095 15.3818 3.5499 15.3212 3.67874L7.32125 20.6787C7.27902 20.768 7.25483 20.8647 7.25008 20.9634C7.24533 21.062 7.2601 21.1606 7.29354 21.2535C7.32699 21.3464 7.37846 21.4318 7.44499 21.5048C7.51153 21.5778 7.59181 21.6369 7.68125 21.6787ZM16 5.76124L20.465 15.25H11.535L16 5.76124ZM27.75 27C27.75 27.1989 27.671 27.3897 27.5303 27.5303C27.3897 27.671 27.1989 27.75 27 27.75H5C4.80109 27.75 4.61032 27.671 4.46967 27.5303C4.32902 27.3897 4.25 27.1989 4.25 27C4.25 26.8011 4.32902 26.6103 4.46967 26.4697C4.61032 26.329 4.80109 26.25 5 26.25H27C27.1989 26.25 27.3897 26.329 27.5303 26.4697C27.671 26.6103 27.75 26.8011 27.75 27Z" fill="white"/>
</svg>
