<svg width="32" height="32" viewBox="0 0 32 32" fill="none" xmlns="http://www.w3.org/2000/svg">
<path d="M30.75 26C30.75 26.1989 30.671 26.3897 30.5303 26.5303C30.3897 26.671 30.1989 26.75 30 26.75H24C23.8607 26.75 23.7242 26.7112 23.6057 26.638C23.4872 26.5648 23.3915 26.46 23.3292 26.3354C23.2669 26.2108 23.2405 26.0714 23.253 25.9327C23.2656 25.7939 23.3164 25.6614 23.4 25.55L28.7963 18.355C28.9898 18.0957 29.1251 17.7976 29.193 17.4812C29.2608 17.1648 29.2596 16.8375 29.1895 16.5216C29.1193 16.2057 28.9819 15.9086 28.7865 15.6507C28.5911 15.3928 28.3423 15.18 28.0572 15.0269C27.7721 14.8739 27.4573 14.7841 27.1343 14.7638C26.8114 14.7435 26.4878 14.7931 26.1858 14.9091C25.8837 15.0252 25.6103 15.2051 25.3841 15.4365C25.1579 15.6679 24.9842 15.9454 24.875 16.25C24.8439 16.3451 24.7942 16.433 24.7286 16.5085C24.6631 16.5841 24.5831 16.6458 24.4934 16.6899C24.4037 16.7341 24.306 16.7599 24.2062 16.7658C24.1063 16.7717 24.0063 16.7575 23.912 16.7242C23.8177 16.6908 23.7311 16.6389 23.6571 16.5716C23.5832 16.5043 23.5234 16.4228 23.4814 16.332C23.4394 16.2413 23.416 16.143 23.4125 16.0431C23.4091 15.9431 23.4256 15.8435 23.4613 15.75C23.644 15.2434 23.9338 14.7821 24.3109 14.3974C24.6879 14.0128 25.1434 13.714 25.6463 13.5212C26.1492 13.3284 26.6878 13.2462 27.2253 13.2801C27.7628 13.3141 28.2867 13.4635 28.7613 13.7181C29.236 13.9727 29.6502 14.3265 29.9758 14.7556C30.3014 15.1846 30.5308 15.6787 30.6483 16.2043C30.7659 16.73 30.7688 17.2747 30.6569 17.8016C30.545 18.3284 30.321 18.825 30 19.2575L25.5 25.25H30C30.1989 25.25 30.3897 25.329 30.5303 25.4697C30.671 25.6103 30.75 25.8011 30.75 26ZM18.4913 6.43376C18.341 6.30356 18.1453 6.23832 17.947 6.25239C17.7487 6.26645 17.5641 6.35866 17.4338 6.50876L11.5 13.355L5.56626 6.50876C5.50281 6.4309 5.42437 6.36657 5.3356 6.31961C5.24682 6.27264 5.14951 6.24398 5.04945 6.23533C4.94938 6.22668 4.8486 6.23822 4.75308 6.26926C4.65756 6.3003 4.56925 6.35021 4.49338 6.41602C4.41751 6.48184 4.35564 6.56223 4.31143 6.65241C4.26722 6.74259 4.24157 6.84074 4.23601 6.94102C4.23045 7.04131 4.24509 7.14168 4.27906 7.2362C4.31303 7.33072 4.36564 7.41745 4.43376 7.49126L10.5075 14.5L4.43376 21.5088C4.36564 21.5826 4.31303 21.6693 4.27906 21.7638C4.24509 21.8583 4.23045 21.9587 4.23601 22.059C4.24157 22.1593 4.26722 22.2574 4.31143 22.3476C4.35564 22.4378 4.41751 22.5182 4.49338 22.584C4.56925 22.6498 4.65756 22.6997 4.75308 22.7308C4.8486 22.7618 4.94938 22.7733 5.04945 22.7647C5.14951 22.756 5.24682 22.7274 5.3356 22.6804C5.42437 22.6334 5.50281 22.5691 5.56626 22.4913L11.5 15.645L17.4338 22.4913C17.566 22.6345 17.7487 22.7206 17.9433 22.7314C18.138 22.7422 18.3291 22.6768 18.4763 22.5491C18.6236 22.4213 18.7153 22.2413 18.7321 22.0471C18.7489 21.8529 18.6894 21.6599 18.5663 21.5088L12.4925 14.5L18.5663 7.49126C18.6965 7.34104 18.7617 7.14527 18.7476 6.94698C18.7336 6.74869 18.6414 6.5641 18.4913 6.43376Z" fill="white"/>
</svg>
