<svg width="32" height="32" viewBox="0 0 32 32" fill="none" xmlns="http://www.w3.org/2000/svg">
<path d="M21.8363 14.5513C22.6705 13.8636 23.2721 12.9353 23.559 11.8929C23.8458 10.8506 23.8038 9.74508 23.4388 8.72746C23.0738 7.70985 22.4036 6.82973 21.5196 6.20733C20.6356 5.58493 19.5811 5.2506 18.5 5.25H10C9.80109 5.25 9.61032 5.32902 9.46967 5.46967C9.32902 5.61032 9.25 5.80109 9.25 6V25C9.25 25.1989 9.32902 25.3897 9.46967 25.5303C9.61032 25.671 9.80109 25.75 10 25.75H20C21.3636 25.7499 22.6828 25.2651 23.7221 24.3823C24.7614 23.4995 25.4531 22.2761 25.6737 20.9304C25.8944 19.5847 25.6296 18.2045 24.9267 17.036C24.2238 15.8675 23.1284 14.9868 21.8363 14.5513ZM10.75 6.75H18.5C19.4946 6.75 20.4484 7.14509 21.1516 7.84835C21.8549 8.55161 22.25 9.50544 22.25 10.5C22.25 11.4946 21.8549 12.4484 21.1516 13.1517C20.4484 13.8549 19.4946 14.25 18.5 14.25H10.75V6.75ZM20 24.25H10.75V15.75H20C21.1272 15.75 22.2082 16.1978 23.0052 16.9948C23.8022 17.7918 24.25 18.8728 24.25 20C24.25 21.1272 23.8022 22.2082 23.0052 23.0052C22.2082 23.8022 21.1272 24.25 20 24.25Z" fill="white"/>
</svg>
