<svg width="32" height="32" viewBox="0 0 32 32" fill="none" xmlns="http://www.w3.org/2000/svg">
<path d="M15.75 19.325V6C15.75 5.80109 15.671 5.61032 15.5303 5.46967C15.3897 5.32902 15.1989 5.25 15 5.25C14.8011 5.25 14.6103 5.32902 14.4697 5.46967C14.329 5.61032 14.25 5.80109 14.25 6V19.325C13.3395 19.5109 12.5304 20.0282 11.9796 20.7767C11.4288 21.5252 11.1756 22.4515 11.269 23.3761C11.3624 24.3007 11.7958 25.1577 12.4851 25.781C13.1745 26.4042 14.0707 26.7492 15 26.7492C15.9293 26.7492 16.8255 26.4042 17.5149 25.781C18.2042 25.1577 18.6376 24.3007 18.731 23.3761C18.8244 22.4515 18.5712 21.5252 18.0204 20.7767C17.4696 20.0282 16.6605 19.5109 15.75 19.325ZM15 25.25C14.555 25.25 14.12 25.118 13.75 24.8708C13.38 24.6236 13.0916 24.2722 12.9213 23.861C12.751 23.4499 12.7064 22.9975 12.7932 22.561C12.88 22.1246 13.0943 21.7237 13.409 21.409C13.7237 21.0943 14.1246 20.8801 14.561 20.7932C14.9975 20.7064 15.4499 20.751 15.861 20.9213C16.2722 21.0916 16.6236 21.38 16.8708 21.75C17.118 22.12 17.25 22.555 17.25 23C17.25 23.5967 17.0129 24.169 16.591 24.591C16.169 25.0129 15.5967 25.25 15 25.25ZM19.75 16.875V6C19.75 4.74022 19.2496 3.53204 18.3588 2.64124C17.468 1.75044 16.2598 1.25 15 1.25C13.7402 1.25 12.532 1.75044 11.6412 2.64124C10.7504 3.53204 10.25 4.74022 10.25 6V16.875C8.97322 17.8654 8.03793 19.23 7.57494 20.7781C7.11196 22.3262 7.14443 23.9803 7.66783 25.5091C8.19123 27.0378 9.17937 28.3647 10.494 29.3042C11.8087 30.2437 13.3841 30.7487 15 30.7487C16.6159 30.7487 18.1913 30.2437 19.506 29.3042C20.8206 28.3647 21.8088 27.0378 22.3322 25.5091C22.8556 23.9803 22.888 22.3262 22.4251 20.7781C21.9621 19.23 21.0268 17.8654 19.75 16.875ZM15 29.25C13.6705 29.2487 12.3761 28.8235 11.3048 28.0362C10.2335 27.2489 9.44122 26.1406 9.043 24.8721C8.64477 23.6037 8.66138 22.2413 9.09042 20.983C9.51947 19.7247 10.3386 18.6359 11.4288 17.875C11.5293 17.805 11.6111 17.7114 11.6671 17.6025C11.7231 17.4935 11.7516 17.3725 11.75 17.25V6C11.75 5.13805 12.0924 4.3114 12.7019 3.7019C13.3114 3.09241 14.138 2.75 15 2.75C15.862 2.75 16.6886 3.09241 17.2981 3.7019C17.9076 4.3114 18.25 5.13805 18.25 6V17.25C18.2501 17.3708 18.2793 17.4898 18.3352 17.5969C18.3912 17.704 18.4721 17.7959 18.5713 17.865C19.6658 18.6244 20.489 19.7137 20.9209 20.974C21.3527 22.2342 21.3706 23.5995 20.9718 24.8706C20.5731 26.1418 19.7787 27.2522 18.7044 28.04C17.6301 28.8278 16.3322 29.2518 15 29.25ZM22.375 9.96C22.2665 9.79339 22.2286 9.59052 22.2696 9.39597C22.3106 9.20142 22.4272 9.03112 22.5938 8.9225C24.3612 7.77125 25.7125 8.34625 26.7975 8.81C27.785 9.23125 28.4975 9.535 29.5938 8.82125C29.6762 8.76445 29.7692 8.72473 29.8672 8.70443C29.9652 8.68414 30.0663 8.68367 30.1646 8.70306C30.2628 8.72246 30.3561 8.76132 30.4391 8.81736C30.522 8.8734 30.5929 8.94547 30.6476 9.02935C30.7023 9.11322 30.7396 9.20719 30.7574 9.30571C30.7751 9.40423 30.773 9.50531 30.7511 9.603C30.7292 9.70069 30.6879 9.793 30.6298 9.87449C30.5716 9.95598 30.4977 10.025 30.4125 10.0775C29.6475 10.5775 28.96 10.7513 28.3388 10.7513C27.525 10.7513 26.825 10.4525 26.2138 10.19C25.2275 9.76875 24.515 9.465 23.4175 10.1788C23.3348 10.2333 23.2422 10.2709 23.1449 10.2894C23.0476 10.3079 22.9476 10.3069 22.8507 10.2866C22.7537 10.2663 22.6618 10.2269 22.5802 10.1709C22.4985 10.1148 22.4288 10.0431 22.375 9.96ZM30.625 13.04C30.7334 13.2068 30.7711 13.4097 30.7298 13.6043C30.6886 13.7989 30.5717 13.9691 30.405 14.0775C29.64 14.5775 28.9525 14.7513 28.3312 14.7513C27.5175 14.7513 26.8175 14.4525 26.2062 14.19C25.22 13.7687 24.5075 13.465 23.41 14.1788C23.2435 14.2813 23.0435 14.3147 22.8526 14.2719C22.6618 14.2291 22.4952 14.1135 22.3884 13.9496C22.2816 13.7858 22.2431 13.5867 22.281 13.3948C22.3189 13.2029 22.4302 13.0335 22.5912 12.9225C24.3587 11.7712 25.71 12.3475 26.795 12.81C27.7825 13.2313 28.495 13.535 29.5912 12.8212C29.7576 12.7139 29.9595 12.6767 30.1532 12.7177C30.3468 12.7586 30.5164 12.8745 30.625 13.04Z" fill="white"/>
</svg>
