<svg width="32" height="32" viewBox="0 0 32 32" fill="none" xmlns="http://www.w3.org/2000/svg">
<path d="M12.25 18.5C12.25 18.1389 12.1789 17.7813 12.0407 17.4476C11.9025 17.114 11.6999 16.8108 11.4445 16.5555C11.1892 16.3001 10.886 16.0975 10.5524 15.9593C10.2187 15.8211 9.86114 15.75 9.5 15.75C9.36277 15.7501 9.22815 15.7125 9.11079 15.6414C8.99342 15.5703 8.89783 15.4683 8.8344 15.3466C8.77098 15.2249 8.74216 15.0882 8.75108 14.9512C8.76 14.8143 8.80632 14.6824 8.885 14.57L11.56 10.75H7C6.80109 10.75 6.61032 10.671 6.46967 10.5303C6.32902 10.3897 6.25 10.1989 6.25 10C6.25 9.80109 6.32902 9.61032 6.46967 9.46967C6.61032 9.32902 6.80109 9.25 7 9.25H13C13.1372 9.24991 13.2719 9.28747 13.3892 9.35859C13.5066 9.42971 13.6022 9.53167 13.6656 9.65336C13.729 9.77506 13.7578 9.91182 13.7489 10.0488C13.74 10.1857 13.6937 10.3176 13.615 10.43L10.7987 14.4525C11.4128 14.6497 11.9738 14.9841 12.4395 15.4303C12.9051 15.8765 13.2631 16.4228 13.4863 17.0279C13.7095 17.6329 13.7921 18.2808 13.7278 18.9225C13.6635 19.5642 13.454 20.1829 13.1152 20.7316C12.7764 21.2803 12.3172 21.7448 11.7723 22.0897C11.2274 22.4347 10.6112 22.6511 9.97025 22.7227C9.32932 22.7942 8.68052 22.7189 8.073 22.5025C7.46548 22.2861 6.91517 21.9343 6.46375 21.4737C6.32468 21.3315 6.2478 21.1399 6.25002 20.941C6.25225 20.7421 6.3334 20.5522 6.47563 20.4131C6.61785 20.2741 6.80949 20.1972 7.0084 20.1994C7.2073 20.2016 7.39718 20.2828 7.53625 20.425C7.91863 20.815 8.40849 21.0824 8.9434 21.1929C9.47831 21.3035 10.034 21.2522 10.5397 21.0457C11.0454 20.8392 11.4781 20.4868 11.7827 20.0334C12.0873 19.58 12.25 19.0462 12.25 18.5ZM20 9.25C21.7902 9.25 23.5071 9.96116 24.773 11.227C26.0388 12.4929 26.75 14.2098 26.75 16C26.75 17.7902 26.0388 19.5071 24.773 20.773C23.5071 22.0388 21.7902 22.75 20 22.75H17C16.8011 22.75 16.6103 22.671 16.4697 22.5303C16.329 22.3897 16.25 22.1989 16.25 22V10C16.25 9.80109 16.329 9.61032 16.4697 9.46967C16.6103 9.32902 16.8011 9.25 17 9.25H20ZM20 10.75H17.75V21.25H20C21.3924 21.25 22.7277 20.6969 23.7123 19.7123C24.6969 18.7277 25.25 17.3924 25.25 16C25.25 14.6076 24.6969 13.2723 23.7123 12.2877C22.7277 11.3031 21.3924 10.75 20 10.75ZM4 6.75H28C28.1989 6.75 28.3897 6.67098 28.5303 6.53033C28.671 6.38968 28.75 6.19891 28.75 6C28.75 5.80109 28.671 5.61032 28.5303 5.46967C28.3897 5.32902 28.1989 5.25 28 5.25H4C3.80109 5.25 3.61032 5.32902 3.46967 5.46967C3.32902 5.61032 3.25 5.80109 3.25 6C3.25 6.19891 3.32902 6.38968 3.46967 6.53033C3.61032 6.67098 3.80109 6.75 4 6.75ZM28 25.25H4C3.80109 25.25 3.61032 25.329 3.46967 25.4697C3.32902 25.6103 3.25 25.8011 3.25 26C3.25 26.1989 3.32902 26.3897 3.46967 26.5303C3.61032 26.671 3.80109 26.75 4 26.75H28C28.1989 26.75 28.3897 26.671 28.5303 26.5303C28.671 26.3897 28.75 26.1989 28.75 26C28.75 25.8011 28.671 25.6103 28.5303 25.4697C28.3897 25.329 28.1989 25.25 28 25.25Z" fill="white"/>
</svg>
