<svg width="32" height="32" viewBox="0 0 32 32" fill="none" xmlns="http://www.w3.org/2000/svg">
<path d="M23.1525 15.6562C22.6955 15.3111 22.2017 15.0176 21.68 14.7812C21.2388 11.0813 18.805 9.92875 17.7013 9.59375C15.3263 8.87625 12.61 9.73 11.3763 11.5813C11.2659 11.747 11.2258 11.9498 11.265 12.1451C11.3041 12.3404 11.4192 12.5121 11.585 12.6225C11.7508 12.7329 11.9536 12.7729 12.1489 12.7338C12.3441 12.6946 12.5159 12.5795 12.6263 12.4137C13.4938 11.1125 15.5325 10.5037 17.2687 11.03C18.1712 11.3025 19.5675 12.0725 20.0675 14.2312C19.3255 14.0572 18.5659 13.97 17.8037 13.9712C16.1125 13.9712 14.5337 14.4038 13.36 15.1925C12 16.1062 11.25 17.4575 11.25 19C11.25 21.75 13.5 23.19 15.7137 23.19C16.4832 23.1847 17.2438 23.0249 17.9505 22.7202C18.6571 22.4155 19.2954 21.9721 19.8275 21.4163C20.65 20.56 21.6213 19.0275 21.7388 16.5088C21.9145 16.6139 22.0844 16.7287 22.2475 16.8525C23.5575 17.8425 24.2475 19.2775 24.2475 21C24.2475 23.52 21.6225 27.25 15.9975 27.25C12.6138 27.25 10.1325 26.1012 8.6225 23.8337C7.375 21.9688 6.75 19.3325 6.75 16C6.75 12.6675 7.375 10.0312 8.625 8.16625C10.135 5.89875 12.6163 4.75 16 4.75C20.2312 4.75 22.9462 6.45875 24.3 9.975C24.3714 10.1607 24.5137 10.3103 24.6955 10.3911C24.8773 10.4718 25.0837 10.4771 25.2694 10.4056C25.455 10.3342 25.6047 10.1919 25.6855 10.0101C25.7662 9.82833 25.7714 9.6219 25.7 9.43625C24.125 5.33125 20.8562 3.25 16 3.25C12.0837 3.25 9.1825 4.625 7.375 7.33375C5.965 9.45 5.25 12.3663 5.25 16C5.25 19.6338 5.965 22.55 7.375 24.6663C9.1825 27.375 12.0837 28.75 16 28.75C19.6788 28.75 21.9762 27.3512 23.2563 26.1775C24.8175 24.75 25.75 22.8113 25.75 21C25.75 18.7887 24.8512 16.94 23.1525 15.6562ZM18.75 20.375C18.3581 20.7857 17.8878 21.1136 17.3669 21.3393C16.846 21.565 16.2852 21.6838 15.7175 21.6887C13.6663 21.69 12.75 20.3388 12.75 19C12.75 17.3013 14.33 15.4738 17.8013 15.4738C18.6314 15.4736 19.4567 15.6001 20.2488 15.8488C20.2488 15.9 20.2488 15.9513 20.2488 16.0037C20.25 17.84 19.73 19.3525 18.75 20.375Z" fill="white"/>
</svg>
