<svg width="32" height="32" viewBox="0 0 32 32" fill="none" xmlns="http://www.w3.org/2000/svg">
<path d="M31.53 11.47L26.53 6.46995C26.3894 6.3295 26.1988 6.25061 26 6.25061C25.8013 6.25061 25.6106 6.3295 25.47 6.46995L21 10.9399L16.53 6.46995C16.3894 6.3295 16.1988 6.25061 16 6.25061C15.8013 6.25061 15.6106 6.3295 15.47 6.46995L11 10.9399L6.53 6.46995C6.38938 6.3295 6.19875 6.25061 6 6.25061C5.80125 6.25061 5.61063 6.3295 5.47 6.46995L0.470004 11.47C0.329553 11.6106 0.250664 11.8012 0.250664 12C0.250664 12.1987 0.329553 12.3893 0.470004 12.53L5.47 17.53C5.61063 17.6704 5.80125 17.7493 6 17.7493C6.19875 17.7493 6.38938 17.6704 6.53 17.53L11 13.06L14.94 17L10.47 21.4699C10.3296 21.6106 10.2507 21.8012 10.2507 22C10.2507 22.1987 10.3296 22.3893 10.47 22.53L15.47 27.53C15.6106 27.6704 15.8013 27.7493 16 27.7493C16.1988 27.7493 16.3894 27.6704 16.53 27.53L21.53 22.53C21.6705 22.3893 21.7493 22.1987 21.7493 22C21.7493 21.8012 21.6705 21.6106 21.53 21.4699L17.06 17L21 13.06L25.47 17.53C25.6106 17.6704 25.8013 17.7493 26 17.7493C26.1988 17.7493 26.3894 17.6704 26.53 17.53L31.53 12.53C31.6705 12.3893 31.7493 12.1987 31.7493 12C31.7493 11.8012 31.6705 11.6106 31.53 11.47ZM6 15.9387L2.06125 12L6 8.0612L9.93875 12L6 15.9387ZM16 25.9387L12.0613 22L16 18.0612L19.9388 22L16 25.9387ZM16 15.9387L12.0613 12L16 8.0612L19.9388 12L16 15.9387ZM26 15.9387L22.0613 12L26 8.0612L29.9388 12L26 15.9387Z" fill="white"/>
</svg>
