<svg width="32" height="32" viewBox="0 0 32 32" fill="none" xmlns="http://www.w3.org/2000/svg">
<path d="M27.585 16.1675C25.8138 18.37 24.0775 19.5325 22.2775 19.7225C22.1023 19.7408 21.9262 19.7499 21.75 19.75C19.42 19.75 17.445 18.1412 15.53 16.5812C13.615 15.0212 11.8213 13.5637 9.87505 13.77C8.49255 13.915 7.08755 14.895 5.58005 16.77C5.51832 16.8468 5.44208 16.9107 5.35565 16.9581C5.26923 17.0054 5.17433 17.0353 5.07636 17.046C4.9784 17.0567 4.87929 17.0479 4.78469 17.0203C4.6901 16.9927 4.60187 16.9467 4.52505 16.885C4.44822 16.8233 4.38431 16.747 4.33695 16.6606C4.2896 16.5742 4.25973 16.4793 4.24905 16.3813C4.23837 16.2833 4.24709 16.1842 4.27471 16.0896C4.30234 15.995 4.34832 15.9068 4.41005 15.83C6.1813 13.6287 7.91755 12.465 9.71755 12.2762C12.2825 12.0037 14.41 13.7387 16.4675 15.4162C18.375 16.97 20.1775 18.435 22.125 18.23C23.5075 18.085 24.9125 17.105 26.42 15.23C26.5447 15.0748 26.7259 14.9755 26.9237 14.954C27.1216 14.9324 27.3199 14.9903 27.475 15.115C27.6302 15.2396 27.7295 15.4208 27.751 15.6187C27.7726 15.8165 27.7147 16.0148 27.59 16.17L27.585 16.1675Z" fill="white"/>
</svg>
