<svg width="32" height="32" viewBox="0 0 32 32" fill="none" xmlns="http://www.w3.org/2000/svg">
<path d="M29.6313 26.5962L16.8901 6.68745L19.6313 2.40495C19.6952 2.32277 19.7413 2.22818 19.7667 2.1272C19.792 2.02623 19.7961 1.92108 19.7786 1.81846C19.7611 1.71583 19.7224 1.61797 19.665 1.53111C19.6076 1.44425 19.5328 1.37029 19.4452 1.31393C19.3577 1.25758 19.2594 1.22006 19.1565 1.20378C19.0537 1.1875 18.9486 1.1928 18.848 1.21935C18.7473 1.2459 18.6533 1.29312 18.5718 1.358C18.4904 1.42288 18.4234 1.504 18.3751 1.5962L16.0001 5.2962L13.6251 1.5962C13.5787 1.50066 13.5125 1.41607 13.431 1.34801C13.3494 1.27996 13.2544 1.23 13.1521 1.20145C13.0498 1.17289 12.9426 1.16639 12.8376 1.18236C12.7326 1.19834 12.6322 1.23644 12.543 1.29413C12.4538 1.35183 12.3779 1.4278 12.3203 1.51703C12.2627 1.60626 12.2247 1.7067 12.2088 1.81172C12.1929 1.91673 12.1996 2.02392 12.2282 2.12619C12.2569 2.22846 12.3069 2.32348 12.3751 2.40495L15.1101 6.68745L2.37505 26.5962C2.30296 26.709 2.26239 26.8391 2.25757 26.973C2.25274 27.1068 2.28384 27.2395 2.34762 27.3572C2.41141 27.475 2.50556 27.5735 2.62029 27.6425C2.73502 27.7116 2.86615 27.7487 3.00005 27.75H29.0001C29.1345 27.7498 29.2664 27.7135 29.382 27.6449C29.4976 27.5763 29.5927 27.4779 29.6572 27.3599C29.7217 27.242 29.7534 27.1089 29.7488 26.9745C29.7443 26.8402 29.7037 26.7095 29.6313 26.5962ZM10.3301 26.25L16.0001 17.3912L21.6701 26.25H10.3301ZM23.4551 26.25L16.6363 15.5962C16.5684 15.4904 16.475 15.4034 16.3647 15.3431C16.2544 15.2828 16.1308 15.2512 16.0051 15.2512C15.8794 15.2512 15.7557 15.2828 15.6454 15.3431C15.5351 15.4034 15.4417 15.4904 15.3738 15.5962L8.55005 26.25H4.37505L16.0001 8.0787L27.6251 26.25H23.4551Z" fill="white"/>
</svg>
