<svg width="32" height="32" viewBox="0 0 32 32" fill="none" xmlns="http://www.w3.org/2000/svg">
<path d="M22.75 6.31V4C22.75 3.53587 22.5656 3.09075 22.2374 2.76256C21.9092 2.43437 21.4641 2.25 21 2.25H11C10.5359 2.25 10.0908 2.43437 9.76256 2.76256C9.43437 3.09075 9.25 3.53587 9.25 4V6.31C8.135 6.48957 7.12028 7.06004 6.38742 7.91932C5.65455 8.77861 5.25136 9.87064 5.25 11V25C5.25 26.2598 5.75045 27.468 6.64124 28.3588C7.53204 29.2496 8.74022 29.75 10 29.75H22C23.2598 29.75 24.468 29.2496 25.3588 28.3588C26.2496 27.468 26.75 26.2598 26.75 25V11C26.7486 9.87064 26.3454 8.77861 25.6126 7.91932C24.8797 7.06004 23.865 6.48957 22.75 6.31ZM21.25 4V6.25H18.75V3.75H21C21.0663 3.75 21.1299 3.77634 21.1768 3.82322C21.2237 3.87011 21.25 3.9337 21.25 4ZM14.75 6.25V3.75H17.25V6.25H14.75ZM11 3.75H13.25V6.25H10.75V4C10.75 3.9337 10.7763 3.87011 10.8232 3.82322C10.8701 3.77634 10.9337 3.75 11 3.75ZM25.25 25C25.25 25.4268 25.1659 25.8494 25.0026 26.2437C24.8393 26.638 24.5999 26.9963 24.2981 27.2981C23.9963 27.5999 23.638 27.8393 23.2437 28.0026C22.8494 28.1659 22.4268 28.25 22 28.25H10C9.5732 28.25 9.15059 28.1659 8.75628 28.0026C8.36197 27.8393 8.00369 27.5999 7.7019 27.2981C7.40011 26.9963 7.16072 26.638 6.99739 26.2437C6.83406 25.8494 6.75 25.4268 6.75 25V11C6.75 10.138 7.09241 9.3114 7.7019 8.7019C8.3114 8.09241 9.13805 7.75 10 7.75H22C22.862 7.75 23.6886 8.09241 24.2981 8.7019C24.9076 9.3114 25.25 10.138 25.25 11V25ZM19.75 20C19.75 20.7293 19.4603 21.4288 18.9445 21.9445C18.4288 22.4603 17.7293 22.75 17 22.75H16.75V24C16.75 24.1989 16.671 24.3897 16.5303 24.5303C16.3897 24.671 16.1989 24.75 16 24.75C15.8011 24.75 15.6103 24.671 15.4697 24.5303C15.329 24.3897 15.25 24.1989 15.25 24V22.75H14C13.8011 22.75 13.6103 22.671 13.4697 22.5303C13.329 22.3897 13.25 22.1989 13.25 22C13.25 21.8011 13.329 21.6103 13.4697 21.4697C13.6103 21.329 13.8011 21.25 14 21.25H17C17.3315 21.25 17.6495 21.1183 17.8839 20.8839C18.1183 20.6495 18.25 20.3315 18.25 20C18.25 19.6685 18.1183 19.3505 17.8839 19.1161C17.6495 18.8817 17.3315 18.75 17 18.75H15C14.2707 18.75 13.5712 18.4603 13.0555 17.9445C12.5397 17.4288 12.25 16.7293 12.25 16C12.25 15.2707 12.5397 14.5712 13.0555 14.0555C13.5712 13.5397 14.2707 13.25 15 13.25H15.25V12C15.25 11.8011 15.329 11.6103 15.4697 11.4697C15.6103 11.329 15.8011 11.25 16 11.25C16.1989 11.25 16.3897 11.329 16.5303 11.4697C16.671 11.6103 16.75 11.8011 16.75 12V13.25H18C18.1989 13.25 18.3897 13.329 18.5303 13.4697C18.671 13.6103 18.75 13.8011 18.75 14C18.75 14.1989 18.671 14.3897 18.5303 14.5303C18.3897 14.671 18.1989 14.75 18 14.75H15C14.6685 14.75 14.3505 14.8817 14.1161 15.1161C13.8817 15.3505 13.75 15.6685 13.75 16C13.75 16.3315 13.8817 16.6495 14.1161 16.8839C14.3505 17.1183 14.6685 17.25 15 17.25H17C17.7293 17.25 18.4288 17.5397 18.9445 18.0555C19.4603 18.5712 19.75 19.2707 19.75 20Z" fill="white"/>
</svg>
