<svg width="32" height="32" viewBox="0 0 32 32" fill="none" xmlns="http://www.w3.org/2000/svg">
<path d="M21 21.75C22.805 21.75 23.75 18.8575 23.75 16C23.75 13.1425 22.805 10.25 21 10.25C19.195 10.25 18.25 13.1425 18.25 16C18.25 18.8575 19.195 21.75 21 21.75ZM21 11.75C21.3213 11.75 22.25 13.2113 22.25 16C22.25 18.7887 21.3213 20.25 21 20.25C20.6787 20.25 19.75 18.7887 19.75 16C19.75 13.2113 20.6787 11.75 21 11.75ZM29 27.25H23.9638C26.2363 25.125 27.75 20.9287 27.75 16C27.75 8.85 24.565 3.25 20.5 3.25H11.5C7.435 3.25 4.25 8.85 4.25 16C4.25 23.15 7.435 28.75 11.5 28.75H29C29.1989 28.75 29.3897 28.671 29.5303 28.5303C29.671 28.3897 29.75 28.1989 29.75 28C29.75 27.8011 29.671 27.6103 29.5303 27.4697C29.3897 27.329 29.1989 27.25 29 27.25ZM26.25 16C26.25 22.0988 23.6162 27.25 20.5 27.25C17.3837 27.25 14.75 22.0988 14.75 16C14.75 9.90125 17.3837 4.75 20.5 4.75C23.6162 4.75 26.25 9.90125 26.25 16ZM5.75 16C5.75 15.6425 5.76 15.2887 5.7775 14.9375L10 11.9213L13.3125 14.2875C13.2712 14.8463 13.25 15.4125 13.25 16C13.2428 17.6001 13.4104 19.1963 13.75 20.76L10.4312 18.385C10.3037 18.2934 10.1507 18.2442 9.99375 18.2442C9.83677 18.2442 9.68375 18.2934 9.55625 18.385L6.29375 20.715C5.92627 19.1704 5.74374 17.5877 5.75 16ZM11.5 4.75H17.0362C15.3112 6.365 14.025 9.16875 13.5 12.5813L10.4362 10.39C10.3087 10.2984 10.1557 10.2492 9.99875 10.2492C9.84177 10.2492 9.68875 10.2984 9.56125 10.39L5.97375 12.9537C6.67125 8.28 8.92 4.75 11.5 4.75ZM11.5 27.25C9.5525 27.25 7.795 25.24 6.75 22.25L10 19.9275L14.4412 23.1012C15.0938 24.8412 15.9837 26.27 17.0362 27.2563L11.5 27.25Z" fill="white"/>
</svg>
