<svg width="32" height="32" viewBox="0 0 32 32" fill="none" xmlns="http://www.w3.org/2000/svg">
<path d="M28.75 5C28.75 5.19891 28.671 5.38968 28.5303 5.53033C28.3897 5.67098 28.1989 5.75 28 5.75H7C6.80109 5.75 6.61032 5.67098 6.46967 5.53033C6.32902 5.38968 6.25 5.19891 6.25 5C6.25 4.80109 6.32902 4.61032 6.46967 4.46967C6.61032 4.32902 6.80109 4.25 7 4.25H28C28.1989 4.25 28.3897 4.32902 28.5303 4.46967C28.671 4.61032 28.75 4.80109 28.75 5ZM22.75 9C22.75 8.80109 22.671 8.61032 22.5303 8.46967C22.3897 8.32902 22.1989 8.25 22 8.25H4C3.80109 8.25 3.61032 8.32902 3.46967 8.46967C3.32902 8.61032 3.25 8.80109 3.25 9C3.25 9.19891 3.32902 9.38968 3.46967 9.53033C3.61032 9.67098 3.80109 9.75 4 9.75H22C22.1989 9.75 22.3897 9.67098 22.5303 9.53033C22.671 9.38968 22.75 9.19891 22.75 9ZM20.75 13C20.75 12.8011 20.671 12.6103 20.5303 12.4697C20.3897 12.329 20.1989 12.25 20 12.25H7C6.80109 12.25 6.61032 12.329 6.46967 12.4697C6.32902 12.6103 6.25 12.8011 6.25 13C6.25 13.1989 6.32902 13.3897 6.46967 13.5303C6.61032 13.671 6.80109 13.75 7 13.75H20C20.1989 13.75 20.3897 13.671 20.5303 13.5303C20.671 13.3897 20.75 13.1989 20.75 13ZM22.75 17C22.75 16.8011 22.671 16.6103 22.5303 16.4697C22.3897 16.329 22.1989 16.25 22 16.25H11C10.8011 16.25 10.6103 16.329 10.4697 16.4697C10.329 16.6103 10.25 16.8011 10.25 17C10.25 17.1989 10.329 17.3897 10.4697 17.5303C10.6103 17.671 10.8011 17.75 11 17.75H22C22.1989 17.75 22.3897 17.671 22.5303 17.5303C22.671 17.3897 22.75 17.1989 22.75 17ZM23 20.25H15C14.8011 20.25 14.6103 20.329 14.4697 20.4697C14.329 20.6103 14.25 20.8011 14.25 21C14.25 21.1989 14.329 21.3897 14.4697 21.5303C14.6103 21.671 14.8011 21.75 15 21.75H23C23.1989 21.75 23.3897 21.671 23.5303 21.5303C23.671 21.3897 23.75 21.1989 23.75 21C23.75 20.8011 23.671 20.6103 23.5303 20.4697C23.3897 20.329 23.1989 20.25 23 20.25ZM20 24.25H16C15.8011 24.25 15.6103 24.329 15.4697 24.4697C15.329 24.6103 15.25 24.8011 15.25 25C15.25 25.1989 15.329 25.3897 15.4697 25.5303C15.6103 25.671 15.8011 25.75 16 25.75H20C20.1989 25.75 20.3897 25.671 20.5303 25.5303C20.671 25.3897 20.75 25.1989 20.75 25C20.75 24.8011 20.671 24.6103 20.5303 24.4697C20.3897 24.329 20.1989 24.25 20 24.25ZM16 28.25H14C13.8011 28.25 13.6103 28.329 13.4697 28.4697C13.329 28.6103 13.25 28.8011 13.25 29C13.25 29.1989 13.329 29.3897 13.4697 29.5303C13.6103 29.671 13.8011 29.75 14 29.75H16C16.1989 29.75 16.3897 29.671 16.5303 29.5303C16.671 29.3897 16.75 29.1989 16.75 29C16.75 28.8011 16.671 28.6103 16.5303 28.4697C16.3897 28.329 16.1989 28.25 16 28.25Z" fill="white"/>
</svg>
