<svg width="32" height="32" viewBox="0 0 32 32" fill="none" xmlns="http://www.w3.org/2000/svg">
<path d="M29.3087 8.84125C29.1432 8.65504 28.9401 8.50605 28.7128 8.40413C28.4855 8.30221 28.2391 8.24968 27.99 8.25H21.75V8C21.75 6.47501 21.1442 5.01247 20.0658 3.93414C18.9875 2.8558 17.525 2.25 16 2.25C14.475 2.25 13.0124 2.8558 11.9341 3.93414C10.8558 5.01247 10.25 6.47501 10.25 8V8.25H4.00998C3.76185 8.24829 3.5162 8.29937 3.28931 8.39984C3.06243 8.50032 2.85951 8.64789 2.69401 8.83278C2.52852 9.01766 2.40423 9.23562 2.3294 9.4722C2.25457 9.70879 2.23091 9.95857 2.25998 10.205L4.04123 25.205C4.09325 25.6321 4.30013 26.0253 4.62266 26.31C4.9452 26.5948 5.36098 26.7513 5.79123 26.75H26.2087C26.639 26.7513 27.0548 26.5948 27.3773 26.31C27.6998 26.0253 27.9067 25.6321 27.9587 25.205L29.74 10.205C29.7682 9.96013 29.7444 9.71207 29.67 9.47705C29.5957 9.24204 29.4726 9.02538 29.3087 8.84125ZM11.75 8C11.75 6.87283 12.1977 5.79183 12.9948 4.9948C13.7918 4.19777 14.8728 3.75 16 3.75C17.1271 3.75 18.2082 4.19777 19.0052 4.9948C19.8022 5.79183 20.25 6.87283 20.25 8V8.25H11.75V8ZM26.4662 25.0287C26.459 25.0913 26.4285 25.1488 26.3808 25.1898C26.3331 25.2308 26.2716 25.2523 26.2087 25.25H5.79123C5.72834 25.2523 5.6669 25.2308 5.61916 25.1898C5.57143 25.1488 5.54092 25.0913 5.53373 25.0287L3.74998 10.0288C3.74577 9.99434 3.74907 9.95943 3.75964 9.92641C3.77021 9.8934 3.78781 9.86306 3.81123 9.8375C3.8359 9.80955 3.86632 9.78726 3.90041 9.77215C3.9345 9.75705 3.97145 9.74949 4.00873 9.75H10.25V13C10.25 13.1989 10.329 13.3897 10.4696 13.5303C10.6103 13.671 10.8011 13.75 11 13.75C11.1989 13.75 11.3897 13.671 11.5303 13.5303C11.671 13.3897 11.75 13.1989 11.75 13V9.75H20.25V13C20.25 13.1989 20.329 13.3897 20.4696 13.5303C20.6103 13.671 20.8011 13.75 21 13.75C21.1989 13.75 21.3897 13.671 21.5303 13.5303C21.671 13.3897 21.75 13.1989 21.75 13V9.75H27.99C28.0273 9.74949 28.0642 9.75705 28.0983 9.77215C28.1324 9.78726 28.1628 9.80955 28.1875 9.8375C28.2109 9.86306 28.2285 9.8934 28.2391 9.92641C28.2496 9.95943 28.2529 9.99434 28.2487 10.0288L26.4662 25.0287Z" fill="white"/>
</svg>
