<svg width="32" height="32" viewBox="0 0 32 32" fill="none" xmlns="http://www.w3.org/2000/svg">
<path d="M25 3.25H9C8.27065 3.25 7.57118 3.53973 7.05546 4.05546C6.53973 4.57118 6.25 5.27065 6.25 6V27C6.25 27.4641 6.43437 27.9092 6.76256 28.2374C7.09075 28.5656 7.53587 28.75 8 28.75H22C22.4641 28.75 22.9092 28.5656 23.2374 28.2374C23.5656 27.9092 23.75 27.4641 23.75 27V6C23.75 5.66848 23.8817 5.35054 24.1161 5.11612C24.3505 4.8817 24.6685 4.75 25 4.75C25.3315 4.75 25.6495 4.8817 25.8839 5.11612C26.1183 5.35054 26.25 5.66848 26.25 6V19C26.25 19.1989 26.329 19.3897 26.4697 19.5303C26.6103 19.671 26.8011 19.75 27 19.75C27.1989 19.75 27.3897 19.671 27.5303 19.5303C27.671 19.3897 27.75 19.1989 27.75 19V6C27.75 5.27065 27.4603 4.57118 26.9445 4.05546C26.4288 3.53973 25.7293 3.25 25 3.25ZM9 4.75H22.5513C22.3527 5.13674 22.2495 5.56529 22.25 6V23.25H7.75V6C7.75 5.66848 7.8817 5.35054 8.11612 5.11612C8.35054 4.8817 8.66848 4.75 9 4.75ZM22 27.25H8C7.9337 27.25 7.87011 27.2237 7.82322 27.1768C7.77634 27.1299 7.75 27.0663 7.75 27V24.75H22.25V27C22.25 27.0663 22.2237 27.1299 22.1768 27.1768C22.1299 27.2237 22.0663 27.25 22 27.25Z" fill="white"/>
</svg>
