<svg width="32" height="32" viewBox="0 0 32 32" fill="none" xmlns="http://www.w3.org/2000/svg">
<path d="M29.75 20.765V16.75C29.7517 16.3728 29.6306 16.0053 29.4051 15.703C29.1797 15.4006 28.862 15.1798 28.5 15.0737H28.4813L23.75 13.78V9C23.75 8.80109 23.671 8.61032 23.5303 8.46967C23.3897 8.32902 23.1989 8.25 23 8.25C22.8011 8.25 22.6103 8.32902 22.4697 8.46967C22.329 8.61032 22.25 8.80109 22.25 9V13.375L18.75 12.4275V6.75H20C20.1989 6.75 20.3897 6.67098 20.5303 6.53033C20.671 6.38968 20.75 6.19891 20.75 6C20.75 5.80109 20.671 5.61032 20.5303 5.46967C20.3897 5.32902 20.1989 5.25 20 5.25H5C4.80109 5.25 4.61032 5.32902 4.46967 5.46967C4.32902 5.61032 4.25 5.80109 4.25 6C4.25 6.19891 4.32902 6.38968 4.46967 6.53033C4.61032 6.67098 4.80109 6.75 5 6.75H6.25V11.25H5C4.80109 11.25 4.61032 11.329 4.46967 11.4697C4.32902 11.6103 4.25 11.8011 4.25 12C4.25 12.1989 4.32902 12.3897 4.46967 12.5303C4.61032 12.671 4.80109 12.75 5 12.75H8.5C10.8198 12.7526 13.0439 13.6754 14.6843 15.3157C16.3246 16.9561 17.2474 19.1802 17.25 21.5V23C17.25 23.1989 17.329 23.3897 17.4697 23.5303C17.6103 23.671 17.8011 23.75 18 23.75H22.2575C22.2965 24.4221 22.4945 25.0753 22.8354 25.6559C23.1763 26.2365 23.6502 26.7277 24.2181 27.0893C24.786 27.4508 25.4317 27.6722 26.102 27.7353C26.7722 27.7985 27.4479 27.7014 28.0733 27.4523C28.6988 27.2031 29.256 26.8089 29.6993 26.3022C30.1425 25.7955 30.4591 25.1907 30.6228 24.5377C30.7865 23.8846 30.7928 23.2021 30.641 22.5462C30.4893 21.8902 30.1839 21.2798 29.75 20.765ZM8.5 11.25H7.75V6.75H17.25V16.1675C16.3356 14.6664 15.0504 13.4256 13.5181 12.5644C11.9858 11.7033 10.2577 11.2506 8.5 11.25ZM18.75 21.5V13.98L28.0788 16.5063C28.1297 16.5231 28.1738 16.5559 28.2046 16.5998C28.2355 16.6437 28.2514 16.6964 28.25 16.75V19.625C27.7002 19.3766 27.1038 19.2481 26.5005 19.248C25.8972 19.248 25.3007 19.3764 24.7509 19.6247C24.201 19.873 23.7104 20.2356 23.3115 20.6882C22.9126 21.1409 22.6147 21.6733 22.4375 22.25H18.75V21.5ZM26.5 26.25C25.9561 26.25 25.4244 26.0887 24.9722 25.7865C24.52 25.4844 24.1675 25.0549 23.9593 24.5524C23.7512 24.0499 23.6967 23.4969 23.8028 22.9635C23.909 22.4301 24.1709 21.9401 24.5555 21.5555C24.9401 21.1709 25.4301 20.909 25.9635 20.8028C26.497 20.6967 27.0499 20.7512 27.5524 20.9593C28.0549 21.1675 28.4844 21.5199 28.7865 21.9722C29.0887 22.4244 29.25 22.9561 29.25 23.5C29.25 24.2293 28.9603 24.9288 28.4445 25.4445C27.9288 25.9603 27.2293 26.25 26.5 26.25ZM8.5 15.25C7.26387 15.25 6.0555 15.6166 5.02769 16.3033C3.99988 16.9901 3.1988 17.9662 2.72576 19.1082C2.25271 20.2503 2.12894 21.5069 2.37009 22.7193C2.61125 23.9317 3.20651 25.0453 4.08059 25.9194C4.95466 26.7935 6.06831 27.3888 7.28069 27.6299C8.49307 27.8711 9.74974 27.7473 10.8918 27.2742C12.0338 26.8012 13.0099 26.0001 13.6967 24.9723C14.3834 23.9445 14.75 22.7361 14.75 21.5C14.748 19.843 14.0889 18.2544 12.9172 17.0828C11.7456 15.9111 10.157 15.252 8.5 15.25ZM8.5 26.25C7.56054 26.25 6.64218 25.9714 5.86104 25.4495C5.07991 24.9275 4.47109 24.1857 4.11158 23.3177C3.75206 22.4498 3.65799 21.4947 3.84127 20.5733C4.02455 19.6519 4.47695 18.8055 5.14125 18.1412C5.80555 17.4769 6.65191 17.0246 7.57332 16.8413C8.49473 16.658 9.4498 16.7521 10.3177 17.1116C11.1857 17.4711 11.9275 18.0799 12.4495 18.861C12.9714 19.6422 13.25 20.5605 13.25 21.5C13.25 22.7598 12.7496 23.968 11.8588 24.8588C10.968 25.7496 9.75978 26.25 8.5 26.25ZM9.75 21.5C9.75 21.7472 9.67669 21.9889 9.53934 22.1945C9.40199 22.4 9.20677 22.5602 8.97836 22.6549C8.74995 22.7495 8.49862 22.7742 8.25614 22.726C8.01366 22.6777 7.79094 22.5587 7.61612 22.3839C7.4413 22.2091 7.32225 21.9863 7.27402 21.7439C7.22579 21.5014 7.25054 21.2501 7.34515 21.0216C7.43976 20.7932 7.59998 20.598 7.80554 20.4607C8.0111 20.3233 8.25278 20.25 8.5 20.25C8.83152 20.25 9.14947 20.3817 9.38389 20.6161C9.61831 20.8505 9.75 21.1685 9.75 21.5Z" fill="white"/>
</svg>
