<svg width="32" height="32" viewBox="0 0 32 32" fill="none" xmlns="http://www.w3.org/2000/svg">
<path d="M30.2174 14.7136L17.2861 1.78238C16.9449 1.44148 16.4822 1.25 15.9999 1.25C15.5175 1.25 15.0549 1.44148 14.7136 1.78238L1.78238 14.7136C1.44148 15.0549 1.25 15.5175 1.25 15.9999C1.25 16.4822 1.44148 16.9449 1.78238 17.2861L14.7136 30.2174C15.0549 30.5583 15.5175 30.7498 15.9999 30.7498C16.4822 30.7498 16.9449 30.5583 17.2861 30.2174L30.2174 17.2861C30.5583 16.9449 30.7498 16.4822 30.7498 15.9999C30.7498 15.5175 30.5583 15.0549 30.2174 14.7136ZM29.1561 16.2261L16.2261 29.1561C16.1661 29.2161 16.0847 29.2498 15.9999 29.2498C15.915 29.2498 15.8336 29.2161 15.7736 29.1561L2.84363 16.2261C2.78363 16.1661 2.74993 16.0847 2.74993 15.9999C2.74993 15.915 2.78363 15.8336 2.84363 15.7736L15.7736 2.84363C15.8336 2.78363 15.915 2.74993 15.9999 2.74993C16.0847 2.74993 16.1661 2.78363 16.2261 2.84363L29.1561 15.7736C29.2161 15.8336 29.2498 15.915 29.2498 15.9999C29.2498 16.0847 29.2161 16.1661 29.1561 16.2261ZM21.5311 14.4761C21.6716 14.6168 21.7505 14.8074 21.7505 15.0061C21.7505 15.2049 21.6716 15.3955 21.5311 15.5361L18.5311 18.5361C18.389 18.6686 18.2009 18.7407 18.0066 18.7373C17.8123 18.7339 17.6269 18.6552 17.4895 18.5178C17.3521 18.3803 17.2734 18.195 17.27 18.0007C17.2665 17.8064 17.3387 17.6183 17.4711 17.4761L19.1886 15.7499H13.9999C13.4031 15.7499 12.8308 15.9869 12.4089 16.4089C11.9869 16.8308 11.7499 17.4031 11.7499 17.9999V18.9999C11.7499 19.1988 11.6709 19.3896 11.5302 19.5302C11.3896 19.6709 11.1988 19.7499 10.9999 19.7499C10.801 19.7499 10.6102 19.6709 10.4696 19.5302C10.3289 19.3896 10.2499 19.1988 10.2499 18.9999V17.9999C10.2499 17.0053 10.645 16.0515 11.3482 15.3482C12.0515 14.645 13.0053 14.2499 13.9999 14.2499H19.1886L17.4699 12.5299C17.3374 12.3877 17.2653 12.1997 17.2687 12.0054C17.2721 11.8111 17.3508 11.6257 17.4883 11.4883C17.6257 11.3508 17.8111 11.2721 18.0054 11.2687C18.1997 11.2653 18.3877 11.3374 18.5299 11.4699L21.5311 14.4761Z" fill="white"/>
</svg>
