<svg width="32" height="32" viewBox="0 0 32 32" fill="none" xmlns="http://www.w3.org/2000/svg">
<path d="M30.6712 26.665L23.6712 12.665C23.609 12.5402 23.5133 12.4352 23.3947 12.3618C23.2761 12.2884 23.1394 12.2495 23 12.2495C22.8606 12.2495 22.7239 12.2884 22.6053 12.3618C22.4867 12.4352 22.391 12.5402 22.3288 12.665L19.5413 18.24C17.2116 18.1434 14.9694 17.3252 13.125 15.8988C15.2692 13.7058 16.5487 10.8118 16.7275 7.75H20C20.1989 7.75 20.3897 7.67098 20.5303 7.53033C20.671 7.38968 20.75 7.19891 20.75 7C20.75 6.80109 20.671 6.61032 20.5303 6.46967C20.3897 6.32902 20.1989 6.25 20 6.25H12.75V4C12.75 3.80109 12.671 3.61032 12.5303 3.46967C12.3897 3.32902 12.1989 3.25 12 3.25C11.8011 3.25 11.6103 3.32902 11.4697 3.46967C11.329 3.61032 11.25 3.80109 11.25 4V6.25H4C3.80109 6.25 3.61032 6.32902 3.46967 6.46967C3.32902 6.61032 3.25 6.80109 3.25 7C3.25 7.19891 3.32902 7.38968 3.46967 7.53033C3.61032 7.67098 3.80109 7.75 4 7.75H15.2238C15.0457 10.445 13.901 12.9852 12 14.9038C10.834 13.7286 9.94226 12.3102 9.38875 10.75C9.35769 10.6549 9.30792 10.567 9.24239 10.4915C9.17685 10.4159 9.09687 10.3543 9.00714 10.3101C8.91741 10.2659 8.81975 10.2401 8.71991 10.2342C8.62007 10.2284 8.52006 10.2425 8.42577 10.2759C8.33147 10.3092 8.2448 10.3611 8.17086 10.4284C8.09691 10.4958 8.03718 10.5772 7.99518 10.668C7.95318 10.7587 7.92975 10.857 7.92629 10.9569C7.92282 11.0569 7.93939 11.1565 7.975 11.25C8.59196 12.9925 9.58164 14.5794 10.875 15.9C8.90832 17.4259 6.4892 18.2528 4 18.25C3.80109 18.25 3.61032 18.329 3.46967 18.4697C3.32902 18.6103 3.25 18.8011 3.25 19C3.25 19.1989 3.32902 19.3897 3.46967 19.5303C3.61032 19.671 3.80109 19.75 4 19.75C6.9122 19.7527 9.73677 18.7539 12 16.9212C13.9508 18.4941 16.3214 19.4579 18.8162 19.6925L15.33 26.665C15.286 26.7532 15.2598 26.8491 15.2529 26.9474C15.246 27.0457 15.2585 27.1443 15.2897 27.2378C15.3528 27.4265 15.4882 27.5824 15.6663 27.6712C15.8443 27.7601 16.0503 27.7746 16.239 27.7115C16.4277 27.6485 16.5837 27.513 16.6725 27.335L18.4638 23.75H27.5362L29.3288 27.335C29.391 27.4597 29.4868 27.5646 29.6054 27.6379C29.7239 27.7112 29.8606 27.75 30 27.75C30.1164 27.7503 30.2313 27.7229 30.335 27.67C30.5127 27.5812 30.648 27.4255 30.711 27.2371C30.7741 27.0486 30.7598 26.8429 30.6712 26.665ZM19.2138 22.25L23 14.6775L26.7862 22.25H19.2138Z" fill="white"/>
</svg>
