<svg width="32" height="32" viewBox="0 0 32 32" fill="none" xmlns="http://www.w3.org/2000/svg">
<path d="M26 4.25H6C5.53587 4.25 5.09075 4.43437 4.76256 4.76256C4.43437 5.09075 4.25 5.53587 4.25 6V26C4.25 26.4641 4.43437 26.9092 4.76256 27.2374C5.09075 27.5656 5.53587 27.75 6 27.75H26C26.4641 27.75 26.9092 27.5656 27.2374 27.2374C27.5656 26.9092 27.75 26.4641 27.75 26V6C27.75 5.53587 27.5656 5.09075 27.2374 4.76256C26.9092 4.43437 26.4641 4.25 26 4.25ZM6 5.75H26C26.0663 5.75 26.1299 5.77634 26.1768 5.82322C26.2237 5.87011 26.25 5.9337 26.25 6V19.25H22.4137C22.184 19.2495 21.9565 19.2945 21.7443 19.3825C21.5321 19.4704 21.3395 19.5996 21.1775 19.7625L18.7625 22.1763C18.7158 22.2232 18.6524 22.2497 18.5863 22.25H13.4137C13.3476 22.2497 13.2842 22.2232 13.2375 22.1763L10.8237 19.7625C10.6615 19.5997 10.4686 19.4706 10.2562 19.3826C10.0438 19.2946 9.81613 19.2496 9.58625 19.25H5.75V6C5.75 5.9337 5.77634 5.87011 5.82322 5.82322C5.87011 5.77634 5.9337 5.75 6 5.75ZM26 26.25H6C5.9337 26.25 5.87011 26.2237 5.82322 26.1768C5.77634 26.1299 5.75 26.0663 5.75 26V20.75H9.58625C9.65245 20.7503 9.71583 20.7768 9.7625 20.8237L12.1763 23.2375C12.3385 23.4003 12.5314 23.5294 12.7438 23.6174C12.9562 23.7054 13.1839 23.7504 13.4137 23.75H18.5863C18.816 23.7505 19.0435 23.7055 19.2557 23.6175C19.4679 23.5296 19.6605 23.4004 19.8225 23.2375L22.2375 20.8237C22.2842 20.7768 22.3476 20.7503 22.4137 20.75H26.25V26C26.25 26.0663 26.2237 26.1299 26.1768 26.1768C26.1299 26.2237 26.0663 26.25 26 26.25ZM11.47 13.53C11.3295 13.3894 11.2507 13.1988 11.2507 13C11.2507 12.8012 11.3295 12.6106 11.47 12.47L15.47 8.47C15.6106 8.32955 15.8012 8.25066 16 8.25066C16.1988 8.25066 16.3894 8.32955 16.53 8.47L20.53 12.47C20.6037 12.5387 20.6628 12.6215 20.7038 12.7135C20.7448 12.8055 20.7668 12.9048 20.7686 13.0055C20.7704 13.1062 20.7518 13.2062 20.7141 13.2996C20.6764 13.393 20.6203 13.4778 20.549 13.549C20.4778 13.6203 20.393 13.6764 20.2996 13.7141C20.2062 13.7518 20.1062 13.7704 20.0055 13.7686C19.9048 13.7668 19.8055 13.7448 19.7135 13.7038C19.6215 13.6628 19.5387 13.6037 19.47 13.53L16.75 10.8112V19C16.75 19.1989 16.671 19.3897 16.5303 19.5303C16.3897 19.671 16.1989 19.75 16 19.75C15.8011 19.75 15.6103 19.671 15.4697 19.5303C15.329 19.3897 15.25 19.1989 15.25 19V10.8112L12.53 13.53C12.3894 13.6705 12.1988 13.7493 12 13.7493C11.8012 13.7493 11.6106 13.6705 11.47 13.53Z" fill="white"/>
</svg>
