<svg width="32" height="32" viewBox="0 0 32 32" fill="none" xmlns="http://www.w3.org/2000/svg">
<path d="M23 5.25H9C7.2104 5.25199 5.49466 5.96378 4.22922 7.22922C2.96378 8.49466 2.25199 10.2104 2.25 12V24C2.25 24.4641 2.43437 24.9092 2.76256 25.2374C3.09075 25.5656 3.53587 25.75 4 25.75H28C28.4641 25.75 28.9092 25.5656 29.2374 25.2374C29.5656 24.9092 29.75 24.4641 29.75 24V12C29.748 10.2104 29.0362 8.49466 27.7708 7.22922C26.5053 5.96378 24.7896 5.25199 23 5.25ZM28.25 12V13.25H23.75V6.805C24.9988 6.98655 26.1405 7.6113 26.9667 8.5651C27.7929 9.51891 28.2484 10.7381 28.25 12ZM17.25 17.25H14.75V12.75H17.25V17.25ZM14 18.75H18C18.1989 18.75 18.3897 18.671 18.5303 18.5303C18.671 18.3897 18.75 18.1989 18.75 18V14.75H22.25V24.25H9.75V14.75H13.25V18C13.25 18.1989 13.329 18.3897 13.4697 18.5303C13.6103 18.671 13.8011 18.75 14 18.75ZM18.75 13.25V12C18.75 11.8011 18.671 11.6103 18.5303 11.4697C18.3897 11.329 18.1989 11.25 18 11.25H14C13.8011 11.25 13.6103 11.329 13.4697 11.4697C13.329 11.6103 13.25 11.8011 13.25 12V13.25H9.75V6.75H22.25V13.25H18.75ZM8.25 6.805V13.25H3.75V12C3.75158 10.7381 4.20707 9.51891 5.03327 8.5651C5.85948 7.6113 7.00124 6.98655 8.25 6.805ZM3.75 24V14.75H8.25V24.25H4C3.9337 24.25 3.87011 24.2237 3.82322 24.1768C3.77634 24.1299 3.75 24.0663 3.75 24ZM28 24.25H23.75V14.75H28.25V24C28.25 24.0663 28.2237 24.1299 28.1768 24.1768C28.1299 24.2237 28.0663 24.25 28 24.25Z" fill="white"/>
</svg>
