<svg width="32" height="32" viewBox="0 0 32 32" fill="none" xmlns="http://www.w3.org/2000/svg">
<path d="M20 13.75H26C26.4641 13.75 26.9092 13.5656 27.2374 13.2374C27.5656 12.9092 27.75 12.4641 27.75 12V6C27.75 5.53587 27.5656 5.09075 27.2374 4.76256C26.9092 4.43437 26.4641 4.25 26 4.25H20C19.5359 4.25 19.0908 4.43437 18.7626 4.76256C18.4344 5.09075 18.25 5.53587 18.25 6V8.25H16C15.2707 8.25 14.5712 8.53973 14.0555 9.05546C13.5397 9.57118 13.25 10.2707 13.25 11V15.25H8.75V14C8.75 13.5359 8.56563 13.0908 8.23744 12.7626C7.90925 12.4344 7.46413 12.25 7 12.25H3C2.53587 12.25 2.09075 12.4344 1.76256 12.7626C1.43437 13.0908 1.25 13.5359 1.25 14V18C1.25 18.4641 1.43437 18.9092 1.76256 19.2374C2.09075 19.5656 2.53587 19.75 3 19.75H7C7.46413 19.75 7.90925 19.5656 8.23744 19.2374C8.56563 18.9092 8.75 18.4641 8.75 18V16.75H13.25V21C13.25 21.7293 13.5397 22.4288 14.0555 22.9445C14.5712 23.4603 15.2707 23.75 16 23.75H18.25V26C18.25 26.4641 18.4344 26.9092 18.7626 27.2374C19.0908 27.5656 19.5359 27.75 20 27.75H26C26.4641 27.75 26.9092 27.5656 27.2374 27.2374C27.5656 26.9092 27.75 26.4641 27.75 26V20C27.75 19.5359 27.5656 19.0908 27.2374 18.7626C26.9092 18.4344 26.4641 18.25 26 18.25H20C19.5359 18.25 19.0908 18.4344 18.7626 18.7626C18.4344 19.0908 18.25 19.5359 18.25 20V22.25H16C15.6685 22.25 15.3505 22.1183 15.1161 21.8839C14.8817 21.6495 14.75 21.3315 14.75 21V11C14.75 10.6685 14.8817 10.3505 15.1161 10.1161C15.3505 9.8817 15.6685 9.75 16 9.75H18.25V12C18.25 12.4641 18.4344 12.9092 18.7626 13.2374C19.0908 13.5656 19.5359 13.75 20 13.75ZM7.25 18C7.25 18.0663 7.22366 18.1299 7.17678 18.1768C7.12989 18.2237 7.0663 18.25 7 18.25H3C2.9337 18.25 2.87011 18.2237 2.82322 18.1768C2.77634 18.1299 2.75 18.0663 2.75 18V14C2.75 13.9337 2.77634 13.8701 2.82322 13.8232C2.87011 13.7763 2.9337 13.75 3 13.75H7C7.0663 13.75 7.12989 13.7763 7.17678 13.8232C7.22366 13.8701 7.25 13.9337 7.25 14V18ZM19.75 20C19.75 19.9337 19.7763 19.8701 19.8232 19.8232C19.8701 19.7763 19.9337 19.75 20 19.75H26C26.0663 19.75 26.1299 19.7763 26.1768 19.8232C26.2237 19.8701 26.25 19.9337 26.25 20V26C26.25 26.0663 26.2237 26.1299 26.1768 26.1768C26.1299 26.2237 26.0663 26.25 26 26.25H20C19.9337 26.25 19.8701 26.2237 19.8232 26.1768C19.7763 26.1299 19.75 26.0663 19.75 26V20ZM19.75 6C19.75 5.9337 19.7763 5.87011 19.8232 5.82322C19.8701 5.77634 19.9337 5.75 20 5.75H26C26.0663 5.75 26.1299 5.77634 26.1768 5.82322C26.2237 5.87011 26.25 5.9337 26.25 6V12C26.25 12.0663 26.2237 12.1299 26.1768 12.1768C26.1299 12.2237 26.0663 12.25 26 12.25H20C19.9337 12.25 19.8701 12.2237 19.8232 12.1768C19.7763 12.1299 19.75 12.0663 19.75 12V6Z" fill="white"/>
</svg>
