<svg width="32" height="32" viewBox="0 0 32 32" fill="none" xmlns="http://www.w3.org/2000/svg">
<path d="M22 18.75H26C26.4641 18.75 26.9092 18.5656 27.2374 18.2374C27.5656 17.9092 27.75 17.4641 27.75 17V13C27.75 12.5359 27.5656 12.0908 27.2374 11.7626C26.9092 11.4344 26.4641 11.25 26 11.25H22C21.5359 11.25 21.0908 11.4344 20.7626 11.7626C20.4344 12.0908 20.25 12.5359 20.25 13V14.25H10.75V9.75H12C12.4641 9.75 12.9092 9.56563 13.2374 9.23744C13.5656 8.90925 13.75 8.46413 13.75 8V4C13.75 3.53587 13.5656 3.09075 13.2374 2.76256C12.9092 2.43437 12.4641 2.25 12 2.25H8C7.53587 2.25 7.09075 2.43437 6.76256 2.76256C6.43437 3.09075 6.25 3.53587 6.25 4V8C6.25 8.46413 6.43437 8.90925 6.76256 9.23744C7.09075 9.56563 7.53587 9.75 8 9.75H9.25V24C9.25 24.7293 9.53973 25.4288 10.0555 25.9445C10.5712 26.4603 11.2707 26.75 12 26.75H20.25V28C20.25 28.4641 20.4344 28.9092 20.7626 29.2374C21.0908 29.5656 21.5359 29.75 22 29.75H26C26.4641 29.75 26.9092 29.5656 27.2374 29.2374C27.5656 28.9092 27.75 28.4641 27.75 28V24C27.75 23.5359 27.5656 23.0908 27.2374 22.7626C26.9092 22.4344 26.4641 22.25 26 22.25H22C21.5359 22.25 21.0908 22.4344 20.7626 22.7626C20.4344 23.0908 20.25 23.5359 20.25 24V25.25H12C11.6685 25.25 11.3505 25.1183 11.1161 24.8839C10.8817 24.6495 10.75 24.3315 10.75 24V15.75H20.25V17C20.25 17.4641 20.4344 17.9092 20.7626 18.2374C21.0908 18.5656 21.5359 18.75 22 18.75ZM7.75 8V4C7.75 3.9337 7.77634 3.87011 7.82322 3.82322C7.87011 3.77634 7.9337 3.75 8 3.75H12C12.0663 3.75 12.1299 3.77634 12.1768 3.82322C12.2237 3.87011 12.25 3.9337 12.25 4V8C12.25 8.0663 12.2237 8.12989 12.1768 8.17678C12.1299 8.22366 12.0663 8.25 12 8.25H8C7.9337 8.25 7.87011 8.22366 7.82322 8.17678C7.77634 8.12989 7.75 8.0663 7.75 8ZM21.75 24C21.75 23.9337 21.7763 23.8701 21.8232 23.8232C21.8701 23.7763 21.9337 23.75 22 23.75H26C26.0663 23.75 26.1299 23.7763 26.1768 23.8232C26.2237 23.8701 26.25 23.9337 26.25 24V28C26.25 28.0663 26.2237 28.1299 26.1768 28.1768C26.1299 28.2237 26.0663 28.25 26 28.25H22C21.9337 28.25 21.8701 28.2237 21.8232 28.1768C21.7763 28.1299 21.75 28.0663 21.75 28V24ZM21.75 13C21.75 12.9337 21.7763 12.8701 21.8232 12.8232C21.8701 12.7763 21.9337 12.75 22 12.75H26C26.0663 12.75 26.1299 12.7763 26.1768 12.8232C26.2237 12.8701 26.25 12.9337 26.25 13V17C26.25 17.0663 26.2237 17.1299 26.1768 17.1768C26.1299 17.2237 26.0663 17.25 26 17.25H22C21.9337 17.25 21.8701 17.2237 21.8232 17.1768C21.7763 17.1299 21.75 17.0663 21.75 17V13Z" fill="white"/>
</svg>
