<svg width="32" height="32" viewBox="0 0 32 32" fill="none" xmlns="http://www.w3.org/2000/svg">
<path d="M24.5688 8.01125C23.8758 6.30701 22.6904 4.84811 21.1641 3.82104C19.6377 2.79396 17.8398 2.24536 16 2.24536C14.1603 2.24536 12.3623 2.79396 10.836 3.82104C9.30965 4.84811 8.12424 6.30701 7.43128 8.01125C5.88963 8.69492 4.5795 9.81127 3.65981 11.2249C2.74012 12.6385 2.25039 14.2886 2.25003 15.975C2.23753 20.6138 6.14128 24.625 10.7738 24.75C12.3376 24.7865 13.8828 24.4051 15.25 23.645V29C15.25 29.1989 15.329 29.3897 15.4697 29.5303C15.6104 29.671 15.8011 29.75 16 29.75C16.1989 29.75 16.3897 29.671 16.5304 29.5303C16.671 29.3897 16.75 29.1989 16.75 29V23.645C18.0499 24.3681 19.5125 24.7484 21 24.75H21.2213C25.8588 24.625 29.7625 20.6125 29.75 15.975C29.7497 14.2886 29.2599 12.6385 28.3403 11.2249C27.4206 9.81127 26.1104 8.69492 24.5688 8.01125ZM21.1875 23.25C19.5974 23.2919 18.0378 22.8087 16.75 21.875V16.4638L22.335 13.6713C22.5131 13.5824 22.6485 13.4265 22.7116 13.2378C22.7746 13.0491 22.7601 12.843 22.6713 12.665C22.5824 12.487 22.4265 12.3515 22.2378 12.2885C22.0491 12.2254 21.8431 12.2399 21.665 12.3288L16.75 14.7863V11C16.75 10.8011 16.671 10.6103 16.5304 10.4697C16.3897 10.329 16.1989 10.25 16 10.25C15.8011 10.25 15.6104 10.329 15.4697 10.4697C15.329 10.6103 15.25 10.8011 15.25 11V17.7863L10.335 15.3288C10.157 15.2399 9.95097 15.2254 9.76227 15.2885C9.57356 15.3515 9.41763 15.487 9.32878 15.665C9.23993 15.843 9.22544 16.0491 9.2885 16.2378C9.35156 16.4265 9.487 16.5824 9.66503 16.6713L15.25 19.4638V21.875C13.9613 22.8069 12.4024 23.29 10.8125 23.25C6.97378 23.1538 3.74003 19.825 3.75003 15.9825C3.74995 14.5378 4.18312 13.1263 4.99356 11.9304C5.80399 10.7345 6.95445 9.80906 8.29628 9.27375C8.39371 9.23438 8.48177 9.17498 8.55477 9.0994C8.62777 9.02382 8.68407 8.93374 8.72003 8.835C9.26502 7.34223 10.2557 6.05307 11.5579 5.14222C12.8601 4.23136 14.4109 3.74284 16 3.74284C17.5892 3.74284 19.1399 4.23136 20.4421 5.14222C21.7443 6.05307 22.735 7.34223 23.28 8.835C23.316 8.93374 23.3723 9.02382 23.4453 9.0994C23.5183 9.17498 23.6064 9.23438 23.7038 9.27375C25.0451 9.80868 26.1953 10.7335 27.0057 11.9287C27.8161 13.1239 28.2495 14.5347 28.25 15.9788C28.26 19.8225 25.0263 23.15 21.1875 23.25Z" fill="white"/>
</svg>
