<svg width="32" height="32" viewBox="0 0 32 32" fill="none" xmlns="http://www.w3.org/2000/svg">
<path d="M29.5439 6.82626C28.7852 6.01333 27.8674 5.36513 26.8476 4.92195C25.8278 4.47876 24.7277 4.25006 23.6157 4.25006C22.5038 4.25006 21.4037 4.47876 20.3839 4.92195C19.3641 5.36513 18.4463 6.01333 17.6876 6.82626C16.9799 7.57024 16.4087 8.43299 16.0001 9.37501C15.5913 8.43388 15.0201 7.572 14.3126 6.82876C13.5539 6.01583 12.6362 5.36763 11.6163 4.92445C10.5965 4.48126 9.49644 4.25256 8.38449 4.25256C7.27253 4.25256 6.17246 4.48126 5.15264 4.92445C4.13282 5.36763 3.21504 6.01583 2.45636 6.82876C2.37331 6.91656 2.31271 7.02312 2.27971 7.13939C2.24672 7.25565 2.24231 7.37817 2.26686 7.49651C2.29141 7.61484 2.34419 7.72549 2.42072 7.81904C2.49724 7.91258 2.59524 7.98624 2.70636 8.03376L10.4351 11.3963C10.2039 11.4388 9.97261 11.4888 9.74261 11.55C8.63355 11.8405 7.59304 12.3478 6.6812 13.0427C5.76935 13.7377 5.00426 14.6064 4.43011 15.5988C3.85211 16.5849 3.47697 17.6767 3.32672 18.8098C3.17646 19.943 3.25411 21.0948 3.55511 22.1975C3.58711 22.3163 3.64786 22.4255 3.73201 22.5153C3.81615 22.6051 3.92111 22.6728 4.03761 22.7125C4.11535 22.7387 4.19682 22.7522 4.27886 22.7525C4.44328 22.7525 4.60315 22.6985 4.73386 22.5988L15.2501 14.58V28C15.2501 28.1989 15.3291 28.3897 15.4698 28.5303C15.6104 28.671 15.8012 28.75 16.0001 28.75C16.199 28.75 16.3898 28.671 16.5304 28.5303C16.6711 28.3897 16.7501 28.1989 16.7501 28V14.58L27.2714 22.5963C27.4021 22.696 27.5619 22.75 27.7264 22.75C27.8084 22.7497 27.8899 22.7362 27.9676 22.71C28.0841 22.6703 28.1891 22.6026 28.2732 22.5128C28.3574 22.423 28.4181 22.3138 28.4501 22.195C28.7511 21.0923 28.8288 19.9405 28.6785 18.8073C28.5283 17.6742 28.1531 16.5824 27.5751 15.5963C27.001 14.6039 26.2359 13.7352 25.324 13.0402C24.4122 12.3453 23.3717 11.838 22.2626 11.5475C22.0326 11.4863 21.8014 11.4363 21.5701 11.3938L29.2989 8.03126C29.41 7.98374 29.508 7.91008 29.5845 7.81653C29.661 7.72299 29.7138 7.61234 29.7384 7.49401C29.7629 7.37567 29.7585 7.25315 29.7255 7.13689C29.6925 7.02062 29.6319 6.91406 29.5489 6.82626H29.5439ZM8.38511 5.75001C9.29344 5.75215 10.1917 5.9405 11.0244 6.30341C11.857 6.66632 12.6065 7.19609 13.2264 7.86001C14.2603 8.95 14.9352 10.3308 15.1601 11.8163L4.36636 7.12501C5.51689 6.23461 6.93028 5.75102 8.38511 5.75001ZM4.78636 20.6663C4.63099 19.1647 4.95853 17.6527 5.72136 16.35C6.1981 15.5287 6.83266 14.8099 7.58846 14.2349C8.34426 13.66 9.20637 13.2403 10.1251 13C10.7416 12.835 11.3769 12.7509 12.0151 12.75C12.8876 12.7496 13.7528 12.9076 14.5689 13.2163L4.78636 20.6663ZM26.2789 16.35C27.0417 17.6527 27.3692 19.1647 27.2139 20.6663L17.4339 13.215C19.0411 12.6105 20.8104 12.5935 22.4289 13.1672C24.0474 13.7409 25.4111 14.8682 26.2789 16.35ZM16.8401 11.8163C17.065 10.3308 17.7399 8.95 18.7739 7.86001C19.3938 7.19609 20.1432 6.66632 20.9759 6.30341C21.8085 5.9405 22.7068 5.75215 23.6151 5.75001C25.0699 5.75102 26.4833 6.23461 27.6339 7.12501L16.8401 11.8163Z" fill="white"/>
</svg>
