<svg width="32" height="32" viewBox="0 0 32 32" fill="none" xmlns="http://www.w3.org/2000/svg">
<path d="M29.7501 7V15C29.7501 15.1989 29.6711 15.3897 29.5304 15.5303C29.3898 15.671 29.199 15.75 29.0001 15.75C28.8012 15.75 28.6104 15.671 28.4698 15.5303C28.3291 15.3897 28.2501 15.1989 28.2501 15V8.81L17.5301 19.53C17.3895 19.6705 17.1988 19.7493 17.0001 19.7493C16.8013 19.7493 16.6107 19.6705 16.4701 19.53L12.0001 15.0612L3.53009 23.53C3.38792 23.6625 3.19987 23.7346 3.00557 23.7312C2.81127 23.7277 2.62588 23.649 2.48847 23.5116C2.35106 23.3742 2.27234 23.1888 2.26892 22.9945C2.26549 22.8002 2.33761 22.6122 2.47009 22.47L11.4701 13.47C11.6107 13.3295 11.8013 13.2507 12.0001 13.2507C12.1988 13.2507 12.3895 13.3295 12.5301 13.47L17.0001 17.9387L27.1901 7.75H21.0001C20.8012 7.75 20.6104 7.67098 20.4698 7.53033C20.3291 7.38968 20.2501 7.19891 20.2501 7C20.2501 6.80109 20.3291 6.61032 20.4698 6.46967C20.6104 6.32902 20.8012 6.25 21.0001 6.25H29.0001C29.199 6.25 29.3898 6.32902 29.5304 6.46967C29.6711 6.61032 29.7501 6.80109 29.7501 7Z" fill="white"/>
</svg>
