<svg width="32" height="32" viewBox="0 0 32 32" fill="none" xmlns="http://www.w3.org/2000/svg">
<path d="M29.7501 16V24C29.7501 24.1989 29.6711 24.3897 29.5304 24.5304C29.3898 24.671 29.199 24.75 29.0001 24.75H21.0001C20.8012 24.75 20.6104 24.671 20.4698 24.5304C20.3291 24.3897 20.2501 24.1989 20.2501 24C20.2501 23.8011 20.3291 23.6104 20.4698 23.4697C20.6104 23.329 20.8012 23.25 21.0001 23.25H27.1901L17.0001 13.0613L12.5301 17.53C12.3895 17.6705 12.1988 17.7494 12.0001 17.7494C11.8013 17.7494 11.6107 17.6705 11.4701 17.53L2.47009 8.53003C2.33761 8.38785 2.26549 8.19981 2.26892 8.00551C2.27234 7.81121 2.35106 7.62582 2.48847 7.48841C2.62588 7.35099 2.81127 7.27228 3.00557 7.26885C3.19987 7.26543 3.38792 7.33755 3.53009 7.47003L12.0001 15.9388L16.4701 11.47C16.6107 11.3296 16.8013 11.2507 17.0001 11.2507C17.1988 11.2507 17.3895 11.3296 17.5301 11.47L28.2501 22.19V16C28.2501 15.8011 28.3291 15.6104 28.4698 15.4697C28.6104 15.329 28.8012 15.25 29.0001 15.25C29.199 15.25 29.3898 15.329 29.5304 15.4697C29.6711 15.6104 29.7501 15.8011 29.7501 16Z" fill="white"/>
</svg>
