<svg width="32" height="32" viewBox="0 0 32 32" fill="none" xmlns="http://www.w3.org/2000/svg">
<path d="M19.75 27C19.75 27.1989 19.6709 27.3897 19.5303 27.5303C19.3896 27.671 19.1989 27.75 19 27.75H13C12.801 27.75 12.6103 27.671 12.4696 27.5303C12.329 27.3897 12.25 27.1989 12.25 27C12.25 26.8011 12.329 26.6103 12.4696 26.4697C12.6103 26.329 12.801 26.25 13 26.25H19C19.1989 26.25 19.3896 26.329 19.5303 26.4697C19.6709 26.6103 19.75 26.8011 19.75 27ZM29.3837 23.6362L28.8012 22.625C28.752 22.5396 28.6864 22.4648 28.6082 22.4048C28.5301 22.3448 28.4408 22.3007 28.3457 22.2752C28.2505 22.2497 28.1512 22.2431 28.0535 22.256C27.9558 22.2688 27.8616 22.3007 27.7762 22.35C27.6908 22.3992 27.616 22.4648 27.556 22.543C27.496 22.6211 27.452 22.7104 27.4264 22.8055C27.4009 22.9007 27.3943 23 27.4072 23.0977C27.42 23.1954 27.452 23.2896 27.5012 23.375L28.0837 24.3862C28.1932 24.5699 28.2511 24.7799 28.2511 24.9937C28.2511 25.2076 28.1932 25.4175 28.0837 25.6012C27.9669 25.8021 27.7986 25.9682 27.5963 26.0825C27.3939 26.1967 27.1648 26.255 26.9325 26.2512H24C23.801 26.2512 23.6103 26.3303 23.4696 26.4709C23.329 26.6116 23.25 26.8023 23.25 27.0012C23.25 27.2002 23.329 27.3909 23.4696 27.5316C23.6103 27.6722 23.801 27.7512 24 27.7512H26.9312C27.4269 27.7562 27.915 27.6293 28.3455 27.3835C28.776 27.1377 29.1335 26.7819 29.3812 26.3525C29.6225 25.9406 29.7498 25.472 29.7503 24.9947C29.7507 24.5174 29.6242 24.0485 29.3837 23.6362ZM7.99996 26.25H5.06871C4.83636 26.2537 4.60722 26.1955 4.40487 26.0812C4.20252 25.967 4.03428 25.8009 3.91746 25.6C3.80792 25.4163 3.75009 25.2064 3.75009 24.9925C3.75009 24.7786 3.80792 24.5687 3.91746 24.385L4.49996 23.375C4.59941 23.2026 4.62631 22.9978 4.57474 22.8055C4.52317 22.6133 4.39735 22.4494 4.22496 22.35C4.05256 22.2505 3.84773 22.2236 3.6555 22.2752C3.46328 22.3268 3.29941 22.4526 3.19996 22.625L2.61746 23.635C2.37682 24.0469 2.25 24.5154 2.25 24.9925C2.25 25.4696 2.37682 25.9381 2.61746 26.35C2.86513 26.7798 3.22269 27.136 3.65345 27.382C4.08421 27.628 4.57266 27.755 5.06871 27.75H7.99996C8.19887 27.75 8.38963 27.671 8.53029 27.5303C8.67094 27.3897 8.74996 27.1989 8.74996 27C8.74996 26.8011 8.67094 26.6103 8.53029 26.4697C8.38963 26.329 8.19887 26.25 7.99996 26.25ZM25.2725 18.75C25.4041 18.7501 25.5335 18.7155 25.6476 18.6497C25.7617 18.5839 25.8565 18.4892 25.9223 18.3752C25.9882 18.2612 26.0229 18.1318 26.0229 18.0001C26.023 17.8684 25.9883 17.739 25.9225 17.625L23.0475 12.625C22.9982 12.5396 22.9326 12.4648 22.8545 12.4048C22.7763 12.3448 22.6871 12.3007 22.5919 12.2752C22.4967 12.2497 22.3975 12.2431 22.2997 12.256C22.202 12.2688 22.1078 12.3007 22.0225 12.35C21.9371 12.3992 21.8623 12.4648 21.8023 12.543C21.7422 12.6211 21.6982 12.7104 21.6727 12.8055C21.6471 12.9007 21.6406 13 21.6534 13.0977C21.6663 13.1954 21.6982 13.2896 21.7475 13.375L24.6225 18.375C24.6883 18.4891 24.7831 18.5838 24.8972 18.6496C25.0113 18.7155 25.1407 18.7501 25.2725 18.75ZM18.4512 4.65249C18.2001 4.22555 17.8419 3.87159 17.4119 3.62566C16.982 3.37973 16.4953 3.25037 16 3.25037C15.5046 3.25037 15.0179 3.37973 14.588 3.62566C14.1581 3.87159 13.7998 4.22555 13.5487 4.65249L11.8362 7.62499C11.7368 7.79738 11.7098 8.00222 11.7614 8.19444C11.813 8.38667 11.9388 8.55053 12.1112 8.64999C12.2836 8.74945 12.4884 8.77635 12.6807 8.72477C12.8729 8.6732 13.0367 8.54738 13.1362 8.37499L14.8487 5.40249C14.9682 5.20397 15.137 5.03972 15.3387 4.92571C15.5405 4.81169 15.7682 4.75177 16 4.75177C16.2317 4.75177 16.4594 4.81169 16.6612 4.92571C16.8629 5.03972 17.0317 5.20397 17.1512 5.40249L18.8637 8.37499C18.9632 8.54738 19.127 8.6732 19.3193 8.72477C19.5115 8.77635 19.7163 8.74945 19.8887 8.64999C20.0611 8.55053 20.1869 8.38667 20.2385 8.19444C20.2901 8.00222 20.2632 7.79738 20.1637 7.62499L18.4512 4.65249ZM9.98121 12.35C9.80895 12.2508 9.60438 12.2241 9.41242 12.2756C9.22047 12.3272 9.05683 12.4529 8.95746 12.625L6.08246 17.625C6.02266 17.7101 5.98121 17.8066 5.96073 17.9086C5.94025 18.0105 5.94119 18.1156 5.9635 18.2171C5.9858 18.3187 6.02897 18.4145 6.09028 18.4985C6.15159 18.5825 6.22969 18.6528 6.31962 18.705C6.40955 18.7572 6.50936 18.7901 6.61269 18.8016C6.71602 18.8132 6.82063 18.8031 6.91987 18.7721C7.01911 18.7411 7.11081 18.6897 7.18915 18.6214C7.2675 18.553 7.33077 18.4691 7.37496 18.375L10.25 13.375C10.35 13.2034 10.378 12.9991 10.3276 12.8069C10.2772 12.6147 10.1526 12.4504 9.98121 12.35Z" fill="white"/>
</svg>
