<svg width="32" height="32" viewBox="0 0 32 32" fill="none" xmlns="http://www.w3.org/2000/svg">
<path d="M29.3837 23.6362L18.4512 4.65249C18.2001 4.22555 17.8419 3.87159 17.4119 3.62566C16.982 3.37973 16.4953 3.25037 16 3.25037C15.5047 3.25037 15.018 3.37973 14.588 3.62566C14.1581 3.87159 13.7998 4.22555 13.5487 4.65249L2.61624 23.6362C2.37559 24.0482 2.24878 24.5167 2.24878 24.9937C2.24878 25.4708 2.37559 25.9393 2.61624 26.3512C2.86398 26.7812 3.22176 27.1374 3.65279 27.3832C4.08382 27.6291 4.57256 27.7556 5.06873 27.75H26.9312C27.427 27.7552 27.9152 27.6284 28.3458 27.3826C28.7763 27.1368 29.1337 26.7808 29.3812 26.3512C29.6223 25.9395 29.7495 25.4711 29.7499 24.9941C29.7504 24.517 29.624 24.0484 29.3837 23.6362ZM28.0825 25.6C27.9657 25.8009 27.7974 25.967 27.5951 26.0812C27.3927 26.1955 27.1636 26.2537 26.9312 26.25H5.06873C4.83639 26.2537 4.60725 26.1955 4.4049 26.0812C4.20255 25.967 4.03431 25.8009 3.91748 25.6C3.80795 25.4163 3.75012 25.2064 3.75012 24.9925C3.75012 24.7786 3.80795 24.5687 3.91748 24.385L14.8487 5.40124C14.9682 5.20272 15.137 5.03847 15.3388 4.92446C15.5405 4.81044 15.7683 4.75052 16 4.75052C16.2317 4.75052 16.4595 4.81044 16.6612 4.92446C16.8629 5.03847 17.0317 5.20272 17.1512 5.40124L28.0837 24.385C28.1931 24.5688 28.2507 24.7788 28.2505 24.9927C28.2503 25.2065 28.1922 25.4164 28.0825 25.6Z" fill="white"/>
</svg>
