<svg width="32" height="32" viewBox="0 0 32 32" fill="none" xmlns="http://www.w3.org/2000/svg">
<path d="M10.7499 27.9999C10.7499 28.346 10.6473 28.6844 10.455 28.9722C10.2627 29.2599 9.98938 29.4842 9.66961 29.6167C9.34983 29.7492 8.99797 29.7838 8.6585 29.7163C8.31904 29.6488 8.00721 29.4821 7.76247 29.2373C7.51773 28.9926 7.35106 28.6808 7.28354 28.3413C7.21601 28.0019 7.25067 27.65 7.38312 27.3302C7.51557 27.0104 7.73988 26.7371 8.02766 26.5448C8.31545 26.3525 8.65379 26.2499 8.99991 26.2499C9.46404 26.2499 9.90916 26.4343 10.2373 26.7625C10.5655 27.0907 10.7499 27.5358 10.7499 27.9999ZM26.9999 26.2499C26.6538 26.2499 26.3154 26.3525 26.0277 26.5448C25.7399 26.7371 25.5156 27.0104 25.3831 27.3302C25.2507 27.65 25.216 28.0019 25.2835 28.3413C25.3511 28.6808 25.5177 28.9926 25.7625 29.2373C26.0072 29.4821 26.319 29.6488 26.6585 29.7163C26.998 29.7838 27.3498 29.7492 27.6696 29.6167C27.9894 29.4842 28.2627 29.2599 28.455 28.9722C28.6473 28.6844 28.7499 28.346 28.7499 27.9999C28.7499 27.5358 28.5655 27.0907 28.2373 26.7625C27.9092 26.4343 27.464 26.2499 26.9999 26.2499ZM29.9999 22.2499H6.74991V9.41366C6.75034 9.18378 6.70527 8.95609 6.61731 8.7437C6.52936 8.53131 6.40024 8.33843 6.23741 8.17616L3.52991 5.46991C3.46125 5.39622 3.37845 5.33712 3.28645 5.29613C3.19445 5.25514 3.09513 5.23309 2.99443 5.23132C2.89373 5.22954 2.7937 5.24807 2.70031 5.28579C2.60692 5.32351 2.52209 5.37965 2.45087 5.45087C2.37965 5.52209 2.32351 5.60692 2.28579 5.70031C2.24807 5.7937 2.22954 5.89373 2.23132 5.99443C2.23309 6.09513 2.25514 6.19445 2.29613 6.28645C2.33712 6.37845 2.39622 6.46125 2.46991 6.52991L5.17616 9.23741C5.22311 9.28408 5.24963 9.34746 5.24991 9.41366V22.2499H3.99991C3.801 22.2499 3.61023 22.3289 3.46958 22.4696C3.32893 22.6102 3.24991 22.801 3.24991 22.9999C3.24991 23.1988 3.32893 23.3896 3.46958 23.5302C3.61023 23.6709 3.801 23.7499 3.99991 23.7499H29.9999C30.1988 23.7499 30.3896 23.6709 30.5302 23.5302C30.6709 23.3896 30.7499 23.1988 30.7499 22.9999C30.7499 22.801 30.6709 22.6102 30.5302 22.4696C30.3896 22.3289 30.1988 22.2499 29.9999 22.2499Z" fill="white"/>
</svg>
