<svg width="32" height="32" viewBox="0 0 32 32" fill="none" xmlns="http://www.w3.org/2000/svg">
<path d="M10.9999 19.75H26.9999C27.464 19.75 27.9092 19.5656 28.2373 19.2374C28.5655 18.9092 28.7499 18.4641 28.7499 18V9C28.7499 8.53587 28.5655 8.09075 28.2373 7.76256C27.9092 7.43437 27.464 7.25 26.9999 7.25H22.7499V5C22.7499 4.53587 22.5655 4.09075 22.2373 3.76256C21.9092 3.43437 21.464 3.25 20.9999 3.25H16.9999C16.5358 3.25 16.0907 3.43437 15.7625 3.76256C15.4343 4.09075 15.2499 4.53587 15.2499 5V7.25H10.9999C10.5358 7.25 10.0907 7.43437 9.76247 7.76256C9.43428 8.09075 9.24991 8.53587 9.24991 9V18C9.24991 18.4641 9.43428 18.9092 9.76247 19.2374C10.0907 19.5656 10.5358 19.75 10.9999 19.75ZM16.7499 5C16.7499 4.9337 16.7762 4.87011 16.8231 4.82322C16.87 4.77634 16.9336 4.75 16.9999 4.75H20.9999C21.0662 4.75 21.1298 4.77634 21.1767 4.82322C21.2236 4.87011 21.2499 4.9337 21.2499 5V7.25H16.7499V5ZM10.7499 9C10.7499 8.9337 10.7762 8.87011 10.8231 8.82322C10.87 8.77634 10.9336 8.75 10.9999 8.75H26.9999C27.0662 8.75 27.1298 8.77634 27.1767 8.82322C27.2236 8.87011 27.2499 8.9337 27.2499 9V18C27.2499 18.0663 27.2236 18.1299 27.1767 18.1768C27.1298 18.2237 27.0662 18.25 26.9999 18.25H10.9999C10.9336 18.25 10.87 18.2237 10.8231 18.1768C10.7762 18.1299 10.7499 18.0663 10.7499 18V9ZM10.7499 28C10.7499 28.3461 10.6473 28.6845 10.455 28.9722C10.2627 29.26 9.98938 29.4843 9.66961 29.6168C9.34983 29.7492 8.99797 29.7839 8.6585 29.7164C8.31904 29.6488 8.00721 29.4822 7.76247 29.2374C7.51773 28.9927 7.35106 28.6809 7.28354 28.3414C7.21601 28.0019 7.25067 27.6501 7.38312 27.3303C7.51557 27.0105 7.73988 26.7372 8.02766 26.5449C8.31545 26.3526 8.65379 26.25 8.99991 26.25C9.46404 26.25 9.90916 26.4344 10.2373 26.7626C10.5655 27.0908 10.7499 27.5359 10.7499 28ZM28.7499 28C28.7499 28.3461 28.6473 28.6845 28.455 28.9722C28.2627 29.26 27.9894 29.4843 27.6696 29.6168C27.3498 29.7492 26.998 29.7839 26.6585 29.7164C26.319 29.6488 26.0072 29.4822 25.7625 29.2374C25.5177 28.9927 25.3511 28.6809 25.2835 28.3414C25.216 28.0019 25.2507 27.6501 25.3831 27.3303C25.5156 27.0105 25.7399 26.7372 26.0277 26.5449C26.3154 26.3526 26.6538 26.25 26.9999 26.25C27.464 26.25 27.9092 26.4344 28.2373 26.7626C28.5655 27.0908 28.7499 27.5359 28.7499 28ZM30.7499 23C30.7499 23.1989 30.6709 23.3897 30.5302 23.5303C30.3896 23.671 30.1988 23.75 29.9999 23.75H3.99991C3.801 23.75 3.61023 23.671 3.46958 23.5303C3.32893 23.3897 3.24991 23.1989 3.24991 23C3.24991 22.8011 3.32893 22.6103 3.46958 22.4697C3.61023 22.329 3.801 22.25 3.99991 22.25H5.24991V9.41375C5.24963 9.34755 5.22311 9.28417 5.17616 9.2375L2.46991 6.53C2.39622 6.46134 2.33712 6.37854 2.29613 6.28654C2.25514 6.19454 2.23309 6.09523 2.23132 5.99452C2.22954 5.89382 2.24807 5.79379 2.28579 5.7004C2.32351 5.60701 2.37965 5.52218 2.45087 5.45096C2.52209 5.37974 2.60692 5.3236 2.70031 5.28588C2.7937 5.24816 2.89373 5.22963 2.99443 5.23141C3.09513 5.23319 3.19445 5.25523 3.28645 5.29622C3.37845 5.33721 3.46125 5.39631 3.52991 5.47L6.23741 8.17625C6.40024 8.33852 6.52936 8.5314 6.61731 8.74379C6.70527 8.95618 6.75034 9.18387 6.74991 9.41375V22.25H29.9999C30.1988 22.25 30.3896 22.329 30.5302 22.4697C30.6709 22.6103 30.7499 22.8011 30.7499 23Z" fill="white"/>
</svg>
