<svg width="32" height="32" viewBox="0 0 32 32" fill="none" xmlns="http://www.w3.org/2000/svg">
<path d="M27.75 12.3088V12C27.748 10.2104 27.0362 8.49466 25.7708 7.22922C24.5053 5.96378 22.7896 5.25199 21 5.25H20C19.5359 5.25 19.0908 5.43437 18.7626 5.76256C18.4344 6.09075 18.25 6.53587 18.25 7V22.25H15.75V9C15.75 8.80109 15.671 8.61032 15.5303 8.46967C15.3897 8.32902 15.1989 8.25 15 8.25H2C1.53587 8.25 1.09075 8.43437 0.762563 8.76256C0.434374 9.09075 0.25 9.53587 0.25 10V23C0.25 23.7871 0.49764 24.5542 0.957842 25.1927C1.41804 25.8312 2.06748 26.3087 2.81415 26.5576C3.56082 26.8065 4.36687 26.8141 5.11813 26.5794C5.86939 26.3447 6.52776 25.8796 7 25.25C7.43356 25.8284 8.02505 26.2692 8.70327 26.5192C9.38148 26.7693 10.1175 26.818 10.8228 26.6596C11.5281 26.5011 12.1725 26.1421 12.6785 25.6259C13.1845 25.1097 13.5306 24.4583 13.675 23.75H24.325C24.5101 24.6614 25.0271 25.4715 25.7759 26.023C26.5246 26.5746 27.4516 26.8282 28.3769 26.7348C29.3021 26.6413 30.1597 26.2074 30.783 25.5173C31.4063 24.8271 31.7509 23.93 31.75 23V17C31.7484 15.8706 31.3452 14.7785 30.6124 13.9191C29.8796 13.0596 28.865 12.4888 27.75 12.3088ZM19.75 7C19.75 6.9337 19.7763 6.87011 19.8232 6.82322C19.8701 6.77634 19.9337 6.75 20 6.75H21C22.3924 6.75 23.7277 7.30312 24.7123 8.28769C25.6969 9.27225 26.25 10.6076 26.25 12V13C26.25 13.1989 26.329 13.3897 26.4697 13.5303C26.6103 13.671 26.8011 13.75 27 13.75C27.862 13.75 28.6886 14.0924 29.2981 14.7019C29.9076 15.3114 30.25 16.138 30.25 17V20C29.7441 19.6204 29.1504 19.3749 28.5241 19.2864C27.8978 19.1979 27.2593 19.2692 26.668 19.4938C26.0767 19.7183 25.5519 20.0888 25.1422 20.5707C24.7325 21.0526 24.4514 21.6303 24.325 22.25H19.75V7ZM2 9.75H14.25V22.25H13.675C13.5306 21.5417 13.1845 20.8903 12.6785 20.3741C12.1725 19.8579 11.5281 19.4989 10.8228 19.3404C10.1175 19.182 9.38148 19.2307 8.70327 19.4808C8.02505 19.7308 7.43356 20.1716 7 20.75C6.40326 19.9544 5.5149 19.4283 4.53033 19.2877C3.54576 19.147 2.54565 19.4033 1.75 20V10C1.75 9.9337 1.77634 9.87011 1.82322 9.82322C1.87011 9.77634 1.9337 9.75 2 9.75ZM4 25.25C3.55499 25.25 3.11998 25.118 2.74997 24.8708C2.37996 24.6236 2.09157 24.2722 1.92127 23.861C1.75097 23.4499 1.70642 22.9975 1.79323 22.561C1.88005 22.1246 2.09434 21.7237 2.40901 21.409C2.72368 21.0943 3.12459 20.8801 3.56105 20.7932C3.9975 20.7064 4.4499 20.751 4.86104 20.9213C5.27217 21.0916 5.62357 21.38 5.87081 21.75C6.11804 22.12 6.25 22.555 6.25 23C6.25 23.5967 6.01295 24.169 5.59099 24.591C5.16903 25.0129 4.59674 25.25 4 25.25ZM10 25.25C9.55499 25.25 9.11998 25.118 8.74997 24.8708C8.37996 24.6236 8.09157 24.2722 7.92127 23.861C7.75097 23.4499 7.70642 22.9975 7.79323 22.561C7.88005 22.1246 8.09434 21.7237 8.40901 21.409C8.72368 21.0943 9.12459 20.8801 9.56105 20.7932C9.9975 20.7064 10.4499 20.751 10.861 20.9213C11.2722 21.0916 11.6236 21.38 11.8708 21.75C12.118 22.12 12.25 22.555 12.25 23C12.25 23.5967 12.0129 24.169 11.591 24.591C11.169 25.0129 10.5967 25.25 10 25.25ZM28 25.25C27.555 25.25 27.12 25.118 26.75 24.8708C26.38 24.6236 26.0916 24.2722 25.9213 23.861C25.751 23.4499 25.7064 22.9975 25.7932 22.561C25.8801 22.1246 26.0943 21.7237 26.409 21.409C26.7237 21.0943 27.1246 20.8801 27.561 20.7932C27.9975 20.7064 28.4499 20.751 28.861 20.9213C29.2722 21.0916 29.6236 21.38 29.8708 21.75C30.118 22.12 30.25 22.555 30.25 23C30.25 23.5967 30.0129 24.169 29.591 24.591C29.169 25.0129 28.5967 25.25 28 25.25Z" fill="white"/>
</svg>
