<svg width="32" height="32" viewBox="0 0 32 32" fill="none" xmlns="http://www.w3.org/2000/svg">
<path d="M31.6963 14.7225L29.9463 10.3475C29.8173 10.0221 29.5933 9.74302 29.3035 9.54679C29.0136 9.35057 28.6713 9.24627 28.3213 9.2475H23.75V8C23.75 7.80109 23.671 7.61032 23.5303 7.46967C23.3897 7.32902 23.1989 7.25 23 7.25H4C3.53587 7.25 3.09075 7.43437 2.76256 7.76256C2.43437 8.09075 2.25 8.53587 2.25 9V23C2.25 23.4641 2.43437 23.9092 2.76256 24.2374C3.09075 24.5656 3.53587 24.75 4 24.75H6.325C6.49714 25.5977 6.95705 26.3599 7.62681 26.9073C8.29657 27.4547 9.13498 27.7538 10 27.7538C10.865 27.7538 11.7034 27.4547 12.3732 26.9073C13.043 26.3599 13.5029 25.5977 13.675 24.75H20.325C20.4971 25.5977 20.957 26.3599 21.6268 26.9073C22.2966 27.4547 23.135 27.7538 24 27.7538C24.865 27.7538 25.7034 27.4547 26.3732 26.9073C27.043 26.3599 27.5029 25.5977 27.675 24.75H30C30.4641 24.75 30.9092 24.5656 31.2374 24.2374C31.5656 23.9092 31.75 23.4641 31.75 23V15C31.7498 14.9049 31.7316 14.8108 31.6963 14.7225ZM23.75 10.75H28.3225C28.3726 10.75 28.4215 10.7649 28.463 10.793C28.5044 10.8211 28.5365 10.861 28.555 10.9075L29.8925 14.25H23.75V10.75ZM3.75 9C3.75 8.9337 3.77634 8.87011 3.82322 8.82322C3.87011 8.77634 3.9337 8.75 4 8.75H22.25V17.25H3.75V9ZM10 26.25C9.55499 26.25 9.11998 26.118 8.74997 25.8708C8.37996 25.6236 8.09157 25.2722 7.92127 24.861C7.75097 24.4499 7.70642 23.9975 7.79323 23.561C7.88005 23.1246 8.09434 22.7237 8.40901 22.409C8.72368 22.0943 9.12459 21.8801 9.56105 21.7932C9.9975 21.7064 10.4499 21.751 10.861 21.9213C11.2722 22.0916 11.6236 22.38 11.8708 22.75C12.118 23.12 12.25 23.555 12.25 24C12.25 24.5967 12.0129 25.169 11.591 25.591C11.169 26.0129 10.5967 26.25 10 26.25ZM20.325 23.25H13.675C13.5029 22.4023 13.043 21.6401 12.3732 21.0927C11.7034 20.5453 10.865 20.2462 10 20.2462C9.13498 20.2462 8.29657 20.5453 7.62681 21.0927C6.95705 21.6401 6.49714 22.4023 6.325 23.25H4C3.9337 23.25 3.87011 23.2237 3.82322 23.1768C3.77634 23.1299 3.75 23.0663 3.75 23V18.75H22.25V20.685C21.76 20.9443 21.3333 21.3087 21.0005 21.7521C20.6677 22.1956 20.4371 22.707 20.325 23.25ZM24 26.25C23.555 26.25 23.12 26.118 22.75 25.8708C22.38 25.6236 22.0916 25.2722 21.9213 24.861C21.751 24.4499 21.7064 23.9975 21.7932 23.561C21.8801 23.1246 22.0943 22.7237 22.409 22.409C22.7237 22.0943 23.1246 21.8801 23.561 21.7932C23.9975 21.7064 24.4499 21.751 24.861 21.9213C25.2722 22.0916 25.6236 22.38 25.8708 22.75C26.118 23.12 26.25 23.555 26.25 24C26.25 24.5967 26.0129 25.169 25.591 25.591C25.169 26.0129 24.5967 26.25 24 26.25ZM30.25 23C30.25 23.0663 30.2237 23.1299 30.1768 23.1768C30.1299 23.2237 30.0663 23.25 30 23.25H27.675C27.501 22.4035 27.0405 21.6429 26.371 21.0964C25.7016 20.5499 24.8642 20.251 24 20.25C23.9163 20.25 23.8325 20.25 23.75 20.2588V15.75H30.25V23Z" fill="white"/>
</svg>
