<svg width="32" height="32" viewBox="0 0 32 32" fill="none" xmlns="http://www.w3.org/2000/svg">
<path d="M30.83 7.875L24.3588 4.3425C24.2489 4.2818 24.1255 4.24997 24 4.25H20C19.8011 4.25 19.6103 4.32902 19.4697 4.46967C19.329 4.61032 19.25 4.80109 19.25 5C19.25 5.86195 18.9076 6.68861 18.2981 7.2981C17.6886 7.90759 16.862 8.25 16 8.25C15.1381 8.25 14.3114 7.90759 13.7019 7.2981C13.0924 6.68861 12.75 5.86195 12.75 5C12.75 4.80109 12.671 4.61032 12.5303 4.46967C12.3897 4.32902 12.1989 4.25 12 4.25H8.00001C7.8741 4.24976 7.75021 4.28159 7.64001 4.3425L1.17001 7.875C0.767472 8.08744 0.465466 8.45067 0.330065 8.88522C0.194664 9.31977 0.236891 9.79026 0.447509 10.1938L2.85751 14.795C3.01157 15.0854 3.24232 15.328 3.52464 15.4963C3.80696 15.6647 4.13005 15.7525 4.45876 15.75H7.25001V26C7.25001 26.4641 7.43438 26.9093 7.76257 27.2374C8.09076 27.5656 8.53588 27.75 9.00001 27.75H23C23.4641 27.75 23.9093 27.5656 24.2374 27.2374C24.5656 26.9093 24.75 26.4641 24.75 26V15.75H27.5425C27.8712 15.7525 28.1943 15.6647 28.4766 15.4963C28.759 15.328 28.9897 15.0854 29.1438 14.795L31.5538 10.1938C31.7643 9.79011 31.8063 9.3195 31.6707 8.88493C31.535 8.45036 31.2328 8.08722 30.83 7.875ZM4.45501 14.25C4.40014 14.2519 4.34579 14.2388 4.29778 14.2122C4.24978 14.1855 4.20993 14.1463 4.18251 14.0988L1.77626 9.5C1.7627 9.47246 1.75485 9.44245 1.75319 9.41179C1.75153 9.38114 1.75609 9.35046 1.7666 9.32161C1.77711 9.29276 1.79336 9.26634 1.81435 9.24394C1.83534 9.22154 1.86065 9.20361 1.88876 9.19125L7.25001 6.26375V14.25H4.45501ZM23.25 26C23.25 26.0663 23.2237 26.1299 23.1768 26.1768C23.1299 26.2237 23.0663 26.25 23 26.25H9.00001C8.9337 26.25 8.87012 26.2237 8.82323 26.1768C8.77635 26.1299 8.75001 26.0663 8.75001 26V5.75H11.31C11.4922 6.86182 12.0636 7.87269 12.9222 8.60211C13.7809 9.33153 14.8709 9.73199 15.9975 9.73199C17.1242 9.73199 18.2141 9.33153 19.0728 8.60211C19.9314 7.87269 20.5028 6.86182 20.685 5.75H23.25V26ZM30.225 9.5L27.815 14.1C27.7876 14.1476 27.7477 14.1868 27.6997 14.2134C27.6517 14.2401 27.5974 14.2531 27.5425 14.2513H24.75V6.26375L30.1125 9.18875C30.1407 9.20135 30.1661 9.21953 30.1871 9.24219C30.208 9.26485 30.2242 9.29153 30.2346 9.32062C30.245 9.3497 30.2494 9.38059 30.2475 9.41142C30.2457 9.44225 30.2376 9.47238 30.2238 9.5H30.225Z" fill="white"/>
</svg>
