<svg width="32" height="32" viewBox="0 0 32 32" fill="none" xmlns="http://www.w3.org/2000/svg">
<path d="M24 14.75C24.1989 14.75 24.3897 14.671 24.5303 14.5303C24.671 14.3897 24.75 14.1989 24.75 14V9C24.75 8.80109 24.671 8.61032 24.5303 8.46967C24.3897 8.32902 24.1989 8.25 24 8.25H18.75V3C18.75 2.80109 18.671 2.61032 18.5303 2.46967C18.3897 2.32902 18.1989 2.25 18 2.25H14C13.8011 2.25 13.6103 2.32902 13.4697 2.46967C13.329 2.61032 13.25 2.80109 13.25 3C13.25 4.39239 12.6969 5.72774 11.7123 6.71231C10.7277 7.69688 9.39239 8.25 8 8.25C7.80109 8.25 7.61032 8.32902 7.46967 8.46967C7.32902 8.61032 7.25 8.80109 7.25 9V14C7.25 14.1989 7.32902 14.3897 7.46967 14.5303C7.61032 14.671 7.80109 14.75 8 14.75H11.25V22C11.2523 24.0547 12.0696 26.0246 13.5225 27.4775C14.9754 28.9304 16.9453 29.7477 19 29.75H24C24.1989 29.75 24.3897 29.671 24.5303 29.5303C24.671 29.3897 24.75 29.1989 24.75 29V23C24.75 22.8011 24.671 22.6103 24.5303 22.4697C24.3897 22.329 24.1989 22.25 24 22.25H20C19.6685 22.25 19.3505 22.1183 19.1161 21.8839C18.8817 21.6495 18.75 21.3315 18.75 21V14.75H24ZM20 23.75H23.25V28.25H19C17.343 28.248 15.7544 27.5889 14.5828 26.4172C13.4111 25.2456 12.752 23.657 12.75 22V14C12.75 13.8011 12.671 13.6103 12.5303 13.4697C12.3897 13.329 12.1989 13.25 12 13.25H8.75V9.70875C10.2708 9.5361 11.6882 8.85281 12.7705 7.7705C13.8528 6.68819 14.5361 5.27085 14.7087 3.75H17.25V9C17.25 9.19891 17.329 9.38968 17.4697 9.53033C17.6103 9.67098 17.8011 9.75 18 9.75H23.25V13.25H18C17.8011 13.25 17.6103 13.329 17.4697 13.4697C17.329 13.6103 17.25 13.8011 17.25 14V21C17.25 21.7293 17.5397 22.4288 18.0555 22.9445C18.5712 23.4603 19.2707 23.75 20 23.75Z" fill="white"/>
</svg>
