<svg width="32" height="32" viewBox="0 0 32 32" fill="none" xmlns="http://www.w3.org/2000/svg">
<path d="M30.6925 8.71372C30.6359 8.5766 30.5399 8.45935 30.4166 8.3768C30.2933 8.29425 30.1483 8.25012 30 8.24997H26.05C25.5502 7.34865 24.8202 6.59607 23.9346 6.06903C23.0489 5.54198 22.0393 5.25935 21.0087 5.24997C20.2602 5.24038 19.5173 5.38052 18.8238 5.66216C18.1302 5.9438 17.4999 6.36125 16.97 6.88997C16.4238 7.42583 15.9903 8.06547 15.695 8.77128C15.3996 9.4771 15.2483 10.2348 15.25 11V12.0825C9.99999 10.8325 5.67499 6.51747 5.62499 6.47247C5.52426 6.37244 5.39721 6.30305 5.2586 6.27237C5.11999 6.24169 4.97552 6.25098 4.84198 6.29916C4.70845 6.34734 4.59132 6.43242 4.50423 6.54453C4.41714 6.65664 4.36365 6.79117 4.34999 6.93247C3.81874 12.835 5.52749 16.7762 7.05499 19.0437C7.84464 20.2316 8.81803 21.2864 9.93874 22.1687C8.00249 24.5437 4.77124 25.78 4.73624 25.7937C4.62949 25.8332 4.53314 25.8965 4.45447 25.9788C4.3758 26.061 4.31689 26.1601 4.2822 26.2685C4.24751 26.3769 4.23795 26.4918 4.25424 26.6045C4.27054 26.7171 4.31226 26.8246 4.37624 26.9187C4.49999 27.1037 5.72249 28.75 9.99999 28.75C18.735 28.75 26.0287 22 26.7275 13.3325L30.53 9.53122C30.6349 9.42631 30.7063 9.29264 30.7353 9.14712C30.7642 9.00161 30.7493 8.85078 30.6925 8.71372ZM25.47 12.47C25.3408 12.5988 25.263 12.7704 25.2512 12.9525C24.7412 20.97 18.0412 27.25 9.99999 27.25C8.24999 27.25 7.15499 26.9487 6.49249 26.65C7.90499 25.94 10.2075 24.54 11.6237 22.4162C11.6802 22.3313 11.7188 22.2357 11.7371 22.1353C11.7553 22.0349 11.7529 21.9319 11.73 21.8325C11.7068 21.7324 11.6634 21.6382 11.6023 21.5556C11.5412 21.4731 11.4639 21.4039 11.375 21.3525C11.3587 21.3425 9.73374 20.37 8.24999 18.1375C6.49999 15.5 5.66374 12.3037 5.74999 8.60997C7.60999 10.185 11.4462 12.9962 15.875 13.735C15.9826 13.7532 16.0928 13.7477 16.1981 13.7188C16.3033 13.69 16.401 13.6386 16.4843 13.5681C16.5676 13.4977 16.6346 13.4099 16.6804 13.3109C16.7263 13.2119 16.7501 13.1041 16.75 12.995V11C16.7488 10.4335 16.8609 9.8726 17.0797 9.35012C17.2984 8.82763 17.6194 8.35414 18.0237 7.95747C18.4131 7.56875 18.8761 7.26171 19.3857 7.05435C19.8953 6.847 20.4411 6.74351 20.9912 6.74997C22.67 6.77122 24.2412 7.79622 24.8962 9.29997C24.9546 9.43374 25.0508 9.54757 25.1729 9.6275C25.295 9.70743 25.4378 9.74999 25.5837 9.74997H28.1887L25.47 12.47Z" fill="white"/>
</svg>
