<svg width="32" height="32" viewBox="0 0 32 32" fill="none" xmlns="http://www.w3.org/2000/svg">
<path d="M25.75 8V18C25.75 20.5859 24.7228 23.0658 22.8943 24.8943C21.0658 26.7228 18.5859 27.75 16 27.75C13.4141 27.75 10.9342 26.7228 9.10571 24.8943C7.27723 23.0658 6.25 20.5859 6.25 18V8C6.25 7.80109 6.32902 7.61032 6.46967 7.46967C6.61032 7.32902 6.80109 7.25 7 7.25C7.19891 7.25 7.38968 7.32902 7.53033 7.46967C7.67098 7.61032 7.75 7.80109 7.75 8V18C7.75 20.188 8.61919 22.2865 10.1664 23.8336C11.7135 25.3808 13.812 26.25 16 26.25C18.188 26.25 20.2865 25.3808 21.8336 23.8336C23.3808 22.2865 24.25 20.188 24.25 18V8C24.25 7.80109 24.329 7.61032 24.4697 7.46967C24.6103 7.32902 24.8011 7.25 25 7.25C25.1989 7.25 25.3897 7.32902 25.5303 7.46967C25.671 7.61032 25.75 7.80109 25.75 8Z" fill="white"/>
</svg>
