<svg width="32" height="32" viewBox="0 0 32 32" fill="none" xmlns="http://www.w3.org/2000/svg">
<path d="M21.6138 10.3863C21.3178 8.62025 20.5412 6.96982 19.3691 5.61604C18.197 4.26225 16.6747 3.2574 14.9692 2.71169C13.2637 2.16599 11.4408 2.10052 9.70056 2.52245C7.9603 2.94438 6.36984 3.83743 5.10363 5.10363C3.83743 6.36984 2.94438 7.9603 2.52245 9.70056C2.10052 11.4408 2.16599 13.2637 2.71169 14.9692C3.2574 16.6747 4.26225 18.197 5.61604 19.3691C6.96982 20.5412 8.62025 21.3178 10.3863 21.6138C10.6823 23.3799 11.4589 25.0303 12.631 26.3841C13.8031 27.7379 15.3254 28.7427 17.0309 29.2884C18.7364 29.8341 20.5593 29.8996 22.2996 29.4777C24.0398 29.0557 25.6303 28.1627 26.8965 26.8965C28.1627 25.6303 29.0557 24.0398 29.4777 22.2996C29.8996 20.5593 29.8341 18.7364 29.2884 17.0309C28.7427 15.3254 27.7379 13.8031 26.3841 12.631C25.0303 11.4589 23.3799 10.6823 21.6138 10.3863ZM28.2501 20.0001C28.2496 20.3722 28.2237 20.7439 28.1726 21.1126L21.4526 14.3913C21.6504 13.6096 21.7504 12.8064 21.7501 12.0001C21.7501 11.9788 21.7501 11.9588 21.7501 11.9388C23.59 12.3405 25.2375 13.3588 26.4196 14.8248C27.6017 16.2909 28.2475 18.1168 28.2501 20.0001ZM5.66381 6.72381L12.6013 13.6613C11.9891 14.3763 11.4838 15.1763 11.1013 16.0363L4.25006 9.18506C4.57558 8.28913 5.05391 7.45639 5.66381 6.72381ZM16.7788 18.7238L13.2788 15.2238C13.8135 14.4741 14.4691 13.8185 15.2188 13.2838L18.7188 16.7838C18.1837 17.5317 17.5281 18.1856 16.7788 18.7188V18.7238ZM20.2501 12.0001C20.2515 13.1862 19.9956 14.3586 19.5001 15.4363L16.5638 12.5001C17.6415 12.0045 18.8139 11.7487 20.0001 11.7501C20.0813 11.7501 20.1626 11.7501 20.2438 11.7501C20.2501 11.8376 20.2501 11.9188 20.2501 12.0001ZM13.6613 12.6013L6.72381 5.66381C7.45639 5.05391 8.28913 4.57558 9.18506 4.25006L16.0351 11.1013C15.1755 11.4839 14.3759 11.9892 13.6613 12.6013ZM11.7501 20.0001C11.7487 18.8139 12.0045 17.6415 12.5001 16.5638L15.4363 19.5001C14.3586 19.9956 13.1862 20.2515 12.0001 20.2501C11.9188 20.2501 11.8376 20.2501 11.7501 20.2438C11.7501 20.1626 11.7501 20.0813 11.7501 20.0001ZM18.3388 19.3988L25.2763 26.3363C24.5437 26.9462 23.711 27.4245 22.8151 27.7501L15.9651 20.8988C16.8247 20.5162 17.6242 20.0109 18.3388 19.3988ZM19.3988 18.3388C20.011 17.6238 20.5163 16.8238 20.8988 15.9638L27.7501 22.8151C27.423 23.7113 26.943 24.5441 26.3313 25.2763L19.3988 18.3388ZM20.0613 10.2513H20.0001C19.1937 10.251 18.3905 10.3509 17.6088 10.5488L10.8876 3.82756C11.2562 3.7764 11.6279 3.7505 12.0001 3.75006C13.8833 3.75258 15.7092 4.3984 17.1753 5.58052C18.6413 6.76264 19.6596 8.41013 20.0613 10.2501V10.2513ZM3.75006 12.0001C3.7505 11.6279 3.7764 11.2562 3.82756 10.8876L10.5476 17.6088C10.3497 18.3905 10.2498 19.1937 10.2501 20.0001C10.2501 20.0213 10.2501 20.0413 10.2501 20.0613C8.41013 19.6596 6.76264 18.6413 5.58052 17.1753C4.3984 15.7092 3.75258 13.8833 3.75006 12.0001ZM11.9388 21.7501H12.0001C12.8064 21.7504 13.6096 21.6504 14.3913 21.4526L21.1126 28.1726C20.7439 28.2237 20.3722 28.2496 20.0001 28.2501C18.1168 28.2475 16.2909 27.6017 14.8248 26.4196C13.3588 25.2375 12.3405 23.59 11.9388 21.7501Z" fill="white"/>
</svg>
