<svg width="32" height="32" viewBox="0 0 32 32" fill="none" xmlns="http://www.w3.org/2000/svg">
<path d="M29.75 17V25C29.75 25.4641 29.5656 25.9092 29.2374 26.2374C28.9092 26.5656 28.4641 26.75 28 26.75H4C3.53587 26.75 3.09075 26.5656 2.76256 26.2374C2.43437 25.9092 2.25 25.4641 2.25 25V17C2.25 16.5358 2.43437 16.0907 2.76256 15.7625C3.09075 15.4343 3.53587 15.25 4 15.25H10C10.1989 15.25 10.3897 15.329 10.5303 15.4696C10.671 15.6103 10.75 15.801 10.75 16C10.75 16.1989 10.671 16.3896 10.5303 16.5303C10.3897 16.6709 10.1989 16.75 10 16.75H4C3.9337 16.75 3.87011 16.7763 3.82322 16.8232C3.77634 16.8701 3.75 16.9336 3.75 17V25C3.75 25.0663 3.77634 25.1298 3.82322 25.1767C3.87011 25.2236 3.9337 25.25 4 25.25H28C28.0663 25.25 28.1299 25.2236 28.1768 25.1767C28.2237 25.1298 28.25 25.0663 28.25 25V17C28.25 16.9336 28.2237 16.8701 28.1768 16.8232C28.1299 16.7763 28.0663 16.75 28 16.75H22C21.8011 16.75 21.6103 16.6709 21.4697 16.5303C21.329 16.3896 21.25 16.1989 21.25 16C21.25 15.801 21.329 15.6103 21.4697 15.4696C21.6103 15.329 21.8011 15.25 22 15.25H28C28.4641 15.25 28.9092 15.4343 29.2374 15.7625C29.5656 16.0907 29.75 16.5358 29.75 17ZM10.53 9.52995L15.25 4.8112V16C15.25 16.1989 15.329 16.3896 15.4697 16.5303C15.6103 16.6709 15.8011 16.75 16 16.75C16.1989 16.75 16.3897 16.6709 16.5303 16.5303C16.671 16.3896 16.75 16.1989 16.75 16V4.8112L21.47 9.52995C21.6122 9.66243 21.8002 9.73455 21.9945 9.73113C22.1888 9.7277 22.3742 9.64898 22.5116 9.51157C22.649 9.37416 22.7277 9.18877 22.7312 8.99447C22.7346 8.80017 22.6625 8.61213 22.53 8.46995L16.53 2.46995C16.3894 2.3295 16.1988 2.25061 16 2.25061C15.8012 2.25061 15.6106 2.3295 15.47 2.46995L9.47 8.46995C9.33752 8.61213 9.2654 8.80017 9.26882 8.99447C9.27225 9.18877 9.35097 9.37416 9.48838 9.51157C9.62579 9.64898 9.81118 9.7277 10.0055 9.73113C10.1998 9.73455 10.3878 9.66243 10.53 9.52995ZM24.75 21C24.75 20.7527 24.6767 20.511 24.5393 20.3055C24.402 20.0999 24.2068 19.9397 23.9784 19.8451C23.7499 19.7505 23.4986 19.7257 23.2561 19.774C23.0137 19.8222 22.7909 19.9412 22.6161 20.1161C22.4413 20.2909 22.3223 20.5136 22.274 20.7561C22.2258 20.9986 22.2505 21.2499 22.3451 21.4783C22.4398 21.7067 22.6 21.9019 22.8055 22.0393C23.0111 22.1766 23.2528 22.25 23.5 22.25C23.8315 22.25 24.1495 22.1183 24.3839 21.8838C24.6183 21.6494 24.75 21.3315 24.75 21Z" fill="white"/>
</svg>
