<svg width="32" height="32" viewBox="0 0 32 32" fill="none" xmlns="http://www.w3.org/2000/svg">
<path d="M27.75 18V26C27.75 26.1989 27.671 26.3896 27.5303 26.5303C27.3897 26.6709 27.1989 26.75 27 26.75H5C4.80109 26.75 4.61032 26.6709 4.46967 26.5303C4.32902 26.3896 4.25 26.1989 4.25 26V18C4.25 17.801 4.32902 17.6103 4.46967 17.4696C4.61032 17.329 4.80109 17.25 5 17.25C5.19891 17.25 5.38968 17.329 5.53033 17.4696C5.67098 17.6103 5.75 17.801 5.75 18V25.25H26.25V18C26.25 17.801 26.329 17.6103 26.4697 17.4696C26.6103 17.329 26.8011 17.25 27 17.25C27.1989 17.25 27.3897 17.329 27.5303 17.4696C27.671 17.6103 27.75 17.801 27.75 18ZM11.53 9.52995L15.25 5.8112V18C15.25 18.1989 15.329 18.3896 15.4697 18.5303C15.6103 18.6709 15.8011 18.75 16 18.75C16.1989 18.75 16.3897 18.6709 16.5303 18.5303C16.671 18.3896 16.75 18.1989 16.75 18V5.8112L20.47 9.52995C20.6122 9.66243 20.8002 9.73455 20.9945 9.73113C21.1888 9.7277 21.3742 9.64898 21.5116 9.51157C21.649 9.37416 21.7277 9.18877 21.7312 8.99447C21.7346 8.80017 21.6625 8.61213 21.53 8.46995L16.53 3.46995C16.3894 3.3295 16.1988 3.25061 16 3.25061C15.8012 3.25061 15.6106 3.3295 15.47 3.46995L10.47 8.46995C10.3375 8.61213 10.2654 8.80017 10.2688 8.99447C10.2723 9.18877 10.351 9.37416 10.4884 9.51157C10.6258 9.64898 10.8112 9.7277 11.0055 9.73113C11.1998 9.73455 11.3878 9.66243 11.53 9.52995Z" fill="white"/>
</svg>
