<svg width="32" height="32" viewBox="0 0 32 32" fill="none" xmlns="http://www.w3.org/2000/svg">
<path d="M31.5301 16.53L28.5301 19.53C28.3895 19.6704 28.1988 19.7493 28.0001 19.7493C27.8013 19.7493 27.6107 19.6704 27.4701 19.53L24.4701 16.53C24.3964 16.4613 24.3373 16.3785 24.2963 16.2865C24.2553 16.1945 24.2333 16.0952 24.2315 15.9945C24.2297 15.8938 24.2482 15.7938 24.286 15.7004C24.3237 15.607 24.3798 15.5221 24.4511 15.4509C24.5223 15.3797 24.6071 15.3236 24.7005 15.2858C24.7939 15.2481 24.8939 15.2296 24.9946 15.2314C25.0953 15.2332 25.1946 15.2552 25.2866 15.2962C25.3786 15.3372 25.4614 15.3963 25.5301 15.47L27.2501 17.1887V16C27.2512 13.618 26.4961 11.2971 25.0938 9.37164C23.6914 7.4462 21.7141 6.01558 19.4466 5.28584C17.1791 4.5561 14.7385 4.56491 12.4764 5.311C10.2142 6.05709 8.24727 7.50195 6.85884 9.43747C6.80274 9.52074 6.7305 9.5919 6.64638 9.64673C6.56227 9.70156 6.468 9.73895 6.36917 9.75666C6.27035 9.77438 6.16896 9.77208 6.07104 9.74988C5.97312 9.72769 5.88065 9.68606 5.79912 9.62747C5.71758 9.56887 5.64865 9.4945 5.59639 9.40876C5.54414 9.32302 5.50963 9.22767 5.49492 9.12835C5.4802 9.02903 5.48558 8.92776 5.51073 8.83056C5.53588 8.73335 5.5803 8.64219 5.64134 8.56247C7.21509 6.36946 9.44422 4.73248 12.0077 3.88727C14.5712 3.04206 17.3369 3.03224 19.9063 3.85921C22.4758 4.68619 24.7165 6.30728 26.3058 8.48906C27.8951 10.6708 28.7509 13.3007 28.7501 16V17.1887L30.4701 15.47C30.5388 15.3963 30.6216 15.3372 30.7136 15.2962C30.8056 15.2552 30.9049 15.2332 31.0056 15.2314C31.1063 15.2296 31.2063 15.2481 31.2997 15.2858C31.3931 15.3236 31.4779 15.3797 31.5491 15.4509C31.6203 15.5221 31.6765 15.607 31.7142 15.7004C31.7519 15.7938 31.7705 15.8938 31.7687 15.9945C31.7669 16.0952 31.7449 16.1945 31.7039 16.2865C31.6629 16.3785 31.6038 16.4613 31.5301 16.53ZM26.3563 23.4375C24.7822 25.6294 22.5533 27.2654 19.9902 28.1099C17.4272 28.9544 14.6623 28.964 12.0935 28.1371C9.52468 27.3103 7.28448 25.6897 5.69532 23.5086C4.10616 21.3276 3.25001 18.6986 3.25009 16V14.8112L1.53009 16.53C1.38792 16.6624 1.19987 16.7346 1.00557 16.7311C0.811267 16.7277 0.625882 16.649 0.488469 16.5116C0.351056 16.3742 0.272344 16.1888 0.268916 15.9945C0.265487 15.8002 0.337611 15.6121 0.470091 15.47L3.47009 12.47C3.61072 12.3295 3.80134 12.2506 4.00009 12.2506C4.19884 12.2506 4.38947 12.3295 4.53009 12.47L7.53009 15.47C7.60378 15.5386 7.66288 15.6214 7.70387 15.7134C7.74486 15.8054 7.76691 15.9047 7.76868 16.0054C7.77046 16.1061 7.75193 16.2062 7.71421 16.2996C7.67649 16.393 7.62035 16.4778 7.54913 16.549C7.47791 16.6202 7.39308 16.6764 7.29969 16.7141C7.2063 16.7518 7.10627 16.7703 7.00557 16.7686C6.90487 16.7668 6.80555 16.7447 6.71355 16.7037C6.62155 16.6628 6.53875 16.6037 6.47009 16.53L4.75009 14.8112V16C4.74797 18.8652 5.84343 21.6224 7.81134 23.705C8.98975 21.8726 10.7512 20.4908 12.8113 19.7825C11.7841 19.0982 11.0042 18.1016 10.5871 16.9399C10.17 15.7782 10.1378 14.5131 10.4952 13.3317C10.8526 12.1503 11.5807 11.1153 12.5719 10.3796C13.563 9.64401 14.7645 9.24683 15.9988 9.24683C17.2331 9.24683 18.4347 9.64401 19.4258 10.3796C20.4169 11.1153 21.145 12.1503 21.5025 13.3317C21.8599 14.5131 21.8277 15.7782 21.4106 16.9399C20.9935 18.1016 20.2136 19.0982 19.1863 19.7825C21.2473 20.4914 23.0089 21.8747 24.1863 23.7087C24.5273 23.3481 24.8438 22.9652 25.1338 22.5625C25.1899 22.4792 25.2622 22.408 25.3463 22.3532C25.4304 22.2984 25.5247 22.261 25.6235 22.2433C25.7223 22.2256 25.8237 22.2279 25.9216 22.2501C26.0196 22.2722 26.112 22.3139 26.1936 22.3725C26.2751 22.4311 26.344 22.5054 26.3963 22.5912C26.4485 22.6769 26.4831 22.7723 26.4978 22.8716C26.5125 22.9709 26.5071 23.0722 26.482 23.1694C26.4568 23.2666 26.4124 23.3577 26.3513 23.4375H26.3563ZM16.0001 19.25C16.8407 19.25 17.6624 19.0007 18.3613 18.5337C19.0602 18.0667 19.6049 17.403 19.9266 16.6264C20.2483 15.8498 20.3324 14.9953 20.1684 14.1708C20.0044 13.3464 19.5997 12.5891 19.0053 11.9948C18.4109 11.4004 17.6536 10.9956 16.8292 10.8316C16.0048 10.6676 15.1503 10.7518 14.3737 11.0735C13.5971 11.3952 12.9333 11.9399 12.4663 12.6388C11.9993 13.3377 11.7501 14.1594 11.7501 15C11.7501 16.1271 12.1979 17.2081 12.9949 18.0052C13.7919 18.8022 14.8729 19.25 16.0001 19.25ZM16.0001 27.25C18.5733 27.2476 21.0684 26.3655 23.0713 24.75C22.3379 23.53 21.3013 22.5206 20.0624 21.8198C18.8234 21.119 17.4242 20.7507 16.0007 20.7507C14.5773 20.7507 13.1781 21.119 11.9391 21.8198C10.7001 22.5206 9.6635 23.53 8.93009 24.75C10.9294 26.3711 13.4261 27.254 16.0001 27.25Z" fill="white"/>
</svg>
