<svg width="32" height="32" viewBox="0 0 32 32" fill="none" xmlns="http://www.w3.org/2000/svg">
<path d="M17.375 19.7813C18.9999 18.9167 20.2891 17.5337 21.0374 15.8521C21.7857 14.1705 21.9502 12.2869 21.5047 10.501C21.0592 8.71519 20.0293 7.1296 18.5788 5.99651C17.1283 4.86343 15.3406 4.24792 13.5 4.24792C11.6594 4.24792 9.87169 4.86343 8.42121 5.99651C6.97074 7.1296 5.94083 8.71519 5.49532 10.501C5.04981 12.2869 5.2143 14.1705 5.96261 15.8521C6.71093 17.5337 8.00008 18.9167 9.62501 19.7813C6.87501 20.56 4.39001 22.1763 2.42376 24.5175C2.30276 24.6705 2.2461 24.8645 2.2658 25.0585C2.28549 25.2526 2.37999 25.4313 2.52925 25.5568C2.67851 25.6823 2.87079 25.7448 3.06532 25.7309C3.25985 25.717 3.44132 25.6279 3.57126 25.4825C6.13751 22.43 9.66376 20.75 13.5 20.75C17.3363 20.75 20.8625 22.43 23.4263 25.4825C23.4885 25.5612 23.566 25.6267 23.654 25.6749C23.742 25.7231 23.8389 25.7532 23.9387 25.7634C24.0386 25.7735 24.1395 25.7635 24.2354 25.7339C24.3313 25.7043 24.4204 25.6558 24.4972 25.5912C24.574 25.5266 24.6371 25.4472 24.6827 25.3578C24.7283 25.2684 24.7554 25.1707 24.7626 25.0706C24.7697 24.9704 24.7567 24.8699 24.7242 24.7749C24.6918 24.6799 24.6406 24.5924 24.5738 24.5175C22.6075 22.1763 20.125 20.56 17.375 19.7813ZM6.75001 12.5C6.75001 11.165 7.14589 9.85994 7.88759 8.7499C8.62929 7.63987 9.68349 6.77471 10.9169 6.26382C12.1503 5.75292 13.5075 5.61925 14.8169 5.8797C16.1262 6.14015 17.329 6.78303 18.273 7.72703C19.217 8.67104 19.8599 9.87377 20.1203 11.1831C20.3808 12.4925 20.2471 13.8497 19.7362 15.0831C19.2253 16.3165 18.3601 17.3707 17.2501 18.1124C16.1401 18.8541 14.835 19.25 13.5 19.25C11.7104 19.248 9.99467 18.5362 8.72923 17.2708C7.46379 16.0053 6.75199 14.2896 6.75001 12.5ZM31.4063 18.1L30.6663 17.6738C30.778 17.2315 30.778 16.7685 30.6663 16.3263L31.4063 15.9C31.5786 15.8005 31.7045 15.6367 31.756 15.4445C31.8076 15.2522 31.7807 15.0474 31.6813 14.875C31.5818 14.7026 31.4179 14.5768 31.2257 14.5252C31.0335 14.4736 30.8286 14.5005 30.6563 14.6L29.915 15.0288C29.5885 14.7111 29.1881 14.4796 28.75 14.355V13.5C28.75 13.3011 28.671 13.1103 28.5303 12.9697C28.3897 12.829 28.1989 12.75 28 12.75C27.8011 12.75 27.6103 12.829 27.4697 12.9697C27.329 13.1103 27.25 13.3011 27.25 13.5V14.355C26.8119 14.4796 26.4115 14.7111 26.085 15.0288L25.3438 14.6C25.1714 14.5005 24.9665 14.4736 24.7743 14.5252C24.5821 14.5768 24.4182 14.7026 24.3188 14.875C24.2193 15.0474 24.1924 15.2522 24.244 15.4445C24.2955 15.6367 24.4214 15.8005 24.5938 15.9L25.3338 16.3263C25.222 16.7685 25.222 17.2315 25.3338 17.6738L24.5938 18.1C24.4214 18.1995 24.2955 18.3633 24.244 18.5555C24.1924 18.7478 24.2193 18.9526 24.3188 19.125C24.4182 19.2974 24.5821 19.4232 24.7743 19.4748C24.9665 19.5264 25.1714 19.4995 25.3438 19.4L26.085 18.9713C26.4115 19.2889 26.8119 19.5204 27.25 19.645V20.5C27.25 20.6989 27.329 20.8897 27.4697 21.0303C27.6103 21.171 27.8011 21.25 28 21.25C28.1989 21.25 28.3897 21.171 28.5303 21.0303C28.671 20.8897 28.75 20.6989 28.75 20.5V19.645C29.1881 19.5204 29.5885 19.2889 29.915 18.9713L30.6563 19.4C30.8286 19.4995 31.0335 19.5264 31.2257 19.4748C31.4179 19.4232 31.5818 19.2974 31.6813 19.125C31.7807 18.9526 31.8076 18.7478 31.756 18.5555C31.7045 18.3633 31.5786 18.1995 31.4063 18.1ZM28 18.25C27.7528 18.25 27.5111 18.1767 27.3055 18.0393C27.1 17.902 26.9398 17.7068 26.8452 17.4784C26.7505 17.2499 26.7258 16.9986 26.774 16.7561C26.8223 16.5137 26.9413 16.2909 27.1161 16.1161C27.2909 15.9413 27.5137 15.8223 27.7561 15.774C27.9986 15.7258 28.25 15.7505 28.4784 15.8452C28.7068 15.9398 28.902 16.1 29.0393 16.3055C29.1767 16.5111 29.25 16.7528 29.25 17C29.25 17.3315 29.1183 17.6495 28.8839 17.8839C28.6495 18.1183 28.3315 18.25 28 18.25Z" fill="white"/>
</svg>
