<svg width="32" height="32" viewBox="0 0 32 32" fill="none" xmlns="http://www.w3.org/2000/svg">
<path d="M17.375 19.7813C18.9999 18.9167 20.2891 17.5337 21.0374 15.8521C21.7857 14.1705 21.9502 12.2869 21.5047 10.501C21.0592 8.71519 20.0293 7.1296 18.5788 5.99651C17.1283 4.86343 15.3406 4.24792 13.5 4.24792C11.6594 4.24792 9.87169 4.86343 8.42121 5.99651C6.97074 7.1296 5.94083 8.71519 5.49532 10.501C5.04981 12.2869 5.2143 14.1705 5.96261 15.8521C6.71093 17.5337 8.00008 18.9167 9.62501 19.7813C6.87501 20.56 4.39001 22.1763 2.42376 24.5175C2.30276 24.6705 2.2461 24.8645 2.2658 25.0585C2.28549 25.2526 2.37999 25.4313 2.52925 25.5568C2.67851 25.6823 2.87079 25.7448 3.06532 25.7309C3.25985 25.717 3.44132 25.6279 3.57126 25.4825C6.13876 22.43 9.66376 20.75 13.5 20.75C17.3363 20.75 20.8625 22.43 23.4263 25.4825C23.4885 25.5612 23.566 25.6267 23.654 25.6749C23.742 25.7231 23.8389 25.7532 23.9387 25.7634C24.0386 25.7735 24.1395 25.7635 24.2354 25.7339C24.3313 25.7043 24.4204 25.6558 24.4972 25.5912C24.574 25.5266 24.6371 25.4472 24.6827 25.3578C24.7283 25.2684 24.7554 25.1707 24.7626 25.0706C24.7697 24.9704 24.7567 24.8699 24.7242 24.7749C24.6918 24.6799 24.6406 24.5924 24.5738 24.5175C22.6075 22.1763 20.125 20.56 17.375 19.7813ZM6.75001 12.5C6.75001 11.165 7.14589 9.85994 7.88759 8.7499C8.62929 7.63987 9.68349 6.77471 10.9169 6.26382C12.1503 5.75292 13.5075 5.61925 14.8169 5.8797C16.1262 6.14015 17.329 6.78303 18.273 7.72703C19.217 8.67104 19.8599 9.87377 20.1203 11.1831C20.3808 12.4925 20.2471 13.8497 19.7362 15.0831C19.2253 16.3165 18.3601 17.3707 17.2501 18.1124C16.1401 18.8541 14.835 19.25 13.5 19.25C11.7104 19.248 9.99467 18.5362 8.72923 17.2708C7.46379 16.0053 6.75199 14.2896 6.75001 12.5ZM31.53 16.53L27.53 20.53C27.3894 20.6705 27.1988 20.7493 27 20.7493C26.8013 20.7493 26.6106 20.6705 26.47 20.53L24.47 18.53C24.3375 18.3878 24.2654 18.1998 24.2688 18.0055C24.2723 17.8112 24.351 17.6258 24.4884 17.4884C24.6258 17.351 24.8112 17.2723 25.0055 17.2688C25.1998 17.2654 25.3878 17.3375 25.53 17.47L27 18.9388L30.47 15.47C30.5387 15.3963 30.6215 15.3372 30.7135 15.2962C30.8055 15.2552 30.9048 15.2332 31.0055 15.2314C31.1062 15.2296 31.2062 15.2482 31.2996 15.2859C31.393 15.3236 31.4778 15.3797 31.549 15.451C31.6203 15.5222 31.6764 15.607 31.7141 15.7004C31.7519 15.7938 31.7704 15.8938 31.7686 15.9945C31.7668 16.0952 31.7448 16.1945 31.7038 16.2865C31.6628 16.3785 31.6037 16.4613 31.53 16.53Z" fill="white"/>
</svg>
