<svg width="32" height="32" viewBox="0 0 32 32" fill="none" xmlns="http://www.w3.org/2000/svg">
<path d="M21.25 7.00006C21.25 6.80115 21.329 6.61038 21.4697 6.46973C21.6103 6.32908 21.8011 6.25006 22 6.25006H28C28.1989 6.25006 28.3897 6.32908 28.5303 6.46973C28.671 6.61038 28.75 6.80115 28.75 7.00006C28.75 7.19897 28.671 7.38974 28.5303 7.53039C28.3897 7.67104 28.1989 7.75006 28 7.75006H22C21.8011 7.75006 21.6103 7.67104 21.4697 7.53039C21.329 7.38974 21.25 7.19897 21.25 7.00006ZM28.0238 11.7501C28.9533 14.3852 28.9905 17.2528 28.1297 19.9112C27.2689 22.5696 25.5578 24.8711 23.2601 26.4612C20.9624 28.0513 18.2056 28.8418 15.4144 28.7108C12.6232 28.5797 9.95258 27.5345 7.81394 25.7362C5.6753 23.9378 4.18735 21.4861 3.57936 18.7588C2.97136 16.0315 3.27706 13.1799 4.44935 10.6435C5.62164 8.10699 7.59547 6.02639 10.0667 4.72223C12.5379 3.41806 15.3695 2.9627 18.125 3.42631C18.2236 3.44107 18.3182 3.47534 18.4034 3.5271C18.4886 3.57887 18.5626 3.6471 18.6211 3.7278C18.6796 3.8085 18.7215 3.90005 18.7442 3.99711C18.7669 4.09417 18.7701 4.19478 18.7534 4.29306C18.7368 4.39135 18.7008 4.48534 18.6474 4.56953C18.5941 4.65373 18.5245 4.72644 18.4427 4.78342C18.3609 4.8404 18.2685 4.88051 18.1711 4.90139C18.0736 4.92228 17.973 4.92353 17.875 4.90506C17.2553 4.80208 16.6282 4.75024 16 4.75006C13.8041 4.7489 11.6559 5.39078 9.82059 6.59647C7.98528 7.80215 6.5432 9.51887 5.67233 11.5347C4.80147 13.5506 4.53994 15.7773 4.92005 17.9401C5.30015 20.1028 6.30524 22.107 7.81125 23.7051C8.98967 21.8727 10.7511 20.4909 12.8113 19.7826C11.784 19.0983 11.0041 18.1017 10.587 16.94C10.1699 15.7783 10.1377 14.5132 10.4951 13.3318C10.8526 12.1504 11.5807 11.1154 12.5718 10.3797C13.5629 9.6441 14.7645 9.24692 15.9988 9.24692C17.2331 9.24692 18.4346 9.6441 19.4257 10.3797C20.4169 11.1154 21.145 12.1504 21.5024 13.3318C21.8598 14.5132 21.8276 15.7783 21.4105 16.94C20.9934 18.1017 20.2135 19.0983 19.1863 19.7826C21.2464 20.4909 23.0078 21.8727 24.1863 23.7051C25.6028 22.2021 26.5783 20.3383 27.0058 18.3177C27.4333 16.2972 27.2964 14.1979 26.61 12.2501C26.5744 12.1566 26.5578 12.057 26.5613 11.957C26.5648 11.8571 26.5882 11.7588 26.6302 11.668C26.6722 11.5773 26.7319 11.4958 26.8059 11.4285C26.8798 11.3611 26.9665 11.3093 27.0608 11.2759C27.1551 11.2426 27.2551 11.2284 27.3549 11.2343C27.4548 11.2402 27.5524 11.266 27.6421 11.3101C27.7319 11.3543 27.8119 11.416 27.8774 11.4915C27.9429 11.5671 27.9927 11.655 28.0238 11.7501ZM16 19.2501C16.8406 19.2501 17.6623 19.0008 18.3612 18.5338C19.0601 18.0668 19.6048 17.403 19.9265 16.6265C20.2482 15.8499 20.3323 14.9953 20.1683 14.1709C20.0044 13.3465 19.5996 12.5892 19.0052 11.9949C18.4108 11.4005 17.6536 10.9957 16.8291 10.8317C16.0047 10.6677 15.1502 10.7519 14.3736 11.0736C13.597 11.3952 12.9333 11.94 12.4663 12.6389C11.9993 13.3378 11.75 14.1595 11.75 15.0001C11.75 16.1272 12.1978 17.2082 12.9948 18.0053C13.7918 18.8023 14.8728 19.2501 16 19.2501ZM16 27.2501C18.574 27.2541 21.0707 26.3712 23.07 24.7501C22.3365 23.5304 21.3 22.5212 20.0611 21.8206C18.8223 21.12 17.4232 20.7518 16 20.7518C14.5768 20.7518 13.1777 21.12 11.9389 21.8206C10.7 22.5212 9.66349 23.5304 8.93001 24.7501C10.9293 26.3712 13.426 27.2541 16 27.2501Z" fill="white"/>
</svg>
