<svg width="32" height="32" viewBox="0 0 32 32" fill="none" xmlns="http://www.w3.org/2000/svg">
<path d="M31.7499 17C31.7499 17.1989 31.6709 17.3897 31.5303 17.5303C31.3896 17.671 31.1989 17.75 30.9999 17.75H24.9999C24.801 17.75 24.6103 17.671 24.4696 17.5303C24.329 17.3897 24.2499 17.1989 24.2499 17C24.2499 16.8011 24.329 16.6103 24.4696 16.4696C24.6103 16.329 24.801 16.25 24.9999 16.25H30.9999C31.1989 16.25 31.3896 16.329 31.5303 16.4696C31.6709 16.6103 31.7499 16.8011 31.7499 17ZM24.5737 24.5175C24.6406 24.5923 24.6917 24.6799 24.7242 24.7749C24.7566 24.8699 24.7696 24.9704 24.7625 25.0705C24.7554 25.1707 24.7282 25.2683 24.6826 25.3578C24.637 25.4472 24.5739 25.5266 24.4971 25.5912C24.4203 25.6558 24.3313 25.7043 24.2354 25.7339C24.1394 25.7635 24.0385 25.7735 23.9387 25.7633C23.8388 25.7532 23.742 25.7231 23.654 25.6749C23.5659 25.6266 23.4885 25.5612 23.4262 25.4825C20.8624 22.4312 17.3362 20.75 13.4999 20.75C9.6637 20.75 6.1387 22.4312 3.5737 25.4825C3.44376 25.6279 3.26229 25.717 3.06776 25.7309C2.87323 25.7448 2.68095 25.6823 2.53169 25.5568C2.38243 25.4313 2.28793 25.2525 2.26824 25.0585C2.24855 24.8645 2.3052 24.6704 2.4262 24.5175C4.39245 22.1762 6.87495 20.56 9.62495 19.7825C8.00002 18.918 6.71087 17.5349 5.96255 15.8533C5.21424 14.1717 5.04976 12.2881 5.49526 10.5023C5.94077 8.71641 6.97068 7.13082 8.42115 5.99773C9.87163 4.86465 11.6594 4.24915 13.4999 4.24915C15.3405 4.24915 17.1283 4.86465 18.5787 5.99773C20.0292 7.13082 21.0591 8.71641 21.5046 10.5023C21.9501 12.2881 21.7857 14.1717 21.0373 15.8533C20.289 17.5349 18.9999 18.918 17.3749 19.7825C20.1249 20.56 22.6074 22.1762 24.5737 24.5175ZM13.4999 19.25C14.835 19.25 16.14 18.8541 17.25 18.1124C18.3601 17.3707 19.2252 16.3165 19.7361 15.0831C20.247 13.8497 20.3807 12.4925 20.1202 11.1831C19.8598 9.87374 19.2169 8.67101 18.2729 7.727C17.3289 6.783 16.1262 6.14012 14.8168 5.87967C13.5074 5.61922 12.1502 5.7529 10.9168 6.26379C9.68343 6.77468 8.62923 7.63984 7.88753 8.74988C7.14583 9.85991 6.74995 11.165 6.74995 12.5C6.75193 14.2896 7.46373 16.0053 8.72917 17.2708C9.99461 18.5362 11.7103 19.248 13.4999 19.25Z" fill="white"/>
</svg>
