<svg width="32" height="32" viewBox="0 0 32 32" fill="none" xmlns="http://www.w3.org/2000/svg">
<path d="M31.7499 17C31.7499 17.1989 31.6709 17.3897 31.5303 17.5303C31.3896 17.671 31.1989 17.75 30.9999 17.75H28.7499V20C28.7499 20.1989 28.6709 20.3897 28.5303 20.5303C28.3896 20.671 28.1989 20.75 27.9999 20.75C27.801 20.75 27.6103 20.671 27.4696 20.5303C27.329 20.3897 27.2499 20.1989 27.2499 20V17.75H24.9999C24.801 17.75 24.6103 17.671 24.4696 17.5303C24.329 17.3897 24.2499 17.1989 24.2499 17C24.2499 16.8011 24.329 16.6103 24.4696 16.4697C24.6103 16.329 24.801 16.25 24.9999 16.25H27.2499V14C27.2499 13.8011 27.329 13.6103 27.4696 13.4697C27.6103 13.329 27.801 13.25 27.9999 13.25C28.1989 13.25 28.3896 13.329 28.5303 13.4697C28.6709 13.6103 28.7499 13.8011 28.7499 14V16.25H30.9999C31.1989 16.25 31.3896 16.329 31.5303 16.4697C31.6709 16.6103 31.7499 16.8011 31.7499 17ZM24.5737 24.5175C24.6406 24.5924 24.6917 24.6799 24.7242 24.7749C24.7566 24.8699 24.7696 24.9704 24.7625 25.0706C24.7554 25.1707 24.7282 25.2684 24.6826 25.3578C24.637 25.4472 24.5739 25.5266 24.4971 25.5912C24.4203 25.6558 24.3313 25.7043 24.2354 25.7339C24.1394 25.7635 24.0385 25.7735 23.9387 25.7634C23.8388 25.7532 23.742 25.7231 23.654 25.6749C23.5659 25.6267 23.4885 25.5612 23.4262 25.4825C20.8624 22.4313 17.3362 20.75 13.4999 20.75C9.6637 20.75 6.1387 22.4313 3.5737 25.4825C3.44376 25.6279 3.26229 25.717 3.06776 25.7309C2.87323 25.7448 2.68095 25.6823 2.53169 25.5568C2.38243 25.4313 2.28793 25.2526 2.26824 25.0585C2.24855 24.8645 2.3052 24.6705 2.4262 24.5175C4.39245 22.1763 6.87495 20.56 9.62495 19.7813C8.00002 18.9167 6.71087 17.5337 5.96255 15.8521C5.21424 14.1705 5.04976 12.2869 5.49526 10.501C5.94077 8.71519 6.97068 7.1296 8.42115 5.99651C9.87163 4.86343 11.6594 4.24792 13.4999 4.24792C15.3405 4.24792 17.1283 4.86343 18.5787 5.99651C20.0292 7.1296 21.0591 8.71519 21.5046 10.501C21.9501 12.2869 21.7857 14.1705 21.0373 15.8521C20.289 17.5337 18.9999 18.9167 17.3749 19.7813C20.1249 20.56 22.6074 22.1763 24.5737 24.5175ZM13.4999 19.25C14.835 19.25 16.14 18.8541 17.25 18.1124C18.3601 17.3707 19.2252 16.3165 19.7361 15.0831C20.247 13.8497 20.3807 12.4925 20.1202 11.1831C19.8598 9.87377 19.2169 8.67104 18.2729 7.72703C17.3289 6.78303 16.1262 6.14015 14.8168 5.8797C13.5074 5.61925 12.1502 5.75292 10.9168 6.26382C9.68343 6.77471 8.62923 7.63987 7.88753 8.7499C7.14583 9.85994 6.74995 11.165 6.74995 12.5C6.75193 14.2896 7.46373 16.0053 8.72917 17.2708C9.99461 18.5362 11.7103 19.248 13.4999 19.25Z" fill="white"/>
</svg>
