<svg width="32" height="32" viewBox="0 0 32 32" fill="none" xmlns="http://www.w3.org/2000/svg">
<path d="M21.25 7.00002C21.25 6.80111 21.3291 6.61034 21.4697 6.46969C21.6104 6.32904 21.8011 6.25002 22 6.25002H24.25V4.00002C24.25 3.80111 24.3291 3.61034 24.4697 3.46969C24.6104 3.32904 24.8011 3.25002 25 3.25002C25.1989 3.25002 25.3897 3.32904 25.5304 3.46969C25.671 3.61034 25.75 3.80111 25.75 4.00002V6.25002H28C28.1989 6.25002 28.3897 6.32904 28.5304 6.46969C28.671 6.61034 28.75 6.80111 28.75 7.00002C28.75 7.19893 28.671 7.3897 28.5304 7.53035C28.3897 7.671 28.1989 7.75002 28 7.75002H25.75V10C25.75 10.1989 25.671 10.3897 25.5304 10.5303C25.3897 10.671 25.1989 10.75 25 10.75C24.8011 10.75 24.6104 10.671 24.4697 10.5303C24.3291 10.3897 24.25 10.1989 24.25 10V7.75002H22C21.8011 7.75002 21.6104 7.671 21.4697 7.53035C21.3291 7.3897 21.25 7.19893 21.25 7.00002ZM28.5738 13.875C29.0216 16.5379 28.6116 19.2742 27.4029 21.6888C26.1942 24.1035 24.2495 26.0716 21.8494 27.3089C19.4493 28.5462 16.7181 28.9888 14.0501 28.5728C11.382 28.1567 8.91526 26.9035 7.00589 24.9942C5.09651 23.0848 3.84333 20.618 3.42727 17.95C3.01121 15.282 3.4538 12.5508 4.69115 10.1507C5.92849 7.7506 7.89656 5.80583 10.3112 4.59716C12.7259 3.38849 15.4622 2.97846 18.125 3.42627C18.2236 3.44103 18.3183 3.4753 18.4034 3.52706C18.4886 3.57883 18.5626 3.64705 18.6212 3.72775C18.6797 3.80845 18.7215 3.90001 18.7442 3.99707C18.7669 4.09412 18.7701 4.19474 18.7535 4.29302C18.7369 4.39131 18.7008 4.48529 18.6474 4.56949C18.5941 4.65368 18.5245 4.7264 18.4427 4.78338C18.3609 4.84036 18.2686 4.88047 18.1711 4.90135C18.0736 4.92224 17.973 4.92348 17.875 4.90502C17.2553 4.80204 16.6282 4.7502 16 4.75002C13.8041 4.74886 11.6559 5.39074 9.82062 6.59643C7.98531 7.80211 6.54322 9.51883 5.67236 11.5347C4.80149 13.5505 4.53997 15.7772 4.92008 17.94C5.30018 20.1028 6.30527 22.1069 7.81128 23.705C8.9897 21.8727 10.7511 20.4909 12.8113 19.7825C11.784 19.0983 11.0041 18.1017 10.587 16.94C10.1699 15.7783 10.1377 14.5132 10.4952 13.3318C10.8526 12.1504 11.5807 11.1153 12.5718 10.3797C13.5629 9.64406 14.7645 9.24688 15.9988 9.24688C17.2331 9.24688 18.4346 9.64406 19.4258 10.3797C20.4169 11.1153 21.145 12.1504 21.5024 13.3318C21.8598 14.5132 21.8276 15.7783 21.4105 16.94C20.9934 18.1017 20.2136 19.0983 19.1863 19.7825C21.2465 20.4909 23.0079 21.8727 24.1863 23.705C26.1551 21.6229 27.2515 18.8656 27.25 16C27.2498 15.3718 27.198 14.7447 27.095 14.125C27.0766 14.0271 27.0778 13.9264 27.0987 13.8289C27.1196 13.7315 27.1597 13.6391 27.2167 13.5574C27.2737 13.4756 27.3464 13.406 27.4306 13.3526C27.5148 13.2992 27.6087 13.2632 27.707 13.2466C27.8053 13.23 27.9059 13.2331 28.003 13.2558C28.1 13.2785 28.1916 13.3204 28.2723 13.3789C28.353 13.4374 28.4212 13.5114 28.473 13.5966C28.5248 13.6818 28.559 13.7764 28.5738 13.875ZM16 19.25C16.8406 19.25 17.6623 19.0008 18.3612 18.5338C19.0601 18.0668 19.6048 17.403 19.9265 16.6264C20.2482 15.8498 20.3324 14.9953 20.1684 14.1709C20.0044 13.3465 19.5996 12.5892 19.0052 11.9948C18.4109 11.4004 17.6536 10.9957 16.8292 10.8317C16.0047 10.6677 15.1502 10.7519 14.3736 11.0735C13.597 11.3952 12.9333 11.9399 12.4663 12.6388C11.9993 13.3378 11.75 14.1594 11.75 15C11.75 16.1272 12.1978 17.2082 12.9948 18.0052C13.7919 18.8023 14.8729 19.25 16 19.25ZM16 27.25C18.574 27.254 21.0707 26.3712 23.07 24.75C22.3365 23.5303 21.3 22.5212 20.0611 21.8206C18.8223 21.12 17.4233 20.7518 16 20.7518C14.5768 20.7518 13.1778 21.12 11.9389 21.8206C10.7001 22.5212 9.66352 23.5303 8.93003 24.75C10.9293 26.3712 13.4261 27.254 16 27.25Z" fill="white"/>
</svg>
