<svg width="32" height="32" viewBox="0 0 32 32" fill="none" xmlns="http://www.w3.org/2000/svg">
<path d="M19.2501 10C19.2501 9.80112 19.3291 9.61035 19.4697 9.4697C19.6104 9.32905 19.8012 9.25003 20.0001 9.25003H31.0001C31.199 9.25003 31.3897 9.32905 31.5304 9.4697C31.671 9.61035 31.7501 9.80112 31.7501 10C31.7501 10.1989 31.671 10.3897 31.5304 10.5304C31.3897 10.671 31.199 10.75 31.0001 10.75H20.0001C19.8012 10.75 19.6104 10.671 19.4697 10.5304C19.3291 10.3897 19.2501 10.1989 19.2501 10ZM31.0001 15.25H20.0001C19.8012 15.25 19.6104 15.329 19.4697 15.4697C19.3291 15.6104 19.2501 15.8011 19.2501 16C19.2501 16.1989 19.3291 16.3897 19.4697 16.5304C19.6104 16.671 19.8012 16.75 20.0001 16.75H31.0001C31.199 16.75 31.3897 16.671 31.5304 16.5304C31.671 16.3897 31.7501 16.1989 31.7501 16C31.7501 15.8011 31.671 15.6104 31.5304 15.4697C31.3897 15.329 31.199 15.25 31.0001 15.25ZM31.0001 21.25H23.0001C22.8012 21.25 22.6104 21.329 22.4697 21.4697C22.3291 21.6104 22.2501 21.8011 22.2501 22C22.2501 22.1989 22.3291 22.3897 22.4697 22.5304C22.6104 22.671 22.8012 22.75 23.0001 22.75H31.0001C31.199 22.75 31.3897 22.671 31.5304 22.5304C31.671 22.3897 31.7501 22.1989 31.7501 22C31.7501 21.8011 31.671 21.6104 31.5304 21.4697C31.3897 21.329 31.199 21.25 31.0001 21.25ZM18.7263 23.8125C18.7509 23.9079 18.7565 24.0072 18.7428 24.1047C18.729 24.2023 18.6962 24.2961 18.6462 24.381C18.5962 24.4658 18.5299 24.54 18.4512 24.5992C18.3725 24.6585 18.2829 24.7017 18.1876 24.7263C18.0922 24.7509 17.9929 24.7565 17.8954 24.7428C17.7978 24.729 17.704 24.6962 17.6191 24.6461C17.5343 24.5961 17.4601 24.5299 17.4008 24.4512C17.3416 24.3725 17.2984 24.2829 17.2738 24.1875C16.4626 21.0363 13.4038 18.75 10.0001 18.75C6.59631 18.75 3.53756 21.0363 2.72631 24.1863C2.70169 24.2817 2.65852 24.3712 2.59928 24.4499C2.54003 24.5286 2.46587 24.5949 2.38102 24.6449C2.29617 24.6949 2.2023 24.7278 2.10476 24.7415C2.00722 24.7552 1.90794 24.7497 1.81256 24.725C1.71719 24.7004 1.6276 24.6572 1.54891 24.598C1.47022 24.5387 1.40397 24.4646 1.35394 24.3797C1.30392 24.2949 1.27109 24.201 1.25734 24.1035C1.24359 24.0059 1.24919 23.9067 1.27381 23.8113C1.99131 21.0263 4.14881 18.8025 6.85756 17.8113C5.82005 17.1342 5.02897 16.1401 4.60212 14.9771C4.17527 13.814 4.13549 12.5442 4.48869 11.3567C4.84189 10.1692 5.56919 9.12754 6.56228 8.38683C7.55538 7.64612 8.76116 7.24597 10.0001 7.24597C11.239 7.24597 12.4447 7.64612 13.4378 8.38683C14.4309 9.12754 15.1582 10.1692 15.5114 11.3567C15.8646 12.5442 15.8249 13.814 15.398 14.9771C14.9712 16.1401 14.1801 17.1342 13.1426 17.8113C15.8488 18.8038 18.0101 21.0275 18.7263 23.8125ZM10.0001 17.25C10.8406 17.25 11.6623 17.0008 12.3612 16.5338C13.0601 16.0668 13.6049 15.403 13.9266 14.6264C14.2482 13.8498 14.3324 12.9953 14.1684 12.1709C14.0044 11.3465 13.5996 10.5892 13.0053 9.99483C12.4109 9.40045 11.6536 8.99568 10.8292 8.83169C10.0048 8.66771 9.15024 8.75187 8.37366 9.07354C7.59707 9.39521 6.93331 9.93995 6.46632 10.6389C5.99932 11.3378 5.75006 12.1595 5.75006 13C5.75006 14.1272 6.19783 15.2082 6.99486 16.0052C7.79189 16.8023 8.87289 17.25 10.0001 17.25Z" fill="white"/>
</svg>
