<svg width="32" height="32" viewBox="0 0 32 32" fill="none" xmlns="http://www.w3.org/2000/svg">
<path d="M17.375 20.7825C18.9999 19.918 20.2891 18.5349 21.0374 16.8533C21.7857 15.1717 21.9502 13.2881 21.5047 11.5023C21.0592 9.71641 20.0293 8.13082 18.5788 6.99773C17.1283 5.86465 15.3406 5.24915 13.5 5.24915C11.6594 5.24915 9.87169 5.86465 8.42121 6.99773C6.97074 8.13082 5.94083 9.71641 5.49532 11.5023C5.04981 13.2881 5.2143 15.1717 5.96261 16.8533C6.71093 18.5349 8.00008 19.918 9.62501 20.7825C6.87501 21.56 4.39001 23.1762 2.42376 25.5175C2.30276 25.6704 2.2461 25.8645 2.2658 26.0585C2.28549 26.2525 2.37999 26.4313 2.52925 26.5568C2.67851 26.6823 2.87079 26.7448 3.06532 26.7309C3.25985 26.717 3.44132 26.6279 3.57126 26.4825C6.13876 23.4312 9.66376 21.75 13.5 21.75C17.3363 21.75 20.8625 23.4312 23.4263 26.4825C23.4885 26.5612 23.566 26.6266 23.654 26.6749C23.742 26.7231 23.8389 26.7532 23.9387 26.7633C24.0386 26.7735 24.1395 26.7635 24.2354 26.7339C24.3313 26.7043 24.4204 26.6558 24.4972 26.5912C24.574 26.5266 24.6371 26.4472 24.6827 26.3578C24.7283 26.2683 24.7554 26.1707 24.7626 26.0705C24.7697 25.9704 24.7567 25.8699 24.7242 25.7749C24.6918 25.6799 24.6406 25.5923 24.5738 25.5175C22.6075 23.1762 20.125 21.56 17.375 20.7825ZM6.75001 13.5C6.75001 12.165 7.14589 10.8599 7.88759 9.74988C8.62929 8.63984 9.68349 7.77468 10.9169 7.26379C12.1503 6.7529 13.5075 6.61922 14.8169 6.87967C16.1262 7.14012 17.329 7.783 18.273 8.727C19.217 9.67101 19.8599 10.8737 20.1203 12.1831C20.3808 13.4925 20.2471 14.8497 19.7362 16.0831C19.2253 17.3165 18.3601 18.3707 17.2501 19.1124C16.1401 19.8541 14.835 20.25 13.5 20.25C11.7104 20.248 9.99467 19.5362 8.72923 18.2708C7.46379 17.0053 6.75199 15.2896 6.75001 13.5ZM25.69 8.29872C26.3895 9.94357 26.75 11.7126 26.75 13.5C26.75 15.2874 26.3895 17.0564 25.69 18.7012C25.6027 18.869 25.4552 18.9976 25.2771 19.0612C25.099 19.1249 24.9034 19.1189 24.7295 19.0444C24.5556 18.97 24.4163 18.8326 24.3395 18.6598C24.2626 18.4869 24.2539 18.2915 24.315 18.1125C24.9353 16.6538 25.255 15.085 25.255 13.5C25.255 11.9149 24.9353 10.3461 24.315 8.88747C24.2539 8.70849 24.2626 8.51301 24.3395 8.3402C24.4163 8.16738 24.5556 8.02999 24.7295 7.95554C24.9034 7.88109 25.099 7.87509 25.2771 7.93873C25.4552 8.00236 25.6027 8.13095 25.69 8.29872ZM30.75 13.5C30.7546 15.8364 30.2816 18.1492 29.36 20.2962C29.2739 20.4667 29.126 20.5979 28.9464 20.6631C28.7668 20.7283 28.5692 20.7225 28.3938 20.6469C28.2183 20.5713 28.0784 20.4316 28.0024 20.2563C27.9264 20.0811 27.9202 19.8834 27.985 19.7037C28.8222 17.7426 29.2538 15.6323 29.2538 13.5C29.2538 11.3676 28.8222 9.25735 27.985 7.29622C27.9202 7.11653 27.9264 6.91888 28.0024 6.74362C28.0784 6.56835 28.2183 6.42867 28.3938 6.35308C28.5692 6.27749 28.7668 6.27168 28.9464 6.33684C29.126 6.402 29.2739 6.53322 29.36 6.70372C30.2816 8.85076 30.7546 11.1635 30.75 13.5Z" fill="white"/>
</svg>
