<svg width="32" height="32" viewBox="0 0 32 32" fill="none" xmlns="http://www.w3.org/2000/svg">
<path d="M12.2738 4.56752C12.2492 4.47214 12.2436 4.37285 12.2573 4.27532C12.2711 4.17778 12.3039 4.0839 12.3539 3.99905C12.404 3.9142 12.4702 3.84003 12.5489 3.78079C12.6276 3.72154 12.7172 3.67838 12.8126 3.65377C14.9033 3.11395 17.0969 3.11395 19.1876 3.65377C19.2862 3.67528 19.3794 3.71646 19.4617 3.77483C19.5439 3.83321 19.6136 3.9076 19.6665 3.99353C19.7193 4.07946 19.7543 4.17517 19.7693 4.27494C19.7843 4.3747 19.7791 4.47648 19.7538 4.57416C19.7286 4.67184 19.6839 4.76342 19.6224 4.84343C19.561 4.92344 19.484 4.99022 19.3961 5.03978C19.3082 5.08935 19.2113 5.12067 19.111 5.13188C19.0107 5.14309 18.9092 5.13395 18.8126 5.10502C16.9678 4.6287 15.0323 4.6287 13.1876 5.10502C12.9951 5.1548 12.7908 5.12616 12.6195 5.02537C12.4481 4.92459 12.3238 4.75991 12.2738 4.56752ZM4.23633 13.51C4.30142 13.5283 4.36872 13.5376 4.43633 13.5375C4.60033 13.5374 4.75978 13.4836 4.89027 13.3843C5.02076 13.2849 5.1151 13.1456 5.15883 12.9875C5.67045 11.1548 6.63855 9.48182 7.97258 8.12502C8.04161 8.05476 8.09612 7.97159 8.13301 7.88027C8.16989 7.78895 8.18843 7.69125 8.18756 7.59276C8.18669 7.49427 8.16643 7.39692 8.12793 7.30626C8.08944 7.21561 8.03346 7.13342 7.96321 7.06439C7.89295 6.99537 7.80978 6.94085 7.71846 6.90397C7.62714 6.86708 7.52944 6.84855 7.43095 6.84942C7.33246 6.85029 7.23511 6.87055 7.14445 6.90904C7.0538 6.94754 6.97161 7.00351 6.90258 7.07377C5.39038 8.61257 4.29288 10.5096 3.71258 12.5875C3.68639 12.6825 3.67915 12.7817 3.6913 12.8794C3.70344 12.9772 3.73473 13.0716 3.78336 13.1573C3.832 13.2429 3.89704 13.3182 3.97476 13.3787C4.05248 13.4392 4.14136 13.4838 4.23633 13.51ZM18.8126 26.8938C16.9678 27.3701 15.0323 27.3701 13.1876 26.8938C13.0909 26.8648 12.9894 26.8557 12.8892 26.8669C12.7889 26.8781 12.6919 26.9094 12.6041 26.959C12.5162 27.0086 12.4392 27.0753 12.3777 27.1554C12.3163 27.2354 12.2716 27.3269 12.2463 27.4246C12.2211 27.5223 12.2158 27.6241 12.2308 27.7238C12.2458 27.8236 12.2808 27.9193 12.3337 28.0053C12.3866 28.0912 12.4562 28.1656 12.5385 28.2239C12.6208 28.2823 12.714 28.3235 12.8126 28.345C14.9033 28.8848 17.0969 28.8848 19.1876 28.345C19.3802 28.2953 19.5452 28.1711 19.6462 27.9997C19.7472 27.8284 19.7761 27.6239 19.7263 27.4313C19.6766 27.2387 19.5524 27.0737 19.381 26.9726C19.2097 26.8716 19.0052 26.8428 18.8126 26.8925V26.8938ZM26.8401 12.9888C26.8838 13.1468 26.9781 13.2862 27.1086 13.3855C27.2391 13.4849 27.3986 13.5387 27.5626 13.5388C27.6302 13.5388 27.6975 13.5296 27.7626 13.5113C27.9542 13.4581 28.1168 13.3311 28.2148 13.1582C28.3127 12.9852 28.338 12.7804 28.2851 12.5888C27.7078 10.5078 26.6115 8.60756 25.0988 7.06627C24.9578 6.93239 24.7703 6.85853 24.5758 6.86026C24.3814 6.86199 24.1952 6.93918 24.0566 7.07554C23.9179 7.2119 23.8377 7.39678 23.8327 7.59118C23.8278 7.78557 23.8986 7.97429 24.0301 8.11752C25.3635 9.47757 26.3303 11.1536 26.8401 12.9888ZM28.2876 19.4125C27.6389 21.752 26.3342 23.857 24.5276 25.4788C24.442 25.5559 24.3399 25.6124 24.229 25.6437C24.1181 25.675 24.0015 25.6803 23.8882 25.6593C23.775 25.6383 23.6681 25.5914 23.5758 25.5224C23.4836 25.4534 23.4085 25.364 23.3563 25.2613C22.6666 23.9028 21.6143 22.7618 20.3158 21.9648C19.0174 21.1679 17.5236 20.746 16.0001 20.746C14.4766 20.746 12.9828 21.1679 11.6843 21.9648C10.3859 22.7618 9.33352 23.9028 8.64383 25.2613C8.59158 25.364 8.51636 25.4533 8.42401 25.5222C8.33166 25.5911 8.22466 25.6379 8.11133 25.6588C8.06642 25.6673 8.02079 25.6714 7.97508 25.6713C7.7904 25.6708 7.61236 25.6023 7.47508 25.4788C5.6675 23.8574 4.36189 21.7523 3.71258 19.4125C3.68388 19.3169 3.67455 19.2166 3.68514 19.1173C3.69572 19.0181 3.726 18.922 3.77422 18.8346C3.82243 18.7472 3.88759 18.6703 3.9659 18.6084C4.04421 18.5465 4.13407 18.5009 4.23024 18.4742C4.32641 18.4475 4.42693 18.4403 4.52593 18.4529C4.62493 18.4656 4.72041 18.4978 4.80678 18.5478C4.89315 18.5979 4.96866 18.6646 5.0289 18.7442C5.08914 18.8238 5.13288 18.9146 5.15758 19.0113C5.64579 20.7697 6.55539 22.3825 7.80758 23.71C8.98517 21.8756 10.7466 20.4915 12.8076 19.7813C11.7803 19.097 11.0004 18.1004 10.5833 16.9387C10.1662 15.777 10.134 14.5119 10.4915 13.3305C10.8489 12.1491 11.577 11.1141 12.5681 10.3784C13.5592 9.64281 14.7608 9.24563 15.9951 9.24563C17.2294 9.24563 18.4309 9.64281 19.422 10.3784C20.4132 11.1141 21.1413 12.1491 21.4987 13.3305C21.8561 14.5119 21.8239 15.777 21.4068 16.9387C20.9897 18.1004 20.2099 19.097 19.1826 19.7813C21.2435 20.4915 23.005 21.8756 24.1826 23.71C25.435 22.3831 26.3446 20.7706 26.8326 19.0125C26.8565 18.915 26.8997 18.8234 26.9597 18.7429C27.0197 18.6624 27.0952 18.5948 27.1818 18.5441C27.2683 18.4933 27.3642 18.4605 27.4637 18.4474C27.5633 18.4344 27.6644 18.4415 27.7611 18.4683C27.8578 18.4951 27.9482 18.541 28.0268 18.6033C28.1055 18.6656 28.1708 18.7431 28.219 18.8312C28.2672 18.9192 28.2972 19.0161 28.3072 19.1159C28.3173 19.2158 28.3072 19.3166 28.2776 19.4125H28.2876ZM16.0001 19.25C16.8407 19.25 17.6623 19.0008 18.3613 18.5338C19.0602 18.0668 19.6049 17.403 19.9266 16.6264C20.2482 15.8498 20.3324 14.9953 20.1684 14.1709C20.0044 13.3465 19.5997 12.5892 19.0053 11.9948C18.4109 11.4004 17.6536 10.9957 16.8292 10.8317C16.0048 10.6677 15.1503 10.7519 14.3737 11.0735C13.5971 11.3952 12.9333 11.9399 12.4663 12.6388C11.9993 13.3378 11.7501 14.1594 11.7501 15C11.7501 16.1272 12.1978 17.2082 12.9949 18.0052C13.7919 18.8022 14.8729 19.25 16.0001 19.25Z" fill="white"/>
</svg>
