<svg width="32" height="32" viewBox="0 0 32 32" fill="none" xmlns="http://www.w3.org/2000/svg">
<path d="M27.7099 13.26C27.5139 13.293 27.339 13.4026 27.2236 13.5645C27.1083 13.7265 27.062 13.9276 27.0949 14.1237C27.198 14.7438 27.2498 15.3714 27.2499 16C27.2521 18.8652 26.1566 21.6224 24.1887 23.705C23.0103 21.8726 21.2489 20.4908 19.1887 19.7825C20.216 19.0982 20.9958 18.1016 21.4129 16.9399C21.83 15.7782 21.8622 14.5131 21.5048 13.3317C21.1474 12.1503 20.4193 11.1153 19.4282 10.3796C18.437 9.644 17.2355 9.24682 16.0012 9.24682C14.7669 9.24682 13.5653 9.644 12.5742 10.3796C11.5831 11.1153 10.855 12.1503 10.4976 13.3317C10.1401 14.5131 10.1723 15.7782 10.5894 16.9399C11.0066 18.1016 11.7864 19.0982 12.8137 19.7825C10.7535 20.4908 8.9921 21.8726 7.81369 23.705C6.30782 22.107 5.30278 20.1031 4.92259 17.9406C4.5424 15.778 4.80371 13.5515 5.67427 11.5358C6.54483 9.52001 7.98653 7.80327 9.82146 6.5974C11.6564 5.39152 13.8042 4.74929 15.9999 4.74996C16.6281 4.75009 17.2553 4.80193 17.8749 4.90496C17.9729 4.92343 18.0735 4.92218 18.171 4.90129C18.2685 4.88041 18.3608 4.8403 18.4426 4.78332C18.5244 4.72634 18.594 4.65363 18.6474 4.56943C18.7007 4.48524 18.7368 4.39125 18.7534 4.29296C18.77 4.19468 18.7668 4.09407 18.7441 3.99701C18.7214 3.89995 18.6796 3.8084 18.6211 3.7277C18.5626 3.647 18.4885 3.57877 18.4034 3.527C18.3182 3.47524 18.2235 3.44097 18.1249 3.42621C15.4621 2.97864 12.726 3.38886 10.3115 4.59765C7.89697 5.80643 5.92907 7.75123 4.69187 10.1513C3.45467 12.5513 3.01219 15.2825 3.42829 17.9504C3.84439 20.6183 5.09755 23.085 7.00686 24.9943C8.91617 26.9036 11.3828 28.1568 14.0508 28.5729C16.7187 28.989 19.4498 28.5465 21.8499 27.3093C24.2499 26.0721 26.1947 24.1042 27.4035 21.6897C28.6123 19.2752 29.0225 16.539 28.5749 13.8762C28.5587 13.7789 28.5235 13.6857 28.4712 13.6021C28.4189 13.5184 28.3507 13.4458 28.2703 13.3886C28.19 13.3314 28.0991 13.2905 28.0029 13.2685C27.9068 13.2464 27.8072 13.2435 27.7099 13.26ZM11.7499 15C11.7499 14.1594 11.9992 13.3377 12.4662 12.6388C12.9332 11.9399 13.5969 11.3951 14.3735 11.0735C15.1501 10.7518 16.0047 10.6676 16.8291 10.8316C17.6535 10.9956 18.4108 11.4004 19.0051 11.9948C19.5995 12.5891 20.0043 13.3464 20.1683 14.1708C20.3323 14.9952 20.2481 15.8498 19.9264 16.6264C19.6048 17.403 19.06 18.0667 18.3611 18.5337C17.6622 19.0007 16.8405 19.25 15.9999 19.25C14.8728 19.25 13.7918 18.8022 12.9947 18.0052C12.1977 17.2081 11.7499 16.1271 11.7499 15ZM8.92994 24.75C9.66343 23.5303 10.7 22.5211 11.9388 21.8205C13.1777 21.1199 14.5767 20.7517 15.9999 20.7517C17.4232 20.7517 18.8222 21.1199 20.0611 21.8205C21.2999 22.5211 22.3365 23.5303 23.0699 24.75C21.0704 26.3714 18.5743 27.2563 15.9999 27.2563C13.4256 27.2563 10.9295 26.3714 8.92994 24.75ZM29.5299 5.52996L25.5299 9.52996C25.3893 9.67041 25.1987 9.7493 24.9999 9.7493C24.8012 9.7493 24.6106 9.67041 24.4699 9.52996L22.4699 7.52996C22.3375 7.38779 22.2653 7.19974 22.2688 7.00544C22.2722 6.81114 22.3509 6.62575 22.4883 6.48834C22.6257 6.35093 22.8111 6.27221 23.0054 6.26879C23.1997 6.26536 23.3878 6.33748 23.5299 6.46996L24.9999 7.93871L28.4699 4.46996C28.6121 4.33748 28.8002 4.26536 28.9945 4.26879C29.1888 4.27221 29.3741 4.35093 29.5116 4.48834C29.649 4.62575 29.7277 4.81114 29.7311 5.00544C29.7345 5.19974 29.6624 5.38779 29.5299 5.52996Z" fill="white"/>
</svg>
