<svg width="32" height="32" viewBox="0 0 32 32" fill="none" xmlns="http://www.w3.org/2000/svg">
<path d="M28.4062 8.1L27.6662 7.67375C27.778 7.23153 27.778 6.76847 27.6662 6.32625L28.4062 5.9C28.5786 5.80054 28.7044 5.63668 28.756 5.44445C28.8076 5.25223 28.7807 5.04739 28.6812 4.875C28.5818 4.70261 28.4179 4.57679 28.2257 4.52522C28.0334 4.47364 27.8286 4.50054 27.6562 4.6L26.915 5.02875C26.5884 4.71114 26.1881 4.47963 25.75 4.355V3.5C25.75 3.30109 25.6709 3.11032 25.5303 2.96967C25.3896 2.82902 25.1989 2.75 25 2.75C24.8011 2.75 24.6103 2.82902 24.4696 2.96967C24.329 3.11032 24.25 3.30109 24.25 3.5V4.355C23.8118 4.47963 23.4115 4.71114 23.085 5.02875L22.3437 4.6C22.1713 4.50054 21.9665 4.47364 21.7743 4.52522C21.582 4.57679 21.4182 4.70261 21.3187 4.875C21.2193 5.04739 21.1924 5.25223 21.2439 5.44445C21.2955 5.63668 21.4213 5.80054 21.5937 5.9L22.3337 6.32625C22.222 6.76847 22.222 7.23153 22.3337 7.67375L21.5937 8.1C21.4213 8.19946 21.2955 8.36332 21.2439 8.55555C21.1924 8.74777 21.2193 8.95261 21.3187 9.125C21.4182 9.29739 21.582 9.42321 21.7743 9.47478C21.9665 9.52636 22.1713 9.49946 22.3437 9.4L23.085 8.97125C23.4115 9.28885 23.8118 9.52037 24.25 9.645V10.5C24.25 10.6989 24.329 10.8897 24.4696 11.0303C24.6103 11.171 24.8011 11.25 25 11.25C25.1989 11.25 25.3896 11.171 25.5303 11.0303C25.6709 10.8897 25.75 10.6989 25.75 10.5V9.645C26.1881 9.52037 26.5884 9.28885 26.915 8.97125L27.6562 9.4C27.8286 9.49946 28.0334 9.52636 28.2257 9.47478C28.4179 9.42321 28.5818 9.29739 28.6812 9.125C28.7807 8.95261 28.8076 8.74777 28.756 8.55555C28.7044 8.36332 28.5786 8.19946 28.4062 8.1ZM25 8.25C24.7527 8.25 24.5111 8.17669 24.3055 8.03934C24.0999 7.90199 23.9397 7.70676 23.8451 7.47835C23.7505 7.24995 23.7258 6.99861 23.774 6.75614C23.8222 6.51366 23.9413 6.29093 24.1161 6.11612C24.2909 5.9413 24.5136 5.82225 24.7561 5.77402C24.9986 5.72579 25.2499 5.75054 25.4783 5.84515C25.7067 5.93976 25.9019 6.09998 26.0393 6.30554C26.1767 6.5111 26.25 6.75277 26.25 7C26.25 7.33152 26.1183 7.64946 25.8838 7.88388C25.6494 8.1183 25.3315 8.25 25 8.25ZM27.71 13.26C27.5139 13.293 27.339 13.4026 27.2237 13.5646C27.1083 13.7265 27.062 13.9277 27.095 14.1237C27.198 14.7439 27.2498 15.3714 27.25 16C27.2521 18.8652 26.1566 21.6225 24.1887 23.705C23.0103 21.8727 21.2489 20.4908 19.1887 19.7825C20.216 19.0983 20.9959 18.1016 21.413 16.9399C21.8301 15.7783 21.8623 14.5132 21.5048 13.3318C21.1474 12.1504 20.4193 11.1153 19.4282 10.3797C18.4371 9.64404 17.2355 9.24686 16.0012 9.24686C14.7669 9.24686 13.5654 9.64404 12.5742 10.3797C11.5831 11.1153 10.855 12.1504 10.4976 13.3318C10.1402 14.5132 10.1724 15.7783 10.5895 16.9399C11.0066 18.1016 11.7864 19.0983 12.8137 19.7825C10.7535 20.4908 8.99213 21.8727 7.81371 23.705C6.30785 22.107 5.3028 20.1031 4.92262 17.9406C4.54243 15.7781 4.80374 13.5515 5.6743 11.5358C6.54485 9.52005 7.98656 7.80331 9.82149 6.59744C11.6564 5.39156 13.8043 4.74933 16 4.75C16.6282 4.75018 17.2553 4.80202 17.875 4.905C17.9729 4.92347 18.0736 4.92222 18.171 4.90133C18.2685 4.88045 18.3608 4.84034 18.4426 4.78336C18.5244 4.72638 18.594 4.65367 18.6474 4.56947C18.7007 4.48528 18.7368 4.39129 18.7534 4.293C18.77 4.19472 18.7669 4.0941 18.7442 3.99705C18.7214 3.89999 18.6796 3.80844 18.6211 3.72774C18.5626 3.64704 18.4886 3.57881 18.4034 3.52704C18.3182 3.47528 18.2235 3.44101 18.125 3.42625C16.0047 3.06697 13.828 3.24983 11.7973 3.95782C9.76672 4.66581 7.94816 5.87591 6.51086 7.47555C5.07356 9.07519 4.06423 11.0124 3.57676 13.1069C3.08929 15.2015 3.13952 17.3853 3.72279 19.4552C4.30606 21.5251 5.4034 23.4138 6.91274 24.9457C8.42207 26.4775 10.2943 27.6027 12.3554 28.2166C14.4164 28.8304 16.5992 28.913 18.7007 28.4566C20.8023 28.0002 22.7542 27.0197 24.375 25.6063C24.4562 25.7763 24.585 25.6063 24.6675 25.3425C26.2185 23.905 27.3877 22.1042 28.0696 20.1023C28.7515 18.1005 28.9247 15.9605 28.5737 13.875C28.5407 13.6789 28.4311 13.504 28.2692 13.3887C28.1072 13.2734 27.906 13.2271 27.71 13.26ZM11.75 15C11.75 14.1594 11.9992 13.3377 12.4662 12.6388C12.9332 11.9399 13.597 11.3952 14.3736 11.0735C15.1501 10.7518 16.0047 10.6677 16.8291 10.8317C17.6535 10.9956 18.4108 11.4004 19.0052 11.9948C19.5995 12.5892 20.0043 13.3464 20.1683 14.1709C20.3323 14.9953 20.2481 15.8498 19.9265 16.6264C19.6048 17.403 19.06 18.0668 18.3611 18.5337C17.6622 19.0007 16.8405 19.25 16 19.25C14.8728 19.25 13.7918 18.8022 12.9948 18.0052C12.1977 17.2082 11.75 16.1272 11.75 15ZM8.92996 24.75C9.66345 23.5303 10.7 22.5212 11.9388 21.8206C13.1777 21.12 14.5767 20.7518 16 20.7518C17.4232 20.7518 18.8222 21.12 20.0611 21.8206C21.2999 22.5212 22.3365 23.5303 23.07 24.75C21.0704 26.3714 18.5743 27.2563 16 27.2563C13.4256 27.2563 10.9295 26.3714 8.92996 24.75Z" fill="white"/>
</svg>
