<svg width="32" height="32" viewBox="0 0 32 32" fill="none" xmlns="http://www.w3.org/2000/svg">
<path d="M31.5688 13.5113L25.875 6.875C25.7105 6.67902 25.5051 6.52149 25.2731 6.4135C25.0412 6.30552 24.7884 6.24971 24.5325 6.25H4C3.53587 6.25 3.09075 6.43438 2.76256 6.76256C2.43437 7.09075 2.25 7.53587 2.25 8V22C2.25 22.4641 2.43437 22.9093 2.76256 23.2374C3.09075 23.5656 3.53587 23.75 4 23.75H6.325C6.49714 24.5977 6.95705 25.3599 7.62681 25.9073C8.29657 26.4547 9.13498 26.7538 10 26.7538C10.865 26.7538 11.7034 26.4547 12.3732 25.9073C13.043 25.3599 13.5029 24.5977 13.675 23.75H20.325C20.4971 24.5977 20.957 25.3599 21.6268 25.9073C22.2966 26.4547 23.135 26.7538 24 26.7538C24.865 26.7538 25.7034 26.4547 26.3732 25.9073C27.043 25.3599 27.5029 24.5977 27.675 23.75H30C30.4641 23.75 30.9092 23.5656 31.2374 23.2374C31.5656 22.9093 31.75 22.4641 31.75 22V14C31.75 13.8207 31.6857 13.6473 31.5688 13.5113ZM24.7313 7.84625L29.3675 13.25H21.75V7.75H24.5325C24.5708 7.74975 24.6086 7.7583 24.6431 7.77499C24.6775 7.79168 24.7077 7.81606 24.7313 7.84625ZM12.75 13.25V7.75H20.25V13.25H12.75ZM4 7.75H11.25V13.25H3.75V8C3.75 7.9337 3.77634 7.87011 3.82322 7.82322C3.87011 7.77634 3.9337 7.75 4 7.75ZM10 25.25C9.55499 25.25 9.11998 25.118 8.74997 24.8708C8.37996 24.6236 8.09157 24.2722 7.92127 23.861C7.75097 23.4499 7.70642 22.9975 7.79323 22.561C7.88005 22.1246 8.09434 21.7237 8.40901 21.409C8.72368 21.0943 9.12459 20.8801 9.56105 20.7932C9.9975 20.7064 10.4499 20.751 10.861 20.9213C11.2722 21.0916 11.6236 21.38 11.8708 21.75C12.118 22.12 12.25 22.555 12.25 23C12.25 23.5967 12.0129 24.169 11.591 24.591C11.169 25.0129 10.5967 25.25 10 25.25ZM24 25.25C23.555 25.25 23.12 25.118 22.75 24.8708C22.38 24.6236 22.0916 24.2722 21.9213 23.861C21.751 23.4499 21.7064 22.9975 21.7932 22.561C21.8801 22.1246 22.0943 21.7237 22.409 21.409C22.7237 21.0943 23.1246 20.8801 23.561 20.7932C23.9975 20.7064 24.4499 20.751 24.861 20.9213C25.2722 21.0916 25.6236 21.38 25.8708 21.75C26.118 22.12 26.25 22.555 26.25 23C26.25 23.5967 26.0129 24.169 25.591 24.591C25.169 25.0129 24.5967 25.25 24 25.25ZM30 22.25H27.675C27.5029 21.4023 27.043 20.6401 26.3732 20.0927C25.7034 19.5453 24.865 19.2462 24 19.2462C23.135 19.2462 22.2966 19.5453 21.6268 20.0927C20.957 20.6401 20.4971 21.4023 20.325 22.25H13.675C13.5029 21.4023 13.043 20.6401 12.3732 20.0927C11.7034 19.5453 10.865 19.2462 10 19.2462C9.13498 19.2462 8.29657 19.5453 7.62681 20.0927C6.95705 20.6401 6.49714 21.4023 6.325 22.25H4C3.9337 22.25 3.87011 22.2237 3.82322 22.1768C3.77634 22.1299 3.75 22.0663 3.75 22V14.75H30.25V22C30.25 22.0663 30.2237 22.1299 30.1768 22.1768C30.1299 22.2237 30.0663 22.25 30 22.25Z" fill="white"/>
</svg>
