<svg width="32" height="32" viewBox="0 0 32 32" fill="none" xmlns="http://www.w3.org/2000/svg">
<path d="M28.53 24.53L24.53 28.53C24.3878 28.6624 24.1998 28.7346 24.0055 28.7311C23.8112 28.7277 23.6258 28.649 23.4884 28.5116C23.351 28.3742 23.2723 28.1888 23.2688 27.9945C23.2654 27.8002 23.3375 27.6121 23.47 27.4699L26.1887 24.75H10C9.80109 24.75 9.61032 24.6709 9.46967 24.5303C9.32902 24.3896 9.25 24.1989 9.25 24V6.8112L6.53 9.52995C6.38782 9.66243 6.19978 9.73455 6.00548 9.73113C5.81118 9.7277 5.62579 9.64898 5.48838 9.51157C5.35096 9.37416 5.27225 9.18877 5.26882 8.99447C5.2654 8.80017 5.33752 8.61213 5.47 8.46995L9.47 4.46995C9.61062 4.3295 9.80125 4.25061 10 4.25061C10.1987 4.25061 10.3894 4.3295 10.53 4.46995L14.53 8.46995C14.6037 8.53861 14.6628 8.62141 14.7038 8.71341C14.7448 8.80541 14.7668 8.90473 14.7686 9.00543C14.7704 9.10613 14.7518 9.20616 14.7141 9.29955C14.6764 9.39294 14.6203 9.47777 14.549 9.54899C14.4778 9.62021 14.393 9.67635 14.2996 9.71407C14.2062 9.75179 14.1062 9.77032 14.0055 9.76854C13.9048 9.76677 13.8055 9.74472 13.7135 9.70373C13.6215 9.66274 13.5387 9.60364 13.47 9.52995L10.75 6.8112V23.25H26.1887L23.47 20.53C23.3375 20.3878 23.2654 20.1997 23.2688 20.0054C23.2723 19.8111 23.351 19.6257 23.4884 19.4883C23.6258 19.3509 23.8112 19.2722 24.0055 19.2688C24.1998 19.2653 24.3878 19.3375 24.53 19.4699L28.53 23.4699C28.6705 23.6106 28.7493 23.8012 28.7493 24C28.7493 24.1987 28.6705 24.3893 28.53 24.53Z" fill="white"/>
</svg>
