<svg width="32" height="32" viewBox="0 0 32 32" fill="none" xmlns="http://www.w3.org/2000/svg">
<path d="M29.53 17.53L25.53 21.53C25.3878 21.6624 25.1998 21.7346 25.0055 21.7311C24.8112 21.7277 24.6258 21.649 24.4884 21.5116C24.351 21.3742 24.2723 21.1888 24.2688 20.9945C24.2654 20.8002 24.3375 20.6121 24.47 20.4699L27.1887 17.75H15.3138L7.81375 25.25H12C12.1989 25.25 12.3897 25.329 12.5303 25.4696C12.671 25.6103 12.75 25.801 12.75 26C12.75 26.1989 12.671 26.3896 12.5303 26.5303C12.3897 26.6709 12.1989 26.75 12 26.75H6C5.80109 26.75 5.61032 26.6709 5.46967 26.5303C5.32902 26.3896 5.25 26.1989 5.25 26V20C5.25 19.801 5.32902 19.6103 5.46967 19.4696C5.61032 19.329 5.80109 19.25 6 19.25C6.19891 19.25 6.38968 19.329 6.53033 19.4696C6.67098 19.6103 6.75 19.801 6.75 20V24.1887L14.25 16.6887V4.8137L11.53 7.52995C11.3878 7.66243 11.1998 7.73455 11.0055 7.73113C10.8112 7.7277 10.6258 7.64899 10.4884 7.51157C10.351 7.37416 10.2723 7.18877 10.2688 6.99447C10.2654 6.80017 10.3375 6.61213 10.47 6.46995L14.47 2.46995C14.6106 2.3295 14.8012 2.25061 15 2.25061C15.1988 2.25061 15.3894 2.3295 15.53 2.46995L19.53 6.46995C19.6037 6.53861 19.6628 6.62141 19.7038 6.71341C19.7448 6.80541 19.7668 6.90473 19.7686 7.00543C19.7704 7.10613 19.7518 7.20616 19.7141 7.29955C19.6764 7.39294 19.6203 7.47777 19.549 7.54899C19.4778 7.62021 19.393 7.67635 19.2996 7.71407C19.2062 7.75179 19.1062 7.77032 19.0055 7.76854C18.9048 7.76677 18.8055 7.74472 18.7135 7.70373C18.6215 7.66274 18.5387 7.60364 18.47 7.52995L15.75 4.8112V16.25H27.1887L24.47 13.53C24.3375 13.3878 24.2654 13.1997 24.2688 13.0054C24.2723 12.8111 24.351 12.6257 24.4884 12.4883C24.6258 12.3509 24.8112 12.2722 25.0055 12.2688C25.1998 12.2653 25.3878 12.3375 25.53 12.47L29.53 16.4699C29.6705 16.6106 29.7493 16.8012 29.7493 17C29.7493 17.1987 29.6705 17.3893 29.53 17.53Z" fill="white"/>
</svg>
