<svg width="32" height="32" viewBox="0 0 32 32" fill="none" xmlns="http://www.w3.org/2000/svg">
<path d="M31.3538 9.33873C31.234 9.2747 31.0992 9.24437 30.9636 9.25098C30.828 9.25758 30.6967 9.30087 30.5837 9.37623L25.75 12.5987V8.99998C25.75 8.53585 25.5656 8.09073 25.2374 7.76255C24.9092 7.43436 24.4641 7.24998 24 7.24998H14.1325C13.9336 7.24998 13.7428 7.329 13.6022 7.46965C13.4615 7.6103 13.3825 7.80107 13.3825 7.99998C13.3825 8.19889 13.4615 8.38966 13.6022 8.53031C13.7428 8.67096 13.9336 8.74998 14.1325 8.74998H24C24.0663 8.74998 24.1299 8.77632 24.1768 8.8232C24.2237 8.87009 24.25 8.93368 24.25 8.99998V19.9537C24.25 20.1526 24.329 20.3434 24.4697 20.4841C24.6103 20.6247 24.8011 20.7037 25 20.7037C25.1989 20.7037 25.3897 20.6247 25.5303 20.4841C25.671 20.3434 25.75 20.1526 25.75 19.9537V19.4012L30.5837 22.625C30.6968 22.7004 30.8282 22.7437 30.9639 22.7502C31.0996 22.7568 31.2345 22.7263 31.3543 22.6622C31.474 22.598 31.5741 22.5025 31.6438 22.3858C31.7135 22.2692 31.7502 22.1358 31.75 22V9.99998C31.75 9.86422 31.7131 9.73101 31.6433 9.61455C31.5735 9.4981 31.4735 9.40277 31.3538 9.33873ZM30.25 20.5987L25.75 17.5987V14.4012L30.25 11.4012V20.5987ZM6.555 4.49998C6.4177 4.37254 6.23767 4.3011 6.05035 4.2997C5.86302 4.29831 5.68195 4.36707 5.54277 4.49246C5.40359 4.61785 5.31638 4.79078 5.29828 4.97724C5.28019 5.1637 5.33253 5.35017 5.445 5.49998L7.03125 7.24998H4C3.53587 7.24998 3.09075 7.43436 2.76256 7.76255C2.43437 8.09073 2.25 8.53585 2.25 8.99998V23C2.25 23.4641 2.43437 23.9092 2.76256 24.2374C3.09075 24.5656 3.53587 24.75 4 24.75H22.9412L25.4412 27.5C25.5752 27.6472 25.7621 27.7351 25.9609 27.7445C26.1597 27.7539 26.3541 27.6839 26.5012 27.55C26.6484 27.416 26.7364 27.2291 26.7458 27.0303C26.7552 26.8316 26.6852 26.6372 26.5513 26.49L6.555 4.49998ZM4 23.25C3.9337 23.25 3.87011 23.2236 3.82322 23.1768C3.77634 23.1299 3.75 23.0663 3.75 23V8.99998C3.75 8.93368 3.77634 8.87009 3.82322 8.8232C3.87011 8.77632 3.9337 8.74998 4 8.74998H8.395L21.5775 23.25H4Z" fill="white"/>
</svg>
