<svg width="32" height="32" viewBox="0 0 32 32" fill="none" xmlns="http://www.w3.org/2000/svg">
<path d="M27 5.25H5C4.53587 5.25 4.09075 5.43437 3.76256 5.76256C3.43437 6.09075 3.25 6.53587 3.25 7V25C3.25 25.4641 3.43437 25.9092 3.76256 26.2374C4.09075 26.5656 4.53587 26.75 5 26.75H27C27.4641 26.75 27.9092 26.5656 28.2374 26.2374C28.5656 25.9092 28.75 25.4641 28.75 25V7C28.75 6.53587 28.5656 6.09075 28.2374 5.76256C27.9092 5.43437 27.4641 5.25 27 5.25ZM27.25 7V15.25H20.75V6.75H27C27.0663 6.75 27.1299 6.77634 27.1768 6.82322C27.2237 6.87011 27.25 6.9337 27.25 7ZM4.75 25V7C4.75 6.9337 4.77634 6.87011 4.82322 6.82322C4.87011 6.77634 4.9337 6.75 5 6.75H19.25V25.25H5C4.9337 25.25 4.87011 25.2237 4.82322 25.1768C4.77634 25.1299 4.75 25.0663 4.75 25ZM27 25.25H20.75V16.75H27.25V25C27.25 25.0663 27.2237 25.1299 27.1768 25.1768C27.1299 25.2237 27.0663 25.25 27 25.25ZM22.75 11C22.75 10.7528 22.8233 10.5111 22.9607 10.3055C23.098 10.1 23.2932 9.93976 23.5216 9.84515C23.7501 9.75054 24.0014 9.72579 24.2439 9.77402C24.4863 9.82225 24.7091 9.9413 24.8839 10.1161C25.0587 10.2909 25.1777 10.5137 25.226 10.7561C25.2742 10.9986 25.2495 11.2499 25.1549 11.4784C25.0602 11.7068 24.9 11.902 24.6945 12.0393C24.4889 12.1767 24.2472 12.25 24 12.25C23.6685 12.25 23.3505 12.1183 23.1161 11.8839C22.8817 11.6495 22.75 11.3315 22.75 11ZM25.25 21C25.25 21.2472 25.1767 21.4889 25.0393 21.6945C24.902 21.9 24.7068 22.0602 24.4784 22.1549C24.2499 22.2495 23.9986 22.2742 23.7561 22.226C23.5137 22.1777 23.2909 22.0587 23.1161 21.8839C22.9413 21.7091 22.8223 21.4863 22.774 21.2439C22.7258 21.0014 22.7505 20.7501 22.8451 20.5216C22.9398 20.2932 23.1 20.098 23.3055 19.9607C23.5111 19.8233 23.7528 19.75 24 19.75C24.3315 19.75 24.6495 19.8817 24.8839 20.1161C25.1183 20.3505 25.25 20.6685 25.25 21ZM16.7262 20.8137C16.5585 20.1921 16.2662 19.611 15.8669 19.1058C15.4677 18.6006 14.9698 18.1818 14.4038 17.875C14.9952 17.3813 15.4202 16.7174 15.621 15.9737C15.8218 15.2299 15.7887 14.4424 15.5261 13.7181C15.2635 12.9939 14.7843 12.368 14.1535 11.9258C13.5227 11.4835 12.771 11.2462 12.0006 11.2462C11.2302 11.2462 10.4785 11.4835 9.84776 11.9258C9.21697 12.368 8.73771 12.9939 8.47515 13.7181C8.21258 14.4424 8.17945 15.2299 8.38027 15.9737C8.58108 16.7174 9.00609 17.3813 9.5975 17.875C9.0313 18.1816 8.53333 18.6001 8.13387 19.105C7.7344 19.61 7.44177 20.1909 7.27375 20.8125C7.22402 21.0051 7.25285 21.2096 7.35388 21.381C7.45492 21.5523 7.61989 21.6765 7.8125 21.7262C8.00511 21.776 8.20959 21.7472 8.38095 21.6461C8.55232 21.5451 8.67652 21.3801 8.72625 21.1875C9.08375 19.7975 10.4913 18.75 12 18.75C13.5087 18.75 14.9175 19.7975 15.2738 21.1863C15.3235 21.3789 15.4477 21.5438 15.619 21.6449C15.7904 21.7459 15.9949 21.7747 16.1875 21.725C16.3801 21.6753 16.5451 21.5511 16.6461 21.3797C16.7472 21.2083 16.776 21.0039 16.7262 20.8113V20.8137ZM9.75 15C9.75 14.555 9.88196 14.12 10.1292 13.75C10.3764 13.38 10.7278 13.0916 11.139 12.9213C11.5501 12.751 12.0025 12.7064 12.439 12.7932C12.8754 12.88 13.2763 13.0943 13.591 13.409C13.9057 13.7237 14.12 14.1246 14.2068 14.561C14.2936 14.9975 14.249 15.4499 14.0787 15.861C13.9084 16.2722 13.62 16.6236 13.25 16.8708C12.88 17.118 12.445 17.25 12 17.25C11.4033 17.25 10.831 17.0129 10.409 16.591C9.98705 16.169 9.75 15.5967 9.75 15Z" fill="white"/>
</svg>
