<svg width="32" height="32" viewBox="0 0 32 32" fill="none" xmlns="http://www.w3.org/2000/svg">
<path d="M15.2025 12.2638L12.2025 20.2638C12.149 20.4069 12.053 20.5302 11.9275 20.6173C11.8019 20.7044 11.6528 20.7511 11.5 20.7511C11.3472 20.7511 11.1981 20.7044 11.0725 20.6173C10.947 20.5302 10.851 20.4069 10.7975 20.2638L7.7975 12.2638C7.76286 12.1715 7.74674 12.0733 7.75004 11.9748C7.75335 11.8764 7.77602 11.7795 7.81676 11.6898C7.8575 11.6 7.91551 11.5192 7.98749 11.4519C8.05947 11.3846 8.144 11.3321 8.23625 11.2975C8.3285 11.2629 8.42668 11.2467 8.52516 11.25C8.62365 11.2533 8.72052 11.276 8.81024 11.3168C8.89997 11.3575 8.98079 11.4155 9.04809 11.4875C9.1154 11.5595 9.16786 11.644 9.2025 11.7362L11.5 17.8612L13.7975 11.7362C13.8321 11.644 13.8846 11.5595 13.9519 11.4875C14.0192 11.4155 14.1 11.3575 14.1898 11.3168C14.2795 11.276 14.3764 11.2533 14.4748 11.25C14.5733 11.2467 14.6715 11.2629 14.7638 11.2975C14.856 11.3321 14.9405 11.3846 15.0125 11.4519C15.0845 11.5192 15.1425 11.6 15.1832 11.6898C15.224 11.7795 15.2467 11.8764 15.25 11.9748C15.2533 12.0733 15.2371 12.1715 15.2025 12.2638ZM31.75 16C31.747 18.5849 30.7188 21.0632 28.891 22.891C27.0632 24.7188 24.5849 25.747 22 25.75H10C7.41414 25.75 4.93419 24.7228 3.10571 22.8943C1.27723 21.0658 0.25 18.5859 0.25 16C0.25 13.4141 1.27723 10.9342 3.10571 9.10571C4.93419 7.27723 7.41414 6.25 10 6.25H22C24.5849 6.25298 27.0632 7.28116 28.891 9.109C30.7188 10.9368 31.747 13.4151 31.75 16ZM30.25 16C30.2474 13.8128 29.3773 11.7159 27.8307 10.1693C26.2841 8.62269 24.1872 7.75265 22 7.75H10C7.81196 7.75 5.71354 8.61919 4.16637 10.1664C2.61919 11.7135 1.75 13.812 1.75 16C1.75 18.188 2.61919 20.2865 4.16637 21.8336C5.71354 23.3808 7.81196 24.25 10 24.25H22C24.1872 24.2474 26.2841 23.3773 27.8307 21.8307C29.3773 20.2841 30.2474 18.1872 30.25 16ZM22.275 17.22L23.65 19.6275C23.7495 19.8002 23.7762 20.0054 23.7244 20.1978C23.6726 20.3903 23.5465 20.5543 23.3738 20.6537C23.201 20.7532 22.9959 20.78 22.8034 20.7282C22.611 20.6764 22.447 20.5502 22.3475 20.3775L20.8388 17.7375C20.7261 17.7473 20.6131 17.7515 20.5 17.75H18.75V20C18.75 20.1989 18.671 20.3897 18.5303 20.5303C18.3897 20.671 18.1989 20.75 18 20.75C17.8011 20.75 17.6103 20.671 17.4697 20.5303C17.329 20.3897 17.25 20.1989 17.25 20V12C17.25 11.8011 17.329 11.6103 17.4697 11.4697C17.6103 11.329 17.8011 11.25 18 11.25H20.5C21.1997 11.2508 21.8804 11.4774 22.441 11.8961C23.0015 12.3147 23.412 12.9031 23.6114 13.5738C23.8108 14.2444 23.7885 14.9615 23.5477 15.6184C23.3069 16.2754 22.8606 16.8371 22.275 17.22ZM20.5 16.25C20.9641 16.25 21.4092 16.0656 21.7374 15.7374C22.0656 15.4092 22.25 14.9641 22.25 14.5C22.25 14.0359 22.0656 13.5908 21.7374 13.2626C21.4092 12.9344 20.9641 12.75 20.5 12.75H18.75V16.25H20.5Z" fill="white"/>
</svg>
