<svg width="32" height="32" viewBox="0 0 32 32" fill="none" xmlns="http://www.w3.org/2000/svg">
<path d="M22.8812 7.25H8.99997C7.8162 7.25004 6.64474 7.49027 5.5565 7.95617C4.46826 8.42207 3.48588 9.10394 2.66881 9.96052C1.85173 10.8171 1.21696 11.8305 0.802919 12.9395C0.388875 14.0486 0.204167 15.23 0.259973 16.4125C0.464973 20.875 4.12497 24.53 8.57747 24.74C10.4912 24.8288 12.4525 24.0187 14.5775 22.26C14.9784 21.9285 15.4823 21.7472 16.0025 21.7472C16.5227 21.7472 17.0266 21.9285 17.4275 22.26C18.7187 23.3325 20.7 24.75 23 24.75C24.1589 24.7501 25.3063 24.52 26.3755 24.073C27.4448 23.626 28.4146 22.9711 29.2286 22.1462C30.0427 21.3214 30.6848 20.343 31.1176 19.2679C31.5504 18.1929 31.7654 17.0426 31.75 15.8837C31.6875 11.125 27.7087 7.25 22.8812 7.25ZM28.16 21.0925C27.4874 21.7783 26.6844 22.3225 25.7981 22.693C24.9119 23.0636 23.9605 23.253 23 23.25C21.1837 23.25 19.5 22.0287 18.3837 21.1087C17.7139 20.5553 16.872 20.2525 16.0031 20.2525C15.1341 20.2525 14.2923 20.5553 13.6225 21.1087C11.8 22.62 10.1725 23.3175 8.64997 23.2463C6.85298 23.1489 5.1554 22.3907 3.88356 21.1175C2.61172 19.8443 1.8554 18.1458 1.75997 16.3487C1.71277 15.3686 1.86504 14.389 2.20756 13.4694C2.55009 12.5498 3.07573 11.7093 3.75265 10.9989C4.42957 10.2884 5.24367 9.72277 6.14564 9.33621C7.04761 8.94965 8.01866 8.75022 8.99997 8.75H22.8812C26.8925 8.75 30.1987 11.9588 30.25 15.9038C30.2652 16.8643 30.0882 17.8182 29.7293 18.7093C29.3703 19.6004 28.8368 20.4107 28.16 21.0925ZM22.75 12C22.75 12.1989 22.671 12.3897 22.5303 12.5303C22.3897 12.671 22.1989 12.75 22 12.75H9.99997C9.80106 12.75 9.6103 12.671 9.46964 12.5303C9.32899 12.3897 9.24997 12.1989 9.24997 12C9.24997 11.8011 9.32899 11.6103 9.46964 11.4697C9.6103 11.329 9.80106 11.25 9.99997 11.25H22C22.1989 11.25 22.3897 11.329 22.5303 11.4697C22.671 11.6103 22.75 11.8011 22.75 12Z" fill="white"/>
</svg>
