<svg width="32" height="32" viewBox="0 0 32 32" fill="none" xmlns="http://www.w3.org/2000/svg">
<path d="M15.25 17.0001V10.0001C15.25 9.80118 15.329 9.61041 15.4696 9.46976C15.6103 9.32911 15.801 9.25009 16 9.25009C16.1989 9.25009 16.3896 9.32911 16.5303 9.46976C16.6709 9.61041 16.75 9.80118 16.75 10.0001V17.0001C16.75 17.199 16.6709 17.3898 16.5303 17.5304C16.3896 17.6711 16.1989 17.7501 16 17.7501C15.801 17.7501 15.6103 17.6711 15.4696 17.5304C15.329 17.3898 15.25 17.199 15.25 17.0001ZM16 20.2501C15.7527 20.2501 15.5111 20.3234 15.3055 20.4608C15.0999 20.5981 14.9397 20.7933 14.8451 21.0217C14.7505 21.2501 14.7257 21.5015 14.774 21.7439C14.8222 21.9864 14.9413 22.2092 15.1161 22.384C15.2909 22.5588 15.5136 22.6778 15.7561 22.7261C15.9986 22.7743 16.2499 22.7495 16.4783 22.6549C16.7067 22.5603 16.9019 22.4001 17.0393 22.1946C17.1766 21.989 17.25 21.7473 17.25 21.5001C17.25 21.1686 17.1183 20.8506 16.8838 20.6162C16.6494 20.3818 16.3315 20.2501 16 20.2501ZM29.75 16.0001C29.7507 16.2292 29.7059 16.4561 29.6181 16.6677C29.5304 16.8793 29.4014 17.0713 29.2387 17.2326L17.2387 29.2401C16.9109 29.5653 16.4679 29.7477 16.0062 29.7477C15.5445 29.7477 15.1015 29.5653 14.7737 29.2401L2.7737 17.2326C2.61164 17.0709 2.48306 16.8787 2.39533 16.6673C2.30761 16.4558 2.26245 16.229 2.26245 16.0001C2.26245 15.7711 2.30761 15.5444 2.39533 15.3329C2.48306 15.1214 2.61164 14.9293 2.7737 14.7676L14.78 2.76009C15.1077 2.43491 15.5507 2.25244 16.0125 2.25244C16.4742 2.25244 16.9172 2.43491 17.245 2.76009L29.245 14.7676C29.4065 14.9294 29.5343 15.1216 29.621 15.3332C29.7077 15.5448 29.7515 15.7715 29.75 16.0001ZM28.25 16.0001C28.2501 15.9681 28.2438 15.9363 28.2316 15.9067C28.2194 15.8771 28.2014 15.8502 28.1787 15.8276L16.1725 3.82009C16.126 3.77576 16.0642 3.75104 16 3.75104C15.9357 3.75104 15.8739 3.77576 15.8275 3.82009L3.8212 15.8276C3.77688 15.8741 3.75216 15.9359 3.75216 16.0001C3.75216 16.0643 3.77688 16.1261 3.8212 16.1726L15.8275 28.1801C15.8739 28.2244 15.9357 28.2491 16 28.2491C16.0642 28.2491 16.126 28.2244 16.1725 28.1801L28.1787 16.1726C28.2014 16.15 28.2194 16.1231 28.2316 16.0935C28.2438 16.0639 28.2501 16.0321 28.25 16.0001Z" fill="white"/>
</svg>
