<svg width="32" height="32" viewBox="0 0 32 32" fill="none" xmlns="http://www.w3.org/2000/svg">
<path d="M29.3837 23.6364L18.4512 4.65261C18.2001 4.22567 17.8419 3.87171 17.4119 3.62578C16.982 3.37986 16.4953 3.25049 16 3.25049C15.5047 3.25049 15.018 3.37986 14.588 3.62578C14.1581 3.87171 13.7998 4.22567 13.5487 4.65261L2.61624 23.6364C2.37559 24.0483 2.24878 24.5168 2.24878 24.9939C2.24878 25.4709 2.37559 25.9394 2.61624 26.3514C2.86398 26.7813 3.22176 27.1375 3.65279 27.3833C4.08382 27.6292 4.57256 27.7558 5.06873 27.7501H26.9312C27.427 27.7553 27.9152 27.6285 28.3458 27.3827C28.7763 27.1369 29.1337 26.7809 29.3812 26.3514C29.6223 25.9396 29.7495 25.4713 29.7499 24.9942C29.7504 24.5171 29.624 24.0485 29.3837 23.6364ZM28.0825 25.6001C27.9657 25.801 27.7974 25.9671 27.5951 26.0813C27.3927 26.1956 27.1636 26.2538 26.9312 26.2501H5.06873C4.83639 26.2538 4.60725 26.1956 4.4049 26.0813C4.20255 25.9671 4.03431 25.801 3.91748 25.6001C3.80821 25.4163 3.75053 25.2064 3.75053 24.9926C3.75053 24.7788 3.80821 24.5689 3.91748 24.3851L14.8487 5.40136C14.9682 5.20284 15.137 5.0386 15.3388 4.92458C15.5405 4.81056 15.7683 4.75064 16 4.75064C16.2317 4.75064 16.4595 4.81056 16.6612 4.92458C16.8629 5.0386 17.0317 5.20284 17.1512 5.40136L28.0837 24.3851C28.1928 24.569 28.2503 24.779 28.2501 24.9928C28.2498 25.2066 28.1919 25.4164 28.0825 25.6001ZM15.25 18.0001V13.0001C15.25 12.8012 15.329 12.6104 15.4697 12.4698C15.6103 12.3291 15.8011 12.2501 16 12.2501C16.1989 12.2501 16.3897 12.3291 16.5303 12.4698C16.671 12.6104 16.75 12.8012 16.75 13.0001V18.0001C16.75 18.199 16.671 18.3898 16.5303 18.5304C16.3897 18.6711 16.1989 18.7501 16 18.7501C15.8011 18.7501 15.6103 18.6711 15.4697 18.5304C15.329 18.3898 15.25 18.199 15.25 18.0001ZM17.25 22.5001C17.25 22.7473 17.1767 22.989 17.0393 23.1946C16.902 23.4001 16.7067 23.5604 16.4783 23.655C16.2499 23.7496 15.9986 23.7743 15.7561 23.7261C15.5136 23.6779 15.2909 23.5588 15.1161 23.384C14.9413 23.2092 14.8222 22.9864 14.774 22.744C14.7258 22.5015 14.7505 22.2502 14.8451 22.0218C14.9397 21.7934 15.1 21.5981 15.3055 21.4608C15.5111 21.3234 15.7528 21.2501 16 21.2501C16.3315 21.2501 16.6494 21.3818 16.8839 21.6162C17.1183 21.8506 17.25 22.1686 17.25 22.5001Z" fill="white"/>
</svg>
