<svg width="32" height="32" viewBox="0 0 32 32" fill="none" xmlns="http://www.w3.org/2000/svg">
<path d="M26 4.25H6C5.53587 4.25 5.09075 4.43437 4.76256 4.76256C4.43437 5.09075 4.25 5.53587 4.25 6V26C4.25 26.4641 4.43437 26.9092 4.76256 27.2374C5.09075 27.5656 5.53587 27.75 6 27.75H26C26.4641 27.75 26.9092 27.5656 27.2374 27.2374C27.5656 26.9092 27.75 26.4641 27.75 26V6C27.75 5.53587 27.5656 5.09075 27.2374 4.76256C26.9092 4.43437 26.4641 4.25 26 4.25ZM26.25 26C26.25 26.0663 26.2237 26.1299 26.1768 26.1768C26.1299 26.2237 26.0663 26.25 26 26.25H6C5.9337 26.25 5.87011 26.2237 5.82322 26.1768C5.77634 26.1299 5.75 26.0663 5.75 26V6C5.75 5.9337 5.77634 5.87011 5.82322 5.82322C5.87011 5.77634 5.9337 5.75 6 5.75H26C26.0663 5.75 26.1299 5.77634 26.1768 5.82322C26.2237 5.87011 26.25 5.9337 26.25 6V26ZM16 8.25C14.4672 8.25 12.9688 8.70453 11.6943 9.55611C10.4199 10.4077 9.42651 11.6181 8.83993 13.0342C8.25335 14.4503 8.09988 16.0086 8.39891 17.5119C8.69795 19.0153 9.43607 20.3962 10.5199 21.4801C11.6038 22.5639 12.9847 23.302 14.4881 23.6011C15.9914 23.9001 17.5497 23.7466 18.9658 23.1601C20.3819 22.5735 21.5923 21.5802 22.4439 20.3057C23.2955 19.0312 23.75 17.5328 23.75 16C23.7477 13.9453 22.9304 11.9754 21.4775 10.5225C20.0246 9.06957 18.0547 8.25232 16 8.25ZM16 22.25C14.7639 22.25 13.5555 21.8834 12.5277 21.1967C11.4999 20.5099 10.6988 19.5338 10.2258 18.3918C9.75271 17.2497 9.62893 15.9931 9.87009 14.7807C10.1112 13.5683 10.7065 12.4547 11.5806 11.5806C12.4547 10.7065 13.5683 10.1112 14.7807 9.87009C15.9931 9.62893 17.2497 9.75271 18.3918 10.2258C19.5338 10.6988 20.5099 11.4999 21.1967 12.5277C21.8834 13.5555 22.25 14.7639 22.25 16C22.248 17.657 21.5889 19.2456 20.4172 20.4172C19.2456 21.5889 17.657 22.248 16 22.25ZM24.75 8.5C24.75 8.74723 24.6767 8.9889 24.5393 9.19446C24.402 9.40002 24.2068 9.56024 23.9784 9.65485C23.7499 9.74946 23.4986 9.77421 23.2561 9.72598C23.0137 9.67775 22.7909 9.5587 22.6161 9.38388C22.4413 9.20907 22.3223 8.98634 22.274 8.74386C22.2258 8.50139 22.2505 8.25005 22.3451 8.02165C22.4398 7.79324 22.6 7.59801 22.8055 7.46066C23.0111 7.32331 23.2528 7.25 23.5 7.25C23.8315 7.25 24.1495 7.3817 24.3839 7.61612C24.6183 7.85054 24.75 8.16848 24.75 8.5ZM15.53 14.53L13.53 16.53C13.3878 16.6625 13.1998 16.7346 13.0055 16.7312C12.8112 16.7277 12.6258 16.649 12.4884 16.5116C12.351 16.3742 12.2723 16.1888 12.2688 15.9945C12.2654 15.8002 12.3375 15.6122 12.47 15.47L14.47 13.47C14.6122 13.3375 14.8002 13.2654 14.9945 13.2688C15.1888 13.2723 15.3742 13.351 15.5116 13.4884C15.649 13.6258 15.7277 13.8112 15.7312 14.0055C15.7346 14.1998 15.6625 14.3878 15.53 14.53ZM19.53 14.47C19.6705 14.6106 19.7493 14.8012 19.7493 15C19.7493 15.1988 19.6705 15.3894 19.53 15.53L15.53 19.53C15.3878 19.6625 15.1998 19.7346 15.0055 19.7312C14.8112 19.7277 14.6258 19.649 14.4884 19.5116C14.351 19.3742 14.2723 19.1888 14.2688 18.9945C14.2654 18.8002 14.3375 18.6122 14.47 18.47L18.47 14.47C18.6106 14.3295 18.8012 14.2507 19 14.2507C19.1988 14.2507 19.3894 14.3295 19.53 14.47Z" fill="white"/>
</svg>
