<svg width="32" height="32" viewBox="0 0 32 32" fill="none" xmlns="http://www.w3.org/2000/svg">
<path d="M25.7502 16C25.7497 14.4528 25.3806 12.9279 24.6735 11.5517C23.9664 10.1755 22.9416 8.98755 21.6839 8.08625L20.8877 3.6875C20.8145 3.28406 20.6019 2.91913 20.2871 2.65641C19.9723 2.39369 19.5752 2.24985 19.1652 2.25H12.8352C12.4252 2.24985 12.0281 2.39369 11.7133 2.65641C11.3985 2.91913 11.1859 3.28406 11.1127 3.6875L10.3164 8.08625C9.05841 8.98717 8.03329 10.175 7.32609 11.5513C6.61889 12.9276 6.25 14.4527 6.25 16C6.25 17.5473 6.61889 19.0724 7.32609 20.4487C8.03329 21.825 9.05841 23.0128 10.3164 23.9137L11.1127 28.3125C11.1859 28.7159 11.3985 29.0809 11.7133 29.3436C12.0281 29.6063 12.4252 29.7501 12.8352 29.75H19.1652C19.5752 29.7501 19.9723 29.6063 20.2871 29.3436C20.6019 29.0809 20.8145 28.7159 20.8877 28.3125L21.6839 23.9137C22.9416 23.0124 23.9664 21.8245 24.6735 20.4483C25.3806 19.0721 25.7497 17.5472 25.7502 16ZM12.5889 3.955C12.5996 3.89676 12.6306 3.84419 12.6763 3.80665C12.7221 3.76911 12.7797 3.74903 12.8389 3.75H19.1689C19.2281 3.74903 19.2858 3.76911 19.3315 3.80665C19.3773 3.84419 19.4083 3.89676 19.4189 3.955L19.9889 7.10375C18.7371 6.541 17.3802 6.25003 16.0077 6.25003C14.6352 6.25003 13.2783 6.541 12.0264 7.10375L12.5889 3.955ZM19.4114 28.045C19.4008 28.1032 19.3698 28.1558 19.324 28.1933C19.2783 28.2309 19.2206 28.251 19.1614 28.25H12.8352C12.776 28.251 12.7184 28.2309 12.6726 28.1933C12.6268 28.1558 12.5958 28.1032 12.5852 28.045L12.0152 24.8962C13.267 25.459 14.6239 25.75 15.9964 25.75C17.3689 25.75 18.7259 25.459 19.9777 24.8962L19.4114 28.045ZM16.0002 24.25C14.3685 24.25 12.7734 23.7661 11.4167 22.8596C10.06 21.9531 9.0026 20.6646 8.37818 19.1571C7.75376 17.6496 7.59038 15.9908 7.90871 14.3905C8.22704 12.7902 9.01277 11.3202 10.1666 10.1664C11.3203 9.01259 12.7903 8.22685 14.3907 7.90852C15.991 7.59019 17.6498 7.75357 19.1573 8.37799C20.6648 9.00242 21.9533 10.0598 22.8598 11.4165C23.7663 12.7733 24.2502 14.3683 24.2502 16C24.2475 18.1872 23.3775 20.2841 21.8309 21.8307C20.2843 23.3773 18.1874 24.2474 16.0002 24.25ZM21.7502 16C21.7502 16.1989 21.6712 16.3897 21.5305 16.5303C21.3899 16.671 21.1991 16.75 21.0002 16.75H16.0002C15.8013 16.75 15.6105 16.671 15.4699 16.5303C15.3292 16.3897 15.2502 16.1989 15.2502 16V11C15.2502 10.8011 15.3292 10.6103 15.4699 10.4697C15.6105 10.329 15.8013 10.25 16.0002 10.25C16.1991 10.25 16.3899 10.329 16.5305 10.4697C16.6712 10.6103 16.7502 10.8011 16.7502 11V15.25H21.0002C21.1991 15.25 21.3899 15.329 21.5305 15.4697C21.6712 15.6103 21.7502 15.8011 21.7502 16Z" fill="white"/>
</svg>
