<svg width="32" height="32" viewBox="0 0 32 32" fill="none" xmlns="http://www.w3.org/2000/svg">
<path d="M29.3924 16.6388L16.3924 24.6388C16.2788 24.7086 16.1486 24.7468 16.0153 24.7495C15.8819 24.7522 15.7503 24.7194 15.6339 24.6543C15.5175 24.5892 15.4206 24.4943 15.3531 24.3793C15.2856 24.2643 15.25 24.1334 15.2499 24V9.34252L3.39365 16.6388C3.22424 16.743 3.02035 16.7757 2.82684 16.7297C2.63333 16.6836 2.46604 16.5626 2.36177 16.3931C2.25751 16.2237 2.22481 16.0199 2.27088 15.8263C2.31694 15.6328 2.43799 15.4655 2.6074 15.3613L15.6074 7.36127C15.721 7.29148 15.8512 7.25326 15.9845 7.25052C16.1179 7.24779 16.2495 7.28066 16.3659 7.34573C16.4823 7.4108 16.5792 7.50573 16.6467 7.62074C16.7142 7.73575 16.7498 7.86667 16.7499 8.00002V22.6575L28.6061 15.3613C28.69 15.3096 28.7833 15.275 28.8805 15.2594C28.9778 15.2439 29.0771 15.2476 29.173 15.2704C29.2688 15.2932 29.3592 15.3346 29.439 15.3924C29.5188 15.4501 29.5864 15.523 29.638 15.6069C29.6896 15.6908 29.7242 15.784 29.7398 15.8813C29.7554 15.9785 29.7517 16.0779 29.7289 16.1737C29.7061 16.2695 29.6647 16.3599 29.6069 16.4397C29.5492 16.5195 29.4763 16.5871 29.3924 16.6388Z" fill="white"/>
</svg>
