<svg width="32" height="32" viewBox="0 0 32 32" fill="none" xmlns="http://www.w3.org/2000/svg">
<path d="M27.5776 22.3226C27.6405 22.3984 27.6878 22.4859 27.7169 22.58C27.746 22.6742 27.7562 22.7731 27.747 22.8712C27.7379 22.9693 27.7094 23.0646 27.6634 23.1517C27.6174 23.2388 27.5547 23.316 27.4788 23.3788C25.3701 25.1288 23.4788 25.7538 21.7601 25.7538C19.4863 25.7538 17.4938 24.6713 15.6426 23.6663C12.3926 21.9013 9.58759 20.3776 5.47884 23.7913C5.32418 23.9183 5.12542 23.9787 4.92628 23.9591C4.72714 23.9395 4.54393 23.8416 4.41696 23.687C4.28999 23.5323 4.22965 23.3336 4.24923 23.1344C4.2688 22.9353 4.36668 22.7521 4.52133 22.6251C9.41258 18.5688 13.1026 20.5738 16.3576 22.3426C19.6126 24.1113 22.4126 25.6313 26.5213 22.2176C26.5976 22.1551 26.6854 22.1082 26.7797 22.0796C26.8741 22.051 26.9731 22.0414 27.0712 22.0511C27.1693 22.0609 27.2646 22.0899 27.3514 22.1364C27.4383 22.183 27.5152 22.2463 27.5776 22.3226ZM26.5213 15.2213C22.4126 18.6301 19.6063 17.1051 16.3576 15.3463C13.1088 13.5876 9.41258 11.5676 4.52133 15.6251C4.36801 15.7521 4.2714 15.9348 4.25276 16.133C4.23413 16.3312 4.29499 16.5286 4.42196 16.682C4.54893 16.8353 4.73161 16.9319 4.92982 16.9505C5.12802 16.9692 5.32551 16.9083 5.47884 16.7813C9.58759 13.3726 12.3938 14.8963 15.6426 16.6563C17.4938 17.6563 19.4863 18.7451 21.7601 18.7451C23.4838 18.7451 25.3701 18.1201 27.4788 16.3701C27.632 16.2431 27.7284 16.0605 27.747 15.8624C27.7655 15.6643 27.7046 15.467 27.5776 15.3138C27.4506 15.1607 27.268 15.0642 27.0699 15.0457C26.8718 15.0272 26.6745 15.0881 26.5213 15.2151V15.2213ZM5.47884 9.77635C9.58759 6.3676 12.3938 7.8926 15.6426 9.65135C17.5001 10.6626 19.4863 11.7501 21.7601 11.7501C23.4838 11.7501 25.3701 11.1251 27.4788 9.3751C27.5547 9.31223 27.6174 9.23503 27.6634 9.14793C27.7094 9.06082 27.7378 8.96551 27.747 8.86742C27.7561 8.76934 27.7459 8.67041 27.7168 8.57629C27.6878 8.48216 27.6405 8.39469 27.5776 8.31885C27.5147 8.24301 27.4375 8.1803 27.3504 8.13429C27.2633 8.08828 27.168 8.05988 27.0699 8.05072C26.9718 8.04155 26.8729 8.05178 26.7788 8.08085C26.6847 8.10991 26.5972 8.15723 26.5213 8.2201C22.4126 11.6288 19.6063 10.1038 16.3576 8.3451C13.1088 6.58635 9.41258 4.5651 4.52133 8.6251C4.36817 8.75207 4.27172 8.93468 4.2532 9.13277C4.23468 9.33086 4.29561 9.52818 4.42259 9.68135C4.54956 9.83451 4.73217 9.93096 4.93026 9.94948C5.12834 9.968 5.32567 9.90707 5.47884 9.7801V9.77635Z" fill="white"/>
</svg>
