<svg width="32" height="32" viewBox="0 0 32 32" fill="none" xmlns="http://www.w3.org/2000/svg">
<path d="M29.6075 16.4387L23.1075 25.4387C23.038 25.5348 22.9467 25.6129 22.8411 25.6669C22.7355 25.7208 22.6186 25.7489 22.5 25.7489C22.3814 25.7489 22.2646 25.7208 22.159 25.6669C22.0534 25.6129 21.962 25.5348 21.8925 25.4387L9.50001 8.28122L3.60751 16.4387C3.55284 16.5252 3.48105 16.5995 3.39658 16.6572C3.3121 16.7149 3.21672 16.7547 3.11629 16.7742C3.01587 16.7936 2.91252 16.7923 2.81261 16.7704C2.71271 16.7484 2.61835 16.7062 2.53534 16.6465C2.45233 16.5867 2.38243 16.5105 2.32993 16.4227C2.27743 16.335 2.24345 16.2373 2.23007 16.1359C2.2167 16.0345 2.22421 15.9314 2.25214 15.833C2.28008 15.7346 2.32784 15.643 2.39251 15.5637L8.89251 6.56372C8.96204 6.46768 9.05336 6.38949 9.15896 6.33557C9.26456 6.28165 9.38144 6.25354 9.50001 6.25354C9.61858 6.25354 9.73546 6.28165 9.84106 6.33557C9.94667 6.38949 10.038 6.46768 10.1075 6.56372L22.5 23.7187L28.3925 15.5612C28.5133 15.4131 28.6861 15.3168 28.8755 15.2918C29.065 15.2668 29.2569 15.3151 29.4119 15.4267C29.567 15.5384 29.6736 15.7051 29.7099 15.8927C29.7463 16.0803 29.7097 16.2747 29.6075 16.4362V16.4387Z" fill="white"/>
</svg>
