<svg width="32" height="32" viewBox="0 0 32 32" fill="none" xmlns="http://www.w3.org/2000/svg">
<path d="M6.75 12V20C6.75 20.1989 6.67098 20.3897 6.53033 20.5303C6.38968 20.671 6.19891 20.75 6 20.75C5.80109 20.75 5.61032 20.671 5.46967 20.5303C5.32902 20.3897 5.25 20.1989 5.25 20V12C5.25 11.8011 5.32902 11.6103 5.46967 11.4697C5.61032 11.329 5.80109 11.25 6 11.25C6.19891 11.25 6.38968 11.329 6.53033 11.4697C6.67098 11.6103 6.75 11.8011 6.75 12ZM6.555 4.5C6.4177 4.37256 6.23767 4.30111 6.05035 4.29972C5.86302 4.29833 5.68195 4.36709 5.54277 4.49248C5.40359 4.61787 5.31638 4.7908 5.29828 4.97726C5.28019 5.16371 5.33253 5.35019 5.445 5.5L10.25 10.79V28C10.25 28.1989 10.329 28.3897 10.4697 28.5303C10.6103 28.671 10.8011 28.75 11 28.75C11.1989 28.75 11.3897 28.671 11.5303 28.5303C11.671 28.3897 11.75 28.1989 11.75 28V12.44L15.25 16.29V24C15.25 24.1989 15.329 24.3897 15.4697 24.5303C15.6103 24.671 15.8011 24.75 16 24.75C16.1989 24.75 16.3897 24.671 16.5303 24.5303C16.671 24.3897 16.75 24.1989 16.75 24V17.94L25.445 27.5C25.5789 27.6472 25.7659 27.7352 25.9646 27.7445C26.1634 27.7539 26.3578 27.6839 26.505 27.55C26.6522 27.4161 26.7402 27.2291 26.7495 27.0304C26.7589 26.8316 26.6889 26.6372 26.555 26.49L6.555 4.5ZM11 5.30375C11.1989 5.30375 11.3897 5.22473 11.5303 5.08408C11.671 4.94343 11.75 4.75266 11.75 4.55375V4C11.75 3.80109 11.671 3.61032 11.5303 3.46967C11.3897 3.32902 11.1989 3.25 11 3.25C10.8011 3.25 10.6103 3.32902 10.4697 3.46967C10.329 3.61032 10.25 3.80109 10.25 4V4.55375C10.25 4.75266 10.329 4.94343 10.4697 5.08408C10.6103 5.22473 10.8011 5.30375 11 5.30375ZM16 10.8038C16.1989 10.8038 16.3897 10.7247 16.5303 10.5841C16.671 10.4434 16.75 10.2527 16.75 10.0538V8C16.75 7.80109 16.671 7.61032 16.5303 7.46967C16.3897 7.32902 16.1989 7.25 16 7.25C15.8011 7.25 15.6103 7.32902 15.4697 7.46967C15.329 7.61032 15.25 7.80109 15.25 8V10.0538C15.25 10.2527 15.329 10.4434 15.4697 10.5841C15.6103 10.7247 15.8011 10.8038 16 10.8038ZM21 16.3037C21.1989 16.3037 21.3897 16.2247 21.5303 16.0841C21.671 15.9434 21.75 15.7527 21.75 15.5538V12C21.75 11.8011 21.671 11.6103 21.5303 11.4697C21.3897 11.329 21.1989 11.25 21 11.25C20.8011 11.25 20.6103 11.329 20.4697 11.4697C20.329 11.6103 20.25 11.8011 20.25 12V15.5538C20.25 15.7527 20.329 15.9434 20.4697 16.0841C20.6103 16.2247 20.8011 16.3037 21 16.3037ZM26 9.25C25.8011 9.25 25.6103 9.32902 25.4697 9.46967C25.329 9.61032 25.25 9.80109 25.25 10V21.0537C25.25 21.2527 25.329 21.4434 25.4697 21.5841C25.6103 21.7247 25.8011 21.8037 26 21.8037C26.1989 21.8037 26.3897 21.7247 26.5303 21.5841C26.671 21.4434 26.75 21.2527 26.75 21.0537V10C26.75 9.80109 26.671 9.61032 26.5303 9.46967C26.3897 9.32902 26.1989 9.25 26 9.25Z" fill="white"/>
</svg>
