<svg width="32" height="32" viewBox="0 0 32 32" fill="none" xmlns="http://www.w3.org/2000/svg">
<path d="M20.75 13C20.75 12.0606 20.4714 11.1422 19.9495 10.3611C19.4275 9.57995 18.6857 8.97113 17.8177 8.61161C16.9498 8.2521 15.9947 8.15803 15.0733 8.34131C14.1519 8.52459 13.3055 8.97699 12.6412 9.64128C11.9769 10.3056 11.5245 11.152 11.3413 12.0734C11.158 12.9948 11.2521 13.9498 11.6116 14.8178C11.9711 15.6857 12.5799 16.4276 13.361 16.9495C14.1422 17.4715 15.0605 17.75 16 17.75C17.2598 17.75 18.468 17.2496 19.3588 16.3588C20.2496 15.468 20.75 14.2598 20.75 13ZM12.75 13C12.75 12.3573 12.9406 11.7289 13.2977 11.1944C13.6548 10.66 14.1624 10.2434 14.7563 9.99743C15.3501 9.75145 16.0036 9.68709 16.634 9.81249C17.2645 9.93789 17.8436 10.2474 18.2981 10.7019C18.7526 11.1565 19.0621 11.7356 19.1876 12.366C19.313 12.9964 19.2486 13.6499 19.0026 14.2438C18.7566 14.8376 18.3401 15.3452 17.8056 15.7023C17.2711 16.0594 16.6428 16.25 16 16.25C15.138 16.25 14.3114 15.9076 13.7019 15.2981C13.0924 14.6886 12.75 13.862 12.75 13ZM28 25.25H16.75V22.7188C19.2634 22.5249 21.604 21.365 23.2807 19.4826C24.9574 17.6001 25.8398 15.1414 25.7428 12.6224C25.6457 10.1034 24.5768 7.71985 22.7603 5.97196C20.9438 4.22407 18.5209 3.24768 16 3.24768C13.4791 3.24768 11.0562 4.22407 9.23969 5.97196C7.42318 7.71985 6.35425 10.1034 6.25723 12.6224C6.1602 15.1414 7.0426 17.6001 8.71928 19.4826C10.396 21.365 12.7366 22.5249 15.25 22.7188V25.25H4C3.80109 25.25 3.61032 25.3291 3.46967 25.4697C3.32902 25.6104 3.25 25.8011 3.25 26C3.25 26.199 3.32902 26.3897 3.46967 26.5304C3.61032 26.671 3.80109 26.75 4 26.75H28C28.1989 26.75 28.3897 26.671 28.5303 26.5304C28.671 26.3897 28.75 26.199 28.75 26C28.75 25.8011 28.671 25.6104 28.5303 25.4697C28.3897 25.3291 28.1989 25.25 28 25.25ZM7.75 13C7.75 11.3683 8.23385 9.77329 9.14038 8.41659C10.0469 7.05988 11.3354 6.00246 12.8429 5.37804C14.3504 4.75361 16.0092 4.59024 17.6095 4.90856C19.2098 5.22689 20.6798 6.01263 21.8336 7.16641C22.9874 8.32019 23.7731 9.7902 24.0915 11.3905C24.4098 12.9909 24.2464 14.6497 23.622 16.1572C22.9976 17.6647 21.9402 18.9531 20.5835 19.8597C19.2267 20.7662 17.6317 21.25 16 21.25C13.8128 21.2474 11.7159 20.3774 10.1693 18.8307C8.62269 17.2841 7.75265 15.1873 7.75 13Z" fill="white"/>
</svg>
