<svg width="32" height="32" viewBox="0 0 32 32" fill="none" xmlns="http://www.w3.org/2000/svg">
<path d="M26.555 26.5L6.555 4.5C6.4177 4.37256 6.23767 4.30112 6.05035 4.29973C5.86302 4.29833 5.68195 4.3671 5.54277 4.49248C5.40359 4.61787 5.31638 4.79081 5.29828 4.97726C5.28019 5.16372 5.33253 5.35019 5.445 5.5L7.66375 7.945C6.80079 9.36912 6.31695 10.9905 6.25835 12.6547C6.19974 14.3188 6.56833 15.9702 7.32896 17.4515C8.0896 18.9328 9.21695 20.1946 10.6035 21.1167C11.9901 22.0387 13.5898 22.5903 15.25 22.7188V25.25H4C3.80109 25.25 3.61032 25.329 3.46967 25.4697C3.32902 25.6103 3.25 25.8011 3.25 26C3.25 26.1989 3.32902 26.3897 3.46967 26.5303C3.61032 26.671 3.80109 26.75 4 26.75H24.7588L25.445 27.5C25.5789 27.6472 25.7659 27.7352 25.9646 27.7445C26.1634 27.7539 26.3578 27.6839 26.505 27.55C26.6522 27.4161 26.7402 27.2291 26.7495 27.0304C26.7589 26.8316 26.6889 26.6372 26.555 26.49V26.5ZM15.0962 16.125C14.5196 15.9571 14.0006 15.633 13.5966 15.1884C13.1927 14.7439 12.9196 14.1963 12.8075 13.6063L15.0962 16.125ZM7.75 13C7.74726 11.6428 8.08141 10.3062 8.7225 9.11L11.3562 12.0075C11.2083 12.6998 11.217 13.4164 11.3817 14.1049C11.5463 14.7933 11.8628 15.4363 12.3079 15.9868C12.7531 16.5372 13.3156 16.9812 13.9544 17.2863C14.5932 17.5914 15.2921 17.7498 16 17.75C16.183 17.7498 16.3658 17.739 16.5475 17.7175L19.18 20.6138C17.9261 21.1376 16.5622 21.3435 15.2095 21.2133C13.8569 21.0831 12.5573 20.6208 11.4263 19.8674C10.2953 19.114 9.36798 18.093 8.72663 16.8949C8.08527 15.6969 7.74979 14.3589 7.75 13ZM16.75 25.25V22.72C17.962 22.6267 19.1459 22.3083 20.2412 21.7813L23.395 25.25H16.75ZM10.9075 5.54C10.8589 5.45432 10.8276 5.3599 10.8155 5.26214C10.8034 5.16438 10.8107 5.06519 10.8369 4.97024C10.8632 4.87528 10.9079 4.78643 10.9684 4.70875C11.029 4.63107 11.1043 4.56608 11.19 4.5175C13.1151 3.42491 15.3546 3.01988 17.5404 3.369C19.7262 3.71812 21.7282 4.80062 23.2171 6.4385C24.7061 8.07639 25.5934 10.1722 25.7332 12.3813C25.8729 14.5903 25.2569 16.7813 23.9862 18.5938C23.9309 18.6772 23.8594 18.7486 23.7759 18.804C23.6925 18.8593 23.5988 18.8974 23.5004 18.9159C23.4021 18.9345 23.301 18.9332 23.2031 18.912C23.1052 18.8909 23.0126 18.8504 22.9306 18.7929C22.8487 18.7354 22.7791 18.6621 22.7259 18.5772C22.6727 18.4924 22.6371 18.3978 22.6211 18.2989C22.6051 18.2001 22.609 18.0991 22.6326 18.0018C22.6563 17.9045 22.6992 17.813 22.7588 17.7325C23.8346 16.1988 24.3565 14.3446 24.2384 12.4749C24.1204 10.6051 23.3695 8.83128 22.1092 7.44507C20.849 6.05885 19.1545 5.14284 17.3044 4.84772C15.4544 4.5526 13.559 4.89593 11.93 5.82125C11.7571 5.91951 11.5523 5.94509 11.3605 5.89234C11.1688 5.8396 11.0058 5.71287 10.9075 5.54ZM19.0912 14.0063C19.2691 13.4608 19.2993 12.8779 19.1789 12.317C19.0585 11.756 18.7918 11.2369 18.4058 10.8125C18.0198 10.388 17.5283 10.0733 16.9812 9.90026C16.4342 9.72726 15.8511 9.70216 15.2913 9.8275C15.1951 9.84884 15.0956 9.85103 14.9986 9.83393C14.9015 9.81684 14.8088 9.78079 14.7257 9.72786C14.6426 9.67494 14.5707 9.60615 14.5142 9.52545C14.4577 9.44475 14.4176 9.3537 14.3962 9.2575C14.3749 9.16131 14.3727 9.06186 14.3898 8.96482C14.4069 8.86778 14.443 8.77506 14.4959 8.69195C14.5488 8.60884 14.6176 8.53698 14.6983 8.48045C14.779 8.42392 14.8701 8.38384 14.9663 8.3625C15.7844 8.17986 16.6362 8.21697 17.4354 8.47006C18.2345 8.72314 18.9524 9.1832 19.5162 9.80351C20.08 10.4238 20.4697 11.1823 20.6455 12.0019C20.8214 12.8215 20.7772 13.673 20.5175 14.47C20.4533 14.6558 20.3188 14.8089 20.1428 14.8965C19.9669 14.9841 19.7636 14.9992 19.5767 14.9384C19.3898 14.8776 19.2342 14.7459 19.1434 14.5716C19.0526 14.3972 19.0339 14.1942 19.0912 14.0063Z" fill="white"/>
</svg>
