<svg width="32" height="32" viewBox="0 0 32 32" fill="none" xmlns="http://www.w3.org/2000/svg">
<path d="M22.4213 21.75H13.7C13.5853 22.6219 13.2721 23.4558 12.7846 24.1877C12.2971 24.9196 11.6482 25.5299 10.8878 25.9717C10.1274 26.4134 9.27587 26.6749 8.3986 26.736C7.52134 26.7971 6.64175 26.6562 5.82749 26.3241C5.01323 25.9919 4.286 25.4775 3.70174 24.8202C3.11747 24.163 2.69173 23.3805 2.45728 22.533C2.22282 21.6854 2.18589 20.7954 2.34932 19.9313C2.51276 19.0672 2.8722 18.2522 3.40001 17.5488C3.45919 17.47 3.5333 17.4036 3.61813 17.3535C3.70295 17.3033 3.79683 17.2704 3.89439 17.2565C3.99195 17.2426 4.09128 17.2481 4.18672 17.2726C4.28216 17.2971 4.37184 17.3402 4.45063 17.3994C4.52943 17.4586 4.59579 17.5327 4.64594 17.6175C4.69609 17.7023 4.72904 17.7962 4.74291 17.8938C4.75678 17.9913 4.7513 18.0907 4.72678 18.1861C4.70226 18.2816 4.65919 18.3712 4.60001 18.45C4.04565 19.1843 3.74709 20.08 3.75001 21C3.75001 22.1272 4.19778 23.2082 4.99481 24.0052C5.79184 24.8023 6.87284 25.25 8.00001 25.25C9.12718 25.25 10.2082 24.8023 11.0052 24.0052C11.8022 23.2082 12.25 22.1272 12.25 21C12.25 20.8011 12.329 20.6103 12.4697 20.4697C12.6103 20.329 12.8011 20.25 13 20.25H22.4213C22.5915 19.891 22.8789 19.6007 23.2361 19.4267C23.5934 19.2527 23.9992 19.2055 24.3868 19.2928C24.7744 19.38 25.1208 19.5966 25.369 19.9069C25.6172 20.2172 25.7524 20.6027 25.7524 21C25.7524 21.3974 25.6172 21.7829 25.369 22.0931C25.1208 22.4034 24.7744 22.62 24.3868 22.7073C23.9992 22.7946 23.5934 22.7473 23.2361 22.5734C22.8789 22.3994 22.5915 22.109 22.4213 21.75ZM8.00001 22.75C8.31475 22.7497 8.62358 22.6645 8.89397 22.5034C9.16435 22.3423 9.38628 22.1112 9.53638 21.8346C9.68647 21.5579 9.75918 21.2459 9.74684 20.9314C9.7345 20.6169 9.63757 20.3116 9.46626 20.0475L14.0188 12.65C14.0701 12.5659 14.1044 12.4725 14.1196 12.3751C14.1348 12.2778 14.1307 12.1784 14.1075 12.0826C14.0843 11.9868 14.0424 11.8966 13.9843 11.817C13.9262 11.7374 13.8529 11.67 13.7688 11.6188C13.2015 11.2688 12.7245 10.7902 12.3763 10.2218C12.0282 9.6534 11.8186 9.01107 11.7645 8.3467C11.7104 7.68234 11.8133 7.01456 12.065 6.39733C12.3167 5.78009 12.71 5.23071 13.2132 4.79355C13.7163 4.35639 14.3153 4.04371 14.9617 3.88079C15.608 3.71786 16.2836 3.70925 16.9339 3.85564C17.5842 4.00204 18.1909 4.29934 18.7051 4.72353C19.2193 5.14772 19.6264 5.68691 19.8938 6.29752C19.9318 6.38973 19.9878 6.47343 20.0585 6.54373C20.1293 6.61403 20.2133 6.6695 20.3058 6.70692C20.3982 6.74434 20.4972 6.76294 20.597 6.76163C20.6967 6.76033 20.7952 6.73915 20.8866 6.69933C20.978 6.65951 21.0606 6.60185 21.1295 6.52973C21.1984 6.45761 21.2522 6.37248 21.2878 6.27931C21.3234 6.18614 21.34 6.0868 21.3368 5.98712C21.3335 5.88744 21.3104 5.78941 21.2688 5.69877C20.9206 4.90057 20.3956 4.19188 19.7335 3.62618C19.0715 3.06049 18.2895 2.65257 17.4468 2.43321C16.604 2.21385 15.7224 2.18878 14.8686 2.3599C14.0147 2.53101 13.2108 2.89383 12.5177 3.42099C11.8245 3.94814 11.2601 4.62585 10.8672 5.40298C10.4742 6.18011 10.2628 7.03635 10.2491 7.90708C10.2354 8.77782 10.4196 9.6403 10.7878 10.4294C11.1561 11.2186 11.6988 11.9138 12.375 12.4625L8.19001 19.26C8.12751 19.2538 8.06501 19.25 8.00001 19.25C7.53588 19.25 7.09076 19.4344 6.76257 19.7626C6.43438 20.0908 6.25001 20.5359 6.25001 21C6.25001 21.4642 6.43438 21.9093 6.76257 22.2375C7.09076 22.5656 7.53588 22.75 8.00001 22.75ZM24 15.25C23.1902 15.2493 22.3894 15.4197 21.65 15.75L17.4663 8.95127C17.6778 8.62461 17.7744 8.23676 17.7408 7.84903C17.7073 7.46131 17.5454 7.09584 17.2809 6.81041C17.0163 6.52499 16.6642 6.33589 16.2801 6.27301C15.896 6.21014 15.502 6.27708 15.1602 6.46326C14.8185 6.64943 14.5485 6.94421 14.3931 7.30099C14.2376 7.65777 14.2055 8.05619 14.3018 8.43325C14.3982 8.81031 14.6175 9.1445 14.925 9.38298C15.2326 9.62145 15.6108 9.75061 16 9.75002C16.0635 9.75005 16.127 9.74629 16.19 9.73877L20.74 17.135C20.8451 17.3041 21.0126 17.4249 21.2063 17.4713C21.3996 17.5171 21.6033 17.4843 21.7725 17.38C22.332 17.0359 22.9636 16.8261 23.6179 16.7672C24.2721 16.7082 24.931 16.8017 25.543 17.0403C26.155 17.279 26.7034 17.6562 27.145 18.1424C27.5867 18.6286 27.9097 19.2106 28.0885 19.8426C28.2674 20.4746 28.2974 21.1395 28.1761 21.7851C28.0547 22.4306 27.7854 23.0393 27.3892 23.5632C26.9931 24.0872 26.4809 24.5122 25.8928 24.8048C25.3048 25.0975 24.6569 25.2499 24 25.25C23.8011 25.25 23.6103 25.329 23.4697 25.4697C23.329 25.6103 23.25 25.8011 23.25 26C23.25 26.1989 23.329 26.3897 23.4697 26.5304C23.6103 26.671 23.8011 26.75 24 26.75C25.525 26.75 26.9875 26.1442 28.0659 25.0659C29.1442 23.9876 29.75 22.525 29.75 21C29.75 19.475 29.1442 18.0125 28.0659 16.9342C26.9875 15.8558 25.525 15.25 24 15.25Z" fill="white"/>
</svg>
