<svg width="32" height="32" viewBox="0 0 32 32" fill="none" xmlns="http://www.w3.org/2000/svg">
<path d="M22.0001 9.75C22.7418 9.75 23.4668 9.53007 24.0835 9.11801C24.7002 8.70596 25.1808 8.12029 25.4647 7.43506C25.7485 6.74984 25.8227 5.99584 25.678 5.26841C25.5334 4.54098 25.1762 3.8728 24.6518 3.34835C24.1273 2.8239 23.4591 2.46675 22.7317 2.32206C22.0043 2.17736 21.2503 2.25162 20.565 2.53545C19.8798 2.81928 19.2941 3.29993 18.8821 3.91661C18.47 4.5333 18.2501 5.25832 18.2501 6C18.2501 6.99456 18.6452 7.94839 19.3485 8.65165C20.0517 9.35491 21.0055 9.75 22.0001 9.75ZM22.0001 3.75C22.4451 3.75 22.8801 3.88196 23.2501 4.1292C23.6201 4.37643 23.9085 4.72783 24.0788 5.13896C24.2491 5.5501 24.2937 6.0025 24.2069 6.43896C24.1201 6.87541 23.9058 7.27632 23.5911 7.59099C23.2764 7.90566 22.8755 8.11995 22.4391 8.20677C22.0026 8.29359 21.5502 8.24903 21.1391 8.07873C20.7279 7.90843 20.3765 7.62005 20.1293 7.25003C19.8821 6.88002 19.7501 6.44501 19.7501 6C19.7501 5.40326 19.9872 4.83097 20.4091 4.40901C20.8311 3.98705 21.4034 3.75 22.0001 3.75ZM20.7501 21C20.7501 22.5328 20.2956 24.0312 19.444 25.3057C18.5924 26.5802 17.382 27.5735 15.9659 28.1601C14.5498 28.7466 12.9915 28.9001 11.4882 28.6011C9.9848 28.3021 8.60388 27.5639 7.52003 26.4801C6.43617 25.3962 5.69805 24.0153 5.39902 22.512C5.09998 21.0086 5.25346 19.4503 5.84004 18.0342C6.42662 16.6181 7.41996 15.4077 8.69444 14.5561C9.96892 13.7045 11.4673 13.25 13.0001 13.25C13.199 13.25 13.3898 13.329 13.5304 13.4697C13.6711 13.6103 13.7501 13.8011 13.7501 14C13.7501 14.1989 13.6711 14.3897 13.5304 14.5303C13.3898 14.671 13.199 14.75 13.0001 14.75C11.764 14.75 10.5556 15.1166 9.52779 15.8033C8.49998 16.4901 7.69891 17.4662 7.22586 18.6082C6.75281 19.7503 6.62904 21.0069 6.8702 22.2193C7.11136 23.4317 7.70661 24.5453 8.58069 25.4194C9.45477 26.2935 10.5684 26.8888 11.7808 27.1299C12.9932 27.3711 14.2498 27.2473 15.3919 26.7742C16.5339 26.3012 17.51 25.5001 18.1968 24.4723C18.8836 23.4445 19.2501 22.2361 19.2501 21C19.2501 20.8011 19.3291 20.6103 19.4698 20.4697C19.6104 20.329 19.8012 20.25 20.0001 20.25C20.199 20.25 20.3898 20.329 20.5304 20.4697C20.6711 20.6103 20.7501 20.8011 20.7501 21ZM25.5801 16.525C25.6507 16.6111 25.7013 16.7119 25.7281 16.82C25.7549 16.9281 25.7573 17.0409 25.7351 17.15L23.7351 27.15C23.7005 27.3194 23.6085 27.4717 23.4745 27.581C23.3406 27.6903 23.173 27.75 23.0001 27.75C22.9501 27.7499 22.9003 27.7449 22.8514 27.735C22.6565 27.6958 22.4851 27.5808 22.375 27.4153C22.2648 27.2499 22.2248 27.0474 22.2639 26.8525L24.0851 17.75H16.0001C15.8684 17.7501 15.739 17.7155 15.6249 17.6497C15.5109 17.5839 15.4161 17.4892 15.3502 17.3752C15.2843 17.2612 15.2496 17.1318 15.2496 17.0001C15.2496 16.8684 15.2843 16.7391 15.3501 16.625L17.9839 12.04C16.1824 11.0389 14.121 10.6037 12.0686 10.7912C10.0162 10.9787 8.06785 11.7802 6.47761 13.0913C6.40201 13.1565 6.31414 13.206 6.21916 13.2368C6.12418 13.2677 6.024 13.2792 5.92449 13.2708C5.82498 13.2624 5.72815 13.2343 5.63968 13.1879C5.55121 13.1416 5.47288 13.0781 5.40929 13.0011C5.34569 12.9241 5.29812 12.8352 5.26935 12.7396C5.24058 12.6439 5.23119 12.5435 5.24175 12.4442C5.25231 12.3449 5.28258 12.2487 5.33081 12.1613C5.37904 12.0738 5.44425 11.9969 5.52261 11.935C7.45232 10.3427 9.83988 9.40795 12.3377 9.26676C14.8356 9.12557 17.3133 9.78533 19.4101 11.15C19.57 11.2547 19.6839 11.4165 19.7285 11.6024C19.7731 11.7882 19.7451 11.9841 19.6501 12.15L17.2964 16.25H25.0001C25.1111 16.2501 25.2207 16.2748 25.321 16.3223C25.4213 16.3699 25.5098 16.4391 25.5801 16.525Z" fill="white"/>
</svg>
