<svg width="32" height="32" viewBox="0 0 32 32" fill="none" xmlns="http://www.w3.org/2000/svg">
<path d="M17.2501 25.5C17.2501 25.7473 17.1768 25.9889 17.0394 26.1945C16.9021 26.4 16.7068 26.5603 16.4784 26.6549C16.25 26.7495 15.9987 26.7742 15.7562 26.726C15.5137 26.6778 15.291 26.5587 15.1162 26.3839C14.9414 26.2091 14.8223 25.9864 14.7741 25.7439C14.7259 25.5014 14.7506 25.2501 14.8452 25.0217C14.9398 24.7933 15.1 24.598 15.3056 24.4607C15.5112 24.3233 15.7528 24.25 16.0001 24.25C16.3316 24.25 16.6495 24.3817 16.884 24.6161C17.1184 24.8506 17.2501 25.1685 17.2501 25.5ZM26.0601 10L28.5301 7.53002C28.6625 7.38785 28.7347 7.1998 28.7312 7.0055C28.7278 6.8112 28.6491 6.62582 28.5117 6.4884C28.3743 6.35099 28.1889 6.27228 27.9946 6.26885C27.8003 6.26542 27.6122 6.33754 27.4701 6.47002L25.0001 8.94002L22.5301 6.47002C22.3879 6.33754 22.1998 6.26542 22.0055 6.26885C21.8112 6.27228 21.6259 6.35099 21.4884 6.4884C21.351 6.62582 21.2723 6.8112 21.2689 7.0055C21.2655 7.1998 21.3376 7.38785 21.4701 7.53002L23.9401 10L21.4701 12.47C21.3964 12.5387 21.3373 12.6215 21.2963 12.7135C21.2553 12.8055 21.2333 12.9048 21.2315 13.0055C21.2297 13.1062 21.2482 13.2062 21.2859 13.2996C21.3237 13.393 21.3798 13.4778 21.451 13.5491C21.5222 13.6203 21.6071 13.6764 21.7005 13.7141C21.7939 13.7519 21.8939 13.7704 21.9946 13.7686C22.0953 13.7668 22.1946 13.7448 22.2866 13.7038C22.3786 13.6628 22.4614 13.6037 22.5301 13.53L25.0001 11.06L27.4701 13.53C27.6122 13.6625 27.8003 13.7346 27.9946 13.7312C28.1889 13.7278 28.3743 13.6491 28.5117 13.5116C28.6491 13.3742 28.7278 13.1888 28.7312 12.9945C28.7347 12.8002 28.6625 12.6122 28.5301 12.47L26.0601 10ZM21.4413 20.0188C19.8602 18.8686 17.9553 18.2491 16.0001 18.2491C14.0449 18.2491 12.14 18.8686 10.5588 20.0188C10.4028 20.1376 10.2994 20.3128 10.271 20.5068C10.2426 20.7009 10.2913 20.8983 10.4067 21.0569C10.5221 21.2155 10.695 21.3225 10.8884 21.3551C11.0818 21.3877 11.2803 21.3433 11.4413 21.2313C12.766 20.2677 14.362 19.7487 16.0001 19.7487C17.6381 19.7487 19.2341 20.2677 20.5588 21.2313C20.7196 21.3483 20.9203 21.3966 21.1167 21.3656C21.3132 21.3347 21.4893 21.227 21.6063 21.0663C21.7233 20.9055 21.7716 20.7048 21.7407 20.5084C21.7097 20.3119 21.6021 20.1358 21.4413 20.0188ZM16.9638 7.76877C17.1627 7.77839 17.3573 7.70859 17.5048 7.57474C17.6522 7.44088 17.7405 7.25394 17.7501 7.05502C17.7597 6.85611 17.6899 6.66153 17.556 6.51408C17.4222 6.36663 17.2352 6.27839 17.0363 6.26877C16.6926 6.25252 16.3438 6.24377 16.0001 6.24377C11.0857 6.24856 6.3244 7.9533 2.52382 11.0688C2.44725 11.1312 2.38376 11.2081 2.33699 11.295C2.29022 11.382 2.26109 11.4774 2.25127 11.5757C2.24146 11.674 2.25115 11.7732 2.27979 11.8677C2.30843 11.9622 2.35546 12.0502 2.41818 12.1265C2.48089 12.2028 2.55806 12.2659 2.64525 12.3123C2.73244 12.3587 2.82794 12.3874 2.92625 12.3968C3.02457 12.4062 3.12377 12.3961 3.21817 12.367C3.31257 12.338 3.40029 12.2906 3.47632 12.2275C7.00904 9.33438 11.4338 7.75242 16.0001 7.75002C16.3201 7.75002 16.6451 7.75752 16.9638 7.77252V7.76877ZM16.9488 13.7788C17.1477 13.7924 17.3439 13.7264 17.4942 13.5953C17.6444 13.4643 17.7365 13.2789 17.7501 13.08C17.7637 12.8811 17.6977 12.6849 17.5666 12.5347C17.4356 12.3844 17.2502 12.2924 17.0513 12.2788C16.7026 12.255 16.3488 12.2425 16.0001 12.2425C12.5617 12.2298 9.22211 13.3914 6.53382 15.535C6.37784 15.6587 6.27737 15.8392 6.25451 16.037C6.23166 16.2347 6.28829 16.4334 6.41194 16.5894C6.5356 16.7454 6.71615 16.8458 6.91389 16.8687C7.11162 16.8916 7.31034 16.8349 7.46632 16.7113C9.89035 14.7806 12.9012 13.7358 16.0001 13.75C16.3151 13.75 16.6351 13.7613 16.9488 13.7825V13.7788Z" fill="white"/>
</svg>
