<svg width="32" height="32" viewBox="0 0 32 32" fill="none" xmlns="http://www.w3.org/2000/svg">
<path d="M17.2502 25.4999C17.2502 25.7472 17.1769 25.9888 17.0395 26.1944C16.9022 26.4 16.7069 26.5602 16.4785 26.6548C16.2501 26.7494 15.9988 26.7742 15.7563 26.7259C15.5138 26.6777 15.2911 26.5586 15.1163 26.3838C14.9415 26.209 14.8224 25.9863 14.7742 25.7438C14.726 25.5013 14.7507 25.25 14.8453 25.0216C14.9399 24.7932 15.1001 24.598 15.3057 24.4606C15.5113 24.3233 15.7529 24.2499 16.0002 24.2499C16.3317 24.2499 16.6496 24.3816 16.884 24.6161C17.1185 24.8505 17.2502 25.1684 17.2502 25.4999ZM21.4414 20.0187C19.8603 18.8686 17.9554 18.249 16.0002 18.249C14.045 18.249 12.1401 18.8686 10.5589 20.0187C10.4029 20.1375 10.2995 20.3127 10.2711 20.5067C10.2427 20.7008 10.2914 20.8983 10.4068 21.0568C10.5222 21.2154 10.6951 21.3224 10.8885 21.355C11.0819 21.3876 11.2804 21.3432 11.4414 21.2312C12.7661 20.2676 14.3621 19.7486 16.0002 19.7486C17.6382 19.7486 19.2342 20.2676 20.5589 21.2312C20.7197 21.3482 20.9204 21.3965 21.1168 21.3656C21.3133 21.3346 21.4894 21.2269 21.6064 21.0662C21.7234 20.9054 21.7717 20.7047 21.7408 20.5083C21.7098 20.3119 21.6022 20.1358 21.4414 20.0187Z" fill="white"/>
</svg>
