<svg width="32" height="32" viewBox="0 0 32 32" fill="none" xmlns="http://www.w3.org/2000/svg">
<path d="M17.2501 25.5C17.2501 25.7472 17.1768 25.9889 17.0394 26.1944C16.9021 26.4 16.7068 26.5602 16.4784 26.6548C16.25 26.7494 15.9987 26.7742 15.7562 26.726C15.5137 26.6777 15.291 26.5587 15.1162 26.3839C14.9414 26.2091 14.8223 25.9863 14.7741 25.7438C14.7259 25.5014 14.7506 25.25 14.8452 25.0216C14.9398 24.7932 15.1 24.598 15.3056 24.4606C15.5112 24.3233 15.7528 24.25 16.0001 24.25C16.3316 24.25 16.6495 24.3817 16.884 24.6161C17.1184 24.8505 17.2501 25.1685 17.2501 25.5ZM6.55507 4.49998C6.41777 4.37254 6.23774 4.3011 6.05041 4.2997C5.86309 4.29831 5.68202 4.36707 5.54284 4.49246C5.40366 4.61785 5.31644 4.79078 5.29835 4.97724C5.28026 5.1637 5.33259 5.35017 5.44507 5.49998L7.66632 7.94748C5.81213 8.73904 4.08049 9.79133 2.52382 11.0725C2.44725 11.1349 2.38376 11.2118 2.33699 11.2987C2.29022 11.3857 2.26109 11.4811 2.25127 11.5794C2.24146 11.6777 2.25115 11.7769 2.27979 11.8714C2.30843 11.9659 2.35546 12.0539 2.41818 12.1302C2.48089 12.2065 2.55806 12.2696 2.64525 12.316C2.73244 12.3624 2.82794 12.3911 2.92625 12.4005C3.02457 12.4099 3.12377 12.3998 3.21817 12.3707C3.31257 12.3417 3.40029 12.2943 3.47632 12.2312C5.05821 10.9284 6.83374 9.88033 8.73882 9.12498L12.0488 12.7662C10.0409 13.3059 8.16423 14.2497 6.53382 15.54C6.37784 15.6636 6.27737 15.8442 6.25451 16.0419C6.23166 16.2397 6.28829 16.4384 6.41194 16.5944C6.5356 16.7503 6.71615 16.8508 6.91389 16.8737C7.11162 16.8965 7.31034 16.8399 7.46632 16.7162C9.14281 15.3878 11.1061 14.4689 13.2001 14.0325L17.0913 18.3137C16.7291 18.2711 16.3648 18.2498 16.0001 18.25C14.0442 18.2449 12.1378 18.8646 10.5588 20.0187C10.4309 20.1119 10.3357 20.2432 10.2869 20.3938C10.2381 20.5443 10.2382 20.7065 10.2872 20.857C10.3361 21.0075 10.4315 21.1387 10.5595 21.2317C10.6876 21.3248 10.8418 21.3749 11.0001 21.375C11.1587 21.3755 11.3134 21.3251 11.4413 21.2312C12.5063 20.4569 13.751 19.9667 15.058 19.8068C16.3649 19.6469 17.6911 19.8227 18.9113 20.3175L25.4451 27.5C25.579 27.6472 25.7659 27.7351 25.9647 27.7445C26.1635 27.7539 26.3579 27.6839 26.5051 27.55C26.6523 27.416 26.7402 27.2291 26.7496 27.0303C26.759 26.8316 26.689 26.6372 26.5551 26.49L6.55507 4.49998ZM29.4763 11.0687C25.6749 7.9555 20.9136 6.253 16.0001 6.24998C15.0907 6.25038 14.1822 6.308 13.2801 6.42248C13.1806 6.43281 13.0843 6.46292 12.9966 6.51104C12.909 6.55915 12.8319 6.62431 12.7698 6.70266C12.7077 6.78102 12.6619 6.871 12.6351 6.96731C12.6082 7.06362 12.601 7.16432 12.6136 7.26349C12.6263 7.36266 12.6587 7.4583 12.7088 7.54478C12.759 7.63126 12.8259 7.70684 12.9057 7.76707C12.9855 7.8273 13.0765 7.87097 13.1735 7.89552C13.2704 7.92006 13.3712 7.92498 13.4701 7.90998C14.3092 7.80339 15.1542 7.74995 16.0001 7.74998C20.5663 7.75238 24.9911 9.33434 28.5238 12.2275C28.5998 12.2905 28.6876 12.3379 28.782 12.367C28.8764 12.396 28.9756 12.4062 29.0739 12.3968C29.1722 12.3874 29.2677 12.3587 29.3549 12.3123C29.4421 12.2659 29.5192 12.2027 29.582 12.1264C29.6447 12.0501 29.6917 11.9622 29.7203 11.8677C29.749 11.7732 29.7587 11.6739 29.7489 11.5756C29.739 11.4774 29.7099 11.382 29.6631 11.295C29.6164 11.208 29.5529 11.1311 29.4763 11.0687ZM24.5338 16.7187C24.6673 16.8217 24.8315 16.8768 25.0001 16.875C25.1557 16.875 25.3076 16.8266 25.4345 16.7364C25.5614 16.6463 25.6571 16.5189 25.7083 16.3719C25.7596 16.2249 25.7638 16.0656 25.7204 15.9161C25.6771 15.7666 25.5883 15.6342 25.4663 15.5375C23.6053 14.0649 21.427 13.0459 19.1038 12.5612C19.0068 12.5396 18.9064 12.5375 18.8085 12.5551C18.7106 12.5727 18.6172 12.6095 18.5337 12.6635C18.4502 12.7175 18.3782 12.7875 18.3221 12.8696C18.2659 12.9516 18.2266 13.044 18.2064 13.1414C18.1863 13.2388 18.1857 13.3392 18.2047 13.4368C18.2238 13.5344 18.262 13.6273 18.3173 13.71C18.3725 13.7926 18.4436 13.8635 18.5265 13.9185C18.6094 13.9734 18.7024 14.0113 18.8001 14.03C20.8945 14.4679 22.8578 15.3886 24.5338 16.7187Z" fill="white"/>
</svg>
