<svg width="32" height="32" viewBox="0 0 32 32" fill="none" xmlns="http://www.w3.org/2000/svg">
<path d="M17.25 25.5C17.25 25.7472 17.1767 25.9889 17.0394 26.1945C16.902 26.4 16.7068 26.5602 16.4784 26.6549C16.25 26.7495 15.9986 26.7742 15.7562 26.726C15.5137 26.6777 15.291 26.5587 15.1162 26.3839C14.9413 26.2091 14.8223 25.9863 14.7741 25.7439C14.7258 25.5014 14.7506 25.2501 14.8452 25.0216C14.9398 24.7932 15.1 24.598 15.3056 24.4607C15.5111 24.3233 15.7528 24.25 16 24.25C16.3316 24.25 16.6495 24.3817 16.8839 24.6161C17.1183 24.8505 17.25 25.1685 17.25 25.5ZM25.4663 15.5425C22.7721 13.4094 19.4364 12.2488 16 12.2488C12.5636 12.2488 9.22798 13.4094 6.53378 15.5425C6.3778 15.6662 6.27733 15.8467 6.25448 16.0444C6.23162 16.2422 6.28825 16.4409 6.41191 16.5969C6.53557 16.7529 6.71612 16.8533 6.91386 16.8762C7.11159 16.899 7.3103 16.8424 7.46628 16.7188C9.89525 14.7962 12.9023 13.7501 16 13.7501C19.0978 13.7501 22.1048 14.7962 24.5338 16.7188C24.6672 16.8218 24.8315 16.8768 25 16.875C25.1557 16.875 25.3075 16.8266 25.4344 16.7364C25.5613 16.6463 25.657 16.5189 25.7083 16.3719C25.7595 16.2249 25.7638 16.0656 25.7204 15.9161C25.677 15.7666 25.5882 15.6343 25.4663 15.5375V15.5425ZM21.4413 20.0187C19.8601 18.8686 17.9552 18.2491 16 18.2491C14.0448 18.2491 12.1399 18.8686 10.5588 20.0187C10.4027 20.1375 10.2994 20.3127 10.271 20.5068C10.2425 20.7008 10.2913 20.8983 10.4067 21.0569C10.5221 21.2154 10.695 21.3225 10.8884 21.3551C11.0818 21.3877 11.2803 21.3432 11.4413 21.2313C12.766 20.2677 14.362 19.7486 16 19.7486C17.6381 19.7486 19.2341 20.2677 20.5588 21.2313C20.7196 21.3482 20.9203 21.3966 21.1167 21.3656C21.3131 21.3347 21.4892 21.227 21.6063 21.0662C21.7233 20.9054 21.7716 20.7048 21.7407 20.5083C21.7097 20.3119 21.602 20.1358 21.4413 20.0187Z" fill="white"/>
</svg>
