<svg width="32" height="32" viewBox="0 0 32 32" fill="none" xmlns="http://www.w3.org/2000/svg">
<path d="M26 17.25H16C15.8011 17.25 15.6103 17.329 15.4697 17.4696C15.329 17.6103 15.25 17.8011 15.25 18V25.1812C15.2498 25.3571 15.3114 25.5274 15.4241 25.6624C15.5367 25.7975 15.6932 25.8886 15.8663 25.92L25.8662 27.7375C25.9103 27.746 25.9551 27.7502 26 27.75C26.1989 27.75 26.3897 27.671 26.5303 27.5303C26.671 27.3896 26.75 27.1989 26.75 27V18C26.75 17.8011 26.671 17.6103 26.5303 17.4696C26.3897 17.329 26.1989 17.25 26 17.25ZM25.25 26.1012L16.75 24.5562V18.75H25.25V26.1012ZM12 17.25H4C3.80109 17.25 3.61032 17.329 3.46967 17.4696C3.32902 17.6103 3.25 17.8011 3.25 18V23C3.25011 23.1756 3.31186 23.3456 3.42447 23.4804C3.53709 23.6152 3.69343 23.7061 3.86625 23.7375L11.8663 25.1925C11.9104 25.2004 11.9551 25.2046 12 25.205C12.1989 25.205 12.3897 25.126 12.5303 24.9853C12.671 24.8446 12.75 24.6539 12.75 24.455V18C12.75 17.8011 12.671 17.6103 12.5303 17.4696C12.3897 17.329 12.1989 17.25 12 17.25ZM11.25 23.5562L4.75 22.375V18.75H11.25V23.5562ZM26.48 4.42372C26.3957 4.35361 26.2971 4.30284 26.191 4.27498C26.085 4.24712 25.9741 4.24285 25.8662 4.26247L15.8663 6.07997C15.6932 6.11133 15.5367 6.20249 15.4241 6.33752C15.3114 6.47255 15.2498 6.64287 15.25 6.81872V14C15.25 14.1989 15.329 14.3896 15.4697 14.5303C15.6103 14.671 15.8011 14.75 16 14.75H26C26.1989 14.75 26.3897 14.671 26.5303 14.5303C26.671 14.3896 26.75 14.1989 26.75 14V4.99997C26.75 4.89 26.7258 4.78137 26.6791 4.68179C26.6325 4.5822 26.5645 4.4941 26.48 4.42372ZM25.25 13.25H16.75V7.44372L25.25 5.89872V13.25ZM12.48 6.96997C12.3958 6.89965 12.2972 6.84865 12.1912 6.82057C12.0851 6.79249 11.9742 6.78802 11.8663 6.80747L3.86625 8.26247C3.69343 8.29379 3.53709 8.38477 3.42447 8.51954C3.31186 8.65431 3.25011 8.82434 3.25 8.99997V14C3.25 14.1989 3.32902 14.3896 3.46967 14.5303C3.61032 14.671 3.80109 14.75 4 14.75H12C12.1989 14.75 12.3897 14.671 12.5303 14.5303C12.671 14.3896 12.75 14.1989 12.75 14V7.54497C12.7498 7.43521 12.7255 7.32682 12.6789 7.22747C12.6322 7.12812 12.5643 7.04022 12.48 6.96997ZM11.25 13.25H4.75V9.62497L11.25 8.44247V13.25Z" fill="white"/>
</svg>
