<svg width="32" height="32" viewBox="0 0 32 32" fill="none" xmlns="http://www.w3.org/2000/svg">
<path d="M28 28.25H22.65L21.7588 22.0063L22.6112 22.5063C22.8093 22.6232 23.0284 22.6999 23.2561 22.7321C23.4838 22.7642 23.7156 22.7512 23.9382 22.6938C24.1609 22.6363 24.37 22.5355 24.5537 22.3972C24.7374 22.2588 24.892 22.0856 25.0088 21.8875L26.5088 19.345C26.6254 19.1466 26.7018 18.9272 26.7335 18.6992C26.7652 18.4713 26.7516 18.2393 26.6936 18.0166C26.6355 17.7939 26.5341 17.5849 26.3951 17.4014C26.2562 17.218 26.0824 17.0637 25.8838 16.9475L21.295 14.25L26.5075 5.39251C26.6239 5.19417 26.7002 4.97482 26.7318 4.74701C26.7634 4.5192 26.7498 4.28738 26.6917 4.06483C26.6337 3.84228 26.5323 3.63335 26.3935 3.45C26.2546 3.26665 26.081 3.11246 25.8825 2.99626L23.3463 1.50001C23.1479 1.38337 22.9284 1.30701 22.7005 1.27529C22.4725 1.24358 22.2406 1.25714 22.0179 1.31519C21.7952 1.37325 21.5861 1.47466 21.4026 1.61362C21.2192 1.75258 21.0649 1.92636 20.9487 2.12501L18.25 6.70626L9.38875 1.49251C9.19036 1.37587 8.97091 1.29951 8.74296 1.26779C8.51502 1.23608 8.28305 1.24964 8.06035 1.30769C7.83766 1.36575 7.6286 1.46716 7.44514 1.60612C7.26169 1.74508 7.10745 1.91886 6.99125 2.11751L5.49125 4.66001C5.3748 4.85835 5.2986 5.0777 5.26699 5.30552C5.23538 5.53333 5.24899 5.76514 5.30703 5.98769C5.36508 6.21025 5.46643 6.41917 5.60528 6.60253C5.74413 6.78588 5.91776 6.94006 6.11625 7.05626L10.705 9.75001L5.4925 18.6063C5.37586 18.8047 5.29949 19.0241 5.26778 19.2521C5.23607 19.48 5.24963 19.712 5.30768 19.9347C5.36574 20.1574 5.46715 20.3664 5.60611 20.5499C5.74507 20.7333 5.91885 20.8876 6.1175 21.0038L8.65875 22.5038C8.92527 22.663 9.22954 22.748 9.54 22.75C9.68895 22.7501 9.83728 22.7307 9.98125 22.6925C10.0387 22.6775 10.095 22.66 10.1512 22.64L9.35 28.25H4C3.80109 28.25 3.61032 28.329 3.46967 28.4697C3.32902 28.6103 3.25 28.8011 3.25 29C3.25 29.1989 3.32902 29.3897 3.46967 29.5303C3.61032 29.671 3.80109 29.75 4 29.75H28C28.1989 29.75 28.3897 29.671 28.5303 29.5303C28.671 29.3897 28.75 29.1989 28.75 29C28.75 28.8011 28.671 28.6103 28.5303 28.4697C28.3897 28.329 28.1989 28.25 28 28.25ZM25.2425 18.395C25.2586 18.4591 25.2488 18.527 25.215 18.5838L23.715 21.1263C23.6984 21.1548 23.6762 21.1797 23.6499 21.1996C23.6236 21.2195 23.5936 21.234 23.5616 21.2423C23.5297 21.2505 23.4964 21.2523 23.4637 21.2477C23.431 21.243 23.3996 21.2319 23.3713 21.215L14.515 16L16.265 13.025L25.125 18.2413C25.1538 18.2578 25.1791 18.2799 25.1992 18.3063C25.2194 18.3327 25.2341 18.3629 25.2425 18.395ZM22.2412 2.87501C22.258 2.84666 22.2803 2.8219 22.3066 2.80217C22.333 2.78243 22.3631 2.7681 22.395 2.76001C22.4589 2.7435 22.5268 2.75294 22.5837 2.78626L25.1262 4.28626C25.1549 4.30291 25.18 4.32509 25.2 4.35151C25.22 4.37794 25.2346 4.40808 25.2428 4.44018C25.2511 4.47229 25.2529 4.50572 25.2481 4.53852C25.2433 4.57133 25.2321 4.60285 25.215 4.63126L20 13.485L17.0238 11.735L22.2412 2.87501ZM6.7575 5.60626C6.74934 5.57434 6.74757 5.54113 6.75229 5.50852C6.757 5.47591 6.76812 5.44456 6.785 5.41626L8.28375 2.87501C8.31715 2.81792 8.37182 2.77639 8.43578 2.75952C8.49974 2.74265 8.56778 2.75182 8.625 2.78501L17.485 8.00001L15.735 10.975L6.875 5.75876C6.84631 5.74237 6.82115 5.72045 6.80098 5.69428C6.78081 5.6681 6.76604 5.63819 6.7575 5.60626ZM9.75875 21.125C9.74211 21.1533 9.72004 21.1781 9.69381 21.1979C9.66758 21.2177 9.63771 21.2322 9.6059 21.2404C9.57409 21.2486 9.54097 21.2505 9.50842 21.246C9.47588 21.2414 9.44456 21.2304 9.41625 21.2138L6.875 19.7163C6.8465 19.6996 6.82158 19.6775 6.80167 19.6512C6.78176 19.6248 6.76726 19.5948 6.75901 19.5629C6.75076 19.5309 6.74892 19.4976 6.7536 19.465C6.75827 19.4323 6.76937 19.4009 6.78625 19.3725L12 10.515L14.9762 12.265L9.75875 21.125ZM12.0087 20.265L13.7587 17.2938L20.1087 21.0313L21.135 28.25H10.865L12.0087 20.265Z" fill="white"/>
</svg>
