<svg width="32" height="32" viewBox="0 0 32 32" fill="none" xmlns="http://www.w3.org/2000/svg">
<path d="M25.4262 13.0288L22.7049 3.7875C22.6591 3.63238 22.5644 3.49624 22.4348 3.39937C22.3053 3.30251 22.1479 3.25011 21.9862 3.25H10.0137C9.85195 3.25011 9.69457 3.30251 9.56504 3.39937C9.43551 3.49624 9.34077 3.63238 9.29494 3.7875L6.57369 13.0288C6.16002 14.4009 6.13827 15.8614 6.51091 17.2452C6.88354 18.629 7.6357 19.8811 8.68244 20.86C10.4764 22.5422 12.7964 23.553 15.2499 23.7213V29.25H10.9999C10.801 29.25 10.6103 29.329 10.4696 29.4697C10.329 29.6103 10.2499 29.8011 10.2499 30C10.2499 30.1989 10.329 30.3897 10.4696 30.5303C10.6103 30.671 10.801 30.75 10.9999 30.75H20.9999C21.1989 30.75 21.3896 30.671 21.5303 30.5303C21.6709 30.3897 21.7499 30.1989 21.7499 30C21.7499 29.8011 21.6709 29.6103 21.5303 29.4697C21.3896 29.329 21.1989 29.25 20.9999 29.25H16.7499V23.7213C19.2034 23.5526 21.5233 22.5419 23.3174 20.86C24.3642 19.8811 25.1163 18.629 25.489 17.2452C25.8616 15.8614 25.8399 14.4009 25.4262 13.0288ZM10.5749 4.75H21.4249L23.9887 13.4537C24.0212 13.5662 24.0512 13.6788 24.0774 13.7913C21.2599 14.925 18.0562 13.7 16.3387 12.8313C13.0124 11.1463 10.4349 11.0425 8.60369 11.44L10.5749 4.75ZM22.2937 19.7638C20.5874 21.3613 18.3374 22.2502 15.9999 22.2502C13.6625 22.2502 11.4125 21.3613 9.70619 19.7638C8.86341 18.9746 8.25808 17.9656 7.95856 16.8505C7.65904 15.7355 7.67727 14.559 8.01119 13.4537L8.10369 13.14C9.64619 12.5825 12.1362 12.3837 15.6612 14.1687C17.0362 14.8625 19.2424 15.7487 21.6012 15.7487C22.5012 15.7547 23.3961 15.6124 24.2499 15.3275C24.2413 16.1609 24.0635 16.9839 23.7272 17.7464C23.3909 18.509 22.9032 19.1954 22.2937 19.7638Z" fill="white"/>
</svg>
