<svg width="32" height="32" viewBox="0 0 32 32" fill="none" xmlns="http://www.w3.org/2000/svg">
<path d="M28.1138 8.7187C28.0683 8.60625 27.9962 8.50652 27.9037 8.42805C27.8112 8.34959 27.701 8.29473 27.5827 8.26818C27.4643 8.24163 27.3413 8.24419 27.2241 8.27563C27.107 8.30707 26.9992 8.36646 26.91 8.4487L21.7763 13.1862L19.3375 12.6625L18.8138 10.2237L23.5513 5.08995C23.6335 5.00079 23.6929 4.89301 23.7243 4.77585C23.7558 4.6587 23.7583 4.53566 23.7318 4.4173C23.7052 4.29894 23.6504 4.18879 23.5719 4.09629C23.4935 4.00379 23.3937 3.9317 23.2813 3.8862C21.6533 3.22623 19.8643 3.07158 18.1472 3.44238C16.43 3.81317 14.8643 4.69223 13.6536 5.96517C12.443 7.23811 11.6435 8.84598 11.3593 10.5795C11.0751 12.3131 11.3193 14.0921 12.06 15.685L4.38627 22.3099C4.37252 22.3212 4.36002 22.3337 4.34627 22.3475C3.99786 22.6957 3.72145 23.1092 3.53283 23.5642C3.34421 24.0193 3.24706 24.5071 3.24695 24.9997C3.24671 25.9946 3.6417 26.9488 4.34502 27.6525C5.04835 28.3561 6.00239 28.7515 6.99727 28.7518C7.99215 28.752 8.94637 28.357 9.65002 27.6537C9.66377 27.6399 9.67627 27.6275 9.68752 27.6137L16.3125 19.94C17.9054 20.6807 19.6844 20.9249 21.4179 20.6407C23.1515 20.3564 24.7594 19.557 26.0323 18.3463C27.3052 17.1357 28.1843 15.57 28.5551 13.8528C28.9259 12.1357 28.7712 10.3467 28.1113 8.7187H28.1138ZM20 19.25C18.7759 19.2494 17.5718 18.9389 16.5 18.3475C16.3493 18.264 16.1745 18.235 16.0049 18.2652C15.8353 18.2955 15.6813 18.3833 15.5688 18.5137L8.57127 26.61C8.1464 27.017 7.57899 27.2414 6.99063 27.2351C6.40228 27.2288 5.8398 26.9923 5.42375 26.5762C5.0077 26.1602 4.77117 25.5977 4.76487 25.0093C4.75856 24.421 4.98298 23.8536 5.39002 23.4287L13.485 16.4362C13.6165 16.3232 13.7047 16.1682 13.7348 15.9976C13.7649 15.8269 13.7349 15.651 13.65 15.5C12.9712 14.2721 12.6633 12.8736 12.7635 11.4742C12.8638 10.0748 13.3679 8.73451 14.2148 7.61595C15.0617 6.49738 16.215 5.64857 17.5348 5.17247C18.8545 4.69636 20.2841 4.61342 21.65 4.9337L17.4475 9.4912C17.3662 9.57961 17.3072 9.68628 17.2757 9.80223C17.2441 9.91817 17.2409 10.04 17.2663 10.1575L17.9725 13.4512C18.0028 13.5926 18.0733 13.7222 18.1756 13.8244C18.2778 13.9267 18.4074 13.9972 18.5488 14.0275L21.8425 14.7337C21.96 14.7591 22.0818 14.7558 22.1977 14.7243C22.3137 14.6928 22.4204 14.6338 22.5088 14.5525L27.0613 10.35C27.3084 11.4136 27.3123 12.5194 27.0727 13.5848C26.8332 14.6502 26.3562 15.6478 25.6775 16.5033C24.9988 17.3587 24.1357 18.05 23.1527 18.5256C22.1697 19.0011 21.092 19.2488 20 19.25Z" fill="white"/>
</svg>
