<svg width="32" height="32" viewBox="0 0 32 32" fill="none" xmlns="http://www.w3.org/2000/svg">
<path d="M29 27.25H22C24.7457 25.7857 26.861 23.3678 27.9475 20.4519C29.0341 17.5361 29.0167 14.3235 27.8988 11.4195C26.7809 8.51555 24.6396 6.12063 21.8784 4.68598C19.1171 3.25133 15.9265 2.876 12.9077 3.6307C9.88889 4.38541 7.25028 6.21804 5.489 8.78333C3.72771 11.3486 2.96536 14.4694 3.34556 17.5579C3.72576 20.6463 5.22227 23.489 7.55314 25.5505C9.884 27.6121 12.8883 28.75 16 28.75H29C29.1989 28.75 29.3897 28.671 29.5304 28.5303C29.671 28.3897 29.75 28.1989 29.75 28C29.75 27.8011 29.671 27.6103 29.5304 27.4697C29.3897 27.329 29.1989 27.25 29 27.25ZM16 4.75002C18.1358 4.746 20.2282 5.35323 22.03 6.50002C20.6316 7.10363 19.2857 7.82235 18.0063 8.64877C16.0255 7.3732 13.8894 6.35699 11.65 5.62502C13.0272 5.04633 14.5062 4.74884 16 4.75002ZM9.77503 6.63377C12.2003 7.27935 14.5196 8.27167 16.6613 9.58002C15.6574 10.314 14.7037 11.1141 13.8063 11.975C11.6137 10.787 9.23879 9.97168 6.77878 9.56252C7.58723 8.40888 8.60327 7.41573 9.77503 6.63377ZM5.94753 10.9525C8.3053 11.2776 10.5907 12.0008 12.7063 13.0913C11.8877 13.9693 11.1265 14.8991 10.4275 15.875C8.67333 15.0641 6.79726 14.5484 4.87503 14.3488C5.04894 13.1667 5.41103 12.0201 5.94753 10.9525ZM6.88878 22.5913C5.49617 20.676 4.74731 18.3681 4.75003 16C4.75003 15.9475 4.75003 15.8963 4.75003 15.8438C6.41586 16.02 8.04387 16.4556 9.57503 17.135C8.48104 18.8491 7.58014 20.679 6.88878 22.5913ZM8.01378 23.9213C9.22016 20.2276 11.2268 16.8456 13.8905 14.0167C16.5542 11.1877 19.8093 8.98132 23.4238 7.55502C24.3581 8.37796 25.1504 9.34932 25.7688 10.43C22.2101 11.6206 19.0015 13.6736 16.4293 16.4059C13.8571 19.1382 12.0013 22.4648 11.0275 26.0888C9.9121 25.5369 8.8955 24.8045 8.01878 23.9213H8.01378ZM15.8888 27.2488C14.7092 27.2387 13.5385 27.0425 12.42 26.6675C13.3147 23.2109 15.0666 20.0358 17.5137 17.4358C19.9607 14.8358 23.024 12.8948 26.42 11.7925C26.8639 12.8854 27.1314 14.0419 27.2125 15.2188C24.495 16.1618 22.0461 17.7487 20.075 19.8438C18.104 21.9389 16.6694 24.48 15.8938 27.25L15.8888 27.2488ZM27.2163 16.8075C27.0271 19.387 25.9563 21.8229 24.1837 23.7064C22.4111 25.5898 20.0446 26.8062 17.4813 27.1513C18.2206 24.8047 19.4806 22.6556 21.1672 20.8644C22.8538 19.0733 24.9234 17.6864 27.2213 16.8075H27.2163Z" fill="white"/>
</svg>
