<svg preserveAspectRatio="none" width="100%" height="100%" overflow="visible" style="display: block;" viewBox="0 0 27 26.0142" fill="none" xmlns="http://www.w3.org/2000/svg">
<path id="Vector" d="M27 12.5142C27 16.0946 25.5777 19.5284 23.0459 22.0601C20.5142 24.5919 17.0804 26.0142 13.5 26.0142C9.91958 26.0142 6.4858 24.5919 3.95406 22.0601C1.42232 19.5284 0 16.0946 0 12.5142C0 7.1992 3.09125 2.3467 7.875 0.1517C8.05475 0.0640661 8.25021 0.0132592 8.44989 0.0022676C8.64956 -0.00872396 8.84942 0.0203217 9.0377 0.0876963C9.22599 0.155071 9.3989 0.259414 9.54627 0.39459C9.69364 0.529766 9.81249 0.693045 9.89584 0.874825C9.97919 1.0566 10.0253 1.25321 10.0316 1.45309C10.0379 1.65297 10.0041 1.85208 9.93226 2.03872C9.86044 2.22535 9.75202 2.39574 9.61339 2.53987C9.47476 2.68399 9.30871 2.79894 9.125 2.87795C5.405 4.58545 3 8.36795 3 12.5142C3 15.299 4.10625 17.9697 6.07538 19.9388C8.04451 21.908 10.7152 23.0142 13.5 23.0142C16.2848 23.0142 18.9555 21.908 20.9246 19.9388C22.8938 17.9697 24 15.299 24 12.5142C24 8.36795 21.595 4.58545 17.875 2.87795C17.6913 2.79894 17.5252 2.68399 17.3866 2.53987C17.248 2.39574 17.1396 2.22535 17.0677 2.03872C16.9959 1.85208 16.9621 1.65297 16.9684 1.45309C16.9747 1.25321 17.0208 1.0566 17.1042 0.874825C17.1875 0.693045 17.3064 0.529766 17.4537 0.39459C17.6011 0.259414 17.774 0.155071 17.9623 0.0876963C18.1506 0.0203217 18.3504 -0.00872396 18.5501 0.0022676C18.7498 0.0132592 18.9452 0.0640661 19.125 0.1517C23.9088 2.3467 27 7.1992 27 12.5142Z" fill="var(--fill-0, white)"/>
</svg>
