<svg preserveAspectRatio="none" width="100%" height="100%" overflow="visible" style="display: block;" viewBox="0 0 26 30" fill="none" xmlns="http://www.w3.org/2000/svg">
<path id="Vector" d="M26 12C25.998 10.1441 25.2599 8.36477 23.9476 7.05245C22.6352 5.74012 20.8559 5.00199 19 5H14C14 4.20435 14.3161 3.44129 14.8787 2.87868C15.4413 2.31607 16.2044 2 17 2C17.2652 2 17.5196 1.89464 17.7071 1.70711C17.8946 1.51957 18 1.26522 18 1C18 0.734784 17.8946 0.48043 17.7071 0.292893C17.5196 0.105357 17.2652 0 17 0C15.6739 0 14.4021 0.526784 13.4645 1.46447C12.5268 2.40215 12 3.67392 12 5H7C5.14409 5.00199 3.36477 5.74012 2.05245 7.05245C0.740121 8.36477 0.00198528 10.1441 0 12C0.000359742 12.3507 0.0929428 12.6952 0.268461 12.9988C0.44398 13.3025 0.696263 13.5546 1 13.73V15C1 19.4412 5.14 22.765 8.4675 25.4363C9.9575 26.6338 12 28.2725 12 29C12 29.2652 12.1054 29.5196 12.2929 29.7071C12.4804 29.8946 12.7348 30 13 30C13.2652 30 13.5196 29.8946 13.7071 29.7071C13.8946 29.5196 14 29.2652 14 29C14 28.2725 16.0425 26.6338 17.5325 25.4363C20.86 22.765 25 19.4412 25 15V13.73C25.3037 13.5546 25.556 13.3025 25.7315 12.9988C25.9071 12.6952 25.9996 12.3507 26 12ZM16.2812 23.875C14.9538 24.94 13.7812 25.875 13 26.7962C12.2188 25.8812 11.0462 24.94 9.71875 23.875C6.725 21.4738 3 18.4825 3 15V14H23V15C23 18.4825 19.275 21.4738 16.2812 23.875Z" fill="var(--fill-0, white)"/>
</svg>
