<svg preserveAspectRatio="none" width="100%" height="100%" overflow="visible" style="display: block;" viewBox="0 0 26 26" fill="none" xmlns="http://www.w3.org/2000/svg">
<path id="Vector" d="M13 0C10.4288 0 7.91543 0.762437 5.77759 2.1909C3.63975 3.61935 1.97351 5.64968 0.989572 8.02512C0.00563269 10.4006 -0.251811 13.0144 0.249797 15.5362C0.751405 18.0579 1.98953 20.3743 3.80762 22.1924C5.6257 24.0105 7.94208 25.2486 10.4638 25.7502C12.9856 26.2518 15.5995 25.9944 17.9749 25.0104C20.3503 24.0265 22.3807 22.3603 23.8091 20.2224C25.2376 18.0846 26 15.5712 26 13C25.9964 9.5533 24.6256 6.24882 22.1884 3.81163C19.7512 1.37445 16.4467 0.00363977 13 0ZM13 22C11.0186 22.0003 9.09238 21.3467 7.52031 20.1406C5.94823 18.9344 4.81813 17.2432 4.30531 15.3293C3.79249 13.4153 3.92563 11.3856 4.68407 9.55509C5.44251 7.72453 6.78385 6.19543 8.50001 5.205C8.72907 5.08061 8.99765 5.05058 9.24853 5.12131C9.49941 5.19203 9.71276 5.35791 9.84313 5.58362C9.9735 5.80933 10.0106 6.07703 9.9465 6.32968C9.88241 6.58233 9.7222 6.79998 9.50001 6.93625C8.16551 7.70672 7.12254 8.896 6.53285 10.3196C5.94316 11.7433 5.8397 13.3217 6.23853 14.8102C6.63735 16.2986 7.51617 17.6138 8.73868 18.5519C9.96119 19.49 11.4591 19.9984 13 19.9984C14.5409 19.9984 16.0388 19.49 17.2613 18.5519C18.4838 17.6138 19.3627 16.2986 19.7615 14.8102C20.1603 13.3217 20.0569 11.7433 19.4672 10.3196C18.8775 8.896 17.8345 7.70672 16.5 6.93625C16.2778 6.79998 16.1176 6.58233 16.0535 6.32968C15.9894 6.07703 16.0265 5.80933 16.1569 5.58362C16.2873 5.35791 16.5006 5.19203 16.7515 5.12131C17.0024 5.05058 17.2709 5.08061 17.5 5.205C19.2162 6.19543 20.5575 7.72453 21.3159 9.55509C22.0744 11.3856 22.2075 13.4153 21.6947 15.3293C21.1819 17.2432 20.0518 18.9344 18.4797 20.1406C16.9076 21.3467 14.9815 22.0003 13 22Z" fill="var(--fill-0, white)"/>
</svg>
