<svg preserveAspectRatio="none" width="100%" height="100%" overflow="visible" style="display: block;" viewBox="0 0 149.604 21.75" fill="none" xmlns="http://www.w3.org/2000/svg">
<path id="Vector" d="M2.1094 17.1914H0V0.28125H2.1094V17.1914ZM4.1142 17.1914V5.00387H6.0361V6.94927H6.083C6.7627 5.63677 8.0635 4.79297 9.9502 4.79297C12.6221 4.79297 14.1689 6.51567 14.1689 9.28127V17.1914H12.1299V9.64457C12.1299 7.67577 11.2041 6.59767 9.3291 6.59767C7.4072 6.59767 6.1533 7.95707 6.1533 10.0196V17.1914H4.1142ZM25.8066 5.00387L21.33 17.1914H19.2441L14.7558 5.00387H16.9003L20.2636 15.0235H20.3105L23.6855 5.00387H25.8066ZM30.9872 6.56247C29.0771 6.56247 27.7411 8.02737 27.6122 10.0547H34.2333C34.1864 8.01567 32.9091 6.56247 30.9872 6.56247ZM34.1864 13.6993H36.1903C35.8388 15.8321 33.7763 17.4024 31.1161 17.4024C27.6239 17.4024 25.5028 14.9766 25.5028 11.1446C25.5028 7.35937 27.6591 4.79297 31.0224 4.79297C34.3153 4.79297 36.3427 7.18357 36.3427 10.875V11.6485H27.6005V11.7657C27.6005 14.0977 28.9716 15.6328 31.163 15.6328C32.7099 15.6328 33.8466 14.8477 34.1864 13.6993ZM37.4452 17.1914V5.00387H39.3671V6.99607H39.4139C39.8124 5.64847 40.9374 4.79297 42.3671 4.79297C42.7186 4.79297 43.0233 4.85157 43.1874 4.87497V6.85547C43.0233 6.79687 42.5897 6.73827 42.0975 6.73827C40.5155 6.73827 39.4842 7.87497 39.4842 9.59767V17.1914H37.4452ZM44.5477 2.0625H46.5867V5.00387H48.9544V6.67967H46.5867V13.9219C46.5867 15.0352 47.0555 15.5391 48.0984 15.5391C48.3324 15.5391 48.8014 15.5039 48.9424 15.4805V17.1914C48.6964 17.25 48.1334 17.2852 47.6534 17.2852C45.4149 17.2852 44.5477 16.3711 44.5477 14.0274V6.67967H42.7313V5.00387H44.5477V2.0625ZM53.6434 12.5391H55.7644C55.9634 14.3672 57.6984 15.5743 60.1124 15.5743C62.3974 15.5743 64.0614 14.3672 64.0614 12.7032C64.0614 11.2735 63.0654 10.3946 60.7914 9.80857L58.6234 9.24607C55.5064 8.44927 54.1234 7.07817 54.1234 4.78127C54.1234 1.96875 56.5844 0 60.1004 0C63.4634 0 65.9014 1.99219 65.9944 4.82817H63.8854C63.6984 3.01177 62.2334 1.89844 60.0304 1.89844C57.8384 1.89844 56.3154 3.03517 56.3154 4.68747C56.3154 5.96487 57.2524 6.72657 59.5494 7.32427L61.3194 7.79297C64.8234 8.67187 66.2414 10.0196 66.2414 12.4453C66.2414 15.5391 63.8034 17.4727 59.9124 17.4727C56.3264 17.4727 53.8424 15.5274 53.6434 12.5391ZM68.0814 2.0625H70.1204V5.00387H72.4884V6.67967H70.1204V13.9219C70.1204 15.0352 70.5894 15.5391 71.6324 15.5391C71.8664 15.5391 72.3354 15.5039 72.4764 15.4805V17.1914C72.2304 17.25 71.6674 17.2852 71.1874 17.2852C68.9494 17.2852 68.0814 16.3711 68.0814 14.0274V6.67967H66.2654V5.00387H68.0814V2.0625ZM78.4074 17.4024C75.0324 17.4024 72.7584 14.9766 72.7584 11.0977C72.7584 7.20707 75.0324 4.79297 78.4074 4.79297C81.7704 4.79297 84.0434 7.20707 84.0434 11.0977C84.0434 14.9766 81.7704 17.4024 78.4074 17.4024ZM78.4074 15.6094C80.5634 15.6094 81.9694 13.9688 81.9694 11.0977C81.9694 8.22657 80.5634 6.58597 78.4074 6.58597C76.2504 6.58597 74.8324 8.22657 74.8324 11.0977C74.8324 13.9688 76.2504 15.6094 78.4074 15.6094ZM85.1464 17.1914V5.00387H87.0684V6.99607H87.1144C87.5134 5.64847 88.6384 4.79297 90.0684 4.79297C90.4194 4.79297 90.7244 4.85157 90.8884 4.87497V6.85547C90.7244 6.79687 90.2904 6.73827 89.7984 6.73827C88.2164 6.73827 87.1854 7.87497 87.1854 9.59767V17.1914H85.1464ZM92.6004 21.75C92.3544 21.75 91.9444 21.7266 91.7214 21.6797V19.9688C91.9444 20.0157 92.2604 20.0274 92.5184 20.0274C93.6544 20.0274 94.2874 19.4766 94.7564 18.0586L95.0374 17.2032L90.5374 5.00387H92.7174L96.0924 15.1524H96.1274L99.5024 5.00387H101.647L96.8544 18.0469C95.8114 20.8946 94.8034 21.75 92.6004 21.75ZM109.007 17.1914H102.62V0.28125H109.03C111.925 0.28125 113.882 1.96875 113.882 4.49997C113.882 6.25777 112.593 7.89847 110.964 8.19137V8.28517C113.261 8.57817 114.737 10.1953 114.737 12.4453C114.737 15.4219 112.605 17.1914 109.007 17.1914ZM104.73 2.14457V7.57027H107.894C110.39 7.57027 111.749 6.57427 111.749 4.74607C111.749 3.07027 110.601 2.14457 108.55 2.14457H104.73ZM104.73 15.3282H108.691C111.234 15.3282 112.569 14.2969 112.569 12.3399C112.569 10.3828 111.187 9.38677 108.491 9.38677H104.73V15.3282ZM120.902 17.4024C117.527 17.4024 115.254 14.9766 115.254 11.0977C115.254 7.20707 117.527 4.79297 120.902 4.79297C124.266 4.79297 126.539 7.20707 126.539 11.0977C126.539 14.9766 124.266 17.4024 120.902 17.4024ZM120.902 15.6094C123.059 15.6094 124.465 13.9688 124.465 11.0977C124.465 8.22657 123.059 6.58597 120.902 6.58597C118.746 6.58597 117.328 8.22657 117.328 11.0977C117.328 13.9688 118.746 15.6094 120.902 15.6094ZM132.692 17.4024C129.317 17.4024 127.044 14.9766 127.044 11.0977C127.044 7.20707 129.317 4.79297 132.692 4.79297C136.056 4.79297 138.329 7.20707 138.329 11.0977C138.329 14.9766 136.056 17.4024 132.692 17.4024ZM132.692 15.6094C134.849 15.6094 136.255 13.9688 136.255 11.0977C136.255 8.22657 134.849 6.58597 132.692 6.58597C130.536 6.58597 129.118 8.22657 129.118 11.0977C129.118 13.9688 130.536 15.6094 132.692 15.6094ZM141.576 10.418L146.967 5.00387H149.439L144.154 10.2657L149.604 17.1914H147.236L142.713 11.5196L141.576 12.5977V17.1914H139.537V0.28125H141.576V10.418Z" fill="var(--fill-0, #111111)"/>
</svg>
