<svg preserveAspectRatio="none" width="100%" height="100%" overflow="visible" style="display: block;" viewBox="0 0 25 23.9994" fill="none" xmlns="http://www.w3.org/2000/svg">
<path id="Vector" d="M25 11.4994C25 14.8146 23.683 17.994 21.3388 20.3382C18.9946 22.6824 15.8152 23.9994 12.5 23.9994C9.18479 23.9994 6.00537 22.6824 3.66117 20.3382C1.31696 17.994 0 14.8146 0 11.4994C0 6.57441 2.8625 2.07816 7.29125 0.0456579C7.35092 0.0182445 7.4154 0.00285253 7.48102 0.000360293C7.54664 -0.00213194 7.61211 0.00832459 7.67368 0.031133C7.73526 0.0539414 7.79174 0.0886549 7.8399 0.133292C7.88806 0.177928 7.92696 0.231614 7.95438 0.291283C7.98179 0.350952 7.99718 0.415437 7.99967 0.481055C8.00217 0.546673 7.99171 0.61214 7.9689 0.673716C7.94609 0.735293 7.91138 0.791774 7.86674 0.839936C7.8221 0.888097 7.76842 0.926995 7.70875 0.954408C3.63375 2.82441 1 6.96316 1 11.4994C1 14.5494 2.2116 17.4745 4.36827 19.6311C6.52494 21.7878 9.45001 22.9994 12.5 22.9994C15.55 22.9994 18.4751 21.7878 20.6317 19.6311C22.7884 17.4745 24 14.5494 24 11.4994C24 6.96316 21.3663 2.82441 17.2913 0.954408C17.2316 0.926995 17.1779 0.888097 17.1333 0.839936C17.0886 0.791774 17.0539 0.735293 17.0311 0.673716C17.0083 0.61214 16.9978 0.546673 17.0003 0.481055C17.0028 0.415437 17.0182 0.350952 17.0456 0.291283C17.073 0.231614 17.1119 0.177928 17.1601 0.133292C17.2083 0.0886549 17.2647 0.0539414 17.3263 0.031133C17.3879 0.00832459 17.4534 -0.00213194 17.519 0.000360293C17.5846 0.00285253 17.6491 0.0182445 17.7087 0.0456579C22.1375 2.07816 25 6.57441 25 11.4994Z" fill="var(--fill-0, white)"/>
</svg>
