<svg preserveAspectRatio="none" width="100%" height="100%" overflow="visible" style="display: block;" viewBox="0 0 27 31.0212" fill="none" xmlns="http://www.w3.org/2000/svg">
<path id="Vector" d="M27 12.5C26.9977 10.5116 26.2068 8.60528 24.8007 7.19926C23.3947 5.79324 21.4884 5.00232 19.5 5H15.05C15.1653 4.43532 15.4721 3.9278 15.9185 3.56335C16.365 3.19889 16.9237 2.99988 17.5 3C17.8978 3 18.2794 2.84196 18.5607 2.56066C18.842 2.27936 19 1.89782 19 1.5C19 1.10218 18.842 0.720644 18.5607 0.43934C18.2794 0.158035 17.8978 5.92805e-09 17.5 0C16.1285 0.00194692 14.8071 0.515527 13.7943 1.44027C12.7815 2.365 12.1501 3.63436 12.0238 5H7.5C5.51159 5.00232 3.60528 5.79324 2.19926 7.19926C0.793236 8.60528 0.00231576 10.5116 0 12.5C0 12.8881 0.0903627 13.2709 0.263932 13.618C0.437501 13.9652 0.68951 14.2671 1 14.5V15.5C1 20.1813 5.25 23.5888 8.65375 26.3263C9.93125 27.3513 11.8575 28.8987 12 29.5212C12 29.9191 12.158 30.3006 12.4393 30.5819C12.7206 30.8632 13.1022 31.0212 13.5 31.0212C13.8978 31.0212 14.2794 30.8632 14.5607 30.5819C14.842 30.3006 15 29.9191 15 29.5212C15.1425 28.8962 17.0688 27.3513 18.3463 26.3263C21.7563 23.5888 26 20.1813 26 15.5V14.5C26.3105 14.2671 26.5625 13.9652 26.7361 13.618C26.9096 13.2709 27 12.8881 27 12.5ZM7.5 8H19.5C20.6065 8.00156 21.6738 8.41005 22.4985 9.14768C23.3233 9.88531 23.8479 10.9005 23.9725 12H3.0275C3.15208 10.9005 3.67671 9.88531 4.50148 9.14768C5.32624 8.41005 6.39351 8.00156 7.5 8ZM16.4675 23.9875C15.3213 24.9075 14.285 25.7375 13.5 26.5562C12.715 25.74 11.6788 24.9075 10.5325 23.9875C7.625 21.65 4 18.7425 4 15.5V15H23V15.5C23 18.7425 19.375 21.65 16.4675 23.9875Z" fill="var(--fill-0, white)"/>
</svg>
