<svg preserveAspectRatio="none" width="100%" height="100%" overflow="visible" style="display: block;" viewBox="0 0 25.5 24.4886" fill="none" xmlns="http://www.w3.org/2000/svg">
<path id="Vector" d="M25.5 11.7386C25.5 15.1202 24.1567 18.3632 21.7656 20.7543C19.3745 23.1453 16.1315 24.4886 12.75 24.4886C9.36849 24.4886 6.12548 23.1453 3.73439 20.7543C1.3433 18.3632 0 15.1202 0 11.7386C0 6.71614 2.91875 2.13114 7.4375 0.0573911C7.61684 -0.0171121 7.81808 -0.0191505 7.99889 0.0517043C8.17969 0.122559 8.32597 0.260783 8.40694 0.437293C8.48791 0.613804 8.49725 0.81484 8.43301 0.998102C8.36877 1.18136 8.23595 1.33256 8.0625 1.41989C4.07625 3.24989 1.5 7.29989 1.5 11.7386C1.5 14.7223 2.68526 17.5838 4.79505 19.6936C6.90483 21.8034 9.76631 22.9886 12.75 22.9886C15.7337 22.9886 18.5952 21.8034 20.705 19.6936C22.8147 17.5838 24 14.7223 24 11.7386C24 7.29989 21.4237 3.24989 17.4375 1.41989C17.264 1.33256 17.1312 1.18136 17.067 0.998102C17.0027 0.81484 17.0121 0.613804 17.0931 0.437293C17.174 0.260783 17.3203 0.122559 17.5011 0.0517043C17.6819 -0.0191505 17.8832 -0.0171121 18.0625 0.0573911C22.5813 2.13114 25.5 6.71614 25.5 11.7386Z" fill="var(--fill-0, white)"/>
</svg>
