<svg preserveAspectRatio="none" width="100%" height="100%" overflow="visible" style="display: block;" viewBox="0 0 40 40" fill="none" xmlns="http://www.w3.org/2000/svg">
<path id="mask" d="M28 0C34.6274 2.57703e-07 40 5.37258 40 12V28C40 29.1008 39.8479 30.166 39.5703 31.1787C38.5725 30.4386 37.3377 30 36 30C32.6863 30 30 32.6863 30 36C30 37.3377 30.4386 38.5725 31.1787 39.5703C30.166 39.8479 29.1008 40 28 40H12C5.37258 40 2.57711e-07 34.6274 0 28V12C2.57711e-07 5.37258 5.37258 2.57703e-07 12 0H28Z" fill="var(--fill-0, black)"/>
</svg>
