<svg preserveAspectRatio="none" width="100%" height="100%" overflow="visible" style="display: block;" viewBox="0 0 13.9998 13.9992" fill="none" xmlns="http://www.w3.org/2000/svg">
<path id="Vector" d="M13.4811 1.13562C13.5052 1.05009 13.506 0.959682 13.4836 0.873703C13.4612 0.787724 13.4162 0.70928 13.3534 0.646447C13.2905 0.583613 13.2121 0.538659 13.1261 0.516214C13.0401 0.493768 12.9497 0.494642 12.8642 0.518744L0.864194 4.15749C0.766224 4.18514 0.679028 4.24204 0.614259 4.32057C0.549491 4.39911 0.510237 4.49554 0.501744 4.59698C0.493251 4.69842 0.515923 4.80004 0.566731 4.88825C0.617539 4.97646 0.694061 5.04706 0.786069 5.09062L6.25044 7.74937L8.90919 13.2131C8.95275 13.3051 9.02335 13.3816 9.11156 13.4325C9.19977 13.4833 9.30139 13.5059 9.40283 13.4974C9.50427 13.489 9.60071 13.4497 9.67924 13.3849C9.75778 13.3202 9.81467 13.233 9.84232 13.135L13.4811 1.13562Z" stroke="var(--stroke-0, white)" stroke-linecap="round" stroke-linejoin="round"/>
</svg>
