<svg preserveAspectRatio="none" width="100%" height="100%" overflow="visible" style="display: block;" viewBox="0 0 21.2571 24.3885" fill="none" xmlns="http://www.w3.org/2000/svg">
<g id="Group">
<g id="Group_2">
<path id="Vector" d="M15.8595 6.51154H8.37306V0.579783L12.6139 0.251368C14.3644 0.115843 15.8595 1.49969 15.8595 3.2554V6.51154Z" fill="var(--fill-0, #555A5E)"/>
<path id="Vector_2" d="M8.37307 0.579779H7.77453C6.45882 0.579779 5.39243 1.64635 5.39243 2.96188V6.51135L7.47266 5.07682L8.37307 0.579779Z" fill="var(--fill-0, #555A5E)"/>
</g>
<path id="Vector_3" d="M15.8595 5.96499C15.8595 9.26031 13.5165 11.9318 10.626 11.9318C8.19577 11.9318 6.1536 10.0438 5.56509 7.48548C5.45184 7.00093 5.39243 6.49038 5.39243 5.96499C5.39243 2.67153 7.73536 0 10.626 0C13.5165 0 15.8595 2.67153 15.8595 5.96499Z" fill="var(--fill-0, #555A5E)"/>
<g id="Group_3">
<path id="Vector_4" d="M21.2571 19.8735C20.3307 20.8333 19.2744 21.6687 18.1196 22.3482C18.0881 22.3668 18.0546 22.3872 18.0212 22.4058C15.8472 23.6663 13.3224 24.3885 10.6286 24.3885C8.01646 24.3885 5.56215 23.7109 3.43458 22.5209C3.33618 22.4652 3.23964 22.4095 3.14311 22.3538C1.98464 21.6687 0.924569 20.8333 2.35648e-05 19.8716L0.254365 18.8709C0.636808 17.3634 1.82498 16.1938 3.33618 15.8318L3.80217 15.7204L4.11592 15.6462L5.61413 15.2879L5.81835 15.2396L5.86476 15.2285C6.08011 15.1783 6.28619 15.1041 6.48112 15.0094C6.81715 14.8497 7.11791 14.6288 7.37039 14.3615C7.72684 13.9902 7.98861 13.5279 8.12043 13.0118L8.31722 12.245L8.37106 12.039L8.37477 12.0241L8.6254 11.0494L8.70152 10.758H12.5538L12.8397 11.8719L12.8657 11.9703L12.8805 12.0278L12.8842 12.0408L12.9381 12.2487L13.133 13.0118C13.3632 13.9048 13.9796 14.6344 14.7946 15.0205H14.7965C14.9858 15.1096 15.1845 15.1783 15.3905 15.2285L15.6393 15.2879L15.6523 15.2916L17.3566 15.6982L17.4643 15.7241L17.9191 15.8318C19.4303 16.1938 20.6185 17.3634 21.0009 18.8709L21.2571 19.8735Z" fill="var(--fill-0, #F4F4F4)"/>
<path id="Vector_5" d="M12.8791 12.0265C12.5523 13.4616 11.6677 14.4909 10.6269 14.4909C9.58542 14.4909 8.69912 13.4594 8.37311 12.0226L8.62449 11.0479L8.69986 10.7567H12.5518L12.8384 11.8706L12.8646 11.9704L12.8791 12.0265Z" fill="var(--fill-0, #D2D4DA)"/>
<path id="Vector_6" d="M6.31794 6.56557C4.39997 4.41349 5.67967 9.67449 6.74067 9.05961C8.60572 7.97875 6.31794 6.56557 6.31794 6.56557Z" fill="var(--fill-0, #F4F4F4)"/>
<path id="Vector_7" d="M14.9336 6.56557C16.8516 4.41349 15.5719 9.67449 14.5109 9.05961C12.6459 7.97875 14.9336 6.56557 14.9336 6.56557Z" fill="var(--fill-0, #F4F4F4)"/>
<path id="Vector_8" d="M15.0879 5.01389C15.0879 5.17727 15.0786 5.33878 15.0619 5.49659C15.0508 5.61169 15.0081 6.0127 14.9357 6.55852L14.9338 6.56594C14.7333 8.05673 14.3008 10.615 13.6176 11.2963C13.1274 11.7883 12.732 12.232 12.2846 12.5551C11.8353 12.8781 11.3322 13.0767 10.6267 13.0767H10.6249C9.21577 13.0767 8.61611 12.2766 7.63587 11.2963C7.14575 10.8062 6.78373 9.34886 6.54238 8.01402C6.53124 7.9509 6.5201 7.88593 6.51082 7.82466C6.4774 7.62601 6.44584 7.42922 6.41614 7.24171C6.26205 6.24476 6.18779 5.46503 6.18779 5.46503C6.17293 5.31651 6.16551 5.16613 6.16551 5.01389C6.16551 4.97491 6.16551 4.93592 6.16736 4.89694C6.17665 4.54606 6.22492 4.20445 6.31032 3.87771C6.31403 3.86285 6.3196 3.848 6.32331 3.83315C6.819 2.02119 8.4286 0.669646 10.3705 0.560111C10.4559 0.554542 10.5395 0.552683 10.6249 0.552683H10.6267C13.0903 0.552683 15.0879 2.5503 15.0879 5.01389Z" fill="var(--fill-0, #F4F4F4)"/>
</g>
<path id="Vector_9" d="M15.2049 5.04304C15.2049 5.21069 15.1954 5.37647 15.1782 5.53836C15.1668 5.65643 14.9337 6.56539 14.9337 6.56539C10.3917 6.36526 8.46426 4.20482 8.46426 4.20482C7.6641 6.55387 6.41615 7.24171 6.41615 7.24171C6.25797 6.21859 6.07139 5.50606 6.07139 5.50606C6.05617 5.35364 6.04856 5.19936 6.04856 5.04304C6.04856 5.00294 6.04856 4.96303 6.05042 4.92311C6.05988 4.56295 6.10945 4.21244 6.19708 3.87715C6.20098 3.86193 6.20655 3.8467 6.21045 3.83148C6.71913 1.97199 8.37087 0.584987 10.3637 0.472667C10.4513 0.466912 10.5371 0.465058 10.6247 0.465058H10.6265C13.1547 0.465058 15.2049 2.51502 15.2049 5.04304Z" fill="var(--fill-0, #555A5E)"/>
<g id="Group_4">
<path id="Vector_10" d="M21.2571 19.8735C20.3307 20.8333 19.2744 21.6687 18.1196 22.3482C18.0881 22.3668 18.0546 22.3872 18.0212 22.4058C16.8887 23.063 15.6597 23.5735 14.362 23.9114C13.1701 24.2233 11.9188 24.3885 10.6286 24.3885C9.34943 24.3885 8.10928 24.227 6.92667 23.9188C5.69209 23.6032 4.52063 23.1279 3.43457 22.5209C3.33617 22.4652 3.23963 22.4095 3.14309 22.3538C1.98463 21.6687 0.924557 20.8333 1.17824e-05 19.8716L0.254354 18.8709C0.636796 17.3635 1.82497 16.1938 3.33617 15.8318L3.80216 15.7204L4.11591 15.6462L5.61412 15.2879L5.81833 15.2396L5.86475 15.2285C6.0801 15.1783 6.28618 15.1041 6.48111 15.0094L6.48668 15.0112L8.074 16.5986C8.4156 16.9383 8.81661 17.2056 9.25289 17.3876C9.68917 17.5677 10.1626 17.6642 10.6453 17.6642C11.6088 17.6642 12.5334 17.2799 13.2166 16.5986L14.7946 15.0205H14.7964C14.9858 15.1096 15.1845 15.1783 15.3905 15.2285L15.6393 15.2879L15.6523 15.2916L17.3566 15.6982L17.4643 15.7241L17.9191 15.8318C19.4303 16.1938 20.6185 17.3635 21.0009 18.8709L21.2571 19.8735Z" fill="var(--fill-0, #555A5E)"/>
<path id="Vector_11" d="M14.3917 23.4473C14.3917 23.6051 14.3824 23.7592 14.362 23.9114C13.1701 24.2233 11.9188 24.3885 10.6286 24.3885C9.34942 24.3885 8.10927 24.227 6.92667 23.9188C6.90625 23.7647 6.89697 23.6069 6.89697 23.4473C6.89697 21.3772 8.57526 19.699 10.6453 19.699C12.7153 19.699 14.3917 21.3772 14.3917 23.4473Z" fill="var(--fill-0, #6E7174)"/>
</g>
</g>
</svg>
