<svg preserveAspectRatio="none" width="100%" height="100%" overflow="visible" style="display: block;" viewBox="0 0 177.841 211" fill="none" xmlns="http://www.w3.org/2000/svg">
<g id="Group">
<path id="Vector" d="M177.841 173.211C155.366 196.509 123.836 211 88.9204 211C54.0046 211 22.4592 196.509 0 173.211L2.12787 164.823C5.34298 152.227 15.2679 142.442 27.9264 139.413L49.0809 134.365C50.8671 133.93 52.5756 133.325 54.191 132.548C54.2686 132.517 54.3463 132.47 54.4239 132.424C57.1575 131.088 59.6116 129.286 61.6774 127.112C64.644 123.99 66.834 120.138 67.9523 115.805L69.5987 109.406L70.0336 107.681L70.0646 107.542L72.177 99.3874L72.7982 96.9489H105.027L107.434 106.268L107.652 107.107L107.776 107.573L107.792 107.681L108.242 109.421L109.889 115.805C111.83 123.322 117.033 129.473 123.914 132.672C125.452 133.387 127.082 133.962 128.76 134.365L149.914 139.413C162.573 142.442 172.498 152.227 175.713 164.823L177.841 173.211Z" fill="var(--fill-0, #F4F4F4)"/>
<g id="Group_2">
<path id="Vector_2" d="M177.841 173.211C155.366 196.509 123.836 211 88.9204 211C54.0046 211 22.4592 196.509 0 173.211L2.12787 164.823C5.34298 152.227 15.2679 142.442 27.9264 139.413L49.0809 134.365C50.8671 133.93 52.5756 133.325 54.191 132.548L72.9396 163.662C80.2707 175.828 97.9118 175.828 105.243 163.662L123.914 132.672C125.452 133.387 127.082 133.962 128.76 134.365L149.914 139.413C162.573 142.442 172.498 152.227 175.713 164.823L177.841 173.211Z" fill="var(--fill-0, #6E7174)"/>
<g id="Group_3">
<path id="Vector_3" d="M93.9855 184.881C93.9855 187.095 92.1916 188.889 89.9783 188.889C87.765 188.889 85.971 187.095 85.971 184.881C85.971 182.668 87.765 180.874 89.9783 180.874C92.1916 180.874 93.9855 182.668 93.9855 184.881Z" fill="var(--fill-0, #D2D4DA)"/>
<path id="Vector_4" d="M93.9856 199.85C93.9856 202.063 92.1916 203.857 89.9783 203.857C87.765 203.857 85.9711 202.063 85.9711 199.85C85.9711 197.636 87.765 195.842 89.9783 195.842C92.1916 195.842 93.9856 197.636 93.9856 199.85Z" fill="var(--fill-0, #D2D4DA)"/>
</g>
</g>
<path id="Vector_5" d="M107.779 107.576C105.046 119.582 97.6445 128.193 88.9373 128.193C80.2239 128.193 72.8089 119.563 70.0815 107.543L72.1845 99.389L72.8151 96.952H105.041L107.439 106.27L107.658 107.105L107.779 107.576Z" fill="var(--fill-0, #D2D4DA)"/>
<path id="Vector_6" d="M48.3944 61.8871C32.3483 43.8824 43.0545 87.8969 51.931 82.7527C67.5344 73.71 48.3944 61.8871 48.3944 61.8871Z" fill="var(--fill-0, #F4F4F4)"/>
<path id="Vector_7" d="M129.477 61.8871C145.523 43.8824 134.817 87.8969 125.94 82.7527C110.337 73.71 129.477 61.8871 129.477 61.8871Z" fill="var(--fill-0, #F4F4F4)"/>
<path id="Vector_8" d="M131.281 48.2888C131.281 52.4514 130.815 56.4897 129.945 60.3416V60.3571C125.254 81.1855 108.682 96.5621 88.9405 96.5621C65.5494 96.5621 46.5849 74.9572 46.5849 48.2888C46.5849 33.5024 52.4093 20.2847 61.5887 11.4315C68.9664 4.30233 78.5186 0 88.9405 0C112.333 0 131.281 21.6205 131.281 48.2888Z" fill="var(--fill-0, #555A5E)"/>
<path id="Vector_9" d="M126.265 48.9101C126.265 50.2769 126.188 51.6126 126.032 52.9484C125.691 56.4897 121.761 93.6576 113.948 101.47C109.863 105.571 106.555 109.298 102.796 111.985C99.0377 114.688 94.8441 116.365 88.9264 116.365C83.0243 116.365 78.8151 114.688 75.0564 112.001C71.3132 109.298 68.0049 105.571 63.9044 101.47C60.2078 97.7736 57.381 87.4759 55.3929 77.287L55.3774 77.2714C55.1755 76.1686 54.958 75.0814 54.7716 73.9941C54.6785 73.4661 54.5853 72.938 54.4921 72.4099C52.6904 61.8792 51.7895 52.6688 51.7895 52.6688C51.6808 51.4418 51.6032 50.1837 51.6032 48.9101C51.6032 48.5839 51.6187 48.2577 51.6187 47.9315C51.6963 44.996 52.1157 42.1381 52.8302 39.4045C52.8612 39.2802 52.8923 39.156 52.9233 39.0318C55.0512 31.2968 59.5866 24.5715 65.7062 19.71C71.5617 15.0349 78.8462 12.0838 86.7985 11.6489C87.4975 11.6023 88.212 11.5868 88.9264 11.5868C99.2397 11.5868 108.574 15.7649 115.331 22.5057C122.087 29.2621 126.265 38.5968 126.265 48.9101Z" fill="var(--fill-0, #F4F4F4)"/>
<path id="Vector_10" d="M94.9545 85.5887C94.9545 88.1655 92.3296 90.253 89.0834 90.253C85.8528 90.253 83.2279 88.1655 83.2279 85.5887C83.2279 85.2796 83.2589 84.9722 83.3521 84.6833C83.8647 86.8236 86.2411 88.442 89.0834 88.442C91.9413 88.442 94.3177 86.8236 94.8303 84.6833C94.9235 84.9706 94.9545 85.2796 94.9545 85.5887Z" fill="var(--fill-0, #DEDFE0)"/>
<path id="Vector_11" d="M52.7508 60.8277C52.7508 60.8277 71.5274 64.4078 89.0909 35.2854V5.92383L63.5719 16.2728L50.5624 35.0462L49.0868 50.9308L52.7508 60.8277Z" fill="var(--fill-0, #555A5E)"/>
<path id="Vector_12" d="M125.431 60.8277C125.431 60.8277 106.655 64.4078 89.0911 35.2854V5.92383L114.61 16.2728L127.62 35.0462L129.095 50.9308L125.431 60.8277Z" fill="var(--fill-0, #555A5E)"/>
<path id="Vector_13" d="M134.895 115.463V170.011C120.248 170.011 108.366 158.129 108.366 143.467V107.138C110.137 105.383 111.938 103.472 113.942 101.469C115.884 99.5272 117.577 95.7839 119.052 91.171C122.081 92.5067 124.814 94.3861 127.129 96.7003C131.928 101.515 134.895 108.132 134.895 115.463Z" fill="var(--fill-0, #555A5E)"/>
</g>
</svg>
