<svg preserveAspectRatio="none" width="100%" height="100%" overflow="visible" style="display: block;" viewBox="0 0 14.1714 16.259" fill="none" xmlns="http://www.w3.org/2000/svg">
<g id="Group">
<g id="Group_2">
<path id="Vector" d="M10.573 4.34103H5.58204V0.386522L8.40927 0.167579C9.57627 0.0772283 10.573 0.999793 10.573 2.17027V4.34103Z" fill="var(--fill-0, #555A5E)"/>
<path id="Vector_2" d="M5.58205 0.386519H5.18302C4.30588 0.386519 3.59496 1.09757 3.59496 1.97459V4.3409L4.98177 3.38455L5.58205 0.386519Z" fill="var(--fill-0, #555A5E)"/>
</g>
<path id="Vector_3" d="M10.573 3.97666C10.573 6.17354 9.01103 7.95455 7.08397 7.95455C5.46385 7.95455 4.1024 6.69584 3.71006 4.99032C3.63456 4.66728 3.59495 4.32692 3.59495 3.97666C3.59495 1.78102 5.1569 0 7.08397 0C9.01103 0 10.573 1.78102 10.573 3.97666Z" fill="var(--fill-0, #555A5E)"/>
<g id="Group_3">
<path id="Vector_4" d="M14.1714 13.249C13.5538 13.8889 12.8496 14.4458 12.0798 14.8988C12.0587 14.9112 12.0364 14.9248 12.0142 14.9372C10.5648 15.7775 8.88159 16.259 7.08572 16.259C5.34431 16.259 3.7081 15.8073 2.28972 15.0139C2.22412 14.9768 2.15976 14.9396 2.0954 14.9025C1.32309 14.4458 0.616379 13.8889 1.57099e-05 13.2477L0.169577 12.5806C0.424539 11.5756 1.21665 10.7959 2.22412 10.5545L2.53478 10.4803L2.74395 10.4308L3.74275 10.1919L3.8789 10.1597L3.90984 10.1523C4.05341 10.1189 4.19079 10.0694 4.32075 10.0063C4.54477 9.89982 4.74527 9.75253 4.9136 9.57431C5.15123 9.32677 5.32574 9.01859 5.41362 8.67452L5.54481 8.16335L5.58071 8.02597L5.58318 8.01607L5.75027 7.36629L5.80101 7.17197H8.36919L8.55979 7.91458L8.57712 7.98018L8.58702 8.01854L8.5895 8.02721L8.62539 8.16583L8.75535 8.67452C8.90882 9.26984 9.31973 9.75625 9.86307 10.0137H9.86431C9.99055 10.0731 10.123 10.1189 10.2604 10.1523L10.4262 10.1919L10.4349 10.1944L11.5711 10.4654L11.6429 10.4828L11.9461 10.5545C12.9536 10.7959 13.7457 11.5756 14.0006 12.5806L14.1714 13.249Z" fill="var(--fill-0, #F4F4F4)"/>
<path id="Vector_5" d="M8.58604 8.01768C8.36821 8.9744 7.77846 9.66057 7.08462 9.66057C6.39028 9.66057 5.79941 8.97292 5.58207 8.01508L5.74966 7.3653L5.79991 7.1711H8.36784L8.55894 7.91371L8.57639 7.9803L8.58604 8.01768Z" fill="var(--fill-0, #D2D4DA)"/>
<path id="Vector_6" d="M4.21196 4.37704C2.93331 2.94233 3.78644 6.44966 4.49378 6.03974C5.73715 5.31917 4.21196 4.37704 4.21196 4.37704Z" fill="var(--fill-0, #F4F4F4)"/>
<path id="Vector_7" d="M9.95576 4.37704C11.2344 2.94233 10.3813 6.44966 9.67394 6.03974C8.43057 5.31917 9.95576 4.37704 9.95576 4.37704Z" fill="var(--fill-0, #F4F4F4)"/>
<path id="Vector_8" d="M10.0586 3.34259C10.0586 3.45151 10.0524 3.55919 10.0413 3.66439C10.0339 3.74113 10.0054 4.00847 9.95713 4.37234L9.95589 4.3773C9.82222 5.37115 9.53384 7.07667 9.07838 7.5309C8.75163 7.85888 8.488 8.15469 8.18972 8.37004C7.8902 8.5854 7.5548 8.71783 7.08448 8.71783H7.08324C6.14384 8.71783 5.74407 8.18439 5.09058 7.5309C4.76383 7.20415 4.52248 6.23257 4.36159 5.34268C4.35416 5.3006 4.34673 5.25728 4.34055 5.21644C4.31827 5.08401 4.29723 4.95281 4.27742 4.82781C4.1747 4.16318 4.12519 3.64335 4.12519 3.64335C4.11529 3.54434 4.11034 3.44408 4.11034 3.34259C4.11034 3.3166 4.11034 3.29062 4.11157 3.26462C4.11776 3.0307 4.14994 2.80297 4.20688 2.58514C4.20935 2.57524 4.21306 2.56534 4.21554 2.55543C4.546 1.34746 5.61907 0.44643 6.91368 0.373407C6.97061 0.369694 7.02631 0.368456 7.08324 0.368456H7.08448C8.72688 0.368456 10.0586 1.7002 10.0586 3.34259Z" fill="var(--fill-0, #F4F4F4)"/>
</g>
<path id="Vector_9" d="M10.1366 3.36203C10.1366 3.47379 10.1303 3.58431 10.1188 3.69224C10.1112 3.77096 9.95577 4.37693 9.95577 4.37693C6.9278 4.2435 5.64284 2.80321 5.64284 2.80321C5.1094 4.36925 4.27743 4.82781 4.27743 4.82781C4.17198 4.14572 4.04759 3.6707 4.04759 3.6707C4.03745 3.56909 4.03237 3.46624 4.03237 3.36203C4.03237 3.33529 4.03237 3.30868 4.03361 3.28207C4.03992 3.04197 4.07297 2.80829 4.13139 2.58477C4.13398 2.57462 4.1377 2.56447 4.1403 2.55432C4.47942 1.31466 5.58058 0.389991 6.9091 0.315111C6.96752 0.311275 7.0247 0.310039 7.08312 0.310039H7.08436C8.76983 0.310039 10.1366 1.67668 10.1366 3.36203Z" fill="var(--fill-0, #555A5E)"/>
<g id="Group_4">
<path id="Vector_10" d="M14.1714 13.249C13.5538 13.8889 12.8496 14.4458 12.0797 14.8988C12.0587 14.9112 12.0364 14.9248 12.0141 14.9372C11.2592 15.3753 10.4398 15.7157 9.57468 15.9409C8.78009 16.1489 7.9459 16.259 7.08571 16.259C6.23295 16.259 5.40618 16.1513 4.61778 15.9459C3.79473 15.7355 3.01375 15.4186 2.28971 15.0139C2.22411 14.9768 2.15976 14.9396 2.0954 14.9025C1.32309 14.4458 0.616371 13.8888 7.85494e-06 13.2477L0.169569 12.5806C0.424531 11.5756 1.21664 10.7959 2.22411 10.5545L2.53477 10.4803L2.74394 10.4308L3.74275 10.1919L3.87889 10.1597L3.90983 10.1523C4.0534 10.1189 4.19078 10.0694 4.32074 10.0063L4.32445 10.0075L5.38267 11.0657C5.6104 11.2922 5.87774 11.4704 6.16859 11.5917C6.45945 11.7118 6.77506 11.7761 7.09685 11.7761C7.73921 11.7761 8.35557 11.5199 8.81104 11.0657L9.86306 10.0137H9.8643C9.99054 10.0731 10.123 10.1189 10.2604 10.1523L10.4262 10.1919L10.4349 10.1944L11.5711 10.4654L11.6428 10.4828L11.9461 10.5545C12.9535 10.7959 13.7457 11.5756 14.0006 12.5806L14.1714 13.249Z" fill="var(--fill-0, #555A5E)"/>
<path id="Vector_11" d="M9.59448 15.6315C9.59448 15.7367 9.58829 15.8394 9.57468 15.9409C8.78009 16.1489 7.94589 16.259 7.08571 16.259C6.23295 16.259 5.40618 16.1513 4.61778 15.9459C4.60416 15.8431 4.59798 15.7379 4.59798 15.6315C4.59798 14.2515 5.71684 13.1326 7.09685 13.1326C8.47686 13.1326 9.59448 14.2515 9.59448 15.6315Z" fill="var(--fill-0, #6E7174)"/>
</g>
</g>
</svg>
