<svg preserveAspectRatio="none" width="100%" height="100%" overflow="visible" style="display: block;" viewBox="0 0 35.4286 40.6475" fill="none" xmlns="http://www.w3.org/2000/svg">
<g id="Group">
<g id="Group_2">
<path id="Vector" d="M26.4324 10.8526H13.9551V0.966304L21.0232 0.418947C23.9407 0.193071 26.4324 2.49948 26.4324 5.42566V10.8526Z" fill="var(--fill-0, #555A5E)"/>
<path id="Vector_2" d="M13.9551 0.966298H12.9575C10.7647 0.966298 8.98739 2.74392 8.98739 4.93647V10.8523L12.4544 8.46137L13.9551 0.966298Z" fill="var(--fill-0, #555A5E)"/>
</g>
<path id="Vector_3" d="M26.4325 9.94165C26.4325 15.4338 22.5276 19.8864 17.7099 19.8864C13.6596 19.8864 10.256 16.7396 9.27514 12.4758C9.0864 11.6682 8.98738 10.8173 8.98738 9.94165C8.98738 4.45255 12.8923 0 17.7099 0C22.5276 0 26.4325 4.45255 26.4325 9.94165Z" fill="var(--fill-0, #555A5E)"/>
<g id="Group_3">
<path id="Vector_4" d="M35.4286 33.1224C33.8846 34.7221 32.124 36.1145 30.1994 37.247C30.1468 37.2779 30.0911 37.312 30.0354 37.3429C26.4121 39.4439 22.204 40.6475 17.7143 40.6475C13.3608 40.6475 9.27025 39.5181 5.7243 37.5348C5.56031 37.4419 5.39941 37.3491 5.23851 37.2563C3.30773 36.1145 1.54095 34.7221 3.92747e-05 33.1193L0.423942 31.4516C1.06135 28.9391 3.04163 26.9897 5.5603 26.3864L6.33695 26.2007L6.85987 26.077L9.35688 25.4798L9.69724 25.3993L9.7746 25.3808C10.1335 25.2972 10.477 25.1735 10.8019 25.0156C11.3619 24.7495 11.8632 24.3813 12.284 23.9358C12.8781 23.3169 13.3144 22.5465 13.534 21.6863L13.862 20.4084L13.9518 20.0649L13.9579 20.0402L14.3757 18.4157L14.5025 17.9299H20.923L21.3995 19.7865L21.4428 19.9504L21.4676 20.0464L21.4737 20.068L21.5635 20.4146L21.8884 21.6863C22.272 23.1746 23.2993 24.3906 24.6577 25.0342H24.6608C24.9764 25.1827 25.3075 25.2972 25.6509 25.3808L26.0655 25.4798L26.0872 25.486L28.9277 26.1636L29.1071 26.2069L29.8652 26.3864C32.3839 26.9897 34.3642 28.9391 35.0016 31.4516L35.4286 33.1224Z" fill="var(--fill-0, #F4F4F4)"/>
<path id="Vector_5" d="M21.4651 20.0442C20.9205 22.436 19.4462 24.1514 17.7115 24.1514C15.9757 24.1514 14.4985 22.4323 13.9552 20.0377L14.3741 18.4132L14.4998 17.9278H20.9196L21.3973 19.7843L21.441 19.9507L21.4651 20.0442Z" fill="var(--fill-0, #D2D4DA)"/>
<path id="Vector_6" d="M10.5299 10.9426C7.33328 7.35582 9.46611 16.1242 11.2344 15.0994C14.3429 13.2979 10.5299 10.9426 10.5299 10.9426Z" fill="var(--fill-0, #F4F4F4)"/>
<path id="Vector_7" d="M24.8894 10.9426C28.086 7.35582 25.9532 16.1242 24.1849 15.0994C21.0764 13.2979 24.8894 10.9426 24.8894 10.9426Z" fill="var(--fill-0, #F4F4F4)"/>
<path id="Vector_8" d="M25.1465 8.35649C25.1465 8.62878 25.1311 8.89797 25.1032 9.16098C25.0847 9.35282 25.0135 10.0212 24.8928 10.9309L24.8897 10.9432C24.5556 13.4279 23.8346 17.6917 22.6959 18.8272C21.8791 19.6472 21.22 20.3867 20.4743 20.9251C19.7255 21.4635 18.887 21.7946 17.7112 21.7946H17.7081C15.3596 21.7946 14.3602 20.461 12.7264 18.8272C11.9096 18.0104 11.3062 15.5814 10.904 13.3567C10.8854 13.2515 10.8668 13.1432 10.8514 13.0411C10.7957 12.71 10.7431 12.382 10.6936 12.0695C10.4367 10.4079 10.313 9.10838 10.313 9.10838C10.2882 8.86085 10.2758 8.61021 10.2758 8.35649C10.2758 8.29151 10.2758 8.22654 10.2789 8.16156C10.2944 7.57676 10.3749 7.00742 10.5172 6.46284C10.5234 6.43809 10.5327 6.41334 10.5389 6.38858C11.365 3.36865 14.0477 1.11608 17.2842 0.933518C17.4265 0.924236 17.5658 0.921139 17.7081 0.921139H17.7112C21.8172 0.921139 25.1465 4.25049 25.1465 8.35649Z" fill="var(--fill-0, #F4F4F4)"/>
</g>
<path id="Vector_9" d="M25.3415 8.40507C25.3415 8.68447 25.3257 8.96079 25.2969 9.2306C25.2781 9.42739 24.8894 10.9423 24.8894 10.9423C17.3195 10.6088 14.1071 7.00804 14.1071 7.00804C12.7735 10.9231 10.6936 12.0695 10.6936 12.0695C10.43 10.3643 10.119 9.17676 10.119 9.17676C10.0936 8.92272 10.0809 8.6656 10.0809 8.40507C10.0809 8.33823 10.0809 8.27171 10.084 8.20519C10.0998 7.60491 10.1824 7.02073 10.3285 6.46192C10.335 6.43654 10.3442 6.41117 10.3507 6.3858C11.1986 3.28665 13.9515 0.974978 17.2728 0.787779C17.4188 0.778187 17.5618 0.775097 17.7078 0.775097H17.7109C21.9246 0.775097 25.3415 4.19171 25.3415 8.40507Z" fill="var(--fill-0, #555A5E)"/>
<g id="Group_4">
<path id="Vector_10" d="M35.4285 33.1224C33.8845 34.7221 32.1239 36.1145 30.1994 37.247C30.1468 37.2779 30.0911 37.312 30.0354 37.3429C28.1479 38.4383 26.0995 39.2892 23.9367 39.8523C21.9502 40.3721 19.8647 40.6475 17.7143 40.6475C15.5824 40.6475 13.5155 40.3783 11.5445 39.8647C9.48682 39.3387 7.53438 38.5466 5.72428 37.5348C5.56029 37.4419 5.39939 37.3491 5.23849 37.2563C3.30771 36.1145 1.54093 34.7221 1.96374e-05 33.1193L0.423923 31.4516C1.06133 28.9391 3.04161 26.9897 5.56028 26.3864L6.33693 26.2007L6.85985 26.077L9.35686 25.4798L9.69722 25.3993L9.77458 25.3808C10.1335 25.2972 10.477 25.1735 10.8019 25.0156L10.8111 25.0187L13.4567 27.6643C14.026 28.2305 14.6943 28.6761 15.4215 28.9793C16.1486 29.2794 16.9376 29.4403 17.7421 29.4403C19.348 29.4403 20.8889 28.7998 22.0276 27.6643L24.6577 25.0342H24.6607C24.9764 25.1827 25.3074 25.2972 25.6509 25.3808L26.0655 25.4798L26.0872 25.486L28.9276 26.1636L29.1071 26.2069L29.8652 26.3864C32.3839 26.9897 34.3641 28.9391 35.0015 31.4516L35.4285 33.1224Z" fill="var(--fill-0, #555A5E)"/>
<path id="Vector_11" d="M23.9862 39.0788C23.9862 39.3418 23.9707 39.5986 23.9367 39.8523C21.9502 40.3721 19.8647 40.6475 17.7143 40.6475C15.5824 40.6475 13.5155 40.3783 11.5444 39.8647C11.5104 39.6079 11.4949 39.3449 11.4949 39.0788C11.4949 35.6287 14.2921 32.8316 17.7421 32.8316C21.1921 32.8316 23.9862 35.6287 23.9862 39.0788Z" fill="var(--fill-0, #6E7174)"/>
</g>
</g>
</svg>
