<svg preserveAspectRatio="none" width="100%" height="100%" overflow="visible" style="display: block;" viewBox="0 0 25 29" fill="none" xmlns="http://www.w3.org/2000/svg">
<path id="Vector" d="M25 11.5C24.998 9.7767 24.3126 8.12455 23.094 6.906C21.8754 5.68744 20.2233 5.00198 18.5 5H13V4.5C13 3.57174 13.3687 2.6815 14.0251 2.02513C14.6815 1.36875 15.5717 1 16.5 1C16.6326 1 16.7598 0.947321 16.8536 0.853553C16.9473 0.759785 17 0.632608 17 0.5C17 0.367392 16.9473 0.240215 16.8536 0.146447C16.7598 0.0526784 16.6326 0 16.5 0C15.3065 0 14.1619 0.474106 13.318 1.31802C12.4741 2.16193 12 3.30653 12 4.5V5H6.5C4.7767 5.00198 3.12455 5.68744 1.906 6.906C0.687442 8.12455 0.00198499 9.7767 0 11.5C0.000354093 11.8099 0.0966843 12.1121 0.275749 12.365C0.454815 12.6179 0.707824 12.8092 1 12.9125V14.5C1 18.7013 5.03625 21.9425 8.28 24.5462C10.1925 26.0825 12 27.5337 12 28.5C12 28.6326 12.0527 28.7598 12.1464 28.8536C12.2402 28.9473 12.3674 29 12.5 29C12.6326 29 12.7598 28.9473 12.8536 28.8536C12.9473 28.7598 13 28.6326 13 28.5C13 27.5337 14.8075 26.0825 16.72 24.5462C19.9637 21.9425 24 18.7013 24 14.5V12.9125C24.2922 12.8092 24.5452 12.6179 24.7243 12.365C24.9033 12.1121 24.9996 11.8099 25 11.5ZM16.0938 23.7663C14.53 25.0225 13.19 26.0975 12.5 27.115C11.81 26.0975 10.47 25.0225 8.90625 23.7663C5.82875 21.2963 2 18.2225 2 14.5V13H23V14.5C23 18.2225 19.1713 21.2963 16.0938 23.7663ZM23.5 12H1.5C1.36739 12 1.24021 11.9473 1.14645 11.8536C1.05268 11.7598 1 11.6326 1 11.5C1.00165 10.0418 1.58165 8.64383 2.61274 7.61274C3.64383 6.58165 5.04182 6.00165 6.5 6H18.5C19.9582 6.00165 21.3562 6.58165 22.3873 7.61274C23.4184 8.64383 23.9983 10.0418 24 11.5C24 11.6326 23.9473 11.7598 23.8536 11.8536C23.7598 11.9473 23.6326 12 23.5 12Z" fill="var(--fill-0, white)"/>
</svg>
