<svg preserveAspectRatio="none" width="100%" height="100%" overflow="visible" style="display: block;" viewBox="0 0 25.5 29.5" fill="none" xmlns="http://www.w3.org/2000/svg">
<path id="Vector" d="M25.5 11.75C25.498 9.9604 24.7862 8.24466 23.5208 6.97922C22.2553 5.71378 20.5396 5.00199 18.75 5H13.5V4.75C13.5 3.88805 13.8424 3.0614 14.4519 2.4519C15.0614 1.84241 15.888 1.5 16.75 1.5C16.9489 1.5 17.1397 1.42098 17.2803 1.28033C17.421 1.13968 17.5 0.948912 17.5 0.75C17.5 0.551088 17.421 0.360322 17.2803 0.21967C17.1397 0.0790177 16.9489 0 16.75 0C15.4902 0 14.282 0.500445 13.3912 1.39124C12.5004 2.28204 12 3.49022 12 4.75V5H6.75C4.9604 5.00199 3.24466 5.71378 1.97922 6.97922C0.713781 8.24466 0.00198514 9.9604 0 11.75C0.000451646 12.0808 0.0946295 12.4046 0.271618 12.684C0.448606 12.9635 0.701158 13.187 1 13.3287V14.75C1 19.0712 5.08875 22.3537 8.375 24.9912C10.1575 26.4225 12 27.9025 12 28.75C12 28.9489 12.079 29.1397 12.2197 29.2803C12.3603 29.421 12.5511 29.5 12.75 29.5C12.9489 29.5 13.1397 29.421 13.2803 29.2803C13.421 29.1397 13.5 28.9489 13.5 28.75C13.5 27.9025 15.3438 26.4225 17.125 24.9912C20.41 22.3537 24.5 19.0712 24.5 14.75V13.3287C24.7988 13.187 25.0514 12.9635 25.2284 12.684C25.4054 12.4046 25.4995 12.0808 25.5 11.75ZM6.75 6.5H18.75C20.1424 6.5 21.4777 7.05312 22.4623 8.03769C23.4469 9.02226 24 10.3576 24 11.75C24 11.8163 23.9737 11.8799 23.9268 11.9268C23.8799 11.9737 23.8163 12 23.75 12H1.75C1.6837 12 1.62011 11.9737 1.57322 11.9268C1.52634 11.8799 1.5 11.8163 1.5 11.75C1.5 10.3576 2.05312 9.02226 3.03769 8.03769C4.02226 7.05312 5.35761 6.5 6.75 6.5ZM16.1875 23.8225C14.7525 24.9738 13.5025 25.9775 12.75 26.9475C12 25.9825 10.75 24.9788 9.3125 23.8225C6.2775 21.385 2.5 18.3525 2.5 14.75V13.5H23V14.75C23 18.3525 19.2225 21.385 16.1875 23.8225Z" fill="var(--fill-0, white)"/>
</svg>
