<svg preserveAspectRatio="none" width="100%" height="100%" overflow="visible" style="display: block;" viewBox="0 0 24 24" fill="none" xmlns="http://www.w3.org/2000/svg">
<g id="radio">
<g id="bg">
<mask id="path-1-inside-1_2980_99523" fill="white">
<path d="M12 2C17.5228 2 22 6.47715 22 12C22 17.5228 17.5228 22 12 22C6.47715 22 2 17.5228 2 12C2 6.47715 6.47715 2 12 2Z"/>
</mask>
<path d="M12 2C17.5228 2 22 6.47715 22 12C22 17.5228 17.5228 22 12 22C6.47715 22 2 17.5228 2 12C2 6.47715 6.47715 2 12 2Z" fill="var(--fill-0, #0DC267)"/>
<path d="M12 2V3.5C16.6944 3.5 20.5 7.30558 20.5 12H22H23.5C23.5 5.64873 18.3513 0.5 12 0.5V2ZM22 12H20.5C20.5 16.6944 16.6944 20.5 12 20.5V22V23.5C18.3513 23.5 23.5 18.3513 23.5 12H22ZM12 22V20.5C7.30558 20.5 3.5 16.6944 3.5 12H2H0.5C0.5 18.3513 5.64873 23.5 12 23.5V22ZM2 12H3.5C3.5 7.30558 7.30558 3.5 12 3.5V2V0.5C5.64873 0.5 0.5 5.64873 0.5 12H2Z" fill="var(--stroke-0, #0DC267)" mask="url(#path-1-inside-1_2980_99523)"/>
</g>
<path id="icon" d="M12 16C14.2091 16 16 14.2091 16 12C16 9.79086 14.2091 8 12 8C9.79086 8 8 9.79086 8 12C8 14.2091 9.79086 16 12 16Z" fill="var(--fill-0, white)"/>
</g>
</svg>
