<svg preserveAspectRatio="none" width="100%" height="100%" overflow="visible" style="display: block;" viewBox="0 0 203 34" fill="none" xmlns="http://www.w3.org/2000/svg">
<g id="logo-light 1" clip-path="url(#clip0_4228_12543)">
<path id="Vector" d="M16.0005 0C21.1934 0.000363737 25.1487 4.32826 25.6925 9.51337C25.7216 9.79123 25.7362 9.93016 25.7913 10.0226C25.8426 10.1085 25.9065 10.1674 25.9963 10.2114C26.093 10.2587 26.2259 10.2617 26.4918 10.2676C28.1634 10.3047 29.1844 10.4358 29.9458 10.9023C30.8758 11.4724 31.5618 12.3663 31.8716 13.4121C32.1811 14.4568 31.9093 15.7456 31.2935 18.0781L31.0093 19.1436L29.3755 25.2432C28.6221 28.0548 28.2448 29.4608 27.4429 30.5059C26.7352 31.4281 25.7971 32.1479 24.7232 32.5928C23.5062 33.0967 22.0507 33.0967 19.1402 33.0967H12.8599C9.94926 33.0967 8.49387 33.0969 7.27689 32.5928C6.2029 32.1479 5.26484 31.4281 4.55716 30.5059C3.75529 29.4608 3.37888 28.0547 2.62552 25.2432L0.990756 19.1436C0.180246 16.1187 -0.225191 14.606 0.128452 13.4121C0.438332 12.3661 1.12505 11.4724 2.05521 10.9023C2.81625 10.436 3.83623 10.3048 5.50638 10.2676C5.77222 10.2617 5.90515 10.2587 6.00182 10.2114C6.09164 10.1674 6.15555 10.1085 6.20678 10.0226C6.26192 9.93018 6.27649 9.79125 6.30564 9.5134C6.84962 4.32804 10.8073 0 16.0005 0ZM16.0005 3.86328C13.2956 3.86328 10.7504 6.11304 10.2112 9.4261C10.1694 9.68308 10.1484 9.81157 10.194 9.93335C10.2316 10.0337 10.3162 10.1332 10.4092 10.1864C10.5221 10.251 10.6648 10.251 10.9502 10.251H21.0489C21.3343 10.251 21.477 10.251 21.5899 10.1864C21.6829 10.1332 21.7675 10.0337 21.8051 9.93336C21.8507 9.81159 21.8298 9.68309 21.7879 9.4261C21.249 6.11332 18.7052 3.86364 16.0005 3.86328Z" fill="var(--fill-0, #0DC267)"/>
<path id="Vector_2" d="M10.4791 26.2477L11.7672 18.5187H13.8541L12.5659 26.2477H10.4791ZM13.0296 17.6299C12.7033 17.6299 12.45 17.5483 12.2696 17.3851C12.0979 17.2133 12.012 16.9858 12.012 16.7024C12.012 16.3503 12.1236 16.0712 12.3469 15.8651C12.5702 15.6504 12.8665 15.543 13.2358 15.543C13.5621 15.543 13.8111 15.6289 13.9829 15.8007C14.1632 15.9638 14.2534 16.1828 14.2534 16.4576C14.2534 16.8011 14.1418 17.0845 13.9185 17.3078C13.7038 17.5225 13.4075 17.6299 13.0296 17.6299ZM13.8611 26.2477L14.8401 20.3736C14.9088 19.9872 14.9646 19.6222 15.0076 19.2787C15.0505 18.9266 15.072 18.6733 15.072 18.5187H16.9269C16.9269 18.699 16.9141 18.888 16.8883 19.0855C16.8711 19.2744 16.8454 19.4719 16.811 19.678H17.1202C17.3177 19.2916 17.5753 18.9695 17.8931 18.7119C18.2108 18.4543 18.6531 18.3255 19.2199 18.3255C19.7695 18.3255 20.2204 18.45 20.5724 18.699C20.9331 18.9481 21.1822 19.2916 21.3196 19.7296C21.4656 20.159 21.4913 20.6613 21.3969 21.2367L20.5596 26.2477H18.4727L19.2585 21.533C19.353 21.0006 19.3315 20.5926 19.1941 20.3092C19.0567 20.0258 18.812 19.8841 18.4599 19.8841C18.1335 19.8841 17.8415 20.0044 17.5839 20.2448C17.3263 20.4853 17.1116 20.8073 16.9398 21.211C16.7767 21.6146 16.6521 22.0568 16.5663 22.5378L15.9479 26.2477H13.8611Z" fill="var(--fill-0, #111111)"/>
<path id="Vector_3" d="M54.75 25.0483H52.6406V8.13818H54.75V25.0483ZM56.7548 25.0483V12.8608H58.6767V14.8062H58.7236C59.4033 13.4937 60.7041 12.6499 62.5908 12.6499C65.2627 12.6499 66.8095 14.3726 66.8095 17.1382V25.0483H64.7705V17.5015C64.7705 15.5327 63.8447 14.4546 61.9697 14.4546C60.0478 14.4546 58.7939 15.814 58.7939 17.8765V25.0483H56.7548ZM78.4472 12.8608L73.9706 25.0483H71.8847L67.3964 12.8608H69.5409L72.9042 22.8804H72.9511L76.3261 12.8608H78.4472ZM83.6278 14.4194C81.7177 14.4194 80.3817 15.8843 80.2528 17.9116H86.8739C86.827 15.8726 85.5497 14.4194 83.6278 14.4194ZM86.827 21.5562H88.8309C88.4794 23.689 86.4169 25.2593 83.7567 25.2593C80.2645 25.2593 78.1434 22.8335 78.1434 19.0015C78.1434 15.2163 80.2997 12.6499 83.663 12.6499C86.9559 12.6499 88.9833 15.0405 88.9833 18.7319V19.5054H80.2411V19.6226C80.2411 21.9546 81.6122 23.4897 83.8036 23.4897C85.3505 23.4897 86.4872 22.7046 86.827 21.5562ZM90.0858 25.0483V12.8608H92.0077V14.853H92.0545C92.453 13.5054 93.578 12.6499 95.0077 12.6499C95.3592 12.6499 95.6639 12.7085 95.828 12.7319V14.7124C95.6639 14.6538 95.2303 14.5952 94.7381 14.5952C93.1561 14.5952 92.1248 15.7319 92.1248 17.4546V25.0483H90.0858ZM97.1883 9.91943H99.2273V12.8608H101.595V14.5366H99.2273V21.7788C99.2273 22.8921 99.6961 23.396 100.739 23.396C100.973 23.396 101.442 23.3608 101.583 23.3374V25.0483C101.337 25.1069 100.774 25.1421 100.294 25.1421C98.0555 25.1421 97.1883 24.228 97.1883 21.8843V14.5366H95.3719V12.8608H97.1883V9.91943ZM106.284 20.396H108.405C108.604 22.2241 110.339 23.4312 112.753 23.4312C115.038 23.4312 116.702 22.2241 116.702 20.5601C116.702 19.1304 115.706 18.2515 113.432 17.6655L111.264 17.103C108.147 16.3062 106.764 14.9351 106.764 12.6382C106.764 9.82568 109.225 7.85693 112.741 7.85693C116.104 7.85693 118.542 9.84912 118.635 12.6851H116.526C116.339 10.8687 114.874 9.75537 112.671 9.75537C110.479 9.75537 108.956 10.8921 108.956 12.5444C108.956 13.8218 109.893 14.5835 112.19 15.1812L113.96 15.6499C117.464 16.5288 118.882 17.8765 118.882 20.3022C118.882 23.396 116.444 25.3296 112.553 25.3296C108.967 25.3296 106.483 23.3843 106.284 20.396ZM120.722 9.91943H122.761V12.8608H125.129V14.5366H122.761V21.7788C122.761 22.8921 123.23 23.396 124.273 23.396C124.507 23.396 124.976 23.3608 125.117 23.3374V25.0483C124.871 25.1069 124.308 25.1421 123.828 25.1421C121.59 25.1421 120.722 24.228 120.722 21.8843V14.5366H118.906V12.8608H120.722V9.91943ZM131.048 25.2593C127.673 25.2593 125.399 22.8335 125.399 18.9546C125.399 15.064 127.673 12.6499 131.048 12.6499C134.411 12.6499 136.684 15.064 136.684 18.9546C136.684 22.8335 134.411 25.2593 131.048 25.2593ZM131.048 23.4663C133.204 23.4663 134.61 21.8257 134.61 18.9546C134.61 16.0835 133.204 14.4429 131.048 14.4429C128.891 14.4429 127.473 16.0835 127.473 18.9546C127.473 21.8257 128.891 23.4663 131.048 23.4663ZM137.787 25.0483V12.8608H139.709V14.853H139.755C140.154 13.5054 141.279 12.6499 142.709 12.6499C143.06 12.6499 143.365 12.7085 143.529 12.7319V14.7124C143.365 14.6538 142.931 14.5952 142.439 14.5952C140.857 14.5952 139.826 15.7319 139.826 17.4546V25.0483H137.787ZM145.241 29.6069C144.995 29.6069 144.585 29.5835 144.362 29.5366V27.8257C144.585 27.8726 144.901 27.8843 145.159 27.8843C146.295 27.8843 146.928 27.3335 147.397 25.9155L147.678 25.0601L143.178 12.8608H145.358L148.733 23.0093H148.768L152.143 12.8608H154.288L149.495 25.9038C148.452 28.7515 147.444 29.6069 145.241 29.6069ZM161.648 25.0483H155.261V8.13818H161.671C164.566 8.13818 166.523 9.82568 166.523 12.3569C166.523 14.1147 165.234 15.7554 163.605 16.0483V16.1421C165.902 16.4351 167.378 18.0522 167.378 20.3022C167.378 23.2788 165.246 25.0483 161.648 25.0483ZM157.371 10.0015V15.4272H160.535C163.031 15.4272 164.39 14.4312 164.39 12.603C164.39 10.9272 163.242 10.0015 161.191 10.0015H157.371ZM157.371 23.1851H161.332C163.875 23.1851 165.21 22.1538 165.21 20.1968C165.21 18.2397 163.828 17.2437 161.132 17.2437H157.371V23.1851ZM173.543 25.2593C170.168 25.2593 167.895 22.8335 167.895 18.9546C167.895 15.064 170.168 12.6499 173.543 12.6499C176.907 12.6499 179.18 15.064 179.18 18.9546C179.18 22.8335 176.907 25.2593 173.543 25.2593ZM173.543 23.4663C175.7 23.4663 177.106 21.8257 177.106 18.9546C177.106 16.0835 175.7 14.4429 173.543 14.4429C171.387 14.4429 169.969 16.0835 169.969 18.9546C169.969 21.8257 171.387 23.4663 173.543 23.4663ZM185.333 25.2593C181.958 25.2593 179.685 22.8335 179.685 18.9546C179.685 15.064 181.958 12.6499 185.333 12.6499C188.697 12.6499 190.97 15.064 190.97 18.9546C190.97 22.8335 188.697 25.2593 185.333 25.2593ZM185.333 23.4663C187.49 23.4663 188.896 21.8257 188.896 18.9546C188.896 16.0835 187.49 14.4429 185.333 14.4429C183.177 14.4429 181.759 16.0835 181.759 18.9546C181.759 21.8257 183.177 23.4663 185.333 23.4663ZM194.217 18.2749L199.608 12.8608H202.08L196.795 18.1226L202.245 25.0483H199.877L195.354 19.3765L194.217 20.4546V25.0483H192.178V8.13818H194.217V18.2749Z" fill="var(--fill-0, #111111)"/>
</g>
<defs>
<clipPath id="clip0_4228_12543">
<rect width="203" height="34" fill="white"/>
</clipPath>
</defs>
</svg>
