<svg preserveAspectRatio="none" width="100%" height="100%" overflow="visible" style="display: block;" viewBox="0 0 85.0285 97.554" fill="none" xmlns="http://www.w3.org/2000/svg">
<g id="Group">
<g id="Group_2">
<path id="Vector" d="M63.4379 26.0462H33.4922V2.31913L50.4556 1.00547C57.4576 0.46337 63.4379 5.99876 63.4379 13.0216V26.0462Z" fill="var(--fill-0, #555A5E)"/>
<path id="Vector_2" d="M33.4923 2.31911H31.0981C25.8353 2.31911 21.5697 6.58541 21.5697 11.8475V26.0454L29.8906 20.3073L33.4923 2.31911Z" fill="var(--fill-0, #555A5E)"/>
</g>
<path id="Vector_3" d="M63.4379 23.86C63.4379 37.0412 54.0662 47.7273 42.5038 47.7273C32.7831 47.7273 24.6144 40.175 22.2603 29.9419C21.8074 28.0037 21.5697 25.9615 21.5697 23.86C21.5697 10.6861 30.9414 0 42.5038 0C54.0662 0 63.4379 10.6861 63.4379 23.86Z" fill="var(--fill-0, #555A5E)"/>
<g id="Group_3">
<path id="Vector_4" d="M85.0285 79.4938C81.3229 83.3331 77.0975 86.6748 72.4785 89.3928C72.3523 89.467 72.2186 89.5487 72.0849 89.623C63.389 94.6653 53.2895 97.554 42.5143 97.554C32.0658 97.554 22.2486 94.8435 13.7383 90.0834C13.3447 89.8606 12.9586 89.6378 12.5724 89.4151C7.93856 86.6748 3.69828 83.3331 9.42593e-05 79.4864L1.01746 75.4838C2.54723 69.4538 7.29991 64.7754 13.3447 63.3273L15.2087 62.8817L16.4637 62.5847L22.4565 61.1515L23.2734 60.9584L23.459 60.9138C24.3205 60.7133 25.1448 60.4163 25.9245 60.0375C27.2686 59.3989 28.4716 58.5152 29.4816 57.4458C30.9074 55.9606 31.9545 54.1115 32.4817 52.0471L33.2689 48.9801L33.4842 48.1558L33.4991 48.0964L34.5016 44.1977L34.8061 43.0318H50.2152L51.3588 47.4875L51.4627 47.8811L51.5221 48.1113L51.537 48.1633L51.7523 48.995L52.5321 52.0471C53.4529 55.619 55.9184 58.5375 59.1784 60.0821H59.1858C59.9433 60.4386 60.7379 60.7133 61.5622 60.9138L62.5573 61.1515L62.6092 61.1663L69.4264 62.7926L69.8571 62.8966L71.6765 63.3273C77.7213 64.7754 82.474 69.4538 84.0038 75.4838L85.0285 79.4938Z" fill="var(--fill-0, #F4F4F4)"/>
<path id="Vector_5" d="M51.5163 48.1061C50.2093 53.8464 46.6708 57.9634 42.5077 57.9634C38.3417 57.9634 34.7965 53.8375 33.4924 48.0905L34.4979 44.1918L34.7994 43.0266H50.207L51.3536 47.4823L51.4583 47.8818L51.5163 48.1061Z" fill="var(--fill-0, #D2D4DA)"/>
<path id="Vector_6" d="M25.2717 26.2623C17.5999 17.654 22.7187 38.698 26.9627 36.2384C34.4229 31.915 25.2717 26.2623 25.2717 26.2623Z" fill="var(--fill-0, #F4F4F4)"/>
<path id="Vector_7" d="M59.7346 26.2623C67.4064 17.654 62.2876 38.698 58.0436 36.2384C50.5834 31.915 59.7346 26.2623 59.7346 26.2623Z" fill="var(--fill-0, #F4F4F4)"/>
<path id="Vector_8" d="M60.3517 20.0556C60.3517 20.7091 60.3146 21.3551 60.2477 21.9864C60.2032 22.4468 60.0324 24.0508 59.7428 26.2341L59.7353 26.2638C58.9333 32.2269 57.203 42.46 54.4703 45.1854C52.5098 47.1533 50.928 48.9281 49.1383 50.2203C47.3412 51.5124 45.3288 52.307 42.5069 52.307H42.4994C36.8631 52.307 34.4644 49.1064 30.5435 45.1854C28.583 43.2249 27.1349 37.3954 26.1695 32.0561C26.125 31.8036 26.0804 31.5437 26.0433 31.2986C25.9096 30.5041 25.7834 29.7169 25.6645 28.9668C25.0482 24.9791 24.7511 21.8601 24.7511 21.8601C24.6917 21.266 24.662 20.6645 24.662 20.0556C24.662 19.8996 24.662 19.7437 24.6695 19.5877C24.7066 18.1842 24.8997 16.8178 25.2413 15.5108C25.2561 15.4514 25.2784 15.392 25.2932 15.3326C27.276 8.08476 33.7144 2.67858 41.4821 2.24044C41.8237 2.21817 42.1578 2.21073 42.4994 2.21073H42.5069C52.3613 2.21073 60.3517 10.2012 60.3517 20.0556Z" fill="var(--fill-0, #F4F4F4)"/>
</g>
<path id="Vector_9" d="M60.8196 20.1722C60.8196 20.8427 60.7817 21.5059 60.7127 22.1534C60.6674 22.6257 59.7346 26.2615 59.7346 26.2615C41.5668 25.461 33.857 16.8193 33.857 16.8193C30.6564 26.2155 25.6646 28.9668 25.6646 28.9668C25.0319 24.8743 24.2856 22.0242 24.2856 22.0242C24.2247 21.4145 24.1942 20.7974 24.1942 20.1722C24.1942 20.0118 24.1942 19.8521 24.2017 19.6924C24.2395 18.2518 24.4378 16.8497 24.7883 15.5086C24.8039 15.4477 24.8262 15.3868 24.8418 15.3259C26.8765 7.88797 33.4835 2.33995 41.4546 1.89067C41.8051 1.86765 42.1482 1.86023 42.4987 1.86023H42.5062C52.619 1.86023 60.8196 10.0601 60.8196 20.1722Z" fill="var(--fill-0, #555A5E)"/>
<g id="Group_4">
<path id="Vector_10" d="M85.0285 79.4938C81.3229 83.3331 77.0975 86.6748 72.4784 89.3928C72.3522 89.467 72.2185 89.5487 72.0849 89.623C67.555 92.2518 62.6389 94.294 57.4481 95.6455C52.6806 96.8931 47.6754 97.554 42.5143 97.554C37.3977 97.554 32.4371 96.908 27.7067 95.6752C22.7684 94.4128 18.0825 92.5117 13.7383 90.0834C13.3447 89.8606 12.9585 89.6378 12.5724 89.4151C7.93851 86.6748 3.69823 83.3331 4.71296e-05 79.4864L1.01741 75.4838C2.54718 69.4538 7.29986 64.7754 13.3447 63.3273L15.2086 62.8817L16.4636 62.5847L22.4565 61.1515L23.2733 60.9584L23.459 60.9138C24.3204 60.7133 25.1447 60.4163 25.9244 60.0375L25.9467 60.045L32.296 66.3943C33.6624 67.7532 35.2664 68.8226 37.0116 69.5503C38.7567 70.2707 40.6503 70.6568 42.5811 70.6568C46.4352 70.6568 50.1334 69.1196 52.8662 66.3943L59.1784 60.0821H59.1858C59.9433 60.4386 60.7378 60.7133 61.5621 60.9138L62.5572 61.1515L62.6092 61.1663L69.4263 62.7926L69.857 62.8966L71.6764 63.3273C77.7212 64.7754 82.4739 69.4538 84.0037 75.4838L85.0285 79.4938Z" fill="var(--fill-0, #555A5E)"/>
<path id="Vector_11" d="M57.5669 93.789C57.5669 94.4202 57.5298 95.0366 57.4481 95.6455C52.6805 96.8931 47.6754 97.554 42.5142 97.554C37.3977 97.554 32.4371 96.908 27.7067 95.6752C27.625 95.0589 27.5879 94.4277 27.5879 93.789C27.5879 85.509 34.301 78.7958 42.5811 78.7958C50.8612 78.7958 57.5669 85.509 57.5669 93.789Z" fill="var(--fill-0, #6E7174)"/>
</g>
</g>
</svg>
