<svg preserveAspectRatio="none" width="100%" height="100%" overflow="visible" style="display: block;" viewBox="0 0 26 25.0001" fill="none" xmlns="http://www.w3.org/2000/svg">
<path id="Vector" d="M26 12.0001C26 15.4479 24.6304 18.7545 22.1924 21.1925C19.7544 23.6304 16.4478 25.0001 13 25.0001C9.55219 25.0001 6.24558 23.6304 3.80761 21.1925C1.36964 18.7545 0 15.4479 0 12.0001C0 6.87507 2.97625 2.20507 7.5825 0.0913167C7.70184 0.0364898 7.83081 0.00570541 7.96204 0.000720938C8.09328 -0.00426353 8.22421 0.0166495 8.34737 0.0622663C8.47052 0.107883 8.58348 0.17731 8.6798 0.266583C8.77613 0.355857 8.85392 0.463228 8.90875 0.582567C8.96358 0.701905 8.99436 0.830874 8.99935 0.96211C9.00433 1.09335 8.98342 1.22428 8.9378 1.34743C8.89218 1.47059 8.82276 1.58355 8.73348 1.67987C8.64421 1.77619 8.53684 1.85399 8.4175 1.90882C4.51875 3.69882 2 7.65882 2 12.0001C2 14.9174 3.15893 17.7153 5.22183 19.7782C7.28473 21.8411 10.0826 23.0001 13 23.0001C15.9174 23.0001 18.7153 21.8411 20.7782 19.7782C22.8411 17.7153 24 14.9174 24 12.0001C24 7.65882 21.4813 3.69882 17.5825 1.90882C17.3415 1.79809 17.1543 1.59615 17.0622 1.34743C16.9701 1.09871 16.9805 0.823582 17.0912 0.582567C17.202 0.341551 17.4039 0.154394 17.6526 0.0622663C17.9014 -0.0298609 18.1765 -0.0194112 18.4175 0.0913167C23.0237 2.20507 26 6.87507 26 12.0001Z" fill="var(--fill-0, white)"/>
</svg>
