<svg preserveAspectRatio="none" width="100%" height="100%" overflow="visible" style="display: block;" viewBox="0 0 42.5143 48.777" fill="none" xmlns="http://www.w3.org/2000/svg">
<g id="Group">
<g id="Group_2">
<path id="Vector" d="M31.7189 13.0231H16.7461V1.15957L25.2278 0.502736C28.7288 0.231685 31.7189 2.99938 31.7189 6.5108V13.0231Z" fill="var(--fill-0, #555A5E)"/>
<path id="Vector_2" d="M16.7461 1.15956H15.5491C12.9176 1.15956 10.7849 3.2927 10.7849 5.92376V13.0227L14.9453 10.1536L16.7461 1.15956Z" fill="var(--fill-0, #555A5E)"/>
</g>
<path id="Vector_3" d="M31.7189 11.93C31.7189 18.5206 27.0331 23.8637 21.2519 23.8637C16.3915 23.8637 12.3072 20.0875 11.1302 14.971C10.9037 14.0018 10.7849 12.9808 10.7849 11.93C10.7849 5.34306 15.4707 0 21.2519 0C27.0331 0 31.7189 5.34306 31.7189 11.93Z" fill="var(--fill-0, #555A5E)"/>
<g id="Group_3">
<path id="Vector_4" d="M42.5143 39.7469C40.6615 41.6666 38.5488 43.3374 36.2392 44.6964C36.1761 44.7335 36.1093 44.7744 36.0425 44.8115C31.6945 47.3326 26.6448 48.777 21.2572 48.777C16.0329 48.777 11.1243 47.4218 6.86916 45.0417C6.67237 44.9303 6.47929 44.8189 6.28621 44.7075C3.96928 43.3374 1.84914 41.6665 4.71296e-05 39.7432L0.508731 37.7419C1.27362 34.7269 3.64996 32.3877 6.67236 31.6636L7.60434 31.4409L8.23184 31.2923L11.2283 30.5757L11.6367 30.4792L11.7295 30.4569C12.1602 30.3567 12.5724 30.2081 12.9622 30.0188C13.6343 29.6995 14.2358 29.2576 14.7408 28.7229C15.4537 27.9803 15.9772 27.0558 16.2409 26.0235L16.6344 24.4901L16.7421 24.0779L16.7495 24.0482L17.2508 22.0989L17.403 21.5159H25.1076L25.6794 23.7437L25.7314 23.9405L25.7611 24.0556L25.7685 24.0816L25.8762 24.4975L26.266 26.0235C26.7265 27.8095 27.9592 29.2687 29.5892 30.0411H29.5929C29.9717 30.2193 30.3689 30.3567 30.7811 30.4569L31.2786 30.5757L31.3046 30.5832L34.7132 31.3963L34.9285 31.4483L35.8382 31.6636C38.8606 32.3877 41.237 34.7269 42.0019 37.7419L42.5143 39.7469Z" fill="var(--fill-0, #F4F4F4)"/>
<path id="Vector_5" d="M25.7581 24.053C25.1046 26.9232 23.3354 28.9817 21.2539 28.9817C19.1708 28.9817 17.3982 26.9187 16.7462 24.0452L17.249 22.0959L17.3997 21.5133H25.1035L25.6768 23.7411L25.7292 23.9409L25.7581 24.053Z" fill="var(--fill-0, #D2D4DA)"/>
<path id="Vector_6" d="M12.6359 13.1311C8.79994 8.82698 11.3593 19.349 13.4813 18.1192C17.2114 15.9575 12.6359 13.1311 12.6359 13.1311Z" fill="var(--fill-0, #F4F4F4)"/>
<path id="Vector_7" d="M29.8673 13.1311C33.7032 8.82698 31.1438 19.349 29.0218 18.1192C25.2917 15.9575 29.8673 13.1311 29.8673 13.1311Z" fill="var(--fill-0, #F4F4F4)"/>
<path id="Vector_8" d="M30.1758 10.0278C30.1758 10.3545 30.1573 10.6776 30.1239 10.9932C30.1016 11.2234 30.0162 12.0254 29.8714 13.117L29.8677 13.1319C29.4667 16.1135 28.6015 21.23 27.2351 22.5927C26.2549 23.5767 25.464 24.4641 24.5692 25.1101C23.6706 25.7562 22.6644 26.1535 21.2534 26.1535H21.2497C18.4315 26.1535 17.2322 24.5532 15.2717 22.5927C14.2915 21.6125 13.5675 18.6977 13.0848 16.028C13.0625 15.9018 13.0402 15.7719 13.0216 15.6493C12.9548 15.252 12.8917 14.8584 12.8323 14.4834C12.5241 12.4895 12.3756 10.9301 12.3756 10.9301C12.3459 10.633 12.331 10.3323 12.331 10.0278C12.331 9.94981 12.331 9.87185 12.3347 9.79387C12.3533 9.09211 12.4498 8.4089 12.6206 7.75541C12.6281 7.72571 12.6392 7.69601 12.6466 7.6663C13.638 4.04238 16.8572 1.33929 20.741 1.12022C20.9118 1.10908 21.0789 1.10537 21.2497 1.10537H21.2534C26.1806 1.10537 30.1758 5.10059 30.1758 10.0278Z" fill="var(--fill-0, #F4F4F4)"/>
</g>
<path id="Vector_9" d="M30.4098 10.0861C30.4098 10.4214 30.3909 10.7529 30.3563 11.0767C30.3337 11.3129 29.8673 13.1308 29.8673 13.1308C20.7834 12.7305 16.9285 8.40964 16.9285 8.40964C15.3282 13.1077 12.8323 14.4834 12.8323 14.4834C12.5159 12.4372 12.1428 11.0121 12.1428 11.0121C12.1123 10.7073 12.0971 10.3987 12.0971 10.0861C12.0971 10.0059 12.0971 9.92605 12.1008 9.84622C12.1198 9.12589 12.2189 8.42487 12.3942 7.7543C12.402 7.72385 12.4131 7.6934 12.4209 7.66296C13.4383 3.94398 16.7417 1.16997 20.7273 0.945334C20.9026 0.933824 21.0741 0.930117 21.2494 0.930117H21.2531C26.3095 0.930117 30.4098 5.03005 30.4098 10.0861Z" fill="var(--fill-0, #555A5E)"/>
<g id="Group_4">
<path id="Vector_10" d="M42.5142 39.7469C40.6614 41.6666 38.5487 43.3374 36.2392 44.6964C36.1761 44.7335 36.1093 44.7744 36.0424 44.8115C33.7775 46.1259 31.3195 47.147 28.724 47.8228C26.3403 48.4465 23.8377 48.777 21.2571 48.777C18.6989 48.777 16.2186 48.454 13.8533 47.8376C11.3842 47.2064 9.04126 46.2559 6.86913 45.0417C6.67234 44.9303 6.47927 44.8189 6.28619 44.7075C3.96926 43.3374 1.84911 41.6665 2.35648e-05 39.7432L0.508707 37.7419C1.27359 34.7269 3.64993 32.3877 6.67234 31.6636L7.60431 31.4409L8.23182 31.2923L11.2282 30.5757L11.6367 30.4792L11.7295 30.4569C12.1602 30.3567 12.5724 30.2081 12.9622 30.0188L12.9734 30.0225L16.148 33.1971C16.8312 33.8766 17.6332 34.4113 18.5058 34.7752C19.3783 35.1353 20.3252 35.3284 21.2906 35.3284C23.2176 35.3284 25.0667 34.5598 26.4331 33.1971L29.5892 30.0411H29.5929C29.9716 30.2193 30.3689 30.3567 30.7811 30.4569L31.2786 30.5757L31.3046 30.5832L34.7132 31.3963L34.9285 31.4483L35.8382 31.6636C38.8606 32.3877 41.237 34.7269 42.0019 37.7419L42.5142 39.7469Z" fill="var(--fill-0, #555A5E)"/>
<path id="Vector_11" d="M28.7834 46.8945C28.7834 47.2101 28.7649 47.5183 28.724 47.8228C26.3403 48.4466 23.8377 48.777 21.2571 48.777C18.6988 48.777 16.2185 48.454 13.8533 47.8376C13.8125 47.5294 13.7939 47.2138 13.7939 46.8945C13.7939 42.7545 17.1505 39.3979 21.2905 39.3979C25.4306 39.3979 28.7834 42.7545 28.7834 46.8945Z" fill="var(--fill-0, #6E7174)"/>
</g>
</g>
</svg>
