<svg preserveAspectRatio="none" width="100%" height="100%" overflow="visible" style="display: block;" viewBox="0 0 78 80.673" fill="none" xmlns="http://www.w3.org/2000/svg">
<g id="Group 1">
<path id="Vector" d="M39.0011 0C51.6588 0.000886607 61.2998 10.5501 62.6253 23.1888C62.6963 23.8661 62.7318 24.2047 62.8661 24.43C62.9912 24.6394 63.1469 24.783 63.3658 24.8902C63.6015 25.0055 63.9255 25.0128 64.5736 25.0272C68.6481 25.1176 71.1368 25.4372 72.9927 26.5743C75.2596 27.9639 76.9317 30.1428 77.6868 32.6919C78.4412 35.2384 77.7787 38.3798 76.2777 44.0653L75.585 46.6624L71.6026 61.5302C69.7662 68.3834 68.8465 71.8105 66.8919 74.358C65.1669 76.6058 62.8803 78.3603 60.2627 79.4448C57.2962 80.673 53.7485 80.673 46.6541 80.673H31.3459C24.2513 80.673 20.7038 80.6735 17.7374 79.4448C15.1195 78.3603 12.833 76.6058 11.1081 74.358C9.1535 71.8105 8.236 68.3832 6.39969 61.5302L2.41496 46.6624C0.439349 39.2892 -0.548902 35.602 0.313101 32.6919C1.06843 30.1423 2.7423 27.9639 5.00956 26.5743C6.86459 25.4377 9.35079 25.1179 13.4218 25.0272C14.0698 25.0128 14.3938 25.0055 14.6294 24.8902C14.8483 24.783 15.0041 24.6394 15.129 24.43C15.2634 24.2048 15.2989 23.8661 15.37 23.1889C16.6959 10.5496 26.3427 0 39.0011 0ZM39.0011 9.41672C32.4079 9.41672 26.204 14.9005 24.8897 22.9761C24.7879 23.6025 24.7367 23.9156 24.8478 24.2125C24.9395 24.4571 25.1457 24.6996 25.3724 24.8293C25.6476 24.9868 25.9954 24.9868 26.6911 24.9868H51.3066C52.0022 24.9868 52.3501 24.9868 52.6253 24.8293C52.8519 24.6996 53.0582 24.4571 53.1498 24.2125C53.261 23.9157 53.21 23.6025 53.1079 22.9761C51.7943 14.9012 45.5938 9.4176 39.0011 9.41672Z" fill="var(--fill-0, #0DC267)"/>
<path id="Vector_2" d="M25.5428 63.9785L28.6825 45.1391H33.7694L30.6294 63.9785H25.5428ZM31.7596 42.9727C30.9643 42.9727 30.3469 42.7738 29.9071 42.376C29.4886 41.9572 29.2792 41.4027 29.2792 40.7119C29.2792 39.8537 29.5513 39.1734 30.0956 38.671C30.6399 38.1477 31.3621 37.8859 32.2622 37.8859C33.0576 37.8859 33.6645 38.0953 34.0833 38.514C34.5228 38.9116 34.7426 39.4454 34.7426 40.1152C34.7426 40.9525 34.4706 41.6433 33.9263 42.1876C33.403 42.7109 32.6808 42.9727 31.7596 42.9727ZM33.7864 63.9785L36.1727 49.6604C36.3402 48.7186 36.4762 47.8289 36.581 46.9916C36.6856 46.1334 36.738 45.516 36.738 45.1391H41.2593C41.2593 45.5786 41.2281 46.0393 41.1652 46.5207C41.1233 46.9811 41.0606 47.4625 40.9768 47.9649H41.7304C42.2119 47.0231 42.8398 46.238 43.6144 45.6101C44.3888 44.9822 45.4669 44.6682 46.8485 44.6682C48.1881 44.6682 49.2872 44.9717 50.1452 45.5786C51.0244 46.1858 51.6316 47.0231 51.9665 48.0907C52.3223 49.1374 52.385 50.3617 52.1549 51.7642L50.114 63.9785H45.0272L46.9425 52.4865C47.1729 51.1888 47.1205 50.1943 46.7856 49.5035C46.4507 48.8127 45.8542 48.4673 44.996 48.4673C44.2004 48.4673 43.4886 48.7605 42.8607 49.3465C42.2328 49.9327 41.7095 50.7176 41.2907 51.7016C40.8932 52.6854 40.5895 53.7632 40.3803 54.9357L38.873 63.9785H33.7864Z" fill="var(--fill-0, #111111)"/>
</g>
</svg>
