<svg preserveAspectRatio="none" width="100%" height="100%" overflow="visible" style="display: block;" viewBox="0 0 184.228 211.367" fill="none" xmlns="http://www.w3.org/2000/svg">
<g id="Group">
<g id="Group_2">
<path id="Vector" d="M137.449 56.4334H72.5665V5.02478L109.32 2.17852C124.492 1.00397 137.449 12.9973 137.449 28.2134V56.4334Z" fill="var(--fill-0, #555A5E)"/>
<path id="Vector_2" d="M72.5666 5.02475H67.3792C55.9764 5.02475 46.7344 14.2684 46.7344 25.6696V56.4317L64.7631 43.9991L72.5666 5.02475Z" fill="var(--fill-0, #555A5E)"/>
</g>
<path id="Vector_3" d="M137.449 51.6966C137.449 80.256 117.143 103.409 92.0916 103.409C71.03 103.409 53.3312 87.0459 48.2308 64.8741C47.2493 60.6747 46.7344 56.25 46.7344 51.6966C46.7344 23.1532 67.0397 0 92.0916 0C117.143 0 137.449 23.1532 137.449 51.6966Z" fill="var(--fill-0, #555A5E)"/>
<g id="Group_3">
<path id="Vector_4" d="M184.229 172.237C176.2 180.555 167.045 187.795 157.037 193.684C156.763 193.845 156.474 194.022 156.184 194.183C137.343 205.108 115.461 211.367 92.1143 211.367C69.476 211.367 48.2053 205.494 29.7664 195.181C28.9136 194.698 28.0769 194.215 27.2403 193.733C17.2002 187.795 8.01293 180.555 0.000204228 172.221L2.2045 163.548C5.519 150.483 15.8165 140.347 28.9136 137.209L32.9521 136.244L35.6713 135.6L48.6558 132.495L50.4257 132.076L50.8279 131.98C52.6943 131.546 54.4803 130.902 56.1697 130.081C59.082 128.698 61.6885 126.783 63.8767 124.466C66.966 121.248 69.2346 117.242 70.377 112.769L72.0825 106.124L72.5492 104.338L72.5813 104.209L74.7535 95.7618L75.4131 93.2356H108.799L111.277 102.89L111.503 103.742L111.631 104.241L111.663 104.354L112.13 106.156L113.82 112.769C115.815 120.508 121.156 126.831 128.22 130.178H128.236C129.877 130.95 131.599 131.546 133.385 131.98L135.541 132.495L135.653 132.527L150.424 136.051L151.357 136.276L155.299 137.209C168.396 140.347 178.694 150.483 182.008 163.548L184.229 172.237Z" fill="var(--fill-0, #F4F4F4)"/>
<path id="Vector_5" d="M111.619 104.23C108.787 116.667 101.12 125.587 92.1 125.587C83.0736 125.587 75.3923 116.648 72.567 104.196L74.7455 95.7488L75.3988 93.2244H108.782L111.266 102.878L111.493 103.744L111.619 104.23Z" fill="var(--fill-0, #D2D4DA)"/>
<path id="Vector_6" d="M54.7554 56.9016C38.1331 38.2502 49.2238 83.8456 58.4191 78.5166C74.5829 69.1492 54.7554 56.9016 54.7554 56.9016Z" fill="var(--fill-0, #F4F4F4)"/>
<path id="Vector_7" d="M129.425 56.9016C146.047 38.2502 134.957 83.8456 125.761 78.5166C109.597 69.1492 129.425 56.9016 129.425 56.9016Z" fill="var(--fill-0, #F4F4F4)"/>
<path id="Vector_8" d="M130.762 43.4537C130.762 44.8696 130.682 46.2695 130.537 47.6371C130.44 48.6347 130.07 52.1101 129.443 56.8405L129.427 56.9048C127.689 69.825 123.94 91.9967 118.019 97.9017C113.771 102.165 110.344 106.011 106.466 108.811C102.573 111.61 98.2123 113.332 92.0982 113.332H92.0821C79.87 113.332 74.6729 106.397 66.1775 97.9017C61.9298 93.654 58.7923 81.0234 56.7006 69.4549C56.6041 68.9078 56.5076 68.3447 56.4271 67.8137C56.1375 66.0921 55.864 64.3866 55.6065 62.7615C54.2711 54.1213 53.6275 47.3636 53.6275 47.3636C53.4988 46.0764 53.4344 44.7731 53.4344 43.4537C53.4344 43.1158 53.4344 42.778 53.4505 42.4401C53.5309 39.3991 53.9493 36.4386 54.6894 33.6068C54.7216 33.4781 54.7699 33.3494 54.802 33.2206C59.098 17.517 73.0479 5.80359 89.8778 4.8543C90.6179 4.80603 91.342 4.78992 92.0821 4.78992H92.0982C113.449 4.78992 130.762 22.1026 130.762 43.4537Z" fill="var(--fill-0, #F4F4F4)"/>
</g>
<path id="Vector_9" d="M131.776 43.7064C131.776 45.1593 131.694 46.5961 131.544 47.9991C131.446 49.0224 129.425 56.9 129.425 56.9C90.0613 55.1655 73.3569 36.4418 73.3569 36.4418C66.4222 56.8002 55.6066 62.7615 55.6066 62.7615C54.2358 53.8944 52.6187 47.7191 52.6187 47.7191C52.4868 46.3982 52.4208 45.0611 52.4208 43.7064C52.4208 43.3588 52.4208 43.0129 52.4369 42.667C52.519 39.5455 52.9486 36.5078 53.708 33.602C53.7418 33.47 53.7901 33.3381 53.8239 33.2061C58.2325 17.0906 72.5476 5.06988 89.8184 4.09645C90.5778 4.04657 91.3212 4.03051 92.0806 4.03051H92.0967C114.008 4.03051 131.776 21.7969 131.776 43.7064Z" fill="var(--fill-0, #555A5E)"/>
<g id="Group_4">
<path id="Vector_10" d="M184.228 172.237C176.2 180.555 167.044 187.796 157.037 193.684C156.763 193.845 156.473 194.022 156.184 194.183C146.369 199.879 135.718 204.304 124.471 207.232C114.141 209.935 103.297 211.367 92.1142 211.367C81.0284 211.367 70.2804 209.967 60.0312 207.296C49.3315 204.561 39.1788 200.442 29.7662 195.181C28.9135 194.698 28.0768 194.215 27.2401 193.733C17.2001 187.796 8.01283 180.555 0.000102114 172.221L2.2044 163.548C5.5189 150.483 15.8164 140.347 28.9135 137.209L32.952 136.244L35.6712 135.6L48.6557 132.495L50.4256 132.076L50.8278 131.98C52.6942 131.546 54.4802 130.902 56.1696 130.081L56.2179 130.097L69.9747 143.854C72.9352 146.799 76.4106 149.116 80.1917 150.692C83.9728 152.253 88.0757 153.09 92.2591 153.09C100.61 153.09 108.622 149.759 114.543 143.854L128.22 130.178H128.236C129.877 130.95 131.599 131.546 133.385 131.98L135.541 132.495L135.653 132.527L150.424 136.051L151.357 136.276L155.299 137.209C168.396 140.347 178.694 150.483 182.008 163.548L184.228 172.237Z" fill="var(--fill-0, #555A5E)"/>
<path id="Vector_11" d="M124.728 203.21C124.728 204.577 124.648 205.913 124.471 207.232C114.141 209.935 103.297 211.367 92.1142 211.367C81.0283 211.367 70.2803 209.967 60.0311 207.296C59.8541 205.961 59.7737 204.593 59.7737 203.21C59.7737 185.269 74.3189 170.724 92.259 170.724C110.199 170.724 124.728 185.269 124.728 203.21Z" fill="var(--fill-0, #6E7174)"/>
</g>
</g>
</svg>
